<?xml version="1.0" encoding="UTF-8" standalone="no"?>
<!DOCTYPE svg PUBLIC "-//W3C//DTD SVG 1.1//EN"
 "http://www.w3.org/Graphics/SVG/1.1/DTD/svg11.dtd">
<!-- Generated by graphviz version 2.38.0 (20140413.2041)
 -->
<!-- Title: S:/QT_CREATOR/Locker_Control/DataStructures.h Pages: 1 -->
<svg width="106pt" height="86pt"
 viewBox="0.00 0.00 106.00 86.00" xmlns="http://www.w3.org/2000/svg" xmlns:xlink="http://www.w3.org/1999/xlink">
<g id="graph0" class="graph" transform="scale(1 1) rotate(0) translate(4 82)">
<title>S:/QT_CREATOR/Locker_Control/DataStructures.h</title>
<!-- Node1 -->
<g id="node1" class="node"><title>Node1</title>
<polygon fill="#bfbfbf" stroke="black" points="0,-53.5 0,-77.5 98,-77.5 98,-53.5 0,-53.5"/>
<text text-anchor="start" x="8" y="-67.9" font-family="Helvetica,sans-Serif" font-size="7.00">S:/QT_CREATOR/Locker</text>
<text text-anchor="middle" x="49" y="-59.9" font-family="Helvetica,sans-Serif" font-size="7.00">_Control/DataStructures.h</text>
</g>
<!-- Node2 -->
<g id="node2" class="node"><title>Node2</title>
<polygon fill="none" stroke="#bfbfbf" points="2,-0.5 2,-16.5 42,-16.5 42,-0.5 2,-0.5"/>
<text text-anchor="middle" x="22" y="-6.9" font-family="Helvetica,sans-Serif" font-size="7.00">QString</text>
</g>
<!-- Node1&#45;&gt;Node2 -->
<g id="edge1" class="edge"><title>Node1&#45;&gt;Node2</title>
<path fill="none" stroke="midnightblue" d="M43.5361,-53.3699C39.64,-45.4334 34.3399,-34.6369 29.9726,-25.7405"/>
<polygon fill="midnightblue" stroke="midnightblue" points="33.1114,-24.1918 25.5628,-16.7575 26.8277,-27.2765 33.1114,-24.1918"/>
</g>
<!-- Node3 -->
<g id="node3" class="node"><title>Node3</title>
<polygon fill="none" stroke="#bfbfbf" points="60.5,-0.5 60.5,-16.5 93.5,-16.5 93.5,-0.5 60.5,-0.5"/>
<text text-anchor="middle" x="77" y="-6.9" font-family="Helvetica,sans-Serif" font-size="7.00">QList</text>
</g>
<!-- Node1&#45;&gt;Node3 -->
<g id="edge2" class="edge"><title>Node1&#45;&gt;Node3</title>
<path fill="none" stroke="midnightblue" d="M54.6662,-53.3699C58.7066,-45.4334 64.2031,-34.6369 68.7321,-25.7405"/>
<polygon fill="midnightblue" stroke="midnightblue" points="71.8875,-27.257 73.3053,-16.7575 65.6493,-24.0812 71.8875,-27.257"/>
</g>
</g>
</svg>
