<?xml version="1.0" encoding="UTF-8" standalone="no"?>
<!DOCTYPE svg PUBLIC "-//W3C//DTD SVG 1.1//EN"
 "http://www.w3.org/Graphics/SVG/1.1/DTD/svg11.dtd">
<!-- Generated by graphviz version 2.38.0 (20140413.2041)
 -->
<!-- Title: S:/QT_CREATOR/Locker_Control/assistance.h Pages: 1 -->
<svg width="624pt" height="224pt"
 viewBox="0.00 0.00 624.00 224.00" xmlns="http://www.w3.org/2000/svg" xmlns:xlink="http://www.w3.org/1999/xlink">
<g id="graph0" class="graph" transform="scale(1 1) rotate(0) translate(4 220)">
<title>S:/QT_CREATOR/Locker_Control/assistance.h</title>
<!-- Node1 -->
<g id="node1" class="node"><title>Node1</title>
<polygon fill="#bfbfbf" stroke="black" points="118,-191.5 118,-215.5 213,-215.5 213,-191.5 118,-191.5"/>
<text text-anchor="start" x="126" y="-205.9" font-family="Helvetica,sans-Serif" font-size="7.00">S:/QT_CREATOR/Locker</text>
<text text-anchor="middle" x="165.5" y="-197.9" font-family="Helvetica,sans-Serif" font-size="7.00">_Control/assistance.h</text>
</g>
<!-- Node2 -->
<g id="node2" class="node"><title>Node2</title>
<g id="a_node2"><a xlink:href="assistance_8cpp.html" target="_top" xlink:title="S:/QT_CREATOR/Locker\l_Control/assistance.cpp">
<polygon fill="none" stroke="black" points="0,-130.5 0,-154.5 95,-154.5 95,-130.5 0,-130.5"/>
<text text-anchor="start" x="8" y="-144.9" font-family="Helvetica,sans-Serif" font-size="7.00">S:/QT_CREATOR/Locker</text>
<text text-anchor="middle" x="47.5" y="-136.9" font-family="Helvetica,sans-Serif" font-size="7.00">_Control/assistance.cpp</text>
</a>
</g>
</g>
<!-- Node1&#45;&gt;Node2 -->
<g id="edge1" class="edge"><title>Node1&#45;&gt;Node2</title>
<path fill="none" stroke="midnightblue" d="M134.12,-186.81C113.778,-176.639 87.7792,-163.64 69.5954,-154.548"/>
<polygon fill="midnightblue" stroke="midnightblue" points="132.796,-190.061 143.305,-191.403 135.926,-183.8 132.796,-190.061"/>
</g>
<!-- Node3 -->
<g id="node3" class="node"><title>Node3</title>
<g id="a_node3"><a xlink:href="thread__linphonec_8h.html" target="_top" xlink:title="S:/QT_CREATOR/Locker\l_Control/thread_linphonec.h">
<polygon fill="none" stroke="black" points="113.5,-130.5 113.5,-154.5 217.5,-154.5 217.5,-130.5 113.5,-130.5"/>
<text text-anchor="start" x="121.5" y="-144.9" font-family="Helvetica,sans-Serif" font-size="7.00">S:/QT_CREATOR/Locker</text>
<text text-anchor="middle" x="165.5" y="-136.9" font-family="Helvetica,sans-Serif" font-size="7.00">_Control/thread_linphonec.h</text>
</a>
</g>
</g>
<!-- Node1&#45;&gt;Node3 -->
<g id="edge2" class="edge"><title>Node1&#45;&gt;Node3</title>
<path fill="none" stroke="midnightblue" d="M158.987,-181.198C158.452,-172.173 158.822,-162.035 160.097,-154.548"/>
<polygon fill="midnightblue" stroke="midnightblue" points="155.536,-181.836 160.089,-191.403 162.495,-181.085 155.536,-181.836"/>
</g>
<!-- Node5 -->
<g id="node5" class="node"><title>Node5</title>
<g id="a_node5"><a xlink:href="consolewindows_8h.html" target="_top" xlink:title="S:/QT_CREATOR/Locker\l_Control/consolewindows.h">
<polygon fill="none" stroke="black" points="285,-130.5 285,-154.5 386,-154.5 386,-130.5 285,-130.5"/>
<text text-anchor="start" x="293" y="-144.9" font-family="Helvetica,sans-Serif" font-size="7.00">S:/QT_CREATOR/Locker</text>
<text text-anchor="middle" x="335.5" y="-136.9" font-family="Helvetica,sans-Serif" font-size="7.00">_Control/consolewindows.h</text>
</a>
</g>
</g>
<!-- Node1&#45;&gt;Node5 -->
<g id="edge5" class="edge"><title>Node1&#45;&gt;Node5</title>
<path fill="none" stroke="midnightblue" d="M207.171,-188.038C236.946,-177.704 276.404,-164.01 303.668,-154.548"/>
<polygon fill="midnightblue" stroke="midnightblue" points="205.775,-184.817 197.476,-191.403 208.071,-191.43 205.775,-184.817"/>
</g>
<!-- Node3&#45;&gt;Node1 -->
<g id="edge3" class="edge"><title>Node3&#45;&gt;Node1</title>
<path fill="none" stroke="midnightblue" d="M172.009,-164.742C172.548,-173.763 172.182,-183.903 170.911,-191.403"/>
<polygon fill="midnightblue" stroke="midnightblue" points="175.461,-164.112 170.903,-154.548 168.502,-164.867 175.461,-164.112"/>
</g>
<!-- Node4 -->
<g id="node4" class="node"><title>Node4</title>
<g id="a_node4"><a xlink:href="thread__linphonec_8cpp.html" target="_top" xlink:title="S:/QT_CREATOR/Locker\l_Control/thread_linphonec.cpp">
<polygon fill="none" stroke="black" points="61,-69.5 61,-93.5 172,-93.5 172,-69.5 61,-69.5"/>
<text text-anchor="start" x="69" y="-83.9" font-family="Helvetica,sans-Serif" font-size="7.00">S:/QT_CREATOR/Locker</text>
<text text-anchor="middle" x="116.5" y="-75.9" font-family="Helvetica,sans-Serif" font-size="7.00">_Control/thread_linphonec.cpp</text>
</a>
</g>
</g>
<!-- Node3&#45;&gt;Node4 -->
<g id="edge4" class="edge"><title>Node3&#45;&gt;Node4</title>
<path fill="none" stroke="midnightblue" d="M149.762,-122.55C141.81,-112.975 132.44,-101.693 125.675,-93.5477"/>
<polygon fill="midnightblue" stroke="midnightblue" points="147.202,-124.946 156.283,-130.403 152.587,-120.473 147.202,-124.946"/>
</g>
<!-- Node6 -->
<g id="node6" class="node"><title>Node6</title>
<g id="a_node6"><a xlink:href="consolewindows_8cpp.html" target="_top" xlink:title="S:/QT_CREATOR/Locker\l_Control/consolewindows.cpp">
<polygon fill="none" stroke="black" points="190.5,-69.5 190.5,-93.5 298.5,-93.5 298.5,-69.5 190.5,-69.5"/>
<text text-anchor="start" x="198.5" y="-83.9" font-family="Helvetica,sans-Serif" font-size="7.00">S:/QT_CREATOR/Locker</text>
<text text-anchor="middle" x="244.5" y="-75.9" font-family="Helvetica,sans-Serif" font-size="7.00">_Control/consolewindows.cpp</text>
</a>
</g>
</g>
<!-- Node5&#45;&gt;Node6 -->
<g id="edge6" class="edge"><title>Node5&#45;&gt;Node6</title>
<path fill="none" stroke="midnightblue" d="M309.796,-124.835C294.348,-114.819 275.119,-102.352 261.54,-93.5477"/>
<polygon fill="midnightblue" stroke="midnightblue" points="308.089,-127.899 318.384,-130.403 311.897,-122.026 308.089,-127.899"/>
</g>
<!-- Node7 -->
<g id="node7" class="node"><title>Node7</title>
<g id="a_node7"><a xlink:href="thread__databasemanager_8h.html" target="_top" xlink:title="S:/QT_CREATOR/Locker\l_Control/thread_databasemanager.h">
<polygon fill="none" stroke="black" points="372.5,-69.5 372.5,-93.5 502.5,-93.5 502.5,-69.5 372.5,-69.5"/>
<text text-anchor="start" x="380.5" y="-83.9" font-family="Helvetica,sans-Serif" font-size="7.00">S:/QT_CREATOR/Locker</text>
<text text-anchor="middle" x="437.5" y="-75.9" font-family="Helvetica,sans-Serif" font-size="7.00">_Control/thread_databasemanager.h</text>
</a>
</g>
</g>
<!-- Node5&#45;&gt;Node7 -->
<g id="edge7" class="edge"><title>Node5&#45;&gt;Node7</title>
<path fill="none" stroke="midnightblue" d="M363.344,-125.394C380.818,-115.287 402.896,-102.516 418.401,-93.5477"/>
<polygon fill="midnightblue" stroke="midnightblue" points="361.589,-122.366 354.685,-130.403 365.094,-128.425 361.589,-122.366"/>
</g>
<!-- Node8 -->
<g id="node8" class="node"><title>Node8</title>
<g id="a_node8"><a xlink:href="sqlite__local__databasemanager_8h.html" target="_top" xlink:title="S:/QT_CREATOR/Locker\l_Control/sqlite_local\l_databasemanager.h">
<polygon fill="none" stroke="red" points="288,-0.5 288,-32.5 383,-32.5 383,-0.5 288,-0.5"/>
<text text-anchor="start" x="296" y="-22.9" font-family="Helvetica,sans-Serif" font-size="7.00">S:/QT_CREATOR/Locker</text>
<text text-anchor="start" x="296" y="-14.9" font-family="Helvetica,sans-Serif" font-size="7.00">_Control/sqlite_local</text>
<text text-anchor="middle" x="335.5" y="-6.9" font-family="Helvetica,sans-Serif" font-size="7.00">_databasemanager.h</text>
</a>
</g>
</g>
<!-- Node5&#45;&gt;Node8 -->
<g id="edge12" class="edge"><title>Node5&#45;&gt;Node8</title>
<path fill="none" stroke="midnightblue" d="M330.269,-120.31C328.061,-95.4624 328.26,-54.8819 330.866,-32.8701"/>
<polygon fill="midnightblue" stroke="midnightblue" points="326.822,-120.967 331.453,-130.496 333.775,-120.159 326.822,-120.967"/>
</g>
<!-- Node10 -->
<g id="node10" class="node"><title>Node10</title>
<g id="a_node10"><a xlink:href="main_8cpp.html" target="_top" xlink:title="S:/QT_CREATOR/Locker\l_Control/main.cpp">
<polygon fill="none" stroke="black" points="521,-69.5 521,-93.5 616,-93.5 616,-69.5 521,-69.5"/>
<text text-anchor="start" x="529" y="-83.9" font-family="Helvetica,sans-Serif" font-size="7.00">S:/QT_CREATOR/Locker</text>
<text text-anchor="middle" x="568.5" y="-75.9" font-family="Helvetica,sans-Serif" font-size="7.00">_Control/main.cpp</text>
</a>
</g>
</g>
<!-- Node5&#45;&gt;Node10 -->
<g id="edge13" class="edge"><title>Node5&#45;&gt;Node10</title>
<path fill="none" stroke="midnightblue" d="M388.907,-127.976C430.062,-117.555 486.259,-103.325 524.766,-93.5742"/>
<polygon fill="midnightblue" stroke="midnightblue" points="387.887,-124.624 379.052,-130.472 389.605,-131.41 387.887,-124.624"/>
</g>
<!-- Node7&#45;&gt;Node8 -->
<g id="edge8" class="edge"><title>Node7&#45;&gt;Node8</title>
<path fill="none" stroke="midnightblue" d="M405.191,-64.2452C388.289,-54.4582 368.302,-42.0838 353.976,-32.5257"/>
<polygon fill="midnightblue" stroke="midnightblue" points="403.786,-67.473 414.208,-69.3819 407.251,-61.3907 403.786,-67.473"/>
</g>
<!-- Node9 -->
<g id="node9" class="node"><title>Node9</title>
<g id="a_node9"><a xlink:href="thread__databasemanager_8cpp.html" target="_top" xlink:title="S:/QT_CREATOR/Locker\l_Control/thread_databasemanager.cpp">
<polygon fill="none" stroke="black" points="401,-4.5 401,-28.5 538,-28.5 538,-4.5 401,-4.5"/>
<text text-anchor="start" x="409" y="-18.9" font-family="Helvetica,sans-Serif" font-size="7.00">S:/QT_CREATOR/Locker</text>
<text text-anchor="middle" x="469.5" y="-10.9" font-family="Helvetica,sans-Serif" font-size="7.00">_Control/thread_databasemanager.cpp</text>
</a>
</g>
</g>
<!-- Node7&#45;&gt;Node9 -->
<g id="edge11" class="edge"><title>Node7&#45;&gt;Node9</title>
<path fill="none" stroke="midnightblue" d="M447.754,-60.3117C453.079,-49.8286 459.383,-37.4182 463.829,-28.6656"/>
<polygon fill="midnightblue" stroke="midnightblue" points="444.629,-58.736 443.221,-69.2369 450.87,-61.9061 444.629,-58.736"/>
</g>
<!-- Node8&#45;&gt;Node5 -->
<g id="edge9" class="edge"><title>Node8&#45;&gt;Node5</title>
<path fill="none" stroke="midnightblue" d="M341.085,-43.0841C343.045,-69.9714 342.532,-111.012 339.547,-130.496"/>
<polygon fill="midnightblue" stroke="midnightblue" points="344.546,-42.5026 340.134,-32.8701 337.576,-43.1515 344.546,-42.5026"/>
</g>
<!-- Node8&#45;&gt;Node7 -->
<g id="edge10" class="edge"><title>Node8&#45;&gt;Node7</title>
<path fill="none" stroke="midnightblue" d="M374.94,-37.9286C392.519,-48.3216 411.978,-60.5568 424.58,-69.2369"/>
<polygon fill="midnightblue" stroke="midnightblue" points="376.366,-34.7084 365.965,-32.6903 372.837,-40.754 376.366,-34.7084"/>
</g>
</g>
</svg>
