<?xml version="1.0" encoding="UTF-8" standalone="no"?>
<!DOCTYPE svg PUBLIC "-//W3C//DTD SVG 1.1//EN"
 "http://www.w3.org/Graphics/SVG/1.1/DTD/svg11.dtd">
<!-- Generated by graphviz version 2.38.0 (20140413.2041)
 -->
<!-- Title: S:/QT_CREATOR/Locker_Control/assistance.h Pages: 1 -->
<svg width="268pt" height="139pt"
 viewBox="0.00 0.00 267.50 139.00" xmlns="http://www.w3.org/2000/svg" xmlns:xlink="http://www.w3.org/1999/xlink">
<g id="graph0" class="graph" transform="scale(1 1) rotate(0) translate(4 135)">
<title>S:/QT_CREATOR/Locker_Control/assistance.h</title>
<!-- Node1 -->
<g id="node1" class="node"><title>Node1</title>
<polygon fill="#bfbfbf" stroke="black" points="88.5,-106.5 88.5,-130.5 183.5,-130.5 183.5,-106.5 88.5,-106.5"/>
<text text-anchor="start" x="96.5" y="-120.9" font-family="Helvetica,sans-Serif" font-size="7.00">S:/QT_CREATOR/Locker</text>
<text text-anchor="middle" x="136" y="-112.9" font-family="Helvetica,sans-Serif" font-size="7.00">_Control/assistance.h</text>
</g>
<!-- Node2 -->
<g id="node2" class="node"><title>Node2</title>
<polygon fill="none" stroke="#bfbfbf" points="0,-53.5 0,-69.5 44,-69.5 44,-53.5 0,-53.5"/>
<text text-anchor="middle" x="22" y="-59.9" font-family="Helvetica,sans-Serif" font-size="7.00">QWidget</text>
</g>
<!-- Node1&#45;&gt;Node2 -->
<g id="edge1" class="edge"><title>Node1&#45;&gt;Node2</title>
<path fill="none" stroke="midnightblue" d="M112.93,-106.37C93.4503,-96.9716 65.6572,-83.5627 45.9357,-74.0479"/>
<polygon fill="midnightblue" stroke="midnightblue" points="47.2376,-70.79 36.7101,-69.597 44.1959,-77.0946 47.2376,-70.79"/>
</g>
<!-- Node3 -->
<g id="node3" class="node"><title>Node3</title>
<g id="a_node3"><a xlink:href="showwidgets_8h.html" target="_top" xlink:title="showwidgets.h">
<polygon fill="none" stroke="black" points="62,-53.5 62,-69.5 124,-69.5 124,-53.5 62,-53.5"/>
<text text-anchor="middle" x="93" y="-59.9" font-family="Helvetica,sans-Serif" font-size="7.00">showwidgets.h</text>
</a>
</g>
</g>
<!-- Node1&#45;&gt;Node3 -->
<g id="edge2" class="edge"><title>Node1&#45;&gt;Node3</title>
<path fill="none" stroke="midnightblue" d="M127.298,-106.37C120.893,-98.1774 112.106,-86.9373 105.029,-77.8857"/>
<polygon fill="midnightblue" stroke="midnightblue" points="107.591,-75.4798 98.674,-69.7575 102.076,-79.7913 107.591,-75.4798"/>
</g>
<!-- Node5 -->
<g id="node5" class="node"><title>Node5</title>
<g id="a_node5"><a xlink:href="thread__linphonec_8h.html" target="_top" xlink:title="thread_linphonec.h">
<polygon fill="none" stroke="black" points="142.5,-53.5 142.5,-69.5 217.5,-69.5 217.5,-53.5 142.5,-53.5"/>
<text text-anchor="middle" x="180" y="-59.9" font-family="Helvetica,sans-Serif" font-size="7.00">thread_linphonec.h</text>
</a>
</g>
</g>
<!-- Node1&#45;&gt;Node5 -->
<g id="edge4" class="edge"><title>Node1&#45;&gt;Node5</title>
<path fill="none" stroke="midnightblue" d="M139.355,-106.37C144.695,-97.9214 153.885,-86.2318 162.331,-77.0437"/>
<polygon fill="midnightblue" stroke="midnightblue" points="164.963,-79.3574 169.446,-69.7575 159.955,-74.4668 164.963,-79.3574"/>
</g>
<!-- Node4 -->
<g id="node4" class="node"><title>Node4</title>
<polygon fill="none" stroke="#bfbfbf" points="58.5,-0.5 58.5,-16.5 127.5,-16.5 127.5,-0.5 58.5,-0.5"/>
<text text-anchor="middle" x="93" y="-6.9" font-family="Helvetica,sans-Serif" font-size="7.00">QStackedWidget</text>
</g>
<!-- Node3&#45;&gt;Node4 -->
<g id="edge3" class="edge"><title>Node3&#45;&gt;Node4</title>
<path fill="none" stroke="midnightblue" d="M93,-53.4087C93,-46.5576 93,-35.9106 93,-26.8167"/>
<polygon fill="midnightblue" stroke="midnightblue" points="96.5001,-26.5311 93,-16.5311 89.5001,-26.5311 96.5001,-26.5311"/>
</g>
<!-- Node5&#45;&gt;Node1 -->
<g id="edge7" class="edge"><title>Node5&#45;&gt;Node1</title>
<path fill="none" stroke="midnightblue" d="M178.942,-69.7575C174.91,-77.1335 166.086,-88.8638 157.349,-98.8508"/>
<polygon fill="midnightblue" stroke="midnightblue" points="154.632,-96.6343 150.453,-106.37 159.791,-101.366 154.632,-96.6343"/>
</g>
<!-- Node6 -->
<g id="node6" class="node"><title>Node6</title>
<polygon fill="none" stroke="#bfbfbf" points="151.5,-0.5 151.5,-16.5 194.5,-16.5 194.5,-0.5 151.5,-0.5"/>
<text text-anchor="middle" x="173" y="-6.9" font-family="Helvetica,sans-Serif" font-size="7.00">QThread</text>
</g>
<!-- Node5&#45;&gt;Node6 -->
<g id="edge5" class="edge"><title>Node5&#45;&gt;Node6</title>
<path fill="none" stroke="midnightblue" d="M179.027,-53.4087C178.076,-46.4815 176.592,-35.6735 175.335,-26.5142"/>
<polygon fill="midnightblue" stroke="midnightblue" points="178.792,-25.9623 173.965,-16.5311 171.857,-26.9142 178.792,-25.9623"/>
</g>
<!-- Node7 -->
<g id="node7" class="node"><title>Node7</title>
<polygon fill="none" stroke="#bfbfbf" points="212.5,-0.5 212.5,-16.5 259.5,-16.5 259.5,-0.5 212.5,-0.5"/>
<text text-anchor="middle" x="236" y="-6.9" font-family="Helvetica,sans-Serif" font-size="7.00">QProcess</text>
</g>
<!-- Node5&#45;&gt;Node7 -->
<g id="edge6" class="edge"><title>Node5&#45;&gt;Node7</title>
<path fill="none" stroke="midnightblue" d="M187.787,-53.4087C196.312,-45.6442 210.192,-33.0039 220.875,-23.2747"/>
<polygon fill="midnightblue" stroke="midnightblue" points="223.243,-25.8521 228.28,-16.5311 218.529,-20.6767 223.243,-25.8521"/>
</g>
</g>
</svg>
