<?xml version="1.0" encoding="UTF-8" standalone="no"?>
<!DOCTYPE svg PUBLIC "-//W3C//DTD SVG 1.1//EN"
 "http://www.w3.org/Graphics/SVG/1.1/DTD/svg11.dtd">
<!-- Generated by graphviz version 2.38.0 (20140413.2041)
 -->
<!-- Title: S:/QT_CREATOR/Locker_Control/assistance.cpp Pages: 1 -->
<svg width="268pt" height="192pt"
 viewBox="0.00 0.00 267.50 192.00" xmlns="http://www.w3.org/2000/svg" xmlns:xlink="http://www.w3.org/1999/xlink">
<g id="graph0" class="graph" transform="scale(1 1) rotate(0) translate(4 188)">
<title>S:/QT_CREATOR/Locker_Control/assistance.cpp</title>
<!-- Node1 -->
<g id="node1" class="node"><title>Node1</title>
<polygon fill="#bfbfbf" stroke="black" points="127.5,-159.5 127.5,-183.5 222.5,-183.5 222.5,-159.5 127.5,-159.5"/>
<text text-anchor="start" x="135.5" y="-173.9" font-family="Helvetica,sans-Serif" font-size="7.00">S:/QT_CREATOR/Locker</text>
<text text-anchor="middle" x="175" y="-165.9" font-family="Helvetica,sans-Serif" font-size="7.00">_Control/assistance.cpp</text>
</g>
<!-- Node2 -->
<g id="node2" class="node"><title>Node2</title>
<g id="a_node2"><a xlink:href="assistance_8h.html" target="_top" xlink:title="assistance.h">
<polygon fill="none" stroke="black" points="108,-106.5 108,-122.5 164,-122.5 164,-106.5 108,-106.5"/>
<text text-anchor="middle" x="136" y="-112.9" font-family="Helvetica,sans-Serif" font-size="7.00">assistance.h</text>
</a>
</g>
</g>
<!-- Node1&#45;&gt;Node2 -->
<g id="edge1" class="edge"><title>Node1&#45;&gt;Node2</title>
<path fill="none" stroke="midnightblue" d="M167.108,-159.37C161.359,-151.263 153.494,-140.171 147.111,-131.169"/>
<polygon fill="midnightblue" stroke="midnightblue" points="149.786,-128.89 141.146,-122.757 144.075,-132.939 149.786,-128.89"/>
</g>
<!-- Node9 -->
<g id="node9" class="node"><title>Node9</title>
<polygon fill="none" stroke="#bfbfbf" points="182.5,-106.5 182.5,-122.5 247.5,-122.5 247.5,-106.5 182.5,-106.5"/>
<text text-anchor="middle" x="215" y="-112.9" font-family="Helvetica,sans-Serif" font-size="7.00">ui_assistance.h</text>
</g>
<!-- Node1&#45;&gt;Node9 -->
<g id="edge9" class="edge"><title>Node1&#45;&gt;Node9</title>
<path fill="none" stroke="midnightblue" d="M183.095,-159.37C189.053,-151.177 197.227,-139.937 203.81,-130.886"/>
<polygon fill="midnightblue" stroke="midnightblue" points="206.671,-132.903 209.722,-122.757 201.009,-128.786 206.671,-132.903"/>
</g>
<!-- Node3 -->
<g id="node3" class="node"><title>Node3</title>
<polygon fill="none" stroke="#bfbfbf" points="0,-53.5 0,-69.5 44,-69.5 44,-53.5 0,-53.5"/>
<text text-anchor="middle" x="22" y="-59.9" font-family="Helvetica,sans-Serif" font-size="7.00">QWidget</text>
</g>
<!-- Node2&#45;&gt;Node3 -->
<g id="edge2" class="edge"><title>Node2&#45;&gt;Node3</title>
<path fill="none" stroke="midnightblue" d="M120.149,-106.409C101.176,-97.921 69.1805,-83.607 46.8973,-73.6383"/>
<polygon fill="midnightblue" stroke="midnightblue" points="48.2741,-70.42 37.7166,-69.5311 45.4155,-76.8097 48.2741,-70.42"/>
</g>
<!-- Node4 -->
<g id="node4" class="node"><title>Node4</title>
<g id="a_node4"><a xlink:href="showwidgets_8h.html" target="_top" xlink:title="showwidgets.h">
<polygon fill="none" stroke="black" points="62,-53.5 62,-69.5 124,-69.5 124,-53.5 62,-53.5"/>
<text text-anchor="middle" x="93" y="-59.9" font-family="Helvetica,sans-Serif" font-size="7.00">showwidgets.h</text>
</a>
</g>
</g>
<!-- Node2&#45;&gt;Node4 -->
<g id="edge3" class="edge"><title>Node2&#45;&gt;Node4</title>
<path fill="none" stroke="midnightblue" d="M130.021,-106.409C123.731,-98.9487 113.647,-86.9878 105.59,-77.4323"/>
<polygon fill="midnightblue" stroke="midnightblue" points="108.05,-74.9202 98.9282,-69.5311 102.698,-79.4325 108.05,-74.9202"/>
</g>
<!-- Node6 -->
<g id="node6" class="node"><title>Node6</title>
<g id="a_node6"><a xlink:href="thread__linphonec_8h.html" target="_top" xlink:title="thread_linphonec.h">
<polygon fill="none" stroke="black" points="142.5,-53.5 142.5,-69.5 217.5,-69.5 217.5,-53.5 142.5,-53.5"/>
<text text-anchor="middle" x="180" y="-59.9" font-family="Helvetica,sans-Serif" font-size="7.00">thread_linphonec.h</text>
</a>
</g>
</g>
<!-- Node2&#45;&gt;Node6 -->
<g id="edge5" class="edge"><title>Node2&#45;&gt;Node6</title>
<path fill="none" stroke="midnightblue" d="M137.273,-106.409C141.898,-98.7203 152.235,-86.2513 161.762,-76.5617"/>
<polygon fill="midnightblue" stroke="midnightblue" points="164.303,-78.9751 169.105,-69.5311 159.461,-73.9191 164.303,-78.9751"/>
</g>
<!-- Node5 -->
<g id="node5" class="node"><title>Node5</title>
<polygon fill="none" stroke="#bfbfbf" points="58.5,-0.5 58.5,-16.5 127.5,-16.5 127.5,-0.5 58.5,-0.5"/>
<text text-anchor="middle" x="93" y="-6.9" font-family="Helvetica,sans-Serif" font-size="7.00">QStackedWidget</text>
</g>
<!-- Node4&#45;&gt;Node5 -->
<g id="edge4" class="edge"><title>Node4&#45;&gt;Node5</title>
<path fill="none" stroke="midnightblue" d="M93,-53.4087C93,-46.5576 93,-35.9106 93,-26.8167"/>
<polygon fill="midnightblue" stroke="midnightblue" points="96.5001,-26.5311 93,-16.5311 89.5001,-26.5311 96.5001,-26.5311"/>
</g>
<!-- Node6&#45;&gt;Node2 -->
<g id="edge8" class="edge"><title>Node6&#45;&gt;Node2</title>
<path fill="none" stroke="midnightblue" d="M178.763,-69.5311C174.168,-77.1944 163.844,-89.6581 154.312,-99.3622"/>
<polygon fill="midnightblue" stroke="midnightblue" points="151.759,-96.9615 146.963,-106.409 156.604,-102.014 151.759,-96.9615"/>
</g>
<!-- Node7 -->
<g id="node7" class="node"><title>Node7</title>
<polygon fill="none" stroke="#bfbfbf" points="151.5,-0.5 151.5,-16.5 194.5,-16.5 194.5,-0.5 151.5,-0.5"/>
<text text-anchor="middle" x="173" y="-6.9" font-family="Helvetica,sans-Serif" font-size="7.00">QThread</text>
</g>
<!-- Node6&#45;&gt;Node7 -->
<g id="edge6" class="edge"><title>Node6&#45;&gt;Node7</title>
<path fill="none" stroke="midnightblue" d="M179.027,-53.4087C178.076,-46.4815 176.592,-35.6735 175.335,-26.5142"/>
<polygon fill="midnightblue" stroke="midnightblue" points="178.792,-25.9623 173.965,-16.5311 171.857,-26.9142 178.792,-25.9623"/>
</g>
<!-- Node8 -->
<g id="node8" class="node"><title>Node8</title>
<polygon fill="none" stroke="#bfbfbf" points="212.5,-0.5 212.5,-16.5 259.5,-16.5 259.5,-0.5 212.5,-0.5"/>
<text text-anchor="middle" x="236" y="-6.9" font-family="Helvetica,sans-Serif" font-size="7.00">QProcess</text>
</g>
<!-- Node6&#45;&gt;Node8 -->
<g id="edge7" class="edge"><title>Node6&#45;&gt;Node8</title>
<path fill="none" stroke="midnightblue" d="M187.787,-53.4087C196.312,-45.6442 210.192,-33.0039 220.875,-23.2747"/>
<polygon fill="midnightblue" stroke="midnightblue" points="223.243,-25.8521 228.28,-16.5311 218.529,-20.6767 223.243,-25.8521"/>
</g>
</g>
</svg>
