<?xml version="1.0" encoding="UTF-8" standalone="no"?>
<!DOCTYPE svg PUBLIC "-//W3C//DTD SVG 1.1//EN"
 "http://www.w3.org/Graphics/SVG/1.1/DTD/svg11.dtd">
<!-- Generated by graphviz version 2.38.0 (20140413.2041)
 -->
<!-- Title: S:/QT_CREATOR/Locker_Control/assistance.cpp Pages: 1 -->
<svg width="148pt" height="139pt"
 viewBox="0.00 0.00 147.50 139.00" xmlns="http://www.w3.org/2000/svg" xmlns:xlink="http://www.w3.org/1999/xlink">
<g id="graph0" class="graph" transform="scale(1 1) rotate(0) translate(4 135)">
<title>S:/QT_CREATOR/Locker_Control/assistance.cpp</title>
<!-- Node1 -->
<g id="node1" class="node"><title>Node1</title>
<polygon fill="#bfbfbf" stroke="black" points="19.5,-106.5 19.5,-130.5 114.5,-130.5 114.5,-106.5 19.5,-106.5"/>
<text text-anchor="start" x="27.5" y="-120.9" font-family="Helvetica,sans-Serif" font-size="7.00">S:/QT_CREATOR/Locker</text>
<text text-anchor="middle" x="67" y="-112.9" font-family="Helvetica,sans-Serif" font-size="7.00">_Control/assistance.cpp</text>
</g>
<!-- Node2 -->
<g id="node2" class="node"><title>Node2</title>
<g id="a_node2"><a xlink:href="assistance_8h.html" target="_top" xlink:title="assistance.h">
<polygon fill="none" stroke="black" points="0,-53.5 0,-69.5 56,-69.5 56,-53.5 0,-53.5"/>
<text text-anchor="middle" x="28" y="-59.9" font-family="Helvetica,sans-Serif" font-size="7.00">assistance.h</text>
</a>
</g>
</g>
<!-- Node1&#45;&gt;Node2 -->
<g id="edge1" class="edge"><title>Node1&#45;&gt;Node2</title>
<path fill="none" stroke="midnightblue" d="M59.1078,-106.37C53.359,-98.2627 45.4941,-87.1712 39.1109,-78.1693"/>
<polygon fill="midnightblue" stroke="midnightblue" points="41.7856,-75.8903 33.1462,-69.7575 36.0755,-79.9393 41.7856,-75.8903"/>
</g>
<!-- Node4 -->
<g id="node4" class="node"><title>Node4</title>
<polygon fill="none" stroke="#bfbfbf" points="74.5,-53.5 74.5,-69.5 139.5,-69.5 139.5,-53.5 74.5,-53.5"/>
<text text-anchor="middle" x="107" y="-59.9" font-family="Helvetica,sans-Serif" font-size="7.00">ui_assistance.h</text>
</g>
<!-- Node1&#45;&gt;Node4 -->
<g id="edge3" class="edge"><title>Node1&#45;&gt;Node4</title>
<path fill="none" stroke="midnightblue" d="M75.0946,-106.37C81.0528,-98.1774 89.2274,-86.9373 95.8104,-77.8857"/>
<polygon fill="midnightblue" stroke="midnightblue" points="98.6707,-79.9035 101.722,-69.7575 93.0095,-75.7862 98.6707,-79.9035"/>
</g>
<!-- Node3 -->
<g id="node3" class="node"><title>Node3</title>
<polygon fill="none" stroke="#bfbfbf" points="6,-0.5 6,-16.5 50,-16.5 50,-0.5 6,-0.5"/>
<text text-anchor="middle" x="28" y="-6.9" font-family="Helvetica,sans-Serif" font-size="7.00">QWidget</text>
</g>
<!-- Node2&#45;&gt;Node3 -->
<g id="edge2" class="edge"><title>Node2&#45;&gt;Node3</title>
<path fill="none" stroke="midnightblue" d="M28,-53.4087C28,-46.5576 28,-35.9106 28,-26.8167"/>
<polygon fill="midnightblue" stroke="midnightblue" points="31.5001,-26.5311 28,-16.5311 24.5001,-26.5311 31.5001,-26.5311"/>
</g>
</g>
</svg>
