<?xml version="1.0" encoding="UTF-8" standalone="no"?>
<!DOCTYPE svg PUBLIC "-//W3C//DTD SVG 1.1//EN"
 "http://www.w3.org/Graphics/SVG/1.1/DTD/svg11.dtd">
<!-- Generated by graphviz version 2.38.0 (20140413.2041)
 -->
<!-- Title: S:/QT_CREATOR/Locker_Control/boxchoice.h Pages: 1 -->
<svg width="443pt" height="338pt"
 viewBox="0.00 0.00 442.56 338.00" xmlns="http://www.w3.org/2000/svg" xmlns:xlink="http://www.w3.org/1999/xlink">
<g id="graph0" class="graph" transform="scale(1 1) rotate(0) translate(4 334)">
<title>S:/QT_CREATOR/Locker_Control/boxchoice.h</title>
<!-- Node1 -->
<g id="node1" class="node"><title>Node1</title>
<polygon fill="#bfbfbf" stroke="black" points="204,-305.5 204,-329.5 299,-329.5 299,-305.5 204,-305.5"/>
<text text-anchor="start" x="212" y="-319.9" font-family="Helvetica,sans-Serif" font-size="7.00">S:/QT_CREATOR/Locker</text>
<text text-anchor="middle" x="251.5" y="-311.9" font-family="Helvetica,sans-Serif" font-size="7.00">_Control/boxchoice.h</text>
</g>
<!-- Node2 -->
<g id="node2" class="node"><title>Node2</title>
<g id="a_node2"><a xlink:href="boxchoice_8cpp.html" target="_top" target="_top" xlink:title="S:/QT_CREATOR/Locker\l_Control/boxchoice.cpp">
<polygon fill="none" stroke="black" points="90,-244.5 90,-268.5 185,-268.5 185,-244.5 90,-244.5"/>
<text text-anchor="start" x="98" y="-258.9" font-family="Helvetica,sans-Serif" font-size="7.00">S:/QT_CREATOR/Locker</text>
<text text-anchor="middle" x="137.5" y="-250.9" font-family="Helvetica,sans-Serif" font-size="7.00">_Control/boxchoice.cpp</text>
</a>
</g>
</g>
<!-- Node1&#45;&gt;Node2 -->
<g id="edge1" class="edge"><title>Node1&#45;&gt;Node2</title>
<path fill="none" stroke="midnightblue" d="M220.916,-300.672C201.304,-290.521 176.334,-277.598 158.846,-268.548"/>
<polygon fill="midnightblue" stroke="midnightblue" points="219.568,-303.915 230.057,-305.403 222.785,-297.698 219.568,-303.915"/>
</g>
<!-- Node3 -->
<g id="node3" class="node"><title>Node3</title>
<g id="a_node3"><a xlink:href="scanpackage_8h.html" target="_top" target="_top" xlink:title="S:/QT_CREATOR/Locker\l_Control/scanpackage.h">
<polygon fill="none" stroke="black" points="242,-244.5 242,-268.5 337,-268.5 337,-244.5 242,-244.5"/>
<text text-anchor="start" x="250" y="-258.9" font-family="Helvetica,sans-Serif" font-size="7.00">S:/QT_CREATOR/Locker</text>
<text text-anchor="middle" x="289.5" y="-250.9" font-family="Helvetica,sans-Serif" font-size="7.00">_Control/scanpackage.h</text>
</a>
</g>
</g>
<!-- Node1&#45;&gt;Node3 -->
<g id="edge2" class="edge"><title>Node1&#45;&gt;Node3</title>
<path fill="none" stroke="midnightblue" d="M264.08,-296.968C270.165,-287.521 277.244,-276.529 282.385,-268.548"/>
<polygon fill="midnightblue" stroke="midnightblue" points="261.12,-295.1 258.648,-305.403 267.005,-298.891 261.12,-295.1"/>
</g>
<!-- Node4 -->
<g id="node4" class="node"><title>Node4</title>
<g id="a_node4"><a xlink:href="stowpackages_8h.html" target="_top" target="_top" xlink:title="S:/QT_CREATOR/Locker\l_Control/stowpackages.h">
<polygon fill="none" stroke="black" points="162,-183.5 162,-207.5 257,-207.5 257,-183.5 162,-183.5"/>
<text text-anchor="start" x="170" y="-197.9" font-family="Helvetica,sans-Serif" font-size="7.00">S:/QT_CREATOR/Locker</text>
<text text-anchor="middle" x="209.5" y="-189.9" font-family="Helvetica,sans-Serif" font-size="7.00">_Control/stowpackages.h</text>
</a>
</g>
</g>
<!-- Node1&#45;&gt;Node4 -->
<g id="edge12" class="edge"><title>Node1&#45;&gt;Node4</title>
<path fill="none" stroke="midnightblue" d="M242.905,-295.967C239.523,-287.648 235.693,-277.917 232.5,-269 224.843,-247.617 217.093,-222.24 212.831,-207.888"/>
<polygon fill="midnightblue" stroke="midnightblue" points="239.69,-297.351 246.735,-305.264 246.162,-294.685 239.69,-297.351"/>
</g>
<!-- Node6 -->
<g id="node6" class="node"><title>Node6</title>
<g id="a_node6"><a xlink:href="consolewindows_8h.html" target="_top" target="_top" xlink:title="S:/QT_CREATOR/Locker\l_Control/consolewindows.h">
<polygon fill="none" stroke="red" points="159,-61.5 159,-85.5 260,-85.5 260,-61.5 159,-61.5"/>
<text text-anchor="start" x="167" y="-75.9" font-family="Helvetica,sans-Serif" font-size="7.00">S:/QT_CREATOR/Locker</text>
<text text-anchor="middle" x="209.5" y="-67.9" font-family="Helvetica,sans-Serif" font-size="7.00">_Control/consolewindows.h</text>
</a>
</g>
</g>
<!-- Node1&#45;&gt;Node6 -->
<g id="edge13" class="edge"><title>Node1&#45;&gt;Node6</title>
<path fill="none" stroke="midnightblue" d="M302.104,-302.408C365.537,-282.006 461.922,-240.314 426.5,-183 390.405,-124.598 312.301,-96.5799 260.317,-83.9309"/>
<polygon fill="midnightblue" stroke="midnightblue" points="300.729,-299.171 292.232,-305.499 302.821,-305.851 300.729,-299.171"/>
</g>
<!-- Node3&#45;&gt;Node4 -->
<g id="edge3" class="edge"><title>Node3&#45;&gt;Node4</title>
<path fill="none" stroke="midnightblue" d="M266.138,-238.271C252.693,-228.354 236.194,-216.187 224.48,-207.548"/>
<polygon fill="midnightblue" stroke="midnightblue" points="264.327,-241.284 274.453,-244.403 268.482,-235.65 264.327,-241.284"/>
</g>
<!-- Node3&#45;&gt;Node6 -->
<g id="edge10" class="edge"><title>Node3&#45;&gt;Node6</title>
<path fill="none" stroke="midnightblue" d="M290.948,-234.056C291.832,-206.293 289.939,-157.292 269.5,-122 260.378,-106.249 243.836,-93.753 230.428,-85.5389"/>
<polygon fill="midnightblue" stroke="midnightblue" points="287.444,-234.076 290.466,-244.231 294.436,-234.408 287.444,-234.076"/>
</g>
<!-- Node10 -->
<g id="node10" class="node"><title>Node10</title>
<g id="a_node10"><a xlink:href="scanpackage_8cpp.html" target="_top" target="_top" xlink:title="S:/QT_CREATOR/Locker\l_Control/scanpackage.cpp">
<polygon fill="none" stroke="black" points="317.5,-183.5 317.5,-207.5 417.5,-207.5 417.5,-183.5 317.5,-183.5"/>
<text text-anchor="start" x="325.5" y="-197.9" font-family="Helvetica,sans-Serif" font-size="7.00">S:/QT_CREATOR/Locker</text>
<text text-anchor="middle" x="367.5" y="-189.9" font-family="Helvetica,sans-Serif" font-size="7.00">_Control/scanpackage.cpp</text>
</a>
</g>
</g>
<!-- Node3&#45;&gt;Node10 -->
<g id="edge11" class="edge"><title>Node3&#45;&gt;Node10</title>
<path fill="none" stroke="midnightblue" d="M312.278,-238.271C325.387,-228.354 341.473,-216.187 352.895,-207.548"/>
<polygon fill="midnightblue" stroke="midnightblue" points="310.035,-235.578 304.171,-244.403 314.258,-241.161 310.035,-235.578"/>
</g>
<!-- Node5 -->
<g id="node5" class="node"><title>Node5</title>
<g id="a_node5"><a xlink:href="deliveryconfirm_8h.html" target="_top" target="_top" xlink:title="S:/QT_CREATOR/Locker\l_Control/deliveryconfirm.h">
<polygon fill="none" stroke="red" points="0,-122.5 0,-146.5 101,-146.5 101,-122.5 0,-122.5"/>
<text text-anchor="start" x="8" y="-136.9" font-family="Helvetica,sans-Serif" font-size="7.00">S:/QT_CREATOR/Locker</text>
<text text-anchor="middle" x="50.5" y="-128.9" font-family="Helvetica,sans-Serif" font-size="7.00">_Control/deliveryconfirm.h</text>
</a>
</g>
</g>
<!-- Node4&#45;&gt;Node5 -->
<g id="edge4" class="edge"><title>Node4&#45;&gt;Node5</title>
<path fill="none" stroke="midnightblue" d="M170.162,-179.903C142.356,-169.585 105.661,-155.969 80.2726,-146.548"/>
<polygon fill="midnightblue" stroke="midnightblue" points="169,-183.205 179.593,-183.403 171.436,-176.642 169,-183.205"/>
</g>
<!-- Node4&#45;&gt;Node6 -->
<g id="edge8" class="edge"><title>Node4&#45;&gt;Node6</title>
<path fill="none" stroke="midnightblue" d="M177.9,-178.024C166.45,-170.276 154.793,-159.877 148.5,-147 143.621,-137.017 143.621,-131.983 148.5,-122 156.398,-105.841 172.741,-93.5838 186.524,-85.5714"/>
<polygon fill="midnightblue" stroke="midnightblue" points="176.192,-181.083 186.524,-183.429 179.909,-175.152 176.192,-181.083"/>
</g>
<!-- Node9 -->
<g id="node9" class="node"><title>Node9</title>
<g id="a_node9"><a xlink:href="stowpackages_8cpp.html" target="_top" target="_top" xlink:title="S:/QT_CREATOR/Locker\l_Control/stowpackages.cpp">
<polygon fill="none" stroke="black" points="158,-122.5 158,-146.5 261,-146.5 261,-122.5 158,-122.5"/>
<text text-anchor="start" x="166" y="-136.9" font-family="Helvetica,sans-Serif" font-size="7.00">S:/QT_CREATOR/Locker</text>
<text text-anchor="middle" x="209.5" y="-128.9" font-family="Helvetica,sans-Serif" font-size="7.00">_Control/stowpackages.cpp</text>
</a>
</g>
</g>
<!-- Node4&#45;&gt;Node9 -->
<g id="edge9" class="edge"><title>Node4&#45;&gt;Node9</title>
<path fill="none" stroke="midnightblue" d="M209.5,-173.198C209.5,-164.173 209.5,-154.035 209.5,-146.548"/>
<polygon fill="midnightblue" stroke="midnightblue" points="206,-173.403 209.5,-183.403 213,-173.403 206,-173.403"/>
</g>
<!-- Node5&#45;&gt;Node6 -->
<g id="edge5" class="edge"><title>Node5&#45;&gt;Node6</title>
<path fill="none" stroke="midnightblue" d="M89.838,-118.903C117.644,-108.585 154.339,-94.9687 179.727,-85.5477"/>
<polygon fill="midnightblue" stroke="midnightblue" points="88.5644,-115.642 80.4067,-122.403 90.9997,-122.205 88.5644,-115.642"/>
</g>
<!-- Node7 -->
<g id="node7" class="node"><title>Node7</title>
<g id="a_node7"><a xlink:href="consolewindows_8cpp.html" target="_top" target="_top" xlink:title="S:/QT_CREATOR/Locker\l_Control/consolewindows.cpp">
<polygon fill="none" stroke="black" points="87.5,-0.5 87.5,-24.5 195.5,-24.5 195.5,-0.5 87.5,-0.5"/>
<text text-anchor="start" x="95.5" y="-14.9" font-family="Helvetica,sans-Serif" font-size="7.00">S:/QT_CREATOR/Locker</text>
<text text-anchor="middle" x="141.5" y="-6.9" font-family="Helvetica,sans-Serif" font-size="7.00">_Control/consolewindows.cpp</text>
</a>
</g>
</g>
<!-- Node6&#45;&gt;Node7 -->
<g id="edge6" class="edge"><title>Node6&#45;&gt;Node7</title>
<path fill="none" stroke="midnightblue" d="M188.987,-54.7018C177.681,-44.8923 164,-33.0225 154.233,-24.5477"/>
<polygon fill="midnightblue" stroke="midnightblue" points="186.863,-57.4926 196.71,-61.4026 191.45,-52.2053 186.863,-57.4926"/>
</g>
<!-- Node8 -->
<g id="node8" class="node"><title>Node8</title>
<g id="a_node8"><a xlink:href="thread__databasemanager_8h.html" target="_top" target="_top" xlink:title="S:/QT_CREATOR/Locker\l_Control/thread_databasemanager.h">
<polygon fill="none" stroke="red" points="213.5,-0.5 213.5,-24.5 343.5,-24.5 343.5,-0.5 213.5,-0.5"/>
<text text-anchor="start" x="221.5" y="-14.9" font-family="Helvetica,sans-Serif" font-size="7.00">S:/QT_CREATOR/Locker</text>
<text text-anchor="middle" x="278.5" y="-6.9" font-family="Helvetica,sans-Serif" font-size="7.00">_Control/thread_databasemanager.h</text>
</a>
</g>
</g>
<!-- Node6&#45;&gt;Node8 -->
<g id="edge7" class="edge"><title>Node6&#45;&gt;Node8</title>
<path fill="none" stroke="midnightblue" d="M230.315,-54.7018C241.787,-44.8923 255.669,-33.0225 265.58,-24.5477"/>
<polygon fill="midnightblue" stroke="midnightblue" points="227.804,-52.2436 222.478,-61.4026 232.353,-57.5638 227.804,-52.2436"/>
</g>
</g>
</svg>
