<?xml version="1.0" encoding="UTF-8" standalone="no"?>
<!DOCTYPE svg PUBLIC "-//W3C//DTD SVG 1.1//EN"
 "http://www.w3.org/Graphics/SVG/1.1/DTD/svg11.dtd">
<!-- Generated by graphviz version 2.38.0 (20140413.2041)
 -->
<!-- Title: S:/QT_CREATOR/Locker_Control/boxchoice.h Pages: 1 -->
<svg width="459pt" height="192pt"
 viewBox="0.00 0.00 459.11 192.00" xmlns="http://www.w3.org/2000/svg" xmlns:xlink="http://www.w3.org/1999/xlink">
<g id="graph0" class="graph" transform="scale(1 1) rotate(0) translate(4 188)">
<title>S:/QT_CREATOR/Locker_Control/boxchoice.h</title>
<!-- Node1 -->
<g id="node1" class="node"><title>Node1</title>
<polygon fill="#bfbfbf" stroke="black" points="182.112,-159.5 182.112,-183.5 277.112,-183.5 277.112,-159.5 182.112,-159.5"/>
<text text-anchor="start" x="190.112" y="-173.9" font-family="Helvetica,sans-Serif" font-size="7.00">S:/QT_CREATOR/Locker</text>
<text text-anchor="middle" x="229.612" y="-165.9" font-family="Helvetica,sans-Serif" font-size="7.00">_Control/boxchoice.h</text>
</g>
<!-- Node2 -->
<g id="node2" class="node"><title>Node2</title>
<polygon fill="none" stroke="#bfbfbf" points="298.612,-53.5 298.612,-69.5 342.612,-69.5 342.612,-53.5 298.612,-53.5"/>
<text text-anchor="middle" x="320.612" y="-59.9" font-family="Helvetica,sans-Serif" font-size="7.00">QWidget</text>
</g>
<!-- Node1&#45;&gt;Node2 -->
<g id="edge1" class="edge"><title>Node1&#45;&gt;Node2</title>
<path fill="none" stroke="midnightblue" d="M246.955,-159.385C259.638,-150.627 276.646,-137.506 288.612,-123 299.599,-109.681 308.423,-91.9889 314,-79.1802"/>
<polygon fill="midnightblue" stroke="midnightblue" points="317.304,-80.3507 317.897,-69.7725 310.836,-77.6718 317.304,-80.3507"/>
</g>
<!-- Node3 -->
<g id="node3" class="node"><title>Node3</title>
<polygon fill="none" stroke="#bfbfbf" points="16.1117,-106.5 16.1117,-122.5 85.1117,-122.5 85.1117,-106.5 16.1117,-106.5"/>
<text text-anchor="middle" x="50.6117" y="-112.9" font-family="Helvetica,sans-Serif" font-size="7.00">QGraphicsScene</text>
</g>
<!-- Node1&#45;&gt;Node3 -->
<g id="edge2" class="edge"><title>Node1&#45;&gt;Node3</title>
<path fill="none" stroke="midnightblue" d="M193.388,-159.37C161.173,-149.471 114.478,-135.124 83.3617,-125.563"/>
<polygon fill="midnightblue" stroke="midnightblue" points="84.0367,-122.109 73.4497,-122.517 81.9807,-128.8 84.0367,-122.109"/>
</g>
<!-- Node4 -->
<g id="node4" class="node"><title>Node4</title>
<polygon fill="none" stroke="#bfbfbf" points="155.112,-0.5 155.112,-16.5 188.112,-16.5 188.112,-0.5 155.112,-0.5"/>
<text text-anchor="middle" x="171.612" y="-6.9" font-family="Helvetica,sans-Serif" font-size="7.00">QList</text>
</g>
<!-- Node1&#45;&gt;Node4 -->
<g id="edge3" class="edge"><title>Node1&#45;&gt;Node4</title>
<path fill="none" stroke="midnightblue" d="M225.625,-159.434C215.646,-131.732 189.539,-59.2648 177.657,-26.2822"/>
<polygon fill="midnightblue" stroke="midnightblue" points="180.899,-24.9541 174.217,-16.7323 174.314,-27.3267 180.899,-24.9541"/>
</g>
<!-- Node5 -->
<g id="node5" class="node"><title>Node5</title>
<g id="a_node5"><a xlink:href="showwidgets_8h.html" target="_top" xlink:title="showwidgets.h">
<polygon fill="none" stroke="black" points="385.612,-53.5 385.612,-69.5 447.612,-69.5 447.612,-53.5 385.612,-53.5"/>
<text text-anchor="middle" x="416.612" y="-59.9" font-family="Helvetica,sans-Serif" font-size="7.00">showwidgets.h</text>
</a>
</g>
</g>
<!-- Node1&#45;&gt;Node5 -->
<g id="edge4" class="edge"><title>Node1&#45;&gt;Node5</title>
<path fill="none" stroke="midnightblue" d="M277.112,-164.222C324.744,-156.89 393.423,-143.14 410.612,-123 420.575,-111.326 421.156,-93.3952 419.798,-80.0815"/>
<polygon fill="midnightblue" stroke="midnightblue" points="423.21,-79.2281 418.293,-69.8434 416.285,-80.2462 423.21,-79.2281"/>
</g>
<!-- Node7 -->
<g id="node7" class="node"><title>Node7</title>
<g id="a_node7"><a xlink:href="drawbox_8h.html" target="_top" xlink:title="drawbox.h">
<polygon fill="none" stroke="red" points="231.612,-106.5 231.612,-122.5 279.612,-122.5 279.612,-106.5 231.612,-106.5"/>
<text text-anchor="middle" x="255.612" y="-112.9" font-family="Helvetica,sans-Serif" font-size="7.00">drawbox.h</text>
</a>
</g>
</g>
<!-- Node1&#45;&gt;Node7 -->
<g id="edge6" class="edge"><title>Node1&#45;&gt;Node7</title>
<path fill="none" stroke="midnightblue" d="M234.873,-159.37C238.585,-151.519 243.619,-140.869 247.798,-132.028"/>
<polygon fill="midnightblue" stroke="midnightblue" points="251.071,-133.294 252.181,-122.757 244.743,-130.302 251.071,-133.294"/>
</g>
<!-- Node8 -->
<g id="node8" class="node"><title>Node8</title>
<g id="a_node8"><a xlink:href="_data_structures_8h.html" target="_top" xlink:title="Definnitions des formats de communications des données entre les classes de l&#39;application LC...">
<polygon fill="none" stroke="red" points="104.612,-53.5 104.612,-69.5 174.612,-69.5 174.612,-53.5 104.612,-53.5"/>
<text text-anchor="middle" x="139.612" y="-59.9" font-family="Helvetica,sans-Serif" font-size="7.00">DataStructures.h</text>
</a>
</g>
</g>
<!-- Node1&#45;&gt;Node8 -->
<g id="edge7" class="edge"><title>Node1&#45;&gt;Node8</title>
<path fill="none" stroke="midnightblue" d="M182.045,-167.219C123.239,-162.057 28.2473,-149.729 6.61167,-123 -20.2827,-89.7737 45.8589,-74.0755 94.2067,-67.2265"/>
<polygon fill="midnightblue" stroke="midnightblue" points="94.7621,-70.6835 104.214,-65.8961 93.8396,-63.7445 94.7621,-70.6835"/>
</g>
<!-- Node9 -->
<g id="node9" class="node"><title>Node9</title>
<g id="a_node9"><a xlink:href="menudelivery_8h.html" target="_top" xlink:title="menudelivery.h">
<polygon fill="none" stroke="black" points="336.112,-106.5 336.112,-122.5 401.112,-122.5 401.112,-106.5 336.112,-106.5"/>
<text text-anchor="middle" x="368.612" y="-112.9" font-family="Helvetica,sans-Serif" font-size="7.00">menudelivery.h</text>
</a>
</g>
</g>
<!-- Node1&#45;&gt;Node9 -->
<g id="edge9" class="edge"><title>Node1&#45;&gt;Node9</title>
<path fill="none" stroke="midnightblue" d="M257.74,-159.37C282.035,-149.757 316.933,-135.948 341.058,-126.402"/>
<polygon fill="midnightblue" stroke="midnightblue" points="342.665,-129.531 350.676,-122.597 340.089,-123.022 342.665,-129.531"/>
</g>
<!-- Node10 -->
<g id="node10" class="node"><title>Node10</title>
<g id="a_node10"><a xlink:href="csqlite__local__db_8h.html" target="_top" xlink:title="csqlite_local_db.h">
<polygon fill="none" stroke="red" points="103.612,-106.5 103.612,-122.5 175.612,-122.5 175.612,-106.5 103.612,-106.5"/>
<text text-anchor="middle" x="139.612" y="-112.9" font-family="Helvetica,sans-Serif" font-size="7.00">csqlite_local_db.h</text>
</a>
</g>
</g>
<!-- Node1&#45;&gt;Node10 -->
<g id="edge12" class="edge"><title>Node1&#45;&gt;Node10</title>
<path fill="none" stroke="midnightblue" d="M211.399,-159.37C196.511,-150.272 175.474,-137.416 160.02,-127.972"/>
<polygon fill="midnightblue" stroke="midnightblue" points="161.583,-124.825 151.225,-122.597 157.933,-130.798 161.583,-124.825"/>
</g>
<!-- Node6 -->
<g id="node6" class="node"><title>Node6</title>
<polygon fill="none" stroke="#bfbfbf" points="382.112,-0.5 382.112,-16.5 451.112,-16.5 451.112,-0.5 382.112,-0.5"/>
<text text-anchor="middle" x="416.612" y="-6.9" font-family="Helvetica,sans-Serif" font-size="7.00">QStackedWidget</text>
</g>
<!-- Node5&#45;&gt;Node6 -->
<g id="edge5" class="edge"><title>Node5&#45;&gt;Node6</title>
<path fill="none" stroke="midnightblue" d="M416.612,-53.4087C416.612,-46.5576 416.612,-35.9106 416.612,-26.8167"/>
<polygon fill="midnightblue" stroke="midnightblue" points="420.112,-26.5311 416.612,-16.5311 413.112,-26.5311 420.112,-26.5311"/>
</g>
<!-- Node8&#45;&gt;Node4 -->
<g id="edge8" class="edge"><title>Node8&#45;&gt;Node4</title>
<path fill="none" stroke="midnightblue" d="M144.061,-53.4087C148.646,-46.1009 155.942,-34.4741 161.873,-25.0202"/>
<polygon fill="midnightblue" stroke="midnightblue" points="164.85,-26.862 167.2,-16.5311 158.92,-23.1415 164.85,-26.862"/>
</g>
<!-- Node9&#45;&gt;Node2 -->
<g id="edge10" class="edge"><title>Node9&#45;&gt;Node2</title>
<path fill="none" stroke="midnightblue" d="M361.937,-106.409C354.773,-98.7964 343.198,-86.4977 334.118,-76.8503"/>
<polygon fill="midnightblue" stroke="midnightblue" points="336.632,-74.4143 327.229,-69.5311 331.534,-79.2119 336.632,-74.4143"/>
</g>
<!-- Node9&#45;&gt;Node5 -->
<g id="edge11" class="edge"><title>Node9&#45;&gt;Node5</title>
<path fill="none" stroke="midnightblue" d="M375.286,-106.409C382.45,-98.7964 394.026,-86.4977 403.106,-76.8503"/>
<polygon fill="midnightblue" stroke="midnightblue" points="405.689,-79.2119 409.994,-69.5311 400.592,-74.4143 405.689,-79.2119"/>
</g>
<!-- Node10&#45;&gt;Node8 -->
<g id="edge13" class="edge"><title>Node10&#45;&gt;Node8</title>
<path fill="none" stroke="midnightblue" d="M139.612,-106.409C139.612,-99.5576 139.612,-88.9106 139.612,-79.8167"/>
<polygon fill="midnightblue" stroke="midnightblue" points="143.112,-79.5311 139.612,-69.5311 136.112,-79.5311 143.112,-79.5311"/>
</g>
</g>
</svg>
