<?xml version="1.0" encoding="UTF-8" standalone="no"?>
<!DOCTYPE svg PUBLIC "-//W3C//DTD SVG 1.1//EN"
 "http://www.w3.org/Graphics/SVG/1.1/DTD/svg11.dtd">
<!-- Generated by graphviz version 2.38.0 (20140413.2041)
 -->
<!-- Title: S:/QT_CREATOR/Locker_Control/boxchoice.cpp Pages: 1 -->
<svg width="465pt" height="139pt"
 viewBox="0.00 0.00 465.00 139.00" xmlns="http://www.w3.org/2000/svg" xmlns:xlink="http://www.w3.org/1999/xlink">
<g id="graph0" class="graph" transform="scale(1 1) rotate(0) translate(4 135)">
<title>S:/QT_CREATOR/Locker_Control/boxchoice.cpp</title>
<!-- Node1 -->
<g id="node1" class="node"><title>Node1</title>
<polygon fill="#bfbfbf" stroke="black" points="248.5,-106.5 248.5,-130.5 343.5,-130.5 343.5,-106.5 248.5,-106.5"/>
<text text-anchor="start" x="256.5" y="-120.9" font-family="Helvetica,sans-Serif" font-size="7.00">S:/QT_CREATOR/Locker</text>
<text text-anchor="middle" x="296" y="-112.9" font-family="Helvetica,sans-Serif" font-size="7.00">_Control/boxchoice.cpp</text>
</g>
<!-- Node2 -->
<g id="node2" class="node"><title>Node2</title>
<g id="a_node2"><a xlink:href="boxchoice_8h.html" target="_top" xlink:title="boxchoice.h">
<polygon fill="none" stroke="red" points="104,-53.5 104,-69.5 158,-69.5 158,-53.5 104,-53.5"/>
<text text-anchor="middle" x="131" y="-59.9" font-family="Helvetica,sans-Serif" font-size="7.00">boxchoice.h</text>
</a>
</g>
</g>
<!-- Node1&#45;&gt;Node2 -->
<g id="edge1" class="edge"><title>Node1&#45;&gt;Node2</title>
<path fill="none" stroke="midnightblue" d="M262.61,-106.37C233.127,-96.5425 190.489,-82.3298 161.809,-72.7697"/>
<polygon fill="midnightblue" stroke="midnightblue" points="162.885,-69.4389 152.291,-69.597 160.671,-76.0797 162.885,-69.4389"/>
</g>
<!-- Node7 -->
<g id="node7" class="node"><title>Node7</title>
<polygon fill="none" stroke="#bfbfbf" points="176.5,-53.5 176.5,-69.5 239.5,-69.5 239.5,-53.5 176.5,-53.5"/>
<text text-anchor="middle" x="208" y="-59.9" font-family="Helvetica,sans-Serif" font-size="7.00">ui_boxchoice.h</text>
</g>
<!-- Node1&#45;&gt;Node7 -->
<g id="edge6" class="edge"><title>Node1&#45;&gt;Node7</title>
<path fill="none" stroke="midnightblue" d="M278.192,-106.37C263.635,-97.272 243.065,-84.4158 227.955,-74.972"/>
<polygon fill="midnightblue" stroke="midnightblue" points="229.69,-71.929 219.355,-69.597 225.98,-77.865 229.69,-71.929"/>
</g>
<!-- Node8 -->
<g id="node8" class="node"><title>Node8</title>
<polygon fill="none" stroke="#bfbfbf" points="257.5,-53.5 257.5,-69.5 334.5,-69.5 334.5,-53.5 257.5,-53.5"/>
<text text-anchor="middle" x="296" y="-59.9" font-family="Helvetica,sans-Serif" font-size="7.00">QGraphicsTextItem</text>
</g>
<!-- Node1&#45;&gt;Node8 -->
<g id="edge7" class="edge"><title>Node1&#45;&gt;Node8</title>
<path fill="none" stroke="midnightblue" d="M296,-106.37C296,-98.7748 296,-88.5603 296,-79.8986"/>
<polygon fill="midnightblue" stroke="midnightblue" points="299.5,-79.7574 296,-69.7575 292.5,-79.7575 299.5,-79.7574"/>
</g>
<!-- Node9 -->
<g id="node9" class="node"><title>Node9</title>
<polygon fill="none" stroke="#bfbfbf" points="353,-53.5 353,-69.5 397,-69.5 397,-53.5 353,-53.5"/>
<text text-anchor="middle" x="375" y="-59.9" font-family="Helvetica,sans-Serif" font-size="7.00">QToolTip</text>
</g>
<!-- Node1&#45;&gt;Node9 -->
<g id="edge8" class="edge"><title>Node1&#45;&gt;Node9</title>
<path fill="none" stroke="midnightblue" d="M311.987,-106.37C324.735,-97.4947 342.62,-85.0428 356.081,-75.6714"/>
<polygon fill="midnightblue" stroke="midnightblue" points="358.368,-78.3436 364.576,-69.7575 354.369,-72.5988 358.368,-78.3436"/>
</g>
<!-- Node10 -->
<g id="node10" class="node"><title>Node10</title>
<polygon fill="none" stroke="#bfbfbf" points="415,-53.5 415,-69.5 457,-69.5 457,-53.5 415,-53.5"/>
<text text-anchor="middle" x="436" y="-59.9" font-family="Helvetica,sans-Serif" font-size="7.00">QDebug</text>
</g>
<!-- Node1&#45;&gt;Node10 -->
<g id="edge9" class="edge"><title>Node1&#45;&gt;Node10</title>
<path fill="none" stroke="midnightblue" d="M324.331,-106.37C348.909,-96.7141 384.264,-82.8249 408.573,-73.2748"/>
<polygon fill="midnightblue" stroke="midnightblue" points="409.907,-76.5112 417.935,-69.597 407.348,-69.9959 409.907,-76.5112"/>
</g>
<!-- Node3 -->
<g id="node3" class="node"><title>Node3</title>
<polygon fill="none" stroke="#bfbfbf" points="0,-0.5 0,-16.5 44,-16.5 44,-0.5 0,-0.5"/>
<text text-anchor="middle" x="22" y="-6.9" font-family="Helvetica,sans-Serif" font-size="7.00">QWidget</text>
</g>
<!-- Node2&#45;&gt;Node3 -->
<g id="edge2" class="edge"><title>Node2&#45;&gt;Node3</title>
<path fill="none" stroke="midnightblue" d="M115.844,-53.4087C97.785,-44.9591 67.3853,-30.7353 46.0925,-20.7726"/>
<polygon fill="midnightblue" stroke="midnightblue" points="47.5682,-17.599 37.0273,-16.5311 44.6015,-23.9393 47.5682,-17.599"/>
</g>
<!-- Node4 -->
<g id="node4" class="node"><title>Node4</title>
<polygon fill="none" stroke="#bfbfbf" points="62.5,-0.5 62.5,-16.5 131.5,-16.5 131.5,-0.5 62.5,-0.5"/>
<text text-anchor="middle" x="97" y="-6.9" font-family="Helvetica,sans-Serif" font-size="7.00">QGraphicsScene</text>
</g>
<!-- Node2&#45;&gt;Node4 -->
<g id="edge3" class="edge"><title>Node2&#45;&gt;Node4</title>
<path fill="none" stroke="midnightblue" d="M126.272,-53.4087C121.401,-46.1009 113.649,-34.4741 107.347,-25.0202"/>
<polygon fill="midnightblue" stroke="midnightblue" points="110.147,-22.9102 101.687,-16.5311 104.322,-26.7931 110.147,-22.9102"/>
</g>
<!-- Node5 -->
<g id="node5" class="node"><title>Node5</title>
<polygon fill="none" stroke="#bfbfbf" points="149.5,-0.5 149.5,-16.5 182.5,-16.5 182.5,-0.5 149.5,-0.5"/>
<text text-anchor="middle" x="166" y="-6.9" font-family="Helvetica,sans-Serif" font-size="7.00">QList</text>
</g>
<!-- Node2&#45;&gt;Node5 -->
<g id="edge4" class="edge"><title>Node2&#45;&gt;Node5</title>
<path fill="none" stroke="midnightblue" d="M135.867,-53.4087C140.882,-46.1009 148.861,-34.4741 155.349,-25.0202"/>
<polygon fill="midnightblue" stroke="midnightblue" points="158.402,-26.7567 161.175,-16.5311 152.63,-22.7958 158.402,-26.7567"/>
</g>
<!-- Node6 -->
<g id="node6" class="node"><title>Node6</title>
<g id="a_node6"><a xlink:href="showwidgets_8h.html" target="_top" xlink:title="showwidgets.h">
<polygon fill="none" stroke="red" points="201,-0.5 201,-16.5 263,-16.5 263,-0.5 201,-0.5"/>
<text text-anchor="middle" x="232" y="-6.9" font-family="Helvetica,sans-Serif" font-size="7.00">showwidgets.h</text>
</a>
</g>
</g>
<!-- Node2&#45;&gt;Node6 -->
<g id="edge5" class="edge"><title>Node2&#45;&gt;Node6</title>
<path fill="none" stroke="midnightblue" d="M145.044,-53.4087C161.626,-45.0352 189.439,-30.9911 209.14,-21.0429"/>
<polygon fill="midnightblue" stroke="midnightblue" points="210.727,-24.1629 218.076,-16.5311 207.571,-17.9143 210.727,-24.1629"/>
</g>
</g>
</svg>
