<?xml version="1.0" encoding="UTF-8" standalone="no"?>
<!DOCTYPE svg PUBLIC "-//W3C//DTD SVG 1.1//EN"
 "http://www.w3.org/Graphics/SVG/1.1/DTD/svg11.dtd">
<!-- Generated by graphviz version 2.38.0 (20140413.2041)
 -->
<!-- Title: S:/QT_CREATOR/Locker_Control/cdoors.cpp Pages: 1 -->
<svg width="374pt" height="245pt"
 viewBox="0.00 0.00 373.50 245.00" xmlns="http://www.w3.org/2000/svg" xmlns:xlink="http://www.w3.org/1999/xlink">
<g id="graph0" class="graph" transform="scale(1 1) rotate(0) translate(4 241)">
<title>S:/QT_CREATOR/Locker_Control/cdoors.cpp</title>
<!-- Node1 -->
<g id="node1" class="node"><title>Node1</title>
<polygon fill="#bfbfbf" stroke="black" points="83.5,-212.5 83.5,-236.5 178.5,-236.5 178.5,-212.5 83.5,-212.5"/>
<text text-anchor="start" x="91.5" y="-226.9" font-family="Helvetica,sans-Serif" font-size="7.00">S:/QT_CREATOR/Locker</text>
<text text-anchor="middle" x="131" y="-218.9" font-family="Helvetica,sans-Serif" font-size="7.00">_Control/cdoors.cpp</text>
</g>
<!-- Node2 -->
<g id="node2" class="node"><title>Node2</title>
<g id="a_node2"><a xlink:href="cdoors_8h.html" target="_top" xlink:title="cdoors.h">
<polygon fill="none" stroke="black" points="79,-159.5 79,-175.5 123,-175.5 123,-159.5 79,-159.5"/>
<text text-anchor="middle" x="101" y="-165.9" font-family="Helvetica,sans-Serif" font-size="7.00">cdoors.h</text>
</a>
</g>
</g>
<!-- Node1&#45;&gt;Node2 -->
<g id="edge1" class="edge"><title>Node1&#45;&gt;Node2</title>
<path fill="none" stroke="midnightblue" d="M124.929,-212.37C120.6,-204.433 114.711,-193.637 109.858,-184.741"/>
<polygon fill="midnightblue" stroke="midnightblue" points="112.82,-182.86 104.959,-175.757 106.675,-186.212 112.82,-182.86"/>
</g>
<!-- Node10 -->
<g id="node10" class="node"><title>Node10</title>
<polygon fill="none" stroke="#bfbfbf" points="141,-159.5 141,-175.5 183,-175.5 183,-159.5 141,-159.5"/>
<text text-anchor="middle" x="162" y="-165.9" font-family="Helvetica,sans-Serif" font-size="7.00">QDebug</text>
</g>
<!-- Node1&#45;&gt;Node10 -->
<g id="edge11" class="edge"><title>Node1&#45;&gt;Node10</title>
<path fill="none" stroke="midnightblue" d="M137.273,-212.37C141.747,-204.433 147.832,-193.637 152.846,-184.741"/>
<polygon fill="midnightblue" stroke="midnightblue" points="156.048,-186.188 157.909,-175.757 149.95,-182.75 156.048,-186.188"/>
</g>
<!-- Node3 -->
<g id="node3" class="node"><title>Node3</title>
<g id="a_node3"><a xlink:href="_data_structures_8h.html" target="_top" xlink:title="Definnitions des formats de communications des données entre les classes de l&#39;application LC...">
<polygon fill="none" stroke="black" points="0,-53.5 0,-69.5 70,-69.5 70,-53.5 0,-53.5"/>
<text text-anchor="middle" x="35" y="-59.9" font-family="Helvetica,sans-Serif" font-size="7.00">DataStructures.h</text>
</a>
</g>
</g>
<!-- Node2&#45;&gt;Node3 -->
<g id="edge2" class="edge"><title>Node2&#45;&gt;Node3</title>
<path fill="none" stroke="midnightblue" d="M96.4636,-159.352C85.9135,-142.727 59.5245,-101.145 44.9905,-78.2426"/>
<polygon fill="midnightblue" stroke="midnightblue" points="47.8816,-76.2663 39.5682,-69.6984 41.9713,-80.0171 47.8816,-76.2663"/>
</g>
<!-- Node6 -->
<g id="node6" class="node"><title>Node6</title>
<g id="a_node6"><a xlink:href="csqlite__local__db_8h.html" target="_top" xlink:title="csqlite_local_db.h">
<polygon fill="none" stroke="red" points="114,-106.5 114,-122.5 186,-122.5 186,-106.5 114,-106.5"/>
<text text-anchor="middle" x="150" y="-112.9" font-family="Helvetica,sans-Serif" font-size="7.00">csqlite_local_db.h</text>
</a>
</g>
</g>
<!-- Node2&#45;&gt;Node6 -->
<g id="edge5" class="edge"><title>Node2&#45;&gt;Node6</title>
<path fill="none" stroke="midnightblue" d="M107.813,-159.409C115.127,-151.796 126.943,-139.498 136.212,-129.85"/>
<polygon fill="midnightblue" stroke="midnightblue" points="138.84,-132.167 143.245,-122.531 133.792,-127.317 138.84,-132.167"/>
</g>
<!-- Node4 -->
<g id="node4" class="node"><title>Node4</title>
<polygon fill="none" stroke="#bfbfbf" points="74,-0.5 74,-16.5 114,-16.5 114,-0.5 74,-0.5"/>
<text text-anchor="middle" x="94" y="-6.9" font-family="Helvetica,sans-Serif" font-size="7.00">QString</text>
</g>
<!-- Node3&#45;&gt;Node4 -->
<g id="edge3" class="edge"><title>Node3&#45;&gt;Node4</title>
<path fill="none" stroke="midnightblue" d="M43.2037,-53.4087C52.1862,-45.6442 66.8092,-33.0039 78.0646,-23.2747"/>
<polygon fill="midnightblue" stroke="midnightblue" points="80.5895,-25.7186 85.866,-16.5311 76.0118,-20.4228 80.5895,-25.7186"/>
</g>
<!-- Node5 -->
<g id="node5" class="node"><title>Node5</title>
<polygon fill="none" stroke="#bfbfbf" points="18.5,-0.5 18.5,-16.5 51.5,-16.5 51.5,-0.5 18.5,-0.5"/>
<text text-anchor="middle" x="35" y="-6.9" font-family="Helvetica,sans-Serif" font-size="7.00">QList</text>
</g>
<!-- Node3&#45;&gt;Node5 -->
<g id="edge4" class="edge"><title>Node3&#45;&gt;Node5</title>
<path fill="none" stroke="midnightblue" d="M35,-53.4087C35,-46.5576 35,-35.9106 35,-26.8167"/>
<polygon fill="midnightblue" stroke="midnightblue" points="38.5001,-26.5311 35,-16.5311 31.5001,-26.5311 38.5001,-26.5311"/>
</g>
<!-- Node6&#45;&gt;Node3 -->
<g id="edge10" class="edge"><title>Node6&#45;&gt;Node3</title>
<path fill="none" stroke="midnightblue" d="M134.01,-106.409C114.871,-97.921 82.5943,-83.607 60.1157,-73.6383"/>
<polygon fill="midnightblue" stroke="midnightblue" points="61.4148,-70.3857 50.8545,-69.5311 58.5769,-76.7847 61.4148,-70.3857"/>
</g>
<!-- Node6&#45;&gt;Node4 -->
<g id="edge6" class="edge"><title>Node6&#45;&gt;Node4</title>
<path fill="none" stroke="midnightblue" d="M143.46,-106.254C136.24,-97.9674 124.629,-83.7627 117,-70 109.326,-56.1548 103.133,-39.2267 99.1146,-26.8013"/>
<polygon fill="midnightblue" stroke="midnightblue" points="102.345,-25.3999 96.0559,-16.8737 95.6555,-27.461 102.345,-25.3999"/>
</g>
<!-- Node7 -->
<g id="node7" class="node"><title>Node7</title>
<polygon fill="none" stroke="#bfbfbf" points="126.5,-53.5 126.5,-69.5 207.5,-69.5 207.5,-53.5 126.5,-53.5"/>
<text text-anchor="middle" x="167" y="-59.9" font-family="Helvetica,sans-Serif" font-size="7.00">QtSql/QSqlDatabase</text>
</g>
<!-- Node6&#45;&gt;Node7 -->
<g id="edge7" class="edge"><title>Node6&#45;&gt;Node7</title>
<path fill="none" stroke="midnightblue" d="M152.364,-106.409C154.698,-99.4054 158.355,-88.4355 161.429,-79.2128"/>
<polygon fill="midnightblue" stroke="midnightblue" points="164.814,-80.1248 164.656,-69.5311 158.174,-77.9111 164.814,-80.1248"/>
</g>
<!-- Node8 -->
<g id="node8" class="node"><title>Node8</title>
<polygon fill="none" stroke="#bfbfbf" points="225.5,-53.5 225.5,-69.5 296.5,-69.5 296.5,-53.5 225.5,-53.5"/>
<text text-anchor="middle" x="261" y="-59.9" font-family="Helvetica,sans-Serif" font-size="7.00">QtSql/QSqlDriver</text>
</g>
<!-- Node6&#45;&gt;Node8 -->
<g id="edge8" class="edge"><title>Node6&#45;&gt;Node8</title>
<path fill="none" stroke="midnightblue" d="M165.434,-106.409C183.824,-97.9591 214.782,-83.7353 236.465,-73.7726"/>
<polygon fill="midnightblue" stroke="midnightblue" points="238.072,-76.8865 245.697,-69.5311 235.149,-70.5258 238.072,-76.8865"/>
</g>
<!-- Node9 -->
<g id="node9" class="node"><title>Node9</title>
<polygon fill="none" stroke="#bfbfbf" points="314.5,-53.5 314.5,-69.5 365.5,-69.5 365.5,-53.5 314.5,-53.5"/>
<text text-anchor="middle" x="340" y="-59.9" font-family="Helvetica,sans-Serif" font-size="7.00">QSqlQuery</text>
</g>
<!-- Node6&#45;&gt;Node9 -->
<g id="edge9" class="edge"><title>Node6&#45;&gt;Node9</title>
<path fill="none" stroke="midnightblue" d="M176.419,-106.409C209.786,-97.4523 267.322,-82.0084 304.503,-72.0282"/>
<polygon fill="midnightblue" stroke="midnightblue" points="305.662,-75.341 314.413,-69.3682 303.847,-68.5803 305.662,-75.341"/>
</g>
</g>
</svg>
