<?xml version="1.0" encoding="UTF-8" standalone="no"?>
<!DOCTYPE svg PUBLIC "-//W3C//DTD SVG 1.1//EN"
 "http://www.w3.org/Graphics/SVG/1.1/DTD/svg11.dtd">
<!-- Generated by graphviz version 2.38.0 (20140413.2041)
 -->
<!-- Title: S:/QT_CREATOR/Locker_Control/cdoors.h Pages: 1 -->
<svg width="490pt" height="192pt"
 viewBox="0.00 0.00 489.50 192.00" xmlns="http://www.w3.org/2000/svg" xmlns:xlink="http://www.w3.org/1999/xlink">
<g id="graph0" class="graph" transform="scale(1 1) rotate(0) translate(4 188)">
<title>S:/QT_CREATOR/Locker_Control/cdoors.h</title>
<!-- Node1 -->
<g id="node1" class="node"><title>Node1</title>
<polygon fill="#bfbfbf" stroke="black" points="86.5,-159.5 86.5,-183.5 181.5,-183.5 181.5,-159.5 86.5,-159.5"/>
<text text-anchor="start" x="94.5" y="-173.9" font-family="Helvetica,sans-Serif" font-size="7.00">S:/QT_CREATOR/Locker</text>
<text text-anchor="middle" x="134" y="-165.9" font-family="Helvetica,sans-Serif" font-size="7.00">_Control/cdoors.h</text>
</g>
<!-- Node2 -->
<g id="node2" class="node"><title>Node2</title>
<g id="a_node2"><a xlink:href="_data_structures_8h.html" target="_top" xlink:title="Definnitions des formats de communications des données entre les classes de l&#39;application LC...">
<polygon fill="none" stroke="black" points="0,-53.5 0,-69.5 70,-69.5 70,-53.5 0,-53.5"/>
<text text-anchor="middle" x="35" y="-59.9" font-family="Helvetica,sans-Serif" font-size="7.00">DataStructures.h</text>
</a>
</g>
</g>
<!-- Node1&#45;&gt;Node2 -->
<g id="edge1" class="edge"><title>Node1&#45;&gt;Node2</title>
<path fill="none" stroke="midnightblue" d="M123.778,-159.349C105.809,-139.747 68.5682,-99.1198 48.5043,-77.232"/>
<polygon fill="midnightblue" stroke="midnightblue" points="50.8449,-74.6057 41.5076,-69.5992 45.6848,-79.3358 50.8449,-74.6057"/>
</g>
<!-- Node5 -->
<g id="node5" class="node"><title>Node5</title>
<g id="a_node5"><a xlink:href="csqlite__local__db_8h.html" target="_top" xlink:title="csqlite_local_db.h">
<polygon fill="none" stroke="red" points="178,-106.5 178,-122.5 250,-122.5 250,-106.5 178,-106.5"/>
<text text-anchor="middle" x="214" y="-112.9" font-family="Helvetica,sans-Serif" font-size="7.00">csqlite_local_db.h</text>
</a>
</g>
</g>
<!-- Node1&#45;&gt;Node5 -->
<g id="edge4" class="edge"><title>Node1&#45;&gt;Node5</title>
<path fill="none" stroke="midnightblue" d="M150.189,-159.37C163.099,-150.495 181.21,-138.043 194.842,-128.671"/>
<polygon fill="midnightblue" stroke="midnightblue" points="197.186,-131.307 203.444,-122.757 193.22,-125.539 197.186,-131.307"/>
</g>
<!-- Node3 -->
<g id="node3" class="node"><title>Node3</title>
<polygon fill="none" stroke="#bfbfbf" points="74,-0.5 74,-16.5 114,-16.5 114,-0.5 74,-0.5"/>
<text text-anchor="middle" x="94" y="-6.9" font-family="Helvetica,sans-Serif" font-size="7.00">QString</text>
</g>
<!-- Node2&#45;&gt;Node3 -->
<g id="edge2" class="edge"><title>Node2&#45;&gt;Node3</title>
<path fill="none" stroke="midnightblue" d="M43.2037,-53.4087C52.1862,-45.6442 66.8092,-33.0039 78.0646,-23.2747"/>
<polygon fill="midnightblue" stroke="midnightblue" points="80.5895,-25.7186 85.866,-16.5311 76.0118,-20.4228 80.5895,-25.7186"/>
</g>
<!-- Node4 -->
<g id="node4" class="node"><title>Node4</title>
<polygon fill="none" stroke="#bfbfbf" points="18.5,-0.5 18.5,-16.5 51.5,-16.5 51.5,-0.5 18.5,-0.5"/>
<text text-anchor="middle" x="35" y="-6.9" font-family="Helvetica,sans-Serif" font-size="7.00">QList</text>
</g>
<!-- Node2&#45;&gt;Node4 -->
<g id="edge3" class="edge"><title>Node2&#45;&gt;Node4</title>
<path fill="none" stroke="midnightblue" d="M35,-53.4087C35,-46.5576 35,-35.9106 35,-26.8167"/>
<polygon fill="midnightblue" stroke="midnightblue" points="38.5001,-26.5311 35,-16.5311 31.5001,-26.5311 38.5001,-26.5311"/>
</g>
<!-- Node5&#45;&gt;Node2 -->
<g id="edge11" class="edge"><title>Node5&#45;&gt;Node2</title>
<path fill="none" stroke="midnightblue" d="M189.111,-106.409C157.985,-97.5404 104.535,-82.3116 69.4814,-72.3243"/>
<polygon fill="midnightblue" stroke="midnightblue" points="70.2541,-68.9052 59.6778,-69.5311 68.336,-75.6373 70.2541,-68.9052"/>
</g>
<!-- Node5&#45;&gt;Node3 -->
<g id="edge5" class="edge"><title>Node5&#45;&gt;Node3</title>
<path fill="none" stroke="midnightblue" d="M183.222,-106.377C162.078,-100.043 134.731,-88.7952 117,-70 105.788,-58.1148 99.8925,-40.2127 96.8912,-26.9633"/>
<polygon fill="midnightblue" stroke="midnightblue" points="100.26,-25.9467 94.9379,-16.7856 93.3855,-27.2661 100.26,-25.9467"/>
</g>
<!-- Node6 -->
<g id="node6" class="node"><title>Node6</title>
<polygon fill="none" stroke="#bfbfbf" points="126.5,-53.5 126.5,-69.5 207.5,-69.5 207.5,-53.5 126.5,-53.5"/>
<text text-anchor="middle" x="167" y="-59.9" font-family="Helvetica,sans-Serif" font-size="7.00">QtSql/QSqlDatabase</text>
</g>
<!-- Node5&#45;&gt;Node6 -->
<g id="edge6" class="edge"><title>Node5&#45;&gt;Node6</title>
<path fill="none" stroke="midnightblue" d="M207.465,-106.409C200.52,-98.8725 189.342,-86.7432 180.492,-77.1405"/>
<polygon fill="midnightblue" stroke="midnightblue" points="182.83,-74.5128 173.48,-69.5311 177.683,-79.2566 182.83,-74.5128"/>
</g>
<!-- Node7 -->
<g id="node7" class="node"><title>Node7</title>
<polygon fill="none" stroke="#bfbfbf" points="225.5,-53.5 225.5,-69.5 296.5,-69.5 296.5,-53.5 225.5,-53.5"/>
<text text-anchor="middle" x="261" y="-59.9" font-family="Helvetica,sans-Serif" font-size="7.00">QtSql/QSqlDriver</text>
</g>
<!-- Node5&#45;&gt;Node7 -->
<g id="edge7" class="edge"><title>Node5&#45;&gt;Node7</title>
<path fill="none" stroke="midnightblue" d="M220.535,-106.409C227.48,-98.8725 238.658,-86.7432 247.508,-77.1405"/>
<polygon fill="midnightblue" stroke="midnightblue" points="250.317,-79.2566 254.52,-69.5311 245.17,-74.5128 250.317,-79.2566"/>
</g>
<!-- Node8 -->
<g id="node8" class="node"><title>Node8</title>
<polygon fill="none" stroke="#bfbfbf" points="314.5,-53.5 314.5,-69.5 365.5,-69.5 365.5,-53.5 314.5,-53.5"/>
<text text-anchor="middle" x="340" y="-59.9" font-family="Helvetica,sans-Serif" font-size="7.00">QSqlQuery</text>
</g>
<!-- Node5&#45;&gt;Node8 -->
<g id="edge8" class="edge"><title>Node5&#45;&gt;Node8</title>
<path fill="none" stroke="midnightblue" d="M231.52,-106.409C252.677,-97.8449 288.489,-83.3498 313.142,-73.3711"/>
<polygon fill="midnightblue" stroke="midnightblue" points="314.673,-76.5274 322.629,-69.5311 312.046,-70.0388 314.673,-76.5274"/>
</g>
<!-- Node9 -->
<g id="node9" class="node"><title>Node9</title>
<polygon fill="none" stroke="#bfbfbf" points="383.5,-53.5 383.5,-69.5 430.5,-69.5 430.5,-53.5 383.5,-53.5"/>
<text text-anchor="middle" x="407" y="-59.9" font-family="Helvetica,sans-Serif" font-size="7.00">QSqlError</text>
</g>
<!-- Node5&#45;&gt;Node9 -->
<g id="edge9" class="edge"><title>Node5&#45;&gt;Node9</title>
<path fill="none" stroke="midnightblue" d="M240.836,-106.409C275.487,-97.2521 335.798,-81.3149 373.443,-71.3675"/>
<polygon fill="midnightblue" stroke="midnightblue" points="374.645,-74.67 383.419,-68.7313 372.857,-67.9023 374.645,-74.67"/>
</g>
<!-- Node10 -->
<g id="node10" class="node"><title>Node10</title>
<polygon fill="none" stroke="#bfbfbf" points="448.5,-53.5 448.5,-69.5 481.5,-69.5 481.5,-53.5 448.5,-53.5"/>
<text text-anchor="middle" x="465" y="-59.9" font-family="Helvetica,sans-Serif" font-size="7.00">QFile</text>
</g>
<!-- Node5&#45;&gt;Node10 -->
<g id="edge10" class="edge"><title>Node5&#45;&gt;Node10</title>
<path fill="none" stroke="midnightblue" d="M250.255,-107.687C293.085,-100.564 366.657,-87.5334 438.297,-70.2115"/>
<polygon fill="midnightblue" stroke="midnightblue" points="439.509,-73.5181 448.389,-67.739 437.844,-66.7191 439.509,-73.5181"/>
</g>
</g>
</svg>
