<?xml version="1.0" encoding="UTF-8" standalone="no"?>
<!DOCTYPE svg PUBLIC "-//W3C//DTD SVG 1.1//EN"
 "http://www.w3.org/Graphics/SVG/1.1/DTD/svg11.dtd">
<!-- Generated by graphviz version 2.38.0 (20140413.2041)
 -->
<!-- Title: S:/QT_CREATOR/Locker_Control/cdoors.h Pages: 1 -->
<svg width="501pt" height="277pt"
 viewBox="0.00 0.00 500.50 277.00" xmlns="http://www.w3.org/2000/svg" xmlns:xlink="http://www.w3.org/1999/xlink">
<g id="graph0" class="graph" transform="scale(1 1) rotate(0) translate(4 273)">
<title>S:/QT_CREATOR/Locker_Control/cdoors.h</title>
<!-- Node1 -->
<g id="node1" class="node"><title>Node1</title>
<polygon fill="#bfbfbf" stroke="black" points="184.5,-244.5 184.5,-268.5 279.5,-268.5 279.5,-244.5 184.5,-244.5"/>
<text text-anchor="start" x="192.5" y="-258.9" font-family="Helvetica,sans-Serif" font-size="7.00">S:/QT_CREATOR/Locker</text>
<text text-anchor="middle" x="232" y="-250.9" font-family="Helvetica,sans-Serif" font-size="7.00">_Control/cdoors.h</text>
</g>
<!-- Node2 -->
<g id="node2" class="node"><title>Node2</title>
<g id="a_node2"><a xlink:href="cdoors_8cpp.html" target="_top" xlink:title="S:/QT_CREATOR/Locker\l_Control/cdoors.cpp">
<polygon fill="none" stroke="black" points="28.5,-183.5 28.5,-207.5 123.5,-207.5 123.5,-183.5 28.5,-183.5"/>
<text text-anchor="start" x="36.5" y="-197.9" font-family="Helvetica,sans-Serif" font-size="7.00">S:/QT_CREATOR/Locker</text>
<text text-anchor="middle" x="76" y="-189.9" font-family="Helvetica,sans-Serif" font-size="7.00">_Control/cdoors.cpp</text>
</a>
</g>
</g>
<!-- Node1&#45;&gt;Node2 -->
<g id="edge1" class="edge"><title>Node1&#45;&gt;Node2</title>
<path fill="none" stroke="midnightblue" d="M193.046,-240.768C165.809,-230.466 130.012,-216.928 105.211,-207.548"/>
<polygon fill="midnightblue" stroke="midnightblue" points="192.066,-244.139 202.658,-244.403 194.542,-237.591 192.066,-244.139"/>
</g>
<!-- Node3 -->
<g id="node3" class="node"><title>Node3</title>
<g id="a_node3"><a xlink:href="thread__statusdoors_8h.html" target="_top" xlink:title="S:/QT_CREATOR/Locker\l_Control/thread_statusdoors.h">
<polygon fill="none" stroke="black" points="218.5,-183.5 218.5,-207.5 329.5,-207.5 329.5,-183.5 218.5,-183.5"/>
<text text-anchor="start" x="226.5" y="-197.9" font-family="Helvetica,sans-Serif" font-size="7.00">S:/QT_CREATOR/Locker</text>
<text text-anchor="middle" x="274" y="-189.9" font-family="Helvetica,sans-Serif" font-size="7.00">_Control/thread_statusdoors.h</text>
</a>
</g>
</g>
<!-- Node1&#45;&gt;Node3 -->
<g id="edge2" class="edge"><title>Node1&#45;&gt;Node3</title>
<path fill="none" stroke="midnightblue" d="M245.904,-235.968C252.629,-226.521 260.454,-215.529 266.136,-207.548"/>
<polygon fill="midnightblue" stroke="midnightblue" points="242.848,-234.226 239.9,-244.403 248.551,-238.286 242.848,-234.226"/>
</g>
<!-- Node4 -->
<g id="node4" class="node"><title>Node4</title>
<g id="a_node4"><a xlink:href="showpackagebox_8h.html" target="_top" xlink:title="S:/QT_CREATOR/Locker\l_Control/showpackagebox.h">
<polygon fill="none" stroke="red" points="0,-122.5 0,-146.5 104,-146.5 104,-122.5 0,-122.5"/>
<text text-anchor="start" x="8" y="-136.9" font-family="Helvetica,sans-Serif" font-size="7.00">S:/QT_CREATOR/Locker</text>
<text text-anchor="middle" x="52" y="-128.9" font-family="Helvetica,sans-Serif" font-size="7.00">_Control/showpackagebox.h</text>
</a>
</g>
</g>
<!-- Node1&#45;&gt;Node4 -->
<g id="edge12" class="edge"><title>Node1&#45;&gt;Node4</title>
<path fill="none" stroke="midnightblue" d="M209.213,-238.063C189.213,-222.981 159.159,-200.854 132,-183 111.889,-169.779 88.0877,-155.857 71.7046,-146.529"/>
<polygon fill="midnightblue" stroke="midnightblue" points="207.305,-241.009 217.389,-244.259 211.533,-235.43 207.305,-241.009"/>
</g>
<!-- Node7 -->
<g id="node7" class="node"><title>Node7</title>
<g id="a_node7"><a xlink:href="stowpackages_8h.html" target="_top" xlink:title="S:/QT_CREATOR/Locker\l_Control/stowpackages.h">
<polygon fill="none" stroke="red" points="122.5,-122.5 122.5,-146.5 217.5,-146.5 217.5,-122.5 122.5,-122.5"/>
<text text-anchor="start" x="130.5" y="-136.9" font-family="Helvetica,sans-Serif" font-size="7.00">S:/QT_CREATOR/Locker</text>
<text text-anchor="middle" x="170" y="-128.9" font-family="Helvetica,sans-Serif" font-size="7.00">_Control/stowpackages.h</text>
</a>
</g>
</g>
<!-- Node1&#45;&gt;Node7 -->
<g id="edge13" class="edge"><title>Node1&#45;&gt;Node7</title>
<path fill="none" stroke="midnightblue" d="M221.551,-235.275C208.357,-209.739 186.125,-166.709 175.708,-146.547"/>
<polygon fill="midnightblue" stroke="midnightblue" points="218.579,-237.148 226.278,-244.426 224.798,-233.935 218.579,-237.148"/>
</g>
<!-- Node8 -->
<g id="node8" class="node"><title>Node8</title>
<g id="a_node8"><a xlink:href="openemptybox_8h.html" target="_top" xlink:title="S:/QT_CREATOR/Locker\l_Control/openemptybox.h">
<polygon fill="none" stroke="red" points="373,-122.5 373,-146.5 471,-146.5 471,-122.5 373,-122.5"/>
<text text-anchor="start" x="381" y="-136.9" font-family="Helvetica,sans-Serif" font-size="7.00">S:/QT_CREATOR/Locker</text>
<text text-anchor="middle" x="422" y="-128.9" font-family="Helvetica,sans-Serif" font-size="7.00">_Control/openemptybox.h</text>
</a>
</g>
</g>
<!-- Node1&#45;&gt;Node8 -->
<g id="edge14" class="edge"><title>Node1&#45;&gt;Node8</title>
<path fill="none" stroke="midnightblue" d="M273.102,-240.632C293.644,-232.374 318.439,-221.117 339,-208 367.55,-189.786 396.298,-162.1 411.322,-146.748"/>
<polygon fill="midnightblue" stroke="midnightblue" points="271.725,-237.413 263.696,-244.326 274.283,-243.928 271.725,-237.413"/>
</g>
<!-- Node10 -->
<g id="node10" class="node"><title>Node10</title>
<g id="a_node10"><a xlink:href="doorsmanager_8h.html" target="_top" xlink:title="S:/QT_CREATOR/Locker\l_Control/doorsmanager.h">
<polygon fill="none" stroke="red" points="397.5,-61.5 397.5,-85.5 492.5,-85.5 492.5,-61.5 397.5,-61.5"/>
<text text-anchor="start" x="405.5" y="-75.9" font-family="Helvetica,sans-Serif" font-size="7.00">S:/QT_CREATOR/Locker</text>
<text text-anchor="middle" x="445" y="-67.9" font-family="Helvetica,sans-Serif" font-size="7.00">_Control/doorsmanager.h</text>
</a>
</g>
</g>
<!-- Node1&#45;&gt;Node10 -->
<g id="edge15" class="edge"><title>Node1&#45;&gt;Node10</title>
<path fill="none" stroke="midnightblue" d="M289.802,-249.209C349.915,-239.159 440.633,-213.268 480,-147 492.421,-126.092 471.788,-100.112 457.296,-85.6146"/>
<polygon fill="midnightblue" stroke="midnightblue" points="289.028,-245.788 279.693,-250.799 290.115,-252.703 289.028,-245.788"/>
</g>
<!-- Node3&#45;&gt;Node4 -->
<g id="edge3" class="edge"><title>Node3&#45;&gt;Node4</title>
<path fill="none" stroke="midnightblue" d="M222.616,-180.844C183.45,-170.435 130.203,-156.284 93.669,-146.574"/>
<polygon fill="midnightblue" stroke="midnightblue" points="221.94,-184.286 232.504,-183.472 223.738,-177.521 221.94,-184.286"/>
</g>
<!-- Node3&#45;&gt;Node7 -->
<g id="edge7" class="edge"><title>Node3&#45;&gt;Node7</title>
<path fill="none" stroke="midnightblue" d="M245.61,-178.394C227.793,-168.287 205.283,-155.516 189.474,-146.548"/>
<polygon fill="midnightblue" stroke="midnightblue" points="244.014,-181.512 254.438,-183.403 247.468,-175.424 244.014,-181.512"/>
</g>
<!-- Node3&#45;&gt;Node8 -->
<g id="edge9" class="edge"><title>Node3&#45;&gt;Node8</title>
<path fill="none" stroke="midnightblue" d="M311.297,-179.632C337.094,-169.348 370.861,-155.886 394.287,-146.548"/>
<polygon fill="midnightblue" stroke="midnightblue" points="309.831,-176.448 301.838,-183.403 312.423,-182.951 309.831,-176.448"/>
</g>
<!-- Node9 -->
<g id="node9" class="node"><title>Node9</title>
<g id="a_node9"><a xlink:href="thread__statusdoors_8cpp.html" target="_top" xlink:title="S:/QT_CREATOR/Locker\l_Control/thread_statusdoors.cpp">
<polygon fill="none" stroke="black" points="235.5,-122.5 235.5,-146.5 354.5,-146.5 354.5,-122.5 235.5,-122.5"/>
<text text-anchor="start" x="243.5" y="-136.9" font-family="Helvetica,sans-Serif" font-size="7.00">S:/QT_CREATOR/Locker</text>
<text text-anchor="middle" x="295" y="-128.9" font-family="Helvetica,sans-Serif" font-size="7.00">_Control/thread_statusdoors.cpp</text>
</a>
</g>
</g>
<!-- Node3&#45;&gt;Node9 -->
<g id="edge11" class="edge"><title>Node3&#45;&gt;Node9</title>
<path fill="none" stroke="midnightblue" d="M281.371,-173.791C284.635,-164.619 288.344,-154.2 291.068,-146.548"/>
<polygon fill="midnightblue" stroke="midnightblue" points="278.006,-172.808 277.95,-183.403 284.601,-175.155 278.006,-172.808"/>
</g>
<!-- Node5 -->
<g id="node5" class="node"><title>Node5</title>
<g id="a_node5"><a xlink:href="customer_8h.html" target="_top" xlink:title="S:/QT_CREATOR/Locker\l_Control/customer.h">
<polygon fill="none" stroke="red" points="5.5,-61.5 5.5,-85.5 100.5,-85.5 100.5,-61.5 5.5,-61.5"/>
<text text-anchor="start" x="13.5" y="-75.9" font-family="Helvetica,sans-Serif" font-size="7.00">S:/QT_CREATOR/Locker</text>
<text text-anchor="middle" x="53" y="-67.9" font-family="Helvetica,sans-Serif" font-size="7.00">_Control/customer.h</text>
</a>
</g>
</g>
<!-- Node4&#45;&gt;Node5 -->
<g id="edge4" class="edge"><title>Node4&#45;&gt;Node5</title>
<path fill="none" stroke="midnightblue" d="M52.3611,-112.198C52.514,-103.173 52.6858,-93.0351 52.8128,-85.5477"/>
<polygon fill="midnightblue" stroke="midnightblue" points="48.8582,-112.345 52.1881,-122.403 55.8572,-112.463 48.8582,-112.345"/>
</g>
<!-- Node6 -->
<g id="node6" class="node"><title>Node6</title>
<g id="a_node6"><a xlink:href="consolewindows_8h.html" target="_top" xlink:title="S:/QT_CREATOR/Locker\l_Control/consolewindows.h">
<polygon fill="none" stroke="red" points="119.5,-0.5 119.5,-24.5 220.5,-24.5 220.5,-0.5 119.5,-0.5"/>
<text text-anchor="start" x="127.5" y="-14.9" font-family="Helvetica,sans-Serif" font-size="7.00">S:/QT_CREATOR/Locker</text>
<text text-anchor="middle" x="170" y="-6.9" font-family="Helvetica,sans-Serif" font-size="7.00">_Control/consolewindows.h</text>
</a>
</g>
</g>
<!-- Node4&#45;&gt;Node6 -->
<g id="edge6" class="edge"><title>Node4&#45;&gt;Node6</title>
<path fill="none" stroke="midnightblue" d="M74.7774,-116.051C85.5417,-107.427 98.3378,-96.6119 109,-86 129.403,-65.6931 150.417,-39.2703 161.672,-24.5826"/>
<polygon fill="midnightblue" stroke="midnightblue" points="72.345,-113.512 66.6598,-122.452 76.6794,-119.008 72.345,-113.512"/>
</g>
<!-- Node5&#45;&gt;Node6 -->
<g id="edge5" class="edge"><title>Node5&#45;&gt;Node6</title>
<path fill="none" stroke="midnightblue" d="M84.1145,-56.8098C104.284,-46.6389 130.062,-33.6396 148.092,-24.5477"/>
<polygon fill="midnightblue" stroke="midnightblue" points="82.3598,-53.7747 75.0068,-61.4026 85.5117,-60.025 82.3598,-53.7747"/>
</g>
<!-- Node7&#45;&gt;Node6 -->
<g id="edge8" class="edge"><title>Node7&#45;&gt;Node6</title>
<path fill="none" stroke="midnightblue" d="M170,-112.249C170,-86.6002 170,-44.4411 170,-24.5475"/>
<polygon fill="midnightblue" stroke="midnightblue" points="166.5,-112.426 170,-122.426 173.5,-112.426 166.5,-112.426"/>
</g>
<!-- Node8&#45;&gt;Node6 -->
<g id="edge10" class="edge"><title>Node8&#45;&gt;Node6</title>
<path fill="none" stroke="midnightblue" d="M389.696,-118.117C338.107,-93.5512 238.348,-46.0469 193.2,-24.5475"/>
<polygon fill="midnightblue" stroke="midnightblue" points="388.211,-121.286 398.744,-122.426 391.22,-114.966 388.211,-121.286"/>
</g>
<!-- Node10&#45;&gt;Node6 -->
<g id="edge16" class="edge"><title>Node10&#45;&gt;Node6</title>
<path fill="none" stroke="midnightblue" d="M387.543,-60.1728C338.268,-49.6011 267.953,-34.5153 220.729,-24.3837"/>
<polygon fill="midnightblue" stroke="midnightblue" points="386.901,-63.6147 397.413,-62.2903 388.369,-56.7704 386.901,-63.6147"/>
</g>
</g>
</svg>
