<?xml version="1.0" encoding="UTF-8" standalone="no"?>
<!DOCTYPE svg PUBLIC "-//W3C//DTD SVG 1.1//EN"
 "http://www.w3.org/Graphics/SVG/1.1/DTD/svg11.dtd">
<!-- Generated by graphviz version 2.38.0 (20140413.2041)
 -->
<!-- Title: Setting Pages: 1 -->
<svg width="107pt" height="182pt"
 viewBox="0.00 0.00 107.00 182.00" xmlns="http://www.w3.org/2000/svg" xmlns:xlink="http://www.w3.org/1999/xlink">
<g id="graph0" class="graph" transform="scale(1 1) rotate(0) translate(4 178)">
<title>Setting</title>
<!-- Node1 -->
<g id="node1" class="node"><title>Node1</title>
<polygon fill="#bfbfbf" stroke="black" points="0,-0.5 0,-88.5 99,-88.5 99,-0.5 0,-0.5"/>
<text text-anchor="middle" x="49.5" y="-78.9" font-family="Helvetica,sans-Serif" font-size="7.00">Setting</text>
<polyline fill="none" stroke="black" points="0,-72.5 99,-72.5 "/>
<text text-anchor="middle" x="49.5" y="-62.9" font-family="Helvetica,sans-Serif" font-size="7.00"> </text>
<polyline fill="none" stroke="black" points="0,-56.5 99,-56.5 "/>
<text text-anchor="start" x="8" y="-46.9" font-family="Helvetica,sans-Serif" font-size="7.00">+ Setting()</text>
<text text-anchor="start" x="8" y="-38.9" font-family="Helvetica,sans-Serif" font-size="7.00">+ SetShowWidgets()</text>
<text text-anchor="start" x="8" y="-30.9" font-family="Helvetica,sans-Serif" font-size="7.00">+ ~Setting()</text>
<text text-anchor="start" x="8" y="-22.9" font-family="Helvetica,sans-Serif" font-size="7.00">+ retranslateUi()</text>
<text text-anchor="start" x="8" y="-14.9" font-family="Helvetica,sans-Serif" font-size="7.00">+ ReturnHome()</text>
<text text-anchor="start" x="8" y="-6.9" font-family="Helvetica,sans-Serif" font-size="7.00">+ ShowMaintenanceMenu()</text>
</g>
<!-- Node2 -->
<g id="node2" class="node"><title>Node2</title>
<polygon fill="none" stroke="#bfbfbf" points="27.5,-125.5 27.5,-173.5 71.5,-173.5 71.5,-125.5 27.5,-125.5"/>
<text text-anchor="middle" x="49.5" y="-163.9" font-family="Helvetica,sans-Serif" font-size="7.00">QWidget</text>
<polyline fill="none" stroke="#bfbfbf" points="27.5,-157.5 71.5,-157.5 "/>
<text text-anchor="middle" x="49.5" y="-147.9" font-family="Helvetica,sans-Serif" font-size="7.00"> </text>
<polyline fill="none" stroke="#bfbfbf" points="27.5,-141.5 71.5,-141.5 "/>
<text text-anchor="middle" x="49.5" y="-131.9" font-family="Helvetica,sans-Serif" font-size="7.00"> </text>
</g>
<!-- Node2&#45;&gt;Node1 -->
<g id="edge1" class="edge"><title>Node2&#45;&gt;Node1</title>
<path fill="none" stroke="midnightblue" d="M49.5,-115.212C49.5,-106.802 49.5,-97.6498 49.5,-88.8256"/>
<polygon fill="none" stroke="midnightblue" points="46.0001,-115.385 49.5,-125.385 53.0001,-115.385 46.0001,-115.385"/>
</g>
</g>
</svg>
