<?xml version="1.0" encoding="UTF-8" standalone="no"?>
<!DOCTYPE svg PUBLIC "-//W3C//DTD SVG 1.1//EN"
 "http://www.w3.org/Graphics/SVG/1.1/DTD/svg11.dtd">
<!-- Generated by graphviz version 2.38.0 (20140413.2041)
 -->
<!-- Title: ShowPackageBox Pages: 1 -->
<svg width="100pt" height="238pt"
 viewBox="0.00 0.00 100.00 238.00" xmlns="http://www.w3.org/2000/svg" xmlns:xlink="http://www.w3.org/1999/xlink">
<g id="graph0" class="graph" transform="scale(1 1) rotate(0) translate(4 234)">
<title>ShowPackageBox</title>
<!-- Node1 -->
<g id="node1" class="node"><title>Node1</title>
<polygon fill="#bfbfbf" stroke="black" points="0,-0.5 0,-144.5 92,-144.5 92,-0.5 0,-0.5"/>
<text text-anchor="middle" x="46" y="-134.9" font-family="Helvetica,sans-Serif" font-size="7.00">ShowPackageBox</text>
<polyline fill="none" stroke="black" points="0,-128.5 92,-128.5 "/>
<text text-anchor="middle" x="46" y="-118.9" font-family="Helvetica,sans-Serif" font-size="7.00"> </text>
<polyline fill="none" stroke="black" points="0,-112.5 92,-112.5 "/>
<text text-anchor="start" x="8" y="-102.9" font-family="Helvetica,sans-Serif" font-size="7.00">+ ShowPackageBox()</text>
<text text-anchor="start" x="8" y="-94.9" font-family="Helvetica,sans-Serif" font-size="7.00">+ SetShowWidgets()</text>
<text text-anchor="start" x="8" y="-86.9" font-family="Helvetica,sans-Serif" font-size="7.00">+ ResetAttribut()</text>
<text text-anchor="start" x="8" y="-78.9" font-family="Helvetica,sans-Serif" font-size="7.00">+ ~ShowPackageBox()</text>
<text text-anchor="start" x="8" y="-70.9" font-family="Helvetica,sans-Serif" font-size="7.00">+ isCloseDoors()</text>
<text text-anchor="start" x="8" y="-62.9" font-family="Helvetica,sans-Serif" font-size="7.00">+ retranslateUi()</text>
<text text-anchor="start" x="8" y="-54.9" font-family="Helvetica,sans-Serif" font-size="7.00">+ ManageListBox()</text>
<text text-anchor="start" x="8" y="-46.9" font-family="Helvetica,sans-Serif" font-size="7.00">+ ReturnHome()</text>
<text text-anchor="start" x="8" y="-38.9" font-family="Helvetica,sans-Serif" font-size="7.00">+ ReceiveCode()</text>
<text text-anchor="start" x="8" y="-30.9" font-family="Helvetica,sans-Serif" font-size="7.00">+ TermitedThreadCode()</text>
<text text-anchor="start" x="8" y="-22.9" font-family="Helvetica,sans-Serif" font-size="7.00">+ isNumBoxExist()</text>
<text text-anchor="start" x="8" y="-14.9" font-family="Helvetica,sans-Serif" font-size="7.00">+ OpenDoor()</text>
<text text-anchor="start" x="8" y="-6.9" font-family="Helvetica,sans-Serif" font-size="7.00">+ StatusDoors()</text>
</g>
<!-- Node2 -->
<g id="node2" class="node"><title>Node2</title>
<polygon fill="none" stroke="#bfbfbf" points="24,-181.5 24,-229.5 68,-229.5 68,-181.5 24,-181.5"/>
<text text-anchor="middle" x="46" y="-219.9" font-family="Helvetica,sans-Serif" font-size="7.00">QWidget</text>
<polyline fill="none" stroke="#bfbfbf" points="24,-213.5 68,-213.5 "/>
<text text-anchor="middle" x="46" y="-203.9" font-family="Helvetica,sans-Serif" font-size="7.00"> </text>
<polyline fill="none" stroke="#bfbfbf" points="24,-197.5 68,-197.5 "/>
<text text-anchor="middle" x="46" y="-187.9" font-family="Helvetica,sans-Serif" font-size="7.00"> </text>
</g>
<!-- Node2&#45;&gt;Node1 -->
<g id="edge1" class="edge"><title>Node2&#45;&gt;Node1</title>
<path fill="none" stroke="midnightblue" d="M46,-171.21C46,-163.035 46,-153.968 46,-144.749"/>
<polygon fill="none" stroke="midnightblue" points="42.5001,-171.381 46,-181.381 49.5001,-171.381 42.5001,-171.381"/>
</g>
</g>
</svg>
