<?xml version="1.0" encoding="UTF-8" standalone="no"?>
<!DOCTYPE svg PUBLIC "-//W3C//DTD SVG 1.1//EN"
 "http://www.w3.org/Graphics/SVG/1.1/DTD/svg11.dtd">
<!-- Generated by graphviz version 2.38.0 (20140413.2041)
 -->
<!-- Title: Thread_linphonec Pages: 1 -->
<svg width="93pt" height="174pt"
 viewBox="0.00 0.00 93.00 174.00" xmlns="http://www.w3.org/2000/svg" xmlns:xlink="http://www.w3.org/1999/xlink">
<g id="graph0" class="graph" transform="scale(1 1) rotate(0) translate(4 170)">
<title>Thread_linphonec</title>
<!-- Node1 -->
<g id="node1" class="node"><title>Node1</title>
<polygon fill="#bfbfbf" stroke="black" points="0,-0.5 0,-80.5 85,-80.5 85,-0.5 0,-0.5"/>
<text text-anchor="middle" x="42.5" y="-70.9" font-family="Helvetica,sans-Serif" font-size="7.00">Thread_linphonec</text>
<polyline fill="none" stroke="black" points="0,-64.5 85,-64.5 "/>
<text text-anchor="middle" x="42.5" y="-54.9" font-family="Helvetica,sans-Serif" font-size="7.00"> </text>
<polyline fill="none" stroke="black" points="0,-48.5 85,-48.5 "/>
<text text-anchor="start" x="8" y="-38.9" font-family="Helvetica,sans-Serif" font-size="7.00">+ Thread_linphonec()</text>
<text text-anchor="start" x="8" y="-30.9" font-family="Helvetica,sans-Serif" font-size="7.00">+ ~Thread_linphonec()</text>
<text text-anchor="start" x="8" y="-22.9" font-family="Helvetica,sans-Serif" font-size="7.00">+ run()</text>
<text text-anchor="start" x="8" y="-14.9" font-family="Helvetica,sans-Serif" font-size="7.00">+ startThread()</text>
<text text-anchor="start" x="8" y="-6.9" font-family="Helvetica,sans-Serif" font-size="7.00">+ EndThread()</text>
</g>
<!-- Node2 -->
<g id="node2" class="node"><title>Node2</title>
<polygon fill="none" stroke="#bfbfbf" points="21,-117.5 21,-165.5 64,-165.5 64,-117.5 21,-117.5"/>
<text text-anchor="middle" x="42.5" y="-155.9" font-family="Helvetica,sans-Serif" font-size="7.00">QThread</text>
<polyline fill="none" stroke="#bfbfbf" points="21,-149.5 64,-149.5 "/>
<text text-anchor="middle" x="42.5" y="-139.9" font-family="Helvetica,sans-Serif" font-size="7.00"> </text>
<polyline fill="none" stroke="#bfbfbf" points="21,-133.5 64,-133.5 "/>
<text text-anchor="middle" x="42.5" y="-123.9" font-family="Helvetica,sans-Serif" font-size="7.00"> </text>
</g>
<!-- Node2&#45;&gt;Node1 -->
<g id="edge1" class="edge"><title>Node2&#45;&gt;Node1</title>
<path fill="none" stroke="midnightblue" d="M42.5,-107.074C42.5,-98.6488 42.5,-89.5261 42.5,-80.8396"/>
<polygon fill="none" stroke="midnightblue" points="39.0001,-107.289 42.5,-117.289 46.0001,-107.289 39.0001,-107.289"/>
</g>
</g>
</svg>
