<?xml version="1.0" encoding="UTF-8" standalone="no"?>
<!DOCTYPE svg PUBLIC "-//W3C//DTD SVG 1.1//EN"
 "http://www.w3.org/Graphics/SVG/1.1/DTD/svg11.dtd">
<!-- Generated by graphviz version 2.38.0 (20140413.2041)
 -->
<!-- Title: ConsoleWindows Pages: 1 -->
<svg width="100pt" height="206pt"
 viewBox="0.00 0.00 100.00 206.00" xmlns="http://www.w3.org/2000/svg" xmlns:xlink="http://www.w3.org/1999/xlink">
<g id="graph0" class="graph" transform="scale(1 1) rotate(0) translate(4 202)">
<title>ConsoleWindows</title>
<!-- Node1 -->
<g id="node1" class="node"><title>Node1</title>
<polygon fill="#bfbfbf" stroke="black" points="0,-0.5 0,-112.5 92,-112.5 92,-0.5 0,-0.5"/>
<text text-anchor="middle" x="46" y="-102.9" font-family="Helvetica,sans-Serif" font-size="7.00">ConsoleWindows</text>
<polyline fill="none" stroke="black" points="0,-96.5 92,-96.5 "/>
<text text-anchor="middle" x="46" y="-86.9" font-family="Helvetica,sans-Serif" font-size="7.00"> </text>
<polyline fill="none" stroke="black" points="0,-80.5 92,-80.5 "/>
<text text-anchor="start" x="8" y="-70.9" font-family="Helvetica,sans-Serif" font-size="7.00">+ ConsoleWindows()</text>
<text text-anchor="start" x="8" y="-62.9" font-family="Helvetica,sans-Serif" font-size="7.00">+ Initialization_Widgets()</text>
<text text-anchor="start" x="8" y="-54.9" font-family="Helvetica,sans-Serif" font-size="7.00">+ Init_Show_Widgets()</text>
<text text-anchor="start" x="8" y="-46.9" font-family="Helvetica,sans-Serif" font-size="7.00">+ eventFilter()</text>
<text text-anchor="start" x="8" y="-38.9" font-family="Helvetica,sans-Serif" font-size="7.00">+ changeEvent()</text>
<text text-anchor="start" x="8" y="-30.9" font-family="Helvetica,sans-Serif" font-size="7.00">+ ~ConsoleWindows()</text>
<text text-anchor="start" x="8" y="-22.9" font-family="Helvetica,sans-Serif" font-size="7.00">+ Show_WConsole()</text>
<text text-anchor="start" x="8" y="-14.9" font-family="Helvetica,sans-Serif" font-size="7.00">+ SelectPays()</text>
<text text-anchor="start" x="8" y="-6.9" font-family="Helvetica,sans-Serif" font-size="7.00">+ EndBuild_Database()</text>
</g>
<!-- Node2 -->
<g id="node2" class="node"><title>Node2</title>
<polygon fill="none" stroke="#bfbfbf" points="16,-149.5 16,-197.5 76,-197.5 76,-149.5 16,-149.5"/>
<text text-anchor="middle" x="46" y="-187.9" font-family="Helvetica,sans-Serif" font-size="7.00">QMainWindow</text>
<polyline fill="none" stroke="#bfbfbf" points="16,-181.5 76,-181.5 "/>
<text text-anchor="middle" x="46" y="-171.9" font-family="Helvetica,sans-Serif" font-size="7.00"> </text>
<polyline fill="none" stroke="#bfbfbf" points="16,-165.5 76,-165.5 "/>
<text text-anchor="middle" x="46" y="-155.9" font-family="Helvetica,sans-Serif" font-size="7.00"> </text>
</g>
<!-- Node2&#45;&gt;Node1 -->
<g id="edge1" class="edge"><title>Node2&#45;&gt;Node1</title>
<path fill="none" stroke="midnightblue" d="M46,-139.178C46,-130.84 46,-121.672 46,-112.584"/>
<polygon fill="none" stroke="midnightblue" points="42.5001,-139.228 46,-149.228 49.5001,-139.228 42.5001,-139.228"/>
</g>
</g>
</svg>
