<?xml version="1.0" encoding="UTF-8" standalone="no"?>
<!DOCTYPE svg PUBLIC "-//W3C//DTD SVG 1.1//EN"
 "http://www.w3.org/Graphics/SVG/1.1/DTD/svg11.dtd">
<!-- Generated by graphviz version 2.38.0 (20140413.2041)
 -->
<!-- Title: SQLite_Local_DatabaseManager Pages: 1 -->
<svg width="140pt" height="238pt"
 viewBox="0.00 0.00 140.00 238.00" xmlns="http://www.w3.org/2000/svg" xmlns:xlink="http://www.w3.org/1999/xlink">
<g id="graph0" class="graph" transform="scale(1 1) rotate(0) translate(4 234)">
<title>SQLite_Local_DatabaseManager</title>
<!-- Node1 -->
<g id="node1" class="node"><title>Node1</title>
<polygon fill="#bfbfbf" stroke="black" points="0,-0.5 0,-144.5 132,-144.5 132,-0.5 0,-0.5"/>
<text text-anchor="middle" x="66" y="-134.9" font-family="Helvetica,sans-Serif" font-size="7.00">SQLite_Local_DatabaseManager</text>
<polyline fill="none" stroke="black" points="0,-128.5 132,-128.5 "/>
<text text-anchor="middle" x="66" y="-118.9" font-family="Helvetica,sans-Serif" font-size="7.00"> </text>
<polyline fill="none" stroke="black" points="0,-112.5 132,-112.5 "/>
<text text-anchor="start" x="8" y="-102.9" font-family="Helvetica,sans-Serif" font-size="7.00">+ SQLite_Local_DatabaseManager()</text>
<text text-anchor="start" x="8" y="-94.9" font-family="Helvetica,sans-Serif" font-size="7.00">+ SetShowWidgets()</text>
<text text-anchor="start" x="8" y="-86.9" font-family="Helvetica,sans-Serif" font-size="7.00">+ ~SQLite_Local_DatabaseManager()</text>
<text text-anchor="start" x="8" y="-78.9" font-family="Helvetica,sans-Serif" font-size="7.00">+ ReturnHome()</text>
<text text-anchor="start" x="8" y="-70.9" font-family="Helvetica,sans-Serif" font-size="7.00">+ ReturnMaintenanceMenu()</text>
<text text-anchor="start" x="8" y="-62.9" font-family="Helvetica,sans-Serif" font-size="7.00">+ ReturnDB_Manager()</text>
<text text-anchor="start" x="8" y="-54.9" font-family="Helvetica,sans-Serif" font-size="7.00">+ Update_Confirm()</text>
<text text-anchor="start" x="8" y="-46.9" font-family="Helvetica,sans-Serif" font-size="7.00">+ Build_EmptyDB()</text>
<text text-anchor="start" x="8" y="-38.9" font-family="Helvetica,sans-Serif" font-size="7.00">+ Build_DefaultDB()</text>
<text text-anchor="start" x="8" y="-30.9" font-family="Helvetica,sans-Serif" font-size="7.00">+ Build_LastSaveDB()</text>
<text text-anchor="start" x="8" y="-22.9" font-family="Helvetica,sans-Serif" font-size="7.00">+ SaveDB()</text>
<text text-anchor="start" x="8" y="-14.9" font-family="Helvetica,sans-Serif" font-size="7.00">+ SetStatusLoading()</text>
<text text-anchor="start" x="8" y="-6.9" font-family="Helvetica,sans-Serif" font-size="7.00">+ Run_DB_Manager()</text>
</g>
<!-- Node2 -->
<g id="node2" class="node"><title>Node2</title>
<polygon fill="none" stroke="#bfbfbf" points="44,-181.5 44,-229.5 88,-229.5 88,-181.5 44,-181.5"/>
<text text-anchor="middle" x="66" y="-219.9" font-family="Helvetica,sans-Serif" font-size="7.00">QWidget</text>
<polyline fill="none" stroke="#bfbfbf" points="44,-213.5 88,-213.5 "/>
<text text-anchor="middle" x="66" y="-203.9" font-family="Helvetica,sans-Serif" font-size="7.00"> </text>
<polyline fill="none" stroke="#bfbfbf" points="44,-197.5 88,-197.5 "/>
<text text-anchor="middle" x="66" y="-187.9" font-family="Helvetica,sans-Serif" font-size="7.00"> </text>
</g>
<!-- Node2&#45;&gt;Node1 -->
<g id="edge1" class="edge"><title>Node2&#45;&gt;Node1</title>
<path fill="none" stroke="midnightblue" d="M66,-171.21C66,-163.035 66,-153.968 66,-144.749"/>
<polygon fill="none" stroke="midnightblue" points="62.5001,-171.381 66,-181.381 69.5001,-171.381 62.5001,-171.381"/>
</g>
</g>
</svg>
