<?xml version="1.0" encoding="UTF-8" standalone="no"?>
<!DOCTYPE svg PUBLIC "-//W3C//DTD SVG 1.1//EN"
 "http://www.w3.org/Graphics/SVG/1.1/DTD/svg11.dtd">
<!-- Generated by graphviz version 2.38.0 (20140413.2041)
 -->
<!-- Title: MaintenanceMenu Pages: 1 -->
<svg width="121pt" height="206pt"
 viewBox="0.00 0.00 121.00 206.00" xmlns="http://www.w3.org/2000/svg" xmlns:xlink="http://www.w3.org/1999/xlink">
<g id="graph0" class="graph" transform="scale(1 1) rotate(0) translate(4 202)">
<title>MaintenanceMenu</title>
<!-- Node1 -->
<g id="node1" class="node"><title>Node1</title>
<polygon fill="#bfbfbf" stroke="black" points="0,-0.5 0,-112.5 113,-112.5 113,-0.5 0,-0.5"/>
<text text-anchor="middle" x="56.5" y="-102.9" font-family="Helvetica,sans-Serif" font-size="7.00">MaintenanceMenu</text>
<polyline fill="none" stroke="black" points="0,-96.5 113,-96.5 "/>
<text text-anchor="middle" x="56.5" y="-86.9" font-family="Helvetica,sans-Serif" font-size="7.00"> </text>
<polyline fill="none" stroke="black" points="0,-80.5 113,-80.5 "/>
<text text-anchor="start" x="8" y="-70.9" font-family="Helvetica,sans-Serif" font-size="7.00">+ MaintenanceMenu()</text>
<text text-anchor="start" x="8" y="-62.9" font-family="Helvetica,sans-Serif" font-size="7.00">+ SetShowWidgets()</text>
<text text-anchor="start" x="8" y="-54.9" font-family="Helvetica,sans-Serif" font-size="7.00">+ ~MaintenanceMenu()</text>
<text text-anchor="start" x="8" y="-46.9" font-family="Helvetica,sans-Serif" font-size="7.00">+ ReturnHome()</text>
<text text-anchor="start" x="8" y="-38.9" font-family="Helvetica,sans-Serif" font-size="7.00">+ GotoSQLite_Local_Database</text>
<text text-anchor="start" x="8" y="-30.9" font-family="Helvetica,sans-Serif" font-size="7.00">Manager()</text>
<text text-anchor="start" x="8" y="-22.9" font-family="Helvetica,sans-Serif" font-size="7.00">+ GotoDoorsManager()</text>
<text text-anchor="start" x="8" y="-14.9" font-family="Helvetica,sans-Serif" font-size="7.00">+ GotoSettings()</text>
<text text-anchor="start" x="8" y="-6.9" font-family="Helvetica,sans-Serif" font-size="7.00">+ GotoSiteConfigManager()</text>
</g>
<!-- Node2 -->
<g id="node2" class="node"><title>Node2</title>
<polygon fill="none" stroke="#bfbfbf" points="34.5,-149.5 34.5,-197.5 78.5,-197.5 78.5,-149.5 34.5,-149.5"/>
<text text-anchor="middle" x="56.5" y="-187.9" font-family="Helvetica,sans-Serif" font-size="7.00">QWidget</text>
<polyline fill="none" stroke="#bfbfbf" points="34.5,-181.5 78.5,-181.5 "/>
<text text-anchor="middle" x="56.5" y="-171.9" font-family="Helvetica,sans-Serif" font-size="7.00"> </text>
<polyline fill="none" stroke="#bfbfbf" points="34.5,-165.5 78.5,-165.5 "/>
<text text-anchor="middle" x="56.5" y="-155.9" font-family="Helvetica,sans-Serif" font-size="7.00"> </text>
</g>
<!-- Node2&#45;&gt;Node1 -->
<g id="edge1" class="edge"><title>Node2&#45;&gt;Node1</title>
<path fill="none" stroke="midnightblue" d="M56.5,-139.178C56.5,-130.84 56.5,-121.672 56.5,-112.584"/>
<polygon fill="none" stroke="midnightblue" points="53.0001,-139.228 56.5,-149.228 60.0001,-139.228 53.0001,-139.228"/>
</g>
</g>
</svg>
