<?xml version="1.0" encoding="UTF-8" standalone="no"?>
<!DOCTYPE svg PUBLIC "-//W3C//DTD SVG 1.1//EN"
 "http://www.w3.org/Graphics/SVG/1.1/DTD/svg11.dtd">
<!-- Generated by graphviz version 2.38.0 (20140413.2041)
 -->
<!-- Title: ThreadSaveDelivery Pages: 1 -->
<svg width="105pt" height="198pt"
 viewBox="0.00 0.00 105.00 198.00" xmlns="http://www.w3.org/2000/svg" xmlns:xlink="http://www.w3.org/1999/xlink">
<g id="graph0" class="graph" transform="scale(1 1) rotate(0) translate(4 194)">
<title>ThreadSaveDelivery</title>
<!-- Node1 -->
<g id="node1" class="node"><title>Node1</title>
<polygon fill="#bfbfbf" stroke="black" points="0,-0.5 0,-104.5 97,-104.5 97,-0.5 0,-0.5"/>
<text text-anchor="middle" x="48.5" y="-94.9" font-family="Helvetica,sans-Serif" font-size="7.00">ThreadSaveDelivery</text>
<polyline fill="none" stroke="black" points="0,-88.5 97,-88.5 "/>
<text text-anchor="middle" x="48.5" y="-78.9" font-family="Helvetica,sans-Serif" font-size="7.00"> </text>
<polyline fill="none" stroke="black" points="0,-72.5 97,-72.5 "/>
<text text-anchor="start" x="8" y="-62.9" font-family="Helvetica,sans-Serif" font-size="7.00">+ ThreadSaveDelivery()</text>
<text text-anchor="start" x="8" y="-54.9" font-family="Helvetica,sans-Serif" font-size="7.00">+ ~ThreadSaveDelivery()</text>
<text text-anchor="start" x="8" y="-46.9" font-family="Helvetica,sans-Serif" font-size="7.00">+ run()</text>
<text text-anchor="start" x="8" y="-38.9" font-family="Helvetica,sans-Serif" font-size="7.00">+ SaveListpackagetemp()</text>
<text text-anchor="start" x="8" y="-30.9" font-family="Helvetica,sans-Serif" font-size="7.00">+ SaveListPackage()</text>
<text text-anchor="start" x="8" y="-22.9" font-family="Helvetica,sans-Serif" font-size="7.00">+ UpdateSaveTempFile()</text>
<text text-anchor="start" x="8" y="-14.9" font-family="Helvetica,sans-Serif" font-size="7.00">+ startThread()</text>
<text text-anchor="start" x="8" y="-6.9" font-family="Helvetica,sans-Serif" font-size="7.00">+ startThread()</text>
</g>
<!-- Node2 -->
<g id="node2" class="node"><title>Node2</title>
<polygon fill="none" stroke="#bfbfbf" points="27,-141.5 27,-189.5 70,-189.5 70,-141.5 27,-141.5"/>
<text text-anchor="middle" x="48.5" y="-179.9" font-family="Helvetica,sans-Serif" font-size="7.00">QThread</text>
<polyline fill="none" stroke="#bfbfbf" points="27,-173.5 70,-173.5 "/>
<text text-anchor="middle" x="48.5" y="-163.9" font-family="Helvetica,sans-Serif" font-size="7.00"> </text>
<polyline fill="none" stroke="#bfbfbf" points="27,-157.5 70,-157.5 "/>
<text text-anchor="middle" x="48.5" y="-147.9" font-family="Helvetica,sans-Serif" font-size="7.00"> </text>
</g>
<!-- Node2&#45;&gt;Node1 -->
<g id="edge1" class="edge"><title>Node2&#45;&gt;Node1</title>
<path fill="none" stroke="midnightblue" d="M48.5,-131.146C48.5,-122.79 48.5,-113.632 48.5,-104.629"/>
<polygon fill="none" stroke="midnightblue" points="45.0001,-131.231 48.5,-141.231 52.0001,-131.231 45.0001,-131.231"/>
</g>
</g>
</svg>
