<?xml version="1.0" encoding="UTF-8" standalone="no"?>
<!DOCTYPE svg PUBLIC "-//W3C//DTD SVG 1.1//EN"
 "http://www.w3.org/Graphics/SVG/1.1/DTD/svg11.dtd">
<!-- Generated by graphviz version 2.38.0 (20140413.2041)
 -->
<!-- Title: BoxChoice Pages: 1 -->
<svg width="97pt" height="246pt"
 viewBox="0.00 0.00 97.00 246.00" xmlns="http://www.w3.org/2000/svg" xmlns:xlink="http://www.w3.org/1999/xlink">
<g id="graph0" class="graph" transform="scale(1 1) rotate(0) translate(4 242)">
<title>BoxChoice</title>
<!-- Node1 -->
<g id="node1" class="node"><title>Node1</title>
<polygon fill="#bfbfbf" stroke="black" points="0,-0.5 0,-152.5 89,-152.5 89,-0.5 0,-0.5"/>
<text text-anchor="middle" x="44.5" y="-142.9" font-family="Helvetica,sans-Serif" font-size="7.00">BoxChoice</text>
<polyline fill="none" stroke="black" points="0,-136.5 89,-136.5 "/>
<text text-anchor="middle" x="44.5" y="-126.9" font-family="Helvetica,sans-Serif" font-size="7.00"> </text>
<polyline fill="none" stroke="black" points="0,-120.5 89,-120.5 "/>
<text text-anchor="start" x="8" y="-110.9" font-family="Helvetica,sans-Serif" font-size="7.00">+ BoxChoice()</text>
<text text-anchor="start" x="8" y="-102.9" font-family="Helvetica,sans-Serif" font-size="7.00">+ ~BoxChoice()</text>
<text text-anchor="start" x="8" y="-94.9" font-family="Helvetica,sans-Serif" font-size="7.00">+ SetShowWidgets()</text>
<text text-anchor="start" x="8" y="-86.9" font-family="Helvetica,sans-Serif" font-size="7.00">+ GetGraphicsView()</text>
<text text-anchor="start" x="8" y="-78.9" font-family="Helvetica,sans-Serif" font-size="7.00">+ GetScene()</text>
<text text-anchor="start" x="8" y="-70.9" font-family="Helvetica,sans-Serif" font-size="7.00">+ GetBoxSelected()</text>
<text text-anchor="start" x="8" y="-62.9" font-family="Helvetica,sans-Serif" font-size="7.00">+ retranslateUi()</text>
<text text-anchor="start" x="8" y="-54.9" font-family="Helvetica,sans-Serif" font-size="7.00">+ setDoorUnvailable()</text>
<text text-anchor="start" x="8" y="-46.9" font-family="Helvetica,sans-Serif" font-size="7.00">+ setDoorNoChecked()</text>
<text text-anchor="start" x="8" y="-38.9" font-family="Helvetica,sans-Serif" font-size="7.00">+ setDoorAvailable()</text>
<text text-anchor="start" x="8" y="-30.9" font-family="Helvetica,sans-Serif" font-size="7.00">+ setDoorChecked()</text>
<text text-anchor="start" x="8" y="-22.9" font-family="Helvetica,sans-Serif" font-size="7.00">+ ShowMessageError()</text>
<text text-anchor="start" x="8" y="-14.9" font-family="Helvetica,sans-Serif" font-size="7.00">+ manageRect()</text>
<text text-anchor="start" x="8" y="-6.9" font-family="Helvetica,sans-Serif" font-size="7.00">+ Refresh()</text>
</g>
<!-- Node2 -->
<g id="node2" class="node"><title>Node2</title>
<polygon fill="none" stroke="#bfbfbf" points="22.5,-189.5 22.5,-237.5 66.5,-237.5 66.5,-189.5 22.5,-189.5"/>
<text text-anchor="middle" x="44.5" y="-227.9" font-family="Helvetica,sans-Serif" font-size="7.00">QWidget</text>
<polyline fill="none" stroke="#bfbfbf" points="22.5,-221.5 66.5,-221.5 "/>
<text text-anchor="middle" x="44.5" y="-211.9" font-family="Helvetica,sans-Serif" font-size="7.00"> </text>
<polyline fill="none" stroke="#bfbfbf" points="22.5,-205.5 66.5,-205.5 "/>
<text text-anchor="middle" x="44.5" y="-195.9" font-family="Helvetica,sans-Serif" font-size="7.00"> </text>
</g>
<!-- Node2&#45;&gt;Node1 -->
<g id="edge1" class="edge"><title>Node2&#45;&gt;Node1</title>
<path fill="none" stroke="midnightblue" d="M44.5,-179.143C44.5,-170.981 44.5,-161.914 44.5,-152.653"/>
<polygon fill="none" stroke="midnightblue" points="41.0001,-179.293 44.5,-189.293 48.0001,-179.293 41.0001,-179.293"/>
</g>
</g>
</svg>
