<?xml version="1.0" encoding="UTF-8" standalone="no"?>
<!DOCTYPE svg PUBLIC "-//W3C//DTD SVG 1.1//EN"
 "http://www.w3.org/Graphics/SVG/1.1/DTD/svg11.dtd">
<!-- Generated by graphviz version 2.38.0 (20140413.2041)
 -->
<!-- Title: SiteConfigManager Pages: 1 -->
<svg width="98pt" height="158pt"
 viewBox="0.00 0.00 98.00 158.00" xmlns="http://www.w3.org/2000/svg" xmlns:xlink="http://www.w3.org/1999/xlink">
<g id="graph0" class="graph" transform="scale(1 1) rotate(0) translate(4 154)">
<title>SiteConfigManager</title>
<!-- Node1 -->
<g id="node1" class="node"><title>Node1</title>
<polygon fill="#bfbfbf" stroke="black" points="0,-0.5 0,-64.5 90,-64.5 90,-0.5 0,-0.5"/>
<text text-anchor="middle" x="45" y="-54.9" font-family="Helvetica,sans-Serif" font-size="7.00">SiteConfigManager</text>
<polyline fill="none" stroke="black" points="0,-48.5 90,-48.5 "/>
<text text-anchor="middle" x="45" y="-38.9" font-family="Helvetica,sans-Serif" font-size="7.00"> </text>
<polyline fill="none" stroke="black" points="0,-32.5 90,-32.5 "/>
<text text-anchor="start" x="8" y="-22.9" font-family="Helvetica,sans-Serif" font-size="7.00">+ SiteConfigManager()</text>
<text text-anchor="start" x="8" y="-14.9" font-family="Helvetica,sans-Serif" font-size="7.00">+ SetShowWidgets()</text>
<text text-anchor="start" x="8" y="-6.9" font-family="Helvetica,sans-Serif" font-size="7.00">+ ~SiteConfigManager()</text>
</g>
<!-- Node2 -->
<g id="node2" class="node"><title>Node2</title>
<polygon fill="none" stroke="#bfbfbf" points="23,-101.5 23,-149.5 67,-149.5 67,-101.5 23,-101.5"/>
<text text-anchor="middle" x="45" y="-139.9" font-family="Helvetica,sans-Serif" font-size="7.00">QWidget</text>
<polyline fill="none" stroke="#bfbfbf" points="23,-133.5 67,-133.5 "/>
<text text-anchor="middle" x="45" y="-123.9" font-family="Helvetica,sans-Serif" font-size="7.00"> </text>
<polyline fill="none" stroke="#bfbfbf" points="23,-117.5 67,-117.5 "/>
<text text-anchor="middle" x="45" y="-107.9" font-family="Helvetica,sans-Serif" font-size="7.00"> </text>
</g>
<!-- Node2&#45;&gt;Node1 -->
<g id="edge1" class="edge"><title>Node2&#45;&gt;Node1</title>
<path fill="none" stroke="midnightblue" d="M45,-90.9903C45,-82.4073 45,-73.2114 45,-64.7474"/>
<polygon fill="none" stroke="midnightblue" points="41.5001,-91.0652 45,-101.065 48.5001,-91.0653 41.5001,-91.0652"/>
</g>
</g>
</svg>
