<?xml version="1.0" encoding="UTF-8" standalone="no"?>
<!DOCTYPE svg PUBLIC "-//W3C//DTD SVG 1.1//EN"
 "http://www.w3.org/Graphics/SVG/1.1/DTD/svg11.dtd">
<!-- Generated by graphviz version 2.38.0 (20140413.2041)
 -->
<!-- Title: DeliveryConfirm Pages: 1 -->
<svg width="112pt" height="214pt"
 viewBox="0.00 0.00 112.00 214.00" xmlns="http://www.w3.org/2000/svg" xmlns:xlink="http://www.w3.org/1999/xlink">
<g id="graph0" class="graph" transform="scale(1 1) rotate(0) translate(4 210)">
<title>DeliveryConfirm</title>
<!-- Node1 -->
<g id="node1" class="node"><title>Node1</title>
<polygon fill="#bfbfbf" stroke="black" points="0,-0.5 0,-120.5 104,-120.5 104,-0.5 0,-0.5"/>
<text text-anchor="middle" x="52" y="-110.9" font-family="Helvetica,sans-Serif" font-size="7.00">DeliveryConfirm</text>
<polyline fill="none" stroke="black" points="0,-104.5 104,-104.5 "/>
<text text-anchor="middle" x="52" y="-94.9" font-family="Helvetica,sans-Serif" font-size="7.00"> </text>
<polyline fill="none" stroke="black" points="0,-88.5 104,-88.5 "/>
<text text-anchor="start" x="8" y="-78.9" font-family="Helvetica,sans-Serif" font-size="7.00">+ DeliveryConfirm()</text>
<text text-anchor="start" x="8" y="-70.9" font-family="Helvetica,sans-Serif" font-size="7.00">+ SetShowWidgets()</text>
<text text-anchor="start" x="8" y="-62.9" font-family="Helvetica,sans-Serif" font-size="7.00">+ SaveDelivery()</text>
<text text-anchor="start" x="8" y="-54.9" font-family="Helvetica,sans-Serif" font-size="7.00">+ ~DeliveryConfirm()</text>
<text text-anchor="start" x="8" y="-46.9" font-family="Helvetica,sans-Serif" font-size="7.00">+ retranslateUi()</text>
<text text-anchor="start" x="8" y="-38.9" font-family="Helvetica,sans-Serif" font-size="7.00">+ NewDelivery()</text>
<text text-anchor="start" x="8" y="-30.9" font-family="Helvetica,sans-Serif" font-size="7.00">+ FinishDelivery()</text>
<text text-anchor="start" x="8" y="-22.9" font-family="Helvetica,sans-Serif" font-size="7.00">+ ReceiveListPackageBox()</text>
<text text-anchor="start" x="8" y="-14.9" font-family="Helvetica,sans-Serif" font-size="7.00">+ SetValueProgress()</text>
<text text-anchor="start" x="8" y="-6.9" font-family="Helvetica,sans-Serif" font-size="7.00">+ ThreadFinished()</text>
</g>
<!-- Node2 -->
<g id="node2" class="node"><title>Node2</title>
<polygon fill="none" stroke="#bfbfbf" points="30,-157.5 30,-205.5 74,-205.5 74,-157.5 30,-157.5"/>
<text text-anchor="middle" x="52" y="-195.9" font-family="Helvetica,sans-Serif" font-size="7.00">QWidget</text>
<polyline fill="none" stroke="#bfbfbf" points="30,-189.5 74,-189.5 "/>
<text text-anchor="middle" x="52" y="-179.9" font-family="Helvetica,sans-Serif" font-size="7.00"> </text>
<polyline fill="none" stroke="#bfbfbf" points="30,-173.5 74,-173.5 "/>
<text text-anchor="middle" x="52" y="-163.9" font-family="Helvetica,sans-Serif" font-size="7.00"> </text>
</g>
<!-- Node2&#45;&gt;Node1 -->
<g id="edge1" class="edge"><title>Node2&#45;&gt;Node1</title>
<path fill="none" stroke="midnightblue" d="M52,-147.013C52,-138.793 52,-129.749 52,-120.714"/>
<polygon fill="none" stroke="midnightblue" points="48.5001,-147.273 52,-157.273 55.5001,-147.273 48.5001,-147.273"/>
</g>
</g>
</svg>
