<?xml version="1.0" encoding="UTF-8" standalone="no"?>
<!DOCTYPE svg PUBLIC "-//W3C//DTD SVG 1.1//EN"
 "http://www.w3.org/Graphics/SVG/1.1/DTD/svg11.dtd">
<!-- Generated by graphviz version 2.38.0 (20140413.2041)
 -->
<!-- Title: Login Pages: 1 -->
<svg width="88pt" height="198pt"
 viewBox="0.00 0.00 88.00 198.00" xmlns="http://www.w3.org/2000/svg" xmlns:xlink="http://www.w3.org/1999/xlink">
<g id="graph0" class="graph" transform="scale(1 1) rotate(0) translate(4 194)">
<title>Login</title>
<!-- Node1 -->
<g id="node1" class="node"><title>Node1</title>
<polygon fill="#bfbfbf" stroke="black" points="0,-0.5 0,-104.5 80,-104.5 80,-0.5 0,-0.5"/>
<text text-anchor="middle" x="40" y="-94.9" font-family="Helvetica,sans-Serif" font-size="7.00">Login</text>
<polyline fill="none" stroke="black" points="0,-88.5 80,-88.5 "/>
<text text-anchor="middle" x="40" y="-78.9" font-family="Helvetica,sans-Serif" font-size="7.00"> </text>
<polyline fill="none" stroke="black" points="0,-72.5 80,-72.5 "/>
<text text-anchor="start" x="8" y="-62.9" font-family="Helvetica,sans-Serif" font-size="7.00">+ Login()</text>
<text text-anchor="start" x="8" y="-54.9" font-family="Helvetica,sans-Serif" font-size="7.00">+ SetShowWidgets()</text>
<text text-anchor="start" x="8" y="-46.9" font-family="Helvetica,sans-Serif" font-size="7.00">+ eventFilter()</text>
<text text-anchor="start" x="8" y="-38.9" font-family="Helvetica,sans-Serif" font-size="7.00">+ ~Login()</text>
<text text-anchor="start" x="8" y="-30.9" font-family="Helvetica,sans-Serif" font-size="7.00">+ retranslateUi()</text>
<text text-anchor="start" x="8" y="-22.9" font-family="Helvetica,sans-Serif" font-size="7.00">+ Cancel()</text>
<text text-anchor="start" x="8" y="-14.9" font-family="Helvetica,sans-Serif" font-size="7.00">+ ValidLogin()</text>
<text text-anchor="start" x="8" y="-6.9" font-family="Helvetica,sans-Serif" font-size="7.00">+ Reset()</text>
</g>
<!-- Node2 -->
<g id="node2" class="node"><title>Node2</title>
<polygon fill="none" stroke="#bfbfbf" points="18,-141.5 18,-189.5 62,-189.5 62,-141.5 18,-141.5"/>
<text text-anchor="middle" x="40" y="-179.9" font-family="Helvetica,sans-Serif" font-size="7.00">QWidget</text>
<polyline fill="none" stroke="#bfbfbf" points="18,-173.5 62,-173.5 "/>
<text text-anchor="middle" x="40" y="-163.9" font-family="Helvetica,sans-Serif" font-size="7.00"> </text>
<polyline fill="none" stroke="#bfbfbf" points="18,-157.5 62,-157.5 "/>
<text text-anchor="middle" x="40" y="-147.9" font-family="Helvetica,sans-Serif" font-size="7.00"> </text>
</g>
<!-- Node2&#45;&gt;Node1 -->
<g id="edge1" class="edge"><title>Node2&#45;&gt;Node1</title>
<path fill="none" stroke="midnightblue" d="M40,-131.146C40,-122.79 40,-113.632 40,-104.629"/>
<polygon fill="none" stroke="midnightblue" points="36.5001,-131.231 40,-141.231 43.5001,-131.231 36.5001,-131.231"/>
</g>
</g>
</svg>
