<?xml version="1.0" encoding="UTF-8" standalone="no"?>
<!DOCTYPE svg PUBLIC "-//W3C//DTD SVG 1.1//EN"
 "http://www.w3.org/Graphics/SVG/1.1/DTD/svg11.dtd">
<!-- Generated by graphviz version 2.38.0 (20140413.2041)
 -->
<!-- Title: Thread_LocalDatabase_AutoSave Pages: 1 -->
<svg width="117pt" height="198pt"
 viewBox="0.00 0.00 117.00 198.00" xmlns="http://www.w3.org/2000/svg" xmlns:xlink="http://www.w3.org/1999/xlink">
<g id="graph0" class="graph" transform="scale(1 1) rotate(0) translate(4 194)">
<title>Thread_LocalDatabase_AutoSave</title>
<!-- Node1 -->
<g id="node1" class="node"><title>Node1</title>
<polygon fill="#bfbfbf" stroke="black" points="0,-0.5 0,-104.5 109,-104.5 109,-0.5 0,-0.5"/>
<text text-anchor="start" x="8" y="-94.9" font-family="Helvetica,sans-Serif" font-size="7.00">Thread_LocalDatabase</text>
<text text-anchor="middle" x="54.5" y="-86.9" font-family="Helvetica,sans-Serif" font-size="7.00">_AutoSave</text>
<polyline fill="none" stroke="black" points="0,-80.5 109,-80.5 "/>
<text text-anchor="middle" x="54.5" y="-70.9" font-family="Helvetica,sans-Serif" font-size="7.00"> </text>
<polyline fill="none" stroke="black" points="0,-64.5 109,-64.5 "/>
<text text-anchor="start" x="8" y="-54.9" font-family="Helvetica,sans-Serif" font-size="7.00">+ Thread_LocalDatabase</text>
<text text-anchor="start" x="8" y="-46.9" font-family="Helvetica,sans-Serif" font-size="7.00">_AutoSave()</text>
<text text-anchor="start" x="8" y="-38.9" font-family="Helvetica,sans-Serif" font-size="7.00">+ run()</text>
<text text-anchor="start" x="8" y="-30.9" font-family="Helvetica,sans-Serif" font-size="7.00">+ ~Thread_LocalDatabase</text>
<text text-anchor="start" x="8" y="-22.9" font-family="Helvetica,sans-Serif" font-size="7.00">_AutoSave()</text>
<text text-anchor="start" x="8" y="-14.9" font-family="Helvetica,sans-Serif" font-size="7.00">+ StartThread_LocalDatabase</text>
<text text-anchor="start" x="8" y="-6.9" font-family="Helvetica,sans-Serif" font-size="7.00">_AutoSave()</text>
</g>
<!-- Node2 -->
<g id="node2" class="node"><title>Node2</title>
<polygon fill="none" stroke="#bfbfbf" points="33,-141.5 33,-189.5 76,-189.5 76,-141.5 33,-141.5"/>
<text text-anchor="middle" x="54.5" y="-179.9" font-family="Helvetica,sans-Serif" font-size="7.00">QThread</text>
<polyline fill="none" stroke="#bfbfbf" points="33,-173.5 76,-173.5 "/>
<text text-anchor="middle" x="54.5" y="-163.9" font-family="Helvetica,sans-Serif" font-size="7.00"> </text>
<polyline fill="none" stroke="#bfbfbf" points="33,-157.5 76,-157.5 "/>
<text text-anchor="middle" x="54.5" y="-147.9" font-family="Helvetica,sans-Serif" font-size="7.00"> </text>
</g>
<!-- Node2&#45;&gt;Node1 -->
<g id="edge1" class="edge"><title>Node2&#45;&gt;Node1</title>
<path fill="none" stroke="midnightblue" d="M54.5,-131.146C54.5,-122.79 54.5,-113.632 54.5,-104.629"/>
<polygon fill="none" stroke="midnightblue" points="51.0001,-131.231 54.5,-141.231 58.0001,-131.231 51.0001,-131.231"/>
</g>
</g>
</svg>
