<?xml version="1.0" encoding="UTF-8" standalone="no"?>
<!DOCTYPE svg PUBLIC "-//W3C//DTD SVG 1.1//EN"
 "http://www.w3.org/Graphics/SVG/1.1/DTD/svg11.dtd">
<!-- Generated by graphviz version 2.38.0 (20140413.2041)
 -->
<!-- Title: Assistance Pages: 1 -->
<svg width="73pt" height="150pt"
 viewBox="0.00 0.00 73.00 150.00" xmlns="http://www.w3.org/2000/svg" xmlns:xlink="http://www.w3.org/1999/xlink">
<g id="graph0" class="graph" transform="scale(1 1) rotate(0) translate(4 146)">
<title>Assistance</title>
<!-- Node1 -->
<g id="node1" class="node"><title>Node1</title>
<polygon fill="#bfbfbf" stroke="black" points="0,-0.5 0,-56.5 65,-56.5 65,-0.5 0,-0.5"/>
<text text-anchor="middle" x="32.5" y="-46.9" font-family="Helvetica,sans-Serif" font-size="7.00">Assistance</text>
<polyline fill="none" stroke="black" points="0,-40.5 65,-40.5 "/>
<text text-anchor="middle" x="32.5" y="-30.9" font-family="Helvetica,sans-Serif" font-size="7.00"> </text>
<polyline fill="none" stroke="black" points="0,-24.5 65,-24.5 "/>
<text text-anchor="start" x="8" y="-14.9" font-family="Helvetica,sans-Serif" font-size="7.00">+ Assistance()</text>
<text text-anchor="start" x="8" y="-6.9" font-family="Helvetica,sans-Serif" font-size="7.00">+ ~Assistance()</text>
</g>
<!-- Node2 -->
<g id="node2" class="node"><title>Node2</title>
<polygon fill="none" stroke="#bfbfbf" points="10.5,-93.5 10.5,-141.5 54.5,-141.5 54.5,-93.5 10.5,-93.5"/>
<text text-anchor="middle" x="32.5" y="-131.9" font-family="Helvetica,sans-Serif" font-size="7.00">QWidget</text>
<polyline fill="none" stroke="#bfbfbf" points="10.5,-125.5 54.5,-125.5 "/>
<text text-anchor="middle" x="32.5" y="-115.9" font-family="Helvetica,sans-Serif" font-size="7.00"> </text>
<polyline fill="none" stroke="#bfbfbf" points="10.5,-109.5 54.5,-109.5 "/>
<text text-anchor="middle" x="32.5" y="-99.9" font-family="Helvetica,sans-Serif" font-size="7.00"> </text>
</g>
<!-- Node2&#45;&gt;Node1 -->
<g id="edge1" class="edge"><title>Node2&#45;&gt;Node1</title>
<path fill="none" stroke="midnightblue" d="M32.5,-82.927C32.5,-74.2051 32.5,-64.9207 32.5,-56.5802"/>
<polygon fill="none" stroke="midnightblue" points="29.0001,-83.1856 32.5,-93.1856 36.0001,-83.1856 29.0001,-83.1856"/>
</g>
</g>
</svg>
