<?xml version="1.0" encoding="UTF-8" standalone="no"?>
<!DOCTYPE svg PUBLIC "-//W3C//DTD SVG 1.1//EN"
 "http://www.w3.org/Graphics/SVG/1.1/DTD/svg11.dtd">
<!-- Generated by graphviz version 2.38.0 (20140413.2041)
 -->
<!-- Title: ThreadDeleteExtractCode Pages: 1 -->
<svg width="115pt" height="166pt"
 viewBox="0.00 0.00 115.00 166.00" xmlns="http://www.w3.org/2000/svg" xmlns:xlink="http://www.w3.org/1999/xlink">
<g id="graph0" class="graph" transform="scale(1 1) rotate(0) translate(4 162)">
<title>ThreadDeleteExtractCode</title>
<!-- Node1 -->
<g id="node1" class="node"><title>Node1</title>
<polygon fill="#bfbfbf" stroke="black" points="0,-0.5 0,-72.5 107,-72.5 107,-0.5 0,-0.5"/>
<text text-anchor="middle" x="53.5" y="-62.9" font-family="Helvetica,sans-Serif" font-size="7.00">ThreadDeleteExtractCode</text>
<polyline fill="none" stroke="black" points="0,-56.5 107,-56.5 "/>
<text text-anchor="middle" x="53.5" y="-46.9" font-family="Helvetica,sans-Serif" font-size="7.00"> </text>
<polyline fill="none" stroke="black" points="0,-40.5 107,-40.5 "/>
<text text-anchor="start" x="8" y="-30.9" font-family="Helvetica,sans-Serif" font-size="7.00">+ ThreadDeleteExtractCode()</text>
<text text-anchor="start" x="8" y="-22.9" font-family="Helvetica,sans-Serif" font-size="7.00">+ getId()</text>
<text text-anchor="start" x="8" y="-14.9" font-family="Helvetica,sans-Serif" font-size="7.00">+ run()</text>
<text text-anchor="start" x="8" y="-6.9" font-family="Helvetica,sans-Serif" font-size="7.00">+ startThread()</text>
</g>
<!-- Node2 -->
<g id="node2" class="node"><title>Node2</title>
<polygon fill="none" stroke="#bfbfbf" points="32,-109.5 32,-157.5 75,-157.5 75,-109.5 32,-109.5"/>
<text text-anchor="middle" x="53.5" y="-147.9" font-family="Helvetica,sans-Serif" font-size="7.00">QThread</text>
<polyline fill="none" stroke="#bfbfbf" points="32,-141.5 75,-141.5 "/>
<text text-anchor="middle" x="53.5" y="-131.9" font-family="Helvetica,sans-Serif" font-size="7.00"> </text>
<polyline fill="none" stroke="#bfbfbf" points="32,-125.5 75,-125.5 "/>
<text text-anchor="middle" x="53.5" y="-115.9" font-family="Helvetica,sans-Serif" font-size="7.00"> </text>
</g>
<!-- Node2&#45;&gt;Node1 -->
<g id="edge1" class="edge"><title>Node2&#45;&gt;Node1</title>
<path fill="none" stroke="midnightblue" d="M53.5,-98.9882C53.5,-90.4267 53.5,-81.1995 53.5,-72.5624"/>
<polygon fill="none" stroke="midnightblue" points="50.0001,-99.0168 53.5,-109.017 57.0001,-99.0169 50.0001,-99.0168"/>
</g>
</g>
</svg>
