<?xml version="1.0" encoding="UTF-8" standalone="no"?>
<!DOCTYPE svg PUBLIC "-//W3C//DTD SVG 1.1//EN"
 "http://www.w3.org/Graphics/SVG/1.1/DTD/svg11.dtd">
<!-- Generated by graphviz version 2.38.0 (20140413.2041)
 -->
<!-- Title: drawBox Pages: 1 -->
<svg width="148pt" height="182pt"
 viewBox="0.00 0.00 147.50 182.00" xmlns="http://www.w3.org/2000/svg" xmlns:xlink="http://www.w3.org/1999/xlink">
<g id="graph0" class="graph" transform="scale(1 1) rotate(0) translate(4 178)">
<title>drawBox</title>
<!-- Node1 -->
<g id="node1" class="node"><title>Node1</title>
<polygon fill="#bfbfbf" stroke="black" points="17.5,-0.5 17.5,-88.5 102.5,-88.5 102.5,-0.5 17.5,-0.5"/>
<text text-anchor="middle" x="60" y="-78.9" font-family="Helvetica,sans-Serif" font-size="7.00">drawBox</text>
<polyline fill="none" stroke="black" points="17.5,-72.5 102.5,-72.5 "/>
<text text-anchor="middle" x="60" y="-62.9" font-family="Helvetica,sans-Serif" font-size="7.00"> </text>
<polyline fill="none" stroke="black" points="17.5,-56.5 102.5,-56.5 "/>
<text text-anchor="start" x="25.5" y="-46.9" font-family="Helvetica,sans-Serif" font-size="7.00">+ drawBox()</text>
<text text-anchor="start" x="25.5" y="-38.9" font-family="Helvetica,sans-Serif" font-size="7.00">+ ~drawBox()</text>
<text text-anchor="start" x="25.5" y="-30.9" font-family="Helvetica,sans-Serif" font-size="7.00">+ getIdRect()</text>
<text text-anchor="start" x="25.5" y="-22.9" font-family="Helvetica,sans-Serif" font-size="7.00">+ mousePressEvent()</text>
<text text-anchor="start" x="25.5" y="-14.9" font-family="Helvetica,sans-Serif" font-size="7.00">+ setColor()</text>
<text text-anchor="start" x="25.5" y="-6.9" font-family="Helvetica,sans-Serif" font-size="7.00">+ drawRect()</text>
</g>
<!-- Node2 -->
<g id="node2" class="node"><title>Node2</title>
<polygon fill="none" stroke="#bfbfbf" points="0,-125.5 0,-173.5 42,-173.5 42,-125.5 0,-125.5"/>
<text text-anchor="middle" x="21" y="-163.9" font-family="Helvetica,sans-Serif" font-size="7.00">QObject</text>
<polyline fill="none" stroke="#bfbfbf" points="0,-157.5 42,-157.5 "/>
<text text-anchor="middle" x="21" y="-147.9" font-family="Helvetica,sans-Serif" font-size="7.00"> </text>
<polyline fill="none" stroke="#bfbfbf" points="0,-141.5 42,-141.5 "/>
<text text-anchor="middle" x="21" y="-131.9" font-family="Helvetica,sans-Serif" font-size="7.00"> </text>
</g>
<!-- Node2&#45;&gt;Node1 -->
<g id="edge1" class="edge"><title>Node2&#45;&gt;Node1</title>
<path fill="none" stroke="midnightblue" d="M33.3925,-115.771C36.6343,-107.209 40.1797,-97.8459 43.5951,-88.8256"/>
<polygon fill="none" stroke="midnightblue" points="30.0203,-114.793 29.7524,-125.385 36.5667,-117.272 30.0203,-114.793"/>
</g>
<!-- Node3 -->
<g id="node3" class="node"><title>Node3</title>
<polygon fill="none" stroke="#bfbfbf" points="60.5,-125.5 60.5,-173.5 139.5,-173.5 139.5,-125.5 60.5,-125.5"/>
<text text-anchor="middle" x="100" y="-163.9" font-family="Helvetica,sans-Serif" font-size="7.00">QGraphicsRectItem</text>
<polyline fill="none" stroke="#bfbfbf" points="60.5,-157.5 139.5,-157.5 "/>
<text text-anchor="middle" x="100" y="-147.9" font-family="Helvetica,sans-Serif" font-size="7.00"> </text>
<polyline fill="none" stroke="#bfbfbf" points="60.5,-141.5 139.5,-141.5 "/>
<text text-anchor="middle" x="100" y="-131.9" font-family="Helvetica,sans-Serif" font-size="7.00"> </text>
</g>
<!-- Node3&#45;&gt;Node1 -->
<g id="edge2" class="edge"><title>Node3&#45;&gt;Node1</title>
<path fill="none" stroke="midnightblue" d="M87.3981,-116.05C84.0439,-107.413 80.3666,-97.9439 76.8255,-88.8256"/>
<polygon fill="none" stroke="midnightblue" points="84.1404,-117.33 91.0232,-125.385 90.6657,-114.796 84.1404,-117.33"/>
</g>
</g>
</svg>
