<?xml version="1.0" encoding="UTF-8" standalone="no"?>
<!DOCTYPE svg PUBLIC "-//W3C//DTD SVG 1.1//EN"
 "http://www.w3.org/Graphics/SVG/1.1/DTD/svg11.dtd">
<!-- Generated by graphviz version 2.38.0 (20140413.2041)
 -->
<!-- Title: MenuDelivery Pages: 1 -->
<svg width="88pt" height="190pt"
 viewBox="0.00 0.00 88.00 190.00" xmlns="http://www.w3.org/2000/svg" xmlns:xlink="http://www.w3.org/1999/xlink">
<g id="graph0" class="graph" transform="scale(1 1) rotate(0) translate(4 186)">
<title>MenuDelivery</title>
<!-- Node1 -->
<g id="node1" class="node"><title>Node1</title>
<polygon fill="#bfbfbf" stroke="black" points="0,-0.5 0,-96.5 80,-96.5 80,-0.5 0,-0.5"/>
<text text-anchor="middle" x="40" y="-86.9" font-family="Helvetica,sans-Serif" font-size="7.00">MenuDelivery</text>
<polyline fill="none" stroke="black" points="0,-80.5 80,-80.5 "/>
<text text-anchor="middle" x="40" y="-70.9" font-family="Helvetica,sans-Serif" font-size="7.00"> </text>
<polyline fill="none" stroke="black" points="0,-64.5 80,-64.5 "/>
<text text-anchor="start" x="8" y="-54.9" font-family="Helvetica,sans-Serif" font-size="7.00">+ MenuDelivery()</text>
<text text-anchor="start" x="8" y="-46.9" font-family="Helvetica,sans-Serif" font-size="7.00">+ SetShowWidgets()</text>
<text text-anchor="start" x="8" y="-38.9" font-family="Helvetica,sans-Serif" font-size="7.00">+ ~MenuDelivery()</text>
<text text-anchor="start" x="8" y="-30.9" font-family="Helvetica,sans-Serif" font-size="7.00">+ retranslateUi()</text>
<text text-anchor="start" x="8" y="-22.9" font-family="Helvetica,sans-Serif" font-size="7.00">+ Deposit()</text>
<text text-anchor="start" x="8" y="-14.9" font-family="Helvetica,sans-Serif" font-size="7.00">+ OpenBoxEmpty()</text>
<text text-anchor="start" x="8" y="-6.9" font-family="Helvetica,sans-Serif" font-size="7.00">+ ReturnHome()</text>
</g>
<!-- Node2 -->
<g id="node2" class="node"><title>Node2</title>
<polygon fill="none" stroke="#bfbfbf" points="18,-133.5 18,-181.5 62,-181.5 62,-133.5 18,-133.5"/>
<text text-anchor="middle" x="40" y="-171.9" font-family="Helvetica,sans-Serif" font-size="7.00">QWidget</text>
<polyline fill="none" stroke="#bfbfbf" points="18,-165.5 62,-165.5 "/>
<text text-anchor="middle" x="40" y="-155.9" font-family="Helvetica,sans-Serif" font-size="7.00"> </text>
<polyline fill="none" stroke="#bfbfbf" points="18,-149.5 62,-149.5 "/>
<text text-anchor="middle" x="40" y="-139.9" font-family="Helvetica,sans-Serif" font-size="7.00"> </text>
</g>
<!-- Node2&#45;&gt;Node1 -->
<g id="edge1" class="edge"><title>Node2&#45;&gt;Node1</title>
<path fill="none" stroke="midnightblue" d="M40,-123.196C40,-114.849 40,-105.734 40,-96.8479"/>
<polygon fill="none" stroke="midnightblue" points="36.5001,-123.283 40,-133.283 43.5001,-123.283 36.5001,-123.283"/>
</g>
</g>
</svg>
