<?xml version="1.0" encoding="UTF-8" standalone="no"?>
<!DOCTYPE svg PUBLIC "-//W3C//DTD SVG 1.1//EN"
 "http://www.w3.org/Graphics/SVG/1.1/DTD/svg11.dtd">
<!-- Generated by graphviz version 2.38.0 (20140413.2041)
 -->
<!-- Title: StowPackages Pages: 1 -->
<svg width="115pt" height="262pt"
 viewBox="0.00 0.00 115.00 262.00" xmlns="http://www.w3.org/2000/svg" xmlns:xlink="http://www.w3.org/1999/xlink">
<g id="graph0" class="graph" transform="scale(1 1) rotate(0) translate(4 258)">
<title>StowPackages</title>
<!-- Node1 -->
<g id="node1" class="node"><title>Node1</title>
<polygon fill="#bfbfbf" stroke="black" points="0,-0.5 0,-168.5 107,-168.5 107,-0.5 0,-0.5"/>
<text text-anchor="middle" x="53.5" y="-158.9" font-family="Helvetica,sans-Serif" font-size="7.00">StowPackages</text>
<polyline fill="none" stroke="black" points="0,-152.5 107,-152.5 "/>
<text text-anchor="middle" x="53.5" y="-142.9" font-family="Helvetica,sans-Serif" font-size="7.00"> </text>
<polyline fill="none" stroke="black" points="0,-136.5 107,-136.5 "/>
<text text-anchor="start" x="8" y="-126.9" font-family="Helvetica,sans-Serif" font-size="7.00">+ StowPackages()</text>
<text text-anchor="start" x="8" y="-118.9" font-family="Helvetica,sans-Serif" font-size="7.00">+ SetShowWidgets()</text>
<text text-anchor="start" x="8" y="-110.9" font-family="Helvetica,sans-Serif" font-size="7.00">+ ~StowPackages()</text>
<text text-anchor="start" x="8" y="-102.9" font-family="Helvetica,sans-Serif" font-size="7.00">+ ResetAttribut()</text>
<text text-anchor="start" x="8" y="-94.9" font-family="Helvetica,sans-Serif" font-size="7.00">+ CreateListBoxTreeWidget()</text>
<text text-anchor="start" x="8" y="-86.9" font-family="Helvetica,sans-Serif" font-size="7.00">+ retranslateUi()</text>
<text text-anchor="start" x="8" y="-78.9" font-family="Helvetica,sans-Serif" font-size="7.00">+ AddItemListBox()</text>
<text text-anchor="start" x="8" y="-70.9" font-family="Helvetica,sans-Serif" font-size="7.00">+ UpdateBD()</text>
<text text-anchor="start" x="8" y="-62.9" font-family="Helvetica,sans-Serif" font-size="7.00">+ ShowMessageError()</text>
<text text-anchor="start" x="8" y="-54.9" font-family="Helvetica,sans-Serif" font-size="7.00">+ ReceiveListPackageBox()</text>
<text text-anchor="start" x="8" y="-46.9" font-family="Helvetica,sans-Serif" font-size="7.00">+ ShowDeliveryConfirm()</text>
<text text-anchor="start" x="8" y="-38.9" font-family="Helvetica,sans-Serif" font-size="7.00">+ StatusDoors()</text>
<text text-anchor="start" x="8" y="-30.9" font-family="Helvetica,sans-Serif" font-size="7.00">+ ShowStowP()</text>
<text text-anchor="start" x="8" y="-22.9" font-family="Helvetica,sans-Serif" font-size="7.00">+ ShowChangeBox()</text>
<text text-anchor="start" x="8" y="-14.9" font-family="Helvetica,sans-Serif" font-size="7.00">+ StoragePackagesFinised()</text>
<text text-anchor="start" x="8" y="-6.9" font-family="Helvetica,sans-Serif" font-size="7.00">+ SaveBoxSelected()</text>
</g>
<!-- Node2 -->
<g id="node2" class="node"><title>Node2</title>
<polygon fill="none" stroke="#bfbfbf" points="31.5,-205.5 31.5,-253.5 75.5,-253.5 75.5,-205.5 31.5,-205.5"/>
<text text-anchor="middle" x="53.5" y="-243.9" font-family="Helvetica,sans-Serif" font-size="7.00">QWidget</text>
<polyline fill="none" stroke="#bfbfbf" points="31.5,-237.5 75.5,-237.5 "/>
<text text-anchor="middle" x="53.5" y="-227.9" font-family="Helvetica,sans-Serif" font-size="7.00"> </text>
<polyline fill="none" stroke="#bfbfbf" points="31.5,-221.5 75.5,-221.5 "/>
<text text-anchor="middle" x="53.5" y="-211.9" font-family="Helvetica,sans-Serif" font-size="7.00"> </text>
</g>
<!-- Node2&#45;&gt;Node1 -->
<g id="edge1" class="edge"><title>Node2&#45;&gt;Node1</title>
<path fill="none" stroke="midnightblue" d="M53.5,-195.162C53.5,-187.077 53.5,-178.071 53.5,-168.792"/>
<polygon fill="none" stroke="midnightblue" points="50.0001,-195.206 53.5,-205.206 57.0001,-195.206 50.0001,-195.206"/>
</g>
</g>
</svg>
