<?xml version="1.0" encoding="UTF-8" standalone="no"?>
<!DOCTYPE svg PUBLIC "-//W3C//DTD SVG 1.1//EN"
 "http://www.w3.org/Graphics/SVG/1.1/DTD/svg11.dtd">
<!-- Generated by graphviz version 2.38.0 (20140413.2041)
 -->
<!-- Title: SettingSystem Pages: 1 -->
<svg width="80pt" height="142pt"
 viewBox="0.00 0.00 80.00 142.00" xmlns="http://www.w3.org/2000/svg" xmlns:xlink="http://www.w3.org/1999/xlink">
<g id="graph0" class="graph" transform="scale(1 1) rotate(0) translate(4 138)">
<title>SettingSystem</title>
<!-- Node1 -->
<g id="node1" class="node"><title>Node1</title>
<polygon fill="#bfbfbf" stroke="black" points="0,-0.5 0,-48.5 72,-48.5 72,-0.5 0,-0.5"/>
<text text-anchor="middle" x="36" y="-38.9" font-family="Helvetica,sans-Serif" font-size="7.00">SettingSystem</text>
<polyline fill="none" stroke="black" points="0,-32.5 72,-32.5 "/>
<text text-anchor="middle" x="36" y="-22.9" font-family="Helvetica,sans-Serif" font-size="7.00"> </text>
<polyline fill="none" stroke="black" points="0,-16.5 72,-16.5 "/>
<text text-anchor="start" x="8" y="-6.9" font-family="Helvetica,sans-Serif" font-size="7.00">+ UpdateFileXml()</text>
</g>
<!-- Node2 -->
<g id="node2" class="node"><title>Node2</title>
<polygon fill="none" stroke="#bfbfbf" points="14,-85.5 14,-133.5 58,-133.5 58,-85.5 14,-85.5"/>
<text text-anchor="middle" x="36" y="-123.9" font-family="Helvetica,sans-Serif" font-size="7.00">QWidget</text>
<polyline fill="none" stroke="#bfbfbf" points="14,-117.5 58,-117.5 "/>
<text text-anchor="middle" x="36" y="-107.9" font-family="Helvetica,sans-Serif" font-size="7.00"> </text>
<polyline fill="none" stroke="#bfbfbf" points="14,-101.5 58,-101.5 "/>
<text text-anchor="middle" x="36" y="-91.9" font-family="Helvetica,sans-Serif" font-size="7.00"> </text>
</g>
<!-- Node2&#45;&gt;Node1 -->
<g id="edge1" class="edge"><title>Node2&#45;&gt;Node1</title>
<path fill="none" stroke="midnightblue" d="M36,-75.2987C36,-66.4164 36,-57.0052 36,-48.784"/>
<polygon fill="none" stroke="midnightblue" points="32.5001,-75.3798 36,-85.3799 39.5001,-75.3799 32.5001,-75.3798"/>
</g>
</g>
</svg>
