<?xml version="1.0" encoding="UTF-8" standalone="no"?>
<!DOCTYPE svg PUBLIC "-//W3C//DTD SVG 1.1//EN"
 "http://www.w3.org/Graphics/SVG/1.1/DTD/svg11.dtd">
<!-- Generated by graphviz version 2.38.0 (20140413.2041)
 -->
<!-- Title: Thread_Databasemanager Pages: 1 -->
<svg width="121pt" height="174pt"
 viewBox="0.00 0.00 121.00 174.00" xmlns="http://www.w3.org/2000/svg" xmlns:xlink="http://www.w3.org/1999/xlink">
<g id="graph0" class="graph" transform="scale(1 1) rotate(0) translate(4 170)">
<title>Thread_Databasemanager</title>
<!-- Node1 -->
<g id="node1" class="node"><title>Node1</title>
<polygon fill="#bfbfbf" stroke="black" points="0,-0.5 0,-80.5 113,-80.5 113,-0.5 0,-0.5"/>
<text text-anchor="middle" x="56.5" y="-70.9" font-family="Helvetica,sans-Serif" font-size="7.00">Thread_Databasemanager</text>
<polyline fill="none" stroke="black" points="0,-64.5 113,-64.5 "/>
<text text-anchor="middle" x="56.5" y="-54.9" font-family="Helvetica,sans-Serif" font-size="7.00"> </text>
<polyline fill="none" stroke="black" points="0,-48.5 113,-48.5 "/>
<text text-anchor="start" x="8" y="-38.9" font-family="Helvetica,sans-Serif" font-size="7.00">+ Thread_Databasemanager()</text>
<text text-anchor="start" x="8" y="-30.9" font-family="Helvetica,sans-Serif" font-size="7.00">+ ~Thread_Databasemanager()</text>
<text text-anchor="start" x="8" y="-22.9" font-family="Helvetica,sans-Serif" font-size="7.00">+ run()</text>
<text text-anchor="start" x="8" y="-14.9" font-family="Helvetica,sans-Serif" font-size="7.00">+ SlowThread()</text>
<text text-anchor="start" x="8" y="-6.9" font-family="Helvetica,sans-Serif" font-size="7.00">+ startThreadManager()</text>
</g>
<!-- Node2 -->
<g id="node2" class="node"><title>Node2</title>
<polygon fill="none" stroke="#bfbfbf" points="35,-117.5 35,-165.5 78,-165.5 78,-117.5 35,-117.5"/>
<text text-anchor="middle" x="56.5" y="-155.9" font-family="Helvetica,sans-Serif" font-size="7.00">QThread</text>
<polyline fill="none" stroke="#bfbfbf" points="35,-149.5 78,-149.5 "/>
<text text-anchor="middle" x="56.5" y="-139.9" font-family="Helvetica,sans-Serif" font-size="7.00"> </text>
<polyline fill="none" stroke="#bfbfbf" points="35,-133.5 78,-133.5 "/>
<text text-anchor="middle" x="56.5" y="-123.9" font-family="Helvetica,sans-Serif" font-size="7.00"> </text>
</g>
<!-- Node2&#45;&gt;Node1 -->
<g id="edge1" class="edge"><title>Node2&#45;&gt;Node1</title>
<path fill="none" stroke="midnightblue" d="M56.5,-107.074C56.5,-98.6488 56.5,-89.5261 56.5,-80.8396"/>
<polygon fill="none" stroke="midnightblue" points="53.0001,-107.289 56.5,-117.289 60.0001,-107.289 53.0001,-107.289"/>
</g>
</g>
</svg>
