<?xml version="1.0" encoding="UTF-8" standalone="no"?>
<!DOCTYPE svg PUBLIC "-//W3C//DTD SVG 1.1//EN"
 "http://www.w3.org/Graphics/SVG/1.1/DTD/svg11.dtd">
<!-- Generated by graphviz version 2.38.0 (20140413.2041)
 -->
<!-- Title: ThreadSaveDelivery Pages: 1 -->
<svg width="103pt" height="190pt"
 viewBox="0.00 0.00 103.00 190.00" xmlns="http://www.w3.org/2000/svg" xmlns:xlink="http://www.w3.org/1999/xlink">
<g id="graph0" class="graph" transform="scale(1 1) rotate(0) translate(4 186)">
<title>ThreadSaveDelivery</title>
<!-- Node1 -->
<g id="node1" class="node"><title>Node1</title>
<polygon fill="#bfbfbf" stroke="black" points="0,-0.5 0,-96.5 95,-96.5 95,-0.5 0,-0.5"/>
<text text-anchor="middle" x="47.5" y="-86.9" font-family="Helvetica,sans-Serif" font-size="7.00">ThreadSaveDelivery</text>
<polyline fill="none" stroke="black" points="0,-80.5 95,-80.5 "/>
<text text-anchor="middle" x="47.5" y="-70.9" font-family="Helvetica,sans-Serif" font-size="7.00"> </text>
<polyline fill="none" stroke="black" points="0,-64.5 95,-64.5 "/>
<text text-anchor="start" x="8" y="-54.9" font-family="Helvetica,sans-Serif" font-size="7.00">+ ThreadSaveDelivery()</text>
<text text-anchor="start" x="8" y="-46.9" font-family="Helvetica,sans-Serif" font-size="7.00">+ ~ThreadSaveDelivery()</text>
<text text-anchor="start" x="8" y="-38.9" font-family="Helvetica,sans-Serif" font-size="7.00">+ run()</text>
<text text-anchor="start" x="8" y="-30.9" font-family="Helvetica,sans-Serif" font-size="7.00">+ saveListpackage()</text>
<text text-anchor="start" x="8" y="-22.9" font-family="Helvetica,sans-Serif" font-size="7.00">+ saveListpackages()</text>
<text text-anchor="start" x="8" y="-14.9" font-family="Helvetica,sans-Serif" font-size="7.00">+ startThread()</text>
<text text-anchor="start" x="8" y="-6.9" font-family="Helvetica,sans-Serif" font-size="7.00">+ startThread()</text>
</g>
<!-- Node2 -->
<g id="node2" class="node"><title>Node2</title>
<polygon fill="none" stroke="#bfbfbf" points="26,-133.5 26,-181.5 69,-181.5 69,-133.5 26,-133.5"/>
<text text-anchor="middle" x="47.5" y="-171.9" font-family="Helvetica,sans-Serif" font-size="7.00">QThread</text>
<polyline fill="none" stroke="#bfbfbf" points="26,-165.5 69,-165.5 "/>
<text text-anchor="middle" x="47.5" y="-155.9" font-family="Helvetica,sans-Serif" font-size="7.00"> </text>
<polyline fill="none" stroke="#bfbfbf" points="26,-149.5 69,-149.5 "/>
<text text-anchor="middle" x="47.5" y="-139.9" font-family="Helvetica,sans-Serif" font-size="7.00"> </text>
</g>
<!-- Node2&#45;&gt;Node1 -->
<g id="edge1" class="edge"><title>Node2&#45;&gt;Node1</title>
<path fill="none" stroke="midnightblue" d="M47.5,-123.196C47.5,-114.849 47.5,-105.734 47.5,-96.8479"/>
<polygon fill="none" stroke="midnightblue" points="44.0001,-123.283 47.5,-133.283 51.0001,-123.283 44.0001,-123.283"/>
</g>
</g>
</svg>
