<?xml version="1.0" encoding="UTF-8" standalone="no"?>
<!DOCTYPE svg PUBLIC "-//W3C//DTD SVG 1.1//EN"
 "http://www.w3.org/Graphics/SVG/1.1/DTD/svg11.dtd">
<!-- Generated by graphviz version 2.38.0 (20140413.2041)
 -->
<!-- Title: EditSettingSystem Pages: 1 -->
<svg width="97pt" height="190pt"
 viewBox="0.00 0.00 97.00 190.00" xmlns="http://www.w3.org/2000/svg" xmlns:xlink="http://www.w3.org/1999/xlink">
<g id="graph0" class="graph" transform="scale(1 1) rotate(0) translate(4 186)">
<title>EditSettingSystem</title>
<!-- Node1 -->
<g id="node1" class="node"><title>Node1</title>
<polygon fill="#bfbfbf" stroke="black" points="0,-0.5 0,-96.5 89,-96.5 89,-0.5 0,-0.5"/>
<text text-anchor="middle" x="44.5" y="-86.9" font-family="Helvetica,sans-Serif" font-size="7.00">EditSettingSystem</text>
<polyline fill="none" stroke="black" points="0,-80.5 89,-80.5 "/>
<text text-anchor="middle" x="44.5" y="-70.9" font-family="Helvetica,sans-Serif" font-size="7.00"> </text>
<polyline fill="none" stroke="black" points="0,-64.5 89,-64.5 "/>
<text text-anchor="start" x="8" y="-54.9" font-family="Helvetica,sans-Serif" font-size="7.00">+ EditSettingSystem()</text>
<text text-anchor="start" x="8" y="-46.9" font-family="Helvetica,sans-Serif" font-size="7.00">+ SetShowWidgets()</text>
<text text-anchor="start" x="8" y="-38.9" font-family="Helvetica,sans-Serif" font-size="7.00">+ ~EditSettingSystem()</text>
<text text-anchor="start" x="8" y="-30.9" font-family="Helvetica,sans-Serif" font-size="7.00">+ receiveEditText()</text>
<text text-anchor="start" x="8" y="-22.9" font-family="Helvetica,sans-Serif" font-size="7.00">+ ClickedButtonOK()</text>
<text text-anchor="start" x="8" y="-14.9" font-family="Helvetica,sans-Serif" font-size="7.00">+ SupprCaract()</text>
<text text-anchor="start" x="8" y="-6.9" font-family="Helvetica,sans-Serif" font-size="7.00">+ SetCaract()</text>
</g>
<!-- Node2 -->
<g id="node2" class="node"><title>Node2</title>
<polygon fill="none" stroke="#bfbfbf" points="22.5,-133.5 22.5,-181.5 66.5,-181.5 66.5,-133.5 22.5,-133.5"/>
<text text-anchor="middle" x="44.5" y="-171.9" font-family="Helvetica,sans-Serif" font-size="7.00">QWidget</text>
<polyline fill="none" stroke="#bfbfbf" points="22.5,-165.5 66.5,-165.5 "/>
<text text-anchor="middle" x="44.5" y="-155.9" font-family="Helvetica,sans-Serif" font-size="7.00"> </text>
<polyline fill="none" stroke="#bfbfbf" points="22.5,-149.5 66.5,-149.5 "/>
<text text-anchor="middle" x="44.5" y="-139.9" font-family="Helvetica,sans-Serif" font-size="7.00"> </text>
</g>
<!-- Node2&#45;&gt;Node1 -->
<g id="edge1" class="edge"><title>Node2&#45;&gt;Node1</title>
<path fill="none" stroke="midnightblue" d="M44.5,-123.196C44.5,-114.849 44.5,-105.734 44.5,-96.8479"/>
<polygon fill="none" stroke="midnightblue" points="41.0001,-123.283 44.5,-133.283 48.0001,-123.283 41.0001,-123.283"/>
</g>
</g>
</svg>
