<?xml version="1.0" encoding="UTF-8" standalone="no"?>
<!DOCTYPE svg PUBLIC "-//W3C//DTD SVG 1.1//EN"
 "http://www.w3.org/Graphics/SVG/1.1/DTD/svg11.dtd">
<!-- Generated by graphviz version 2.38.0 (20140413.2041)
 -->
<!-- Title: S:/QT_CREATOR/Locker_Control/clms_db.h Pages: 1 -->
<svg width="103pt" height="139pt"
 viewBox="0.00 0.00 103.00 139.00" xmlns="http://www.w3.org/2000/svg" xmlns:xlink="http://www.w3.org/1999/xlink">
<g id="graph0" class="graph" transform="scale(1 1) rotate(0) translate(4 135)">
<title>S:/QT_CREATOR/Locker_Control/clms_db.h</title>
<!-- Node1 -->
<g id="node1" class="node"><title>Node1</title>
<polygon fill="#bfbfbf" stroke="black" points="0,-106.5 0,-130.5 95,-130.5 95,-106.5 0,-106.5"/>
<text text-anchor="start" x="8" y="-120.9" font-family="Helvetica,sans-Serif" font-size="7.00">S:/QT_CREATOR/Locker</text>
<text text-anchor="middle" x="47.5" y="-112.9" font-family="Helvetica,sans-Serif" font-size="7.00">_Control/clms_db.h</text>
</g>
<!-- Node2 -->
<g id="node2" class="node"><title>Node2</title>
<g id="a_node2"><a xlink:href="_data_structures_8h.html" target="_top" xlink:title="Definnitions des formats de communications des données entre les classes de l&#39;application LC...">
<polygon fill="none" stroke="black" points="12.5,-53.5 12.5,-69.5 82.5,-69.5 82.5,-53.5 12.5,-53.5"/>
<text text-anchor="middle" x="47.5" y="-59.9" font-family="Helvetica,sans-Serif" font-size="7.00">DataStructures.h</text>
</a>
</g>
</g>
<!-- Node1&#45;&gt;Node2 -->
<g id="edge1" class="edge"><title>Node1&#45;&gt;Node2</title>
<path fill="none" stroke="midnightblue" d="M47.5,-106.37C47.5,-98.7748 47.5,-88.5603 47.5,-79.8986"/>
<polygon fill="midnightblue" stroke="midnightblue" points="51.0001,-79.7574 47.5,-69.7575 44.0001,-79.7575 51.0001,-79.7574"/>
</g>
<!-- Node3 -->
<g id="node3" class="node"><title>Node3</title>
<polygon fill="none" stroke="#bfbfbf" points="0.5,-0.5 0.5,-16.5 40.5,-16.5 40.5,-0.5 0.5,-0.5"/>
<text text-anchor="middle" x="20.5" y="-6.9" font-family="Helvetica,sans-Serif" font-size="7.00">QString</text>
</g>
<!-- Node2&#45;&gt;Node3 -->
<g id="edge2" class="edge"><title>Node2&#45;&gt;Node3</title>
<path fill="none" stroke="midnightblue" d="M43.7458,-53.4087C39.9575,-46.2531 33.9771,-34.9567 29.0309,-25.6139"/>
<polygon fill="midnightblue" stroke="midnightblue" points="31.9945,-23.7314 24.2223,-16.5311 25.808,-27.0066 31.9945,-23.7314"/>
</g>
<!-- Node4 -->
<g id="node4" class="node"><title>Node4</title>
<polygon fill="none" stroke="#bfbfbf" points="59,-0.5 59,-16.5 92,-16.5 92,-0.5 59,-0.5"/>
<text text-anchor="middle" x="75.5" y="-6.9" font-family="Helvetica,sans-Serif" font-size="7.00">QList</text>
</g>
<!-- Node2&#45;&gt;Node4 -->
<g id="edge3" class="edge"><title>Node2&#45;&gt;Node4</title>
<path fill="none" stroke="midnightblue" d="M51.3933,-53.4087C55.3636,-46.177 61.656,-34.7159 66.8165,-25.3164"/>
<polygon fill="midnightblue" stroke="midnightblue" points="69.8952,-26.9813 71.6398,-16.5311 63.7591,-23.6125 69.8952,-26.9813"/>
</g>
</g>
</svg>
