<?xml version="1.0" encoding="UTF-8" standalone="no"?>
<!DOCTYPE svg PUBLIC "-//W3C//DTD SVG 1.1//EN"
 "http://www.w3.org/Graphics/SVG/1.1/DTD/svg11.dtd">
<!-- Generated by graphviz version 2.38.0 (20140413.2041)
 -->
<!-- Title: S:/QT_CREATOR/Locker_Control/clms_db.h Pages: 1 -->
<!--zoomable 277 -->
<svg id="main" version="1.1" xmlns="http://www.w3.org/2000/svg" xmlns:xlink="http://www.w3.org/1999/xlink" xml:space="preserve" onload="init(evt)">
<style type="text/css"><![CDATA[
.edge:hover path { stroke: red; }
.edge:hover polygon { stroke: red; fill: red; }
]]></style>
<script type="text/javascript"><![CDATA[
var edges = document.getElementsByTagName('g');
if (edges && edges.length) {
  for (var i=0;i<edges.length;i++) {
    if (edges[i].id.substr(0,4)=='edge') {
      edges[i].setAttribute('class','edge');
    }
  }
}
]]></script>
        <defs>
                <circle id="rim" cx="0" cy="0" r="7"/>
                <circle id="rim2" cx="0" cy="0" r="3.5"/>
                <g id="zoomPlus">
                        <use xlink:href="#rim" fill="#404040">
                                <set attributeName="fill" to="#808080" begin="zoomplus.mouseover" end="zoomplus.mouseout"/>
                        </use>
                        <path d="M-4,0h8M0,-4v8" fill="none" stroke="white" stroke-width="1.5" pointer-events="none"/>
                </g>
                <g id="zoomMin">
                        <use xlink:href="#rim" fill="#404040">
                                <set attributeName="fill" to="#808080" begin="zoomminus.mouseover" end="zoomminus.mouseout"/>
                        </use>
                        <path d="M-4,0h8" fill="none" stroke="white" stroke-width="1.5" pointer-events="none"/>
                </g>
                <g id="dirArrow">
                        <path fill="none" stroke="white" stroke-width="1.5" d="M0,-3.0v7 M-2.5,-0.5L0,-3.0L2.5,-0.5"/>
                </g>
               <g id="resetDef">
                       <use xlink:href="#rim2" fill="#404040">
                               <set attributeName="fill" to="#808080" begin="reset.mouseover" end="reset.mouseout"/>
                       </use>
               </g>
        </defs>

<script type="text/javascript">
var viewWidth = 563;
var viewHeight = 277;
var sectionId = 'dynsection-1';
</script>
<script xlink:href="svgpan.js"/>
<svg id="graph" class="graph">
<g id="viewport">
<title>S:/QT_CREATOR/Locker_Control/clms_db.h</title>
<!-- Node1 -->
<g id="node1" class="node"><title>Node1</title>
<polygon fill="#bfbfbf" stroke="black" points="324.543,-244.5 324.543,-268.5 419.543,-268.5 419.543,-244.5 324.543,-244.5"/>
<text text-anchor="start" x="332.543" y="-258.9" font-family="Helvetica,sans-Serif" font-size="7.00">S:/QT_CREATOR/Locker</text>
<text text-anchor="middle" x="372.043" y="-250.9" font-family="Helvetica,sans-Serif" font-size="7.00">_Control/clms_db.h</text>
</g>
<!-- Node2 -->
<g id="node2" class="node"><title>Node2</title>
<g id="a_node2"><a xlink:href="csqlite__local__db_8h.html" target="_top" xlink:title="S:/QT_CREATOR/Locker\l_Control/csqlite_local_db.h">
<polygon fill="none" stroke="red" points="136.543,-183.5 136.543,-207.5 237.543,-207.5 237.543,-183.5 136.543,-183.5"/>
<text text-anchor="start" x="144.543" y="-197.9" font-family="Helvetica,sans-Serif" font-size="7.00">S:/QT_CREATOR/Locker</text>
<text text-anchor="middle" x="187.043" y="-189.9" font-family="Helvetica,sans-Serif" font-size="7.00">_Control/csqlite_local_db.h</text>
</a>
</g>
</g>
<!-- Node1&#45;&gt;Node2 -->
<g id="edge1" class="edge"><title>Node1&#45;&gt;Node2</title>
<path fill="none" stroke="midnightblue" d="M327.538,-241.307C295.041,-230.943 251.611,-217.092 221.684,-207.548"/>
<polygon fill="midnightblue" stroke="midnightblue" points="326.655,-244.699 337.246,-244.403 328.782,-238.03 326.655,-244.699"/>
</g>
<!-- Node4 -->
<g id="node4" class="node"><title>Node4</title>
<g id="a_node4"><a xlink:href="consolewindows_8h.html" target="_top" xlink:title="S:/QT_CREATOR/Locker\l_Control/consolewindows.h">
<polygon fill="none" stroke="red" points="78.5427,-0.5 78.5427,-24.5 179.543,-24.5 179.543,-0.5 78.5427,-0.5"/>
<text text-anchor="start" x="86.5427" y="-14.9" font-family="Helvetica,sans-Serif" font-size="7.00">S:/QT_CREATOR/Locker</text>
<text text-anchor="middle" x="129.043" y="-6.9" font-family="Helvetica,sans-Serif" font-size="7.00">_Control/consolewindows.h</text>
</a>
</g>
</g>
<!-- Node1&#45;&gt;Node4 -->
<g id="edge18" class="edge"><title>Node1&#45;&gt;Node4</title>
<path fill="none" stroke="midnightblue" d="M314.064,-254.348C238.087,-249.48 106.383,-228.869 37.0427,-147 11.0631,-116.327 -13.5527,-94.2453 9.04275,-61 24.5974,-38.1141 53.0719,-26.2548 78.3807,-20.1094"/>
<polygon fill="midnightblue" stroke="midnightblue" points="314.22,-257.862 324.403,-254.935 314.617,-250.873 314.22,-257.862"/>
</g>
<!-- Node7 -->
<g id="node7" class="node"><title>Node7</title>
<g id="a_node7"><a xlink:href="deliveryconfirm_8h.html" target="_top" xlink:title="S:/QT_CREATOR/Locker\l_Control/deliveryconfirm.h">
<polygon fill="none" stroke="red" points="254.543,-61.5 254.543,-85.5 355.543,-85.5 355.543,-61.5 254.543,-61.5"/>
<text text-anchor="start" x="262.543" y="-75.9" font-family="Helvetica,sans-Serif" font-size="7.00">S:/QT_CREATOR/Locker</text>
<text text-anchor="middle" x="305.043" y="-67.9" font-family="Helvetica,sans-Serif" font-size="7.00">_Control/deliveryconfirm.h</text>
</a>
</g>
</g>
<!-- Node1&#45;&gt;Node7 -->
<g id="edge15" class="edge"><title>Node1&#45;&gt;Node7</title>
<path fill="none" stroke="midnightblue" d="M378.209,-234.55C385.07,-206.992 392.895,-157.865 374.043,-122 365.246,-105.265 347.59,-93.2774 332.341,-85.5312"/>
<polygon fill="midnightblue" stroke="midnightblue" points="374.803,-233.738 375.593,-244.303 381.564,-235.552 374.803,-233.738"/>
</g>
<!-- Node8 -->
<g id="node8" class="node"><title>Node8</title>
<g id="a_node8"><a xlink:href="threadsavedelivery_8h.html" target="_top" xlink:title="S:/QT_CREATOR/Locker\l_Control/threadsavedelivery.h">
<polygon fill="none" stroke="red" points="253.043,-122.5 253.043,-146.5 365.043,-146.5 365.043,-122.5 253.043,-122.5"/>
<text text-anchor="start" x="261.043" y="-136.9" font-family="Helvetica,sans-Serif" font-size="7.00">S:/QT_CREATOR/Locker</text>
<text text-anchor="middle" x="309.043" y="-128.9" font-family="Helvetica,sans-Serif" font-size="7.00">_Control/threadsavedelivery.h</text>
</a>
</g>
</g>
<!-- Node1&#45;&gt;Node8 -->
<g id="edge16" class="edge"><title>Node1&#45;&gt;Node8</title>
<path fill="none" stroke="midnightblue" d="M361.425,-235.275C348.018,-209.739 325.427,-166.709 314.843,-146.547"/>
<polygon fill="midnightblue" stroke="midnightblue" points="358.481,-237.199 366.229,-244.426 364.679,-233.945 358.481,-237.199"/>
</g>
<!-- Node9 -->
<g id="node9" class="node"><title>Node9</title>
<g id="a_node9"><a xlink:href="settingsystem_8h.html" target="_top" xlink:title="S:/QT_CREATOR/Locker\l_Control/settingsystem.h">
<polygon fill="none" stroke="red" points="421.043,-122.5 421.043,-146.5 517.043,-146.5 517.043,-122.5 421.043,-122.5"/>
<text text-anchor="start" x="429.043" y="-136.9" font-family="Helvetica,sans-Serif" font-size="7.00">S:/QT_CREATOR/Locker</text>
<text text-anchor="middle" x="469.043" y="-128.9" font-family="Helvetica,sans-Serif" font-size="7.00">_Control/settingsystem.h</text>
</a>
</g>
</g>
<!-- Node1&#45;&gt;Node9 -->
<g id="edge17" class="edge"><title>Node1&#45;&gt;Node9</title>
<path fill="none" stroke="midnightblue" d="M387.308,-236.615C407.796,-211.269 443.527,-167.066 460.113,-146.547"/>
<polygon fill="midnightblue" stroke="midnightblue" points="384.559,-234.449 380.994,-244.426 390.003,-238.849 384.559,-234.449"/>
</g>
<!-- Node10 -->
<g id="node10" class="node"><title>Node10</title>
<g id="a_node10"><a xlink:href="clms__db_8cpp.html" target="_top" xlink:title="S:/QT_CREATOR/Locker\l_Control/clms_db.cpp">
<polygon fill="none" stroke="black" points="459.543,-183.5 459.543,-207.5 554.543,-207.5 554.543,-183.5 459.543,-183.5"/>
<text text-anchor="start" x="467.543" y="-197.9" font-family="Helvetica,sans-Serif" font-size="7.00">S:/QT_CREATOR/Locker</text>
<text text-anchor="middle" x="507.043" y="-189.9" font-family="Helvetica,sans-Serif" font-size="7.00">_Control/clms_db.cpp</text>
</a>
</g>
</g>
<!-- Node1&#45;&gt;Node10 -->
<g id="edge14" class="edge"><title>Node1&#45;&gt;Node10</title>
<path fill="none" stroke="midnightblue" d="M406.687,-240.359C430.137,-230.111 460.584,-216.804 481.764,-207.548"/>
<polygon fill="midnightblue" stroke="midnightblue" points="405.197,-237.191 397.435,-244.403 408,-243.605 405.197,-237.191"/>
</g>
<!-- Node3 -->
<g id="node3" class="node"><title>Node3</title>
<g id="a_node3"><a xlink:href="boxchoice_8h.html" target="_top" xlink:title="S:/QT_CREATOR/Locker\l_Control/boxchoice.h">
<polygon fill="none" stroke="red" points="25.5427,-61.5 25.5427,-85.5 120.543,-85.5 120.543,-61.5 25.5427,-61.5"/>
<text text-anchor="start" x="33.5427" y="-75.9" font-family="Helvetica,sans-Serif" font-size="7.00">S:/QT_CREATOR/Locker</text>
<text text-anchor="middle" x="73.0427" y="-67.9" font-family="Helvetica,sans-Serif" font-size="7.00">_Control/boxchoice.h</text>
</a>
</g>
</g>
<!-- Node2&#45;&gt;Node3 -->
<g id="edge2" class="edge"><title>Node2&#45;&gt;Node3</title>
<path fill="none" stroke="midnightblue" d="M130.046,-179.779C112.794,-172.609 95.4246,-162.14 84.0427,-147 70.4256,-128.887 70.4268,-100.911 71.6916,-85.5455"/>
<polygon fill="midnightblue" stroke="midnightblue" points="128.988,-183.122 139.579,-183.432 131.493,-176.585 128.988,-183.122"/>
</g>
<!-- Node2&#45;&gt;Node4 -->
<g id="edge13" class="edge"><title>Node2&#45;&gt;Node4</title>
<path fill="none" stroke="midnightblue" d="M135.083,-180.212C92.067,-165.031 35.0425,-136.127 16.0427,-86 12.1047,-75.6102 9.89392,-70.2547 16.0427,-61 29.9981,-39.9956 55.2461,-28.259 78.3421,-21.7108"/>
<polygon fill="midnightblue" stroke="midnightblue" points="133.986,-183.535 144.58,-183.424 136.229,-176.904 133.986,-183.535"/>
</g>
<!-- Node5 -->
<g id="node5" class="node"><title>Node5</title>
<g id="a_node5"><a xlink:href="cdoors_8h.html" target="_top" xlink:title="S:/QT_CREATOR/Locker\l_Control/cdoors.h">
<polygon fill="none" stroke="red" points="101.543,-122.5 101.543,-146.5 196.543,-146.5 196.543,-122.5 101.543,-122.5"/>
<text text-anchor="start" x="109.543" y="-136.9" font-family="Helvetica,sans-Serif" font-size="7.00">S:/QT_CREATOR/Locker</text>
<text text-anchor="middle" x="149.043" y="-128.9" font-family="Helvetica,sans-Serif" font-size="7.00">_Control/cdoors.h</text>
</a>
</g>
</g>
<!-- Node2&#45;&gt;Node5 -->
<g id="edge4" class="edge"><title>Node2&#45;&gt;Node5</title>
<path fill="none" stroke="midnightblue" d="M174.463,-174.968C168.378,-165.521 161.299,-154.529 156.158,-146.548"/>
<polygon fill="midnightblue" stroke="midnightblue" points="171.538,-176.891 179.895,-183.403 177.423,-173.1 171.538,-176.891"/>
</g>
<!-- Node6 -->
<g id="node6" class="node"><title>Node6</title>
<g id="a_node6"><a xlink:href="customer_8h.html" target="_top" xlink:title="S:/QT_CREATOR/Locker\l_Control/customer.h">
<polygon fill="none" stroke="red" points="138.543,-61.5 138.543,-85.5 233.543,-85.5 233.543,-61.5 138.543,-61.5"/>
<text text-anchor="start" x="146.543" y="-75.9" font-family="Helvetica,sans-Serif" font-size="7.00">S:/QT_CREATOR/Locker</text>
<text text-anchor="middle" x="186.043" y="-67.9" font-family="Helvetica,sans-Serif" font-size="7.00">_Control/customer.h</text>
</a>
</g>
</g>
<!-- Node2&#45;&gt;Node6 -->
<g id="edge5" class="edge"><title>Node2&#45;&gt;Node6</title>
<path fill="none" stroke="midnightblue" d="M132.657,-179.518C116.806,-172.349 101.281,-161.948 92.0427,-147 74.7066,-118.95 115.759,-97.6419 148.987,-85.6057"/>
<polygon fill="midnightblue" stroke="midnightblue" points="131.403,-182.787 141.982,-183.375 134.079,-176.318 131.403,-182.787"/>
</g>
<!-- Node2&#45;&gt;Node7 -->
<g id="edge7" class="edge"><title>Node2&#45;&gt;Node7</title>
<path fill="none" stroke="midnightblue" d="M200.635,-174.642C211.504,-159.439 227.597,-138.369 244.043,-122 257.932,-108.175 275.819,-94.6698 288.627,-85.6159"/>
<polygon fill="midnightblue" stroke="midnightblue" points="197.47,-173.06 194.587,-183.255 203.198,-177.083 197.47,-173.06"/>
</g>
<!-- Node2&#45;&gt;Node8 -->
<g id="edge9" class="edge"><title>Node2&#45;&gt;Node8</title>
<path fill="none" stroke="midnightblue" d="M219.202,-178.948C240.275,-168.757 267.313,-155.681 286.198,-146.548"/>
<polygon fill="midnightblue" stroke="midnightblue" points="217.469,-175.898 209.99,-183.403 220.516,-182.2 217.469,-175.898"/>
</g>
<!-- Node2&#45;&gt;Node9 -->
<g id="edge11" class="edge"><title>Node2&#45;&gt;Node9</title>
<path fill="none" stroke="midnightblue" d="M247.822,-181.784C299.518,-170.968 372.775,-155.641 420.593,-145.637"/>
<polygon fill="midnightblue" stroke="midnightblue" points="246.856,-178.41 237.784,-183.884 248.289,-185.262 246.856,-178.41"/>
</g>
<!-- Node3&#45;&gt;Node4 -->
<g id="edge3" class="edge"><title>Node3&#45;&gt;Node4</title>
<path fill="none" stroke="midnightblue" d="M90.4805,-54.1281C99.683,-44.4326 110.669,-32.8579 118.557,-24.5477"/>
<polygon fill="midnightblue" stroke="midnightblue" points="87.9216,-51.74 83.5759,-61.4026 92.9988,-56.559 87.9216,-51.74"/>
</g>
<!-- Node6&#45;&gt;Node4 -->
<g id="edge6" class="edge"><title>Node6&#45;&gt;Node4</title>
<path fill="none" stroke="midnightblue" d="M168.294,-54.1281C158.927,-44.4326 147.744,-32.8579 139.716,-24.5477"/>
<polygon fill="midnightblue" stroke="midnightblue" points="165.856,-56.6425 175.321,-61.4026 170.891,-51.7788 165.856,-56.6425"/>
</g>
<!-- Node7&#45;&gt;Node4 -->
<g id="edge8" class="edge"><title>Node7&#45;&gt;Node4</title>
<path fill="none" stroke="midnightblue" d="M262.303,-58.1725C231.431,-47.8233 190.347,-34.051 161.999,-24.5477"/>
<polygon fill="midnightblue" stroke="midnightblue" points="261.345,-61.5426 271.938,-61.4026 263.57,-54.9055 261.345,-61.5426"/>
</g>
<!-- Node8&#45;&gt;Node7 -->
<g id="edge10" class="edge"><title>Node8&#45;&gt;Node7</title>
<path fill="none" stroke="midnightblue" d="M307.599,-112.198C306.987,-103.173 306.299,-93.0351 305.792,-85.5477"/>
<polygon fill="midnightblue" stroke="midnightblue" points="304.122,-112.662 308.29,-122.403 311.106,-112.189 304.122,-112.662"/>
</g>
<!-- Node9&#45;&gt;Node4 -->
<g id="edge12" class="edge"><title>Node9&#45;&gt;Node4</title>
<path fill="none" stroke="midnightblue" d="M448.632,-115.621C428.497,-98.944 396.153,-74.647 364.043,-61 303.708,-35.3577 228.663,-23.2881 179.845,-17.7963"/>
<polygon fill="midnightblue" stroke="midnightblue" points="446.58,-118.469 456.478,-122.248 451.097,-113.122 446.58,-118.469"/>
</g>
</g>
</svg>
        <g id="navigator" transform="translate(0 0)" fill="#404254">
                <rect fill="#f2f5e9" fill-opacity="0.5" stroke="#606060" stroke-width=".5" x="0" y="0" width="60" height="60"/>
                <use id="zoomplus" xlink:href="#zoomPlus" x="17" y="9" onmousedown="handleZoom(evt,'in')"/>
                <use id="zoomminus" xlink:href="#zoomMin" x="42" y="9" onmousedown="handleZoom(evt,'out')"/>
                <use id="reset" xlink:href="#resetDef" x="30" y="36" onmousedown="handleReset()"/>
                <g id="arrowUp" xlink:href="#dirArrow" transform="translate(30 24)" onmousedown="handlePan(0,-1)">
                  <use xlink:href="#rim" fill="#404040">
                        <set attributeName="fill" to="#808080" begin="arrowUp.mouseover" end="arrowUp.mouseout"/>
                  </use>
                  <path fill="none" stroke="white" stroke-width="1.5" d="M0,-3.0v7 M-2.5,-0.5L0,-3.0L2.5,-0.5"/>
                </g>
                <g id="arrowRight" xlink:href="#dirArrow" transform="rotate(90) translate(36 -43)" onmousedown="handlePan(1,0)">
                  <use xlink:href="#rim" fill="#404040">
                        <set attributeName="fill" to="#808080" begin="arrowRight.mouseover" end="arrowRight.mouseout"/>
                  </use>
                  <path fill="none" stroke="white" stroke-width="1.5" d="M0,-3.0v7 M-2.5,-0.5L0,-3.0L2.5,-0.5"/>
                </g>
                <g id="arrowDown" xlink:href="#dirArrow" transform="rotate(180) translate(-30 -48)" onmousedown="handlePan(0,1)">
                  <use xlink:href="#rim" fill="#404040">
                        <set attributeName="fill" to="#808080" begin="arrowDown.mouseover" end="arrowDown.mouseout"/>
                  </use>
                  <path fill="none" stroke="white" stroke-width="1.5" d="M0,-3.0v7 M-2.5,-0.5L0,-3.0L2.5,-0.5"/>
                </g>
                <g id="arrowLeft" xlink:href="#dirArrow" transform="rotate(270) translate(-36 17)" onmousedown="handlePan(-1,0)">
                  <use xlink:href="#rim" fill="#404040">
                        <set attributeName="fill" to="#808080" begin="arrowLeft.mouseover" end="arrowLeft.mouseout"/>
                  </use>
                  <path fill="none" stroke="white" stroke-width="1.5" d="M0,-3.0v7 M-2.5,-0.5L0,-3.0L2.5,-0.5"/>
                </g>
        </g>
        <svg viewBox="0 0 15 15" width="100%" height="30px" preserveAspectRatio="xMaxYMin meet">
         <g id="arrow_out" transform="scale(0.3 0.3)">
          <a xlink:href="clms__db_8h__dep__incl_org.svg" target="_base">
           <rect id="button" ry="5" rx="5" y="6" x="6" height="38" width="38"
                fill="#f2f5e9" fill-opacity="0.5" stroke="#606060" stroke-width="1.0"/>
           <path id="arrow"
             d="M 11.500037,31.436501 C 11.940474,20.09759 22.043105,11.32322 32.158766,21.979434 L 37.068811,17.246167 C 37.068811,17.246167 37.088388,32 37.088388,32 L 22.160133,31.978069 C 22.160133,31.978069 26.997745,27.140456 26.997745,27.140456 C 18.528582,18.264221 13.291696,25.230495 11.500037,31.436501 z"
             style="fill:#404040;"/>
          </a>
         </g>
        </svg>
</svg>
