<?xml version="1.0" encoding="UTF-8" standalone="no"?>
<!DOCTYPE svg PUBLIC "-//W3C//DTD SVG 1.1//EN"
 "http://www.w3.org/Graphics/SVG/1.1/DTD/svg11.dtd">
<!-- Generated by graphviz version 2.38.0 (20140413.2041)
 -->
<!-- Title: S:/QT_CREATOR/Locker_Control/clms_db.h Pages: 1 -->
<!--zoomable 277 -->
<svg id="main" version="1.1" xmlns="http://www.w3.org/2000/svg" xmlns:xlink="http://www.w3.org/1999/xlink" xml:space="preserve" onload="init(evt)">
<style type="text/css"><![CDATA[
.edge:hover path { stroke: red; }
.edge:hover polygon { stroke: red; fill: red; }
]]></style>
<script type="text/javascript"><![CDATA[
var edges = document.getElementsByTagName('g');
if (edges && edges.length) {
  for (var i=0;i<edges.length;i++) {
    if (edges[i].id.substr(0,4)=='edge') {
      edges[i].setAttribute('class','edge');
    }
  }
}
]]></script>
        <defs>
                <circle id="rim" cx="0" cy="0" r="7"/>
                <circle id="rim2" cx="0" cy="0" r="3.5"/>
                <g id="zoomPlus">
                        <use xlink:href="#rim" target="_top" fill="#404040">
                                <set attributeName="fill" to="#808080" begin="zoomplus.mouseover" end="zoomplus.mouseout"/>
                        </use>
                        <path d="M-4,0h8M0,-4v8" fill="none" stroke="white" stroke-width="1.5" pointer-events="none"/>
                </g>
                <g id="zoomMin">
                        <use xlink:href="#rim" target="_top" fill="#404040">
                                <set attributeName="fill" to="#808080" begin="zoomminus.mouseover" end="zoomminus.mouseout"/>
                        </use>
                        <path d="M-4,0h8" fill="none" stroke="white" stroke-width="1.5" pointer-events="none"/>
                </g>
                <g id="dirArrow">
                        <path fill="none" stroke="white" stroke-width="1.5" d="M0,-3.0v7 M-2.5,-0.5L0,-3.0L2.5,-0.5"/>
                </g>
               <g id="resetDef">
                       <use xlink:href="#rim2" target="_top" fill="#404040">
                               <set attributeName="fill" to="#808080" begin="reset.mouseover" end="reset.mouseout"/>
                       </use>
               </g>
        </defs>

<script type="text/javascript">
var viewWidth = 680;
var viewHeight = 277;
var sectionId = 'dynsection-1';
</script>
<script xlink:href="svgpan.js" target="_top"/>
<svg id="graph" class="graph">
<g id="viewport">
<title>S:/QT_CREATOR/Locker_Control/clms_db.h</title>
<!-- Node1 -->
<g id="node1" class="node"><title>Node1</title>
<polygon fill="#bfbfbf" stroke="black" points="334.711,-244.5 334.711,-268.5 429.711,-268.5 429.711,-244.5 334.711,-244.5"/>
<text text-anchor="start" x="342.711" y="-258.9" font-family="Helvetica,sans-Serif" font-size="7.00">S:/QT_CREATOR/Locker</text>
<text text-anchor="middle" x="382.211" y="-250.9" font-family="Helvetica,sans-Serif" font-size="7.00">_Control/clms_db.h</text>
</g>
<!-- Node2 -->
<g id="node2" class="node"><title>Node2</title>
<g id="a_node2"><a xlink:href="csqlite__local__db_8h.html" target="_top" target="_top" xlink:title="S:/QT_CREATOR/Locker\l_Control/csqlite_local_db.h">
<polygon fill="none" stroke="red" points="194.711,-183.5 194.711,-207.5 295.711,-207.5 295.711,-183.5 194.711,-183.5"/>
<text text-anchor="start" x="202.711" y="-197.9" font-family="Helvetica,sans-Serif" font-size="7.00">S:/QT_CREATOR/Locker</text>
<text text-anchor="middle" x="245.211" y="-189.9" font-family="Helvetica,sans-Serif" font-size="7.00">_Control/csqlite_local_db.h</text>
</a>
</g>
</g>
<!-- Node1&#45;&gt;Node2 -->
<g id="edge1" class="edge"><title>Node1&#45;&gt;Node2</title>
<path fill="none" stroke="midnightblue" d="M347.053,-240.359C323.256,-230.111 292.358,-216.804 270.864,-207.548"/>
<polygon fill="midnightblue" stroke="midnightblue" points="345.873,-243.662 356.442,-244.403 348.642,-237.233 345.873,-243.662"/>
</g>
<!-- Node4 -->
<g id="node4" class="node"><title>Node4</title>
<g id="a_node4"><a xlink:href="consolewindows_8h.html" target="_top" target="_top" xlink:title="S:/QT_CREATOR/Locker\l_Control/consolewindows.h">
<polygon fill="none" stroke="red" points="139.711,-0.5 139.711,-24.5 240.711,-24.5 240.711,-0.5 139.711,-0.5"/>
<text text-anchor="start" x="147.711" y="-14.9" font-family="Helvetica,sans-Serif" font-size="7.00">S:/QT_CREATOR/Locker</text>
<text text-anchor="middle" x="190.211" y="-6.9" font-family="Helvetica,sans-Serif" font-size="7.00">_Control/consolewindows.h</text>
</a>
</g>
</g>
<!-- Node1&#45;&gt;Node4 -->
<g id="edge19" class="edge"><title>Node1&#45;&gt;Node4</title>
<path fill="none" stroke="midnightblue" d="M324.29,-247.592C228.156,-233.121 42.496,-199.004 5.21087,-147 -11.0169,-124.366 15.9512,-70.7626 26.2109,-61 56.5966,-32.0862 103.496,-20.6237 139.371,-16.1543"/>
<polygon fill="midnightblue" stroke="midnightblue" points="324.026,-251.091 334.431,-249.095 325.052,-244.166 324.026,-251.091"/>
</g>
<!-- Node7 -->
<g id="node7" class="node"><title>Node7</title>
<g id="a_node7"><a xlink:href="deliveryconfirm_8h.html" target="_top" target="_top" xlink:title="S:/QT_CREATOR/Locker\l_Control/deliveryconfirm.h">
<polygon fill="none" stroke="red" points="273.711,-61.5 273.711,-85.5 374.711,-85.5 374.711,-61.5 273.711,-61.5"/>
<text text-anchor="start" x="281.711" y="-75.9" font-family="Helvetica,sans-Serif" font-size="7.00">S:/QT_CREATOR/Locker</text>
<text text-anchor="middle" x="324.211" y="-67.9" font-family="Helvetica,sans-Serif" font-size="7.00">_Control/deliveryconfirm.h</text>
</a>
</g>
</g>
<!-- Node1&#45;&gt;Node7 -->
<g id="edge16" class="edge"><title>Node1&#45;&gt;Node7</title>
<path fill="none" stroke="midnightblue" d="M375.595,-234.855C363.323,-196.558 337.413,-115.699 327.853,-85.8673"/>
<polygon fill="midnightblue" stroke="midnightblue" points="372.285,-235.995 378.67,-244.45 378.951,-233.859 372.285,-235.995"/>
</g>
<!-- Node8 -->
<g id="node8" class="node"><title>Node8</title>
<g id="a_node8"><a xlink:href="threadsavedelivery_8h.html" target="_top" target="_top" xlink:title="S:/QT_CREATOR/Locker\l_Control/threadsavedelivery.h">
<polygon fill="none" stroke="red" points="408.211,-122.5 408.211,-146.5 520.211,-146.5 520.211,-122.5 408.211,-122.5"/>
<text text-anchor="start" x="416.211" y="-136.9" font-family="Helvetica,sans-Serif" font-size="7.00">S:/QT_CREATOR/Locker</text>
<text text-anchor="middle" x="464.211" y="-128.9" font-family="Helvetica,sans-Serif" font-size="7.00">_Control/threadsavedelivery.h</text>
</a>
</g>
</g>
<!-- Node1&#45;&gt;Node8 -->
<g id="edge17" class="edge"><title>Node1&#45;&gt;Node8</title>
<path fill="none" stroke="midnightblue" d="M395.571,-235.949C412.96,-210.502 442.763,-166.887 456.662,-146.547"/>
<polygon fill="midnightblue" stroke="midnightblue" points="392.53,-234.195 389.778,-244.426 398.31,-238.144 392.53,-234.195"/>
</g>
<!-- Node9 -->
<g id="node9" class="node"><title>Node9</title>
<g id="a_node9"><a xlink:href="settingsystem_8h.html" target="_top" target="_top" xlink:title="S:/QT_CREATOR/Locker\l_Control/settingsystem.h">
<polygon fill="none" stroke="red" points="404.211,-61.5 404.211,-85.5 500.211,-85.5 500.211,-61.5 404.211,-61.5"/>
<text text-anchor="start" x="412.211" y="-75.9" font-family="Helvetica,sans-Serif" font-size="7.00">S:/QT_CREATOR/Locker</text>
<text text-anchor="middle" x="452.211" y="-67.9" font-family="Helvetica,sans-Serif" font-size="7.00">_Control/settingsystem.h</text>
</a>
</g>
</g>
<!-- Node1&#45;&gt;Node9 -->
<g id="edge18" class="edge"><title>Node1&#45;&gt;Node9</title>
<path fill="none" stroke="midnightblue" d="M419.257,-240.197C454.813,-223.256 506.379,-192.229 529.211,-147 534.218,-137.081 534.626,-131.702 529.211,-122 519.643,-104.855 501.06,-93.1287 484.548,-85.6166"/>
<polygon fill="midnightblue" stroke="midnightblue" points="417.755,-237.035 410.14,-244.401 420.687,-243.391 417.755,-237.035"/>
</g>
<!-- Node10 -->
<g id="node10" class="node"><title>Node10</title>
<g id="a_node10"><a xlink:href="clms__db_8cpp.html" target="_top" target="_top" xlink:title="S:/QT_CREATOR/Locker\l_Control/clms_db.cpp">
<polygon fill="none" stroke="black" points="576.711,-183.5 576.711,-207.5 671.711,-207.5 671.711,-183.5 576.711,-183.5"/>
<text text-anchor="start" x="584.711" y="-197.9" font-family="Helvetica,sans-Serif" font-size="7.00">S:/QT_CREATOR/Locker</text>
<text text-anchor="middle" x="624.211" y="-189.9" font-family="Helvetica,sans-Serif" font-size="7.00">_Control/clms_db.cpp</text>
</a>
</g>
</g>
<!-- Node1&#45;&gt;Node10 -->
<g id="edge15" class="edge"><title>Node1&#45;&gt;Node10</title>
<path fill="none" stroke="midnightblue" d="M437.41,-242.042C480.178,-231.615 538.708,-217.346 578.788,-207.574"/>
<polygon fill="midnightblue" stroke="midnightblue" points="436.332,-238.703 427.445,-244.472 437.99,-245.503 436.332,-238.703"/>
</g>
<!-- Node3 -->
<g id="node3" class="node"><title>Node3</title>
<g id="a_node3"><a xlink:href="boxchoice_8h.html" target="_top" target="_top" xlink:title="S:/QT_CREATOR/Locker\l_Control/boxchoice.h">
<polygon fill="none" stroke="red" points="104.711,-61.5 104.711,-85.5 199.711,-85.5 199.711,-61.5 104.711,-61.5"/>
<text text-anchor="start" x="112.711" y="-75.9" font-family="Helvetica,sans-Serif" font-size="7.00">S:/QT_CREATOR/Locker</text>
<text text-anchor="middle" x="152.211" y="-67.9" font-family="Helvetica,sans-Serif" font-size="7.00">_Control/boxchoice.h</text>
</a>
</g>
</g>
<!-- Node2&#45;&gt;Node3 -->
<g id="edge2" class="edge"><title>Node2&#45;&gt;Node3</title>
<path fill="none" stroke="midnightblue" d="M209.433,-178.665C195.662,-170.933 180.926,-160.374 171.211,-147 157.675,-128.366 153.774,-100.841 152.655,-85.6279"/>
<polygon fill="midnightblue" stroke="midnightblue" points="207.804,-181.762 218.281,-183.339 211.073,-175.573 207.804,-181.762"/>
</g>
<!-- Node2&#45;&gt;Node4 -->
<g id="edge14" class="edge"><title>Node2&#45;&gt;Node4</title>
<path fill="none" stroke="midnightblue" d="M184.587,-190.202C124.87,-184.557 39.6925,-172.234 19.2109,-147 -25.7681,-91.5848 89.5418,-45.0591 152.484,-24.6269"/>
<polygon fill="midnightblue" stroke="midnightblue" points="184.404,-193.7 194.679,-191.116 185.035,-186.728 184.404,-193.7"/>
</g>
<!-- Node5 -->
<g id="node5" class="node"><title>Node5</title>
<g id="a_node5"><a xlink:href="cdoors_8h.html" target="_top" target="_top" xlink:title="S:/QT_CREATOR/Locker\l_Control/cdoors.h">
<polygon fill="none" stroke="red" points="28.7109,-122.5 28.7109,-146.5 123.711,-146.5 123.711,-122.5 28.7109,-122.5"/>
<text text-anchor="start" x="36.7109" y="-136.9" font-family="Helvetica,sans-Serif" font-size="7.00">S:/QT_CREATOR/Locker</text>
<text text-anchor="middle" x="76.2109" y="-128.9" font-family="Helvetica,sans-Serif" font-size="7.00">_Control/cdoors.h</text>
</a>
</g>
</g>
<!-- Node2&#45;&gt;Node5 -->
<g id="edge4" class="edge"><title>Node2&#45;&gt;Node5</title>
<path fill="none" stroke="midnightblue" d="M203.785,-180.038C174.185,-169.704 134.959,-156.01 107.856,-146.548"/>
<polygon fill="midnightblue" stroke="midnightblue" points="202.828,-183.411 213.423,-183.403 205.136,-176.802 202.828,-183.411"/>
</g>
<!-- Node6 -->
<g id="node6" class="node"><title>Node6</title>
<g id="a_node6"><a xlink:href="customer_8h.html" target="_top" target="_top" xlink:title="S:/QT_CREATOR/Locker\l_Control/customer.h">
<polygon fill="none" stroke="red" points="180.711,-122.5 180.711,-146.5 275.711,-146.5 275.711,-122.5 180.711,-122.5"/>
<text text-anchor="start" x="188.711" y="-136.9" font-family="Helvetica,sans-Serif" font-size="7.00">S:/QT_CREATOR/Locker</text>
<text text-anchor="middle" x="228.211" y="-128.9" font-family="Helvetica,sans-Serif" font-size="7.00">_Control/customer.h</text>
</a>
</g>
</g>
<!-- Node2&#45;&gt;Node6 -->
<g id="edge5" class="edge"><title>Node2&#45;&gt;Node6</title>
<path fill="none" stroke="midnightblue" d="M239.244,-173.791C236.601,-164.619 233.599,-154.2 231.394,-146.548"/>
<polygon fill="midnightblue" stroke="midnightblue" points="235.881,-174.763 242.013,-183.403 242.608,-172.824 235.881,-174.763"/>
</g>
<!-- Node2&#45;&gt;Node7 -->
<g id="edge7" class="edge"><title>Node2&#45;&gt;Node7</title>
<path fill="none" stroke="midnightblue" d="M262.176,-175.481C269.35,-167.035 277.564,-156.803 284.211,-147 298.248,-126.297 311.682,-100.244 318.849,-85.6777"/>
<polygon fill="midnightblue" stroke="midnightblue" points="259.348,-173.4 255.446,-183.25 264.639,-177.983 259.348,-173.4"/>
</g>
<!-- Node2&#45;&gt;Node8 -->
<g id="edge9" class="edge"><title>Node2&#45;&gt;Node8</title>
<path fill="none" stroke="midnightblue" d="M296.147,-180.778C334.76,-170.375 387.141,-156.263 423.105,-146.574"/>
<polygon fill="midnightblue" stroke="midnightblue" points="294.891,-177.491 286.146,-183.472 296.712,-184.25 294.891,-177.491"/>
</g>
<!-- Node2&#45;&gt;Node9 -->
<g id="edge13" class="edge"><title>Node2&#45;&gt;Node9</title>
<path fill="none" stroke="midnightblue" d="M273.078,-178.345C315.818,-153.568 396.452,-106.824 433.154,-85.5475"/>
<polygon fill="midnightblue" stroke="midnightblue" points="271.21,-175.382 264.314,-183.426 274.721,-181.438 271.21,-175.382"/>
</g>
<!-- Node3&#45;&gt;Node4 -->
<g id="edge3" class="edge"><title>Node3&#45;&gt;Node4</title>
<path fill="none" stroke="midnightblue" d="M164.791,-52.9676C170.875,-43.5209 177.955,-32.5288 183.095,-24.5477"/>
<polygon fill="midnightblue" stroke="midnightblue" points="161.831,-51.1002 159.358,-61.4026 167.716,-54.8906 161.831,-51.1002"/>
</g>
<!-- Node6&#45;&gt;Node4 -->
<g id="edge6" class="edge"><title>Node6&#45;&gt;Node4</title>
<path fill="none" stroke="midnightblue" d="M222.869,-112.109C219.107,-97.5897 213.767,-78.0118 208.211,-61 204.104,-48.4256 198.63,-34.279 194.801,-24.7197"/>
<polygon fill="midnightblue" stroke="midnightblue" points="219.554,-113.275 225.416,-122.101 226.337,-111.546 219.554,-113.275"/>
</g>
<!-- Node7&#45;&gt;Node4 -->
<g id="edge8" class="edge"><title>Node7&#45;&gt;Node4</title>
<path fill="none" stroke="midnightblue" d="M289.823,-57.3592C266.547,-47.1107 236.325,-33.8041 215.302,-24.5477"/>
<polygon fill="midnightblue" stroke="midnightblue" points="288.444,-60.5761 299.006,-61.4026 291.265,-54.1696 288.444,-60.5761"/>
</g>
<!-- Node8&#45;&gt;Node7 -->
<g id="edge10" class="edge"><title>Node8&#45;&gt;Node7</title>
<path fill="none" stroke="midnightblue" d="M428.607,-118.496C404.246,-108.229 372.488,-94.8453 350.426,-85.5477"/>
<polygon fill="midnightblue" stroke="midnightblue" points="427.304,-121.744 437.878,-122.403 430.022,-115.294 427.304,-121.744"/>
</g>
<!-- Node8&#45;&gt;Node9 -->
<g id="edge11" class="edge"><title>Node8&#45;&gt;Node9</title>
<path fill="none" stroke="midnightblue" d="M459.939,-112.495C458.088,-103.396 455.997,-93.1174 454.458,-85.5477"/>
<polygon fill="midnightblue" stroke="midnightblue" points="456.531,-113.301 461.954,-122.403 463.39,-111.906 456.531,-113.301"/>
</g>
<!-- Node9&#45;&gt;Node4 -->
<g id="edge12" class="edge"><title>Node9&#45;&gt;Node4</title>
<path fill="none" stroke="midnightblue" d="M394.231,-59.4434C347.75,-48.9763 283.247,-34.4509 239.294,-24.5531"/>
<polygon fill="midnightblue" stroke="midnightblue" points="393.631,-62.896 404.156,-61.6785 395.169,-56.067 393.631,-62.896"/>
</g>
</g>
</svg>
        <g id="navigator" transform="translate(0 0)" fill="#404254">
                <rect fill="#f2f5e9" fill-opacity="0.5" stroke="#606060" stroke-width=".5" x="0" y="0" width="60" height="60"/>
                <use id="zoomplus" xlink:href="#zoomPlus" target="_top" x="17" y="9" onmousedown="handleZoom(evt,'in')"/>
                <use id="zoomminus" xlink:href="#zoomMin" target="_top" x="42" y="9" onmousedown="handleZoom(evt,'out')"/>
                <use id="reset" xlink:href="#resetDef" target="_top" x="30" y="36" onmousedown="handleReset()"/>
                <g id="arrowUp" xlink:href="#dirArrow" target="_top" transform="translate(30 24)" onmousedown="handlePan(0,-1)">
                  <use xlink:href="#rim" target="_top" fill="#404040">
                        <set attributeName="fill" to="#808080" begin="arrowUp.mouseover" end="arrowUp.mouseout"/>
                  </use>
                  <path fill="none" stroke="white" stroke-width="1.5" d="M0,-3.0v7 M-2.5,-0.5L0,-3.0L2.5,-0.5"/>
                </g>
                <g id="arrowRight" xlink:href="#dirArrow" target="_top" transform="rotate(90) translate(36 -43)" onmousedown="handlePan(1,0)">
                  <use xlink:href="#rim" target="_top" fill="#404040">
                        <set attributeName="fill" to="#808080" begin="arrowRight.mouseover" end="arrowRight.mouseout"/>
                  </use>
                  <path fill="none" stroke="white" stroke-width="1.5" d="M0,-3.0v7 M-2.5,-0.5L0,-3.0L2.5,-0.5"/>
                </g>
                <g id="arrowDown" xlink:href="#dirArrow" target="_top" transform="rotate(180) translate(-30 -48)" onmousedown="handlePan(0,1)">
                  <use xlink:href="#rim" target="_top" fill="#404040">
                        <set attributeName="fill" to="#808080" begin="arrowDown.mouseover" end="arrowDown.mouseout"/>
                  </use>
                  <path fill="none" stroke="white" stroke-width="1.5" d="M0,-3.0v7 M-2.5,-0.5L0,-3.0L2.5,-0.5"/>
                </g>
                <g id="arrowLeft" xlink:href="#dirArrow" target="_top" transform="rotate(270) translate(-36 17)" onmousedown="handlePan(-1,0)">
                  <use xlink:href="#rim" target="_top" fill="#404040">
                        <set attributeName="fill" to="#808080" begin="arrowLeft.mouseover" end="arrowLeft.mouseout"/>
                  </use>
                  <path fill="none" stroke="white" stroke-width="1.5" d="M0,-3.0v7 M-2.5,-0.5L0,-3.0L2.5,-0.5"/>
                </g>
        </g>
        <svg viewBox="0 0 15 15" width="100%" height="30px" preserveAspectRatio="xMaxYMin meet">
         <g id="arrow_out" transform="scale(0.3 0.3)">
          <a xlink:href="clms__db_8h__dep__incl_org.svg" target="_top" target="_base">
           <rect id="button" ry="5" rx="5" y="6" x="6" height="38" width="38"
                fill="#f2f5e9" fill-opacity="0.5" stroke="#606060" stroke-width="1.0"/>
           <path id="arrow"
             d="M 11.500037,31.436501 C 11.940474,20.09759 22.043105,11.32322 32.158766,21.979434 L 37.068811,17.246167 C 37.068811,17.246167 37.088388,32 37.088388,32 L 22.160133,31.978069 C 22.160133,31.978069 26.997745,27.140456 26.997745,27.140456 C 18.528582,18.264221 13.291696,25.230495 11.500037,31.436501 z"
             style="fill:#404040;"/>
          </a>
         </g>
        </svg>
</svg>
