<?xml version="1.0" encoding="UTF-8" standalone="no"?>
<!DOCTYPE svg PUBLIC "-//W3C//DTD SVG 1.1//EN"
 "http://www.w3.org/Graphics/SVG/1.1/DTD/svg11.dtd">
<!-- Generated by graphviz version 2.38.0 (20140413.2041)
 -->
<!-- Title: S:/QT_CREATOR/Locker_Control/clms_db.cpp Pages: 1 -->
<svg width="292pt" height="192pt"
 viewBox="0.00 0.00 291.50 192.00" xmlns="http://www.w3.org/2000/svg" xmlns:xlink="http://www.w3.org/1999/xlink">
<g id="graph0" class="graph" transform="scale(1 1) rotate(0) translate(4 188)">
<title>S:/QT_CREATOR/Locker_Control/clms_db.cpp</title>
<!-- Node1 -->
<g id="node1" class="node"><title>Node1</title>
<polygon fill="#bfbfbf" stroke="black" points="82,-159.5 82,-183.5 177,-183.5 177,-159.5 82,-159.5"/>
<text text-anchor="start" x="90" y="-173.9" font-family="Helvetica,sans-Serif" font-size="7.00">S:/QT_CREATOR/Locker</text>
<text text-anchor="middle" x="129.5" y="-165.9" font-family="Helvetica,sans-Serif" font-size="7.00">_Control/clms_db.cpp</text>
</g>
<!-- Node2 -->
<g id="node2" class="node"><title>Node2</title>
<g id="a_node2"><a xlink:href="clms__db_8h.html" target="_top" xlink:title="clms_db.h">
<polygon fill="none" stroke="black" points="0,-106.5 0,-122.5 49,-122.5 49,-106.5 0,-106.5"/>
<text text-anchor="middle" x="24.5" y="-112.9" font-family="Helvetica,sans-Serif" font-size="7.00">clms_db.h</text>
</a>
</g>
</g>
<!-- Node1&#45;&gt;Node2 -->
<g id="edge1" class="edge"><title>Node1&#45;&gt;Node2</title>
<path fill="none" stroke="midnightblue" d="M108.252,-159.37C90.5552,-150.1 65.4105,-136.929 47.2967,-127.441"/>
<polygon fill="midnightblue" stroke="midnightblue" points="48.5312,-124.137 38.0488,-122.597 45.2831,-130.338 48.5312,-124.137"/>
</g>
<!-- Node3 -->
<g id="node3" class="node"><title>Node3</title>
<g id="a_node3"><a xlink:href="_data_structures_8h.html" target="_top" xlink:title="Definnitions des formats de communications des données entre les classes de l&#39;application LC...">
<polygon fill="none" stroke="black" points="15.5,-53.5 15.5,-69.5 85.5,-69.5 85.5,-53.5 15.5,-53.5"/>
<text text-anchor="middle" x="50.5" y="-59.9" font-family="Helvetica,sans-Serif" font-size="7.00">DataStructures.h</text>
</a>
</g>
</g>
<!-- Node1&#45;&gt;Node3 -->
<g id="edge5" class="edge"><title>Node1&#45;&gt;Node3</title>
<path fill="none" stroke="midnightblue" d="M121.343,-159.349C107.131,-139.92 77.8115,-99.8372 61.7045,-77.8175"/>
<polygon fill="midnightblue" stroke="midnightblue" points="64.4218,-75.604 55.6929,-69.5992 58.772,-79.7368 64.4218,-75.604"/>
</g>
<!-- Node6 -->
<g id="node6" class="node"><title>Node6</title>
<polygon fill="none" stroke="#bfbfbf" points="106,-106.5 106,-122.5 153,-122.5 153,-106.5 106,-106.5"/>
<text text-anchor="middle" x="129.5" y="-112.9" font-family="Helvetica,sans-Serif" font-size="7.00">QProcess</text>
</g>
<!-- Node1&#45;&gt;Node6 -->
<g id="edge6" class="edge"><title>Node1&#45;&gt;Node6</title>
<path fill="none" stroke="midnightblue" d="M129.5,-159.37C129.5,-151.775 129.5,-141.56 129.5,-132.899"/>
<polygon fill="midnightblue" stroke="midnightblue" points="133,-132.757 129.5,-122.757 126,-132.758 133,-132.757"/>
</g>
<!-- Node7 -->
<g id="node7" class="node"><title>Node7</title>
<polygon fill="none" stroke="#bfbfbf" points="171.5,-106.5 171.5,-122.5 223.5,-122.5 223.5,-106.5 171.5,-106.5"/>
<text text-anchor="middle" x="197.5" y="-112.9" font-family="Helvetica,sans-Serif" font-size="7.00">QDateTime</text>
</g>
<!-- Node1&#45;&gt;Node7 -->
<g id="edge7" class="edge"><title>Node1&#45;&gt;Node7</title>
<path fill="none" stroke="midnightblue" d="M143.261,-159.37C154.023,-150.665 169.038,-138.52 180.543,-129.215"/>
<polygon fill="midnightblue" stroke="midnightblue" points="182.953,-131.767 188.527,-122.757 178.551,-126.325 182.953,-131.767"/>
</g>
<!-- Node8 -->
<g id="node8" class="node"><title>Node8</title>
<polygon fill="none" stroke="#bfbfbf" points="241.5,-106.5 241.5,-122.5 283.5,-122.5 283.5,-106.5 241.5,-106.5"/>
<text text-anchor="middle" x="262.5" y="-112.9" font-family="Helvetica,sans-Serif" font-size="7.00">QDebug</text>
</g>
<!-- Node1&#45;&gt;Node8 -->
<g id="edge8" class="edge"><title>Node1&#45;&gt;Node8</title>
<path fill="none" stroke="midnightblue" d="M156.415,-159.37C179.556,-149.8 212.754,-136.072 235.826,-126.531"/>
<polygon fill="midnightblue" stroke="midnightblue" points="237.435,-129.653 245.338,-122.597 234.76,-123.184 237.435,-129.653"/>
</g>
<!-- Node2&#45;&gt;Node3 -->
<g id="edge2" class="edge"><title>Node2&#45;&gt;Node3</title>
<path fill="none" stroke="midnightblue" d="M28.1152,-106.409C31.7631,-99.2531 37.5221,-87.9567 42.2851,-78.6139"/>
<polygon fill="midnightblue" stroke="midnightblue" points="45.4918,-80.0299 46.9155,-69.5311 39.2554,-76.8505 45.4918,-80.0299"/>
</g>
<!-- Node4 -->
<g id="node4" class="node"><title>Node4</title>
<polygon fill="none" stroke="#bfbfbf" points="3.5,-0.5 3.5,-16.5 43.5,-16.5 43.5,-0.5 3.5,-0.5"/>
<text text-anchor="middle" x="23.5" y="-6.9" font-family="Helvetica,sans-Serif" font-size="7.00">QString</text>
</g>
<!-- Node3&#45;&gt;Node4 -->
<g id="edge3" class="edge"><title>Node3&#45;&gt;Node4</title>
<path fill="none" stroke="midnightblue" d="M46.7458,-53.4087C42.9575,-46.2531 36.9771,-34.9567 32.0309,-25.6139"/>
<polygon fill="midnightblue" stroke="midnightblue" points="34.9945,-23.7314 27.2223,-16.5311 28.808,-27.0066 34.9945,-23.7314"/>
</g>
<!-- Node5 -->
<g id="node5" class="node"><title>Node5</title>
<polygon fill="none" stroke="#bfbfbf" points="62,-0.5 62,-16.5 95,-16.5 95,-0.5 62,-0.5"/>
<text text-anchor="middle" x="78.5" y="-6.9" font-family="Helvetica,sans-Serif" font-size="7.00">QList</text>
</g>
<!-- Node3&#45;&gt;Node5 -->
<g id="edge4" class="edge"><title>Node3&#45;&gt;Node5</title>
<path fill="none" stroke="midnightblue" d="M54.3933,-53.4087C58.3636,-46.177 64.656,-34.7159 69.8165,-25.3164"/>
<polygon fill="midnightblue" stroke="midnightblue" points="72.8952,-26.9813 74.6398,-16.5311 66.7591,-23.6125 72.8952,-26.9813"/>
</g>
</g>
</svg>
