<?xml version="1.0" encoding="UTF-8" standalone="no"?>
<!DOCTYPE svg PUBLIC "-//W3C//DTD SVG 1.1//EN"
 "http://www.w3.org/Graphics/SVG/1.1/DTD/svg11.dtd">
<!-- Generated by graphviz version 2.38.0 (20140413.2041)
 -->
<!-- Title: S:/QT_CREATOR/Locker_Control/consolewindows.cpp Pages: 1 -->
<svg width="444pt" height="139pt"
 viewBox="0.00 0.00 444.00 139.00" xmlns="http://www.w3.org/2000/svg" xmlns:xlink="http://www.w3.org/1999/xlink">
<g id="graph0" class="graph" transform="scale(1 1) rotate(0) translate(4 135)">
<title>S:/QT_CREATOR/Locker_Control/consolewindows.cpp</title>
<!-- Node1 -->
<g id="node1" class="node"><title>Node1</title>
<polygon fill="#bfbfbf" stroke="black" points="250,-106.5 250,-130.5 358,-130.5 358,-106.5 250,-106.5"/>
<text text-anchor="start" x="258" y="-120.9" font-family="Helvetica,sans-Serif" font-size="7.00">S:/QT_CREATOR/Locker</text>
<text text-anchor="middle" x="304" y="-112.9" font-family="Helvetica,sans-Serif" font-size="7.00">_Control/consolewindows.cpp</text>
</g>
<!-- Node2 -->
<g id="node2" class="node"><title>Node2</title>
<g id="a_node2"><a xlink:href="consolewindows_8h.html" target="_top" target="_top" xlink:title="consolewindows.h">
<polygon fill="none" stroke="red" points="130,-53.5 130,-69.5 202,-69.5 202,-53.5 130,-53.5"/>
<text text-anchor="middle" x="166" y="-59.9" font-family="Helvetica,sans-Serif" font-size="7.00">consolewindows.h</text>
</a>
</g>
</g>
<!-- Node1&#45;&gt;Node2 -->
<g id="edge1" class="edge"><title>Node1&#45;&gt;Node2</title>
<path fill="none" stroke="midnightblue" d="M276.074,-106.37C251.954,-96.7571 217.307,-82.9483 193.355,-73.4024"/>
<polygon fill="midnightblue" stroke="midnightblue" points="194.392,-70.0481 183.807,-69.597 191.801,-76.5506 194.392,-70.0481"/>
</g>
<!-- Node8 -->
<g id="node8" class="node"><title>Node8</title>
<polygon fill="none" stroke="#bfbfbf" points="220.5,-53.5 220.5,-69.5 301.5,-69.5 301.5,-53.5 220.5,-53.5"/>
<text text-anchor="middle" x="261" y="-59.9" font-family="Helvetica,sans-Serif" font-size="7.00">ui_consolewindows.h</text>
</g>
<!-- Node1&#45;&gt;Node8 -->
<g id="edge7" class="edge"><title>Node1&#45;&gt;Node8</title>
<path fill="none" stroke="midnightblue" d="M295.298,-106.37C288.893,-98.1774 280.106,-86.9373 273.029,-77.8857"/>
<polygon fill="midnightblue" stroke="midnightblue" points="275.591,-75.4798 266.674,-69.7575 270.076,-79.7913 275.591,-75.4798"/>
</g>
<!-- Node9 -->
<g id="node9" class="node"><title>Node9</title>
<polygon fill="none" stroke="#bfbfbf" points="320,-53.5 320,-69.5 376,-69.5 376,-53.5 320,-53.5"/>
<text text-anchor="middle" x="348" y="-59.9" font-family="Helvetica,sans-Serif" font-size="7.00">QApplication</text>
</g>
<!-- Node1&#45;&gt;Node9 -->
<g id="edge8" class="edge"><title>Node1&#45;&gt;Node9</title>
<path fill="none" stroke="midnightblue" d="M312.904,-106.37C319.526,-98.0921 328.638,-86.7028 335.917,-77.6036"/>
<polygon fill="midnightblue" stroke="midnightblue" points="338.68,-79.7526 342.194,-69.7575 333.214,-75.3797 338.68,-79.7526"/>
</g>
<!-- Node10 -->
<g id="node10" class="node"><title>Node10</title>
<polygon fill="none" stroke="#bfbfbf" points="394,-53.5 394,-69.5 436,-69.5 436,-53.5 394,-53.5"/>
<text text-anchor="middle" x="415" y="-59.9" font-family="Helvetica,sans-Serif" font-size="7.00">QDebug</text>
</g>
<!-- Node1&#45;&gt;Node10 -->
<g id="edge9" class="edge"><title>Node1&#45;&gt;Node10</title>
<path fill="none" stroke="midnightblue" d="M326.463,-106.37C345.43,-96.9716 372.492,-83.5627 391.694,-74.0479"/>
<polygon fill="midnightblue" stroke="midnightblue" points="393.271,-77.173 400.677,-69.597 390.163,-70.9007 393.271,-77.173"/>
</g>
<!-- Node3 -->
<g id="node3" class="node"><title>Node3</title>
<polygon fill="none" stroke="#bfbfbf" points="0,-0.5 0,-16.5 60,-16.5 60,-0.5 0,-0.5"/>
<text text-anchor="middle" x="30" y="-6.9" font-family="Helvetica,sans-Serif" font-size="7.00">QMainWindow</text>
</g>
<!-- Node2&#45;&gt;Node3 -->
<g id="edge2" class="edge"><title>Node2&#45;&gt;Node3</title>
<path fill="none" stroke="midnightblue" d="M147.09,-53.4087C124.05,-44.7688 84.9111,-30.0917 58.2829,-20.1061"/>
<polygon fill="midnightblue" stroke="midnightblue" points="59.3419,-16.7652 48.7496,-16.5311 56.884,-23.3196 59.3419,-16.7652"/>
</g>
<!-- Node4 -->
<g id="node4" class="node"><title>Node4</title>
<polygon fill="none" stroke="#bfbfbf" points="78.5,-0.5 78.5,-16.5 117.5,-16.5 117.5,-0.5 78.5,-0.5"/>
<text text-anchor="middle" x="98" y="-6.9" font-family="Helvetica,sans-Serif" font-size="7.00">QTimer</text>
</g>
<!-- Node2&#45;&gt;Node4 -->
<g id="edge3" class="edge"><title>Node2&#45;&gt;Node4</title>
<path fill="none" stroke="midnightblue" d="M156.545,-53.4087C145.989,-45.4919 128.675,-32.5063 115.608,-22.7058"/>
<polygon fill="midnightblue" stroke="midnightblue" points="117.475,-19.7311 107.375,-16.5311 113.275,-25.3311 117.475,-19.7311"/>
</g>
<!-- Node5 -->
<g id="node5" class="node"><title>Node5</title>
<polygon fill="none" stroke="#bfbfbf" points="135.5,-0.5 135.5,-16.5 196.5,-16.5 196.5,-0.5 135.5,-0.5"/>
<text text-anchor="middle" x="166" y="-6.9" font-family="Helvetica,sans-Serif" font-size="7.00">QMouseEvent</text>
</g>
<!-- Node2&#45;&gt;Node5 -->
<g id="edge4" class="edge"><title>Node2&#45;&gt;Node5</title>
<path fill="none" stroke="midnightblue" d="M166,-53.4087C166,-46.5576 166,-35.9106 166,-26.8167"/>
<polygon fill="midnightblue" stroke="midnightblue" points="169.5,-26.5311 166,-16.5311 162.5,-26.5311 169.5,-26.5311"/>
</g>
<!-- Node6 -->
<g id="node6" class="node"><title>Node6</title>
<polygon fill="none" stroke="#bfbfbf" points="214.5,-0.5 214.5,-16.5 247.5,-16.5 247.5,-0.5 214.5,-0.5"/>
<text text-anchor="middle" x="231" y="-6.9" font-family="Helvetica,sans-Serif" font-size="7.00">QList</text>
</g>
<!-- Node2&#45;&gt;Node6 -->
<g id="edge5" class="edge"><title>Node2&#45;&gt;Node6</title>
<path fill="none" stroke="midnightblue" d="M175.038,-53.4087C185.128,-45.4919 201.678,-32.5063 214.169,-22.7058"/>
<polygon fill="midnightblue" stroke="midnightblue" points="216.332,-25.4576 222.039,-16.5311 212.011,-19.9504 216.332,-25.4576"/>
</g>
<!-- Node7 -->
<g id="node7" class="node"><title>Node7</title>
<polygon fill="none" stroke="#bfbfbf" points="265.5,-0.5 265.5,-16.5 316.5,-16.5 316.5,-0.5 265.5,-0.5"/>
<text text-anchor="middle" x="291" y="-6.9" font-family="Helvetica,sans-Serif" font-size="7.00">QStringList</text>
</g>
<!-- Node2&#45;&gt;Node7 -->
<g id="edge6" class="edge"><title>Node2&#45;&gt;Node7</title>
<path fill="none" stroke="midnightblue" d="M183.381,-53.4087C204.37,-44.8449 239.897,-30.3498 264.355,-20.3711"/>
<polygon fill="midnightblue" stroke="midnightblue" points="265.83,-23.5495 273.767,-16.5311 263.186,-17.0682 265.83,-23.5495"/>
</g>
</g>
</svg>
