<?xml version="1.0" encoding="UTF-8" standalone="no"?>
<!DOCTYPE svg PUBLIC "-//W3C//DTD SVG 1.1//EN"
 "http://www.w3.org/Graphics/SVG/1.1/DTD/svg11.dtd">
<!-- Generated by graphviz version 2.38.0 (20140413.2041)
 -->
<!-- Title: S:/QT_CREATOR/Locker_Control/consolewindows.h Pages: 1 -->
<svg width="434pt" height="301pt"
 viewBox="0.00 0.00 433.50 301.00" xmlns="http://www.w3.org/2000/svg" xmlns:xlink="http://www.w3.org/1999/xlink">
<g id="graph0" class="graph" transform="scale(1 1) rotate(0) translate(4 297)">
<title>S:/QT_CREATOR/Locker_Control/consolewindows.h</title>
<!-- Node1 -->
<g id="node1" class="node"><title>Node1</title>
<polygon fill="#bfbfbf" stroke="black" points="94.5,-268.5 94.5,-292.5 195.5,-292.5 195.5,-268.5 94.5,-268.5"/>
<text text-anchor="start" x="102.5" y="-282.9" font-family="Helvetica,sans-Serif" font-size="7.00">S:/QT_CREATOR/Locker</text>
<text text-anchor="middle" x="145" y="-274.9" font-family="Helvetica,sans-Serif" font-size="7.00">_Control/consolewindows.h</text>
</g>
<!-- Node2 -->
<g id="node2" class="node"><title>Node2</title>
<g id="a_node2"><a xlink:href="consolewindows_8cpp.html" target="_top" target="_top" xlink:title="S:/QT_CREATOR/Locker\l_Control/consolewindows.cpp">
<polygon fill="none" stroke="black" points="0,-207.5 0,-231.5 108,-231.5 108,-207.5 0,-207.5"/>
<text text-anchor="start" x="8" y="-221.9" font-family="Helvetica,sans-Serif" font-size="7.00">S:/QT_CREATOR/Locker</text>
<text text-anchor="middle" x="54" y="-213.9" font-family="Helvetica,sans-Serif" font-size="7.00">_Control/consolewindows.cpp</text>
</a>
</g>
</g>
<!-- Node1&#45;&gt;Node2 -->
<g id="edge1" class="edge"><title>Node1&#45;&gt;Node2</title>
<path fill="none" stroke="midnightblue" d="M119.296,-262.835C103.848,-252.819 84.6186,-240.352 71.0397,-231.548"/>
<polygon fill="midnightblue" stroke="midnightblue" points="117.589,-265.899 127.884,-268.403 121.397,-260.026 117.589,-265.899"/>
</g>
<!-- Node3 -->
<g id="node3" class="node"><title>Node3</title>
<g id="a_node3"><a xlink:href="thread__databasemanager_8h.html" target="_top" target="_top" xlink:title="S:/QT_CREATOR/Locker\l_Control/thread_databasemanager.h">
<polygon fill="none" stroke="black" points="182,-207.5 182,-231.5 312,-231.5 312,-207.5 182,-207.5"/>
<text text-anchor="start" x="190" y="-221.9" font-family="Helvetica,sans-Serif" font-size="7.00">S:/QT_CREATOR/Locker</text>
<text text-anchor="middle" x="247" y="-213.9" font-family="Helvetica,sans-Serif" font-size="7.00">_Control/thread_databasemanager.h</text>
</a>
</g>
</g>
<!-- Node1&#45;&gt;Node3 -->
<g id="edge2" class="edge"><title>Node1&#45;&gt;Node3</title>
<path fill="none" stroke="midnightblue" d="M172.844,-263.394C190.318,-253.287 212.396,-240.516 227.901,-231.548"/>
<polygon fill="midnightblue" stroke="midnightblue" points="171.089,-260.366 164.185,-268.403 174.594,-266.425 171.089,-260.366"/>
</g>
<!-- Node4 -->
<g id="node4" class="node"><title>Node4</title>
<g id="a_node4"><a xlink:href="sqlite__local__databasemanager_8h.html" target="_top" target="_top" xlink:title="S:/QT_CREATOR/Locker\l_Control/sqlite_local\l_databasemanager.h">
<polygon fill="none" stroke="black" points="97.5,-138.5 97.5,-170.5 192.5,-170.5 192.5,-138.5 97.5,-138.5"/>
<text text-anchor="start" x="105.5" y="-160.9" font-family="Helvetica,sans-Serif" font-size="7.00">S:/QT_CREATOR/Locker</text>
<text text-anchor="start" x="105.5" y="-152.9" font-family="Helvetica,sans-Serif" font-size="7.00">_Control/sqlite_local</text>
<text text-anchor="middle" x="145" y="-144.9" font-family="Helvetica,sans-Serif" font-size="7.00">_databasemanager.h</text>
</a>
</g>
</g>
<!-- Node1&#45;&gt;Node4 -->
<g id="edge12" class="edge"><title>Node1&#45;&gt;Node4</title>
<path fill="none" stroke="midnightblue" d="M139.769,-258.31C137.561,-233.462 137.76,-192.882 140.366,-170.87"/>
<polygon fill="midnightblue" stroke="midnightblue" points="136.322,-258.967 140.953,-268.496 143.275,-258.159 136.322,-258.967"/>
</g>
<!-- Node9 -->
<g id="node9" class="node"><title>Node9</title>
<g id="a_node9"><a xlink:href="main_8cpp.html" target="_top" target="_top" xlink:title="S:/QT_CREATOR/Locker\l_Control/main.cpp">
<polygon fill="none" stroke="black" points="330.5,-207.5 330.5,-231.5 425.5,-231.5 425.5,-207.5 330.5,-207.5"/>
<text text-anchor="start" x="338.5" y="-221.9" font-family="Helvetica,sans-Serif" font-size="7.00">S:/QT_CREATOR/Locker</text>
<text text-anchor="middle" x="378" y="-213.9" font-family="Helvetica,sans-Serif" font-size="7.00">_Control/main.cpp</text>
</a>
</g>
</g>
<!-- Node1&#45;&gt;Node9 -->
<g id="edge13" class="edge"><title>Node1&#45;&gt;Node9</title>
<path fill="none" stroke="midnightblue" d="M198.407,-265.976C239.562,-255.555 295.759,-241.325 334.266,-231.574"/>
<polygon fill="midnightblue" stroke="midnightblue" points="197.387,-262.624 188.552,-268.472 199.105,-269.41 197.387,-262.624"/>
</g>
<!-- Node3&#45;&gt;Node4 -->
<g id="edge3" class="edge"><title>Node3&#45;&gt;Node4</title>
<path fill="none" stroke="midnightblue" d="M214.691,-202.245C197.789,-192.458 177.802,-180.084 163.476,-170.526"/>
<polygon fill="midnightblue" stroke="midnightblue" points="213.286,-205.473 223.708,-207.382 216.751,-199.391 213.286,-205.473"/>
</g>
<!-- Node8 -->
<g id="node8" class="node"><title>Node8</title>
<g id="a_node8"><a xlink:href="thread__databasemanager_8cpp.html" target="_top" target="_top" xlink:title="S:/QT_CREATOR/Locker\l_Control/thread_databasemanager.cpp">
<polygon fill="none" stroke="black" points="210.5,-142.5 210.5,-166.5 347.5,-166.5 347.5,-142.5 210.5,-142.5"/>
<text text-anchor="start" x="218.5" y="-156.9" font-family="Helvetica,sans-Serif" font-size="7.00">S:/QT_CREATOR/Locker</text>
<text text-anchor="middle" x="279" y="-148.9" font-family="Helvetica,sans-Serif" font-size="7.00">_Control/thread_databasemanager.cpp</text>
</a>
</g>
</g>
<!-- Node3&#45;&gt;Node8 -->
<g id="edge11" class="edge"><title>Node3&#45;&gt;Node8</title>
<path fill="none" stroke="midnightblue" d="M257.254,-198.312C262.579,-187.829 268.883,-175.418 273.329,-166.666"/>
<polygon fill="midnightblue" stroke="midnightblue" points="254.129,-196.736 252.721,-207.237 260.37,-199.906 254.129,-196.736"/>
</g>
<!-- Node4&#45;&gt;Node1 -->
<g id="edge4" class="edge"><title>Node4&#45;&gt;Node1</title>
<path fill="none" stroke="midnightblue" d="M150.585,-181.084C152.545,-207.971 152.032,-249.012 149.047,-268.496"/>
<polygon fill="midnightblue" stroke="midnightblue" points="154.046,-180.503 149.634,-170.87 147.076,-181.152 154.046,-180.503"/>
</g>
<!-- Node4&#45;&gt;Node3 -->
<g id="edge5" class="edge"><title>Node4&#45;&gt;Node3</title>
<path fill="none" stroke="midnightblue" d="M184.44,-175.929C202.019,-186.322 221.478,-198.557 234.08,-207.237"/>
<polygon fill="midnightblue" stroke="midnightblue" points="185.866,-172.708 175.465,-170.69 182.337,-178.754 185.866,-172.708"/>
</g>
<!-- Node5 -->
<g id="node5" class="node"><title>Node5</title>
<g id="a_node5"><a xlink:href="thread__localdatabase__autosave_8h.html" target="_top" target="_top" xlink:title="S:/QT_CREATOR/Locker\l_Control/thread_localdatabase\l_autosave.h">
<polygon fill="none" stroke="black" points="89.5,-69.5 89.5,-101.5 200.5,-101.5 200.5,-69.5 89.5,-69.5"/>
<text text-anchor="start" x="97.5" y="-91.9" font-family="Helvetica,sans-Serif" font-size="7.00">S:/QT_CREATOR/Locker</text>
<text text-anchor="start" x="97.5" y="-83.9" font-family="Helvetica,sans-Serif" font-size="7.00">_Control/thread_localdatabase</text>
<text text-anchor="middle" x="145" y="-75.9" font-family="Helvetica,sans-Serif" font-size="7.00">_autosave.h</text>
</a>
</g>
</g>
<!-- Node4&#45;&gt;Node5 -->
<g id="edge6" class="edge"><title>Node4&#45;&gt;Node5</title>
<path fill="none" stroke="midnightblue" d="M138.438,-128.318C138.024,-119.341 138.293,-109.514 139.246,-101.643"/>
<polygon fill="midnightblue" stroke="midnightblue" points="134.95,-128.609 139.239,-138.297 141.928,-128.049 134.95,-128.609"/>
</g>
<!-- Node6 -->
<g id="node6" class="node"><title>Node6</title>
<g id="a_node6"><a xlink:href="sqlite__local__databasemanager_8cpp.html" target="_top" target="_top" xlink:title="S:/QT_CREATOR/Locker\l_Control/sqlite_local\l_databasemanager.cpp">
<polygon fill="none" stroke="black" points="13.5,-0.5 13.5,-32.5 108.5,-32.5 108.5,-0.5 13.5,-0.5"/>
<text text-anchor="start" x="21.5" y="-22.9" font-family="Helvetica,sans-Serif" font-size="7.00">S:/QT_CREATOR/Locker</text>
<text text-anchor="start" x="21.5" y="-14.9" font-family="Helvetica,sans-Serif" font-size="7.00">_Control/sqlite_local</text>
<text text-anchor="middle" x="61" y="-6.9" font-family="Helvetica,sans-Serif" font-size="7.00">_databasemanager.cpp</text>
</a>
</g>
</g>
<!-- Node4&#45;&gt;Node6 -->
<g id="edge10" class="edge"><title>Node4&#45;&gt;Node6</title>
<path fill="none" stroke="midnightblue" d="M109.867,-132.52C98.7947,-124.298 87.5075,-113.949 80,-102 66.4809,-80.483 62.5309,-50.5496 61.4075,-32.6892"/>
<polygon fill="midnightblue" stroke="midnightblue" points="108.029,-135.506 118.225,-138.384 112.049,-129.775 108.029,-135.506"/>
</g>
<!-- Node5&#45;&gt;Node4 -->
<g id="edge7" class="edge"><title>Node5&#45;&gt;Node4</title>
<path fill="none" stroke="midnightblue" d="M151.558,-111.614C151.976,-120.586 151.711,-130.416 150.761,-138.297"/>
<polygon fill="midnightblue" stroke="midnightblue" points="155.047,-111.329 150.754,-101.643 148.07,-111.892 155.047,-111.329"/>
</g>
<!-- Node5&#45;&gt;Node6 -->
<g id="edge8" class="edge"><title>Node5&#45;&gt;Node6</title>
<path fill="none" stroke="midnightblue" d="M117.77,-62.7808C105.43,-52.9383 91.1409,-41.541 79.9855,-32.6432"/>
<polygon fill="midnightblue" stroke="midnightblue" points="115.939,-65.7973 125.939,-69.2967 120.304,-60.3248 115.939,-65.7973"/>
</g>
<!-- Node7 -->
<g id="node7" class="node"><title>Node7</title>
<g id="a_node7"><a xlink:href="thread__localdatabase__autosave_8cpp.html" target="_top" target="_top" xlink:title="S:/QT_CREATOR/Locker\l_Control/thread_localdatabase\l_autosave.cpp">
<polygon fill="none" stroke="black" points="126.5,-0.5 126.5,-32.5 237.5,-32.5 237.5,-0.5 126.5,-0.5"/>
<text text-anchor="start" x="134.5" y="-22.9" font-family="Helvetica,sans-Serif" font-size="7.00">S:/QT_CREATOR/Locker</text>
<text text-anchor="start" x="134.5" y="-14.9" font-family="Helvetica,sans-Serif" font-size="7.00">_Control/thread_localdatabase</text>
<text text-anchor="middle" x="182" y="-6.9" font-family="Helvetica,sans-Serif" font-size="7.00">_autosave.cpp</text>
</a>
</g>
</g>
<!-- Node5&#45;&gt;Node7 -->
<g id="edge9" class="edge"><title>Node5&#45;&gt;Node7</title>
<path fill="none" stroke="midnightblue" d="M158.263,-60.4837C163.39,-51.1996 169.102,-40.8565 173.637,-32.6432"/>
<polygon fill="midnightblue" stroke="midnightblue" points="155.166,-58.8508 153.396,-69.2967 161.294,-62.2348 155.166,-58.8508"/>
</g>
</g>
</svg>
