<?xml version="1.0" encoding="UTF-8" standalone="no"?>
<!DOCTYPE svg PUBLIC "-//W3C//DTD SVG 1.1//EN"
 "http://www.w3.org/Graphics/SVG/1.1/DTD/svg11.dtd">
<!-- Generated by graphviz version 2.38.0 (20140413.2041)
 -->
<!-- Title: S:/QT_CREATOR/Locker_Control/consolewindows.cpp Pages: 1 -->
<svg width="402pt" height="139pt"
 viewBox="0.00 0.00 402.00 139.00" xmlns="http://www.w3.org/2000/svg" xmlns:xlink="http://www.w3.org/1999/xlink">
<g id="graph0" class="graph" transform="scale(1 1) rotate(0) translate(4 135)">
<title>S:/QT_CREATOR/Locker_Control/consolewindows.cpp</title>
<!-- Node1 -->
<g id="node1" class="node"><title>Node1</title>
<polygon fill="#bfbfbf" stroke="black" points="239,-106.5 239,-130.5 347,-130.5 347,-106.5 239,-106.5"/>
<text text-anchor="start" x="247" y="-120.9" font-family="Helvetica,sans-Serif" font-size="7.00">S:/QT_CREATOR/Locker</text>
<text text-anchor="middle" x="293" y="-112.9" font-family="Helvetica,sans-Serif" font-size="7.00">_Control/consolewindows.cpp</text>
</g>
<!-- Node2 -->
<g id="node2" class="node"><title>Node2</title>
<g id="a_node2"><a xlink:href="consolewindows_8h.html" target="_top" xlink:title="consolewindows.h">
<polygon fill="none" stroke="red" points="162,-53.5 162,-69.5 234,-69.5 234,-53.5 162,-53.5"/>
<text text-anchor="middle" x="198" y="-59.9" font-family="Helvetica,sans-Serif" font-size="7.00">consolewindows.h</text>
</a>
</g>
</g>
<!-- Node1&#45;&gt;Node2 -->
<g id="edge1" class="edge"><title>Node1&#45;&gt;Node2</title>
<path fill="none" stroke="midnightblue" d="M273.775,-106.37C257.913,-97.1862 235.435,-84.1729 219.082,-74.7056"/>
<polygon fill="midnightblue" stroke="midnightblue" points="220.666,-71.5784 210.258,-69.597 217.159,-77.6364 220.666,-71.5784"/>
</g>
<!-- Node9 -->
<g id="node9" class="node"><title>Node9</title>
<polygon fill="none" stroke="#bfbfbf" points="252.5,-53.5 252.5,-69.5 333.5,-69.5 333.5,-53.5 252.5,-53.5"/>
<text text-anchor="middle" x="293" y="-59.9" font-family="Helvetica,sans-Serif" font-size="7.00">ui_consolewindows.h</text>
</g>
<!-- Node1&#45;&gt;Node9 -->
<g id="edge8" class="edge"><title>Node1&#45;&gt;Node9</title>
<path fill="none" stroke="midnightblue" d="M293,-106.37C293,-98.7748 293,-88.5603 293,-79.8986"/>
<polygon fill="midnightblue" stroke="midnightblue" points="296.5,-79.7574 293,-69.7575 289.5,-79.7575 296.5,-79.7574"/>
</g>
<!-- Node10 -->
<g id="node10" class="node"><title>Node10</title>
<polygon fill="none" stroke="#bfbfbf" points="352,-53.5 352,-69.5 394,-69.5 394,-53.5 352,-53.5"/>
<text text-anchor="middle" x="373" y="-59.9" font-family="Helvetica,sans-Serif" font-size="7.00">QDebug</text>
</g>
<!-- Node1&#45;&gt;Node10 -->
<g id="edge9" class="edge"><title>Node1&#45;&gt;Node10</title>
<path fill="none" stroke="midnightblue" d="M309.189,-106.37C322.099,-97.4947 340.21,-85.0428 353.842,-75.6714"/>
<polygon fill="midnightblue" stroke="midnightblue" points="356.186,-78.307 362.444,-69.7575 352.22,-72.5386 356.186,-78.307"/>
</g>
<!-- Node3 -->
<g id="node3" class="node"><title>Node3</title>
<polygon fill="none" stroke="#bfbfbf" points="0,-0.5 0,-16.5 60,-16.5 60,-0.5 0,-0.5"/>
<text text-anchor="middle" x="30" y="-6.9" font-family="Helvetica,sans-Serif" font-size="7.00">QMainWindow</text>
</g>
<!-- Node2&#45;&gt;Node3 -->
<g id="edge2" class="edge"><title>Node2&#45;&gt;Node3</title>
<path fill="none" stroke="midnightblue" d="M174.64,-53.4087C145.553,-44.5784 95.6919,-29.4422 62.787,-19.4532"/>
<polygon fill="midnightblue" stroke="midnightblue" points="63.7468,-16.0869 53.1613,-16.5311 61.7134,-22.7851 63.7468,-16.0869"/>
</g>
<!-- Node4 -->
<g id="node4" class="node"><title>Node4</title>
<polygon fill="none" stroke="#bfbfbf" points="78.5,-0.5 78.5,-16.5 117.5,-16.5 117.5,-0.5 78.5,-0.5"/>
<text text-anchor="middle" x="98" y="-6.9" font-family="Helvetica,sans-Serif" font-size="7.00">QTimer</text>
</g>
<!-- Node2&#45;&gt;Node4 -->
<g id="edge3" class="edge"><title>Node2&#45;&gt;Node4</title>
<path fill="none" stroke="midnightblue" d="M184.095,-53.4087C167.751,-45.0732 140.39,-31.1187 120.9,-21.1788"/>
<polygon fill="midnightblue" stroke="midnightblue" points="122.285,-17.9565 111.786,-16.5311 119.105,-24.1923 122.285,-17.9565"/>
</g>
<!-- Node5 -->
<g id="node5" class="node"><title>Node5</title>
<polygon fill="none" stroke="#bfbfbf" points="135.5,-0.5 135.5,-16.5 196.5,-16.5 196.5,-0.5 135.5,-0.5"/>
<text text-anchor="middle" x="166" y="-6.9" font-family="Helvetica,sans-Serif" font-size="7.00">QMouseEvent</text>
</g>
<!-- Node2&#45;&gt;Node5 -->
<g id="edge4" class="edge"><title>Node2&#45;&gt;Node5</title>
<path fill="none" stroke="midnightblue" d="M193.551,-53.4087C188.965,-46.1009 181.67,-34.4741 175.738,-25.0202"/>
<polygon fill="midnightblue" stroke="midnightblue" points="178.691,-23.1415 170.412,-16.5311 172.762,-26.862 178.691,-23.1415"/>
</g>
<!-- Node6 -->
<g id="node6" class="node"><title>Node6</title>
<polygon fill="none" stroke="#bfbfbf" points="214.5,-0.5 214.5,-16.5 247.5,-16.5 247.5,-0.5 214.5,-0.5"/>
<text text-anchor="middle" x="231" y="-6.9" font-family="Helvetica,sans-Serif" font-size="7.00">QList</text>
</g>
<!-- Node2&#45;&gt;Node6 -->
<g id="edge5" class="edge"><title>Node2&#45;&gt;Node6</title>
<path fill="none" stroke="midnightblue" d="M202.589,-53.4087C207.317,-46.1009 214.84,-34.4741 220.957,-25.0202"/>
<polygon fill="midnightblue" stroke="midnightblue" points="223.956,-26.8282 226.45,-16.5311 218.079,-23.0254 223.956,-26.8282"/>
</g>
<!-- Node7 -->
<g id="node7" class="node"><title>Node7</title>
<polygon fill="none" stroke="#bfbfbf" points="265.5,-0.5 265.5,-16.5 316.5,-16.5 316.5,-0.5 265.5,-0.5"/>
<text text-anchor="middle" x="291" y="-6.9" font-family="Helvetica,sans-Serif" font-size="7.00">QStringList</text>
</g>
<!-- Node2&#45;&gt;Node7 -->
<g id="edge6" class="edge"><title>Node2&#45;&gt;Node7</title>
<path fill="none" stroke="midnightblue" d="M210.931,-53.4087C225.923,-45.1874 250.882,-31.4999 268.954,-21.5896"/>
<polygon fill="midnightblue" stroke="midnightblue" points="271.093,-24.4083 278.179,-16.5311 267.728,-18.2706 271.093,-24.4083"/>
</g>
<!-- Node8 -->
<g id="node8" class="node"><title>Node8</title>
<g id="a_node8"><a xlink:href="country_8h.html" target="_top" xlink:title="country.h">
<polygon fill="none" stroke="red" points="334.5,-0.5 334.5,-16.5 381.5,-16.5 381.5,-0.5 334.5,-0.5"/>
<text text-anchor="middle" x="358" y="-6.9" font-family="Helvetica,sans-Serif" font-size="7.00">country.h</text>
</a>
</g>
</g>
<!-- Node2&#45;&gt;Node8 -->
<g id="edge7" class="edge"><title>Node2&#45;&gt;Node8</title>
<path fill="none" stroke="midnightblue" d="M220.247,-53.4087C247.831,-44.6165 295.027,-29.5725 326.368,-19.5827"/>
<polygon fill="midnightblue" stroke="midnightblue" points="327.477,-22.9028 335.942,-16.5311 325.351,-16.2334 327.477,-22.9028"/>
</g>
</g>
</svg>
