<?xml version="1.0" encoding="UTF-8" standalone="no"?>
<!DOCTYPE svg PUBLIC "-//W3C//DTD SVG 1.1//EN"
 "http://www.w3.org/Graphics/SVG/1.1/DTD/svg11.dtd">
<!-- Generated by graphviz version 2.38.0 (20140413.2041)
 -->
<!-- Title: S:/QT_CREATOR/Locker_Control/country.cpp Pages: 1 -->
<svg width="133pt" height="139pt"
 viewBox="0.00 0.00 132.50 139.00" xmlns="http://www.w3.org/2000/svg" xmlns:xlink="http://www.w3.org/1999/xlink">
<g id="graph0" class="graph" transform="scale(1 1) rotate(0) translate(4 135)">
<title>S:/QT_CREATOR/Locker_Control/country.cpp</title>
<!-- Node1 -->
<g id="node1" class="node"><title>Node1</title>
<polygon fill="#bfbfbf" stroke="black" points="14,-106.5 14,-130.5 109,-130.5 109,-106.5 14,-106.5"/>
<text text-anchor="start" x="22" y="-120.9" font-family="Helvetica,sans-Serif" font-size="7.00">S:/QT_CREATOR/Locker</text>
<text text-anchor="middle" x="61.5" y="-112.9" font-family="Helvetica,sans-Serif" font-size="7.00">_Control/country.cpp</text>
</g>
<!-- Node2 -->
<g id="node2" class="node"><title>Node2</title>
<g id="a_node2"><a xlink:href="country_8h.html" target="_top" xlink:title="country.h">
<polygon fill="none" stroke="black" points="3,-53.5 3,-69.5 50,-69.5 50,-53.5 3,-53.5"/>
<text text-anchor="middle" x="26.5" y="-59.9" font-family="Helvetica,sans-Serif" font-size="7.00">country.h</text>
</a>
</g>
</g>
<!-- Node1&#45;&gt;Node2 -->
<g id="edge1" class="edge"><title>Node1&#45;&gt;Node2</title>
<path fill="none" stroke="midnightblue" d="M54.4172,-106.37C49.3124,-98.3481 42.3482,-87.4043 36.6527,-78.4542"/>
<polygon fill="midnightblue" stroke="midnightblue" points="39.44,-76.315 31.1184,-69.7575 33.5344,-80.0732 39.44,-76.315"/>
</g>
<!-- Node4 -->
<g id="node4" class="node"><title>Node4</title>
<polygon fill="none" stroke="#bfbfbf" points="68.5,-53.5 68.5,-69.5 124.5,-69.5 124.5,-53.5 68.5,-53.5"/>
<text text-anchor="middle" x="96.5" y="-59.9" font-family="Helvetica,sans-Serif" font-size="7.00">QApplication</text>
</g>
<!-- Node1&#45;&gt;Node4 -->
<g id="edge3" class="edge"><title>Node1&#45;&gt;Node4</title>
<path fill="none" stroke="midnightblue" d="M68.5828,-106.37C73.6876,-98.3481 80.6518,-87.4043 86.3473,-78.4542"/>
<polygon fill="midnightblue" stroke="midnightblue" points="89.4656,-80.0732 91.8816,-69.7575 83.56,-76.315 89.4656,-80.0732"/>
</g>
<!-- Node3 -->
<g id="node3" class="node"><title>Node3</title>
<polygon fill="none" stroke="#bfbfbf" points="0,-0.5 0,-16.5 53,-16.5 53,-0.5 0,-0.5"/>
<text text-anchor="middle" x="26.5" y="-6.9" font-family="Helvetica,sans-Serif" font-size="7.00">QTranslator</text>
</g>
<!-- Node2&#45;&gt;Node3 -->
<g id="edge2" class="edge"><title>Node2&#45;&gt;Node3</title>
<path fill="none" stroke="midnightblue" d="M26.5,-53.4087C26.5,-46.5576 26.5,-35.9106 26.5,-26.8167"/>
<polygon fill="midnightblue" stroke="midnightblue" points="30.0001,-26.5311 26.5,-16.5311 23.0001,-26.5311 30.0001,-26.5311"/>
</g>
</g>
</svg>
