<?xml version="1.0" encoding="UTF-8" standalone="yes"?><svg xmlns="http://www.w3.org/2000/svg" xmlns:xlink="http://www.w3.org/1999/xlink" height="219px" style="width:366px;height:219px;" version="1.1" viewBox="0 0 366 219" width="366px"><defs><filter height="300%" id="f1" width="300%" x="-1" y="-1"><feGaussianBlur result="blurOut" stdDeviation="2.0"/><feColorMatrix in="blurOut" result="blurOut2" type="matrix" values="0 0 0 0 0 0 0 0 0 0 0 0 0 0 0 0 0 0 .4 0"/><feOffset dx="4.0" dy="4.0" in="blurOut2" result="blurOut3"/><feBlend in="SourceGraphic" in2="blurOut3" mode="normal"/></filter></defs><g><rect fill="#0000FF" filter="url(#f1)" height="82.3516" style="stroke: #A80036; stroke-width: 1.0;" width="10" x="218" y="71.6094"/><rect fill="#00A0FF" filter="url(#f1)" height="28" style="stroke: #A80036; stroke-width: 1.0;" width="10" x="223" y="125.9609"/><line style="stroke: #A80036; stroke-width: 1.0; stroke-dasharray: 5.0,5.0;" x1="71" x2="71" y1="39.6094" y2="179.6641"/><line style="stroke: #A80036; stroke-width: 1.0; stroke-dasharray: 5.0,5.0;" x1="223" x2="223" y1="39.6094" y2="179.6641"/><rect fill="#FEFECE" filter="url(#f1)" height="31.6094" style="stroke: #A80036; stroke-width: 1.5;" width="122" x="8" y="3"/><text fill="#000000" font-family="sans-serif" font-size="14" lengthAdjust="spacingAndGlyphs" textLength="108" x="15" y="24.5332">ConsoleWindows</text><rect fill="#FEFECE" filter="url(#f1)" height="31.6094" style="stroke: #A80036; stroke-width: 1.5;" width="122" x="8" y="178.6641"/><text fill="#000000" font-family="sans-serif" font-size="14" lengthAdjust="spacingAndGlyphs" textLength="108" x="15" y="200.1973">ConsoleWindows</text><rect fill="#FEFECE" filter="url(#f1)" height="31.6094" style="stroke: #A80036; stroke-width: 1.5;" width="136" x="153" y="3"/><text fill="#000000" font-family="sans-serif" font-size="14" lengthAdjust="spacingAndGlyphs" textLength="122" x="160" y="24.5332">CSQLite_Local_DB</text><rect fill="#FEFECE" filter="url(#f1)" height="31.6094" style="stroke: #A80036; stroke-width: 1.5;" width="136" x="153" y="178.6641"/><text fill="#000000" font-family="sans-serif" font-size="14" lengthAdjust="spacingAndGlyphs" textLength="122" x="160" y="200.1973">CSQLite_Local_DB</text><rect fill="#0000FF" filter="url(#f1)" height="82.3516" style="stroke: #A80036; stroke-width: 1.0;" width="10" x="218" y="71.6094"/><rect fill="#00A0FF" filter="url(#f1)" height="28" style="stroke: #A80036; stroke-width: 1.0;" width="10" x="223" y="125.9609"/><polygon fill="#A80036" points="206,67.6094,216,71.6094,206,75.6094,210,71.6094" style="stroke: #A80036; stroke-width: 1.0;"/><line style="stroke: #A80036; stroke-width: 1.0;" x1="71" x2="212" y1="71.6094" y2="71.6094"/><text fill="#000000" font-family="sans-serif" font-size="13" lengthAdjust="spacingAndGlyphs" textLength="128" x="78" y="67.1045">~CSQLite_Local_DB()</text><line style="stroke: #A80036; stroke-width: 1.0;" x1="233" x2="275" y1="118.6641" y2="118.6641"/><line style="stroke: #A80036; stroke-width: 1.0;" x1="275" x2="275" y1="118.6641" y2="131.6641"/><line style="stroke: #A80036; stroke-width: 1.0;" x1="234" x2="275" y1="131.6641" y2="131.6641"/><polygon fill="#A80036" points="244,127.6641,234,131.6641,244,135.6641,240,131.6641" style="stroke: #A80036; stroke-width: 1.0;"/><text fill="#000000" font-family="sans-serif" font-size="13" lengthAdjust="spacingAndGlyphs" textLength="109" x="240" y="97.4561">if database opened</text><text fill="#000000" font-family="sans-serif" font-size="13" lengthAdjust="spacingAndGlyphs" textLength="121" x="244" y="113.8076">then, close database</text><line style="stroke: #A80036; stroke-width: 2.0;" x1="214" x2="232" y1="151.9609" y2="169.9609"/><line style="stroke: #A80036; stroke-width: 2.0;" x1="214" x2="232" y1="169.9609" y2="151.9609"/></g></svg>