<?xml version="1.0" encoding="UTF-8" standalone="yes"?><svg xmlns="http://www.w3.org/2000/svg" xmlns:xlink="http://www.w3.org/1999/xlink" height="232px" style="width:222px;height:232px;" version="1.1" viewBox="0 0 222 232" width="222px"><defs><filter height="300%" id="f1" width="300%" x="-1" y="-1"><feGaussianBlur result="blurOut" stdDeviation="2.0"/><feColorMatrix in="blurOut" result="blurOut2" type="matrix" values="0 0 0 0 0 0 0 0 0 0 0 0 0 0 0 0 0 0 .4 0"/><feOffset dx="4.0" dy="4.0" in="blurOut2" result="blurOut3"/><feBlend in="SourceGraphic" in2="blurOut3" mode="normal"/></filter></defs><g><rect fill="#0000FF" filter="url(#f1)" height="87.3516" style="stroke: #A80036; stroke-width: 1.0;" width="10" x="73" y="79.6094"/><rect fill="#50EEFF" filter="url(#f1)" height="28" style="stroke: #A80036; stroke-width: 1.0;" width="10" x="78" y="138.9609"/><line style="stroke: #A80036; stroke-width: 1.0; stroke-dasharray: 5.0,5.0;" x1="78" x2="78" y1="39.6094" y2="192.6641"/><rect fill="#FEFECE" filter="url(#f1)" height="31.6094" style="stroke: #A80036; stroke-width: 1.5;" width="136" x="8" y="3"/><text fill="#000000" font-family="sans-serif" font-size="14" lengthAdjust="spacingAndGlyphs" textLength="122" x="15" y="24.5332">CSQLite_Local_DB</text><rect fill="#FEFECE" filter="url(#f1)" height="31.6094" style="stroke: #A80036; stroke-width: 1.5;" width="136" x="8" y="191.6641"/><text fill="#000000" font-family="sans-serif" font-size="14" lengthAdjust="spacingAndGlyphs" textLength="122" x="15" y="213.1973">CSQLite_Local_DB</text><rect fill="#0000FF" filter="url(#f1)" height="87.3516" style="stroke: #A80036; stroke-width: 1.0;" width="10" x="73" y="79.6094"/><rect fill="#50EEFF" filter="url(#f1)" height="28" style="stroke: #A80036; stroke-width: 1.0;" width="10" x="78" y="138.9609"/><line style="stroke: #A80036; stroke-width: 1.0;" x1="78" x2="125" y1="66.9609" y2="66.9609"/><line style="stroke: #A80036; stroke-width: 1.0;" x1="125" x2="125" y1="66.9609" y2="79.9609"/><line style="stroke: #A80036; stroke-width: 1.0;" x1="84" x2="125" y1="79.9609" y2="79.9609"/><polygon fill="#A80036" points="94,75.9609,84,79.9609,94,83.9609,90,79.9609" style="stroke: #A80036; stroke-width: 1.0;"/><text fill="#000000" font-family="sans-serif" font-size="13" lengthAdjust="spacingAndGlyphs" textLength="81" x="90" y="62.1045">Connect_DB()</text><line style="stroke: #A80036; stroke-width: 1.0;" x1="88" x2="130" y1="131.6641" y2="131.6641"/><line style="stroke: #A80036; stroke-width: 1.0;" x1="130" x2="130" y1="131.6641" y2="144.6641"/><line style="stroke: #A80036; stroke-width: 1.0;" x1="89" x2="130" y1="144.6641" y2="144.6641"/><polygon fill="#A80036" points="99,140.6641,89,144.6641,99,148.6641,95,144.6641" style="stroke: #A80036; stroke-width: 1.0;"/><text fill="#000000" font-family="sans-serif" font-size="13" lengthAdjust="spacingAndGlyphs" textLength="115" x="95" y="110.4561">Try to connect, else</text><text fill="#000000" font-family="sans-serif" font-size="13" lengthAdjust="spacingAndGlyphs" textLength="122" x="99" y="126.8076">build a new database</text></g></svg>