<?xml version="1.0" encoding="UTF-8" standalone="yes"?><svg xmlns="http://www.w3.org/2000/svg" xmlns:xlink="http://www.w3.org/1999/xlink" height="292px" style="width:484px;height:292px;" version="1.1" viewBox="0 0 484 292" width="484px"><defs><filter height="300%" id="f1" width="300%" x="-1" y="-1"><feGaussianBlur result="blurOut" stdDeviation="2.0"/><feColorMatrix in="blurOut" result="blurOut2" type="matrix" values="0 0 0 0 0 0 0 0 0 0 0 0 0 0 0 0 0 0 .4 0"/><feOffset dx="4.0" dy="4.0" in="blurOut2" result="blurOut3"/><feBlend in="SourceGraphic" in2="blurOut3" mode="normal"/></filter></defs><g><rect fill="#0000FF" filter="url(#f1)" height="172.7578" style="stroke: #A80036; stroke-width: 1.0;" width="10" x="330" y="71.6094"/><rect fill="#00BBFF" filter="url(#f1)" height="87.3516" style="stroke: #A80036; stroke-width: 1.0;" width="10" x="335" y="109.9609"/><rect fill="#50EEFF" filter="url(#f1)" height="28" style="stroke: #A80036; stroke-width: 1.0;" width="10" x="340" y="169.3125"/><line style="stroke: #A80036; stroke-width: 1.0; stroke-dasharray: 5.0,5.0;" x1="71" x2="71" y1="39.6094" y2="253.3672"/><line style="stroke: #A80036; stroke-width: 1.0; stroke-dasharray: 5.0,5.0;" x1="335" x2="335" y1="39.6094" y2="253.3672"/><rect fill="#FEFECE" filter="url(#f1)" height="31.6094" style="stroke: #A80036; stroke-width: 1.5;" width="122" x="8" y="3"/><text fill="#000000" font-family="sans-serif" font-size="14" lengthAdjust="spacingAndGlyphs" textLength="108" x="15" y="24.5332">ConsoleWindows</text><rect fill="#FEFECE" filter="url(#f1)" height="31.6094" style="stroke: #A80036; stroke-width: 1.5;" width="122" x="8" y="252.3672"/><text fill="#000000" font-family="sans-serif" font-size="14" lengthAdjust="spacingAndGlyphs" textLength="108" x="15" y="273.9004">ConsoleWindows</text><rect fill="#FEFECE" filter="url(#f1)" height="31.6094" style="stroke: #A80036; stroke-width: 1.5;" width="136" x="265" y="3"/><text fill="#000000" font-family="sans-serif" font-size="14" lengthAdjust="spacingAndGlyphs" textLength="122" x="272" y="24.5332">CSQLite_Local_DB</text><rect fill="#FEFECE" filter="url(#f1)" height="31.6094" style="stroke: #A80036; stroke-width: 1.5;" width="136" x="265" y="252.3672"/><text fill="#000000" font-family="sans-serif" font-size="14" lengthAdjust="spacingAndGlyphs" textLength="122" x="272" y="273.9004">CSQLite_Local_DB</text><rect fill="#0000FF" filter="url(#f1)" height="172.7578" style="stroke: #A80036; stroke-width: 1.0;" width="10" x="330" y="71.6094"/><rect fill="#00BBFF" filter="url(#f1)" height="87.3516" style="stroke: #A80036; stroke-width: 1.0;" width="10" x="335" y="109.9609"/><rect fill="#50EEFF" filter="url(#f1)" height="28" style="stroke: #A80036; stroke-width: 1.0;" width="10" x="340" y="169.3125"/><polygon fill="#A80036" points="318,67.6094,328,71.6094,318,75.6094,322,71.6094" style="stroke: #A80036; stroke-width: 1.0;"/><line style="stroke: #A80036; stroke-width: 1.0;" x1="71" x2="324" y1="71.6094" y2="71.6094"/><text fill="#000000" font-family="sans-serif" font-size="13" lengthAdjust="spacingAndGlyphs" textLength="240" x="78" y="67.1045">CSQLite_Local_DB::CSQLite_Local_DB()</text><line style="stroke: #A80036; stroke-width: 1.0;" x1="340" x2="387" y1="97.3125" y2="97.3125"/><line style="stroke: #A80036; stroke-width: 1.0;" x1="387" x2="387" y1="97.3125" y2="110.3125"/><line style="stroke: #A80036; stroke-width: 1.0;" x1="346" x2="387" y1="110.3125" y2="110.3125"/><polygon fill="#A80036" points="356,106.3125,346,110.3125,356,114.3125,352,110.3125" style="stroke: #A80036; stroke-width: 1.0;"/><text fill="#000000" font-family="sans-serif" font-size="13" lengthAdjust="spacingAndGlyphs" textLength="81" x="352" y="92.4561">Connect_DB()</text><line style="stroke: #A80036; stroke-width: 1.0;" x1="350" x2="392" y1="162.0156" y2="162.0156"/><line style="stroke: #A80036; stroke-width: 1.0;" x1="392" x2="392" y1="162.0156" y2="175.0156"/><line style="stroke: #A80036; stroke-width: 1.0;" x1="351" x2="392" y1="175.0156" y2="175.0156"/><polygon fill="#A80036" points="361,171.0156,351,175.0156,361,179.0156,357,175.0156" style="stroke: #A80036; stroke-width: 1.0;"/><text fill="#000000" font-family="sans-serif" font-size="13" lengthAdjust="spacingAndGlyphs" textLength="115" x="357" y="140.8076">Try to connect, else</text><text fill="#000000" font-family="sans-serif" font-size="13" lengthAdjust="spacingAndGlyphs" textLength="122" x="361" y="157.1592">build a new database</text><polygon fill="#A80036" points="82,231.0156,72,235.0156,82,239.0156,78,235.0156" style="stroke: #A80036; stroke-width: 1.0;"/><line style="stroke: #A80036; stroke-width: 1.0;" x1="76" x2="329" y1="235.0156" y2="235.0156"/><text fill="#000000" font-family="sans-serif" font-size="13" lengthAdjust="spacingAndGlyphs" textLength="131" x="88" y="230.5107">Database satuts (bool)</text></g></svg>