<?xml version="1.0" encoding="UTF-8" standalone="yes"?><svg xmlns="http://www.w3.org/2000/svg" xmlns:xlink="http://www.w3.org/1999/xlink" height="366px" style="width:217px;height:366px;" version="1.1" viewBox="0 0 217 366" width="217px"><defs><filter height="300%" id="f1" width="300%" x="-1" y="-1"><feGaussianBlur result="blurOut" stdDeviation="2.0"/><feColorMatrix in="blurOut" result="blurOut2" type="matrix" values="0 0 0 0 0 0 0 0 0 0 0 0 0 0 0 0 0 0 .4 0"/><feOffset dx="4.0" dy="4.0" in="blurOut2" result="blurOut3"/><feBlend in="SourceGraphic" in2="blurOut3" mode="normal"/></filter></defs><g><rect fill="#0000FF" filter="url(#f1)" height="170.0547" style="stroke: #A80036; stroke-width: 1.0;" width="10" x="88" y="79.6094"/><rect fill="#00A0FF" filter="url(#f1)" height="28" style="stroke: #A80036; stroke-width: 1.0;" width="10" x="93" y="148.3125"/><rect fill="#10BBFF" filter="url(#f1)" height="28" style="stroke: #A80036; stroke-width: 1.0;" width="10" x="93" y="221.6641"/><rect fill="#FFFFFF" filter="url(#f1)" height="210.4063" style="stroke: #000000; stroke-width: 2.0;" width="195" x="13" y="99.9609"/><rect fill="#FFFFFF" height="45.3516" style="stroke: none; stroke-width: 1.0;" width="195" x="13" y="265.0156"/><line style="stroke: #A80036; stroke-width: 1.0; stroke-dasharray: 5.0,5.0;" x1="93" x2="93" y1="39.6094" y2="327.3672"/><rect fill="#FEFECE" filter="url(#f1)" height="31.6094" style="stroke: #A80036; stroke-width: 1.5;" width="136" x="23" y="3"/><text fill="#000000" font-family="sans-serif" font-size="14" lengthAdjust="spacingAndGlyphs" textLength="122" x="30" y="24.5332">CSQLite_Local_DB</text><rect fill="#FEFECE" filter="url(#f1)" height="31.6094" style="stroke: #A80036; stroke-width: 1.5;" width="136" x="23" y="326.3672"/><text fill="#000000" font-family="sans-serif" font-size="14" lengthAdjust="spacingAndGlyphs" textLength="122" x="30" y="347.9004">CSQLite_Local_DB</text><rect fill="#0000FF" filter="url(#f1)" height="170.0547" style="stroke: #A80036; stroke-width: 1.0;" width="10" x="88" y="79.6094"/><rect fill="#00A0FF" filter="url(#f1)" height="28" style="stroke: #A80036; stroke-width: 1.0;" width="10" x="93" y="148.3125"/><rect fill="#10BBFF" filter="url(#f1)" height="28" style="stroke: #A80036; stroke-width: 1.0;" width="10" x="93" y="221.6641"/><line style="stroke: #A80036; stroke-width: 1.0;" x1="93" x2="140" y1="66.9609" y2="66.9609"/><line style="stroke: #A80036; stroke-width: 1.0;" x1="140" x2="140" y1="66.9609" y2="79.9609"/><line style="stroke: #A80036; stroke-width: 1.0;" x1="99" x2="140" y1="79.9609" y2="79.9609"/><polygon fill="#A80036" points="109,75.9609,99,79.9609,109,83.9609,105,79.9609" style="stroke: #A80036; stroke-width: 1.0;"/><text fill="#000000" font-family="sans-serif" font-size="13" font-weight="bold" lengthAdjust="spacingAndGlyphs" textLength="7" x="105" y="62.1045">1</text><text fill="#000000" font-family="sans-serif" font-size="13" lengthAdjust="spacingAndGlyphs" textLength="70" x="116" y="62.1045">Delete_DB()</text><rect fill="none" height="210.4063" style="stroke: #000000; stroke-width: 2.0;" width="195" x="13" y="99.9609"/><polygon fill="#EEEEEE" points="13,99.9609,74,99.9609,74,107.9609,64,117.9609,13,117.9609,13,99.9609" style="stroke: #000000; stroke-width: 2.0;"/><text fill="#000000" font-family="sans-serif" font-size="13" font-weight="bold" lengthAdjust="spacingAndGlyphs" textLength="16" x="28" y="114.4561">alt</text><text fill="#000000" font-family="sans-serif" font-size="11" font-weight="bold" lengthAdjust="spacingAndGlyphs" textLength="101" x="89" y="113.3799">[DataBaseIsReady]</text><line style="stroke: #A80036; stroke-width: 1.0;" x1="103" x2="145" y1="140.6641" y2="140.6641"/><line style="stroke: #A80036; stroke-width: 1.0;" x1="145" x2="145" y1="140.6641" y2="153.6641"/><line style="stroke: #A80036; stroke-width: 1.0;" x1="104" x2="145" y1="153.6641" y2="153.6641"/><polygon fill="#A80036" points="114,149.6641,104,153.6641,114,157.6641,110,153.6641" style="stroke: #A80036; stroke-width: 1.0;"/><text fill="#000000" font-family="sans-serif" font-size="13" font-weight="bold" lengthAdjust="spacingAndGlyphs" textLength="7" x="110" y="135.8076">2</text><text fill="#000000" font-family="sans-serif" font-size="13" lengthAdjust="spacingAndGlyphs" textLength="39" x="121" y="135.8076">close()</text><line style="stroke: #A80036; stroke-width: 1.0;" x1="103" x2="145" y1="214.0156" y2="214.0156"/><line style="stroke: #A80036; stroke-width: 1.0;" x1="145" x2="145" y1="214.0156" y2="227.0156"/><line style="stroke: #A80036; stroke-width: 1.0;" x1="104" x2="145" y1="227.0156" y2="227.0156"/><polygon fill="#A80036" points="114,223.0156,104,227.0156,114,231.0156,110,227.0156" style="stroke: #A80036; stroke-width: 1.0;"/><text fill="#000000" font-family="sans-serif" font-size="13" font-weight="bold" lengthAdjust="spacingAndGlyphs" textLength="7" x="110" y="209.1592">3</text><text fill="#000000" font-family="sans-serif" font-size="13" lengthAdjust="spacingAndGlyphs" textLength="75" x="121" y="209.1592">RemoveFile()</text><line style="stroke: #000000; stroke-width: 1.0; stroke-dasharray: 2.0,2.0;" x1="13" x2="208" y1="266.0156" y2="266.0156"/><line style="stroke: #A80036; stroke-width: 1.0;" x1="93" x2="135" y1="289.3672" y2="289.3672"/><line style="stroke: #A80036; stroke-width: 1.0;" x1="135" x2="135" y1="289.3672" y2="302.3672"/><line style="stroke: #A80036; stroke-width: 1.0;" x1="94" x2="135" y1="302.3672" y2="302.3672"/><polygon fill="#A80036" points="104,298.3672,94,302.3672,104,306.3672,100,302.3672" style="stroke: #A80036; stroke-width: 1.0;"/><text fill="#000000" font-family="sans-serif" font-size="13" font-weight="bold" lengthAdjust="spacingAndGlyphs" textLength="7" x="100" y="284.5107">4</text><text fill="#000000" font-family="sans-serif" font-size="13" lengthAdjust="spacingAndGlyphs" textLength="74" x="111" y="284.5107">ReturnError()</text></g></svg>