<?xml version="1.0" encoding="UTF-8" standalone="yes"?><svg xmlns="http://www.w3.org/2000/svg" xmlns:xlink="http://www.w3.org/1999/xlink" height="554px" style="width:622px;height:554px;" version="1.1" viewBox="0 0 622 554" width="622px"><defs><filter height="300%" id="f1" width="300%" x="-1" y="-1"><feGaussianBlur result="blurOut" stdDeviation="2.0"/><feColorMatrix in="blurOut" result="blurOut2" type="matrix" values="0 0 0 0 0 0 0 0 0 0 0 0 0 0 0 0 0 0 .4 0"/><feOffset dx="4.0" dy="4.0" in="blurOut2" result="blurOut3"/><feBlend in="SourceGraphic" in2="blurOut3" mode="normal"/></filter></defs><g><rect fill="#FFFFFF" filter="url(#f1)" height="362.2188" style="stroke: #000000; stroke-width: 2.0;" width="600.5" x="13" y="109.9609"/><rect fill="#FFFFFF" filter="url(#f1)" height="111.4063" style="stroke: #000000; stroke-width: 2.0;" width="393.5" x="210" y="226.3672"/><rect fill="#FFFFFF" filter="url(#f1)" height="48.7031" style="stroke: #000000; stroke-width: 2.0;" width="373.5" x="220" y="282.0703"/><rect fill="#FFFFFF" filter="url(#f1)" height="81.0547" style="stroke: #000000; stroke-width: 2.0;" width="357" x="23" y="351.7734"/><rect fill="#FFFFFF" height="32.3516" style="stroke: none; stroke-width: 1.0;" width="357" x="23" y="400.4766"/><rect fill="#FFFFFF" height="32.3516" style="stroke: none; stroke-width: 1.0;" width="600.5" x="13" y="439.8281"/><line style="stroke: #A80036; stroke-width: 1.0; stroke-dasharray: 5.0,5.0;" x1="96" x2="96" y1="62.6094" y2="489.1797"/><line style="stroke: #A80036; stroke-width: 1.0; stroke-dasharray: 5.0,5.0;" x1="300" x2="300" y1="62.6094" y2="489.1797"/><line style="stroke: #A80036; stroke-width: 1.0; stroke-dasharray: 5.0,5.0;" x1="536.5" x2="536.5" y1="62.6094" y2="489.1797"/><rect fill="#FEFECE" filter="url(#f1)" height="31.6094" style="stroke: #A80036; stroke-width: 1.5;" width="122" x="33" y="26"/><text fill="#000000" font-family="sans-serif" font-size="14" lengthAdjust="spacingAndGlyphs" textLength="108" x="40" y="47.5332">ConsoleWindows</text><rect fill="#FEFECE" filter="url(#f1)" height="31.6094" style="stroke: #A80036; stroke-width: 1.5;" width="122" x="33" y="488.1797"/><text fill="#000000" font-family="sans-serif" font-size="14" lengthAdjust="spacingAndGlyphs" textLength="108" x="40" y="509.7129">ConsoleWindows</text><rect fill="#FEFECE" filter="url(#f1)" height="31.6094" style="stroke: #A80036; stroke-width: 1.5;" width="136" x="230" y="26"/><text fill="#000000" font-family="sans-serif" font-size="14" lengthAdjust="spacingAndGlyphs" textLength="122" x="237" y="47.5332">CSQLite_Local_DB</text><rect fill="#FEFECE" filter="url(#f1)" height="31.6094" style="stroke: #A80036; stroke-width: 1.5;" width="136" x="230" y="488.1797"/><text fill="#000000" font-family="sans-serif" font-size="14" lengthAdjust="spacingAndGlyphs" textLength="122" x="237" y="509.7129">CSQLite_Local_DB</text><text fill="#000000" font-family="sans-serif" font-size="14" lengthAdjust="spacingAndGlyphs" textLength="87" x="490.5" y="59.5332">LC_Database</text><path d="M519,13 C519,3 537,3 537,3 C537,3 555,3 555,13 L555,35 C555,45 537,45 537,45 C537,45 519,45 519,35 L519,13 " fill="#FEFECE" filter="url(#f1)" style="stroke: #A80036; stroke-width: 1.5;"/><path d="M519,13 C519,23 537,23 537,23 C537,23 555,23 555,13 " fill="none" style="stroke: #A80036; stroke-width: 1.5;"/><text fill="#000000" font-family="sans-serif" font-size="14" lengthAdjust="spacingAndGlyphs" textLength="87" x="490.5" y="502.7129">LC_Database</text><path d="M519,515.7891 C519,505.7891 537,505.7891 537,505.7891 C537,505.7891 555,505.7891 555,515.7891 L555,537.7891 C555,547.7891 537,547.7891 537,547.7891 C537,547.7891 519,547.7891 519,537.7891 L519,515.7891 " fill="#FEFECE" filter="url(#f1)" style="stroke: #A80036; stroke-width: 1.5;"/><path d="M519,515.7891 C519,525.7891 537,525.7891 537,525.7891 C537,525.7891 555,525.7891 555,515.7891 " fill="none" style="stroke: #A80036; stroke-width: 1.5;"/><polygon fill="#A80036" points="288,90.6094,298,94.6094,288,98.6094,292,94.6094" style="stroke: #A80036; stroke-width: 1.0;"/><line style="stroke: #A80036; stroke-width: 1.0;" x1="96" x2="294" y1="94.6094" y2="94.6094"/><text fill="#000000" font-family="sans-serif" font-size="13" font-weight="bold" lengthAdjust="spacingAndGlyphs" textLength="7" x="103" y="90.1045">1</text><text fill="#000000" font-family="sans-serif" font-size="13" lengthAdjust="spacingAndGlyphs" textLength="117" x="114" y="90.1045">DeleteExtractCode()</text><rect fill="none" height="362.2188" style="stroke: #000000; stroke-width: 2.0;" width="600.5" x="13" y="109.9609"/><polygon fill="#EEEEEE" points="13,109.9609,74,109.9609,74,117.9609,64,127.9609,13,127.9609,13,109.9609" style="stroke: #000000; stroke-width: 2.0;"/><text fill="#000000" font-family="sans-serif" font-size="13" font-weight="bold" lengthAdjust="spacingAndGlyphs" textLength="16" x="28" y="124.4561">alt</text><text fill="#000000" font-family="sans-serif" font-size="11" font-weight="bold" lengthAdjust="spacingAndGlyphs" textLength="105" x="89" y="123.3799">[Database is ready]</text><polygon fill="#A80036" points="525,146.3125,535,150.3125,525,154.3125,529,150.3125" style="stroke: #A80036; stroke-width: 1.0;"/><line style="stroke: #A80036; stroke-width: 1.0;" x1="300" x2="531" y1="150.3125" y2="150.3125"/><text fill="#000000" font-family="sans-serif" font-size="13" font-weight="bold" lengthAdjust="spacingAndGlyphs" textLength="7" x="307" y="145.8076">2</text><text fill="#000000" font-family="sans-serif" font-size="13" lengthAdjust="spacingAndGlyphs" textLength="163" x="318" y="145.8076">SQL_Query(SELECT idBox)</text><polygon fill="#A80036" points="525,176.6641,535,180.6641,525,184.6641,529,180.6641" style="stroke: #A80036; stroke-width: 1.0;"/><line style="stroke: #A80036; stroke-width: 1.0;" x1="300" x2="531" y1="180.6641" y2="180.6641"/><text fill="#000000" font-family="sans-serif" font-size="13" font-weight="bold" lengthAdjust="spacingAndGlyphs" textLength="7" x="307" y="176.1592">3</text><text fill="#000000" font-family="sans-serif" font-size="13" lengthAdjust="spacingAndGlyphs" textLength="191" x="318" y="176.1592">SQL_Query(SELECT idPackage)</text><polygon fill="#A80036" points="525,207.0156,535,211.0156,525,215.0156,529,211.0156" style="stroke: #A80036; stroke-width: 1.0;"/><line style="stroke: #A80036; stroke-width: 1.0;" x1="300" x2="531" y1="211.0156" y2="211.0156"/><text fill="#000000" font-family="sans-serif" font-size="13" font-weight="bold" lengthAdjust="spacingAndGlyphs" textLength="7" x="307" y="206.5107">4</text><text fill="#000000" font-family="sans-serif" font-size="13" lengthAdjust="spacingAndGlyphs" textLength="202" x="318" y="206.5107">SQL_Query(DELETE ExtractCode)</text><rect fill="none" height="111.4063" style="stroke: #000000; stroke-width: 2.0;" width="393.5" x="210" y="226.3672"/><polygon fill="#EEEEEE" points="210,226.3672,283,226.3672,283,234.3672,273,244.3672,210,244.3672,210,226.3672" style="stroke: #000000; stroke-width: 2.0;"/><text fill="#000000" font-family="sans-serif" font-size="13" font-weight="bold" lengthAdjust="spacingAndGlyphs" textLength="28" x="225" y="240.8623">loop</text><text fill="#000000" font-family="sans-serif" font-size="11" font-weight="bold" lengthAdjust="spacingAndGlyphs" textLength="64" x="298" y="239.7861">[idPackage]</text><polygon fill="#A80036" points="525,262.7188,535,266.7188,525,270.7188,529,266.7188" style="stroke: #A80036; stroke-width: 1.0;"/><line style="stroke: #A80036; stroke-width: 1.0;" x1="300" x2="531" y1="266.7188" y2="266.7188"/><text fill="#000000" font-family="sans-serif" font-size="13" font-weight="bold" lengthAdjust="spacingAndGlyphs" textLength="7" x="307" y="262.2139">5</text><text fill="#000000" font-family="sans-serif" font-size="13" lengthAdjust="spacingAndGlyphs" textLength="191" x="318" y="262.2139">SQL_Query(DELETE idPackage)</text><rect fill="none" height="48.7031" style="stroke: #000000; stroke-width: 2.0;" width="373.5" x="220" y="282.0703"/><polygon fill="#EEEEEE" points="220,282.0703,293,282.0703,293,290.0703,283,300.0703,220,300.0703,220,282.0703" style="stroke: #000000; stroke-width: 2.0;"/><text fill="#000000" font-family="sans-serif" font-size="13" font-weight="bold" lengthAdjust="spacingAndGlyphs" textLength="28" x="235" y="296.5654">loop</text><text fill="#000000" font-family="sans-serif" font-size="11" font-weight="bold" lengthAdjust="spacingAndGlyphs" textLength="38" x="308" y="295.4893">[idBox]</text><polygon fill="#A80036" points="525,318.4219,535,322.4219,525,326.4219,529,322.4219" style="stroke: #A80036; stroke-width: 1.0;"/><line style="stroke: #A80036; stroke-width: 1.0;" x1="300" x2="531" y1="322.4219" y2="322.4219"/><text fill="#000000" font-family="sans-serif" font-size="13" font-weight="bold" lengthAdjust="spacingAndGlyphs" textLength="7" x="307" y="317.917">6</text><text fill="#000000" font-family="sans-serif" font-size="13" lengthAdjust="spacingAndGlyphs" textLength="155" x="318" y="317.917">SQL_Query(UPDATE Box)</text><rect fill="none" height="81.0547" style="stroke: #000000; stroke-width: 2.0;" width="357" x="23" y="351.7734"/><polygon fill="#EEEEEE" points="23,351.7734,84,351.7734,84,359.7734,74,369.7734,23,369.7734,23,351.7734" style="stroke: #000000; stroke-width: 2.0;"/><text fill="#000000" font-family="sans-serif" font-size="13" font-weight="bold" lengthAdjust="spacingAndGlyphs" textLength="16" x="38" y="366.2686">alt</text><text fill="#000000" font-family="sans-serif" font-size="11" font-weight="bold" lengthAdjust="spacingAndGlyphs" textLength="93" x="99" y="365.1924">[Delete success]</text><polygon fill="#A80036" points="107,388.125,97,392.125,107,396.125,103,392.125" style="stroke: #A80036; stroke-width: 1.0;"/><line style="stroke: #A80036; stroke-width: 1.0;" x1="101" x2="299" y1="392.125" y2="392.125"/><text fill="#000000" font-family="sans-serif" font-size="13" font-weight="bold" lengthAdjust="spacingAndGlyphs" textLength="7" x="113" y="387.6201">7</text><text fill="#000000" font-family="sans-serif" font-size="13" lengthAdjust="spacingAndGlyphs" textLength="68" x="124" y="387.6201">true deleted</text><line style="stroke: #000000; stroke-width: 1.0; stroke-dasharray: 2.0,2.0;" x1="23" x2="380" y1="401.4766" y2="401.4766"/><polygon fill="#A80036" points="107,420.4766,97,424.4766,107,428.4766,103,424.4766" style="stroke: #A80036; stroke-width: 1.0;"/><line style="stroke: #A80036; stroke-width: 1.0;" x1="101" x2="299" y1="424.4766" y2="424.4766"/><text fill="#000000" font-family="sans-serif" font-size="13" font-weight="bold" lengthAdjust="spacingAndGlyphs" textLength="7" x="113" y="419.9717">8</text><text fill="#000000" font-family="sans-serif" font-size="13" lengthAdjust="spacingAndGlyphs" textLength="84" x="124" y="419.9717">false no delete</text><line style="stroke: #000000; stroke-width: 1.0; stroke-dasharray: 2.0,2.0;" x1="13" x2="613.5" y1="440.8281" y2="440.8281"/><polygon fill="#A80036" points="107,459.8281,97,463.8281,107,467.8281,103,463.8281" style="stroke: #A80036; stroke-width: 1.0;"/><line style="stroke: #A80036; stroke-width: 1.0;" x1="101" x2="299" y1="463.8281" y2="463.8281"/><text fill="#000000" font-family="sans-serif" font-size="13" font-weight="bold" lengthAdjust="spacingAndGlyphs" textLength="7" x="113" y="459.3232">9</text><text fill="#000000" font-family="sans-serif" font-size="13" lengthAdjust="spacingAndGlyphs" textLength="169" x="124" y="459.3232">false no database connection</text></g></svg>