<?xml version="1.0" encoding="UTF-8" standalone="yes"?><svg xmlns="http://www.w3.org/2000/svg" xmlns:xlink="http://www.w3.org/1999/xlink" height="750px" style="width:646px;height:750px;" version="1.1" viewBox="0 0 646 750" width="646px"><defs><filter height="300%" id="f1" width="300%" x="-1" y="-1"><feGaussianBlur result="blurOut" stdDeviation="2.0"/><feColorMatrix in="blurOut" result="blurOut2" type="matrix" values="0 0 0 0 0 0 0 0 0 0 0 0 0 0 0 0 0 0 .4 0"/><feOffset dx="4.0" dy="4.0" in="blurOut2" result="blurOut3"/><feBlend in="SourceGraphic" in2="blurOut3" mode="normal"/></filter></defs><g><rect fill="#0000FF" filter="url(#f1)" height="28" style="stroke: #A80036; stroke-width: 1.0;" width="10" x="290" y="158.3125"/><rect fill="#00A0FF" filter="url(#f1)" height="28" style="stroke: #A80036; stroke-width: 1.0;" width="10" x="290" y="298.2031"/><rect fill="#00CCFF" filter="url(#f1)" height="209.7578" style="stroke: #A80036; stroke-width: 1.0;" width="10" x="290" y="466.2578"/><rect fill="#30DDFF" filter="url(#f1)" height="28" style="stroke: #A80036; stroke-width: 1.0;" width="10" x="295" y="580.6367"/><rect fill="#00CCFF" filter="url(#f1)" height="30" style="stroke: #A80036; stroke-width: 1.0;" width="10" x="516" y="400.9063"/><rect fill="#FFFFFF" filter="url(#f1)" height="558.0547" style="stroke: #000000; stroke-width: 2.0;" width="624" x="13" y="109.9609"/><rect fill="#FFFFFF" height="466.3516" style="stroke: none; stroke-width: 1.0;" width="624" x="13" y="201.6641"/><rect fill="#FFFFFF" filter="url(#f1)" height="287.1094" style="stroke: #000000; stroke-width: 2.0;" width="422" x="205" y="224.5"/><rect fill="#FFFFFF" filter="url(#f1)" height="91.7031" style="stroke: #000000; stroke-width: 2.0;" width="196" x="215" y="249.8516"/><rect fill="#FFFFFF" filter="url(#f1)" height="149.0547" style="stroke: #000000; stroke-width: 2.0;" width="402" x="215" y="355.5547"/><rect fill="#FFFFFF" filter="url(#f1)" height="135.4063" style="stroke: #000000; stroke-width: 2.0;" width="561" x="23" y="525.6094"/><line style="stroke: #A80036; stroke-width: 1.0; stroke-dasharray: 5.0,5.0;" x1="96" x2="96" y1="62.6094" y2="685.0156"/><line style="stroke: #A80036; stroke-width: 1.0; stroke-dasharray: 5.0,5.0;" x1="295" x2="295" y1="62.6094" y2="685.0156"/><line style="stroke: #A80036; stroke-width: 1.0; stroke-dasharray: 5.0,5.0;" x1="521" x2="521" y1="62.6094" y2="685.0156"/><rect fill="#FEFECE" filter="url(#f1)" height="31.6094" style="stroke: #A80036; stroke-width: 1.5;" width="122" x="33" y="26"/><text fill="#000000" font-family="sans-serif" font-size="14" lengthAdjust="spacingAndGlyphs" textLength="108" x="40" y="47.5332">ConsoleWindows</text><rect fill="#FEFECE" filter="url(#f1)" height="31.6094" style="stroke: #A80036; stroke-width: 1.5;" width="122" x="33" y="684.0156"/><text fill="#000000" font-family="sans-serif" font-size="14" lengthAdjust="spacingAndGlyphs" textLength="108" x="40" y="705.5488">ConsoleWindows</text><rect fill="#FEFECE" filter="url(#f1)" height="31.6094" style="stroke: #A80036; stroke-width: 1.5;" width="136" x="225" y="26"/><text fill="#000000" font-family="sans-serif" font-size="14" lengthAdjust="spacingAndGlyphs" textLength="122" x="232" y="47.5332">CSQLite_Local_DB</text><rect fill="#FEFECE" filter="url(#f1)" height="31.6094" style="stroke: #A80036; stroke-width: 1.5;" width="136" x="225" y="684.0156"/><text fill="#000000" font-family="sans-serif" font-size="14" lengthAdjust="spacingAndGlyphs" textLength="122" x="232" y="705.5488">CSQLite_Local_DB</text><text fill="#000000" font-family="sans-serif" font-size="14" lengthAdjust="spacingAndGlyphs" textLength="96" x="470" y="59.5332">LC_SQLite_DB</text><path d="M503,13 C503,3 521,3 521,3 C521,3 539,3 539,13 L539,35 C539,45 521,45 521,45 C521,45 503,45 503,35 L503,13 " fill="#FEFECE" filter="url(#f1)" style="stroke: #A80036; stroke-width: 1.5;"/><path d="M503,13 C503,23 521,23 521,23 C521,23 539,23 539,13 " fill="none" style="stroke: #A80036; stroke-width: 1.5;"/><text fill="#000000" font-family="sans-serif" font-size="14" lengthAdjust="spacingAndGlyphs" textLength="96" x="470" y="698.5488">LC_SQLite_DB</text><path d="M503,711.625 C503,701.625 521,701.625 521,701.625 C521,701.625 539,701.625 539,711.625 L539,733.625 C539,743.625 521,743.625 521,743.625 C521,743.625 503,743.625 503,733.625 L503,711.625 " fill="#FEFECE" filter="url(#f1)" style="stroke: #A80036; stroke-width: 1.5;"/><path d="M503,711.625 C503,721.625 521,721.625 521,721.625 C521,721.625 539,721.625 539,711.625 " fill="none" style="stroke: #A80036; stroke-width: 1.5;"/><rect fill="#0000FF" filter="url(#f1)" height="28" style="stroke: #A80036; stroke-width: 1.0;" width="10" x="290" y="158.3125"/><rect fill="#00A0FF" filter="url(#f1)" height="28" style="stroke: #A80036; stroke-width: 1.0;" width="10" x="290" y="298.2031"/><rect fill="#00CCFF" filter="url(#f1)" height="209.7578" style="stroke: #A80036; stroke-width: 1.0;" width="10" x="290" y="466.2578"/><rect fill="#30DDFF" filter="url(#f1)" height="28" style="stroke: #A80036; stroke-width: 1.0;" width="10" x="295" y="580.6367"/><rect fill="#00CCFF" filter="url(#f1)" height="30" style="stroke: #A80036; stroke-width: 1.0;" width="10" x="516" y="400.9063"/><polygon fill="#A80036" points="283,90.6094,293,94.6094,283,98.6094,287,94.6094" style="stroke: #A80036; stroke-width: 1.0;"/><line style="stroke: #A80036; stroke-width: 1.0;" x1="96" x2="289" y1="94.6094" y2="94.6094"/><text fill="#000000" font-family="sans-serif" font-size="13" font-weight="bold" lengthAdjust="spacingAndGlyphs" textLength="7" x="103" y="90.1045">1</text><text fill="#000000" font-family="sans-serif" font-size="13" lengthAdjust="spacingAndGlyphs" textLength="164" x="114" y="90.1045">Builder CSQLite_Local_DB()</text><rect fill="none" height="558.0547" style="stroke: #000000; stroke-width: 2.0;" width="624" x="13" y="109.9609"/><polygon fill="#EEEEEE" points="13,109.9609,74,109.9609,74,117.9609,64,127.9609,13,127.9609,13,109.9609" style="stroke: #000000; stroke-width: 2.0;"/><text fill="#000000" font-family="sans-serif" font-size="13" font-weight="bold" lengthAdjust="spacingAndGlyphs" textLength="16" x="28" y="124.4561">alt</text><text fill="#000000" font-family="sans-serif" font-size="11" font-weight="bold" lengthAdjust="spacingAndGlyphs" textLength="115" x="89" y="123.3799">[database file exsist]</text><line style="stroke: #A80036; stroke-width: 1.0;" x1="300" x2="342" y1="150.6641" y2="150.6641"/><line style="stroke: #A80036; stroke-width: 1.0;" x1="342" x2="342" y1="150.6641" y2="163.6641"/><line style="stroke: #A80036; stroke-width: 1.0;" x1="301" x2="342" y1="163.6641" y2="163.6641"/><polygon fill="#A80036" points="311,159.6641,301,163.6641,311,167.6641,307,163.6641" style="stroke: #A80036; stroke-width: 1.0;"/><text fill="#000000" font-family="sans-serif" font-size="13" font-weight="bold" lengthAdjust="spacingAndGlyphs" textLength="7" x="307" y="145.8076">2</text><text fill="#000000" font-family="sans-serif" font-size="13" lengthAdjust="spacingAndGlyphs" textLength="81" x="318" y="145.8076">Connect_DB()</text><line style="stroke: #000000; stroke-width: 1.0; stroke-dasharray: 2.0,2.0;" x1="13" x2="637" y1="202.6641" y2="202.6641"/><text fill="#000000" font-family="sans-serif" font-size="11" font-weight="bold" lengthAdjust="spacingAndGlyphs" textLength="136" x="18" y="214.083">[database file not exsist]</text><rect fill="none" height="287.1094" style="stroke: #000000; stroke-width: 2.0;" width="422" x="205" y="224.5"/><polygon fill="#EEEEEE" points="205,224.5,266,224.5,266,232.5,256,242.5,205,242.5,205,224.5" style="stroke: #000000; stroke-width: 2.0;"/><text fill="#000000" font-family="sans-serif" font-size="13" font-weight="bold" lengthAdjust="spacingAndGlyphs" textLength="16" x="220" y="238.9951">alt</text><text fill="#000000" font-family="sans-serif" font-size="11" font-weight="bold" lengthAdjust="spacingAndGlyphs" textLength="101" x="281" y="237.9189">[SQL files exsists]</text><rect fill="none" height="91.7031" style="stroke: #000000; stroke-width: 2.0;" width="196" x="215" y="249.8516"/><polygon fill="#EEEEEE" points="215,249.8516,276,249.8516,276,257.8516,266,267.8516,215,267.8516,215,249.8516" style="stroke: #000000; stroke-width: 2.0;"/><text fill="#000000" font-family="sans-serif" font-size="13" font-weight="bold" lengthAdjust="spacingAndGlyphs" textLength="16" x="230" y="264.3467">alt</text><text fill="#000000" font-family="sans-serif" font-size="11" font-weight="bold" lengthAdjust="spacingAndGlyphs" textLength="79" x="291" y="263.2705">[SQL save file]</text><line style="stroke: #A80036; stroke-width: 1.0;" x1="300" x2="342" y1="290.5547" y2="290.5547"/><line style="stroke: #A80036; stroke-width: 1.0;" x1="342" x2="342" y1="290.5547" y2="303.5547"/><line style="stroke: #A80036; stroke-width: 1.0;" x1="301" x2="342" y1="303.5547" y2="303.5547"/><polygon fill="#A80036" points="311,299.5547,301,303.5547,311,307.5547,307,303.5547" style="stroke: #A80036; stroke-width: 1.0;"/><text fill="#000000" font-family="sans-serif" font-size="13" font-weight="bold" lengthAdjust="spacingAndGlyphs" textLength="7" x="307" y="285.6982">3</text><text fill="#000000" font-family="sans-serif" font-size="13" lengthAdjust="spacingAndGlyphs" textLength="81" x="318" y="285.6982">Connect_DB()</text><rect fill="none" height="149.0547" style="stroke: #000000; stroke-width: 2.0;" width="402" x="215" y="355.5547"/><polygon fill="#EEEEEE" points="215,355.5547,276,355.5547,276,363.5547,266,373.5547,215,373.5547,215,355.5547" style="stroke: #000000; stroke-width: 2.0;"/><text fill="#000000" font-family="sans-serif" font-size="13" font-weight="bold" lengthAdjust="spacingAndGlyphs" textLength="16" x="230" y="370.0498">alt</text><text fill="#000000" font-family="sans-serif" font-size="11" font-weight="bold" lengthAdjust="spacingAndGlyphs" textLength="140" x="291" y="368.9736">[SQL build database files]</text><polygon fill="#A80036" points="504,396.9063,514,400.9063,504,404.9063,508,400.9063" style="stroke: #A80036; stroke-width: 1.0;"/><line style="stroke: #A80036; stroke-width: 1.0;" x1="295" x2="510" y1="400.9063" y2="400.9063"/><text fill="#000000" font-family="sans-serif" font-size="13" font-weight="bold" lengthAdjust="spacingAndGlyphs" textLength="7" x="302" y="396.4014">4</text><text fill="#000000" font-family="sans-serif" font-size="13" lengthAdjust="spacingAndGlyphs" textLength="191" x="313" y="396.4014">DatabaseManager(LOAD_SAVE)</text><polygon fill="#FBFB77" filter="url(#f1)" points="531,378.9063,531,404.9063,608,404.9063,608,388.9063,598,378.9063,531,378.9063" style="stroke: #A80036; stroke-width: 1.0;"/><line style="stroke: #A80036; stroke-width: 1.0;" x1="598" x2="598" y1="378.9063" y2="388.9063"/><line style="stroke: #A80036; stroke-width: 1.0;" x1="608" x2="598" y1="388.9063" y2="388.9063"/><text fill="#000000" font-family="sans-serif" font-size="13" lengthAdjust="spacingAndGlyphs" textLength="56" x="537" y="397.4014">No thread</text><polygon fill="#A80036" points="311,462.2578,301,466.2578,311,470.2578,307,466.2578" style="stroke: #A80036; stroke-width: 1.0;"/><line style="stroke: #A80036; stroke-width: 1.0;" x1="305" x2="520" y1="466.2578" y2="466.2578"/><text fill="#000000" font-family="sans-serif" font-size="13" font-weight="bold" lengthAdjust="spacingAndGlyphs" textLength="7" x="317" y="461.7529">5</text><text fill="#000000" font-family="sans-serif" font-size="13" lengthAdjust="spacingAndGlyphs" textLength="0" x="332" y="461.7529"/><rect fill="none" height="135.4063" style="stroke: #000000; stroke-width: 2.0;" width="561" x="23" y="525.6094"/><polygon fill="#EEEEEE" points="23,525.6094,84,525.6094,84,533.6094,74,543.6094,23,543.6094,23,525.6094" style="stroke: #000000; stroke-width: 2.0;"/><text fill="#000000" font-family="sans-serif" font-size="13" font-weight="bold" lengthAdjust="spacingAndGlyphs" textLength="16" x="38" y="540.1045">alt</text><text fill="#000000" font-family="sans-serif" font-size="11" font-weight="bold" lengthAdjust="spacingAndGlyphs" textLength="187" x="99" y="539.0283">[No SQL files and No database file]</text><line style="stroke: #A80036; stroke-width: 1.0;" x1="305" x2="347" y1="572.9883" y2="572.9883"/><line style="stroke: #A80036; stroke-width: 1.0;" x1="347" x2="347" y1="572.9883" y2="585.9883"/><line style="stroke: #A80036; stroke-width: 1.0;" x1="306" x2="347" y1="585.9883" y2="585.9883"/><polygon fill="#A80036" points="316,581.9883,306,585.9883,316,589.9883,312,585.9883" style="stroke: #A80036; stroke-width: 1.0;"/><text fill="#000000" font-family="sans-serif" font-size="13" font-weight="bold" lengthAdjust="spacingAndGlyphs" textLength="7" x="312" y="568.1318">6</text><text fill="#000000" font-family="sans-serif" font-size="13" lengthAdjust="spacingAndGlyphs" textLength="126" x="323" y="568.1318">Database_Not_Ready</text><polygon fill="#FBFB77" filter="url(#f1)" points="461,548.9609,461,590.9609,570,590.9609,570,558.9609,560,548.9609,461,548.9609" style="stroke: #A80036; stroke-width: 1.0;"/><line style="stroke: #A80036; stroke-width: 1.0;" x1="560" x2="560" y1="548.9609" y2="558.9609"/><line style="stroke: #A80036; stroke-width: 1.0;" x1="570" x2="560" y1="558.9609" y2="558.9609"/><text fill="#000000" font-family="sans-serif" font-size="13" lengthAdjust="spacingAndGlyphs" textLength="72" x="467" y="567.4561">Bool used in</text><text fill="#000000" font-family="sans-serif" font-size="13" lengthAdjust="spacingAndGlyphs" textLength="84" x="471" y="583.8076">all of the class</text><polygon fill="#A80036" points="107,648.6641,97,652.6641,107,656.6641,103,652.6641" style="stroke: #A80036; stroke-width: 1.0;"/><line style="stroke: #A80036; stroke-width: 1.0;" x1="101" x2="289" y1="652.6641" y2="652.6641"/><text fill="#000000" font-family="sans-serif" font-size="13" font-weight="bold" lengthAdjust="spacingAndGlyphs" textLength="7" x="113" y="648.1592">7</text><text fill="#000000" font-family="sans-serif" font-size="13" lengthAdjust="spacingAndGlyphs" textLength="54" x="124" y="648.1592">fatal error</text></g></svg>