<?xml version="1.0" encoding="UTF-8" standalone="yes"?><svg xmlns="http://www.w3.org/2000/svg" xmlns:xlink="http://www.w3.org/1999/xlink" height="329px" style="width:577px;height:329px;" version="1.1" viewBox="0 0 577 329" width="577px"><defs><filter height="300%" id="f1" width="300%" x="-1" y="-1"><feGaussianBlur result="blurOut" stdDeviation="2.0"/><feColorMatrix in="blurOut" result="blurOut2" type="matrix" values="0 0 0 0 0 0 0 0 0 0 0 0 0 0 0 0 0 0 .4 0"/><feOffset dx="4.0" dy="4.0" in="blurOut2" result="blurOut3"/><feBlend in="SourceGraphic" in2="blurOut3" mode="normal"/></filter></defs><g><rect fill="#0000FF" filter="url(#f1)" height="120.4063" style="stroke: #A80036; stroke-width: 1.0;" width="10" x="341" y="94.6094"/><rect fill="#00BBFF" filter="url(#f1)" height="82.0547" style="stroke: #A80036; stroke-width: 1.0;" width="10" x="346" y="132.9609"/><rect fill="#50EEFF" filter="url(#f1)" height="30.7031" style="stroke: #A80036; stroke-width: 1.0;" width="10" x="526" y="184.3125"/><line style="stroke: #A80036; stroke-width: 1.0; stroke-dasharray: 5.0,5.0;" x1="71" x2="71" y1="62.6094" y2="263.7188"/><line style="stroke: #A80036; stroke-width: 1.0; stroke-dasharray: 5.0,5.0;" x1="346" x2="346" y1="62.6094" y2="263.7188"/><line style="stroke: #A80036; stroke-width: 1.0; stroke-dasharray: 5.0,5.0;" x1="531" x2="531" y1="62.6094" y2="263.7188"/><rect fill="#FEFECE" filter="url(#f1)" height="31.6094" style="stroke: #A80036; stroke-width: 1.5;" width="122" x="8" y="26"/><text fill="#000000" font-family="sans-serif" font-size="14" lengthAdjust="spacingAndGlyphs" textLength="108" x="15" y="47.5332">ConsoleWindows</text><rect fill="#FEFECE" filter="url(#f1)" height="31.6094" style="stroke: #A80036; stroke-width: 1.5;" width="122" x="8" y="262.7188"/><text fill="#000000" font-family="sans-serif" font-size="14" lengthAdjust="spacingAndGlyphs" textLength="108" x="15" y="284.252">ConsoleWindows</text><rect fill="#FEFECE" filter="url(#f1)" height="31.6094" style="stroke: #A80036; stroke-width: 1.5;" width="136" x="276" y="26"/><text fill="#000000" font-family="sans-serif" font-size="14" lengthAdjust="spacingAndGlyphs" textLength="122" x="283" y="47.5332">CSQLite_Local_DB</text><rect fill="#FEFECE" filter="url(#f1)" height="31.6094" style="stroke: #A80036; stroke-width: 1.5;" width="136" x="276" y="262.7188"/><text fill="#000000" font-family="sans-serif" font-size="14" lengthAdjust="spacingAndGlyphs" textLength="122" x="283" y="284.252">CSQLite_Local_DB</text><text fill="#000000" font-family="sans-serif" font-size="14" lengthAdjust="spacingAndGlyphs" textLength="96" x="480" y="59.5332">LC_SQLite_DB</text><path d="M513,13 C513,3 531,3 531,3 C531,3 549,3 549,13 L549,35 C549,45 531,45 531,45 C531,45 513,45 513,35 L513,13 " fill="#FEFECE" filter="url(#f1)" style="stroke: #A80036; stroke-width: 1.5;"/><path d="M513,13 C513,23 531,23 531,23 C531,23 549,23 549,13 " fill="none" style="stroke: #A80036; stroke-width: 1.5;"/><text fill="#000000" font-family="sans-serif" font-size="14" lengthAdjust="spacingAndGlyphs" textLength="96" x="480" y="277.252">LC_SQLite_DB</text><path d="M513,290.3281 C513,280.3281 531,280.3281 531,280.3281 C531,280.3281 549,280.3281 549,290.3281 L549,312.3281 C549,322.3281 531,322.3281 531,322.3281 C531,322.3281 513,322.3281 513,312.3281 L513,290.3281 " fill="#FEFECE" filter="url(#f1)" style="stroke: #A80036; stroke-width: 1.5;"/><path d="M513,290.3281 C513,300.3281 531,300.3281 531,300.3281 C531,300.3281 549,300.3281 549,290.3281 " fill="none" style="stroke: #A80036; stroke-width: 1.5;"/><rect fill="#0000FF" filter="url(#f1)" height="120.4063" style="stroke: #A80036; stroke-width: 1.0;" width="10" x="341" y="94.6094"/><rect fill="#00BBFF" filter="url(#f1)" height="82.0547" style="stroke: #A80036; stroke-width: 1.0;" width="10" x="346" y="132.9609"/><rect fill="#50EEFF" filter="url(#f1)" height="30.7031" style="stroke: #A80036; stroke-width: 1.0;" width="10" x="526" y="184.3125"/><polygon fill="#A80036" points="329,90.6094,339,94.6094,329,98.6094,333,94.6094" style="stroke: #A80036; stroke-width: 1.0;"/><line style="stroke: #A80036; stroke-width: 1.0;" x1="71" x2="335" y1="94.6094" y2="94.6094"/><text fill="#000000" font-family="sans-serif" font-size="13" font-weight="bold" lengthAdjust="spacingAndGlyphs" textLength="7" x="78" y="90.1045">1</text><text fill="#000000" font-family="sans-serif" font-size="13" lengthAdjust="spacingAndGlyphs" textLength="240" x="89" y="90.1045">CSQLite_Local_DB::CSQLite_Local_DB()</text><line style="stroke: #A80036; stroke-width: 1.0;" x1="351" x2="398" y1="120.3125" y2="120.3125"/><line style="stroke: #A80036; stroke-width: 1.0;" x1="398" x2="398" y1="120.3125" y2="133.3125"/><line style="stroke: #A80036; stroke-width: 1.0;" x1="357" x2="398" y1="133.3125" y2="133.3125"/><polygon fill="#A80036" points="367,129.3125,357,133.3125,367,137.3125,363,133.3125" style="stroke: #A80036; stroke-width: 1.0;"/><text fill="#000000" font-family="sans-serif" font-size="13" font-weight="bold" lengthAdjust="spacingAndGlyphs" textLength="7" x="363" y="115.4561">2</text><text fill="#000000" font-family="sans-serif" font-size="13" lengthAdjust="spacingAndGlyphs" textLength="81" x="374" y="115.4561">Connect_DB()</text><polygon fill="#A80036" points="514,180.3125,524,184.3125,514,188.3125,518,184.3125" style="stroke: #A80036; stroke-width: 1.0;"/><line style="stroke: #A80036; stroke-width: 1.0;" x1="356" x2="520" y1="184.3125" y2="184.3125"/><text fill="#000000" font-family="sans-serif" font-size="13" font-weight="bold" lengthAdjust="spacingAndGlyphs" textLength="7" x="363" y="171.9834">3</text><text fill="#000000" font-family="sans-serif" font-size="13" lengthAdjust="spacingAndGlyphs" textLength="115" x="374" y="163.8076">Try to connect, else</text><text fill="#000000" font-family="sans-serif" font-size="13" lengthAdjust="spacingAndGlyphs" textLength="126" x="378" y="180.1592">build a new database.</text><polygon fill="#A80036" points="357,211.0156,347,215.0156,357,219.0156,353,215.0156" style="stroke: #A80036; stroke-width: 1.0;"/><line style="stroke: #A80036; stroke-width: 1.0;" x1="351" x2="530" y1="215.0156" y2="215.0156"/><text fill="#000000" font-family="sans-serif" font-size="13" font-weight="bold" lengthAdjust="spacingAndGlyphs" textLength="7" x="363" y="210.5107">4</text><text fill="#000000" font-family="sans-serif" font-size="13" lengthAdjust="spacingAndGlyphs" textLength="135" x="374" y="210.5107">Database status (bool).</text><polygon fill="#A80036" points="82,241.3672,72,245.3672,82,249.3672,78,245.3672" style="stroke: #A80036; stroke-width: 1.0;"/><line style="stroke: #A80036; stroke-width: 1.0;" x1="76" x2="345" y1="245.3672" y2="245.3672"/><text fill="#000000" font-family="sans-serif" font-size="13" font-weight="bold" lengthAdjust="spacingAndGlyphs" textLength="7" x="88" y="240.8623">5</text><text fill="#000000" font-family="sans-serif" font-size="13" lengthAdjust="spacingAndGlyphs" textLength="135" x="99" y="240.8623">Database satuts (bool).</text></g></svg>