<?xml version="1.0" encoding="UTF-8" standalone="yes"?><svg xmlns="http://www.w3.org/2000/svg" xmlns:xlink="http://www.w3.org/1999/xlink" height="704px" style="width:632px;height:704px;" version="1.1" viewBox="0 0 632 704" width="632px"><defs><filter height="300%" id="f1" width="300%" x="-1" y="-1"><feGaussianBlur result="blurOut" stdDeviation="2.0"/><feColorMatrix in="blurOut" result="blurOut2" type="matrix" values="0 0 0 0 0 0 0 0 0 0 0 0 0 0 0 0 0 0 .4 0"/><feOffset dx="4.0" dy="4.0" in="blurOut2" result="blurOut3"/><feBlend in="SourceGraphic" in2="blurOut3" mode="normal"/></filter></defs><g><rect fill="#30DDFF" filter="url(#f1)" height="519.2188" style="stroke: #A80036; stroke-width: 1.0;" width="10" x="300" y="94.6094"/><rect fill="#30DDFF" filter="url(#f1)" height="30" style="stroke: #A80036; stroke-width: 1.0;" width="10" x="542" y="150.3125"/><rect fill="#30DDFF" filter="url(#f1)" height="30" style="stroke: #A80036; stroke-width: 1.0;" width="10" x="542" y="210.6641"/><rect fill="#30DDFF" filter="url(#f1)" height="30" style="stroke: #A80036; stroke-width: 1.0;" width="10" x="542" y="271.0156"/><rect fill="#30DDFF" filter="url(#f1)" height="30" style="stroke: #A80036; stroke-width: 1.0;" width="10" x="542" y="356.7188"/><rect fill="#30DDFF" filter="url(#f1)" height="30" style="stroke: #A80036; stroke-width: 1.0;" width="10" x="542" y="442.4219"/><rect fill="#FFFFFF" filter="url(#f1)" height="512.2188" style="stroke: #000000; stroke-width: 2.0;" width="610.5" x="13" y="109.9609"/><rect fill="#FFFFFF" filter="url(#f1)" height="171.4063" style="stroke: #000000; stroke-width: 2.0;" width="398.5" x="215" y="316.3672"/><rect fill="#FFFFFF" filter="url(#f1)" height="78.7031" style="stroke: #000000; stroke-width: 2.0;" width="378.5" x="225" y="402.0703"/><rect fill="#FFFFFF" filter="url(#f1)" height="81.0547" style="stroke: #000000; stroke-width: 2.0;" width="362" x="23" y="501.7734"/><rect fill="#FFFFFF" height="32.3516" style="stroke: none; stroke-width: 1.0;" width="362" x="23" y="550.4766"/><rect fill="#FFFFFF" height="32.3516" style="stroke: none; stroke-width: 1.0;" width="610.5" x="13" y="589.8281"/><line style="stroke: #A80036; stroke-width: 1.0; stroke-dasharray: 5.0,5.0;" x1="96" x2="96" y1="62.6094" y2="639.1797"/><line style="stroke: #A80036; stroke-width: 1.0; stroke-dasharray: 5.0,5.0;" x1="305" x2="305" y1="62.6094" y2="639.1797"/><line style="stroke: #A80036; stroke-width: 1.0; stroke-dasharray: 5.0,5.0;" x1="546.5" x2="546.5" y1="62.6094" y2="639.1797"/><rect fill="#FEFECE" filter="url(#f1)" height="31.6094" style="stroke: #A80036; stroke-width: 1.5;" width="122" x="33" y="26"/><text fill="#000000" font-family="sans-serif" font-size="14" lengthAdjust="spacingAndGlyphs" textLength="108" x="40" y="47.5332">ConsoleWindows</text><rect fill="#FEFECE" filter="url(#f1)" height="31.6094" style="stroke: #A80036; stroke-width: 1.5;" width="122" x="33" y="638.1797"/><text fill="#000000" font-family="sans-serif" font-size="14" lengthAdjust="spacingAndGlyphs" textLength="108" x="40" y="659.7129">ConsoleWindows</text><rect fill="#FEFECE" filter="url(#f1)" height="31.6094" style="stroke: #A80036; stroke-width: 1.5;" width="136" x="235" y="26"/><text fill="#000000" font-family="sans-serif" font-size="14" lengthAdjust="spacingAndGlyphs" textLength="122" x="242" y="47.5332">CSQLite_Local_DB</text><rect fill="#FEFECE" filter="url(#f1)" height="31.6094" style="stroke: #A80036; stroke-width: 1.5;" width="136" x="235" y="638.1797"/><text fill="#000000" font-family="sans-serif" font-size="14" lengthAdjust="spacingAndGlyphs" textLength="122" x="242" y="659.7129">CSQLite_Local_DB</text><text fill="#000000" font-family="sans-serif" font-size="14" lengthAdjust="spacingAndGlyphs" textLength="87" x="500.5" y="59.5332">LC_Database</text><path d="M529,13 C529,3 547,3 547,3 C547,3 565,3 565,13 L565,35 C565,45 547,45 547,45 C547,45 529,45 529,35 L529,13 " fill="#FEFECE" filter="url(#f1)" style="stroke: #A80036; stroke-width: 1.5;"/><path d="M529,13 C529,23 547,23 547,23 C547,23 565,23 565,13 " fill="none" style="stroke: #A80036; stroke-width: 1.5;"/><text fill="#000000" font-family="sans-serif" font-size="14" lengthAdjust="spacingAndGlyphs" textLength="87" x="500.5" y="652.7129">LC_Database</text><path d="M529,665.7891 C529,655.7891 547,655.7891 547,655.7891 C547,655.7891 565,655.7891 565,665.7891 L565,687.7891 C565,697.7891 547,697.7891 547,697.7891 C547,697.7891 529,697.7891 529,687.7891 L529,665.7891 " fill="#FEFECE" filter="url(#f1)" style="stroke: #A80036; stroke-width: 1.5;"/><path d="M529,665.7891 C529,675.7891 547,675.7891 547,675.7891 C547,675.7891 565,675.7891 565,665.7891 " fill="none" style="stroke: #A80036; stroke-width: 1.5;"/><rect fill="#30DDFF" filter="url(#f1)" height="519.2188" style="stroke: #A80036; stroke-width: 1.0;" width="10" x="300" y="94.6094"/><rect fill="#30DDFF" filter="url(#f1)" height="30" style="stroke: #A80036; stroke-width: 1.0;" width="10" x="542" y="150.3125"/><rect fill="#30DDFF" filter="url(#f1)" height="30" style="stroke: #A80036; stroke-width: 1.0;" width="10" x="542" y="210.6641"/><rect fill="#30DDFF" filter="url(#f1)" height="30" style="stroke: #A80036; stroke-width: 1.0;" width="10" x="542" y="271.0156"/><rect fill="#30DDFF" filter="url(#f1)" height="30" style="stroke: #A80036; stroke-width: 1.0;" width="10" x="542" y="356.7188"/><rect fill="#30DDFF" filter="url(#f1)" height="30" style="stroke: #A80036; stroke-width: 1.0;" width="10" x="542" y="442.4219"/><polygon fill="#A80036" points="288,90.6094,298,94.6094,288,98.6094,292,94.6094" style="stroke: #A80036; stroke-width: 1.0;"/><line style="stroke: #A80036; stroke-width: 1.0;" x1="96" x2="294" y1="94.6094" y2="94.6094"/><text fill="#000000" font-family="sans-serif" font-size="13" font-weight="bold" lengthAdjust="spacingAndGlyphs" textLength="7" x="103" y="90.1045">1</text><text fill="#000000" font-family="sans-serif" font-size="13" lengthAdjust="spacingAndGlyphs" textLength="117" x="114" y="90.1045">DeleteExtractCode()</text><rect fill="none" height="512.2188" style="stroke: #000000; stroke-width: 2.0;" width="610.5" x="13" y="109.9609"/><polygon fill="#EEEEEE" points="13,109.9609,74,109.9609,74,117.9609,64,127.9609,13,127.9609,13,109.9609" style="stroke: #000000; stroke-width: 2.0;"/><text fill="#000000" font-family="sans-serif" font-size="13" font-weight="bold" lengthAdjust="spacingAndGlyphs" textLength="16" x="28" y="124.4561">alt</text><text fill="#000000" font-family="sans-serif" font-size="11" font-weight="bold" lengthAdjust="spacingAndGlyphs" textLength="105" x="89" y="123.3799">[Database is ready]</text><polygon fill="#A80036" points="530,146.3125,540,150.3125,530,154.3125,534,150.3125" style="stroke: #A80036; stroke-width: 1.0;"/><line style="stroke: #A80036; stroke-width: 1.0;" x1="310" x2="536" y1="150.3125" y2="150.3125"/><text fill="#000000" font-family="sans-serif" font-size="13" font-weight="bold" lengthAdjust="spacingAndGlyphs" textLength="7" x="317" y="145.8076">2</text><text fill="#000000" font-family="sans-serif" font-size="13" lengthAdjust="spacingAndGlyphs" textLength="163" x="328" y="145.8076">SQL_Query(SELECT idBox)</text><polygon fill="#A80036" points="530,206.6641,540,210.6641,530,214.6641,534,210.6641" style="stroke: #A80036; stroke-width: 1.0;"/><line style="stroke: #A80036; stroke-width: 1.0;" x1="310" x2="536" y1="210.6641" y2="210.6641"/><text fill="#000000" font-family="sans-serif" font-size="13" font-weight="bold" lengthAdjust="spacingAndGlyphs" textLength="7" x="317" y="206.1592">3</text><text fill="#000000" font-family="sans-serif" font-size="13" lengthAdjust="spacingAndGlyphs" textLength="191" x="328" y="206.1592">SQL_Query(SELECT idPackage)</text><polygon fill="#A80036" points="530,267.0156,540,271.0156,530,275.0156,534,271.0156" style="stroke: #A80036; stroke-width: 1.0;"/><line style="stroke: #A80036; stroke-width: 1.0;" x1="310" x2="536" y1="271.0156" y2="271.0156"/><text fill="#000000" font-family="sans-serif" font-size="13" font-weight="bold" lengthAdjust="spacingAndGlyphs" textLength="7" x="317" y="266.5107">4</text><text fill="#000000" font-family="sans-serif" font-size="13" lengthAdjust="spacingAndGlyphs" textLength="202" x="328" y="266.5107">SQL_Query(DELETE ExtractCode)</text><rect fill="none" height="171.4063" style="stroke: #000000; stroke-width: 2.0;" width="398.5" x="215" y="316.3672"/><polygon fill="#EEEEEE" points="215,316.3672,288,316.3672,288,324.3672,278,334.3672,215,334.3672,215,316.3672" style="stroke: #000000; stroke-width: 2.0;"/><text fill="#000000" font-family="sans-serif" font-size="13" font-weight="bold" lengthAdjust="spacingAndGlyphs" textLength="28" x="230" y="330.8623">loop</text><text fill="#000000" font-family="sans-serif" font-size="11" font-weight="bold" lengthAdjust="spacingAndGlyphs" textLength="64" x="303" y="329.7861">[idPackage]</text><polygon fill="#A80036" points="530,352.7188,540,356.7188,530,360.7188,534,356.7188" style="stroke: #A80036; stroke-width: 1.0;"/><line style="stroke: #A80036; stroke-width: 1.0;" x1="310" x2="536" y1="356.7188" y2="356.7188"/><text fill="#000000" font-family="sans-serif" font-size="13" font-weight="bold" lengthAdjust="spacingAndGlyphs" textLength="7" x="317" y="352.2139">5</text><text fill="#000000" font-family="sans-serif" font-size="13" lengthAdjust="spacingAndGlyphs" textLength="191" x="328" y="352.2139">SQL_Query(DELETE idPackage)</text><rect fill="none" height="78.7031" style="stroke: #000000; stroke-width: 2.0;" width="378.5" x="225" y="402.0703"/><polygon fill="#EEEEEE" points="225,402.0703,298,402.0703,298,410.0703,288,420.0703,225,420.0703,225,402.0703" style="stroke: #000000; stroke-width: 2.0;"/><text fill="#000000" font-family="sans-serif" font-size="13" font-weight="bold" lengthAdjust="spacingAndGlyphs" textLength="28" x="240" y="416.5654">loop</text><text fill="#000000" font-family="sans-serif" font-size="11" font-weight="bold" lengthAdjust="spacingAndGlyphs" textLength="38" x="313" y="415.4893">[idBox]</text><polygon fill="#A80036" points="530,438.4219,540,442.4219,530,446.4219,534,442.4219" style="stroke: #A80036; stroke-width: 1.0;"/><line style="stroke: #A80036; stroke-width: 1.0;" x1="310" x2="536" y1="442.4219" y2="442.4219"/><text fill="#000000" font-family="sans-serif" font-size="13" font-weight="bold" lengthAdjust="spacingAndGlyphs" textLength="7" x="317" y="437.917">6</text><text fill="#000000" font-family="sans-serif" font-size="13" lengthAdjust="spacingAndGlyphs" textLength="155" x="328" y="437.917">SQL_Query(UPDATE Box)</text><rect fill="none" height="81.0547" style="stroke: #000000; stroke-width: 2.0;" width="362" x="23" y="501.7734"/><polygon fill="#EEEEEE" points="23,501.7734,84,501.7734,84,509.7734,74,519.7734,23,519.7734,23,501.7734" style="stroke: #000000; stroke-width: 2.0;"/><text fill="#000000" font-family="sans-serif" font-size="13" font-weight="bold" lengthAdjust="spacingAndGlyphs" textLength="16" x="38" y="516.2686">alt</text><text fill="#000000" font-family="sans-serif" font-size="11" font-weight="bold" lengthAdjust="spacingAndGlyphs" textLength="93" x="99" y="515.1924">[Delete success]</text><polygon fill="#A80036" points="107,538.125,97,542.125,107,546.125,103,542.125" style="stroke: #A80036; stroke-width: 1.0;"/><line style="stroke: #A80036; stroke-width: 1.0;" x1="101" x2="299" y1="542.125" y2="542.125"/><text fill="#000000" font-family="sans-serif" font-size="13" font-weight="bold" lengthAdjust="spacingAndGlyphs" textLength="7" x="113" y="537.6201">7</text><text fill="#000000" font-family="sans-serif" font-size="13" lengthAdjust="spacingAndGlyphs" textLength="68" x="124" y="537.6201">true deleted</text><line style="stroke: #000000; stroke-width: 1.0; stroke-dasharray: 2.0,2.0;" x1="23" x2="385" y1="551.4766" y2="551.4766"/><polygon fill="#A80036" points="107,570.4766,97,574.4766,107,578.4766,103,574.4766" style="stroke: #A80036; stroke-width: 1.0;"/><line style="stroke: #A80036; stroke-width: 1.0;" x1="101" x2="299" y1="574.4766" y2="574.4766"/><text fill="#000000" font-family="sans-serif" font-size="13" font-weight="bold" lengthAdjust="spacingAndGlyphs" textLength="7" x="113" y="569.9717">8</text><text fill="#000000" font-family="sans-serif" font-size="13" lengthAdjust="spacingAndGlyphs" textLength="84" x="124" y="569.9717">false no delete</text><line style="stroke: #000000; stroke-width: 1.0; stroke-dasharray: 2.0,2.0;" x1="13" x2="623.5" y1="590.8281" y2="590.8281"/><polygon fill="#A80036" points="107,609.8281,97,613.8281,107,617.8281,103,613.8281" style="stroke: #A80036; stroke-width: 1.0;"/><line style="stroke: #A80036; stroke-width: 1.0;" x1="101" x2="304" y1="613.8281" y2="613.8281"/><text fill="#000000" font-family="sans-serif" font-size="13" font-weight="bold" lengthAdjust="spacingAndGlyphs" textLength="7" x="113" y="609.3232">9</text><text fill="#000000" font-family="sans-serif" font-size="13" lengthAdjust="spacingAndGlyphs" textLength="169" x="124" y="609.3232">false no database connection</text></g></svg>