<?xml version="1.0" encoding="UTF-8" standalone="yes"?><svg xmlns="http://www.w3.org/2000/svg" xmlns:xlink="http://www.w3.org/1999/xlink" height="631px" style="width:698px;height:631px;" version="1.1" viewBox="0 0 698 631" width="698px"><defs><filter height="300%" id="f1" width="300%" x="-1" y="-1"><feGaussianBlur result="blurOut" stdDeviation="2.0"/><feColorMatrix in="blurOut" result="blurOut2" type="matrix" values="0 0 0 0 0 0 0 0 0 0 0 0 0 0 0 0 0 0 .4 0"/><feOffset dx="4.0" dy="4.0" in="blurOut2" result="blurOut3"/><feBlend in="SourceGraphic" in2="blurOut3" mode="normal"/></filter></defs><g><rect fill="#00CCFF" filter="url(#f1)" height="446.2188" style="stroke: #A80036; stroke-width: 1.0;" width="10" x="360" y="94.6094"/><rect fill="#30DDFF" filter="url(#f1)" height="30" style="stroke: #A80036; stroke-width: 1.0;" width="10" x="608" y="219.0156"/><rect fill="#30DDFF" filter="url(#f1)" height="30" style="stroke: #A80036; stroke-width: 1.0;" width="10" x="608" y="304.7188"/><rect fill="#FFFFFF" filter="url(#f1)" height="439.2188" style="stroke: #000000; stroke-width: 2.0;" width="676.5" x="13" y="109.9609"/><rect fill="#FFFFFF" filter="url(#f1)" height="331.1641" style="stroke: #000000; stroke-width: 2.0;" width="656.5" x="23" y="178.6641"/><rect fill="#FFFFFF" filter="url(#f1)" height="206.1094" style="stroke: #000000; stroke-width: 2.0;" width="636.5" x="33" y="264.3672"/><rect fill="#FFFFFF" filter="url(#f1)" height="81.0547" style="stroke: #000000; stroke-width: 2.0;" width="402" x="43" y="350.0703"/><rect fill="#FFFFFF" height="32.3516" style="stroke: none; stroke-width: 1.0;" width="402" x="43" y="398.7734"/><rect fill="#FFFFFF" height="32.3516" style="stroke: none; stroke-width: 1.0;" width="636.5" x="33" y="438.125"/><rect fill="#FFFFFF" height="32.3516" style="stroke: none; stroke-width: 1.0;" width="656.5" x="23" y="477.4766"/><rect fill="#FFFFFF" height="32.3516" style="stroke: none; stroke-width: 1.0;" width="676.5" x="13" y="516.8281"/><line style="stroke: #A80036; stroke-width: 1.0; stroke-dasharray: 5.0,5.0;" x1="116" x2="116" y1="62.6094" y2="566.1797"/><line style="stroke: #A80036; stroke-width: 1.0; stroke-dasharray: 5.0,5.0;" x1="365" x2="365" y1="62.6094" y2="566.1797"/><line style="stroke: #A80036; stroke-width: 1.0; stroke-dasharray: 5.0,5.0;" x1="612.5" x2="612.5" y1="62.6094" y2="566.1797"/><rect fill="#FEFECE" filter="url(#f1)" height="31.6094" style="stroke: #A80036; stroke-width: 1.5;" width="122" x="53" y="26"/><text fill="#000000" font-family="sans-serif" font-size="14" lengthAdjust="spacingAndGlyphs" textLength="108" x="60" y="47.5332">ConsoleWindows</text><rect fill="#FEFECE" filter="url(#f1)" height="31.6094" style="stroke: #A80036; stroke-width: 1.5;" width="122" x="53" y="565.1797"/><text fill="#000000" font-family="sans-serif" font-size="14" lengthAdjust="spacingAndGlyphs" textLength="108" x="60" y="586.7129">ConsoleWindows</text><rect fill="#FEFECE" filter="url(#f1)" height="31.6094" style="stroke: #A80036; stroke-width: 1.5;" width="136" x="295" y="26"/><text fill="#000000" font-family="sans-serif" font-size="14" lengthAdjust="spacingAndGlyphs" textLength="122" x="302" y="47.5332">CSQLite_Local_DB</text><rect fill="#FEFECE" filter="url(#f1)" height="31.6094" style="stroke: #A80036; stroke-width: 1.5;" width="136" x="295" y="565.1797"/><text fill="#000000" font-family="sans-serif" font-size="14" lengthAdjust="spacingAndGlyphs" textLength="122" x="302" y="586.7129">CSQLite_Local_DB</text><text fill="#000000" font-family="sans-serif" font-size="14" lengthAdjust="spacingAndGlyphs" textLength="87" x="566.5" y="59.5332">LC_Database</text><path d="M595,13 C595,3 613,3 613,3 C613,3 631,3 631,13 L631,35 C631,45 613,45 613,45 C613,45 595,45 595,35 L595,13 " fill="#FEFECE" filter="url(#f1)" style="stroke: #A80036; stroke-width: 1.5;"/><path d="M595,13 C595,23 613,23 613,23 C613,23 631,23 631,13 " fill="none" style="stroke: #A80036; stroke-width: 1.5;"/><text fill="#000000" font-family="sans-serif" font-size="14" lengthAdjust="spacingAndGlyphs" textLength="87" x="566.5" y="579.7129">LC_Database</text><path d="M595,592.7891 C595,582.7891 613,582.7891 613,582.7891 C613,582.7891 631,582.7891 631,592.7891 L631,614.7891 C631,624.7891 613,624.7891 613,624.7891 C613,624.7891 595,624.7891 595,614.7891 L595,592.7891 " fill="#FEFECE" filter="url(#f1)" style="stroke: #A80036; stroke-width: 1.5;"/><path d="M595,592.7891 C595,602.7891 613,602.7891 613,602.7891 C613,602.7891 631,602.7891 631,592.7891 " fill="none" style="stroke: #A80036; stroke-width: 1.5;"/><rect fill="#00CCFF" filter="url(#f1)" height="446.2188" style="stroke: #A80036; stroke-width: 1.0;" width="10" x="360" y="94.6094"/><rect fill="#30DDFF" filter="url(#f1)" height="30" style="stroke: #A80036; stroke-width: 1.0;" width="10" x="608" y="219.0156"/><rect fill="#30DDFF" filter="url(#f1)" height="30" style="stroke: #A80036; stroke-width: 1.0;" width="10" x="608" y="304.7188"/><polygon fill="#A80036" points="348,90.6094,358,94.6094,348,98.6094,352,94.6094" style="stroke: #A80036; stroke-width: 1.0;"/><line style="stroke: #A80036; stroke-width: 1.0;" x1="116" x2="354" y1="94.6094" y2="94.6094"/><text fill="#000000" font-family="sans-serif" font-size="13" font-weight="bold" lengthAdjust="spacingAndGlyphs" textLength="7" x="123" y="90.1045">1</text><text fill="#000000" font-family="sans-serif" font-size="13" lengthAdjust="spacingAndGlyphs" textLength="146" x="134" y="90.1045">GetBoxesListConsumer()</text><rect fill="none" height="439.2188" style="stroke: #000000; stroke-width: 2.0;" width="676.5" x="13" y="109.9609"/><polygon fill="#EEEEEE" points="13,109.9609,74,109.9609,74,117.9609,64,127.9609,13,127.9609,13,109.9609" style="stroke: #000000; stroke-width: 2.0;"/><text fill="#000000" font-family="sans-serif" font-size="13" font-weight="bold" lengthAdjust="spacingAndGlyphs" textLength="16" x="28" y="124.4561">alt</text><text fill="#000000" font-family="sans-serif" font-size="11" font-weight="bold" lengthAdjust="spacingAndGlyphs" textLength="105" x="89" y="123.3799">[Database is ready]</text><line style="stroke: #A80036; stroke-width: 1.0;" x1="370" x2="412" y1="150.6641" y2="150.6641"/><line style="stroke: #A80036; stroke-width: 1.0;" x1="412" x2="412" y1="150.6641" y2="163.6641"/><line style="stroke: #A80036; stroke-width: 1.0;" x1="371" x2="412" y1="163.6641" y2="163.6641"/><polygon fill="#A80036" points="381,159.6641,371,163.6641,381,167.6641,377,163.6641" style="stroke: #A80036; stroke-width: 1.0;"/><text fill="#000000" font-family="sans-serif" font-size="13" font-weight="bold" lengthAdjust="spacingAndGlyphs" textLength="7" x="377" y="145.8076">2</text><text fill="#000000" font-family="sans-serif" font-size="13" lengthAdjust="spacingAndGlyphs" textLength="117" x="388" y="145.8076">CheckExtractCode()</text><rect fill="none" height="331.1641" style="stroke: #000000; stroke-width: 2.0;" width="656.5" x="23" y="178.6641"/><polygon fill="#EEEEEE" points="23,178.6641,84,178.6641,84,186.6641,74,196.6641,23,196.6641,23,178.6641" style="stroke: #000000; stroke-width: 2.0;"/><text fill="#000000" font-family="sans-serif" font-size="13" font-weight="bold" lengthAdjust="spacingAndGlyphs" textLength="16" x="38" y="193.1592">alt</text><text fill="#000000" font-family="sans-serif" font-size="11" font-weight="bold" lengthAdjust="spacingAndGlyphs" textLength="168" x="99" y="192.083">[CheckExtractCode is valid = 1]</text><polygon fill="#A80036" points="596,215.0156,606,219.0156,596,223.0156,600,219.0156" style="stroke: #A80036; stroke-width: 1.0;"/><line style="stroke: #A80036; stroke-width: 1.0;" x1="370" x2="602" y1="219.0156" y2="219.0156"/><text fill="#000000" font-family="sans-serif" font-size="13" font-weight="bold" lengthAdjust="spacingAndGlyphs" textLength="7" x="377" y="214.5107">3</text><text fill="#000000" font-family="sans-serif" font-size="13" lengthAdjust="spacingAndGlyphs" textLength="191" x="388" y="214.5107">SQL_Query(SELECT idPackage)</text><rect fill="none" height="206.1094" style="stroke: #000000; stroke-width: 2.0;" width="636.5" x="33" y="264.3672"/><polygon fill="#EEEEEE" points="33,264.3672,94,264.3672,94,272.3672,84,282.3672,33,282.3672,33,264.3672" style="stroke: #000000; stroke-width: 2.0;"/><text fill="#000000" font-family="sans-serif" font-size="13" font-weight="bold" lengthAdjust="spacingAndGlyphs" textLength="16" x="48" y="278.8623">alt</text><text fill="#000000" font-family="sans-serif" font-size="11" font-weight="bold" lengthAdjust="spacingAndGlyphs" textLength="172" x="109" y="277.7861">[idPackage is not an empty list]</text><polygon fill="#A80036" points="596,300.7188,606,304.7188,596,308.7188,600,304.7188" style="stroke: #A80036; stroke-width: 1.0;"/><line style="stroke: #A80036; stroke-width: 1.0;" x1="370" x2="602" y1="304.7188" y2="304.7188"/><text fill="#000000" font-family="sans-serif" font-size="13" font-weight="bold" lengthAdjust="spacingAndGlyphs" textLength="7" x="377" y="300.2139">4</text><text fill="#000000" font-family="sans-serif" font-size="13" lengthAdjust="spacingAndGlyphs" textLength="208" x="388" y="300.2139">SQL_Query(SELECT Linked_idBox)</text><rect fill="none" height="81.0547" style="stroke: #000000; stroke-width: 2.0;" width="402" x="43" y="350.0703"/><polygon fill="#EEEEEE" points="43,350.0703,104,350.0703,104,358.0703,94,368.0703,43,368.0703,43,350.0703" style="stroke: #000000; stroke-width: 2.0;"/><text fill="#000000" font-family="sans-serif" font-size="13" font-weight="bold" lengthAdjust="spacingAndGlyphs" textLength="16" x="58" y="364.5654">alt</text><text fill="#000000" font-family="sans-serif" font-size="11" font-weight="bold" lengthAdjust="spacingAndGlyphs" textLength="117" x="119" y="363.4893">[Linked_idBox found]</text><polygon fill="#A80036" points="127,386.4219,117,390.4219,127,394.4219,123,390.4219" style="stroke: #A80036; stroke-width: 1.0;"/><line style="stroke: #A80036; stroke-width: 1.0;" x1="121" x2="359" y1="390.4219" y2="390.4219"/><text fill="#000000" font-family="sans-serif" font-size="13" font-weight="bold" lengthAdjust="spacingAndGlyphs" textLength="7" x="133" y="385.917">5</text><text fill="#000000" font-family="sans-serif" font-size="13" lengthAdjust="spacingAndGlyphs" textLength="58" x="144" y="385.917">BoxesList</text><line style="stroke: #000000; stroke-width: 1.0; stroke-dasharray: 2.0,2.0;" x1="43" x2="445" y1="399.7734" y2="399.7734"/><polygon fill="#A80036" points="127,418.7734,117,422.7734,127,426.7734,123,422.7734" style="stroke: #A80036; stroke-width: 1.0;"/><line style="stroke: #A80036; stroke-width: 1.0;" x1="121" x2="359" y1="422.7734" y2="422.7734"/><text fill="#000000" font-family="sans-serif" font-size="13" font-weight="bold" lengthAdjust="spacingAndGlyphs" textLength="7" x="133" y="418.2686">6</text><text fill="#000000" font-family="sans-serif" font-size="13" lengthAdjust="spacingAndGlyphs" textLength="157" x="144" y="418.2686">empty list no Linked_idBox</text><line style="stroke: #000000; stroke-width: 1.0; stroke-dasharray: 2.0,2.0;" x1="33" x2="669.5" y1="439.125" y2="439.125"/><polygon fill="#A80036" points="127,458.125,117,462.125,127,466.125,123,462.125" style="stroke: #A80036; stroke-width: 1.0;"/><line style="stroke: #A80036; stroke-width: 1.0;" x1="121" x2="359" y1="462.125" y2="462.125"/><text fill="#000000" font-family="sans-serif" font-size="13" font-weight="bold" lengthAdjust="spacingAndGlyphs" textLength="7" x="133" y="457.6201">7</text><text fill="#000000" font-family="sans-serif" font-size="13" lengthAdjust="spacingAndGlyphs" textLength="140" x="144" y="457.6201">empty list no idPackage</text><line style="stroke: #000000; stroke-width: 1.0; stroke-dasharray: 2.0,2.0;" x1="23" x2="679.5" y1="478.4766" y2="478.4766"/><polygon fill="#A80036" points="127,497.4766,117,501.4766,127,505.4766,123,501.4766" style="stroke: #A80036; stroke-width: 1.0;"/><line style="stroke: #A80036; stroke-width: 1.0;" x1="121" x2="359" y1="501.4766" y2="501.4766"/><text fill="#000000" font-family="sans-serif" font-size="13" font-weight="bold" lengthAdjust="spacingAndGlyphs" textLength="7" x="133" y="496.9717">8</text><text fill="#000000" font-family="sans-serif" font-size="13" lengthAdjust="spacingAndGlyphs" textLength="209" x="144" y="496.9717">empty list CheckExtractCode invalid</text><line style="stroke: #000000; stroke-width: 1.0; stroke-dasharray: 2.0,2.0;" x1="13" x2="689.5" y1="517.8281" y2="517.8281"/><polygon fill="#A80036" points="127,536.8281,117,540.8281,127,544.8281,123,540.8281" style="stroke: #A80036; stroke-width: 1.0;"/><line style="stroke: #A80036; stroke-width: 1.0;" x1="121" x2="364" y1="540.8281" y2="540.8281"/><text fill="#000000" font-family="sans-serif" font-size="13" font-weight="bold" lengthAdjust="spacingAndGlyphs" textLength="7" x="133" y="536.3232">9</text><text fill="#000000" font-family="sans-serif" font-size="13" lengthAdjust="spacingAndGlyphs" textLength="199" x="144" y="536.3232">empty list no database connection</text></g></svg>