<?xml version="1.0" encoding="UTF-8" standalone="yes"?><svg xmlns="http://www.w3.org/2000/svg" xmlns:xlink="http://www.w3.org/1999/xlink" height="864px" style="width:824px;height:864px;" version="1.1" viewBox="0 0 824 864" width="824px"><defs><filter height="300%" id="f1" width="300%" x="-1" y="-1"><feGaussianBlur result="blurOut" stdDeviation="2.0"/><feColorMatrix in="blurOut" result="blurOut2" type="matrix" values="0 0 0 0 0 0 0 0 0 0 0 0 0 0 0 0 0 0 .4 0"/><feOffset dx="4.0" dy="4.0" in="blurOut2" result="blurOut3"/><feBlend in="SourceGraphic" in2="blurOut3" mode="normal"/></filter></defs><g><rect fill="#0000FF" filter="url(#f1)" height="678.6484" style="stroke: #A80036; stroke-width: 1.0;" width="10" x="369" y="94.6094"/><rect fill="#00A5FF" filter="url(#f1)" height="30" style="stroke: #A80036; stroke-width: 1.0;" width="10" x="724" y="193.6641"/><rect fill="#11A5FF" filter="url(#f1)" height="30" style="stroke: #A80036; stroke-width: 1.0;" width="10" x="724" y="409.4453"/><rect fill="#00CCFF" filter="url(#f1)" height="30" style="stroke: #A80036; stroke-width: 1.0;" width="10" x="724" y="534.5"/><rect fill="#10DDFF" filter="url(#f1)" height="30" style="stroke: #A80036; stroke-width: 1.0;" width="10" x="724" y="659.5547"/><rect fill="#FFFFFF" filter="url(#f1)" height="671.6484" style="stroke: #000000; stroke-width: 2.0;" width="802.5" x="13" y="109.9609"/><rect fill="#FFFFFF" filter="url(#f1)" height="503.2422" style="stroke: #000000; stroke-width: 2.0;" width="782.5" x="23" y="239.0156"/><rect fill="#FFFFFF" height="441.8672" style="stroke: none; stroke-width: 1.0;" width="782.5" x="23" y="300.3906"/><rect fill="#FFFFFF" filter="url(#f1)" height="425.8672" style="stroke: #000000; stroke-width: 2.0;" width="762.5" x="33" y="309.3906"/><rect fill="#FFFFFF" height="377.1641" style="stroke: none; stroke-width: 1.0;" width="762.5" x="33" y="358.0938"/><rect fill="#FFFFFF" filter="url(#f1)" height="111.0547" style="stroke: #000000; stroke-width: 2.0;" width="742.5" x="43" y="367.0938"/><rect fill="#FFFFFF" height="92.7031" style="stroke: none; stroke-width: 1.0;" width="742.5" x="43" y="385.4453"/><rect fill="#FFFFFF" filter="url(#f1)" height="111.0547" style="stroke: #000000; stroke-width: 2.0;" width="742.5" x="43" y="492.1484"/><rect fill="#FFFFFF" height="92.7031" style="stroke: none; stroke-width: 1.0;" width="742.5" x="43" y="510.5"/><rect fill="#FFFFFF" filter="url(#f1)" height="111.0547" style="stroke: #000000; stroke-width: 2.0;" width="742.5" x="43" y="617.2031"/><rect fill="#FFFFFF" height="92.7031" style="stroke: none; stroke-width: 1.0;" width="742.5" x="43" y="635.5547"/><rect fill="#FFFFFF" height="32.3516" style="stroke: none; stroke-width: 1.0;" width="802.5" x="13" y="749.2578"/><line style="stroke: #A80036; stroke-width: 1.0; stroke-dasharray: 5.0,5.0;" x1="116" x2="116" y1="62.6094" y2="798.6094"/><line style="stroke: #A80036; stroke-width: 1.0; stroke-dasharray: 5.0,5.0;" x1="374" x2="374" y1="62.6094" y2="798.6094"/><line style="stroke: #A80036; stroke-width: 1.0; stroke-dasharray: 5.0,5.0;" x1="728.5" x2="728.5" y1="62.6094" y2="798.6094"/><rect fill="#FEFECE" filter="url(#f1)" height="31.6094" style="stroke: #A80036; stroke-width: 1.5;" width="122" x="53" y="26"/><text fill="#000000" font-family="sans-serif" font-size="14" lengthAdjust="spacingAndGlyphs" textLength="108" x="60" y="47.5332">ConsoleWindows</text><rect fill="#FEFECE" filter="url(#f1)" height="31.6094" style="stroke: #A80036; stroke-width: 1.5;" width="122" x="53" y="797.6094"/><text fill="#000000" font-family="sans-serif" font-size="14" lengthAdjust="spacingAndGlyphs" textLength="108" x="60" y="819.1426">ConsoleWindows</text><rect fill="#FEFECE" filter="url(#f1)" height="31.6094" style="stroke: #A80036; stroke-width: 1.5;" width="136" x="304" y="26"/><text fill="#000000" font-family="sans-serif" font-size="14" lengthAdjust="spacingAndGlyphs" textLength="122" x="311" y="47.5332">CSQLite_Local_DB</text><rect fill="#FEFECE" filter="url(#f1)" height="31.6094" style="stroke: #A80036; stroke-width: 1.5;" width="136" x="304" y="797.6094"/><text fill="#000000" font-family="sans-serif" font-size="14" lengthAdjust="spacingAndGlyphs" textLength="122" x="311" y="819.1426">CSQLite_Local_DB</text><text fill="#000000" font-family="sans-serif" font-size="14" lengthAdjust="spacingAndGlyphs" textLength="87" x="682.5" y="59.5332">LC_Database</text><path d="M711,13 C711,3 729,3 729,3 C729,3 747,3 747,13 L747,35 C747,45 729,45 729,45 C729,45 711,45 711,35 L711,13 " fill="#FEFECE" filter="url(#f1)" style="stroke: #A80036; stroke-width: 1.5;"/><path d="M711,13 C711,23 729,23 729,23 C729,23 747,23 747,13 " fill="none" style="stroke: #A80036; stroke-width: 1.5;"/><text fill="#000000" font-family="sans-serif" font-size="14" lengthAdjust="spacingAndGlyphs" textLength="87" x="682.5" y="812.1426">LC_Database</text><path d="M711,825.2188 C711,815.2188 729,815.2188 729,815.2188 C729,815.2188 747,815.2188 747,825.2188 L747,847.2188 C747,857.2188 729,857.2188 729,857.2188 C729,857.2188 711,857.2188 711,847.2188 L711,825.2188 " fill="#FEFECE" filter="url(#f1)" style="stroke: #A80036; stroke-width: 1.5;"/><path d="M711,825.2188 C711,835.2188 729,835.2188 729,835.2188 C729,835.2188 747,835.2188 747,825.2188 " fill="none" style="stroke: #A80036; stroke-width: 1.5;"/><rect fill="#0000FF" filter="url(#f1)" height="678.6484" style="stroke: #A80036; stroke-width: 1.0;" width="10" x="369" y="94.6094"/><rect fill="#00A5FF" filter="url(#f1)" height="30" style="stroke: #A80036; stroke-width: 1.0;" width="10" x="724" y="193.6641"/><rect fill="#11A5FF" filter="url(#f1)" height="30" style="stroke: #A80036; stroke-width: 1.0;" width="10" x="724" y="409.4453"/><rect fill="#00CCFF" filter="url(#f1)" height="30" style="stroke: #A80036; stroke-width: 1.0;" width="10" x="724" y="534.5"/><rect fill="#10DDFF" filter="url(#f1)" height="30" style="stroke: #A80036; stroke-width: 1.0;" width="10" x="724" y="659.5547"/><polygon fill="#A80036" points="357,90.6094,367,94.6094,357,98.6094,361,94.6094" style="stroke: #A80036; stroke-width: 1.0;"/><line style="stroke: #A80036; stroke-width: 1.0;" x1="116" x2="363" y1="94.6094" y2="94.6094"/><text fill="#000000" font-family="sans-serif" font-size="13" font-weight="bold" lengthAdjust="spacingAndGlyphs" textLength="7" x="123" y="90.1045">1</text><text fill="#000000" font-family="sans-serif" font-size="13" lengthAdjust="spacingAndGlyphs" textLength="39" x="134" y="90.1045">Login()</text><rect fill="none" height="671.6484" style="stroke: #000000; stroke-width: 2.0;" width="802.5" x="13" y="109.9609"/><polygon fill="#EEEEEE" points="13,109.9609,74,109.9609,74,117.9609,64,127.9609,13,127.9609,13,109.9609" style="stroke: #000000; stroke-width: 2.0;"/><text fill="#000000" font-family="sans-serif" font-size="13" font-weight="bold" lengthAdjust="spacingAndGlyphs" textLength="16" x="28" y="124.4561">alt</text><text fill="#000000" font-family="sans-serif" font-size="11" font-weight="bold" lengthAdjust="spacingAndGlyphs" textLength="105" x="89" y="123.3799">[Database is ready]</text><line style="stroke: #A80036; stroke-width: 1.0;" x1="379" x2="421" y1="150.6641" y2="150.6641"/><line style="stroke: #A80036; stroke-width: 1.0;" x1="421" x2="421" y1="150.6641" y2="163.6641"/><line style="stroke: #A80036; stroke-width: 1.0;" x1="380" x2="421" y1="163.6641" y2="163.6641"/><polygon fill="#A80036" points="390,159.6641,380,163.6641,390,167.6641,386,163.6641" style="stroke: #A80036; stroke-width: 1.0;"/><text fill="#000000" font-family="sans-serif" font-size="13" font-weight="bold" lengthAdjust="spacingAndGlyphs" textLength="7" x="386" y="145.8076">2</text><text fill="#000000" font-family="sans-serif" font-size="13" lengthAdjust="spacingAndGlyphs" textLength="112" x="397" y="145.8076">HashingPassword()</text><polygon fill="#A80036" points="712,189.6641,722,193.6641,712,197.6641,716,193.6641" style="stroke: #A80036; stroke-width: 1.0;"/><line style="stroke: #A80036; stroke-width: 1.0;" x1="379" x2="718" y1="193.6641" y2="193.6641"/><text fill="#000000" font-family="sans-serif" font-size="13" font-weight="bold" lengthAdjust="spacingAndGlyphs" textLength="7" x="386" y="189.1592">3</text><text fill="#000000" font-family="sans-serif" font-size="13" lengthAdjust="spacingAndGlyphs" textLength="258" x="397" y="189.1592">SQL_Query(SELECT UserType FROM User)</text><rect fill="none" height="503.2422" style="stroke: #000000; stroke-width: 2.0;" width="782.5" x="23" y="239.0156"/><polygon fill="#EEEEEE" points="23,239.0156,84,239.0156,84,247.0156,74,257.0156,23,257.0156,23,239.0156" style="stroke: #000000; stroke-width: 2.0;"/><text fill="#000000" font-family="sans-serif" font-size="13" font-weight="bold" lengthAdjust="spacingAndGlyphs" textLength="16" x="38" y="253.5107">alt</text><text fill="#000000" font-family="sans-serif" font-size="11" font-weight="bold" lengthAdjust="spacingAndGlyphs" textLength="220" x="99" y="252.4346">[UserCompanyPass, UserPersonalPass,</text><text fill="#000000" font-family="sans-serif" font-size="11" font-weight="bold" lengthAdjust="spacingAndGlyphs" textLength="215" x="102" y="266.2705">UserPassWord, NOT found in database]</text><polygon fill="#A80036" points="127,288.0391,117,292.0391,127,296.0391,123,292.0391" style="stroke: #A80036; stroke-width: 1.0;"/><line style="stroke: #A80036; stroke-width: 1.0; stroke-dasharray: 2.0,2.0;" x1="121" x2="368" y1="292.0391" y2="292.0391"/><text fill="#000000" font-family="sans-serif" font-size="13" font-weight="bold" lengthAdjust="spacingAndGlyphs" textLength="7" x="133" y="287.5342">4</text><text fill="#000000" font-family="sans-serif" font-size="13" lengthAdjust="spacingAndGlyphs" textLength="140" x="144" y="287.5342">(UNDEFINED_USER) -4</text><line style="stroke: #000000; stroke-width: 1.0; stroke-dasharray: 2.0,2.0;" x1="23" x2="805.5" y1="301.3906" y2="301.3906"/><rect fill="none" height="425.8672" style="stroke: #000000; stroke-width: 2.0;" width="762.5" x="33" y="309.3906"/><polygon fill="#EEEEEE" points="33,309.3906,94,309.3906,94,317.3906,84,327.3906,33,327.3906,33,309.3906" style="stroke: #000000; stroke-width: 2.0;"/><text fill="#000000" font-family="sans-serif" font-size="13" font-weight="bold" lengthAdjust="spacingAndGlyphs" textLength="16" x="48" y="323.8857">alt</text><text fill="#000000" font-family="sans-serif" font-size="11" font-weight="bold" lengthAdjust="spacingAndGlyphs" textLength="199" x="109" y="322.8096">[Livreur (0) or Maintenance (1) user]</text><polygon fill="#A80036" points="127,345.7422,117,349.7422,127,353.7422,123,349.7422" style="stroke: #A80036; stroke-width: 1.0;"/><line style="stroke: #A80036; stroke-width: 1.0; stroke-dasharray: 2.0,2.0;" x1="121" x2="368" y1="349.7422" y2="349.7422"/><text fill="#000000" font-family="sans-serif" font-size="13" font-weight="bold" lengthAdjust="spacingAndGlyphs" textLength="7" x="133" y="345.2373">5</text><text fill="#000000" font-family="sans-serif" font-size="13" lengthAdjust="spacingAndGlyphs" textLength="55" x="144" y="345.2373">UserType</text><line style="stroke: #000000; stroke-width: 1.0; stroke-dasharray: 2.0,2.0;" x1="33" x2="795.5" y1="359.0938" y2="359.0938"/><rect fill="none" height="111.0547" style="stroke: #000000; stroke-width: 2.0;" width="742.5" x="43" y="367.0938"/><polygon fill="#EEEEEE" points="43,367.0938,104,367.0938,104,375.0938,94,385.0938,43,385.0938,43,367.0938" style="stroke: #000000; stroke-width: 2.0;"/><text fill="#000000" font-family="sans-serif" font-size="13" font-weight="bold" lengthAdjust="spacingAndGlyphs" textLength="16" x="58" y="381.5889">alt</text><text fill="#000000" font-family="sans-serif" font-size="11" font-weight="bold" lengthAdjust="spacingAndGlyphs" textLength="144" x="119" y="380.5127">[UserCompanyPass is OK]</text><line style="stroke: #000000; stroke-width: 1.0; stroke-dasharray: 2.0,2.0;" x1="43" x2="785.5" y1="386.4453" y2="386.4453"/><polygon fill="#A80036" points="712,405.4453,722,409.4453,712,413.4453,716,409.4453" style="stroke: #A80036; stroke-width: 1.0;"/><line style="stroke: #A80036; stroke-width: 1.0;" x1="379" x2="718" y1="409.4453" y2="409.4453"/><text fill="#000000" font-family="sans-serif" font-size="13" font-weight="bold" lengthAdjust="spacingAndGlyphs" textLength="7" x="386" y="404.9404">6</text><text fill="#000000" font-family="sans-serif" font-size="13" lengthAdjust="spacingAndGlyphs" textLength="315" x="397" y="404.9404">SQL_Query(SELECT UserCompanyPass FROM User)</text><polygon fill="#A80036" points="127,465.7969,117,469.7969,127,473.7969,123,469.7969" style="stroke: #A80036; stroke-width: 1.0;"/><line style="stroke: #A80036; stroke-width: 1.0; stroke-dasharray: 2.0,2.0;" x1="121" x2="368" y1="469.7969" y2="469.7969"/><text fill="#000000" font-family="sans-serif" font-size="13" font-weight="bold" lengthAdjust="spacingAndGlyphs" textLength="7" x="133" y="465.292">7</text><text fill="#000000" font-family="sans-serif" font-size="13" lengthAdjust="spacingAndGlyphs" textLength="213" x="144" y="465.292">(UNDEFINED_COMPANY_PASS) -3</text><rect fill="none" height="111.0547" style="stroke: #000000; stroke-width: 2.0;" width="742.5" x="43" y="492.1484"/><polygon fill="#EEEEEE" points="43,492.1484,104,492.1484,104,500.1484,94,510.1484,43,510.1484,43,492.1484" style="stroke: #000000; stroke-width: 2.0;"/><text fill="#000000" font-family="sans-serif" font-size="13" font-weight="bold" lengthAdjust="spacingAndGlyphs" textLength="16" x="58" y="506.6436">alt</text><text fill="#000000" font-family="sans-serif" font-size="11" font-weight="bold" lengthAdjust="spacingAndGlyphs" textLength="141" x="119" y="505.5674">[UserPersonalPass is OK]</text><line style="stroke: #000000; stroke-width: 1.0; stroke-dasharray: 2.0,2.0;" x1="43" x2="785.5" y1="511.5" y2="511.5"/><polygon fill="#A80036" points="712,530.5,722,534.5,712,538.5,716,534.5" style="stroke: #A80036; stroke-width: 1.0;"/><line style="stroke: #A80036; stroke-width: 1.0;" x1="379" x2="718" y1="534.5" y2="534.5"/><text fill="#000000" font-family="sans-serif" font-size="13" font-weight="bold" lengthAdjust="spacingAndGlyphs" textLength="7" x="386" y="529.9951">8</text><text fill="#000000" font-family="sans-serif" font-size="13" lengthAdjust="spacingAndGlyphs" textLength="311" x="397" y="529.9951">SQL_Query(SELECT UserPersonalPass FROM User)</text><polygon fill="#A80036" points="127,590.8516,117,594.8516,127,598.8516,123,594.8516" style="stroke: #A80036; stroke-width: 1.0;"/><line style="stroke: #A80036; stroke-width: 1.0; stroke-dasharray: 2.0,2.0;" x1="121" x2="368" y1="594.8516" y2="594.8516"/><text fill="#000000" font-family="sans-serif" font-size="13" font-weight="bold" lengthAdjust="spacingAndGlyphs" textLength="7" x="133" y="590.3467">9</text><text fill="#000000" font-family="sans-serif" font-size="13" lengthAdjust="spacingAndGlyphs" textLength="218" x="144" y="590.3467">(UNDEFINED_PERSONAL_PASS) -3</text><rect fill="none" height="111.0547" style="stroke: #000000; stroke-width: 2.0;" width="742.5" x="43" y="617.2031"/><polygon fill="#EEEEEE" points="43,617.2031,104,617.2031,104,625.2031,94,635.2031,43,635.2031,43,617.2031" style="stroke: #000000; stroke-width: 2.0;"/><text fill="#000000" font-family="sans-serif" font-size="13" font-weight="bold" lengthAdjust="spacingAndGlyphs" textLength="16" x="58" y="631.6982">alt</text><text fill="#000000" font-family="sans-serif" font-size="11" font-weight="bold" lengthAdjust="spacingAndGlyphs" textLength="121" x="119" y="630.6221">[UserPassWord is OK]</text><line style="stroke: #000000; stroke-width: 1.0; stroke-dasharray: 2.0,2.0;" x1="43" x2="785.5" y1="636.5547" y2="636.5547"/><polygon fill="#A80036" points="712,655.5547,722,659.5547,712,663.5547,716,659.5547" style="stroke: #A80036; stroke-width: 1.0;"/><line style="stroke: #A80036; stroke-width: 1.0;" x1="379" x2="718" y1="659.5547" y2="659.5547"/><text fill="#000000" font-family="sans-serif" font-size="13" font-weight="bold" lengthAdjust="spacingAndGlyphs" textLength="14" x="386" y="655.0498">10</text><text fill="#000000" font-family="sans-serif" font-size="13" lengthAdjust="spacingAndGlyphs" textLength="291" x="404" y="655.0498">SQL_Query(SELECT UserPassWord FROM User)</text><polygon fill="#A80036" points="127,715.9063,117,719.9063,127,723.9063,123,719.9063" style="stroke: #A80036; stroke-width: 1.0;"/><line style="stroke: #A80036; stroke-width: 1.0; stroke-dasharray: 2.0,2.0;" x1="121" x2="368" y1="719.9063" y2="719.9063"/><text fill="#000000" font-family="sans-serif" font-size="13" font-weight="bold" lengthAdjust="spacingAndGlyphs" textLength="14" x="133" y="715.4014">11</text><text fill="#000000" font-family="sans-serif" font-size="13" lengthAdjust="spacingAndGlyphs" textLength="181" x="151" y="715.4014">(UNDEFINED_PASSWORD) -1</text><line style="stroke: #000000; stroke-width: 1.0; stroke-dasharray: 2.0,2.0;" x1="13" x2="815.5" y1="750.2578" y2="750.2578"/><polygon fill="#A80036" points="127,769.2578,117,773.2578,127,777.2578,123,773.2578" style="stroke: #A80036; stroke-width: 1.0;"/><line style="stroke: #A80036; stroke-width: 1.0; stroke-dasharray: 2.0,2.0;" x1="121" x2="373" y1="773.2578" y2="773.2578"/><text fill="#000000" font-family="sans-serif" font-size="13" font-weight="bold" lengthAdjust="spacingAndGlyphs" textLength="14" x="133" y="768.7529">12</text><text fill="#000000" font-family="sans-serif" font-size="13" lengthAdjust="spacingAndGlyphs" textLength="163" x="151" y="768.7529">(No database connection) -5</text></g></svg>