<?xml version="1.0" encoding="UTF-8" standalone="yes"?><svg xmlns="http://www.w3.org/2000/svg" xmlns:xlink="http://www.w3.org/1999/xlink" height="329px" style="width:472px;height:329px;" version="1.1" viewBox="0 0 472 329" width="472px"><defs><filter height="300%" id="f1" width="300%" x="-1" y="-1"><feGaussianBlur result="blurOut" stdDeviation="2.0"/><feColorMatrix in="blurOut" result="blurOut2" type="matrix" values="0 0 0 0 0 0 0 0 0 0 0 0 0 0 0 0 0 0 .4 0"/><feOffset dx="4.0" dy="4.0" in="blurOut2" result="blurOut3"/><feBlend in="SourceGraphic" in2="blurOut3" mode="normal"/></filter></defs><g><rect fill="#0000FF" filter="url(#f1)" height="120.4063" style="stroke: #A80036; stroke-width: 1.0;" width="10" x="236" y="94.6094"/><rect fill="#00BBFF" filter="url(#f1)" height="82.0547" style="stroke: #A80036; stroke-width: 1.0;" width="10" x="241" y="132.9609"/><rect fill="#50EEFF" filter="url(#f1)" height="30.7031" style="stroke: #A80036; stroke-width: 1.0;" width="10" x="421" y="184.3125"/><line style="stroke: #A80036; stroke-width: 1.0; stroke-dasharray: 5.0,5.0;" x1="71" x2="71" y1="62.6094" y2="263.7188"/><line style="stroke: #A80036; stroke-width: 1.0; stroke-dasharray: 5.0,5.0;" x1="241" x2="241" y1="62.6094" y2="263.7188"/><line style="stroke: #A80036; stroke-width: 1.0; stroke-dasharray: 5.0,5.0;" x1="426" x2="426" y1="62.6094" y2="263.7188"/><rect fill="#FEFECE" filter="url(#f1)" height="31.6094" style="stroke: #A80036; stroke-width: 1.5;" width="122" x="8" y="26"/><text fill="#000000" font-family="sans-serif" font-size="14" lengthAdjust="spacingAndGlyphs" textLength="108" x="15" y="47.5332">ConsoleWindows</text><rect fill="#FEFECE" filter="url(#f1)" height="31.6094" style="stroke: #A80036; stroke-width: 1.5;" width="122" x="8" y="262.7188"/><text fill="#000000" font-family="sans-serif" font-size="14" lengthAdjust="spacingAndGlyphs" textLength="108" x="15" y="284.252">ConsoleWindows</text><rect fill="#FEFECE" filter="url(#f1)" height="31.6094" style="stroke: #A80036; stroke-width: 1.5;" width="136" x="171" y="26"/><text fill="#000000" font-family="sans-serif" font-size="14" lengthAdjust="spacingAndGlyphs" textLength="122" x="178" y="47.5332">CSQLite_Local_DB</text><rect fill="#FEFECE" filter="url(#f1)" height="31.6094" style="stroke: #A80036; stroke-width: 1.5;" width="136" x="171" y="262.7188"/><text fill="#000000" font-family="sans-serif" font-size="14" lengthAdjust="spacingAndGlyphs" textLength="122" x="178" y="284.252">CSQLite_Local_DB</text><text fill="#000000" font-family="sans-serif" font-size="14" lengthAdjust="spacingAndGlyphs" textLength="96" x="375" y="59.5332">LC_SQLite_DB</text><path d="M408,13 C408,3 426,3 426,3 C426,3 444,3 444,13 L444,35 C444,45 426,45 426,45 C426,45 408,45 408,35 L408,13 " fill="#FEFECE" filter="url(#f1)" style="stroke: #A80036; stroke-width: 1.5;"/><path d="M408,13 C408,23 426,23 426,23 C426,23 444,23 444,13 " fill="none" style="stroke: #A80036; stroke-width: 1.5;"/><text fill="#000000" font-family="sans-serif" font-size="14" lengthAdjust="spacingAndGlyphs" textLength="96" x="375" y="277.252">LC_SQLite_DB</text><path d="M408,290.3281 C408,280.3281 426,280.3281 426,280.3281 C426,280.3281 444,280.3281 444,290.3281 L444,312.3281 C444,322.3281 426,322.3281 426,322.3281 C426,322.3281 408,322.3281 408,312.3281 L408,290.3281 " fill="#FEFECE" filter="url(#f1)" style="stroke: #A80036; stroke-width: 1.5;"/><path d="M408,290.3281 C408,300.3281 426,300.3281 426,300.3281 C426,300.3281 444,300.3281 444,290.3281 " fill="none" style="stroke: #A80036; stroke-width: 1.5;"/><rect fill="#0000FF" filter="url(#f1)" height="120.4063" style="stroke: #A80036; stroke-width: 1.0;" width="10" x="236" y="94.6094"/><rect fill="#00BBFF" filter="url(#f1)" height="82.0547" style="stroke: #A80036; stroke-width: 1.0;" width="10" x="241" y="132.9609"/><rect fill="#50EEFF" filter="url(#f1)" height="30.7031" style="stroke: #A80036; stroke-width: 1.0;" width="10" x="421" y="184.3125"/><polygon fill="#A80036" points="224,90.6094,234,94.6094,224,98.6094,228,94.6094" style="stroke: #A80036; stroke-width: 1.0;"/><line style="stroke: #A80036; stroke-width: 1.0;" x1="71" x2="230" y1="94.6094" y2="94.6094"/><text fill="#000000" font-family="sans-serif" font-size="13" font-weight="bold" lengthAdjust="spacingAndGlyphs" textLength="7" x="78" y="90.1045">1</text><text fill="#000000" font-family="sans-serif" font-size="13" lengthAdjust="spacingAndGlyphs" textLength="120" x="89" y="90.1045">CSQLite_Local_DB()</text><line style="stroke: #A80036; stroke-width: 1.0;" x1="246" x2="293" y1="120.3125" y2="120.3125"/><line style="stroke: #A80036; stroke-width: 1.0;" x1="293" x2="293" y1="120.3125" y2="133.3125"/><line style="stroke: #A80036; stroke-width: 1.0;" x1="252" x2="293" y1="133.3125" y2="133.3125"/><polygon fill="#A80036" points="262,129.3125,252,133.3125,262,137.3125,258,133.3125" style="stroke: #A80036; stroke-width: 1.0;"/><text fill="#000000" font-family="sans-serif" font-size="13" font-weight="bold" lengthAdjust="spacingAndGlyphs" textLength="7" x="258" y="115.4561">2</text><text fill="#000000" font-family="sans-serif" font-size="13" lengthAdjust="spacingAndGlyphs" textLength="81" x="269" y="115.4561">Connect_DB()</text><polygon fill="#A80036" points="409,180.3125,419,184.3125,409,188.3125,413,184.3125" style="stroke: #A80036; stroke-width: 1.0;"/><line style="stroke: #A80036; stroke-width: 1.0;" x1="251" x2="415" y1="184.3125" y2="184.3125"/><text fill="#000000" font-family="sans-serif" font-size="13" font-weight="bold" lengthAdjust="spacingAndGlyphs" textLength="7" x="258" y="171.9834">3</text><text fill="#000000" font-family="sans-serif" font-size="13" lengthAdjust="spacingAndGlyphs" textLength="115" x="269" y="163.8076">Try to connect, else</text><text fill="#000000" font-family="sans-serif" font-size="13" lengthAdjust="spacingAndGlyphs" textLength="126" x="273" y="180.1592">build a new database.</text><polygon fill="#A80036" points="252,211.0156,242,215.0156,252,219.0156,248,215.0156" style="stroke: #A80036; stroke-width: 1.0;"/><line style="stroke: #A80036; stroke-width: 1.0; stroke-dasharray: 2.0,2.0;" x1="246" x2="425" y1="215.0156" y2="215.0156"/><text fill="#000000" font-family="sans-serif" font-size="13" font-weight="bold" lengthAdjust="spacingAndGlyphs" textLength="7" x="258" y="210.5107">4</text><text fill="#000000" font-family="sans-serif" font-size="13" lengthAdjust="spacingAndGlyphs" textLength="135" x="269" y="210.5107">Database status (bool).</text><polygon fill="#A80036" points="82,241.3672,72,245.3672,82,249.3672,78,245.3672" style="stroke: #A80036; stroke-width: 1.0;"/><line style="stroke: #A80036; stroke-width: 1.0; stroke-dasharray: 2.0,2.0;" x1="76" x2="240" y1="245.3672" y2="245.3672"/><text fill="#000000" font-family="sans-serif" font-size="13" font-weight="bold" lengthAdjust="spacingAndGlyphs" textLength="7" x="88" y="240.8623">5</text><text fill="#000000" font-family="sans-serif" font-size="13" lengthAdjust="spacingAndGlyphs" textLength="135" x="99" y="240.8623">Database satuts (bool).</text></g></svg>