<?xml version="1.0" encoding="UTF-8" standalone="yes"?><svg xmlns="http://www.w3.org/2000/svg" xmlns:xlink="http://www.w3.org/1999/xlink" height="676px" style="width:654px;height:676px;" version="1.1" viewBox="0 0 654 676" width="654px"><defs><filter height="300%" id="f1" width="300%" x="-1" y="-1"><feGaussianBlur result="blurOut" stdDeviation="2.0"/><feColorMatrix in="blurOut" result="blurOut2" type="matrix" values="0 0 0 0 0 0 0 0 0 0 0 0 0 0 0 0 0 0 .4 0"/><feOffset dx="4.0" dy="4.0" in="blurOut2" result="blurOut3"/><feBlend in="SourceGraphic" in2="blurOut3" mode="normal"/></filter></defs><g><rect fill="#00CCFF" filter="url(#f1)" height="491.2188" style="stroke: #A80036; stroke-width: 1.0;" width="10" x="326" y="94.6094"/><rect fill="#00CCFF" filter="url(#f1)" height="30" style="stroke: #A80036; stroke-width: 1.0;" width="10" x="564" y="201.0156"/><rect fill="#00A5FF" filter="url(#f1)" height="30" style="stroke: #A80036; stroke-width: 1.0;" width="10" x="564" y="293.7188"/><rect fill="#00A5FF" filter="url(#f1)" height="30" style="stroke: #A80036; stroke-width: 1.0;" width="10" x="564" y="361.0703"/><rect fill="#00A5FF" filter="url(#f1)" height="30" style="stroke: #A80036; stroke-width: 1.0;" width="10" x="564" y="421.4219"/><rect fill="#FFFFFF" filter="url(#f1)" height="484.2188" style="stroke: #000000; stroke-width: 2.0;" width="632.5" x="13" y="109.9609"/><rect fill="#FFFFFF" filter="url(#f1)" height="324.4609" style="stroke: #000000; stroke-width: 2.0;" width="394.5" x="241" y="135.3125"/><rect fill="#FFFFFF" filter="url(#f1)" height="78.7031" style="stroke: #000000; stroke-width: 2.0;" width="374.5" x="251" y="160.6641"/><rect fill="#FFFFFF" filter="url(#f1)" height="78.7031" style="stroke: #000000; stroke-width: 2.0;" width="374.5" x="251" y="253.3672"/><rect fill="#FFFFFF" filter="url(#f1)" height="81.0547" style="stroke: #000000; stroke-width: 2.0;" width="388" x="23" y="473.7734"/><rect fill="#FFFFFF" height="32.3516" style="stroke: none; stroke-width: 1.0;" width="388" x="23" y="522.4766"/><rect fill="#FFFFFF" height="32.3516" style="stroke: none; stroke-width: 1.0;" width="632.5" x="13" y="561.8281"/><line style="stroke: #A80036; stroke-width: 1.0; stroke-dasharray: 5.0,5.0;" x1="96" x2="96" y1="62.6094" y2="611.1797"/><line style="stroke: #A80036; stroke-width: 1.0; stroke-dasharray: 5.0,5.0;" x1="331" x2="331" y1="62.6094" y2="611.1797"/><line style="stroke: #A80036; stroke-width: 1.0; stroke-dasharray: 5.0,5.0;" x1="568.5" x2="568.5" y1="62.6094" y2="611.1797"/><rect fill="#FEFECE" filter="url(#f1)" height="31.6094" style="stroke: #A80036; stroke-width: 1.5;" width="122" x="33" y="26"/><text fill="#000000" font-family="sans-serif" font-size="14" lengthAdjust="spacingAndGlyphs" textLength="108" x="40" y="47.5332">ConsoleWindows</text><rect fill="#FEFECE" filter="url(#f1)" height="31.6094" style="stroke: #A80036; stroke-width: 1.5;" width="122" x="33" y="610.1797"/><text fill="#000000" font-family="sans-serif" font-size="14" lengthAdjust="spacingAndGlyphs" textLength="108" x="40" y="631.7129">ConsoleWindows</text><rect fill="#FEFECE" filter="url(#f1)" height="31.6094" style="stroke: #A80036; stroke-width: 1.5;" width="136" x="261" y="26"/><text fill="#000000" font-family="sans-serif" font-size="14" lengthAdjust="spacingAndGlyphs" textLength="122" x="268" y="47.5332">CSQLite_Local_DB</text><rect fill="#FEFECE" filter="url(#f1)" height="31.6094" style="stroke: #A80036; stroke-width: 1.5;" width="136" x="261" y="610.1797"/><text fill="#000000" font-family="sans-serif" font-size="14" lengthAdjust="spacingAndGlyphs" textLength="122" x="268" y="631.7129">CSQLite_Local_DB</text><text fill="#000000" font-family="sans-serif" font-size="14" lengthAdjust="spacingAndGlyphs" textLength="87" x="522.5" y="59.5332">LC_Database</text><path d="M551,13 C551,3 569,3 569,3 C569,3 587,3 587,13 L587,35 C587,45 569,45 569,45 C569,45 551,45 551,35 L551,13 " fill="#FEFECE" filter="url(#f1)" style="stroke: #A80036; stroke-width: 1.5;"/><path d="M551,13 C551,23 569,23 569,23 C569,23 587,23 587,13 " fill="none" style="stroke: #A80036; stroke-width: 1.5;"/><text fill="#000000" font-family="sans-serif" font-size="14" lengthAdjust="spacingAndGlyphs" textLength="87" x="522.5" y="624.7129">LC_Database</text><path d="M551,637.7891 C551,627.7891 569,627.7891 569,627.7891 C569,627.7891 587,627.7891 587,637.7891 L587,659.7891 C587,669.7891 569,669.7891 569,669.7891 C569,669.7891 551,669.7891 551,659.7891 L551,637.7891 " fill="#FEFECE" filter="url(#f1)" style="stroke: #A80036; stroke-width: 1.5;"/><path d="M551,637.7891 C551,647.7891 569,647.7891 569,647.7891 C569,647.7891 587,647.7891 587,637.7891 " fill="none" style="stroke: #A80036; stroke-width: 1.5;"/><rect fill="#00CCFF" filter="url(#f1)" height="491.2188" style="stroke: #A80036; stroke-width: 1.0;" width="10" x="326" y="94.6094"/><rect fill="#00CCFF" filter="url(#f1)" height="30" style="stroke: #A80036; stroke-width: 1.0;" width="10" x="564" y="201.0156"/><rect fill="#00A5FF" filter="url(#f1)" height="30" style="stroke: #A80036; stroke-width: 1.0;" width="10" x="564" y="293.7188"/><rect fill="#00A5FF" filter="url(#f1)" height="30" style="stroke: #A80036; stroke-width: 1.0;" width="10" x="564" y="361.0703"/><rect fill="#00A5FF" filter="url(#f1)" height="30" style="stroke: #A80036; stroke-width: 1.0;" width="10" x="564" y="421.4219"/><polygon fill="#A80036" points="314,90.6094,324,94.6094,314,98.6094,318,94.6094" style="stroke: #A80036; stroke-width: 1.0;"/><line style="stroke: #A80036; stroke-width: 1.0;" x1="96" x2="320" y1="94.6094" y2="94.6094"/><text fill="#000000" font-family="sans-serif" font-size="13" font-weight="bold" lengthAdjust="spacingAndGlyphs" textLength="7" x="103" y="90.1045">1</text><text fill="#000000" font-family="sans-serif" font-size="13" lengthAdjust="spacingAndGlyphs" textLength="107" x="114" y="90.1045">UpdateLocalData()</text><rect fill="none" height="484.2188" style="stroke: #000000; stroke-width: 2.0;" width="632.5" x="13" y="109.9609"/><polygon fill="#EEEEEE" points="13,109.9609,74,109.9609,74,117.9609,64,127.9609,13,127.9609,13,109.9609" style="stroke: #000000; stroke-width: 2.0;"/><text fill="#000000" font-family="sans-serif" font-size="13" font-weight="bold" lengthAdjust="spacingAndGlyphs" textLength="16" x="28" y="124.4561">alt</text><text fill="#000000" font-family="sans-serif" font-size="11" font-weight="bold" lengthAdjust="spacingAndGlyphs" textLength="105" x="89" y="123.3799">[Database is ready]</text><rect fill="none" height="324.4609" style="stroke: #000000; stroke-width: 2.0;" width="394.5" x="241" y="135.3125"/><polygon fill="#EEEEEE" points="241,135.3125,314,135.3125,314,143.3125,304,153.3125,241,153.3125,241,135.3125" style="stroke: #000000; stroke-width: 2.0;"/><text fill="#000000" font-family="sans-serif" font-size="13" font-weight="bold" lengthAdjust="spacingAndGlyphs" textLength="28" x="256" y="149.8076">loop</text><text fill="#000000" font-family="sans-serif" font-size="11" font-weight="bold" lengthAdjust="spacingAndGlyphs" textLength="51" x="329" y="148.7314">[data list]</text><rect fill="none" height="78.7031" style="stroke: #000000; stroke-width: 2.0;" width="374.5" x="251" y="160.6641"/><polygon fill="#EEEEEE" points="251,160.6641,324,160.6641,324,168.6641,314,178.6641,251,178.6641,251,160.6641" style="stroke: #000000; stroke-width: 2.0;"/><text fill="#000000" font-family="sans-serif" font-size="13" font-weight="bold" lengthAdjust="spacingAndGlyphs" textLength="28" x="266" y="175.1592">loop</text><text fill="#000000" font-family="sans-serif" font-size="11" font-weight="bold" lengthAdjust="spacingAndGlyphs" textLength="81" x="339" y="174.083">[packages list]</text><polygon fill="#A80036" points="552,197.0156,562,201.0156,552,205.0156,556,201.0156" style="stroke: #A80036; stroke-width: 1.0;"/><line style="stroke: #A80036; stroke-width: 1.0;" x1="336" x2="558" y1="201.0156" y2="201.0156"/><text fill="#000000" font-family="sans-serif" font-size="13" font-weight="bold" lengthAdjust="spacingAndGlyphs" textLength="7" x="343" y="196.5107">2</text><text fill="#000000" font-family="sans-serif" font-size="13" lengthAdjust="spacingAndGlyphs" textLength="198" x="354" y="196.5107">SQL_Query(INSERT ExtractCode)</text><rect fill="none" height="78.7031" style="stroke: #000000; stroke-width: 2.0;" width="374.5" x="251" y="253.3672"/><polygon fill="#EEEEEE" points="251,253.3672,324,253.3672,324,261.3672,314,271.3672,251,271.3672,251,253.3672" style="stroke: #000000; stroke-width: 2.0;"/><text fill="#000000" font-family="sans-serif" font-size="13" font-weight="bold" lengthAdjust="spacingAndGlyphs" textLength="28" x="266" y="267.8623">loop</text><text fill="#000000" font-family="sans-serif" font-size="11" font-weight="bold" lengthAdjust="spacingAndGlyphs" textLength="110" x="339" y="266.7861">[extracts codes list]</text><polygon fill="#A80036" points="552,289.7188,562,293.7188,552,297.7188,556,293.7188" style="stroke: #A80036; stroke-width: 1.0;"/><line style="stroke: #A80036; stroke-width: 1.0;" x1="336" x2="558" y1="293.7188" y2="293.7188"/><text fill="#000000" font-family="sans-serif" font-size="13" font-weight="bold" lengthAdjust="spacingAndGlyphs" textLength="7" x="343" y="289.2139">3</text><text fill="#000000" font-family="sans-serif" font-size="13" lengthAdjust="spacingAndGlyphs" textLength="177" x="354" y="289.2139">SQL_Query(INSERT Package)</text><polygon fill="#A80036" points="552,357.0703,562,361.0703,552,365.0703,556,361.0703" style="stroke: #A80036; stroke-width: 1.0;"/><line style="stroke: #A80036; stroke-width: 1.0;" x1="336" x2="558" y1="361.0703" y2="361.0703"/><text fill="#000000" font-family="sans-serif" font-size="13" font-weight="bold" lengthAdjust="spacingAndGlyphs" textLength="7" x="343" y="356.5654">4</text><text fill="#000000" font-family="sans-serif" font-size="13" lengthAdjust="spacingAndGlyphs" textLength="155" x="354" y="356.5654">SQL_Query(UPDATE Box)</text><polygon fill="#A80036" points="552,417.4219,562,421.4219,552,425.4219,556,421.4219" style="stroke: #A80036; stroke-width: 1.0;"/><line style="stroke: #A80036; stroke-width: 1.0;" x1="336" x2="558" y1="421.4219" y2="421.4219"/><text fill="#000000" font-family="sans-serif" font-size="13" font-weight="bold" lengthAdjust="spacingAndGlyphs" textLength="7" x="343" y="416.917">5</text><text fill="#000000" font-family="sans-serif" font-size="13" lengthAdjust="spacingAndGlyphs" textLength="194" x="354" y="416.917">SQL_Query(UPDATE Doorlocker)</text><rect fill="none" height="81.0547" style="stroke: #000000; stroke-width: 2.0;" width="388" x="23" y="473.7734"/><polygon fill="#EEEEEE" points="23,473.7734,84,473.7734,84,481.7734,74,491.7734,23,491.7734,23,473.7734" style="stroke: #000000; stroke-width: 2.0;"/><text fill="#000000" font-family="sans-serif" font-size="13" font-weight="bold" lengthAdjust="spacingAndGlyphs" textLength="16" x="38" y="488.2686">alt</text><text fill="#000000" font-family="sans-serif" font-size="11" font-weight="bold" lengthAdjust="spacingAndGlyphs" textLength="96" x="99" y="487.1924">[Update success]</text><polygon fill="#A80036" points="107,510.125,97,514.125,107,518.125,103,514.125" style="stroke: #A80036; stroke-width: 1.0;"/><line style="stroke: #A80036; stroke-width: 1.0; stroke-dasharray: 2.0,2.0;" x1="101" x2="325" y1="514.125" y2="514.125"/><text fill="#000000" font-family="sans-serif" font-size="13" font-weight="bold" lengthAdjust="spacingAndGlyphs" textLength="7" x="113" y="509.6201">6</text><text fill="#000000" font-family="sans-serif" font-size="13" lengthAdjust="spacingAndGlyphs" textLength="195" x="124" y="509.6201">true database successful updated</text><line style="stroke: #000000; stroke-width: 1.0; stroke-dasharray: 2.0,2.0;" x1="23" x2="411" y1="523.4766" y2="523.4766"/><polygon fill="#A80036" points="107,542.4766,97,546.4766,107,550.4766,103,546.4766" style="stroke: #A80036; stroke-width: 1.0;"/><line style="stroke: #A80036; stroke-width: 1.0; stroke-dasharray: 2.0,2.0;" x1="101" x2="325" y1="546.4766" y2="546.4766"/><text fill="#000000" font-family="sans-serif" font-size="13" font-weight="bold" lengthAdjust="spacingAndGlyphs" textLength="7" x="113" y="541.9717">7</text><text fill="#000000" font-family="sans-serif" font-size="13" lengthAdjust="spacingAndGlyphs" textLength="145" x="124" y="541.9717">false no database update</text><line style="stroke: #000000; stroke-width: 1.0; stroke-dasharray: 2.0,2.0;" x1="13" x2="645.5" y1="562.8281" y2="562.8281"/><polygon fill="#A80036" points="107,581.8281,97,585.8281,107,589.8281,103,585.8281" style="stroke: #A80036; stroke-width: 1.0;"/><line style="stroke: #A80036; stroke-width: 1.0; stroke-dasharray: 2.0,2.0;" x1="101" x2="330" y1="585.8281" y2="585.8281"/><text fill="#000000" font-family="sans-serif" font-size="13" font-weight="bold" lengthAdjust="spacingAndGlyphs" textLength="7" x="113" y="581.3232">8</text><text fill="#000000" font-family="sans-serif" font-size="13" lengthAdjust="spacingAndGlyphs" textLength="169" x="124" y="581.3232">false no database connection</text></g></svg>