<?xml version="1.0" encoding="UTF-8" standalone="yes"?><svg xmlns="http://www.w3.org/2000/svg" xmlns:xlink="http://www.w3.org/1999/xlink" height="571px" style="width:510px;height:571px;" version="1.1" viewBox="0 0 510 571" width="510px"><defs><filter height="300%" id="f1" width="300%" x="-1" y="-1"><feGaussianBlur result="blurOut" stdDeviation="2.0"/><feColorMatrix in="blurOut" result="blurOut2" type="matrix" values="0 0 0 0 0 0 0 0 0 0 0 0 0 0 0 0 0 0 .4 0"/><feOffset dx="4.0" dy="4.0" in="blurOut2" result="blurOut3"/><feBlend in="SourceGraphic" in2="blurOut3" mode="normal"/></filter></defs><g><rect fill="#FFFFFF" filter="url(#f1)" height="428.2422" style="stroke: #000000; stroke-width: 2.0;" width="488" x="13" y="86.9609"/><rect fill="#FFFFFF" filter="url(#f1)" height="257.4844" style="stroke: #000000; stroke-width: 2.0;" width="426" x="23" y="155.6641"/><rect fill="#FFFFFF" height="196.1094" style="stroke: none; stroke-width: 1.0;" width="426" x="23" y="217.0391"/><rect fill="#FFFFFF" filter="url(#f1)" height="50.7031" style="stroke: #000000; stroke-width: 2.0;" width="406" x="33" y="226.0391"/><rect fill="#FFFFFF" height="32.3516" style="stroke: none; stroke-width: 1.0;" width="406" x="33" y="244.3906"/><rect fill="#FFFFFF" filter="url(#f1)" height="50.7031" style="stroke: #000000; stroke-width: 2.0;" width="406" x="33" y="290.7422"/><rect fill="#FFFFFF" height="32.3516" style="stroke: none; stroke-width: 1.0;" width="406" x="33" y="309.0938"/><rect fill="#FFFFFF" filter="url(#f1)" height="50.7031" style="stroke: #000000; stroke-width: 2.0;" width="406" x="33" y="355.4453"/><rect fill="#FFFFFF" height="32.3516" style="stroke: none; stroke-width: 1.0;" width="406" x="33" y="373.7969"/><rect fill="#FFFFFF" filter="url(#f1)" height="48.7031" style="stroke: #000000; stroke-width: 2.0;" width="406" x="33" y="427.1484"/><rect fill="#FFFFFF" height="32.3516" style="stroke: none; stroke-width: 1.0;" width="488" x="13" y="482.8516"/><line style="stroke: #A80036; stroke-width: 1.0; stroke-dasharray: 5.0,5.0;" x1="106" x2="106" y1="39.6094" y2="532.2031"/><line style="stroke: #A80036; stroke-width: 1.0; stroke-dasharray: 5.0,5.0;" x1="359" x2="359" y1="39.6094" y2="532.2031"/><rect fill="#FEFECE" filter="url(#f1)" height="31.6094" style="stroke: #A80036; stroke-width: 1.5;" width="122" x="43" y="3"/><text fill="#000000" font-family="sans-serif" font-size="14" lengthAdjust="spacingAndGlyphs" textLength="108" x="50" y="24.5332">ConsoleWindows</text><rect fill="#FEFECE" filter="url(#f1)" height="31.6094" style="stroke: #A80036; stroke-width: 1.5;" width="122" x="43" y="531.2031"/><text fill="#000000" font-family="sans-serif" font-size="14" lengthAdjust="spacingAndGlyphs" textLength="108" x="50" y="552.7363">ConsoleWindows</text><rect fill="#FEFECE" filter="url(#f1)" height="31.6094" style="stroke: #A80036; stroke-width: 1.5;" width="136" x="289" y="3"/><text fill="#000000" font-family="sans-serif" font-size="14" lengthAdjust="spacingAndGlyphs" textLength="122" x="296" y="24.5332">CSQLite_Local_DB</text><rect fill="#FEFECE" filter="url(#f1)" height="31.6094" style="stroke: #A80036; stroke-width: 1.5;" width="136" x="289" y="531.2031"/><text fill="#000000" font-family="sans-serif" font-size="14" lengthAdjust="spacingAndGlyphs" textLength="122" x="296" y="552.7363">CSQLite_Local_DB</text><polygon fill="#A80036" points="347,67.6094,357,71.6094,347,75.6094,351,71.6094" style="stroke: #A80036; stroke-width: 1.0;"/><line style="stroke: #A80036; stroke-width: 1.0;" x1="106" x2="353" y1="71.6094" y2="71.6094"/><text fill="#000000" font-family="sans-serif" font-size="13" font-weight="bold" lengthAdjust="spacingAndGlyphs" textLength="7" x="113" y="67.1045">1</text><text fill="#000000" font-family="sans-serif" font-size="13" lengthAdjust="spacingAndGlyphs" textLength="39" x="124" y="67.1045">Login()</text><rect fill="none" height="428.2422" style="stroke: #000000; stroke-width: 2.0;" width="488" x="13" y="86.9609"/><polygon fill="#EEEEEE" points="13,86.9609,74,86.9609,74,94.9609,64,104.9609,13,104.9609,13,86.9609" style="stroke: #000000; stroke-width: 2.0;"/><text fill="#000000" font-family="sans-serif" font-size="13" font-weight="bold" lengthAdjust="spacingAndGlyphs" textLength="16" x="28" y="101.4561">alt</text><text fill="#000000" font-family="sans-serif" font-size="11" font-weight="bold" lengthAdjust="spacingAndGlyphs" textLength="105" x="89" y="100.3799">[Database is ready]</text><line style="stroke: #A80036; stroke-width: 1.0;" x1="359" x2="401" y1="127.6641" y2="127.6641"/><line style="stroke: #A80036; stroke-width: 1.0;" x1="401" x2="401" y1="127.6641" y2="140.6641"/><line style="stroke: #A80036; stroke-width: 1.0;" x1="360" x2="401" y1="140.6641" y2="140.6641"/><polygon fill="#A80036" points="370,136.6641,360,140.6641,370,144.6641,366,140.6641" style="stroke: #A80036; stroke-width: 1.0;"/><text fill="#000000" font-family="sans-serif" font-size="13" font-weight="bold" lengthAdjust="spacingAndGlyphs" textLength="7" x="366" y="122.8076">2</text><text fill="#000000" font-family="sans-serif" font-size="13" lengthAdjust="spacingAndGlyphs" textLength="112" x="377" y="122.8076">HashingPassword()</text><rect fill="none" height="257.4844" style="stroke: #000000; stroke-width: 2.0;" width="426" x="23" y="155.6641"/><polygon fill="#EEEEEE" points="23,155.6641,84,155.6641,84,163.6641,74,173.6641,23,173.6641,23,155.6641" style="stroke: #000000; stroke-width: 2.0;"/><text fill="#000000" font-family="sans-serif" font-size="13" font-weight="bold" lengthAdjust="spacingAndGlyphs" textLength="16" x="38" y="170.1592">alt</text><text fill="#000000" font-family="sans-serif" font-size="11" font-weight="bold" lengthAdjust="spacingAndGlyphs" textLength="220" x="99" y="169.083">[UserCompanyPass, UserPersonalPass,</text><text fill="#000000" font-family="sans-serif" font-size="11" font-weight="bold" lengthAdjust="spacingAndGlyphs" textLength="211" x="102" y="182.9189">UserPassWord, NOT fined in database]</text><polygon fill="#A80036" points="117,204.6875,107,208.6875,117,212.6875,113,208.6875" style="stroke: #A80036; stroke-width: 1.0;"/><line style="stroke: #A80036; stroke-width: 1.0;" x1="111" x2="358" y1="208.6875" y2="208.6875"/><text fill="#000000" font-family="sans-serif" font-size="13" font-weight="bold" lengthAdjust="spacingAndGlyphs" textLength="7" x="123" y="204.1826">3</text><text fill="#000000" font-family="sans-serif" font-size="13" lengthAdjust="spacingAndGlyphs" textLength="140" x="134" y="204.1826">(UNDEFINED_USER) -4</text><line style="stroke: #000000; stroke-width: 1.0; stroke-dasharray: 2.0,2.0;" x1="23" x2="449" y1="218.0391" y2="218.0391"/><rect fill="none" height="50.7031" style="stroke: #000000; stroke-width: 2.0;" width="406" x="33" y="226.0391"/><polygon fill="#EEEEEE" points="33,226.0391,94,226.0391,94,234.0391,84,244.0391,33,244.0391,33,226.0391" style="stroke: #000000; stroke-width: 2.0;"/><text fill="#000000" font-family="sans-serif" font-size="13" font-weight="bold" lengthAdjust="spacingAndGlyphs" textLength="16" x="48" y="240.5342">alt</text><text fill="#000000" font-family="sans-serif" font-size="11" font-weight="bold" lengthAdjust="spacingAndGlyphs" textLength="144" x="109" y="239.458">[UserCompanyPass is OK]</text><line style="stroke: #000000; stroke-width: 1.0; stroke-dasharray: 2.0,2.0;" x1="33" x2="439" y1="245.3906" y2="245.3906"/><polygon fill="#A80036" points="117,264.3906,107,268.3906,117,272.3906,113,268.3906" style="stroke: #A80036; stroke-width: 1.0;"/><line style="stroke: #A80036; stroke-width: 1.0;" x1="111" x2="358" y1="268.3906" y2="268.3906"/><text fill="#000000" font-family="sans-serif" font-size="13" font-weight="bold" lengthAdjust="spacingAndGlyphs" textLength="7" x="123" y="263.8857">4</text><text fill="#000000" font-family="sans-serif" font-size="13" lengthAdjust="spacingAndGlyphs" textLength="213" x="134" y="263.8857">(UNDEFINED_COMPANY_PASS) -3</text><rect fill="none" height="50.7031" style="stroke: #000000; stroke-width: 2.0;" width="406" x="33" y="290.7422"/><polygon fill="#EEEEEE" points="33,290.7422,94,290.7422,94,298.7422,84,308.7422,33,308.7422,33,290.7422" style="stroke: #000000; stroke-width: 2.0;"/><text fill="#000000" font-family="sans-serif" font-size="13" font-weight="bold" lengthAdjust="spacingAndGlyphs" textLength="16" x="48" y="305.2373">alt</text><text fill="#000000" font-family="sans-serif" font-size="11" font-weight="bold" lengthAdjust="spacingAndGlyphs" textLength="141" x="109" y="304.1611">[UserPersonalPass is OK]</text><line style="stroke: #000000; stroke-width: 1.0; stroke-dasharray: 2.0,2.0;" x1="33" x2="439" y1="310.0938" y2="310.0938"/><polygon fill="#A80036" points="117,329.0938,107,333.0938,117,337.0938,113,333.0938" style="stroke: #A80036; stroke-width: 1.0;"/><line style="stroke: #A80036; stroke-width: 1.0;" x1="111" x2="358" y1="333.0938" y2="333.0938"/><text fill="#000000" font-family="sans-serif" font-size="13" font-weight="bold" lengthAdjust="spacingAndGlyphs" textLength="7" x="123" y="328.5889">5</text><text fill="#000000" font-family="sans-serif" font-size="13" lengthAdjust="spacingAndGlyphs" textLength="218" x="134" y="328.5889">(UNDEFINED_PERSONAL_PASS) -3</text><rect fill="none" height="50.7031" style="stroke: #000000; stroke-width: 2.0;" width="406" x="33" y="355.4453"/><polygon fill="#EEEEEE" points="33,355.4453,94,355.4453,94,363.4453,84,373.4453,33,373.4453,33,355.4453" style="stroke: #000000; stroke-width: 2.0;"/><text fill="#000000" font-family="sans-serif" font-size="13" font-weight="bold" lengthAdjust="spacingAndGlyphs" textLength="16" x="48" y="369.9404">alt</text><text fill="#000000" font-family="sans-serif" font-size="11" font-weight="bold" lengthAdjust="spacingAndGlyphs" textLength="121" x="109" y="368.8643">[UserPassWord is OK]</text><line style="stroke: #000000; stroke-width: 1.0; stroke-dasharray: 2.0,2.0;" x1="33" x2="439" y1="374.7969" y2="374.7969"/><polygon fill="#A80036" points="117,393.7969,107,397.7969,117,401.7969,113,397.7969" style="stroke: #A80036; stroke-width: 1.0;"/><line style="stroke: #A80036; stroke-width: 1.0;" x1="111" x2="358" y1="397.7969" y2="397.7969"/><text fill="#000000" font-family="sans-serif" font-size="13" font-weight="bold" lengthAdjust="spacingAndGlyphs" textLength="7" x="123" y="393.292">6</text><text fill="#000000" font-family="sans-serif" font-size="13" lengthAdjust="spacingAndGlyphs" textLength="181" x="134" y="393.292">(UNDEFINED_PASSWORD) -1</text><rect fill="none" height="48.7031" style="stroke: #000000; stroke-width: 2.0;" width="406" x="33" y="427.1484"/><polygon fill="#EEEEEE" points="33,427.1484,98,427.1484,98,435.1484,88,445.1484,33,445.1484,33,427.1484" style="stroke: #000000; stroke-width: 2.0;"/><text fill="#000000" font-family="sans-serif" font-size="13" font-weight="bold" lengthAdjust="spacingAndGlyphs" textLength="20" x="48" y="441.6436">opt</text><text fill="#000000" font-family="sans-serif" font-size="11" font-weight="bold" lengthAdjust="spacingAndGlyphs" textLength="199" x="113" y="440.5674">[Livreur (0) or Maintenance (1) user]</text><polygon fill="#A80036" points="117,463.5,107,467.5,117,471.5,113,467.5" style="stroke: #A80036; stroke-width: 1.0;"/><line style="stroke: #A80036; stroke-width: 1.0;" x1="111" x2="358" y1="467.5" y2="467.5"/><text fill="#000000" font-family="sans-serif" font-size="13" font-weight="bold" lengthAdjust="spacingAndGlyphs" textLength="7" x="123" y="462.9951">7</text><text fill="#000000" font-family="sans-serif" font-size="13" lengthAdjust="spacingAndGlyphs" textLength="55" x="134" y="462.9951">UserType</text><line style="stroke: #000000; stroke-width: 1.0; stroke-dasharray: 2.0,2.0;" x1="13" x2="501" y1="483.8516" y2="483.8516"/><polygon fill="#A80036" points="117,502.8516,107,506.8516,117,510.8516,113,506.8516" style="stroke: #A80036; stroke-width: 1.0;"/><line style="stroke: #A80036; stroke-width: 1.0;" x1="111" x2="358" y1="506.8516" y2="506.8516"/><text fill="#000000" font-family="sans-serif" font-size="13" font-weight="bold" lengthAdjust="spacingAndGlyphs" textLength="7" x="123" y="502.3467">8</text><text fill="#000000" font-family="sans-serif" font-size="13" lengthAdjust="spacingAndGlyphs" textLength="163" x="134" y="502.3467">(No database connection) -5</text></g></svg>