<?xml version="1.0" encoding="UTF-8" standalone="yes"?><svg xmlns="http://www.w3.org/2000/svg" xmlns:xlink="http://www.w3.org/1999/xlink" height="327px" style="width:682px;height:327px;" version="1.1" viewBox="0 0 682 327" width="682px"><defs><filter height="300%" id="f1" width="300%" x="-1" y="-1"><feGaussianBlur result="blurOut" stdDeviation="2.0"/><feColorMatrix in="blurOut" result="blurOut2" type="matrix" values="0 0 0 0 0 0 0 0 0 0 0 0 0 0 0 0 0 0 .4 0"/><feOffset dx="4.0" dy="4.0" in="blurOut2" result="blurOut3"/><feBlend in="SourceGraphic" in2="blurOut3" mode="normal"/></filter></defs><g><rect fill="#FEFECE" filter="url(#f1)" height="48" style="stroke: #A80036; stroke-width: 1.5;" width="76" x="6" y="117"/><ellipse cx="21" cy="133" fill="#ADD1B2" rx="11" ry="11" style="stroke: #A80036; stroke-width: 1.0;"/><path d="M23.7656,128.875 Q23.9219,128.6563 24.1094,128.5469 Q24.2969,128.4375 24.5156,128.4375 Q24.8906,128.4375 25.125,128.6953 Q25.3594,128.9531 25.3594,129.5625 L25.3594,131.0156 Q25.3594,131.625 25.125,131.8906 Q24.8906,132.1563 24.5156,132.1563 Q24.1719,132.1563 23.9688,131.9531 Q23.7656,131.7656 23.6563,131.25 Q23.6094,130.8906 23.4219,130.7031 Q23.0938,130.3281 22.4844,130.1094 Q21.875,129.8906 21.25,129.8906 Q20.4844,129.8906 19.8516,130.2188 Q19.2188,130.5469 18.7266,131.2969 Q18.2344,132.0469 18.2344,133.0781 L18.2344,134.1719 Q18.2344,135.4063 19.125,136.2266 Q20.0156,137.0469 21.6094,137.0469 Q22.5469,137.0469 23.2031,136.7969 Q23.5938,136.6406 24.0156,136.2031 Q24.2813,135.9375 24.4297,135.8594 Q24.5781,135.7813 24.7813,135.7813 Q25.1094,135.7813 25.3672,136.0391 Q25.625,136.2969 25.625,136.6406 Q25.625,136.9844 25.2813,137.3906 Q24.7813,137.9688 23.9844,138.2969 Q22.9063,138.75 21.6094,138.75 Q20.0938,138.75 18.8906,138.125 Q17.9063,137.625 17.2188,136.5547 Q16.5313,135.4844 16.5313,134.2031 L16.5313,133.0469 Q16.5313,131.7188 17.1484,130.5703 Q17.7656,129.4219 18.8594,128.8047 Q19.9531,128.1875 21.1875,128.1875 Q21.9219,128.1875 22.5703,128.3516 Q23.2188,128.5156 23.7656,128.875 Z "/><text fill="#000000" font-family="sans-serif" font-size="12" lengthAdjust="spacingAndGlyphs" textLength="44" x="35" y="137.9102">QObject</text><line style="stroke: #A80036; stroke-width: 1.5;" x1="7" x2="81" y1="149" y2="149"/><line style="stroke: #A80036; stroke-width: 1.5;" x1="7" x2="81" y1="157" y2="157"/><rect fill="#FEFECE" filter="url(#f1)" height="48" style="stroke: #A80036; stroke-width: 1.5;" width="139" x="82.5" y="264.5"/><ellipse cx="97.5" cy="280.5" fill="#ADD1B2" rx="11" ry="11" style="stroke: #A80036; stroke-width: 1.0;"/><path d="M100.2656,276.375 Q100.4219,276.1563 100.6094,276.0469 Q100.7969,275.9375 101.0156,275.9375 Q101.3906,275.9375 101.625,276.1953 Q101.8594,276.4531 101.8594,277.0625 L101.8594,278.5156 Q101.8594,279.125 101.625,279.3906 Q101.3906,279.6563 101.0156,279.6563 Q100.6719,279.6563 100.4688,279.4531 Q100.2656,279.2656 100.1563,278.75 Q100.1094,278.3906 99.9219,278.2031 Q99.5938,277.8281 98.9844,277.6094 Q98.375,277.3906 97.75,277.3906 Q96.9844,277.3906 96.3516,277.7188 Q95.7188,278.0469 95.2266,278.7969 Q94.7344,279.5469 94.7344,280.5781 L94.7344,281.6719 Q94.7344,282.9063 95.625,283.7266 Q96.5156,284.5469 98.1094,284.5469 Q99.0469,284.5469 99.7031,284.2969 Q100.0938,284.1406 100.5156,283.7031 Q100.7813,283.4375 100.9297,283.3594 Q101.0781,283.2813 101.2813,283.2813 Q101.6094,283.2813 101.8672,283.5391 Q102.125,283.7969 102.125,284.1406 Q102.125,284.4844 101.7813,284.8906 Q101.2813,285.4688 100.4844,285.7969 Q99.4063,286.25 98.1094,286.25 Q96.5938,286.25 95.3906,285.625 Q94.4063,285.125 93.7188,284.0547 Q93.0313,282.9844 93.0313,281.7031 L93.0313,280.5469 Q93.0313,279.2188 93.6484,278.0703 Q94.2656,276.9219 95.3594,276.3047 Q96.4531,275.6875 97.6875,275.6875 Q98.4219,275.6875 99.0703,275.8516 Q99.7188,276.0156 100.2656,276.375 Z "/><text fill="#000000" font-family="sans-serif" font-size="12" lengthAdjust="spacingAndGlyphs" textLength="107" x="111.5" y="285.4102">CSQLite_Local_DB</text><line style="stroke: #A80036; stroke-width: 1.5;" x1="83.5" x2="220.5" y1="296.5" y2="296.5"/><line style="stroke: #A80036; stroke-width: 1.5;" x1="83.5" x2="220.5" y1="304.5" y2="304.5"/><rect fill="#FEFECE" filter="url(#f1)" height="48" style="stroke: #A80036; stroke-width: 1.5;" width="130" x="202" y="8"/><ellipse cx="217" cy="24" fill="#ADD1B2" rx="11" ry="11" style="stroke: #A80036; stroke-width: 1.0;"/><path d="M219.7656,19.875 Q219.9219,19.6563 220.1094,19.5469 Q220.2969,19.4375 220.5156,19.4375 Q220.8906,19.4375 221.125,19.6953 Q221.3594,19.9531 221.3594,20.5625 L221.3594,22.0156 Q221.3594,22.625 221.125,22.8906 Q220.8906,23.1563 220.5156,23.1563 Q220.1719,23.1563 219.9688,22.9531 Q219.7656,22.7656 219.6563,22.25 Q219.6094,21.8906 219.4219,21.7031 Q219.0938,21.3281 218.4844,21.1094 Q217.875,20.8906 217.25,20.8906 Q216.4844,20.8906 215.8516,21.2188 Q215.2188,21.5469 214.7266,22.2969 Q214.2344,23.0469 214.2344,24.0781 L214.2344,25.1719 Q214.2344,26.4063 215.125,27.2266 Q216.0156,28.0469 217.6094,28.0469 Q218.5469,28.0469 219.2031,27.7969 Q219.5938,27.6406 220.0156,27.2031 Q220.2813,26.9375 220.4297,26.8594 Q220.5781,26.7813 220.7813,26.7813 Q221.1094,26.7813 221.3672,27.0391 Q221.625,27.2969 221.625,27.6406 Q221.625,27.9844 221.2813,28.3906 Q220.7813,28.9688 219.9844,29.2969 Q218.9063,29.75 217.6094,29.75 Q216.0938,29.75 214.8906,29.125 Q213.9063,28.625 213.2188,27.5547 Q212.5313,26.4844 212.5313,25.2031 L212.5313,24.0469 Q212.5313,22.7188 213.1484,21.5703 Q213.7656,20.4219 214.8594,19.8047 Q215.9531,19.1875 217.1875,19.1875 Q217.9219,19.1875 218.5703,19.3516 Q219.2188,19.5156 219.7656,19.875 Z "/><text fill="#000000" font-family="sans-serif" font-size="12" lengthAdjust="spacingAndGlyphs" textLength="98" x="231" y="28.9102">ConsoleWindows</text><line style="stroke: #A80036; stroke-width: 1.5;" x1="203" x2="331" y1="40" y2="40"/><line style="stroke: #A80036; stroke-width: 1.5;" x1="203" x2="331" y1="48" y2="48"/><rect fill="#FEFECE" filter="url(#f1)" height="48" style="stroke: #A80036; stroke-width: 1.5;" width="89" x="222.5" y="117"/><ellipse cx="237.5" cy="133" fill="#ADD1B2" rx="11" ry="11" style="stroke: #A80036; stroke-width: 1.0;"/><path d="M240.2656,128.875 Q240.4219,128.6563 240.6094,128.5469 Q240.7969,128.4375 241.0156,128.4375 Q241.3906,128.4375 241.625,128.6953 Q241.8594,128.9531 241.8594,129.5625 L241.8594,131.0156 Q241.8594,131.625 241.625,131.8906 Q241.3906,132.1563 241.0156,132.1563 Q240.6719,132.1563 240.4688,131.9531 Q240.2656,131.7656 240.1563,131.25 Q240.1094,130.8906 239.9219,130.7031 Q239.5938,130.3281 238.9844,130.1094 Q238.375,129.8906 237.75,129.8906 Q236.9844,129.8906 236.3516,130.2188 Q235.7188,130.5469 235.2266,131.2969 Q234.7344,132.0469 234.7344,133.0781 L234.7344,134.1719 Q234.7344,135.4063 235.625,136.2266 Q236.5156,137.0469 238.1094,137.0469 Q239.0469,137.0469 239.7031,136.7969 Q240.0938,136.6406 240.5156,136.2031 Q240.7813,135.9375 240.9297,135.8594 Q241.0781,135.7813 241.2813,135.7813 Q241.6094,135.7813 241.8672,136.0391 Q242.125,136.2969 242.125,136.6406 Q242.125,136.9844 241.7813,137.3906 Q241.2813,137.9688 240.4844,138.2969 Q239.4063,138.75 238.1094,138.75 Q236.5938,138.75 235.3906,138.125 Q234.4063,137.625 233.7188,136.5547 Q233.0313,135.4844 233.0313,134.2031 L233.0313,133.0469 Q233.0313,131.7188 233.6484,130.5703 Q234.2656,129.4219 235.3594,128.8047 Q236.4531,128.1875 237.6875,128.1875 Q238.4219,128.1875 239.0703,128.3516 Q239.7188,128.5156 240.2656,128.875 Z "/><text fill="#000000" font-family="sans-serif" font-size="12" lengthAdjust="spacingAndGlyphs" textLength="57" x="251.5" y="137.9102">CLMS_DB</text><line style="stroke: #A80036; stroke-width: 1.5;" x1="223.5" x2="310.5" y1="149" y2="149"/><line style="stroke: #A80036; stroke-width: 1.5;" x1="223.5" x2="310.5" y1="157" y2="157"/><rect fill="#FEFECE" filter="url(#f1)" height="48" style="stroke: #A80036; stroke-width: 1.5;" width="210" x="347" y="117"/><ellipse cx="362" cy="133" fill="#ADD1B2" rx="11" ry="11" style="stroke: #A80036; stroke-width: 1.0;"/><path d="M364.7656,128.875 Q364.9219,128.6563 365.1094,128.5469 Q365.2969,128.4375 365.5156,128.4375 Q365.8906,128.4375 366.125,128.6953 Q366.3594,128.9531 366.3594,129.5625 L366.3594,131.0156 Q366.3594,131.625 366.125,131.8906 Q365.8906,132.1563 365.5156,132.1563 Q365.1719,132.1563 364.9688,131.9531 Q364.7656,131.7656 364.6563,131.25 Q364.6094,130.8906 364.4219,130.7031 Q364.0938,130.3281 363.4844,130.1094 Q362.875,129.8906 362.25,129.8906 Q361.4844,129.8906 360.8516,130.2188 Q360.2188,130.5469 359.7266,131.2969 Q359.2344,132.0469 359.2344,133.0781 L359.2344,134.1719 Q359.2344,135.4063 360.125,136.2266 Q361.0156,137.0469 362.6094,137.0469 Q363.5469,137.0469 364.2031,136.7969 Q364.5938,136.6406 365.0156,136.2031 Q365.2813,135.9375 365.4297,135.8594 Q365.5781,135.7813 365.7813,135.7813 Q366.1094,135.7813 366.3672,136.0391 Q366.625,136.2969 366.625,136.6406 Q366.625,136.9844 366.2813,137.3906 Q365.7813,137.9688 364.9844,138.2969 Q363.9063,138.75 362.6094,138.75 Q361.0938,138.75 359.8906,138.125 Q358.9063,137.625 358.2188,136.5547 Q357.5313,135.4844 357.5313,134.2031 L357.5313,133.0469 Q357.5313,131.7188 358.1484,130.5703 Q358.7656,129.4219 359.8594,128.8047 Q360.9531,128.1875 362.1875,128.1875 Q362.9219,128.1875 363.5703,128.3516 Q364.2188,128.5156 364.7656,128.875 Z "/><text fill="#000000" font-family="sans-serif" font-size="12" lengthAdjust="spacingAndGlyphs" textLength="178" x="376" y="137.9102">Class_Need_Database_Access</text><line style="stroke: #A80036; stroke-width: 1.5;" x1="348" x2="556" y1="149" y2="149"/><line style="stroke: #A80036; stroke-width: 1.5;" x1="348" x2="556" y1="157" y2="157"/><polygon fill="#FBFB77" filter="url(#f1)" points="256.5,259,256.5,318.0547,673.5,318.0547,673.5,269,663.5,259,256.5,259" style="stroke: #A80036; stroke-width: 1.0;"/><polygon fill="#FBFB77" points="256.5,259,256.5,318.0547,673.5,318.0547,673.5,269,663.5,259,466.436,259,454.06,165.055,458.436,259,256.5,259" style="stroke: #A80036; stroke-width: 1.0;"/><line style="stroke: #A80036; stroke-width: 1.0;" x1="663.5" x2="663.5" y1="259" y2="269"/><line style="stroke: #A80036; stroke-width: 1.0;" x1="673.5" x2="663.5" y1="269" y2="269"/><text fill="#000000" font-family="sans-serif" font-size="13" lengthAdjust="spacingAndGlyphs" textLength="396" x="262.5" y="277.4951">Class_Need_Database_Access can have an access to the database</text><text fill="#000000" font-family="sans-serif" font-size="13" lengthAdjust="spacingAndGlyphs" textLength="366" x="266.5" y="293.8467">with a pointer on CSQLite_Local_DB gived by ConsoleWindows</text><text fill="#000000" font-family="sans-serif" font-size="13" lengthAdjust="spacingAndGlyphs" textLength="352" x="266.5" y="310.1982">when ConsoleWindows build Class_Need_Database_Access</text><path d="M46.2139,185.35 C48.6499,200.197 53.2995,216.261 62,229 C71.8799,243.4656 86.6386,255.1954 101.3612,264.2481 " fill="none" style="stroke: #A80036; stroke-width: 1.0;"/><polygon fill="none" points="39.2394,185.963,44.0335,165.323,53.1571,184.448,39.2394,185.963" style="stroke: #A80036; stroke-width: 1.0;"/><text fill="#000000" font-family="sans-serif" font-size="13" lengthAdjust="spacingAndGlyphs" textLength="28" x="71.5" y="209.4951">need</text><text fill="#000000" font-family="sans-serif" font-size="13" lengthAdjust="spacingAndGlyphs" textLength="41" x="67" y="225.8467">signals</text><path d="M223.102,65.916 C210.022,80.771 197.112,98.999 188,117 C162.87,166.643 146.924,230.4943 145.498,264.2225 " fill="none" style="stroke: #A80036; stroke-width: 1.0;"/><polygon fill="#A80036" points="232.14,56.216,225.1234,57.8793,223.96,64.996,230.9767,63.3326,232.14,56.216" style="stroke: #A80036; stroke-width: 1.0;"/><path d="M254.335,67.21 C244.281,81.822 231.85,99.518 223,117 C197.87,166.643 181.924,230.4943 168.433,264.2225 " fill="none" style="stroke: #A80036; stroke-width: 1.0;"/><polygon fill="none" points="261.776,56.216,255.1007,58.9436,255.051,66.1545,261.7263,63.4269,261.776,56.216" style="stroke: #A80036; stroke-width: 1.0;"/><path d="M254.855,69.302 C253.713,85.021 254.188,102.955 256.281,116.828 " fill="none" style="stroke: #A80036; stroke-width: 1.0;"/><polygon fill="#A80036" points="256.274,56.217,251.6505,61.7508,254.9804,68.1471,259.6039,62.6132,256.274,56.217" style="stroke: #A80036; stroke-width: 1.0;"/><path d="M279.86,69.302 C281.069,85.021 280.565,102.955 278.35,116.828 " fill="none" style="stroke: #A80036; stroke-width: 1.0;"/><polygon fill="none" points="278.357,56.217,275.0682,62.6344,279.727,68.1385,283.0159,61.7211,278.357,56.217" style="stroke: #A80036; stroke-width: 1.0;"/><path d="M240.438,175.606 C219.019,202.706 189.444,240.1253 170.518,264.0712 " fill="none" style="stroke: #A80036; stroke-width: 1.0;"/><polygon fill="none" points="248.778,165.055,241.9195,167.2822,241.3374,174.4698,248.196,172.2426,248.778,165.055" style="stroke: #A80036; stroke-width: 1.0;"/><text fill="#000000" font-family="sans-serif" font-size="13" lengthAdjust="spacingAndGlyphs" textLength="56" x="249" y="209.4951">Linked by</text><text fill="#000000" font-family="sans-serif" font-size="13" lengthAdjust="spacingAndGlyphs" textLength="100" x="229" y="225.8467">ConsoleWindows</text><path d="M307.67,63.239 C335.293,80.241 371.715,101.134 401.217,116.828 " fill="none" style="stroke: #A80036; stroke-width: 1.0;"/><polygon fill="#A80036" points="296.416,56.217,299.3889,62.7868,306.5967,62.5694,303.6238,55.9996,296.416,56.217" style="stroke: #A80036; stroke-width: 1.0;"/><path d="M330.324,62.558 C361.888,79.68 398.328,100.924 423.286,116.828 " fill="none" style="stroke: #A80036; stroke-width: 1.0;"/><polygon fill="none" points="318.499,56.217,321.8968,62.5774,329.0748,61.8873,325.677,55.5269,318.499,56.217" style="stroke: #A80036; stroke-width: 1.0;"/></g></svg>