<?xml version="1.0" encoding="UTF-8" standalone="yes"?><svg xmlns="http://www.w3.org/2000/svg" xmlns:xlink="http://www.w3.org/1999/xlink" height="723px" style="width:641px;height:723px;" version="1.1" viewBox="0 0 641 723" width="641px"><defs><filter height="300%" id="f1" width="300%" x="-1" y="-1"><feGaussianBlur result="blurOut" stdDeviation="2.0"/><feColorMatrix in="blurOut" result="blurOut2" type="matrix" values="0 0 0 0 0 0 0 0 0 0 0 0 0 0 0 0 0 0 .4 0"/><feOffset dx="4.0" dy="4.0" in="blurOut2" result="blurOut3"/><feBlend in="SourceGraphic" in2="blurOut3" mode="normal"/></filter></defs><g><rect fill="#0000FF" filter="url(#f1)" height="28" style="stroke: #A80036; stroke-width: 1.0;" width="10" x="290" y="158.3125"/><rect fill="#00A0FF" filter="url(#f1)" height="28" style="stroke: #A80036; stroke-width: 1.0;" width="10" x="290" y="298.2031"/><rect fill="#00CCFF" filter="url(#f1)" height="65.7031" style="stroke: #A80036; stroke-width: 1.0;" width="10" x="290" y="403.9063"/><rect fill="#30DDFF" filter="url(#f1)" height="28" style="stroke: #A80036; stroke-width: 1.0;" width="10" x="290" y="553.9883"/><rect fill="#00CCFF" filter="url(#f1)" height="65.7031" style="stroke: #A80036; stroke-width: 1.0;" width="10" x="506" y="403.9063"/><rect fill="#FFFFFF" filter="url(#f1)" height="531.4063" style="stroke: #000000; stroke-width: 2.0;" width="619" x="13" y="109.9609"/><rect fill="#FFFFFF" height="439.7031" style="stroke: none; stroke-width: 1.0;" width="619" x="13" y="201.6641"/><rect fill="#FFFFFF" filter="url(#f1)" height="260.4609" style="stroke: #000000; stroke-width: 2.0;" width="417" x="205" y="224.5"/><rect fill="#FFFFFF" filter="url(#f1)" height="91.7031" style="stroke: #000000; stroke-width: 2.0;" width="196" x="215" y="249.8516"/><rect fill="#FFFFFF" filter="url(#f1)" height="122.4063" style="stroke: #000000; stroke-width: 2.0;" width="397" x="215" y="355.5547"/><rect fill="#FFFFFF" filter="url(#f1)" height="135.4063" style="stroke: #000000; stroke-width: 2.0;" width="556" x="23" y="498.9609"/><line style="stroke: #A80036; stroke-width: 1.0; stroke-dasharray: 5.0,5.0;" x1="96" x2="96" y1="62.6094" y2="658.3672"/><line style="stroke: #A80036; stroke-width: 1.0; stroke-dasharray: 5.0,5.0;" x1="295" x2="295" y1="62.6094" y2="658.3672"/><line style="stroke: #A80036; stroke-width: 1.0; stroke-dasharray: 5.0,5.0;" x1="511" x2="511" y1="62.6094" y2="658.3672"/><rect fill="#FEFECE" filter="url(#f1)" height="31.6094" style="stroke: #A80036; stroke-width: 1.5;" width="122" x="33" y="26"/><text fill="#000000" font-family="sans-serif" font-size="14" lengthAdjust="spacingAndGlyphs" textLength="108" x="40" y="47.5332">ConsoleWindows</text><rect fill="#FEFECE" filter="url(#f1)" height="31.6094" style="stroke: #A80036; stroke-width: 1.5;" width="122" x="33" y="657.3672"/><text fill="#000000" font-family="sans-serif" font-size="14" lengthAdjust="spacingAndGlyphs" textLength="108" x="40" y="678.9004">ConsoleWindows</text><rect fill="#FEFECE" filter="url(#f1)" height="31.6094" style="stroke: #A80036; stroke-width: 1.5;" width="136" x="225" y="26"/><text fill="#000000" font-family="sans-serif" font-size="14" lengthAdjust="spacingAndGlyphs" textLength="122" x="232" y="47.5332">CSQLite_Local_DB</text><rect fill="#FEFECE" filter="url(#f1)" height="31.6094" style="stroke: #A80036; stroke-width: 1.5;" width="136" x="225" y="657.3672"/><text fill="#000000" font-family="sans-serif" font-size="14" lengthAdjust="spacingAndGlyphs" textLength="122" x="232" y="678.9004">CSQLite_Local_DB</text><text fill="#000000" font-family="sans-serif" font-size="14" lengthAdjust="spacingAndGlyphs" textLength="96" x="460" y="59.5332">LC_SQLite_DB</text><path d="M493,13 C493,3 511,3 511,3 C511,3 529,3 529,13 L529,35 C529,45 511,45 511,45 C511,45 493,45 493,35 L493,13 " fill="#FEFECE" filter="url(#f1)" style="stroke: #A80036; stroke-width: 1.5;"/><path d="M493,13 C493,23 511,23 511,23 C511,23 529,23 529,13 " fill="none" style="stroke: #A80036; stroke-width: 1.5;"/><text fill="#000000" font-family="sans-serif" font-size="14" lengthAdjust="spacingAndGlyphs" textLength="96" x="460" y="671.9004">LC_SQLite_DB</text><path d="M493,684.9766 C493,674.9766 511,674.9766 511,674.9766 C511,674.9766 529,674.9766 529,684.9766 L529,706.9766 C529,716.9766 511,716.9766 511,716.9766 C511,716.9766 493,716.9766 493,706.9766 L493,684.9766 " fill="#FEFECE" filter="url(#f1)" style="stroke: #A80036; stroke-width: 1.5;"/><path d="M493,684.9766 C493,694.9766 511,694.9766 511,694.9766 C511,694.9766 529,694.9766 529,684.9766 " fill="none" style="stroke: #A80036; stroke-width: 1.5;"/><rect fill="#0000FF" filter="url(#f1)" height="28" style="stroke: #A80036; stroke-width: 1.0;" width="10" x="290" y="158.3125"/><rect fill="#00A0FF" filter="url(#f1)" height="28" style="stroke: #A80036; stroke-width: 1.0;" width="10" x="290" y="298.2031"/><rect fill="#00CCFF" filter="url(#f1)" height="65.7031" style="stroke: #A80036; stroke-width: 1.0;" width="10" x="290" y="403.9063"/><rect fill="#30DDFF" filter="url(#f1)" height="28" style="stroke: #A80036; stroke-width: 1.0;" width="10" x="290" y="553.9883"/><rect fill="#00CCFF" filter="url(#f1)" height="65.7031" style="stroke: #A80036; stroke-width: 1.0;" width="10" x="506" y="403.9063"/><polygon fill="#A80036" points="283,90.6094,293,94.6094,283,98.6094,287,94.6094" style="stroke: #A80036; stroke-width: 1.0;"/><line style="stroke: #A80036; stroke-width: 1.0;" x1="96" x2="289" y1="94.6094" y2="94.6094"/><text fill="#000000" font-family="sans-serif" font-size="13" font-weight="bold" lengthAdjust="spacingAndGlyphs" textLength="7" x="103" y="90.1045">1</text><text fill="#000000" font-family="sans-serif" font-size="13" lengthAdjust="spacingAndGlyphs" textLength="164" x="114" y="90.1045">Builder CSQLite_Local_DB()</text><rect fill="none" height="531.4063" style="stroke: #000000; stroke-width: 2.0;" width="619" x="13" y="109.9609"/><polygon fill="#EEEEEE" points="13,109.9609,74,109.9609,74,117.9609,64,127.9609,13,127.9609,13,109.9609" style="stroke: #000000; stroke-width: 2.0;"/><text fill="#000000" font-family="sans-serif" font-size="13" font-weight="bold" lengthAdjust="spacingAndGlyphs" textLength="16" x="28" y="124.4561">alt</text><text fill="#000000" font-family="sans-serif" font-size="11" font-weight="bold" lengthAdjust="spacingAndGlyphs" textLength="115" x="89" y="123.3799">[database file exsist]</text><line style="stroke: #A80036; stroke-width: 1.0;" x1="300" x2="342" y1="150.6641" y2="150.6641"/><line style="stroke: #A80036; stroke-width: 1.0;" x1="342" x2="342" y1="150.6641" y2="163.6641"/><line style="stroke: #A80036; stroke-width: 1.0;" x1="301" x2="342" y1="163.6641" y2="163.6641"/><polygon fill="#A80036" points="311,159.6641,301,163.6641,311,167.6641,307,163.6641" style="stroke: #A80036; stroke-width: 1.0;"/><text fill="#000000" font-family="sans-serif" font-size="13" font-weight="bold" lengthAdjust="spacingAndGlyphs" textLength="7" x="307" y="145.8076">2</text><text fill="#000000" font-family="sans-serif" font-size="13" lengthAdjust="spacingAndGlyphs" textLength="81" x="318" y="145.8076">Connect_DB()</text><line style="stroke: #000000; stroke-width: 1.0; stroke-dasharray: 2.0,2.0;" x1="13" x2="632" y1="202.6641" y2="202.6641"/><text fill="#000000" font-family="sans-serif" font-size="11" font-weight="bold" lengthAdjust="spacingAndGlyphs" textLength="136" x="18" y="214.083">[database file not exsist]</text><rect fill="none" height="260.4609" style="stroke: #000000; stroke-width: 2.0;" width="417" x="205" y="224.5"/><polygon fill="#EEEEEE" points="205,224.5,266,224.5,266,232.5,256,242.5,205,242.5,205,224.5" style="stroke: #000000; stroke-width: 2.0;"/><text fill="#000000" font-family="sans-serif" font-size="13" font-weight="bold" lengthAdjust="spacingAndGlyphs" textLength="16" x="220" y="238.9951">alt</text><text fill="#000000" font-family="sans-serif" font-size="11" font-weight="bold" lengthAdjust="spacingAndGlyphs" textLength="101" x="281" y="237.9189">[SQL files exsists]</text><rect fill="none" height="91.7031" style="stroke: #000000; stroke-width: 2.0;" width="196" x="215" y="249.8516"/><polygon fill="#EEEEEE" points="215,249.8516,276,249.8516,276,257.8516,266,267.8516,215,267.8516,215,249.8516" style="stroke: #000000; stroke-width: 2.0;"/><text fill="#000000" font-family="sans-serif" font-size="13" font-weight="bold" lengthAdjust="spacingAndGlyphs" textLength="16" x="230" y="264.3467">alt</text><text fill="#000000" font-family="sans-serif" font-size="11" font-weight="bold" lengthAdjust="spacingAndGlyphs" textLength="79" x="291" y="263.2705">[SQL save file]</text><line style="stroke: #A80036; stroke-width: 1.0;" x1="300" x2="342" y1="290.5547" y2="290.5547"/><line style="stroke: #A80036; stroke-width: 1.0;" x1="342" x2="342" y1="290.5547" y2="303.5547"/><line style="stroke: #A80036; stroke-width: 1.0;" x1="301" x2="342" y1="303.5547" y2="303.5547"/><polygon fill="#A80036" points="311,299.5547,301,303.5547,311,307.5547,307,303.5547" style="stroke: #A80036; stroke-width: 1.0;"/><text fill="#000000" font-family="sans-serif" font-size="13" font-weight="bold" lengthAdjust="spacingAndGlyphs" textLength="7" x="307" y="285.6982">3</text><text fill="#000000" font-family="sans-serif" font-size="13" lengthAdjust="spacingAndGlyphs" textLength="81" x="318" y="285.6982">Connect_DB()</text><rect fill="none" height="122.4063" style="stroke: #000000; stroke-width: 2.0;" width="397" x="215" y="355.5547"/><polygon fill="#EEEEEE" points="215,355.5547,276,355.5547,276,363.5547,266,373.5547,215,373.5547,215,355.5547" style="stroke: #000000; stroke-width: 2.0;"/><text fill="#000000" font-family="sans-serif" font-size="13" font-weight="bold" lengthAdjust="spacingAndGlyphs" textLength="16" x="230" y="370.0498">alt</text><text fill="#000000" font-family="sans-serif" font-size="11" font-weight="bold" lengthAdjust="spacingAndGlyphs" textLength="140" x="291" y="368.9736">[SQL build database files]</text><line style="stroke: #A80036; stroke-width: 1.0;" x1="295" x2="342" y1="391.2578" y2="391.2578"/><line style="stroke: #A80036; stroke-width: 1.0;" x1="342" x2="342" y1="391.2578" y2="404.2578"/><line style="stroke: #A80036; stroke-width: 1.0;" x1="301" x2="342" y1="404.2578" y2="404.2578"/><polygon fill="#A80036" points="311,400.2578,301,404.2578,311,408.2578,307,404.2578" style="stroke: #A80036; stroke-width: 1.0;"/><text fill="#000000" font-family="sans-serif" font-size="13" font-weight="bold" lengthAdjust="spacingAndGlyphs" textLength="7" x="307" y="386.4014">4</text><text fill="#000000" font-family="sans-serif" font-size="13" lengthAdjust="spacingAndGlyphs" textLength="191" x="318" y="386.4014">DatabaseManager(LOAD_SAVE)</text><polygon fill="#FBFB77" filter="url(#f1)" points="521,380.4063,521,406.4063,598,406.4063,598,390.4063,588,380.4063,521,380.4063" style="stroke: #A80036; stroke-width: 1.0;"/><line style="stroke: #A80036; stroke-width: 1.0;" x1="588" x2="588" y1="380.4063" y2="390.4063"/><line style="stroke: #A80036; stroke-width: 1.0;" x1="598" x2="588" y1="390.4063" y2="390.4063"/><text fill="#000000" font-family="sans-serif" font-size="13" lengthAdjust="spacingAndGlyphs" textLength="56" x="527" y="398.9014">No thread</text><polygon fill="#A80036" points="494,435.2578,504,439.2578,494,443.2578,498,439.2578" style="stroke: #A80036; stroke-width: 1.0;"/><line style="stroke: #A80036; stroke-width: 1.0; stroke-dasharray: 2.0,2.0;" x1="300" x2="500" y1="439.2578" y2="439.2578"/><text fill="#000000" font-family="sans-serif" font-size="13" font-weight="bold" lengthAdjust="spacingAndGlyphs" textLength="7" x="307" y="434.7529">5</text><text fill="#000000" font-family="sans-serif" font-size="13" lengthAdjust="spacingAndGlyphs" textLength="0" x="322" y="434.7529"/><polygon fill="#A80036" points="306,465.6094,296,469.6094,306,473.6094,302,469.6094" style="stroke: #A80036; stroke-width: 1.0;"/><line style="stroke: #A80036; stroke-width: 1.0; stroke-dasharray: 2.0,2.0;" x1="300" x2="510" y1="469.6094" y2="469.6094"/><text fill="#000000" font-family="sans-serif" font-size="13" font-weight="bold" lengthAdjust="spacingAndGlyphs" textLength="7" x="312" y="465.1045">6</text><text fill="#000000" font-family="sans-serif" font-size="13" lengthAdjust="spacingAndGlyphs" textLength="0" x="327" y="465.1045"/><rect fill="none" height="135.4063" style="stroke: #000000; stroke-width: 2.0;" width="556" x="23" y="498.9609"/><polygon fill="#EEEEEE" points="23,498.9609,84,498.9609,84,506.9609,74,516.9609,23,516.9609,23,498.9609" style="stroke: #000000; stroke-width: 2.0;"/><text fill="#000000" font-family="sans-serif" font-size="13" font-weight="bold" lengthAdjust="spacingAndGlyphs" textLength="16" x="38" y="513.4561">alt</text><text fill="#000000" font-family="sans-serif" font-size="11" font-weight="bold" lengthAdjust="spacingAndGlyphs" textLength="187" x="99" y="512.3799">[No SQL files and No database file]</text><line style="stroke: #A80036; stroke-width: 1.0;" x1="300" x2="342" y1="546.3398" y2="546.3398"/><line style="stroke: #A80036; stroke-width: 1.0;" x1="342" x2="342" y1="546.3398" y2="559.3398"/><line style="stroke: #A80036; stroke-width: 1.0;" x1="301" x2="342" y1="559.3398" y2="559.3398"/><polygon fill="#A80036" points="311,555.3398,301,559.3398,311,563.3398,307,559.3398" style="stroke: #A80036; stroke-width: 1.0;"/><text fill="#000000" font-family="sans-serif" font-size="13" font-weight="bold" lengthAdjust="spacingAndGlyphs" textLength="7" x="307" y="541.4834">7</text><text fill="#000000" font-family="sans-serif" font-size="13" lengthAdjust="spacingAndGlyphs" textLength="126" x="318" y="541.4834">Database_Not_Ready</text><polygon fill="#FBFB77" filter="url(#f1)" points="456,522.3125,456,564.3125,565,564.3125,565,532.3125,555,522.3125,456,522.3125" style="stroke: #A80036; stroke-width: 1.0;"/><line style="stroke: #A80036; stroke-width: 1.0;" x1="555" x2="555" y1="522.3125" y2="532.3125"/><line style="stroke: #A80036; stroke-width: 1.0;" x1="565" x2="555" y1="532.3125" y2="532.3125"/><text fill="#000000" font-family="sans-serif" font-size="13" lengthAdjust="spacingAndGlyphs" textLength="72" x="462" y="540.8076">Bool used in</text><text fill="#000000" font-family="sans-serif" font-size="13" lengthAdjust="spacingAndGlyphs" textLength="84" x="466" y="557.1592">all of the class</text><polygon fill="#A80036" points="107,622.0156,97,626.0156,107,630.0156,103,626.0156" style="stroke: #A80036; stroke-width: 1.0;"/><line style="stroke: #A80036; stroke-width: 1.0; stroke-dasharray: 2.0,2.0;" x1="101" x2="294" y1="626.0156" y2="626.0156"/><text fill="#000000" font-family="sans-serif" font-size="13" font-weight="bold" lengthAdjust="spacingAndGlyphs" textLength="7" x="113" y="621.5107">8</text><text fill="#000000" font-family="sans-serif" font-size="13" lengthAdjust="spacingAndGlyphs" textLength="54" x="124" y="621.5107">fatal error</text></g></svg>