<?xml version="1.0" encoding="UTF-8" standalone="yes"?><svg xmlns="http://www.w3.org/2000/svg" xmlns:xlink="http://www.w3.org/1999/xlink" height="463px" style="width:701px;height:463px;" version="1.1" viewBox="0 0 701 463" width="701px"><defs><filter height="300%" id="f1" width="300%" x="-1" y="-1"><feGaussianBlur result="blurOut" stdDeviation="2.0"/><feColorMatrix in="blurOut" result="blurOut2" type="matrix" values="0 0 0 0 0 0 0 0 0 0 0 0 0 0 0 0 0 0 .4 0"/><feOffset dx="4.0" dy="4.0" in="blurOut2" result="blurOut3"/><feBlend in="SourceGraphic" in2="blurOut3" mode="normal"/></filter></defs><g><rect fill="#FFFFFF" filter="url(#f1)" height="271.1641" style="stroke: #000000; stroke-width: 2.0;" width="679.5" x="13" y="109.9609"/><rect fill="#FFFFFF" filter="url(#f1)" height="176.1094" style="stroke: #000000; stroke-width: 2.0;" width="659.5" x="23" y="165.6641"/><rect fill="#FFFFFF" filter="url(#f1)" height="81.0547" style="stroke: #000000; stroke-width: 2.0;" width="371" x="33" y="221.3672"/><rect fill="#FFFFFF" height="32.3516" style="stroke: none; stroke-width: 1.0;" width="371" x="33" y="270.0703"/><rect fill="#FFFFFF" height="32.3516" style="stroke: none; stroke-width: 1.0;" width="659.5" x="23" y="309.4219"/><rect fill="#FFFFFF" height="32.3516" style="stroke: none; stroke-width: 1.0;" width="679.5" x="13" y="348.7734"/><line style="stroke: #A80036; stroke-width: 1.0; stroke-dasharray: 5.0,5.0;" x1="106" x2="106" y1="62.6094" y2="398.125"/><line style="stroke: #A80036; stroke-width: 1.0; stroke-dasharray: 5.0,5.0;" x1="324" x2="324" y1="62.6094" y2="398.125"/><line style="stroke: #A80036; stroke-width: 1.0; stroke-dasharray: 5.0,5.0;" x1="625.5" x2="625.5" y1="62.6094" y2="398.125"/><rect fill="#FEFECE" filter="url(#f1)" height="31.6094" style="stroke: #A80036; stroke-width: 1.5;" width="122" x="43" y="26"/><text fill="#000000" font-family="sans-serif" font-size="14" lengthAdjust="spacingAndGlyphs" textLength="108" x="50" y="47.5332">ConsoleWindows</text><rect fill="#FEFECE" filter="url(#f1)" height="31.6094" style="stroke: #A80036; stroke-width: 1.5;" width="122" x="43" y="397.125"/><text fill="#000000" font-family="sans-serif" font-size="14" lengthAdjust="spacingAndGlyphs" textLength="108" x="50" y="418.6582">ConsoleWindows</text><rect fill="#FEFECE" filter="url(#f1)" height="31.6094" style="stroke: #A80036; stroke-width: 1.5;" width="136" x="254" y="26"/><text fill="#000000" font-family="sans-serif" font-size="14" lengthAdjust="spacingAndGlyphs" textLength="122" x="261" y="47.5332">CSQLite_Local_DB</text><rect fill="#FEFECE" filter="url(#f1)" height="31.6094" style="stroke: #A80036; stroke-width: 1.5;" width="136" x="254" y="397.125"/><text fill="#000000" font-family="sans-serif" font-size="14" lengthAdjust="spacingAndGlyphs" textLength="122" x="261" y="418.6582">CSQLite_Local_DB</text><text fill="#000000" font-family="sans-serif" font-size="14" lengthAdjust="spacingAndGlyphs" textLength="87" x="579.5" y="59.5332">LC_Database</text><path d="M608,13 C608,3 626,3 626,3 C626,3 644,3 644,13 L644,35 C644,45 626,45 626,45 C626,45 608,45 608,35 L608,13 " fill="#FEFECE" filter="url(#f1)" style="stroke: #A80036; stroke-width: 1.5;"/><path d="M608,13 C608,23 626,23 626,23 C626,23 644,23 644,13 " fill="none" style="stroke: #A80036; stroke-width: 1.5;"/><text fill="#000000" font-family="sans-serif" font-size="14" lengthAdjust="spacingAndGlyphs" textLength="87" x="579.5" y="411.6582">LC_Database</text><path d="M608,424.7344 C608,414.7344 626,414.7344 626,414.7344 C626,414.7344 644,414.7344 644,424.7344 L644,446.7344 C644,456.7344 626,456.7344 626,456.7344 C626,456.7344 608,456.7344 608,446.7344 L608,424.7344 " fill="#FEFECE" filter="url(#f1)" style="stroke: #A80036; stroke-width: 1.5;"/><path d="M608,424.7344 C608,434.7344 626,434.7344 626,434.7344 C626,434.7344 644,434.7344 644,424.7344 " fill="none" style="stroke: #A80036; stroke-width: 1.5;"/><polygon fill="#A80036" points="312,90.6094,322,94.6094,312,98.6094,316,94.6094" style="stroke: #A80036; stroke-width: 1.0;"/><line style="stroke: #A80036; stroke-width: 1.0;" x1="106" x2="318" y1="94.6094" y2="94.6094"/><text fill="#000000" font-family="sans-serif" font-size="13" font-weight="bold" lengthAdjust="spacingAndGlyphs" textLength="7" x="113" y="90.1045">1</text><text fill="#000000" font-family="sans-serif" font-size="13" lengthAdjust="spacingAndGlyphs" textLength="117" x="124" y="90.1045">CheckExtractCode()</text><rect fill="none" height="271.1641" style="stroke: #000000; stroke-width: 2.0;" width="679.5" x="13" y="109.9609"/><polygon fill="#EEEEEE" points="13,109.9609,74,109.9609,74,117.9609,64,127.9609,13,127.9609,13,109.9609" style="stroke: #000000; stroke-width: 2.0;"/><text fill="#000000" font-family="sans-serif" font-size="13" font-weight="bold" lengthAdjust="spacingAndGlyphs" textLength="16" x="28" y="124.4561">alt</text><text fill="#000000" font-family="sans-serif" font-size="11" font-weight="bold" lengthAdjust="spacingAndGlyphs" textLength="105" x="89" y="123.3799">[Database is ready]</text><polygon fill="#A80036" points="614,146.3125,624,150.3125,614,154.3125,618,150.3125" style="stroke: #A80036; stroke-width: 1.0;"/><line style="stroke: #A80036; stroke-width: 1.0;" x1="324" x2="620" y1="150.3125" y2="150.3125"/><text fill="#000000" font-family="sans-serif" font-size="13" font-weight="bold" lengthAdjust="spacingAndGlyphs" textLength="7" x="331" y="145.8076">2</text><text fill="#000000" font-family="sans-serif" font-size="13" lengthAdjust="spacingAndGlyphs" textLength="212" x="342" y="145.8076">SQL_Query(SELECT idExtractCode)</text><rect fill="none" height="176.1094" style="stroke: #000000; stroke-width: 2.0;" width="659.5" x="23" y="165.6641"/><polygon fill="#EEEEEE" points="23,165.6641,84,165.6641,84,173.6641,74,183.6641,23,183.6641,23,165.6641" style="stroke: #000000; stroke-width: 2.0;"/><text fill="#000000" font-family="sans-serif" font-size="13" font-weight="bold" lengthAdjust="spacingAndGlyphs" textLength="16" x="38" y="180.1592">alt</text><text fill="#000000" font-family="sans-serif" font-size="11" font-weight="bold" lengthAdjust="spacingAndGlyphs" textLength="119" x="99" y="179.083">[SQL_Query success]</text><polygon fill="#A80036" points="614,202.0156,624,206.0156,614,210.0156,618,206.0156" style="stroke: #A80036; stroke-width: 1.0;"/><line style="stroke: #A80036; stroke-width: 1.0;" x1="324" x2="620" y1="206.0156" y2="206.0156"/><text fill="#000000" font-family="sans-serif" font-size="13" font-weight="bold" lengthAdjust="spacingAndGlyphs" textLength="7" x="331" y="201.5107">3</text><text fill="#000000" font-family="sans-serif" font-size="13" lengthAdjust="spacingAndGlyphs" textLength="267" x="342" y="201.5107">SQL_Query(SELECT ExtractCodeExpiryTime)</text><rect fill="none" height="81.0547" style="stroke: #000000; stroke-width: 2.0;" width="371" x="33" y="221.3672"/><polygon fill="#EEEEEE" points="33,221.3672,94,221.3672,94,229.3672,84,239.3672,33,239.3672,33,221.3672" style="stroke: #000000; stroke-width: 2.0;"/><text fill="#000000" font-family="sans-serif" font-size="13" font-weight="bold" lengthAdjust="spacingAndGlyphs" textLength="16" x="48" y="235.8623">alt</text><text fill="#000000" font-family="sans-serif" font-size="11" font-weight="bold" lengthAdjust="spacingAndGlyphs" textLength="234" x="109" y="234.7861">[ExtractCodeExpiryTime &gt; TimeStampNow]</text><polygon fill="#A80036" points="117,257.7188,107,261.7188,117,265.7188,113,261.7188" style="stroke: #A80036; stroke-width: 1.0;"/><line style="stroke: #A80036; stroke-width: 1.0; stroke-dasharray: 2.0,2.0;" x1="111" x2="323" y1="261.7188" y2="261.7188"/><text fill="#000000" font-family="sans-serif" font-size="13" font-weight="bold" lengthAdjust="spacingAndGlyphs" textLength="7" x="123" y="257.2139">4</text><text fill="#000000" font-family="sans-serif" font-size="13" lengthAdjust="spacingAndGlyphs" textLength="183" x="134" y="257.2139">1 ExtractCode exist and is valid</text><line style="stroke: #000000; stroke-width: 1.0; stroke-dasharray: 2.0,2.0;" x1="33" x2="404" y1="271.0703" y2="271.0703"/><polygon fill="#A80036" points="117,290.0703,107,294.0703,117,298.0703,113,294.0703" style="stroke: #A80036; stroke-width: 1.0;"/><line style="stroke: #A80036; stroke-width: 1.0; stroke-dasharray: 2.0,2.0;" x1="111" x2="323" y1="294.0703" y2="294.0703"/><text fill="#000000" font-family="sans-serif" font-size="13" font-weight="bold" lengthAdjust="spacingAndGlyphs" textLength="7" x="123" y="289.5654">5</text><text fill="#000000" font-family="sans-serif" font-size="13" lengthAdjust="spacingAndGlyphs" textLength="125" x="134" y="289.5654">ExtractCode is invalid</text><line style="stroke: #000000; stroke-width: 1.0; stroke-dasharray: 2.0,2.0;" x1="23" x2="682.5" y1="310.4219" y2="310.4219"/><polygon fill="#A80036" points="117,329.4219,107,333.4219,117,337.4219,113,333.4219" style="stroke: #A80036; stroke-width: 1.0;"/><line style="stroke: #A80036; stroke-width: 1.0; stroke-dasharray: 2.0,2.0;" x1="111" x2="323" y1="333.4219" y2="333.4219"/><text fill="#000000" font-family="sans-serif" font-size="13" font-weight="bold" lengthAdjust="spacingAndGlyphs" textLength="7" x="123" y="328.917">6</text><text fill="#000000" font-family="sans-serif" font-size="13" lengthAdjust="spacingAndGlyphs" textLength="153" x="134" y="328.917">-1 no database connection</text><line style="stroke: #000000; stroke-width: 1.0; stroke-dasharray: 2.0,2.0;" x1="13" x2="692.5" y1="349.7734" y2="349.7734"/><polygon fill="#A80036" points="117,368.7734,107,372.7734,117,376.7734,113,372.7734" style="stroke: #A80036; stroke-width: 1.0;"/><line style="stroke: #A80036; stroke-width: 1.0; stroke-dasharray: 2.0,2.0;" x1="111" x2="323" y1="372.7734" y2="372.7734"/><text fill="#000000" font-family="sans-serif" font-size="13" font-weight="bold" lengthAdjust="spacingAndGlyphs" textLength="7" x="123" y="368.2686">7</text><text fill="#000000" font-family="sans-serif" font-size="13" lengthAdjust="spacingAndGlyphs" textLength="153" x="134" y="368.2686">-1 no database connection</text></g></svg>