<?xml version="1.0" encoding="UTF-8" standalone="no"?>
<!DOCTYPE svg PUBLIC "-//W3C//DTD SVG 1.1//EN"
 "http://www.w3.org/Graphics/SVG/1.1/DTD/svg11.dtd">
<!-- Generated by graphviz version 2.38.0 (20140413.2041)
 -->
<!-- Title: S:/QT_CREATOR/Locker_Control/csqlite_local_db.h Pages: 1 -->
<svg width="550pt" height="192pt"
 viewBox="0.00 0.00 549.82 192.00" xmlns="http://www.w3.org/2000/svg" xmlns:xlink="http://www.w3.org/1999/xlink">
<g id="graph0" class="graph" transform="scale(1 1) rotate(0) translate(4 188)">
<title>S:/QT_CREATOR/Locker_Control/csqlite_local_db.h</title>
<!-- Node1 -->
<g id="node1" class="node"><title>Node1</title>
<polygon fill="#bfbfbf" stroke="black" points="250.82,-159.5 250.82,-183.5 351.82,-183.5 351.82,-159.5 250.82,-159.5"/>
<text text-anchor="start" x="258.82" y="-173.9" font-family="Helvetica,sans-Serif" font-size="7.00">S:/QT_CREATOR/Locker</text>
<text text-anchor="middle" x="301.32" y="-165.9" font-family="Helvetica,sans-Serif" font-size="7.00">_Control/csqlite_local_db.h</text>
</g>
<!-- Node2 -->
<g id="node2" class="node"><title>Node2</title>
<polygon fill="none" stroke="#bfbfbf" points="208.32,-0.5 208.32,-16.5 248.32,-16.5 248.32,-0.5 208.32,-0.5"/>
<text text-anchor="middle" x="228.32" y="-6.9" font-family="Helvetica,sans-Serif" font-size="7.00">QString</text>
</g>
<!-- Node1&#45;&gt;Node2 -->
<g id="edge1" class="edge"><title>Node1&#45;&gt;Node2</title>
<path fill="none" stroke="midnightblue" d="M250.785,-169.776C176.01,-167.513 41.4614,-158.48 11.3204,-123 -44.7098,-57.0458 125.552,-24.2181 197.671,-13.5351"/>
<polygon fill="midnightblue" stroke="midnightblue" points="198.554,-16.9445 207.958,-12.0635 197.563,-10.015 198.554,-16.9445"/>
</g>
<!-- Node3 -->
<g id="node3" class="node"><title>Node3</title>
<polygon fill="none" stroke="#bfbfbf" points="20.8204,-106.5 20.8204,-122.5 101.82,-122.5 101.82,-106.5 20.8204,-106.5"/>
<text text-anchor="middle" x="61.3204" y="-112.9" font-family="Helvetica,sans-Serif" font-size="7.00">QtSql/QSqlDatabase</text>
</g>
<!-- Node1&#45;&gt;Node3 -->
<g id="edge2" class="edge"><title>Node1&#45;&gt;Node3</title>
<path fill="none" stroke="midnightblue" d="M253.042,-159.436C208.655,-149.264 143.591,-134.354 101.844,-124.787"/>
<polygon fill="midnightblue" stroke="midnightblue" points="102.547,-121.357 92.0181,-122.535 100.984,-128.18 102.547,-121.357"/>
</g>
<!-- Node4 -->
<g id="node4" class="node"><title>Node4</title>
<polygon fill="none" stroke="#bfbfbf" points="119.82,-106.5 119.82,-122.5 190.82,-122.5 190.82,-106.5 119.82,-106.5"/>
<text text-anchor="middle" x="155.32" y="-112.9" font-family="Helvetica,sans-Serif" font-size="7.00">QtSql/QSqlDriver</text>
</g>
<!-- Node1&#45;&gt;Node4 -->
<g id="edge3" class="edge"><title>Node1&#45;&gt;Node4</title>
<path fill="none" stroke="midnightblue" d="M271.775,-159.37C246.03,-149.671 208.946,-135.701 183.585,-126.148"/>
<polygon fill="midnightblue" stroke="midnightblue" points="184.752,-122.847 174.16,-122.597 182.284,-129.398 184.752,-122.847"/>
</g>
<!-- Node5 -->
<g id="node5" class="node"><title>Node5</title>
<polygon fill="none" stroke="#bfbfbf" points="208.82,-106.5 208.82,-122.5 259.82,-122.5 259.82,-106.5 208.82,-106.5"/>
<text text-anchor="middle" x="234.32" y="-112.9" font-family="Helvetica,sans-Serif" font-size="7.00">QSqlQuery</text>
</g>
<!-- Node1&#45;&gt;Node5 -->
<g id="edge4" class="edge"><title>Node1&#45;&gt;Node5</title>
<path fill="none" stroke="midnightblue" d="M287.762,-159.37C277.158,-150.665 262.363,-138.52 251.028,-129.215"/>
<polygon fill="midnightblue" stroke="midnightblue" points="253.111,-126.397 243.161,-122.757 248.67,-131.808 253.111,-126.397"/>
</g>
<!-- Node6 -->
<g id="node6" class="node"><title>Node6</title>
<polygon fill="none" stroke="#bfbfbf" points="277.82,-106.5 277.82,-122.5 324.82,-122.5 324.82,-106.5 277.82,-106.5"/>
<text text-anchor="middle" x="301.32" y="-112.9" font-family="Helvetica,sans-Serif" font-size="7.00">QSqlError</text>
</g>
<!-- Node1&#45;&gt;Node6 -->
<g id="edge5" class="edge"><title>Node1&#45;&gt;Node6</title>
<path fill="none" stroke="midnightblue" d="M301.32,-159.37C301.32,-151.775 301.32,-141.56 301.32,-132.899"/>
<polygon fill="midnightblue" stroke="midnightblue" points="304.821,-132.757 301.32,-122.757 297.821,-132.758 304.821,-132.757"/>
</g>
<!-- Node7 -->
<g id="node7" class="node"><title>Node7</title>
<polygon fill="none" stroke="#bfbfbf" points="342.82,-106.5 342.82,-122.5 375.82,-122.5 375.82,-106.5 342.82,-106.5"/>
<text text-anchor="middle" x="359.32" y="-112.9" font-family="Helvetica,sans-Serif" font-size="7.00">QFile</text>
</g>
<!-- Node1&#45;&gt;Node7 -->
<g id="edge6" class="edge"><title>Node1&#45;&gt;Node7</title>
<path fill="none" stroke="midnightblue" d="M313.058,-159.37C322.057,-150.836 334.544,-138.995 344.276,-129.766"/>
<polygon fill="midnightblue" stroke="midnightblue" points="346.819,-132.178 351.667,-122.757 342.003,-127.099 346.819,-132.178"/>
</g>
<!-- Node8 -->
<g id="node8" class="node"><title>Node8</title>
<polygon fill="none" stroke="#bfbfbf" points="394.32,-106.5 394.32,-122.5 436.32,-122.5 436.32,-106.5 394.32,-106.5"/>
<text text-anchor="middle" x="415.32" y="-112.9" font-family="Helvetica,sans-Serif" font-size="7.00">QObject</text>
</g>
<!-- Node1&#45;&gt;Node8 -->
<g id="edge7" class="edge"><title>Node1&#45;&gt;Node8</title>
<path fill="none" stroke="midnightblue" d="M324.39,-159.37C343.87,-149.972 371.663,-136.563 391.385,-127.048"/>
<polygon fill="midnightblue" stroke="midnightblue" points="393.125,-130.095 400.61,-122.597 390.083,-123.79 393.125,-130.095"/>
</g>
<!-- Node9 -->
<g id="node9" class="node"><title>Node9</title>
<g id="a_node9"><a xlink:href="_data_structures_8h.html" target="_top" xlink:title="Definnitions des formats de communications des données entre les classes de l&#39;application LC...">
<polygon fill="none" stroke="red" points="429.32,-53.5 429.32,-69.5 499.32,-69.5 499.32,-53.5 429.32,-53.5"/>
<text text-anchor="middle" x="464.32" y="-59.9" font-family="Helvetica,sans-Serif" font-size="7.00">DataStructures.h</text>
</a>
</g>
</g>
<!-- Node1&#45;&gt;Node9 -->
<g id="edge8" class="edge"><title>Node1&#45;&gt;Node9</title>
<path fill="none" stroke="midnightblue" d="M352.081,-165.409C382.834,-159.781 420.741,-147.934 445.32,-123 456.678,-111.478 461.257,-93.2487 463.097,-79.8088"/>
<polygon fill="midnightblue" stroke="midnightblue" points="466.614,-79.815 464.111,-69.5199 459.647,-79.1286 466.614,-79.815"/>
</g>
<!-- Node10 -->
<g id="node10" class="node"><title>Node10</title>
<g id="a_node10"><a xlink:href="clms__db_8h.html" target="_top" xlink:title="clms_db.h">
<polygon fill="none" stroke="black" points="492.82,-106.5 492.82,-122.5 541.82,-122.5 541.82,-106.5 492.82,-106.5"/>
<text text-anchor="middle" x="517.32" y="-112.9" font-family="Helvetica,sans-Serif" font-size="7.00">clms_db.h</text>
</a>
</g>
</g>
<!-- Node1&#45;&gt;Node10 -->
<g id="edge10" class="edge"><title>Node1&#45;&gt;Node10</title>
<path fill="none" stroke="midnightblue" d="M344.771,-159.436C385.423,-149.085 445.346,-133.827 482.815,-124.286"/>
<polygon fill="midnightblue" stroke="midnightblue" points="483.926,-127.615 492.753,-121.756 482.199,-120.831 483.926,-127.615"/>
</g>
<!-- Node9&#45;&gt;Node2 -->
<g id="edge9" class="edge"><title>Node9&#45;&gt;Node2</title>
<path fill="none" stroke="midnightblue" d="M431.506,-53.4087C385.542,-43.4759 302.657,-25.5642 258.282,-15.9747"/>
<polygon fill="midnightblue" stroke="midnightblue" points="258.904,-12.5285 248.391,-13.8372 257.426,-19.3706 258.904,-12.5285"/>
</g>
<!-- Node10&#45;&gt;Node9 -->
<g id="edge11" class="edge"><title>Node10&#45;&gt;Node9</title>
<path fill="none" stroke="midnightblue" d="M509.951,-106.409C501.961,-98.7203 489.003,-86.2513 478.934,-76.5617"/>
<polygon fill="midnightblue" stroke="midnightblue" points="481.26,-73.9429 471.627,-69.5311 476.406,-78.9869 481.26,-73.9429"/>
</g>
</g>
</svg>
