<?xml version="1.0" encoding="UTF-8" standalone="yes"?><svg xmlns="http://www.w3.org/2000/svg" xmlns:xlink="http://www.w3.org/1999/xlink" height="523px" style="width:711px;height:523px;" version="1.1" viewBox="0 0 711 523" width="711px"><defs><filter height="300%" id="f1" width="300%" x="-1" y="-1"><feGaussianBlur result="blurOut" stdDeviation="2.0"/><feColorMatrix in="blurOut" result="blurOut2" type="matrix" values="0 0 0 0 0 0 0 0 0 0 0 0 0 0 0 0 0 0 .4 0"/><feOffset dx="4.0" dy="4.0" in="blurOut2" result="blurOut3"/><feBlend in="SourceGraphic" in2="blurOut3" mode="normal"/></filter></defs><g><rect fill="#AABBFF" filter="url(#f1)" height="338.1641" style="stroke: #A80036; stroke-width: 1.0;" width="10" x="324" y="94.6094"/><rect fill="#AADDFF" filter="url(#f1)" height="30" style="stroke: #A80036; stroke-width: 1.0;" width="10" x="631" y="150.3125"/><rect fill="#AADDFF" filter="url(#f1)" height="30" style="stroke: #A80036; stroke-width: 1.0;" width="10" x="631" y="236.0156"/><rect fill="#FFFFFF" filter="url(#f1)" height="331.1641" style="stroke: #000000; stroke-width: 2.0;" width="689.5" x="13" y="109.9609"/><rect fill="#FFFFFF" filter="url(#f1)" height="206.1094" style="stroke: #000000; stroke-width: 2.0;" width="669.5" x="23" y="195.6641"/><rect fill="#FFFFFF" filter="url(#f1)" height="81.0547" style="stroke: #000000; stroke-width: 2.0;" width="376" x="33" y="281.3672"/><rect fill="#FFFFFF" height="32.3516" style="stroke: none; stroke-width: 1.0;" width="376" x="33" y="330.0703"/><rect fill="#FFFFFF" height="32.3516" style="stroke: none; stroke-width: 1.0;" width="669.5" x="23" y="369.4219"/><rect fill="#FFFFFF" height="32.3516" style="stroke: none; stroke-width: 1.0;" width="689.5" x="13" y="408.7734"/><line style="stroke: #A80036; stroke-width: 1.0; stroke-dasharray: 5.0,5.0;" x1="106" x2="106" y1="62.6094" y2="458.125"/><line style="stroke: #A80036; stroke-width: 1.0; stroke-dasharray: 5.0,5.0;" x1="329" x2="329" y1="62.6094" y2="458.125"/><line style="stroke: #A80036; stroke-width: 1.0; stroke-dasharray: 5.0,5.0;" x1="635.5" x2="635.5" y1="62.6094" y2="458.125"/><rect fill="#FEFECE" filter="url(#f1)" height="31.6094" style="stroke: #A80036; stroke-width: 1.5;" width="122" x="43" y="26"/><text fill="#000000" font-family="sans-serif" font-size="14" lengthAdjust="spacingAndGlyphs" textLength="108" x="50" y="47.5332">ConsoleWindows</text><rect fill="#FEFECE" filter="url(#f1)" height="31.6094" style="stroke: #A80036; stroke-width: 1.5;" width="122" x="43" y="457.125"/><text fill="#000000" font-family="sans-serif" font-size="14" lengthAdjust="spacingAndGlyphs" textLength="108" x="50" y="478.6582">ConsoleWindows</text><rect fill="#FEFECE" filter="url(#f1)" height="31.6094" style="stroke: #A80036; stroke-width: 1.5;" width="136" x="259" y="26"/><text fill="#000000" font-family="sans-serif" font-size="14" lengthAdjust="spacingAndGlyphs" textLength="122" x="266" y="47.5332">CSQLite_Local_DB</text><rect fill="#FEFECE" filter="url(#f1)" height="31.6094" style="stroke: #A80036; stroke-width: 1.5;" width="136" x="259" y="457.125"/><text fill="#000000" font-family="sans-serif" font-size="14" lengthAdjust="spacingAndGlyphs" textLength="122" x="266" y="478.6582">CSQLite_Local_DB</text><text fill="#000000" font-family="sans-serif" font-size="14" lengthAdjust="spacingAndGlyphs" textLength="87" x="589.5" y="59.5332">LC_Database</text><path d="M618,13 C618,3 636,3 636,3 C636,3 654,3 654,13 L654,35 C654,45 636,45 636,45 C636,45 618,45 618,35 L618,13 " fill="#FEFECE" filter="url(#f1)" style="stroke: #A80036; stroke-width: 1.5;"/><path d="M618,13 C618,23 636,23 636,23 C636,23 654,23 654,13 " fill="none" style="stroke: #A80036; stroke-width: 1.5;"/><text fill="#000000" font-family="sans-serif" font-size="14" lengthAdjust="spacingAndGlyphs" textLength="87" x="589.5" y="471.6582">LC_Database</text><path d="M618,484.7344 C618,474.7344 636,474.7344 636,474.7344 C636,474.7344 654,474.7344 654,484.7344 L654,506.7344 C654,516.7344 636,516.7344 636,516.7344 C636,516.7344 618,516.7344 618,506.7344 L618,484.7344 " fill="#FEFECE" filter="url(#f1)" style="stroke: #A80036; stroke-width: 1.5;"/><path d="M618,484.7344 C618,494.7344 636,494.7344 636,494.7344 C636,494.7344 654,494.7344 654,484.7344 " fill="none" style="stroke: #A80036; stroke-width: 1.5;"/><rect fill="#AABBFF" filter="url(#f1)" height="338.1641" style="stroke: #A80036; stroke-width: 1.0;" width="10" x="324" y="94.6094"/><rect fill="#AADDFF" filter="url(#f1)" height="30" style="stroke: #A80036; stroke-width: 1.0;" width="10" x="631" y="150.3125"/><rect fill="#AADDFF" filter="url(#f1)" height="30" style="stroke: #A80036; stroke-width: 1.0;" width="10" x="631" y="236.0156"/><polygon fill="#A80036" points="312,90.6094,322,94.6094,312,98.6094,316,94.6094" style="stroke: #A80036; stroke-width: 1.0;"/><line style="stroke: #A80036; stroke-width: 1.0;" x1="106" x2="318" y1="94.6094" y2="94.6094"/><text fill="#000000" font-family="sans-serif" font-size="13" font-weight="bold" lengthAdjust="spacingAndGlyphs" textLength="7" x="113" y="90.1045">1</text><text fill="#000000" font-family="sans-serif" font-size="13" lengthAdjust="spacingAndGlyphs" textLength="117" x="124" y="90.1045">CheckExtractCode()</text><rect fill="none" height="331.1641" style="stroke: #000000; stroke-width: 2.0;" width="689.5" x="13" y="109.9609"/><polygon fill="#EEEEEE" points="13,109.9609,74,109.9609,74,117.9609,64,127.9609,13,127.9609,13,109.9609" style="stroke: #000000; stroke-width: 2.0;"/><text fill="#000000" font-family="sans-serif" font-size="13" font-weight="bold" lengthAdjust="spacingAndGlyphs" textLength="16" x="28" y="124.4561">alt</text><text fill="#000000" font-family="sans-serif" font-size="11" font-weight="bold" lengthAdjust="spacingAndGlyphs" textLength="105" x="89" y="123.3799">[Database is ready]</text><polygon fill="#A80036" points="619,146.3125,629,150.3125,619,154.3125,623,150.3125" style="stroke: #A80036; stroke-width: 1.0;"/><line style="stroke: #A80036; stroke-width: 1.0;" x1="334" x2="625" y1="150.3125" y2="150.3125"/><text fill="#000000" font-family="sans-serif" font-size="13" font-weight="bold" lengthAdjust="spacingAndGlyphs" textLength="7" x="341" y="145.8076">2</text><text fill="#000000" font-family="sans-serif" font-size="13" lengthAdjust="spacingAndGlyphs" textLength="212" x="352" y="145.8076">SQL_Query(SELECT idExtractCode)</text><rect fill="none" height="206.1094" style="stroke: #000000; stroke-width: 2.0;" width="669.5" x="23" y="195.6641"/><polygon fill="#EEEEEE" points="23,195.6641,84,195.6641,84,203.6641,74,213.6641,23,213.6641,23,195.6641" style="stroke: #000000; stroke-width: 2.0;"/><text fill="#000000" font-family="sans-serif" font-size="13" font-weight="bold" lengthAdjust="spacingAndGlyphs" textLength="16" x="38" y="210.1592">alt</text><text fill="#000000" font-family="sans-serif" font-size="11" font-weight="bold" lengthAdjust="spacingAndGlyphs" textLength="119" x="99" y="209.083">[SQL_Query success]</text><polygon fill="#A80036" points="619,232.0156,629,236.0156,619,240.0156,623,236.0156" style="stroke: #A80036; stroke-width: 1.0;"/><line style="stroke: #A80036; stroke-width: 1.0;" x1="334" x2="625" y1="236.0156" y2="236.0156"/><text fill="#000000" font-family="sans-serif" font-size="13" font-weight="bold" lengthAdjust="spacingAndGlyphs" textLength="7" x="341" y="231.5107">3</text><text fill="#000000" font-family="sans-serif" font-size="13" lengthAdjust="spacingAndGlyphs" textLength="267" x="352" y="231.5107">SQL_Query(SELECT ExtractCodeExpiryTime)</text><rect fill="none" height="81.0547" style="stroke: #000000; stroke-width: 2.0;" width="376" x="33" y="281.3672"/><polygon fill="#EEEEEE" points="33,281.3672,94,281.3672,94,289.3672,84,299.3672,33,299.3672,33,281.3672" style="stroke: #000000; stroke-width: 2.0;"/><text fill="#000000" font-family="sans-serif" font-size="13" font-weight="bold" lengthAdjust="spacingAndGlyphs" textLength="16" x="48" y="295.8623">alt</text><text fill="#000000" font-family="sans-serif" font-size="11" font-weight="bold" lengthAdjust="spacingAndGlyphs" textLength="234" x="109" y="294.7861">[ExtractCodeExpiryTime &gt; TimeStampNow]</text><polygon fill="#A80036" points="117,317.7188,107,321.7188,117,325.7188,113,321.7188" style="stroke: #A80036; stroke-width: 1.0;"/><line style="stroke: #A80036; stroke-width: 1.0; stroke-dasharray: 2.0,2.0;" x1="111" x2="323" y1="321.7188" y2="321.7188"/><text fill="#000000" font-family="sans-serif" font-size="13" font-weight="bold" lengthAdjust="spacingAndGlyphs" textLength="7" x="123" y="317.2139">4</text><text fill="#000000" font-family="sans-serif" font-size="13" lengthAdjust="spacingAndGlyphs" textLength="183" x="134" y="317.2139">1 ExtractCode exist and is valid</text><line style="stroke: #000000; stroke-width: 1.0; stroke-dasharray: 2.0,2.0;" x1="33" x2="409" y1="331.0703" y2="331.0703"/><polygon fill="#A80036" points="117,350.0703,107,354.0703,117,358.0703,113,354.0703" style="stroke: #A80036; stroke-width: 1.0;"/><line style="stroke: #A80036; stroke-width: 1.0; stroke-dasharray: 2.0,2.0;" x1="111" x2="323" y1="354.0703" y2="354.0703"/><text fill="#000000" font-family="sans-serif" font-size="13" font-weight="bold" lengthAdjust="spacingAndGlyphs" textLength="7" x="123" y="349.5654">5</text><text fill="#000000" font-family="sans-serif" font-size="13" lengthAdjust="spacingAndGlyphs" textLength="125" x="134" y="349.5654">ExtractCode is invalid</text><line style="stroke: #000000; stroke-width: 1.0; stroke-dasharray: 2.0,2.0;" x1="23" x2="692.5" y1="370.4219" y2="370.4219"/><polygon fill="#A80036" points="117,389.4219,107,393.4219,117,397.4219,113,393.4219" style="stroke: #A80036; stroke-width: 1.0;"/><line style="stroke: #A80036; stroke-width: 1.0; stroke-dasharray: 2.0,2.0;" x1="111" x2="323" y1="393.4219" y2="393.4219"/><text fill="#000000" font-family="sans-serif" font-size="13" font-weight="bold" lengthAdjust="spacingAndGlyphs" textLength="7" x="123" y="388.917">6</text><text fill="#000000" font-family="sans-serif" font-size="13" lengthAdjust="spacingAndGlyphs" textLength="153" x="134" y="388.917">-1 no database connection</text><line style="stroke: #000000; stroke-width: 1.0; stroke-dasharray: 2.0,2.0;" x1="13" x2="702.5" y1="409.7734" y2="409.7734"/><polygon fill="#A80036" points="117,428.7734,107,432.7734,117,436.7734,113,432.7734" style="stroke: #A80036; stroke-width: 1.0;"/><line style="stroke: #A80036; stroke-width: 1.0; stroke-dasharray: 2.0,2.0;" x1="111" x2="328" y1="432.7734" y2="432.7734"/><text fill="#000000" font-family="sans-serif" font-size="13" font-weight="bold" lengthAdjust="spacingAndGlyphs" textLength="7" x="123" y="428.2686">7</text><text fill="#000000" font-family="sans-serif" font-size="13" lengthAdjust="spacingAndGlyphs" textLength="153" x="134" y="428.2686">-1 no database connection</text></g></svg>