<?xml version="1.0" encoding="UTF-8" standalone="yes"?><svg xmlns="http://www.w3.org/2000/svg" xmlns:xlink="http://www.w3.org/1999/xlink" height="556px" style="width:644px;height:556px;" version="1.1" viewBox="0 0 644 556" width="644px"><defs><filter height="300%" id="f1" width="300%" x="-1" y="-1"><feGaussianBlur result="blurOut" stdDeviation="2.0"/><feColorMatrix in="blurOut" result="blurOut2" type="matrix" values="0 0 0 0 0 0 0 0 0 0 0 0 0 0 0 0 0 0 .4 0"/><feOffset dx="4.0" dy="4.0" in="blurOut2" result="blurOut3"/><feBlend in="SourceGraphic" in2="blurOut3" mode="normal"/></filter></defs><g><rect fill="#FFFFFF" filter="url(#f1)" height="364.2188" style="stroke: #000000; stroke-width: 2.0;" width="622.5" x="13" y="109.9609"/><rect fill="#FFFFFF" filter="url(#f1)" height="204.4609" style="stroke: #000000; stroke-width: 2.0;" width="389.5" x="236" y="135.3125"/><rect fill="#FFFFFF" filter="url(#f1)" height="48.7031" style="stroke: #000000; stroke-width: 2.0;" width="369.5" x="246" y="160.6641"/><rect fill="#FFFFFF" filter="url(#f1)" height="48.7031" style="stroke: #000000; stroke-width: 2.0;" width="369.5" x="246" y="223.3672"/><rect fill="#FFFFFF" filter="url(#f1)" height="81.0547" style="stroke: #000000; stroke-width: 2.0;" width="383" x="23" y="353.7734"/><rect fill="#FFFFFF" height="32.3516" style="stroke: none; stroke-width: 1.0;" width="383" x="23" y="402.4766"/><rect fill="#FFFFFF" height="32.3516" style="stroke: none; stroke-width: 1.0;" width="622.5" x="13" y="441.8281"/><line style="stroke: #A80036; stroke-width: 1.0; stroke-dasharray: 5.0,5.0;" x1="96" x2="96" y1="62.6094" y2="491.1797"/><line style="stroke: #A80036; stroke-width: 1.0; stroke-dasharray: 5.0,5.0;" x1="326" x2="326" y1="62.6094" y2="491.1797"/><line style="stroke: #A80036; stroke-width: 1.0; stroke-dasharray: 5.0,5.0;" x1="558.5" x2="558.5" y1="62.6094" y2="491.1797"/><rect fill="#FEFECE" filter="url(#f1)" height="31.6094" style="stroke: #A80036; stroke-width: 1.5;" width="122" x="33" y="26"/><text fill="#000000" font-family="sans-serif" font-size="14" lengthAdjust="spacingAndGlyphs" textLength="108" x="40" y="47.5332">ConsoleWindows</text><rect fill="#FEFECE" filter="url(#f1)" height="31.6094" style="stroke: #A80036; stroke-width: 1.5;" width="122" x="33" y="490.1797"/><text fill="#000000" font-family="sans-serif" font-size="14" lengthAdjust="spacingAndGlyphs" textLength="108" x="40" y="511.7129">ConsoleWindows</text><rect fill="#FEFECE" filter="url(#f1)" height="31.6094" style="stroke: #A80036; stroke-width: 1.5;" width="136" x="256" y="26"/><text fill="#000000" font-family="sans-serif" font-size="14" lengthAdjust="spacingAndGlyphs" textLength="122" x="263" y="47.5332">CSQLite_Local_DB</text><rect fill="#FEFECE" filter="url(#f1)" height="31.6094" style="stroke: #A80036; stroke-width: 1.5;" width="136" x="256" y="490.1797"/><text fill="#000000" font-family="sans-serif" font-size="14" lengthAdjust="spacingAndGlyphs" textLength="122" x="263" y="511.7129">CSQLite_Local_DB</text><text fill="#000000" font-family="sans-serif" font-size="14" lengthAdjust="spacingAndGlyphs" textLength="87" x="512.5" y="59.5332">LC_Database</text><path d="M541,13 C541,3 559,3 559,3 C559,3 577,3 577,13 L577,35 C577,45 559,45 559,45 C559,45 541,45 541,35 L541,13 " fill="#FEFECE" filter="url(#f1)" style="stroke: #A80036; stroke-width: 1.5;"/><path d="M541,13 C541,23 559,23 559,23 C559,23 577,23 577,13 " fill="none" style="stroke: #A80036; stroke-width: 1.5;"/><text fill="#000000" font-family="sans-serif" font-size="14" lengthAdjust="spacingAndGlyphs" textLength="87" x="512.5" y="504.7129">LC_Database</text><path d="M541,517.7891 C541,507.7891 559,507.7891 559,507.7891 C559,507.7891 577,507.7891 577,517.7891 L577,539.7891 C577,549.7891 559,549.7891 559,549.7891 C559,549.7891 541,549.7891 541,539.7891 L541,517.7891 " fill="#FEFECE" filter="url(#f1)" style="stroke: #A80036; stroke-width: 1.5;"/><path d="M541,517.7891 C541,527.7891 559,527.7891 559,527.7891 C559,527.7891 577,527.7891 577,517.7891 " fill="none" style="stroke: #A80036; stroke-width: 1.5;"/><polygon fill="#A80036" points="314,90.6094,324,94.6094,314,98.6094,318,94.6094" style="stroke: #A80036; stroke-width: 1.0;"/><line style="stroke: #A80036; stroke-width: 1.0;" x1="96" x2="320" y1="94.6094" y2="94.6094"/><text fill="#000000" font-family="sans-serif" font-size="13" font-weight="bold" lengthAdjust="spacingAndGlyphs" textLength="7" x="103" y="90.1045">1</text><text fill="#000000" font-family="sans-serif" font-size="13" lengthAdjust="spacingAndGlyphs" textLength="107" x="114" y="90.1045">UpdateLocalData()</text><rect fill="none" height="364.2188" style="stroke: #000000; stroke-width: 2.0;" width="622.5" x="13" y="109.9609"/><polygon fill="#EEEEEE" points="13,109.9609,74,109.9609,74,117.9609,64,127.9609,13,127.9609,13,109.9609" style="stroke: #000000; stroke-width: 2.0;"/><text fill="#000000" font-family="sans-serif" font-size="13" font-weight="bold" lengthAdjust="spacingAndGlyphs" textLength="16" x="28" y="124.4561">alt</text><text fill="#000000" font-family="sans-serif" font-size="11" font-weight="bold" lengthAdjust="spacingAndGlyphs" textLength="105" x="89" y="123.3799">[Database is ready]</text><rect fill="none" height="204.4609" style="stroke: #000000; stroke-width: 2.0;" width="389.5" x="236" y="135.3125"/><polygon fill="#EEEEEE" points="236,135.3125,309,135.3125,309,143.3125,299,153.3125,236,153.3125,236,135.3125" style="stroke: #000000; stroke-width: 2.0;"/><text fill="#000000" font-family="sans-serif" font-size="13" font-weight="bold" lengthAdjust="spacingAndGlyphs" textLength="28" x="251" y="149.8076">loop</text><text fill="#000000" font-family="sans-serif" font-size="11" font-weight="bold" lengthAdjust="spacingAndGlyphs" textLength="51" x="324" y="148.7314">[data list]</text><rect fill="none" height="48.7031" style="stroke: #000000; stroke-width: 2.0;" width="369.5" x="246" y="160.6641"/><polygon fill="#EEEEEE" points="246,160.6641,319,160.6641,319,168.6641,309,178.6641,246,178.6641,246,160.6641" style="stroke: #000000; stroke-width: 2.0;"/><text fill="#000000" font-family="sans-serif" font-size="13" font-weight="bold" lengthAdjust="spacingAndGlyphs" textLength="28" x="261" y="175.1592">loop</text><text fill="#000000" font-family="sans-serif" font-size="11" font-weight="bold" lengthAdjust="spacingAndGlyphs" textLength="81" x="334" y="174.083">[packages list]</text><polygon fill="#A80036" points="547,197.0156,557,201.0156,547,205.0156,551,201.0156" style="stroke: #A80036; stroke-width: 1.0;"/><line style="stroke: #A80036; stroke-width: 1.0;" x1="326" x2="553" y1="201.0156" y2="201.0156"/><text fill="#000000" font-family="sans-serif" font-size="13" font-weight="bold" lengthAdjust="spacingAndGlyphs" textLength="7" x="333" y="196.5107">2</text><text fill="#000000" font-family="sans-serif" font-size="13" lengthAdjust="spacingAndGlyphs" textLength="198" x="344" y="196.5107">SQL_Query(INSERT ExtractCode)</text><rect fill="none" height="48.7031" style="stroke: #000000; stroke-width: 2.0;" width="369.5" x="246" y="223.3672"/><polygon fill="#EEEEEE" points="246,223.3672,319,223.3672,319,231.3672,309,241.3672,246,241.3672,246,223.3672" style="stroke: #000000; stroke-width: 2.0;"/><text fill="#000000" font-family="sans-serif" font-size="13" font-weight="bold" lengthAdjust="spacingAndGlyphs" textLength="28" x="261" y="237.8623">loop</text><text fill="#000000" font-family="sans-serif" font-size="11" font-weight="bold" lengthAdjust="spacingAndGlyphs" textLength="110" x="334" y="236.7861">[extracts codes list]</text><polygon fill="#A80036" points="547,259.7188,557,263.7188,547,267.7188,551,263.7188" style="stroke: #A80036; stroke-width: 1.0;"/><line style="stroke: #A80036; stroke-width: 1.0;" x1="326" x2="553" y1="263.7188" y2="263.7188"/><text fill="#000000" font-family="sans-serif" font-size="13" font-weight="bold" lengthAdjust="spacingAndGlyphs" textLength="7" x="333" y="259.2139">3</text><text fill="#000000" font-family="sans-serif" font-size="13" lengthAdjust="spacingAndGlyphs" textLength="177" x="344" y="259.2139">SQL_Query(INSERT Package)</text><polygon fill="#A80036" points="547,297.0703,557,301.0703,547,305.0703,551,301.0703" style="stroke: #A80036; stroke-width: 1.0;"/><line style="stroke: #A80036; stroke-width: 1.0;" x1="326" x2="553" y1="301.0703" y2="301.0703"/><text fill="#000000" font-family="sans-serif" font-size="13" font-weight="bold" lengthAdjust="spacingAndGlyphs" textLength="7" x="333" y="296.5654">4</text><text fill="#000000" font-family="sans-serif" font-size="13" lengthAdjust="spacingAndGlyphs" textLength="155" x="344" y="296.5654">SQL_Query(UPDATE Box)</text><polygon fill="#A80036" points="547,327.4219,557,331.4219,547,335.4219,551,331.4219" style="stroke: #A80036; stroke-width: 1.0;"/><line style="stroke: #A80036; stroke-width: 1.0;" x1="326" x2="553" y1="331.4219" y2="331.4219"/><text fill="#000000" font-family="sans-serif" font-size="13" font-weight="bold" lengthAdjust="spacingAndGlyphs" textLength="7" x="333" y="326.917">5</text><text fill="#000000" font-family="sans-serif" font-size="13" lengthAdjust="spacingAndGlyphs" textLength="194" x="344" y="326.917">SQL_Query(UPDATE Doorlocker)</text><rect fill="none" height="81.0547" style="stroke: #000000; stroke-width: 2.0;" width="383" x="23" y="353.7734"/><polygon fill="#EEEEEE" points="23,353.7734,84,353.7734,84,361.7734,74,371.7734,23,371.7734,23,353.7734" style="stroke: #000000; stroke-width: 2.0;"/><text fill="#000000" font-family="sans-serif" font-size="13" font-weight="bold" lengthAdjust="spacingAndGlyphs" textLength="16" x="38" y="368.2686">alt</text><text fill="#000000" font-family="sans-serif" font-size="11" font-weight="bold" lengthAdjust="spacingAndGlyphs" textLength="96" x="99" y="367.1924">[Update success]</text><polygon fill="#A80036" points="107,390.125,97,394.125,107,398.125,103,394.125" style="stroke: #A80036; stroke-width: 1.0;"/><line style="stroke: #A80036; stroke-width: 1.0;" x1="101" x2="325" y1="394.125" y2="394.125"/><text fill="#000000" font-family="sans-serif" font-size="13" font-weight="bold" lengthAdjust="spacingAndGlyphs" textLength="7" x="113" y="389.6201">6</text><text fill="#000000" font-family="sans-serif" font-size="13" lengthAdjust="spacingAndGlyphs" textLength="195" x="124" y="389.6201">true database successful updated</text><line style="stroke: #000000; stroke-width: 1.0; stroke-dasharray: 2.0,2.0;" x1="23" x2="406" y1="403.4766" y2="403.4766"/><polygon fill="#A80036" points="107,422.4766,97,426.4766,107,430.4766,103,426.4766" style="stroke: #A80036; stroke-width: 1.0;"/><line style="stroke: #A80036; stroke-width: 1.0;" x1="101" x2="325" y1="426.4766" y2="426.4766"/><text fill="#000000" font-family="sans-serif" font-size="13" font-weight="bold" lengthAdjust="spacingAndGlyphs" textLength="7" x="113" y="421.9717">7</text><text fill="#000000" font-family="sans-serif" font-size="13" lengthAdjust="spacingAndGlyphs" textLength="145" x="124" y="421.9717">false no database update</text><line style="stroke: #000000; stroke-width: 1.0; stroke-dasharray: 2.0,2.0;" x1="13" x2="635.5" y1="442.8281" y2="442.8281"/><polygon fill="#A80036" points="107,461.8281,97,465.8281,107,469.8281,103,465.8281" style="stroke: #A80036; stroke-width: 1.0;"/><line style="stroke: #A80036; stroke-width: 1.0;" x1="101" x2="325" y1="465.8281" y2="465.8281"/><text fill="#000000" font-family="sans-serif" font-size="13" font-weight="bold" lengthAdjust="spacingAndGlyphs" textLength="7" x="113" y="461.3232">8</text><text fill="#000000" font-family="sans-serif" font-size="13" lengthAdjust="spacingAndGlyphs" textLength="169" x="124" y="461.3232">false no database connection</text></g></svg>