<?xml version="1.0" encoding="UTF-8" standalone="yes"?><svg xmlns="http://www.w3.org/2000/svg" xmlns:xlink="http://www.w3.org/1999/xlink" height="839px" style="width:645px;height:839px;" version="1.1" viewBox="0 0 645 839" width="645px"><defs><filter height="300%" id="f1" width="300%" x="-1" y="-1"><feGaussianBlur result="blurOut" stdDeviation="2.0"/><feColorMatrix in="blurOut" result="blurOut2" type="matrix" values="0 0 0 0 0 0 0 0 0 0 0 0 0 0 0 0 0 0 .4 0"/><feOffset dx="4.0" dy="4.0" in="blurOut2" result="blurOut3"/><feBlend in="SourceGraphic" in2="blurOut3" mode="normal"/></filter></defs><g><rect fill="#0000FF" filter="url(#f1)" height="28" style="stroke: #A80036; stroke-width: 1.0;" width="10" x="290" y="158.3125"/><rect fill="#00A0FF" filter="url(#f1)" height="28" style="stroke: #A80036; stroke-width: 1.0;" width="10" x="290" y="284.3672"/><rect fill="#00CCFF" filter="url(#f1)" height="65.7031" style="stroke: #A80036; stroke-width: 1.0;" width="10" x="290" y="433.4219"/><rect fill="#00A0FF" filter="url(#f1)" height="28" style="stroke: #A80036; stroke-width: 1.0;" width="10" x="290" y="537.4766"/><rect fill="#30DDFF" filter="url(#f1)" height="28" style="stroke: #A80036; stroke-width: 1.0;" width="10" x="290" y="669.8555"/><rect fill="#00CCFF" filter="url(#f1)" height="30.3516" style="stroke: #A80036; stroke-width: 1.0;" width="10" x="506" y="468.7734"/><rect fill="#FFFFFF" filter="url(#f1)" height="647.2734" style="stroke: #000000; stroke-width: 2.0;" width="623" x="13" y="109.9609"/><rect fill="#FFFFFF" height="555.5703" style="stroke: none; stroke-width: 1.0;" width="623" x="13" y="201.6641"/><rect fill="#FFFFFF" filter="url(#f1)" height="539.5703" style="stroke: #000000; stroke-width: 2.0;" width="603" x="23" y="210.6641"/><rect fill="#FFFFFF" filter="url(#f1)" height="135.0547" style="stroke: #000000; stroke-width: 2.0;" width="271" x="215" y="236.0156"/><rect fill="#FFFFFF" filter="url(#f1)" height="239.1094" style="stroke: #000000; stroke-width: 2.0;" width="357" x="215" y="385.0703"/><rect fill="#FFFFFF" height="119.0547" style="stroke: none; stroke-width: 1.0;" width="603" x="23" y="631.1797"/><line style="stroke: #A80036; stroke-width: 1.0; stroke-dasharray: 5.0,5.0;" x1="96" x2="96" y1="62.6094" y2="774.2344"/><line style="stroke: #A80036; stroke-width: 1.0; stroke-dasharray: 5.0,5.0;" x1="295" x2="295" y1="62.6094" y2="774.2344"/><line style="stroke: #A80036; stroke-width: 1.0; stroke-dasharray: 5.0,5.0;" x1="511" x2="511" y1="62.6094" y2="774.2344"/><rect fill="#FEFECE" filter="url(#f1)" height="31.6094" style="stroke: #A80036; stroke-width: 1.5;" width="122" x="33" y="26"/><text fill="#000000" font-family="sans-serif" font-size="14" lengthAdjust="spacingAndGlyphs" textLength="108" x="40" y="47.5332">ConsoleWindows</text><rect fill="#FEFECE" filter="url(#f1)" height="31.6094" style="stroke: #A80036; stroke-width: 1.5;" width="122" x="33" y="773.2344"/><text fill="#000000" font-family="sans-serif" font-size="14" lengthAdjust="spacingAndGlyphs" textLength="108" x="40" y="794.7676">ConsoleWindows</text><rect fill="#FEFECE" filter="url(#f1)" height="31.6094" style="stroke: #A80036; stroke-width: 1.5;" width="136" x="225" y="26"/><text fill="#000000" font-family="sans-serif" font-size="14" lengthAdjust="spacingAndGlyphs" textLength="122" x="232" y="47.5332">CSQLite_Local_DB</text><rect fill="#FEFECE" filter="url(#f1)" height="31.6094" style="stroke: #A80036; stroke-width: 1.5;" width="136" x="225" y="773.2344"/><text fill="#000000" font-family="sans-serif" font-size="14" lengthAdjust="spacingAndGlyphs" textLength="122" x="232" y="794.7676">CSQLite_Local_DB</text><text fill="#000000" font-family="sans-serif" font-size="14" lengthAdjust="spacingAndGlyphs" textLength="96" x="460" y="59.5332">LC_SQLite_DB</text><path d="M493,13 C493,3 511,3 511,3 C511,3 529,3 529,13 L529,35 C529,45 511,45 511,45 C511,45 493,45 493,35 L493,13 " fill="#FEFECE" filter="url(#f1)" style="stroke: #A80036; stroke-width: 1.5;"/><path d="M493,13 C493,23 511,23 511,23 C511,23 529,23 529,13 " fill="none" style="stroke: #A80036; stroke-width: 1.5;"/><text fill="#000000" font-family="sans-serif" font-size="14" lengthAdjust="spacingAndGlyphs" textLength="96" x="460" y="787.7676">LC_SQLite_DB</text><path d="M493,800.8438 C493,790.8438 511,790.8438 511,790.8438 C511,790.8438 529,790.8438 529,800.8438 L529,822.8438 C529,832.8438 511,832.8438 511,832.8438 C511,832.8438 493,832.8438 493,822.8438 L493,800.8438 " fill="#FEFECE" filter="url(#f1)" style="stroke: #A80036; stroke-width: 1.5;"/><path d="M493,800.8438 C493,810.8438 511,810.8438 511,810.8438 C511,810.8438 529,810.8438 529,800.8438 " fill="none" style="stroke: #A80036; stroke-width: 1.5;"/><rect fill="#0000FF" filter="url(#f1)" height="28" style="stroke: #A80036; stroke-width: 1.0;" width="10" x="290" y="158.3125"/><rect fill="#00A0FF" filter="url(#f1)" height="28" style="stroke: #A80036; stroke-width: 1.0;" width="10" x="290" y="284.3672"/><rect fill="#00CCFF" filter="url(#f1)" height="65.7031" style="stroke: #A80036; stroke-width: 1.0;" width="10" x="290" y="433.4219"/><rect fill="#00A0FF" filter="url(#f1)" height="28" style="stroke: #A80036; stroke-width: 1.0;" width="10" x="290" y="537.4766"/><rect fill="#30DDFF" filter="url(#f1)" height="28" style="stroke: #A80036; stroke-width: 1.0;" width="10" x="290" y="669.8555"/><rect fill="#00CCFF" filter="url(#f1)" height="30.3516" style="stroke: #A80036; stroke-width: 1.0;" width="10" x="506" y="468.7734"/><polygon fill="#A80036" points="283,90.6094,293,94.6094,283,98.6094,287,94.6094" style="stroke: #A80036; stroke-width: 1.0;"/><line style="stroke: #A80036; stroke-width: 1.0;" x1="96" x2="289" y1="94.6094" y2="94.6094"/><text fill="#000000" font-family="sans-serif" font-size="13" font-weight="bold" lengthAdjust="spacingAndGlyphs" textLength="7" x="103" y="90.1045">1</text><text fill="#000000" font-family="sans-serif" font-size="13" lengthAdjust="spacingAndGlyphs" textLength="164" x="114" y="90.1045">Builder CSQLite_Local_DB()</text><rect fill="none" height="647.2734" style="stroke: #000000; stroke-width: 2.0;" width="623" x="13" y="109.9609"/><polygon fill="#EEEEEE" points="13,109.9609,74,109.9609,74,117.9609,64,127.9609,13,127.9609,13,109.9609" style="stroke: #000000; stroke-width: 2.0;"/><text fill="#000000" font-family="sans-serif" font-size="13" font-weight="bold" lengthAdjust="spacingAndGlyphs" textLength="16" x="28" y="124.4561">alt</text><text fill="#000000" font-family="sans-serif" font-size="11" font-weight="bold" lengthAdjust="spacingAndGlyphs" textLength="115" x="89" y="123.3799">[database file exsist]</text><line style="stroke: #A80036; stroke-width: 1.0;" x1="300" x2="342" y1="150.6641" y2="150.6641"/><line style="stroke: #A80036; stroke-width: 1.0;" x1="342" x2="342" y1="150.6641" y2="163.6641"/><line style="stroke: #A80036; stroke-width: 1.0;" x1="301" x2="342" y1="163.6641" y2="163.6641"/><polygon fill="#A80036" points="311,159.6641,301,163.6641,311,167.6641,307,163.6641" style="stroke: #A80036; stroke-width: 1.0;"/><text fill="#000000" font-family="sans-serif" font-size="13" font-weight="bold" lengthAdjust="spacingAndGlyphs" textLength="7" x="307" y="145.8076">2</text><text fill="#000000" font-family="sans-serif" font-size="13" lengthAdjust="spacingAndGlyphs" textLength="81" x="318" y="145.8076">Connect_DB()</text><line style="stroke: #000000; stroke-width: 1.0; stroke-dasharray: 2.0,2.0;" x1="13" x2="636" y1="202.6641" y2="202.6641"/><rect fill="none" height="539.5703" style="stroke: #000000; stroke-width: 2.0;" width="603" x="23" y="210.6641"/><polygon fill="#EEEEEE" points="23,210.6641,84,210.6641,84,218.6641,74,228.6641,23,228.6641,23,210.6641" style="stroke: #000000; stroke-width: 2.0;"/><text fill="#000000" font-family="sans-serif" font-size="13" font-weight="bold" lengthAdjust="spacingAndGlyphs" textLength="16" x="38" y="225.1592">alt</text><text fill="#000000" font-family="sans-serif" font-size="11" font-weight="bold" lengthAdjust="spacingAndGlyphs" textLength="101" x="99" y="224.083">[SQL files exsists]</text><rect fill="none" height="135.0547" style="stroke: #000000; stroke-width: 2.0;" width="271" x="215" y="236.0156"/><polygon fill="#EEEEEE" points="215,236.0156,276,236.0156,276,244.0156,266,254.0156,215,254.0156,215,236.0156" style="stroke: #000000; stroke-width: 2.0;"/><text fill="#000000" font-family="sans-serif" font-size="13" font-weight="bold" lengthAdjust="spacingAndGlyphs" textLength="16" x="230" y="250.5107">alt</text><text fill="#000000" font-family="sans-serif" font-size="11" font-weight="bold" lengthAdjust="spacingAndGlyphs" textLength="79" x="291" y="249.4346">[SQL save file]</text><line style="stroke: #A80036; stroke-width: 1.0;" x1="300" x2="342" y1="276.7188" y2="276.7188"/><line style="stroke: #A80036; stroke-width: 1.0;" x1="342" x2="342" y1="276.7188" y2="289.7188"/><line style="stroke: #A80036; stroke-width: 1.0;" x1="301" x2="342" y1="289.7188" y2="289.7188"/><polygon fill="#A80036" points="311,285.7188,301,289.7188,311,293.7188,307,289.7188" style="stroke: #A80036; stroke-width: 1.0;"/><text fill="#000000" font-family="sans-serif" font-size="13" font-weight="bold" lengthAdjust="spacingAndGlyphs" textLength="7" x="307" y="271.8623">3</text><text fill="#000000" font-family="sans-serif" font-size="13" lengthAdjust="spacingAndGlyphs" textLength="81" x="318" y="271.8623">Connect_DB()</text><line style="stroke: #A80036; stroke-width: 1.0;" x1="295" x2="337" y1="350.0703" y2="350.0703"/><line style="stroke: #A80036; stroke-width: 1.0;" x1="337" x2="337" y1="350.0703" y2="363.0703"/><line style="stroke: #A80036; stroke-width: 1.0;" x1="296" x2="337" y1="363.0703" y2="363.0703"/><polygon fill="#A80036" points="306,359.0703,296,363.0703,306,367.0703,302,363.0703" style="stroke: #A80036; stroke-width: 1.0;"/><text fill="#000000" font-family="sans-serif" font-size="13" font-weight="bold" lengthAdjust="spacingAndGlyphs" textLength="7" x="302" y="345.2139">4</text><text fill="#000000" font-family="sans-serif" font-size="13" lengthAdjust="spacingAndGlyphs" textLength="161" x="313" y="345.2139">Set_DataBaseIsReady(true)</text><rect fill="none" height="239.1094" style="stroke: #000000; stroke-width: 2.0;" width="357" x="215" y="385.0703"/><polygon fill="#EEEEEE" points="215,385.0703,276,385.0703,276,393.0703,266,403.0703,215,403.0703,215,385.0703" style="stroke: #000000; stroke-width: 2.0;"/><text fill="#000000" font-family="sans-serif" font-size="13" font-weight="bold" lengthAdjust="spacingAndGlyphs" textLength="16" x="230" y="399.5654">alt</text><text fill="#000000" font-family="sans-serif" font-size="11" font-weight="bold" lengthAdjust="spacingAndGlyphs" textLength="184" x="291" y="398.4893">[SQL build database files exsists]</text><line style="stroke: #A80036; stroke-width: 1.0;" x1="295" x2="342" y1="420.7734" y2="420.7734"/><line style="stroke: #A80036; stroke-width: 1.0;" x1="342" x2="342" y1="420.7734" y2="433.7734"/><line style="stroke: #A80036; stroke-width: 1.0;" x1="301" x2="342" y1="433.7734" y2="433.7734"/><polygon fill="#A80036" points="311,429.7734,301,433.7734,311,437.7734,307,433.7734" style="stroke: #A80036; stroke-width: 1.0;"/><text fill="#000000" font-family="sans-serif" font-size="13" font-weight="bold" lengthAdjust="spacingAndGlyphs" textLength="7" x="307" y="415.917">5</text><text fill="#000000" font-family="sans-serif" font-size="13" lengthAdjust="spacingAndGlyphs" textLength="191" x="318" y="415.917">DatabaseManager(LOAD_SAVE)</text><polygon fill="#A80036" points="494,464.7734,504,468.7734,494,472.7734,498,468.7734" style="stroke: #A80036; stroke-width: 1.0;"/><line style="stroke: #A80036; stroke-width: 1.0;" x1="300" x2="500" y1="468.7734" y2="468.7734"/><text fill="#000000" font-family="sans-serif" font-size="13" font-weight="bold" lengthAdjust="spacingAndGlyphs" textLength="7" x="307" y="464.2686">6</text><text fill="#000000" font-family="sans-serif" font-size="13" lengthAdjust="spacingAndGlyphs" textLength="0" x="322" y="464.2686"/><polygon fill="#A80036" points="306,495.125,296,499.125,306,503.125,302,499.125" style="stroke: #A80036; stroke-width: 1.0;"/><line style="stroke: #A80036; stroke-width: 1.0; stroke-dasharray: 2.0,2.0;" x1="300" x2="510" y1="499.125" y2="499.125"/><text fill="#000000" font-family="sans-serif" font-size="13" font-weight="bold" lengthAdjust="spacingAndGlyphs" textLength="7" x="312" y="494.6201">7</text><text fill="#000000" font-family="sans-serif" font-size="13" lengthAdjust="spacingAndGlyphs" textLength="0" x="327" y="494.6201"/><line style="stroke: #A80036; stroke-width: 1.0;" x1="300" x2="342" y1="529.8281" y2="529.8281"/><line style="stroke: #A80036; stroke-width: 1.0;" x1="342" x2="342" y1="529.8281" y2="542.8281"/><line style="stroke: #A80036; stroke-width: 1.0;" x1="301" x2="342" y1="542.8281" y2="542.8281"/><polygon fill="#A80036" points="311,538.8281,301,542.8281,311,546.8281,307,542.8281" style="stroke: #A80036; stroke-width: 1.0;"/><text fill="#000000" font-family="sans-serif" font-size="13" font-weight="bold" lengthAdjust="spacingAndGlyphs" textLength="7" x="307" y="524.9717">8</text><text fill="#000000" font-family="sans-serif" font-size="13" lengthAdjust="spacingAndGlyphs" textLength="81" x="318" y="524.9717">Connect_DB()</text><line style="stroke: #A80036; stroke-width: 1.0;" x1="295" x2="337" y1="603.1797" y2="603.1797"/><line style="stroke: #A80036; stroke-width: 1.0;" x1="337" x2="337" y1="603.1797" y2="616.1797"/><line style="stroke: #A80036; stroke-width: 1.0;" x1="296" x2="337" y1="616.1797" y2="616.1797"/><polygon fill="#A80036" points="306,612.1797,296,616.1797,306,620.1797,302,616.1797" style="stroke: #A80036; stroke-width: 1.0;"/><text fill="#000000" font-family="sans-serif" font-size="13" font-weight="bold" lengthAdjust="spacingAndGlyphs" textLength="7" x="302" y="598.3232">9</text><text fill="#000000" font-family="sans-serif" font-size="13" lengthAdjust="spacingAndGlyphs" textLength="161" x="313" y="598.3232">Set_DataBaseIsReady(true)</text><line style="stroke: #000000; stroke-width: 1.0; stroke-dasharray: 2.0,2.0;" x1="23" x2="626" y1="632.1797" y2="632.1797"/><line style="stroke: #A80036; stroke-width: 1.0;" x1="300" x2="342" y1="662.207" y2="662.207"/><line style="stroke: #A80036; stroke-width: 1.0;" x1="342" x2="342" y1="662.207" y2="675.207"/><line style="stroke: #A80036; stroke-width: 1.0;" x1="301" x2="342" y1="675.207" y2="675.207"/><polygon fill="#A80036" points="311,671.207,301,675.207,311,679.207,307,675.207" style="stroke: #A80036; stroke-width: 1.0;"/><text fill="#000000" font-family="sans-serif" font-size="13" font-weight="bold" lengthAdjust="spacingAndGlyphs" textLength="14" x="307" y="657.3506">10</text><text fill="#000000" font-family="sans-serif" font-size="13" lengthAdjust="spacingAndGlyphs" textLength="166" x="325" y="657.3506">Set_DataBaseIsReady(false)</text><polygon fill="#FBFB77" filter="url(#f1)" points="503,638.1797,503,680.1797,612,680.1797,612,648.1797,602,638.1797,503,638.1797" style="stroke: #A80036; stroke-width: 1.0;"/><line style="stroke: #A80036; stroke-width: 1.0;" x1="602" x2="602" y1="638.1797" y2="648.1797"/><line style="stroke: #A80036; stroke-width: 1.0;" x1="612" x2="602" y1="648.1797" y2="648.1797"/><text fill="#000000" font-family="sans-serif" font-size="13" lengthAdjust="spacingAndGlyphs" textLength="72" x="509" y="656.6748">Bool used in</text><text fill="#000000" font-family="sans-serif" font-size="13" lengthAdjust="spacingAndGlyphs" textLength="84" x="513" y="673.0264">all of the class</text><polygon fill="#A80036" points="107,737.8828,97,741.8828,107,745.8828,103,741.8828" style="stroke: #A80036; stroke-width: 1.0;"/><line style="stroke: #A80036; stroke-width: 1.0; stroke-dasharray: 2.0,2.0;" x1="101" x2="294" y1="741.8828" y2="741.8828"/><text fill="#000000" font-family="sans-serif" font-size="13" font-weight="bold" lengthAdjust="spacingAndGlyphs" textLength="14" x="113" y="737.3779">11</text><text fill="#000000" font-family="sans-serif" font-size="13" lengthAdjust="spacingAndGlyphs" textLength="85" x="131" y="737.3779">false fatal error</text></g></svg>