<?xml version="1.0" encoding="UTF-8" standalone="yes"?><svg xmlns="http://www.w3.org/2000/svg" xmlns:xlink="http://www.w3.org/1999/xlink" height="327px" style="width:591px;height:327px;" version="1.1" viewBox="0 0 591 327" width="591px"><defs><filter height="300%" id="f1" width="300%" x="-1" y="-1"><feGaussianBlur result="blurOut" stdDeviation="2.0"/><feColorMatrix in="blurOut" result="blurOut2" type="matrix" values="0 0 0 0 0 0 0 0 0 0 0 0 0 0 0 0 0 0 .4 0"/><feOffset dx="4.0" dy="4.0" in="blurOut2" result="blurOut3"/><feBlend in="SourceGraphic" in2="blurOut3" mode="normal"/></filter></defs><g><rect fill="#FEFECE" filter="url(#f1)" height="48" style="stroke: #A80036; stroke-width: 1.5;" width="76" x="6" y="8"/><ellipse cx="21" cy="24" fill="#ADD1B2" rx="11" ry="11" style="stroke: #A80036; stroke-width: 1.0;"/><path d="M23.7656,19.875 Q23.9219,19.6563 24.1094,19.5469 Q24.2969,19.4375 24.5156,19.4375 Q24.8906,19.4375 25.125,19.6953 Q25.3594,19.9531 25.3594,20.5625 L25.3594,22.0156 Q25.3594,22.625 25.125,22.8906 Q24.8906,23.1563 24.5156,23.1563 Q24.1719,23.1563 23.9688,22.9531 Q23.7656,22.7656 23.6563,22.25 Q23.6094,21.8906 23.4219,21.7031 Q23.0938,21.3281 22.4844,21.1094 Q21.875,20.8906 21.25,20.8906 Q20.4844,20.8906 19.8516,21.2188 Q19.2188,21.5469 18.7266,22.2969 Q18.2344,23.0469 18.2344,24.0781 L18.2344,25.1719 Q18.2344,26.4063 19.125,27.2266 Q20.0156,28.0469 21.6094,28.0469 Q22.5469,28.0469 23.2031,27.7969 Q23.5938,27.6406 24.0156,27.2031 Q24.2813,26.9375 24.4297,26.8594 Q24.5781,26.7813 24.7813,26.7813 Q25.1094,26.7813 25.3672,27.0391 Q25.625,27.2969 25.625,27.6406 Q25.625,27.9844 25.2813,28.3906 Q24.7813,28.9688 23.9844,29.2969 Q22.9063,29.75 21.6094,29.75 Q20.0938,29.75 18.8906,29.125 Q17.9063,28.625 17.2188,27.5547 Q16.5313,26.4844 16.5313,25.2031 L16.5313,24.0469 Q16.5313,22.7188 17.1484,21.5703 Q17.7656,20.4219 18.8594,19.8047 Q19.9531,19.1875 21.1875,19.1875 Q21.9219,19.1875 22.5703,19.3516 Q23.2188,19.5156 23.7656,19.875 Z "/><text fill="#000000" font-family="sans-serif" font-size="12" lengthAdjust="spacingAndGlyphs" textLength="44" x="35" y="28.9102">QObject</text><line style="stroke: #A80036; stroke-width: 1.5;" x1="7" x2="81" y1="40" y2="40"/><line style="stroke: #A80036; stroke-width: 1.5;" x1="7" x2="81" y1="48" y2="48"/><rect fill="#FEFECE" filter="url(#f1)" height="48" style="stroke: #A80036; stroke-width: 1.5;" width="139" x="44.5" y="150"/><ellipse cx="59.5" cy="166" fill="#ADD1B2" rx="11" ry="11" style="stroke: #A80036; stroke-width: 1.0;"/><path d="M62.2656,161.875 Q62.4219,161.6563 62.6094,161.5469 Q62.7969,161.4375 63.0156,161.4375 Q63.3906,161.4375 63.625,161.6953 Q63.8594,161.9531 63.8594,162.5625 L63.8594,164.0156 Q63.8594,164.625 63.625,164.8906 Q63.3906,165.1563 63.0156,165.1563 Q62.6719,165.1563 62.4688,164.9531 Q62.2656,164.7656 62.1563,164.25 Q62.1094,163.8906 61.9219,163.7031 Q61.5938,163.3281 60.9844,163.1094 Q60.375,162.8906 59.75,162.8906 Q58.9844,162.8906 58.3516,163.2188 Q57.7188,163.5469 57.2266,164.2969 Q56.7344,165.0469 56.7344,166.0781 L56.7344,167.1719 Q56.7344,168.4063 57.625,169.2266 Q58.5156,170.0469 60.1094,170.0469 Q61.0469,170.0469 61.7031,169.7969 Q62.0938,169.6406 62.5156,169.2031 Q62.7813,168.9375 62.9297,168.8594 Q63.0781,168.7813 63.2813,168.7813 Q63.6094,168.7813 63.8672,169.0391 Q64.125,169.2969 64.125,169.6406 Q64.125,169.9844 63.7813,170.3906 Q63.2813,170.9688 62.4844,171.2969 Q61.4063,171.75 60.1094,171.75 Q58.5938,171.75 57.3906,171.125 Q56.4063,170.625 55.7188,169.5547 Q55.0313,168.4844 55.0313,167.2031 L55.0313,166.0469 Q55.0313,164.7188 55.6484,163.5703 Q56.2656,162.4219 57.3594,161.8047 Q58.4531,161.1875 59.6875,161.1875 Q60.4219,161.1875 61.0703,161.3516 Q61.7188,161.5156 62.2656,161.875 Z "/><text fill="#000000" font-family="sans-serif" font-size="12" lengthAdjust="spacingAndGlyphs" textLength="107" x="73.5" y="170.9102">CSQLite_Local_DB</text><line style="stroke: #A80036; stroke-width: 1.5;" x1="45.5" x2="182.5" y1="182" y2="182"/><line style="stroke: #A80036; stroke-width: 1.5;" x1="45.5" x2="182.5" y1="190" y2="190"/><rect fill="#FEFECE" filter="url(#f1)" height="48" style="stroke: #A80036; stroke-width: 1.5;" width="130" x="213" y="8"/><ellipse cx="228" cy="24" fill="#ADD1B2" rx="11" ry="11" style="stroke: #A80036; stroke-width: 1.0;"/><path d="M230.7656,19.875 Q230.9219,19.6563 231.1094,19.5469 Q231.2969,19.4375 231.5156,19.4375 Q231.8906,19.4375 232.125,19.6953 Q232.3594,19.9531 232.3594,20.5625 L232.3594,22.0156 Q232.3594,22.625 232.125,22.8906 Q231.8906,23.1563 231.5156,23.1563 Q231.1719,23.1563 230.9688,22.9531 Q230.7656,22.7656 230.6563,22.25 Q230.6094,21.8906 230.4219,21.7031 Q230.0938,21.3281 229.4844,21.1094 Q228.875,20.8906 228.25,20.8906 Q227.4844,20.8906 226.8516,21.2188 Q226.2188,21.5469 225.7266,22.2969 Q225.2344,23.0469 225.2344,24.0781 L225.2344,25.1719 Q225.2344,26.4063 226.125,27.2266 Q227.0156,28.0469 228.6094,28.0469 Q229.5469,28.0469 230.2031,27.7969 Q230.5938,27.6406 231.0156,27.2031 Q231.2813,26.9375 231.4297,26.8594 Q231.5781,26.7813 231.7813,26.7813 Q232.1094,26.7813 232.3672,27.0391 Q232.625,27.2969 232.625,27.6406 Q232.625,27.9844 232.2813,28.3906 Q231.7813,28.9688 230.9844,29.2969 Q229.9063,29.75 228.6094,29.75 Q227.0938,29.75 225.8906,29.125 Q224.9063,28.625 224.2188,27.5547 Q223.5313,26.4844 223.5313,25.2031 L223.5313,24.0469 Q223.5313,22.7188 224.1484,21.5703 Q224.7656,20.4219 225.8594,19.8047 Q226.9531,19.1875 228.1875,19.1875 Q228.9219,19.1875 229.5703,19.3516 Q230.2188,19.5156 230.7656,19.875 Z "/><text fill="#000000" font-family="sans-serif" font-size="12" lengthAdjust="spacingAndGlyphs" textLength="98" x="242" y="28.9102">ConsoleWindows</text><line style="stroke: #A80036; stroke-width: 1.5;" x1="214" x2="342" y1="40" y2="40"/><line style="stroke: #A80036; stroke-width: 1.5;" x1="214" x2="342" y1="48" y2="48"/><rect fill="#FEFECE" filter="url(#f1)" height="48" style="stroke: #A80036; stroke-width: 1.5;" width="210" x="269" y="150"/><ellipse cx="284" cy="166" fill="#ADD1B2" rx="11" ry="11" style="stroke: #A80036; stroke-width: 1.0;"/><path d="M286.7656,161.875 Q286.9219,161.6563 287.1094,161.5469 Q287.2969,161.4375 287.5156,161.4375 Q287.8906,161.4375 288.125,161.6953 Q288.3594,161.9531 288.3594,162.5625 L288.3594,164.0156 Q288.3594,164.625 288.125,164.8906 Q287.8906,165.1563 287.5156,165.1563 Q287.1719,165.1563 286.9688,164.9531 Q286.7656,164.7656 286.6563,164.25 Q286.6094,163.8906 286.4219,163.7031 Q286.0938,163.3281 285.4844,163.1094 Q284.875,162.8906 284.25,162.8906 Q283.4844,162.8906 282.8516,163.2188 Q282.2188,163.5469 281.7266,164.2969 Q281.2344,165.0469 281.2344,166.0781 L281.2344,167.1719 Q281.2344,168.4063 282.125,169.2266 Q283.0156,170.0469 284.6094,170.0469 Q285.5469,170.0469 286.2031,169.7969 Q286.5938,169.6406 287.0156,169.2031 Q287.2813,168.9375 287.4297,168.8594 Q287.5781,168.7813 287.7813,168.7813 Q288.1094,168.7813 288.3672,169.0391 Q288.625,169.2969 288.625,169.6406 Q288.625,169.9844 288.2813,170.3906 Q287.7813,170.9688 286.9844,171.2969 Q285.9063,171.75 284.6094,171.75 Q283.0938,171.75 281.8906,171.125 Q280.9063,170.625 280.2188,169.5547 Q279.5313,168.4844 279.5313,167.2031 L279.5313,166.0469 Q279.5313,164.7188 280.1484,163.5703 Q280.7656,162.4219 281.8594,161.8047 Q282.9531,161.1875 284.1875,161.1875 Q284.9219,161.1875 285.5703,161.3516 Q286.2188,161.5156 286.7656,161.875 Z "/><text fill="#000000" font-family="sans-serif" font-size="12" lengthAdjust="spacingAndGlyphs" textLength="178" x="298" y="170.9102">Class_Need_Database_Access</text><line style="stroke: #A80036; stroke-width: 1.5;" x1="270" x2="478" y1="182" y2="182"/><line style="stroke: #A80036; stroke-width: 1.5;" x1="270" x2="478" y1="190" y2="190"/><polygon fill="#FBFB77" filter="url(#f1)" points="165.5,259,165.5,318.0547,582.5,318.0547,582.5,269,572.5,259,165.5,259" style="stroke: #A80036; stroke-width: 1.0;"/><polygon fill="#FBFB77" points="165.5,259,165.5,318.0547,582.5,318.0547,582.5,269,572.5,259,378,259,374,198.038,370,259,165.5,259" style="stroke: #A80036; stroke-width: 1.0;"/><line style="stroke: #A80036; stroke-width: 1.0;" x1="572.5" x2="572.5" y1="259" y2="269"/><line style="stroke: #A80036; stroke-width: 1.0;" x1="582.5" x2="572.5" y1="269" y2="269"/><text fill="#000000" font-family="sans-serif" font-size="13" lengthAdjust="spacingAndGlyphs" textLength="396" x="171.5" y="277.4951">Class_Need_Database_Access can have an access to the database</text><text fill="#000000" font-family="sans-serif" font-size="13" lengthAdjust="spacingAndGlyphs" textLength="366" x="175.5" y="293.8467">with a pointer on CSQLite_Local_DB gived by ConsoleWindows</text><text fill="#000000" font-family="sans-serif" font-size="13" lengthAdjust="spacingAndGlyphs" textLength="352" x="175.5" y="310.1982">when ConsoleWindows build Class_Need_Database_Access</text><path d="M34.3234,76.093 C33.1195,90.715 34.2212,106.701 41,120 C47.1168,132 57.3622,141.919 68.2721,149.8 " fill="none" style="stroke: #A80036; stroke-width: 1.0;"/><polygon fill="none" points="27.4319,74.849,37.3443,56.121,41.2745,76.943,27.4319,74.849" style="stroke: #A80036; stroke-width: 1.0;"/><text fill="#000000" font-family="sans-serif" font-size="13" lengthAdjust="spacingAndGlyphs" textLength="28" x="50.5" y="100.4951">need</text><text fill="#000000" font-family="sans-serif" font-size="13" lengthAdjust="spacingAndGlyphs" textLength="41" x="46" y="116.8467">signals</text><path d="M200.213,47.34 C176.72,55.192 152.746,67.312 136,86 C120.301,103.521 115.468,130.641 114.144,149.941 " fill="none" style="stroke: #A80036; stroke-width: 1.0;"/><polygon fill="#A80036" points="212.789,43.507,205.8835,41.4299,201.3103,47.0053,208.2157,49.0824,212.789,43.507" style="stroke: #A80036; stroke-width: 1.0;"/><path d="M201.027,61.369 C188.134,68.209 175.54,76.384 165,86 C145.599,103.7 131.424,130.527 123.012,149.708 " fill="none" style="stroke: #A80036; stroke-width: 1.0;"/><polygon fill="none" points="212.902,55.459,205.7482,54.5516,202.1591,60.806,209.3129,61.7135,212.902,55.459" style="stroke: #A80036; stroke-width: 1.0;"/><text fill="#000000" font-family="sans-serif" font-size="13" lengthAdjust="spacingAndGlyphs" textLength="160" x="166" y="108.4951">Linked by ConsoleWindows</text><path d="M300.588,65.57 C306.699,71.935 312.888,78.863 318,86 C332.169,105.781 342.925,131.531 352.735,149.873 " fill="none" style="stroke: #A80036; stroke-width: 1.0;"/><polygon fill="#A80036" points="291.213,56.081,292.5843,63.1605,299.6467,64.6176,298.2754,57.538,291.213,56.081" style="stroke: #A80036; stroke-width: 1.0;"/><path d="M334.058,64.664 C341.107,71.276 347.644,78.523 353,86 C367.169,105.781 377.925,131.531 381.108,149.873 " fill="none" style="stroke: #A80036; stroke-width: 1.0;"/><polygon fill="none" points="324.189,56.081,326.091,63.0367,333.2432,63.9563,331.3412,57.0006,324.189,56.081" style="stroke: #A80036; stroke-width: 1.0;"/></g></svg>