<?xml version="1.0" encoding="UTF-8" standalone="yes"?><svg xmlns="http://www.w3.org/2000/svg" xmlns:xlink="http://www.w3.org/1999/xlink" height="578px" style="width:467px;height:578px;" version="1.1" viewBox="0 0 467 578" width="467px"><defs><filter height="300%" id="f1" width="300%" x="-1" y="-1"><feGaussianBlur result="blurOut" stdDeviation="2.0"/><feColorMatrix in="blurOut" result="blurOut2" type="matrix" values="0 0 0 0 0 0 0 0 0 0 0 0 0 0 0 0 0 0 .4 0"/><feOffset dx="4.0" dy="4.0" in="blurOut2" result="blurOut3"/><feBlend in="SourceGraphic" in2="blurOut3" mode="normal"/></filter></defs><g><rect fill="#FEFECE" filter="url(#f1)" height="48" style="stroke: #A80036; stroke-width: 1.5;" width="76" x="6" y="117"/><ellipse cx="21" cy="133" fill="#ADD1B2" rx="11" ry="11" style="stroke: #A80036; stroke-width: 1.0;"/><path d="M23.7656,128.875 Q23.9219,128.6563 24.1094,128.5469 Q24.2969,128.4375 24.5156,128.4375 Q24.8906,128.4375 25.125,128.6953 Q25.3594,128.9531 25.3594,129.5625 L25.3594,131.0156 Q25.3594,131.625 25.125,131.8906 Q24.8906,132.1563 24.5156,132.1563 Q24.1719,132.1563 23.9688,131.9531 Q23.7656,131.7656 23.6563,131.25 Q23.6094,130.8906 23.4219,130.7031 Q23.0938,130.3281 22.4844,130.1094 Q21.875,129.8906 21.25,129.8906 Q20.4844,129.8906 19.8516,130.2188 Q19.2188,130.5469 18.7266,131.2969 Q18.2344,132.0469 18.2344,133.0781 L18.2344,134.1719 Q18.2344,135.4063 19.125,136.2266 Q20.0156,137.0469 21.6094,137.0469 Q22.5469,137.0469 23.2031,136.7969 Q23.5938,136.6406 24.0156,136.2031 Q24.2813,135.9375 24.4297,135.8594 Q24.5781,135.7813 24.7813,135.7813 Q25.1094,135.7813 25.3672,136.0391 Q25.625,136.2969 25.625,136.6406 Q25.625,136.9844 25.2813,137.3906 Q24.7813,137.9688 23.9844,138.2969 Q22.9063,138.75 21.6094,138.75 Q20.0938,138.75 18.8906,138.125 Q17.9063,137.625 17.2188,136.5547 Q16.5313,135.4844 16.5313,134.2031 L16.5313,133.0469 Q16.5313,131.7188 17.1484,130.5703 Q17.7656,129.4219 18.8594,128.8047 Q19.9531,128.1875 21.1875,128.1875 Q21.9219,128.1875 22.5703,128.3516 Q23.2188,128.5156 23.7656,128.875 Z "/><text fill="#000000" font-family="sans-serif" font-size="12" lengthAdjust="spacingAndGlyphs" textLength="44" x="35" y="137.9102">QObject</text><line style="stroke: #A80036; stroke-width: 1.5;" x1="7" x2="81" y1="149" y2="149"/><line style="stroke: #A80036; stroke-width: 1.5;" x1="7" x2="81" y1="157" y2="157"/><rect fill="#FEFECE" filter="url(#f1)" height="48" style="stroke: #A80036; stroke-width: 1.5;" width="139" x="82.5" y="259"/><ellipse cx="97.5" cy="275" fill="#ADD1B2" rx="11" ry="11" style="stroke: #A80036; stroke-width: 1.0;"/><path d="M100.2656,270.875 Q100.4219,270.6563 100.6094,270.5469 Q100.7969,270.4375 101.0156,270.4375 Q101.3906,270.4375 101.625,270.6953 Q101.8594,270.9531 101.8594,271.5625 L101.8594,273.0156 Q101.8594,273.625 101.625,273.8906 Q101.3906,274.1563 101.0156,274.1563 Q100.6719,274.1563 100.4688,273.9531 Q100.2656,273.7656 100.1563,273.25 Q100.1094,272.8906 99.9219,272.7031 Q99.5938,272.3281 98.9844,272.1094 Q98.375,271.8906 97.75,271.8906 Q96.9844,271.8906 96.3516,272.2188 Q95.7188,272.5469 95.2266,273.2969 Q94.7344,274.0469 94.7344,275.0781 L94.7344,276.1719 Q94.7344,277.4063 95.625,278.2266 Q96.5156,279.0469 98.1094,279.0469 Q99.0469,279.0469 99.7031,278.7969 Q100.0938,278.6406 100.5156,278.2031 Q100.7813,277.9375 100.9297,277.8594 Q101.0781,277.7813 101.2813,277.7813 Q101.6094,277.7813 101.8672,278.0391 Q102.125,278.2969 102.125,278.6406 Q102.125,278.9844 101.7813,279.3906 Q101.2813,279.9688 100.4844,280.2969 Q99.4063,280.75 98.1094,280.75 Q96.5938,280.75 95.3906,280.125 Q94.4063,279.625 93.7188,278.5547 Q93.0313,277.4844 93.0313,276.2031 L93.0313,275.0469 Q93.0313,273.7188 93.6484,272.5703 Q94.2656,271.4219 95.3594,270.8047 Q96.4531,270.1875 97.6875,270.1875 Q98.4219,270.1875 99.0703,270.3516 Q99.7188,270.5156 100.2656,270.875 Z "/><text fill="#000000" font-family="sans-serif" font-size="12" lengthAdjust="spacingAndGlyphs" textLength="107" x="111.5" y="279.9102">CSQLite_Local_DB</text><line style="stroke: #A80036; stroke-width: 1.5;" x1="83.5" x2="220.5" y1="291" y2="291"/><line style="stroke: #A80036; stroke-width: 1.5;" x1="83.5" x2="220.5" y1="299" y2="299"/><rect fill="#FEFECE" filter="url(#f1)" height="48" style="stroke: #A80036; stroke-width: 1.5;" width="130" x="168" y="8"/><ellipse cx="183" cy="24" fill="#ADD1B2" rx="11" ry="11" style="stroke: #A80036; stroke-width: 1.0;"/><path d="M185.7656,19.875 Q185.9219,19.6563 186.1094,19.5469 Q186.2969,19.4375 186.5156,19.4375 Q186.8906,19.4375 187.125,19.6953 Q187.3594,19.9531 187.3594,20.5625 L187.3594,22.0156 Q187.3594,22.625 187.125,22.8906 Q186.8906,23.1563 186.5156,23.1563 Q186.1719,23.1563 185.9688,22.9531 Q185.7656,22.7656 185.6563,22.25 Q185.6094,21.8906 185.4219,21.7031 Q185.0938,21.3281 184.4844,21.1094 Q183.875,20.8906 183.25,20.8906 Q182.4844,20.8906 181.8516,21.2188 Q181.2188,21.5469 180.7266,22.2969 Q180.2344,23.0469 180.2344,24.0781 L180.2344,25.1719 Q180.2344,26.4063 181.125,27.2266 Q182.0156,28.0469 183.6094,28.0469 Q184.5469,28.0469 185.2031,27.7969 Q185.5938,27.6406 186.0156,27.2031 Q186.2813,26.9375 186.4297,26.8594 Q186.5781,26.7813 186.7813,26.7813 Q187.1094,26.7813 187.3672,27.0391 Q187.625,27.2969 187.625,27.6406 Q187.625,27.9844 187.2813,28.3906 Q186.7813,28.9688 185.9844,29.2969 Q184.9063,29.75 183.6094,29.75 Q182.0938,29.75 180.8906,29.125 Q179.9063,28.625 179.2188,27.5547 Q178.5313,26.4844 178.5313,25.2031 L178.5313,24.0469 Q178.5313,22.7188 179.1484,21.5703 Q179.7656,20.4219 180.8594,19.8047 Q181.9531,19.1875 183.1875,19.1875 Q183.9219,19.1875 184.5703,19.3516 Q185.2188,19.5156 185.7656,19.875 Z "/><text fill="#000000" font-family="sans-serif" font-size="12" lengthAdjust="spacingAndGlyphs" textLength="98" x="197" y="28.9102">ConsoleWindows</text><line style="stroke: #A80036; stroke-width: 1.5;" x1="169" x2="297" y1="40" y2="40"/><line style="stroke: #A80036; stroke-width: 1.5;" x1="169" x2="297" y1="48" y2="48"/><rect fill="#FEFECE" filter="url(#f1)" height="48" style="stroke: #A80036; stroke-width: 1.5;" width="89" x="188.5" y="117"/><ellipse cx="203.5" cy="133" fill="#ADD1B2" rx="11" ry="11" style="stroke: #A80036; stroke-width: 1.0;"/><path d="M206.2656,128.875 Q206.4219,128.6563 206.6094,128.5469 Q206.7969,128.4375 207.0156,128.4375 Q207.3906,128.4375 207.625,128.6953 Q207.8594,128.9531 207.8594,129.5625 L207.8594,131.0156 Q207.8594,131.625 207.625,131.8906 Q207.3906,132.1563 207.0156,132.1563 Q206.6719,132.1563 206.4688,131.9531 Q206.2656,131.7656 206.1563,131.25 Q206.1094,130.8906 205.9219,130.7031 Q205.5938,130.3281 204.9844,130.1094 Q204.375,129.8906 203.75,129.8906 Q202.9844,129.8906 202.3516,130.2188 Q201.7188,130.5469 201.2266,131.2969 Q200.7344,132.0469 200.7344,133.0781 L200.7344,134.1719 Q200.7344,135.4063 201.625,136.2266 Q202.5156,137.0469 204.1094,137.0469 Q205.0469,137.0469 205.7031,136.7969 Q206.0938,136.6406 206.5156,136.2031 Q206.7813,135.9375 206.9297,135.8594 Q207.0781,135.7813 207.2813,135.7813 Q207.6094,135.7813 207.8672,136.0391 Q208.125,136.2969 208.125,136.6406 Q208.125,136.9844 207.7813,137.3906 Q207.2813,137.9688 206.4844,138.2969 Q205.4063,138.75 204.1094,138.75 Q202.5938,138.75 201.3906,138.125 Q200.4063,137.625 199.7188,136.5547 Q199.0313,135.4844 199.0313,134.2031 L199.0313,133.0469 Q199.0313,131.7188 199.6484,130.5703 Q200.2656,129.4219 201.3594,128.8047 Q202.4531,128.1875 203.6875,128.1875 Q204.4219,128.1875 205.0703,128.3516 Q205.7188,128.5156 206.2656,128.875 Z "/><text fill="#000000" font-family="sans-serif" font-size="12" lengthAdjust="spacingAndGlyphs" textLength="57" x="217.5" y="137.9102">CLMS_DB</text><line style="stroke: #A80036; stroke-width: 1.5;" x1="189.5" x2="276.5" y1="149" y2="149"/><line style="stroke: #A80036; stroke-width: 1.5;" x1="189.5" x2="276.5" y1="157" y2="157"/><rect fill="#FEFECE" filter="url(#f1)" height="48" style="stroke: #A80036; stroke-width: 1.5;" width="210" x="145" y="401"/><ellipse cx="160" cy="417" fill="#ADD1B2" rx="11" ry="11" style="stroke: #A80036; stroke-width: 1.0;"/><path d="M162.7656,412.875 Q162.9219,412.6563 163.1094,412.5469 Q163.2969,412.4375 163.5156,412.4375 Q163.8906,412.4375 164.125,412.6953 Q164.3594,412.9531 164.3594,413.5625 L164.3594,415.0156 Q164.3594,415.625 164.125,415.8906 Q163.8906,416.1563 163.5156,416.1563 Q163.1719,416.1563 162.9688,415.9531 Q162.7656,415.7656 162.6563,415.25 Q162.6094,414.8906 162.4219,414.7031 Q162.0938,414.3281 161.4844,414.1094 Q160.875,413.8906 160.25,413.8906 Q159.4844,413.8906 158.8516,414.2188 Q158.2188,414.5469 157.7266,415.2969 Q157.2344,416.0469 157.2344,417.0781 L157.2344,418.1719 Q157.2344,419.4063 158.125,420.2266 Q159.0156,421.0469 160.6094,421.0469 Q161.5469,421.0469 162.2031,420.7969 Q162.5938,420.6406 163.0156,420.2031 Q163.2813,419.9375 163.4297,419.8594 Q163.5781,419.7813 163.7813,419.7813 Q164.1094,419.7813 164.3672,420.0391 Q164.625,420.2969 164.625,420.6406 Q164.625,420.9844 164.2813,421.3906 Q163.7813,421.9688 162.9844,422.2969 Q161.9063,422.75 160.6094,422.75 Q159.0938,422.75 157.8906,422.125 Q156.9063,421.625 156.2188,420.5547 Q155.5313,419.4844 155.5313,418.2031 L155.5313,417.0469 Q155.5313,415.7188 156.1484,414.5703 Q156.7656,413.4219 157.8594,412.8047 Q158.9531,412.1875 160.1875,412.1875 Q160.9219,412.1875 161.5703,412.3516 Q162.2188,412.5156 162.7656,412.875 Z "/><text fill="#000000" font-family="sans-serif" font-size="12" lengthAdjust="spacingAndGlyphs" textLength="178" x="174" y="421.9102">Class_Need_Database_Access</text><line style="stroke: #A80036; stroke-width: 1.5;" x1="146" x2="354" y1="433" y2="433"/><line style="stroke: #A80036; stroke-width: 1.5;" x1="146" x2="354" y1="441" y2="441"/><polygon fill="#FBFB77" filter="url(#f1)" points="41.5,510,41.5,569.0547,458.5,569.0547,458.5,520,448.5,510,41.5,510" style="stroke: #A80036; stroke-width: 1.0;"/><polygon fill="#FBFB77" points="41.5,510,41.5,569.0547,458.5,569.0547,458.5,520,448.5,510,254,510,250,449.038,246,510,41.5,510" style="stroke: #A80036; stroke-width: 1.0;"/><line style="stroke: #A80036; stroke-width: 1.0;" x1="448.5" x2="448.5" y1="510" y2="520"/><line style="stroke: #A80036; stroke-width: 1.0;" x1="458.5" x2="448.5" y1="520" y2="520"/><text fill="#000000" font-family="sans-serif" font-size="13" lengthAdjust="spacingAndGlyphs" textLength="396" x="47.5" y="528.4951">Class_Need_Database_Access can have an access to the database</text><text fill="#000000" font-family="sans-serif" font-size="13" lengthAdjust="spacingAndGlyphs" textLength="366" x="51.5" y="544.8467">with a pointer on CSQLite_Local_DB gived by ConsoleWindows</text><text fill="#000000" font-family="sans-serif" font-size="13" lengthAdjust="spacingAndGlyphs" textLength="356" x="51.5" y="561.1982">when ConsoleWindows build Class_Need_Database_Access.</text><path d="M45.8133,185.007 C48.1919,200.031 52.9074,216.299 62,229 C70.7608,241.238 83.3013,251.111 96.2498,258.867 " fill="none" style="stroke: #A80036; stroke-width: 1.0;"/><polygon fill="none" points="38.8479,185.702,43.7939,165.097,52.7764,184.289,38.8479,185.702" style="stroke: #A80036; stroke-width: 1.0;"/><text fill="#000000" font-family="sans-serif" font-size="13" lengthAdjust="spacingAndGlyphs" textLength="30" x="70.5" y="209.4951">Need</text><text fill="#000000" font-family="sans-serif" font-size="13" lengthAdjust="spacingAndGlyphs" textLength="41" x="67" y="225.8467">signals</text><path d="M201.851,66.671 C190.235,81.13 178.146,98.858 171,117 C152.136,164.889 150.341,226.215 150.983,258.957 " fill="none" style="stroke: #A80036; stroke-width: 1.0;"/><polygon fill="#A80036" points="210.551,56.3,203.6303,58.3258,202.8385,65.4933,209.7592,63.4675,210.551,56.3" style="stroke: #A80036; stroke-width: 1.0;"/><path d="M233,69.302 C233,85.021 233,102.955 233,116.828 " fill="none" style="stroke: #A80036; stroke-width: 1.0;"/><polygon fill="#A80036" points="233,56.217,229,62.217,233,68.217,237,62.217,233,56.217" style="stroke: #A80036; stroke-width: 1.0;"/><path d="M210.307,176.553 C206.454,182.651 202.553,188.975 199,195 C186.442,216.294 173.141,241.159 163.906,258.841 " fill="none" style="stroke: #A80036; stroke-width: 1.0;"/><polygon fill="none" points="217.553,165.246,210.9479,168.1396,211.0784,175.3495,217.6835,172.4559,217.553,165.246" style="stroke: #A80036; stroke-width: 1.0;"/><text fill="#000000" font-family="sans-serif" font-size="13" lengthAdjust="spacingAndGlyphs" textLength="56" x="224" y="209.4951">Linked by</text><text fill="#000000" font-family="sans-serif" font-size="13" lengthAdjust="spacingAndGlyphs" textLength="100" x="204" y="225.8467">ConsoleWindows</text><path d="M262.98,66.158 C274.685,80.789 287.153,98.782 295,117 C308.933,149.347 305.877,159.918 309,195 C315.937,272.914 340.857,299.559 309,371 C303.841,382.569 294.77,392.668 285.265,400.859 " fill="none" style="stroke: #A80036; stroke-width: 1.0;"/><polygon fill="#A80036" points="254.669,56.144,255.4228,63.3156,262.3327,65.3781,261.5789,58.2065,254.669,56.144" style="stroke: #A80036; stroke-width: 1.0;"/><path d="M168.185,319.024 C176.441,335.432 187.221,354.87 199,371 C206.681,381.519 216.338,392.069 225.176,400.956 " fill="none" style="stroke: #A80036; stroke-width: 1.0;"/><polygon fill="none" points="162.388,307.173,161.431,314.3203,167.6605,317.9527,168.6175,310.8053,162.388,307.173" style="stroke: #A80036; stroke-width: 1.0;"/><text fill="#000000" font-family="sans-serif" font-size="13" lengthAdjust="spacingAndGlyphs" textLength="64" x="220" y="351.4951">: Linked by</text><text fill="#000000" font-family="sans-serif" font-size="13" lengthAdjust="spacingAndGlyphs" textLength="100" x="204" y="367.8467">ConsoleWindows</text></g></svg>