<?xml version="1.0" encoding="UTF-8" standalone="yes"?><svg xmlns="http://www.w3.org/2000/svg" xmlns:xlink="http://www.w3.org/1999/xlink" height="573px" style="width:520px;height:573px;" version="1.1" viewBox="0 0 520 573" width="520px"><defs><filter height="300%" id="f1" width="300%" x="-1" y="-1"><feGaussianBlur result="blurOut" stdDeviation="2.0"/><feColorMatrix in="blurOut" result="blurOut2" type="matrix" values="0 0 0 0 0 0 0 0 0 0 0 0 0 0 0 0 0 0 .4 0"/><feOffset dx="4.0" dy="4.0" in="blurOut2" result="blurOut3"/><feBlend in="SourceGraphic" in2="blurOut3" mode="normal"/></filter></defs><g><rect fill="#FFFFFF" filter="url(#f1)" height="430.2422" style="stroke: #000000; stroke-width: 2.0;" width="498" x="13" y="86.9609"/><rect fill="#FFFFFF" filter="url(#f1)" height="322.1875" style="stroke: #000000; stroke-width: 2.0;" width="446" x="23" y="155.6641"/><rect fill="#FFFFFF" height="260.8125" style="stroke: none; stroke-width: 1.0;" width="446" x="23" y="217.0391"/><rect fill="#FFFFFF" filter="url(#f1)" height="244.8125" style="stroke: #000000; stroke-width: 2.0;" width="426" x="33" y="226.0391"/><rect fill="#FFFFFF" height="196.1094" style="stroke: none; stroke-width: 1.0;" width="426" x="33" y="274.7422"/><rect fill="#FFFFFF" filter="url(#f1)" height="50.7031" style="stroke: #000000; stroke-width: 2.0;" width="406" x="43" y="283.7422"/><rect fill="#FFFFFF" height="32.3516" style="stroke: none; stroke-width: 1.0;" width="406" x="43" y="302.0938"/><rect fill="#FFFFFF" filter="url(#f1)" height="50.7031" style="stroke: #000000; stroke-width: 2.0;" width="406" x="43" y="348.4453"/><rect fill="#FFFFFF" height="32.3516" style="stroke: none; stroke-width: 1.0;" width="406" x="43" y="366.7969"/><rect fill="#FFFFFF" filter="url(#f1)" height="50.7031" style="stroke: #000000; stroke-width: 2.0;" width="406" x="43" y="413.1484"/><rect fill="#FFFFFF" height="32.3516" style="stroke: none; stroke-width: 1.0;" width="406" x="43" y="431.5"/><rect fill="#FFFFFF" height="32.3516" style="stroke: none; stroke-width: 1.0;" width="498" x="13" y="484.8516"/><line style="stroke: #A80036; stroke-width: 1.0; stroke-dasharray: 5.0,5.0;" x1="116" x2="116" y1="39.6094" y2="534.2031"/><line style="stroke: #A80036; stroke-width: 1.0; stroke-dasharray: 5.0,5.0;" x1="369" x2="369" y1="39.6094" y2="534.2031"/><rect fill="#FEFECE" filter="url(#f1)" height="31.6094" style="stroke: #A80036; stroke-width: 1.5;" width="122" x="53" y="3"/><text fill="#000000" font-family="sans-serif" font-size="14" lengthAdjust="spacingAndGlyphs" textLength="108" x="60" y="24.5332">ConsoleWindows</text><rect fill="#FEFECE" filter="url(#f1)" height="31.6094" style="stroke: #A80036; stroke-width: 1.5;" width="122" x="53" y="533.2031"/><text fill="#000000" font-family="sans-serif" font-size="14" lengthAdjust="spacingAndGlyphs" textLength="108" x="60" y="554.7363">ConsoleWindows</text><rect fill="#FEFECE" filter="url(#f1)" height="31.6094" style="stroke: #A80036; stroke-width: 1.5;" width="136" x="299" y="3"/><text fill="#000000" font-family="sans-serif" font-size="14" lengthAdjust="spacingAndGlyphs" textLength="122" x="306" y="24.5332">CSQLite_Local_DB</text><rect fill="#FEFECE" filter="url(#f1)" height="31.6094" style="stroke: #A80036; stroke-width: 1.5;" width="136" x="299" y="533.2031"/><text fill="#000000" font-family="sans-serif" font-size="14" lengthAdjust="spacingAndGlyphs" textLength="122" x="306" y="554.7363">CSQLite_Local_DB</text><polygon fill="#A80036" points="357,67.6094,367,71.6094,357,75.6094,361,71.6094" style="stroke: #A80036; stroke-width: 1.0;"/><line style="stroke: #A80036; stroke-width: 1.0;" x1="116" x2="363" y1="71.6094" y2="71.6094"/><text fill="#000000" font-family="sans-serif" font-size="13" font-weight="bold" lengthAdjust="spacingAndGlyphs" textLength="7" x="123" y="67.1045">1</text><text fill="#000000" font-family="sans-serif" font-size="13" lengthAdjust="spacingAndGlyphs" textLength="39" x="134" y="67.1045">Login()</text><rect fill="none" height="430.2422" style="stroke: #000000; stroke-width: 2.0;" width="498" x="13" y="86.9609"/><polygon fill="#EEEEEE" points="13,86.9609,74,86.9609,74,94.9609,64,104.9609,13,104.9609,13,86.9609" style="stroke: #000000; stroke-width: 2.0;"/><text fill="#000000" font-family="sans-serif" font-size="13" font-weight="bold" lengthAdjust="spacingAndGlyphs" textLength="16" x="28" y="101.4561">alt</text><text fill="#000000" font-family="sans-serif" font-size="11" font-weight="bold" lengthAdjust="spacingAndGlyphs" textLength="105" x="89" y="100.3799">[Database is ready]</text><line style="stroke: #A80036; stroke-width: 1.0;" x1="369" x2="411" y1="127.6641" y2="127.6641"/><line style="stroke: #A80036; stroke-width: 1.0;" x1="411" x2="411" y1="127.6641" y2="140.6641"/><line style="stroke: #A80036; stroke-width: 1.0;" x1="370" x2="411" y1="140.6641" y2="140.6641"/><polygon fill="#A80036" points="380,136.6641,370,140.6641,380,144.6641,376,140.6641" style="stroke: #A80036; stroke-width: 1.0;"/><text fill="#000000" font-family="sans-serif" font-size="13" font-weight="bold" lengthAdjust="spacingAndGlyphs" textLength="7" x="376" y="122.8076">2</text><text fill="#000000" font-family="sans-serif" font-size="13" lengthAdjust="spacingAndGlyphs" textLength="112" x="387" y="122.8076">HashingPassword()</text><rect fill="none" height="322.1875" style="stroke: #000000; stroke-width: 2.0;" width="446" x="23" y="155.6641"/><polygon fill="#EEEEEE" points="23,155.6641,84,155.6641,84,163.6641,74,173.6641,23,173.6641,23,155.6641" style="stroke: #000000; stroke-width: 2.0;"/><text fill="#000000" font-family="sans-serif" font-size="13" font-weight="bold" lengthAdjust="spacingAndGlyphs" textLength="16" x="38" y="170.1592">alt</text><text fill="#000000" font-family="sans-serif" font-size="11" font-weight="bold" lengthAdjust="spacingAndGlyphs" textLength="220" x="99" y="169.083">[UserCompanyPass, UserPersonalPass,</text><text fill="#000000" font-family="sans-serif" font-size="11" font-weight="bold" lengthAdjust="spacingAndGlyphs" textLength="211" x="102" y="182.9189">UserPassWord, NOT fined in database]</text><polygon fill="#A80036" points="127,204.6875,117,208.6875,127,212.6875,123,208.6875" style="stroke: #A80036; stroke-width: 1.0;"/><line style="stroke: #A80036; stroke-width: 1.0; stroke-dasharray: 2.0,2.0;" x1="121" x2="368" y1="208.6875" y2="208.6875"/><text fill="#000000" font-family="sans-serif" font-size="13" font-weight="bold" lengthAdjust="spacingAndGlyphs" textLength="7" x="133" y="204.1826">3</text><text fill="#000000" font-family="sans-serif" font-size="13" lengthAdjust="spacingAndGlyphs" textLength="140" x="144" y="204.1826">(UNDEFINED_USER) -4</text><line style="stroke: #000000; stroke-width: 1.0; stroke-dasharray: 2.0,2.0;" x1="23" x2="469" y1="218.0391" y2="218.0391"/><rect fill="none" height="244.8125" style="stroke: #000000; stroke-width: 2.0;" width="426" x="33" y="226.0391"/><polygon fill="#EEEEEE" points="33,226.0391,94,226.0391,94,234.0391,84,244.0391,33,244.0391,33,226.0391" style="stroke: #000000; stroke-width: 2.0;"/><text fill="#000000" font-family="sans-serif" font-size="13" font-weight="bold" lengthAdjust="spacingAndGlyphs" textLength="16" x="48" y="240.5342">alt</text><text fill="#000000" font-family="sans-serif" font-size="11" font-weight="bold" lengthAdjust="spacingAndGlyphs" textLength="199" x="109" y="239.458">[Livreur (0) or Maintenance (1) user]</text><polygon fill="#A80036" points="127,262.3906,117,266.3906,127,270.3906,123,266.3906" style="stroke: #A80036; stroke-width: 1.0;"/><line style="stroke: #A80036; stroke-width: 1.0; stroke-dasharray: 2.0,2.0;" x1="121" x2="368" y1="266.3906" y2="266.3906"/><text fill="#000000" font-family="sans-serif" font-size="13" font-weight="bold" lengthAdjust="spacingAndGlyphs" textLength="7" x="133" y="261.8857">4</text><text fill="#000000" font-family="sans-serif" font-size="13" lengthAdjust="spacingAndGlyphs" textLength="55" x="144" y="261.8857">UserType</text><line style="stroke: #000000; stroke-width: 1.0; stroke-dasharray: 2.0,2.0;" x1="33" x2="459" y1="275.7422" y2="275.7422"/><rect fill="none" height="50.7031" style="stroke: #000000; stroke-width: 2.0;" width="406" x="43" y="283.7422"/><polygon fill="#EEEEEE" points="43,283.7422,104,283.7422,104,291.7422,94,301.7422,43,301.7422,43,283.7422" style="stroke: #000000; stroke-width: 2.0;"/><text fill="#000000" font-family="sans-serif" font-size="13" font-weight="bold" lengthAdjust="spacingAndGlyphs" textLength="16" x="58" y="298.2373">alt</text><text fill="#000000" font-family="sans-serif" font-size="11" font-weight="bold" lengthAdjust="spacingAndGlyphs" textLength="144" x="119" y="297.1611">[UserCompanyPass is OK]</text><line style="stroke: #000000; stroke-width: 1.0; stroke-dasharray: 2.0,2.0;" x1="43" x2="449" y1="303.0938" y2="303.0938"/><polygon fill="#A80036" points="127,322.0938,117,326.0938,127,330.0938,123,326.0938" style="stroke: #A80036; stroke-width: 1.0;"/><line style="stroke: #A80036; stroke-width: 1.0; stroke-dasharray: 2.0,2.0;" x1="121" x2="368" y1="326.0938" y2="326.0938"/><text fill="#000000" font-family="sans-serif" font-size="13" font-weight="bold" lengthAdjust="spacingAndGlyphs" textLength="7" x="133" y="321.5889">5</text><text fill="#000000" font-family="sans-serif" font-size="13" lengthAdjust="spacingAndGlyphs" textLength="213" x="144" y="321.5889">(UNDEFINED_COMPANY_PASS) -3</text><rect fill="none" height="50.7031" style="stroke: #000000; stroke-width: 2.0;" width="406" x="43" y="348.4453"/><polygon fill="#EEEEEE" points="43,348.4453,104,348.4453,104,356.4453,94,366.4453,43,366.4453,43,348.4453" style="stroke: #000000; stroke-width: 2.0;"/><text fill="#000000" font-family="sans-serif" font-size="13" font-weight="bold" lengthAdjust="spacingAndGlyphs" textLength="16" x="58" y="362.9404">alt</text><text fill="#000000" font-family="sans-serif" font-size="11" font-weight="bold" lengthAdjust="spacingAndGlyphs" textLength="141" x="119" y="361.8643">[UserPersonalPass is OK]</text><line style="stroke: #000000; stroke-width: 1.0; stroke-dasharray: 2.0,2.0;" x1="43" x2="449" y1="367.7969" y2="367.7969"/><polygon fill="#A80036" points="127,386.7969,117,390.7969,127,394.7969,123,390.7969" style="stroke: #A80036; stroke-width: 1.0;"/><line style="stroke: #A80036; stroke-width: 1.0; stroke-dasharray: 2.0,2.0;" x1="121" x2="368" y1="390.7969" y2="390.7969"/><text fill="#000000" font-family="sans-serif" font-size="13" font-weight="bold" lengthAdjust="spacingAndGlyphs" textLength="7" x="133" y="386.292">6</text><text fill="#000000" font-family="sans-serif" font-size="13" lengthAdjust="spacingAndGlyphs" textLength="218" x="144" y="386.292">(UNDEFINED_PERSONAL_PASS) -3</text><rect fill="none" height="50.7031" style="stroke: #000000; stroke-width: 2.0;" width="406" x="43" y="413.1484"/><polygon fill="#EEEEEE" points="43,413.1484,104,413.1484,104,421.1484,94,431.1484,43,431.1484,43,413.1484" style="stroke: #000000; stroke-width: 2.0;"/><text fill="#000000" font-family="sans-serif" font-size="13" font-weight="bold" lengthAdjust="spacingAndGlyphs" textLength="16" x="58" y="427.6436">alt</text><text fill="#000000" font-family="sans-serif" font-size="11" font-weight="bold" lengthAdjust="spacingAndGlyphs" textLength="121" x="119" y="426.5674">[UserPassWord is OK]</text><line style="stroke: #000000; stroke-width: 1.0; stroke-dasharray: 2.0,2.0;" x1="43" x2="449" y1="432.5" y2="432.5"/><polygon fill="#A80036" points="127,451.5,117,455.5,127,459.5,123,455.5" style="stroke: #A80036; stroke-width: 1.0;"/><line style="stroke: #A80036; stroke-width: 1.0; stroke-dasharray: 2.0,2.0;" x1="121" x2="368" y1="455.5" y2="455.5"/><text fill="#000000" font-family="sans-serif" font-size="13" font-weight="bold" lengthAdjust="spacingAndGlyphs" textLength="7" x="133" y="450.9951">7</text><text fill="#000000" font-family="sans-serif" font-size="13" lengthAdjust="spacingAndGlyphs" textLength="181" x="144" y="450.9951">(UNDEFINED_PASSWORD) -1</text><line style="stroke: #000000; stroke-width: 1.0; stroke-dasharray: 2.0,2.0;" x1="13" x2="511" y1="485.8516" y2="485.8516"/><polygon fill="#A80036" points="127,504.8516,117,508.8516,127,512.8516,123,508.8516" style="stroke: #A80036; stroke-width: 1.0;"/><line style="stroke: #A80036; stroke-width: 1.0; stroke-dasharray: 2.0,2.0;" x1="121" x2="368" y1="508.8516" y2="508.8516"/><text fill="#000000" font-family="sans-serif" font-size="13" font-weight="bold" lengthAdjust="spacingAndGlyphs" textLength="7" x="133" y="504.3467">8</text><text fill="#000000" font-family="sans-serif" font-size="13" lengthAdjust="spacingAndGlyphs" textLength="163" x="144" y="504.3467">(No database connection) -5</text></g></svg>