<?xml version="1.0" encoding="UTF-8" standalone="yes"?><svg xmlns="http://www.w3.org/2000/svg" xmlns:xlink="http://www.w3.org/1999/xlink" height="219px" style="width:388px;height:219px;" version="1.1" viewBox="0 0 388 219" width="388px"><defs><filter height="300%" id="f1" width="300%" x="-1" y="-1"><feGaussianBlur result="blurOut" stdDeviation="2.0"/><feColorMatrix in="blurOut" result="blurOut2" type="matrix" values="0 0 0 0 0 0 0 0 0 0 0 0 0 0 0 0 0 0 .4 0"/><feOffset dx="4.0" dy="4.0" in="blurOut2" result="blurOut3"/><feBlend in="SourceGraphic" in2="blurOut3" mode="normal"/></filter></defs><g><rect fill="#0000FF" filter="url(#f1)" height="82.3516" style="stroke: #A80036; stroke-width: 1.0;" width="10" x="229" y="71.6094"/><rect fill="#00A0FF" filter="url(#f1)" height="28" style="stroke: #A80036; stroke-width: 1.0;" width="10" x="234" y="125.9609"/><line style="stroke: #A80036; stroke-width: 1.0; stroke-dasharray: 5.0,5.0;" x1="71" x2="71" y1="39.6094" y2="179.6641"/><line style="stroke: #A80036; stroke-width: 1.0; stroke-dasharray: 5.0,5.0;" x1="234" x2="234" y1="39.6094" y2="179.6641"/><rect fill="#FEFECE" filter="url(#f1)" height="31.6094" style="stroke: #A80036; stroke-width: 1.5;" width="122" x="8" y="3"/><text fill="#000000" font-family="sans-serif" font-size="14" lengthAdjust="spacingAndGlyphs" textLength="108" x="15" y="24.5332">ConsoleWindows</text><rect fill="#FEFECE" filter="url(#f1)" height="31.6094" style="stroke: #A80036; stroke-width: 1.5;" width="122" x="8" y="178.6641"/><text fill="#000000" font-family="sans-serif" font-size="14" lengthAdjust="spacingAndGlyphs" textLength="108" x="15" y="200.1973">ConsoleWindows</text><rect fill="#FEFECE" filter="url(#f1)" height="31.6094" style="stroke: #A80036; stroke-width: 1.5;" width="136" x="164" y="3"/><text fill="#000000" font-family="sans-serif" font-size="14" lengthAdjust="spacingAndGlyphs" textLength="122" x="171" y="24.5332">CSQLite_Local_DB</text><rect fill="#FEFECE" filter="url(#f1)" height="31.6094" style="stroke: #A80036; stroke-width: 1.5;" width="136" x="164" y="178.6641"/><text fill="#000000" font-family="sans-serif" font-size="14" lengthAdjust="spacingAndGlyphs" textLength="122" x="171" y="200.1973">CSQLite_Local_DB</text><rect fill="#0000FF" filter="url(#f1)" height="82.3516" style="stroke: #A80036; stroke-width: 1.0;" width="10" x="229" y="71.6094"/><rect fill="#00A0FF" filter="url(#f1)" height="28" style="stroke: #A80036; stroke-width: 1.0;" width="10" x="234" y="125.9609"/><polygon fill="#A80036" points="217,67.6094,227,71.6094,217,75.6094,221,71.6094" style="stroke: #A80036; stroke-width: 1.0;"/><line style="stroke: #A80036; stroke-width: 1.0;" x1="71" x2="223" y1="71.6094" y2="71.6094"/><text fill="#000000" font-family="sans-serif" font-size="13" font-weight="bold" lengthAdjust="spacingAndGlyphs" textLength="7" x="78" y="67.1045">1</text><text fill="#000000" font-family="sans-serif" font-size="13" lengthAdjust="spacingAndGlyphs" textLength="128" x="89" y="67.1045">~CSQLite_Local_DB()</text><line style="stroke: #A80036; stroke-width: 1.0;" x1="244" x2="286" y1="118.6641" y2="118.6641"/><line style="stroke: #A80036; stroke-width: 1.0;" x1="286" x2="286" y1="118.6641" y2="131.6641"/><line style="stroke: #A80036; stroke-width: 1.0;" x1="245" x2="286" y1="131.6641" y2="131.6641"/><polygon fill="#A80036" points="255,127.6641,245,131.6641,255,135.6641,251,131.6641" style="stroke: #A80036; stroke-width: 1.0;"/><text fill="#000000" font-family="sans-serif" font-size="13" font-weight="bold" lengthAdjust="spacingAndGlyphs" textLength="7" x="251" y="105.6318">2</text><text fill="#000000" font-family="sans-serif" font-size="13" lengthAdjust="spacingAndGlyphs" textLength="109" x="262" y="97.4561">if database opened</text><text fill="#000000" font-family="sans-serif" font-size="13" lengthAdjust="spacingAndGlyphs" textLength="121" x="266" y="113.8076">then, close database</text><line style="stroke: #A80036; stroke-width: 2.0;" x1="225" x2="243" y1="151.9609" y2="169.9609"/><line style="stroke: #A80036; stroke-width: 2.0;" x1="225" x2="243" y1="169.9609" y2="151.9609"/></g></svg>