<?xml version="1.0" encoding="UTF-8" standalone="no"?>
<!DOCTYPE svg PUBLIC "-//W3C//DTD SVG 1.1//EN"
 "http://www.w3.org/Graphics/SVG/1.1/DTD/svg11.dtd">
<!-- Generated by graphviz version 2.38.0 (20140413.2041)
 -->
<!-- Title: S:/QT_CREATOR/Locker_Control/customxml.h Pages: 1 -->
<svg width="242pt" height="86pt"
 viewBox="0.00 0.00 241.50 86.00" xmlns="http://www.w3.org/2000/svg" xmlns:xlink="http://www.w3.org/1999/xlink">
<g id="graph0" class="graph" transform="scale(1 1) rotate(0) translate(4 82)">
<title>S:/QT_CREATOR/Locker_Control/customxml.h</title>
<!-- Node1 -->
<g id="node1" class="node"><title>Node1</title>
<polygon fill="#bfbfbf" stroke="black" points="62,-53.5 62,-77.5 157,-77.5 157,-53.5 62,-53.5"/>
<text text-anchor="start" x="70" y="-67.9" font-family="Helvetica,sans-Serif" font-size="7.00">S:/QT_CREATOR/Locker</text>
<text text-anchor="middle" x="109.5" y="-59.9" font-family="Helvetica,sans-Serif" font-size="7.00">_Control/customxml.h</text>
</g>
<!-- Node2 -->
<g id="node2" class="node"><title>Node2</title>
<polygon fill="none" stroke="#bfbfbf" points="0,-0.5 0,-16.5 35,-16.5 35,-0.5 0,-0.5"/>
<text text-anchor="middle" x="17.5" y="-6.9" font-family="Helvetica,sans-Serif" font-size="7.00">QtXml</text>
</g>
<!-- Node1&#45;&gt;Node2 -->
<g id="edge1" class="edge"><title>Node1&#45;&gt;Node2</title>
<path fill="none" stroke="midnightblue" d="M90.8824,-53.3699C75.6641,-44.272 54.1591,-31.4158 38.3622,-21.972"/>
<polygon fill="midnightblue" stroke="midnightblue" points="39.7504,-18.7242 29.3713,-16.597 36.1586,-24.7324 39.7504,-18.7242"/>
</g>
<!-- Node3 -->
<g id="node3" class="node"><title>Node3</title>
<polygon fill="none" stroke="#bfbfbf" points="53.5,-0.5 53.5,-16.5 105.5,-16.5 105.5,-0.5 53.5,-0.5"/>
<text text-anchor="middle" x="79.5" y="-6.9" font-family="Helvetica,sans-Serif" font-size="7.00">QIODevice</text>
</g>
<!-- Node1&#45;&gt;Node3 -->
<g id="edge2" class="edge"><title>Node1&#45;&gt;Node3</title>
<path fill="none" stroke="midnightblue" d="M103.429,-53.3699C99.1,-45.4334 93.211,-34.6369 88.3585,-25.7405"/>
<polygon fill="midnightblue" stroke="midnightblue" points="91.3198,-23.8604 83.4586,-16.7575 85.1746,-27.2124 91.3198,-23.8604"/>
</g>
<!-- Node4 -->
<g id="node4" class="node"><title>Node4</title>
<polygon fill="none" stroke="#bfbfbf" points="124,-0.5 124,-16.5 157,-16.5 157,-0.5 124,-0.5"/>
<text text-anchor="middle" x="140.5" y="-6.9" font-family="Helvetica,sans-Serif" font-size="7.00">QFile</text>
</g>
<!-- Node1&#45;&gt;Node4 -->
<g id="edge3" class="edge"><title>Node1&#45;&gt;Node4</title>
<path fill="none" stroke="midnightblue" d="M115.773,-53.3699C120.247,-45.4334 126.332,-34.6369 131.346,-25.7405"/>
<polygon fill="midnightblue" stroke="midnightblue" points="134.548,-27.1876 136.409,-16.7575 128.45,-23.7504 134.548,-27.1876"/>
</g>
<!-- Node5 -->
<g id="node5" class="node"><title>Node5</title>
<polygon fill="none" stroke="#bfbfbf" points="175.5,-0.5 175.5,-16.5 233.5,-16.5 233.5,-0.5 175.5,-0.5"/>
<text text-anchor="middle" x="204.5" y="-6.9" font-family="Helvetica,sans-Serif" font-size="7.00">QTextStream</text>
</g>
<!-- Node1&#45;&gt;Node5 -->
<g id="edge4" class="edge"><title>Node1&#45;&gt;Node5</title>
<path fill="none" stroke="midnightblue" d="M128.725,-53.3699C144.587,-44.1862 167.065,-31.1729 183.418,-21.7056"/>
<polygon fill="midnightblue" stroke="midnightblue" points="185.341,-24.6364 192.242,-16.597 181.834,-18.5784 185.341,-24.6364"/>
</g>
</g>
</svg>
