<?xml version="1.0" encoding="UTF-8" standalone="no"?>
<!DOCTYPE svg PUBLIC "-//W3C//DTD SVG 1.1//EN"
 "http://www.w3.org/Graphics/SVG/1.1/DTD/svg11.dtd">
<!-- Generated by graphviz version 2.38.0 (20140413.2041)
 -->
<!-- Title: S:/QT_CREATOR/Locker_Control/customtreewidget.h Pages: 1 -->
<!--zoomable 216 -->
<svg id="main" version="1.1" xmlns="http://www.w3.org/2000/svg" xmlns:xlink="http://www.w3.org/1999/xlink" xml:space="preserve" onload="init(evt)">
<style type="text/css"><![CDATA[
.edge:hover path { stroke: red; }
.edge:hover polygon { stroke: red; fill: red; }
]]></style>
<script type="text/javascript"><![CDATA[
var edges = document.getElementsByTagName('g');
if (edges && edges.length) {
  for (var i=0;i<edges.length;i++) {
    if (edges[i].id.substr(0,4)=='edge') {
      edges[i].setAttribute('class','edge');
    }
  }
}
]]></script>
        <defs>
                <circle id="rim" cx="0" cy="0" r="7"/>
                <circle id="rim2" cx="0" cy="0" r="3.5"/>
                <g id="zoomPlus">
                        <use xlink:href="#rim" target="_top" fill="#404040">
                                <set attributeName="fill" to="#808080" begin="zoomplus.mouseover" end="zoomplus.mouseout"/>
                        </use>
                        <path d="M-4,0h8M0,-4v8" fill="none" stroke="white" stroke-width="1.5" pointer-events="none"/>
                </g>
                <g id="zoomMin">
                        <use xlink:href="#rim" target="_top" fill="#404040">
                                <set attributeName="fill" to="#808080" begin="zoomminus.mouseover" end="zoomminus.mouseout"/>
                        </use>
                        <path d="M-4,0h8" fill="none" stroke="white" stroke-width="1.5" pointer-events="none"/>
                </g>
                <g id="dirArrow">
                        <path fill="none" stroke="white" stroke-width="1.5" d="M0,-3.0v7 M-2.5,-0.5L0,-3.0L2.5,-0.5"/>
                </g>
               <g id="resetDef">
                       <use xlink:href="#rim2" target="_top" fill="#404040">
                               <set attributeName="fill" to="#808080" begin="reset.mouseover" end="reset.mouseout"/>
                       </use>
               </g>
        </defs>

<script type="text/javascript">
var viewWidth = 756;
var viewHeight = 216;
var sectionId = 'dynsection-1';
</script>
<script xlink:href="svgpan.js" target="_top"/>
<svg id="graph" class="graph">
<g id="viewport">
<title>S:/QT_CREATOR/Locker_Control/customtreewidget.h</title>
<!-- Node1 -->
<g id="node1" class="node"><title>Node1</title>
<polygon fill="#bfbfbf" stroke="black" points="440,-183.5 440,-207.5 546,-207.5 546,-183.5 440,-183.5"/>
<text text-anchor="start" x="448" y="-197.9" font-family="Helvetica,sans-Serif" font-size="7.00">S:/QT_CREATOR/Locker</text>
<text text-anchor="middle" x="493" y="-189.9" font-family="Helvetica,sans-Serif" font-size="7.00">_Control/customtreewidget.h</text>
</g>
<!-- Node2 -->
<g id="node2" class="node"><title>Node2</title>
<g id="a_node2"><a xlink:href="showpackagebox_8h.html" target="_top" target="_top" xlink:title="S:/QT_CREATOR/Locker\l_Control/showpackagebox.h">
<polygon fill="none" stroke="black" points="118,-122.5 118,-146.5 222,-146.5 222,-122.5 118,-122.5"/>
<text text-anchor="start" x="126" y="-136.9" font-family="Helvetica,sans-Serif" font-size="7.00">S:/QT_CREATOR/Locker</text>
<text text-anchor="middle" x="170" y="-128.9" font-family="Helvetica,sans-Serif" font-size="7.00">_Control/showpackagebox.h</text>
</a>
</g>
</g>
<!-- Node1&#45;&gt;Node2 -->
<g id="edge1" class="edge"><title>Node1&#45;&gt;Node2</title>
<path fill="none" stroke="midnightblue" d="M429.825,-182.96C369.188,-171.884 278.696,-155.355 222.078,-145.013"/>
<polygon fill="midnightblue" stroke="midnightblue" points="429.197,-186.403 439.663,-184.757 430.455,-179.517 429.197,-186.403"/>
</g>
<!-- Node7 -->
<g id="node7" class="node"><title>Node7</title>
<g id="a_node7"><a xlink:href="stowpackages_8h.html" target="_top" target="_top" xlink:title="S:/QT_CREATOR/Locker\l_Control/stowpackages.h">
<polygon fill="none" stroke="red" points="350.5,-61.5 350.5,-85.5 445.5,-85.5 445.5,-61.5 350.5,-61.5"/>
<text text-anchor="start" x="358.5" y="-75.9" font-family="Helvetica,sans-Serif" font-size="7.00">S:/QT_CREATOR/Locker</text>
<text text-anchor="middle" x="398" y="-67.9" font-family="Helvetica,sans-Serif" font-size="7.00">_Control/stowpackages.h</text>
</a>
</g>
</g>
<!-- Node1&#45;&gt;Node7 -->
<g id="edge8" class="edge"><title>Node1&#45;&gt;Node7</title>
<path fill="none" stroke="midnightblue" d="M477.787,-175.283C457.68,-149.885 422.919,-105.976 406.746,-85.5475"/>
<polygon fill="midnightblue" stroke="midnightblue" points="475.282,-177.758 484.233,-183.426 480.77,-173.413 475.282,-177.758"/>
</g>
<!-- Node8 -->
<g id="node8" class="node"><title>Node8</title>
<g id="a_node8"><a xlink:href="openemptybox_8h.html" target="_top" target="_top" xlink:title="S:/QT_CREATOR/Locker\l_Control/openemptybox.h">
<polygon fill="none" stroke="red" points="464,-61.5 464,-85.5 562,-85.5 562,-61.5 464,-61.5"/>
<text text-anchor="start" x="472" y="-75.9" font-family="Helvetica,sans-Serif" font-size="7.00">S:/QT_CREATOR/Locker</text>
<text text-anchor="middle" x="513" y="-67.9" font-family="Helvetica,sans-Serif" font-size="7.00">_Control/openemptybox.h</text>
</a>
</g>
</g>
<!-- Node1&#45;&gt;Node8 -->
<g id="edge10" class="edge"><title>Node1&#45;&gt;Node8</title>
<path fill="none" stroke="midnightblue" d="M496.542,-173.249C500.817,-147.6 507.843,-105.441 511.159,-85.5475"/>
<polygon fill="midnightblue" stroke="midnightblue" points="493.037,-172.986 494.846,-183.426 499.942,-174.137 493.037,-172.986"/>
</g>
<!-- Node9 -->
<g id="node9" class="node"><title>Node9</title>
<g id="a_node9"><a xlink:href="doorsmanager_8h.html" target="_top" target="_top" xlink:title="S:/QT_CREATOR/Locker\l_Control/doorsmanager.h">
<polygon fill="none" stroke="red" points="521.5,-122.5 521.5,-146.5 616.5,-146.5 616.5,-122.5 521.5,-122.5"/>
<text text-anchor="start" x="529.5" y="-136.9" font-family="Helvetica,sans-Serif" font-size="7.00">S:/QT_CREATOR/Locker</text>
<text text-anchor="middle" x="569" y="-128.9" font-family="Helvetica,sans-Serif" font-size="7.00">_Control/doorsmanager.h</text>
</a>
</g>
</g>
<!-- Node1&#45;&gt;Node9 -->
<g id="edge12" class="edge"><title>Node1&#45;&gt;Node9</title>
<path fill="none" stroke="midnightblue" d="M515.559,-176.987C528.265,-167.123 543.746,-155.105 554.769,-146.548"/>
<polygon fill="midnightblue" stroke="midnightblue" points="513.048,-174.506 507.295,-183.403 517.34,-180.035 513.048,-174.506"/>
</g>
<!-- Node10 -->
<g id="node10" class="node"><title>Node10</title>
<g id="a_node10"><a xlink:href="customtreewidget_8cpp.html" target="_top" target="_top" xlink:title="S:/QT_CREATOR/Locker\l_Control/customtreewidget.cpp">
<polygon fill="none" stroke="black" points="634.5,-122.5 634.5,-146.5 747.5,-146.5 747.5,-122.5 634.5,-122.5"/>
<text text-anchor="start" x="642.5" y="-136.9" font-family="Helvetica,sans-Serif" font-size="7.00">S:/QT_CREATOR/Locker</text>
<text text-anchor="middle" x="691" y="-128.9" font-family="Helvetica,sans-Serif" font-size="7.00">_Control/customtreewidget.cpp</text>
</a>
</g>
</g>
<!-- Node1&#45;&gt;Node10 -->
<g id="edge14" class="edge"><title>Node1&#45;&gt;Node10</title>
<path fill="none" stroke="midnightblue" d="M540.183,-180.44C575.012,-170.062 621.756,-156.133 653.925,-146.548"/>
<polygon fill="midnightblue" stroke="midnightblue" points="538.826,-177.193 530.242,-183.403 540.825,-183.901 538.826,-177.193"/>
</g>
<!-- Node3 -->
<g id="node3" class="node"><title>Node3</title>
<g id="a_node3"><a xlink:href="customer_8h.html" target="_top" target="_top" xlink:title="S:/QT_CREATOR/Locker\l_Control/customer.h">
<polygon fill="none" stroke="red" points="46.5,-61.5 46.5,-85.5 141.5,-85.5 141.5,-61.5 46.5,-61.5"/>
<text text-anchor="start" x="54.5" y="-75.9" font-family="Helvetica,sans-Serif" font-size="7.00">S:/QT_CREATOR/Locker</text>
<text text-anchor="middle" x="94" y="-67.9" font-family="Helvetica,sans-Serif" font-size="7.00">_Control/customer.h</text>
</a>
</g>
</g>
<!-- Node2&#45;&gt;Node3 -->
<g id="edge2" class="edge"><title>Node2&#45;&gt;Node3</title>
<path fill="none" stroke="midnightblue" d="M147.441,-115.987C134.735,-106.123 119.254,-94.1048 108.231,-85.5477"/>
<polygon fill="midnightblue" stroke="midnightblue" points="145.66,-119.035 155.705,-122.403 149.952,-113.506 145.66,-119.035"/>
</g>
<!-- Node4 -->
<g id="node4" class="node"><title>Node4</title>
<g id="a_node4"><a xlink:href="consolewindows_8h.html" target="_top" target="_top" xlink:title="S:/QT_CREATOR/Locker\l_Control/consolewindows.h">
<polygon fill="none" stroke="red" points="347.5,-0.5 347.5,-24.5 448.5,-24.5 448.5,-0.5 347.5,-0.5"/>
<text text-anchor="start" x="355.5" y="-14.9" font-family="Helvetica,sans-Serif" font-size="7.00">S:/QT_CREATOR/Locker</text>
<text text-anchor="middle" x="398" y="-6.9" font-family="Helvetica,sans-Serif" font-size="7.00">_Control/consolewindows.h</text>
</a>
</g>
</g>
<!-- Node2&#45;&gt;Node4 -->
<g id="edge5" class="edge"><title>Node2&#45;&gt;Node4</title>
<path fill="none" stroke="midnightblue" d="M169.942,-112.247C171.074,-96.0086 175.325,-74.2335 189,-61 211.261,-39.4582 292.974,-25.8447 347.388,-18.9588"/>
<polygon fill="midnightblue" stroke="midnightblue" points="166.437,-112.313 169.579,-122.431 173.433,-112.562 166.437,-112.313"/>
</g>
<!-- Node5 -->
<g id="node5" class="node"><title>Node5</title>
<g id="a_node5"><a xlink:href="showpackagebox_8cpp.html" target="_top" target="_top" xlink:title="S:/QT_CREATOR/Locker\l_Control/showpackagebox.cpp">
<polygon fill="none" stroke="black" points="0,-0.5 0,-24.5 112,-24.5 112,-0.5 0,-0.5"/>
<text text-anchor="start" x="8" y="-14.9" font-family="Helvetica,sans-Serif" font-size="7.00">S:/QT_CREATOR/Locker</text>
<text text-anchor="middle" x="56" y="-6.9" font-family="Helvetica,sans-Serif" font-size="7.00">_Control/showpackagebox.cpp</text>
</a>
</g>
</g>
<!-- Node2&#45;&gt;Node5 -->
<g id="edge6" class="edge"><title>Node2&#45;&gt;Node5</title>
<path fill="none" stroke="midnightblue" d="M107.763,-127.021C81.4277,-120.847 53.1559,-108.925 37,-86 23.733,-67.1741 37.8946,-39.7228 47.8984,-24.573"/>
<polygon fill="midnightblue" stroke="midnightblue" points="107.225,-130.485 117.732,-129.117 108.666,-123.634 107.225,-130.485"/>
</g>
<!-- Node6 -->
<g id="node6" class="node"><title>Node6</title>
<g id="a_node6"><a xlink:href="threaddeleteextractcode_8cpp.html" target="_top" target="_top" xlink:title="S:/QT_CREATOR/Locker\l_Control/threaddeleteextractcode.cpp">
<polygon fill="none" stroke="black" points="198,-61.5 198,-85.5 332,-85.5 332,-61.5 198,-61.5"/>
<text text-anchor="start" x="206" y="-75.9" font-family="Helvetica,sans-Serif" font-size="7.00">S:/QT_CREATOR/Locker</text>
<text text-anchor="middle" x="265" y="-67.9" font-family="Helvetica,sans-Serif" font-size="7.00">_Control/threaddeleteextractcode.cpp</text>
</a>
</g>
</g>
<!-- Node2&#45;&gt;Node6 -->
<g id="edge7" class="edge"><title>Node2&#45;&gt;Node6</title>
<path fill="none" stroke="midnightblue" d="M196.382,-117.115C212.585,-107.053 232.903,-94.4339 247.211,-85.5477"/>
<polygon fill="midnightblue" stroke="midnightblue" points="194.517,-114.153 187.869,-122.403 198.21,-120.1 194.517,-114.153"/>
</g>
<!-- Node3&#45;&gt;Node4 -->
<g id="edge3" class="edge"><title>Node3&#45;&gt;Node4</title>
<path fill="none" stroke="midnightblue" d="M151.69,-61.3037C208.201,-50.336 293.468,-33.7875 347.407,-23.3191"/>
<polygon fill="midnightblue" stroke="midnightblue" points="150.984,-57.8751 141.834,-63.2163 152.318,-64.7469 150.984,-57.8751"/>
</g>
<!-- Node3&#45;&gt;Node5 -->
<g id="edge4" class="edge"><title>Node3&#45;&gt;Node5</title>
<path fill="none" stroke="midnightblue" d="M81.4198,-52.9676C75.3355,-43.5209 68.2558,-32.5288 63.1155,-24.5477"/>
<polygon fill="midnightblue" stroke="midnightblue" points="78.4952,-54.8906 86.8525,-61.4026 84.3802,-51.1002 78.4952,-54.8906"/>
</g>
<!-- Node7&#45;&gt;Node4 -->
<g id="edge9" class="edge"><title>Node7&#45;&gt;Node4</title>
<path fill="none" stroke="midnightblue" d="M398,-51.198C398,-42.1726 398,-32.0351 398,-24.5477"/>
<polygon fill="midnightblue" stroke="midnightblue" points="394.5,-51.4025 398,-61.4026 401.5,-51.4026 394.5,-51.4025"/>
</g>
<!-- Node8&#45;&gt;Node4 -->
<g id="edge11" class="edge"><title>Node8&#45;&gt;Node4</title>
<path fill="none" stroke="midnightblue" d="M482.417,-56.8098C462.593,-46.6389 437.255,-33.6396 419.534,-24.5477"/>
<polygon fill="midnightblue" stroke="midnightblue" points="480.874,-59.9518 491.369,-61.4026 484.07,-53.7237 480.874,-59.9518"/>
</g>
<!-- Node9&#45;&gt;Node4 -->
<g id="edge13" class="edge"><title>Node9&#45;&gt;Node4</title>
<path fill="none" stroke="midnightblue" d="M576.076,-112.496C579.969,-96.7396 582.041,-75.4815 571,-61 556.129,-41.495 494.073,-28.0109 448.521,-20.5221"/>
<polygon fill="midnightblue" stroke="midnightblue" points="572.635,-111.796 573.229,-122.374 579.361,-113.734 572.635,-111.796"/>
</g>
</g>
</svg>
        <g id="navigator" transform="translate(0 0)" fill="#404254">
                <rect fill="#f2f5e9" fill-opacity="0.5" stroke="#606060" stroke-width=".5" x="0" y="0" width="60" height="60"/>
                <use id="zoomplus" xlink:href="#zoomPlus" target="_top" x="17" y="9" onmousedown="handleZoom(evt,'in')"/>
                <use id="zoomminus" xlink:href="#zoomMin" target="_top" x="42" y="9" onmousedown="handleZoom(evt,'out')"/>
                <use id="reset" xlink:href="#resetDef" target="_top" x="30" y="36" onmousedown="handleReset()"/>
                <g id="arrowUp" xlink:href="#dirArrow" target="_top" transform="translate(30 24)" onmousedown="handlePan(0,-1)">
                  <use xlink:href="#rim" target="_top" fill="#404040">
                        <set attributeName="fill" to="#808080" begin="arrowUp.mouseover" end="arrowUp.mouseout"/>
                  </use>
                  <path fill="none" stroke="white" stroke-width="1.5" d="M0,-3.0v7 M-2.5,-0.5L0,-3.0L2.5,-0.5"/>
                </g>
                <g id="arrowRight" xlink:href="#dirArrow" target="_top" transform="rotate(90) translate(36 -43)" onmousedown="handlePan(1,0)">
                  <use xlink:href="#rim" target="_top" fill="#404040">
                        <set attributeName="fill" to="#808080" begin="arrowRight.mouseover" end="arrowRight.mouseout"/>
                  </use>
                  <path fill="none" stroke="white" stroke-width="1.5" d="M0,-3.0v7 M-2.5,-0.5L0,-3.0L2.5,-0.5"/>
                </g>
                <g id="arrowDown" xlink:href="#dirArrow" target="_top" transform="rotate(180) translate(-30 -48)" onmousedown="handlePan(0,1)">
                  <use xlink:href="#rim" target="_top" fill="#404040">
                        <set attributeName="fill" to="#808080" begin="arrowDown.mouseover" end="arrowDown.mouseout"/>
                  </use>
                  <path fill="none" stroke="white" stroke-width="1.5" d="M0,-3.0v7 M-2.5,-0.5L0,-3.0L2.5,-0.5"/>
                </g>
                <g id="arrowLeft" xlink:href="#dirArrow" target="_top" transform="rotate(270) translate(-36 17)" onmousedown="handlePan(-1,0)">
                  <use xlink:href="#rim" target="_top" fill="#404040">
                        <set attributeName="fill" to="#808080" begin="arrowLeft.mouseover" end="arrowLeft.mouseout"/>
                  </use>
                  <path fill="none" stroke="white" stroke-width="1.5" d="M0,-3.0v7 M-2.5,-0.5L0,-3.0L2.5,-0.5"/>
                </g>
        </g>
        <svg viewBox="0 0 15 15" width="100%" height="30px" preserveAspectRatio="xMaxYMin meet">
         <g id="arrow_out" transform="scale(0.3 0.3)">
          <a xlink:href="customtreewidget_8h__dep__incl_org.svg" target="_top" target="_base">
           <rect id="button" ry="5" rx="5" y="6" x="6" height="38" width="38"
                fill="#f2f5e9" fill-opacity="0.5" stroke="#606060" stroke-width="1.0"/>
           <path id="arrow"
             d="M 11.500037,31.436501 C 11.940474,20.09759 22.043105,11.32322 32.158766,21.979434 L 37.068811,17.246167 C 37.068811,17.246167 37.088388,32 37.088388,32 L 22.160133,31.978069 C 22.160133,31.978069 26.997745,27.140456 26.997745,27.140456 C 18.528582,18.264221 13.291696,25.230495 11.500037,31.436501 z"
             style="fill:#404040;"/>
          </a>
         </g>
        </svg>
</svg>
