<?xml version="1.0" encoding="UTF-8" standalone="no"?>
<!DOCTYPE svg PUBLIC "-//W3C//DTD SVG 1.1//EN"
 "http://www.w3.org/Graphics/SVG/1.1/DTD/svg11.dtd">
<!-- Generated by graphviz version 2.38.0 (20140413.2041)
 -->
<!-- Title: S:/QT_CREATOR/Locker_Control/customxml.h Pages: 1 -->
<!--zoomable 338 -->
<svg id="main" version="1.1" xmlns="http://www.w3.org/2000/svg" xmlns:xlink="http://www.w3.org/1999/xlink" xml:space="preserve" onload="init(evt)">
<style type="text/css"><![CDATA[
.edge:hover path { stroke: red; }
.edge:hover polygon { stroke: red; fill: red; }
]]></style>
<script type="text/javascript"><![CDATA[
var edges = document.getElementsByTagName('g');
if (edges && edges.length) {
  for (var i=0;i<edges.length;i++) {
    if (edges[i].id.substr(0,4)=='edge') {
      edges[i].setAttribute('class','edge');
    }
  }
}
]]></script>
        <defs>
                <circle id="rim" cx="0" cy="0" r="7"/>
                <circle id="rim2" cx="0" cy="0" r="3.5"/>
                <g id="zoomPlus">
                        <use xlink:href="#rim" target="_top" fill="#404040">
                                <set attributeName="fill" to="#808080" begin="zoomplus.mouseover" end="zoomplus.mouseout"/>
                        </use>
                        <path d="M-4,0h8M0,-4v8" fill="none" stroke="white" stroke-width="1.5" pointer-events="none"/>
                </g>
                <g id="zoomMin">
                        <use xlink:href="#rim" target="_top" fill="#404040">
                                <set attributeName="fill" to="#808080" begin="zoomminus.mouseover" end="zoomminus.mouseout"/>
                        </use>
                        <path d="M-4,0h8" fill="none" stroke="white" stroke-width="1.5" pointer-events="none"/>
                </g>
                <g id="dirArrow">
                        <path fill="none" stroke="white" stroke-width="1.5" d="M0,-3.0v7 M-2.5,-0.5L0,-3.0L2.5,-0.5"/>
                </g>
               <g id="resetDef">
                       <use xlink:href="#rim2" target="_top" fill="#404040">
                               <set attributeName="fill" to="#808080" begin="reset.mouseover" end="reset.mouseout"/>
                       </use>
               </g>
        </defs>

<script type="text/javascript">
var viewWidth = 580;
var viewHeight = 338;
var sectionId = 'dynsection-1';
</script>
<script xlink:href="svgpan.js" target="_top"/>
<svg id="graph" class="graph">
<g id="viewport">
<title>S:/QT_CREATOR/Locker_Control/customxml.h</title>
<!-- Node1 -->
<g id="node1" class="node"><title>Node1</title>
<polygon fill="#bfbfbf" stroke="black" points="300.612,-305.5 300.612,-329.5 395.612,-329.5 395.612,-305.5 300.612,-305.5"/>
<text text-anchor="start" x="308.612" y="-319.9" font-family="Helvetica,sans-Serif" font-size="7.00">S:/QT_CREATOR/Locker</text>
<text text-anchor="middle" x="348.112" y="-311.9" font-family="Helvetica,sans-Serif" font-size="7.00">_Control/customxml.h</text>
</g>
<!-- Node2 -->
<g id="node2" class="node"><title>Node2</title>
<g id="a_node2"><a xlink:href="threadsavedelivery_8h.html" target="_top" target="_top" xlink:title="S:/QT_CREATOR/Locker\l_Control/threadsavedelivery.h">
<polygon fill="none" stroke="black" points="106.112,-244.5 106.112,-268.5 218.112,-268.5 218.112,-244.5 106.112,-244.5"/>
<text text-anchor="start" x="114.112" y="-258.9" font-family="Helvetica,sans-Serif" font-size="7.00">S:/QT_CREATOR/Locker</text>
<text text-anchor="middle" x="162.112" y="-250.9" font-family="Helvetica,sans-Serif" font-size="7.00">_Control/threadsavedelivery.h</text>
</a>
</g>
</g>
<!-- Node1&#45;&gt;Node2 -->
<g id="edge1" class="edge"><title>Node1&#45;&gt;Node2</title>
<path fill="none" stroke="midnightblue" d="M303.367,-302.307C270.694,-291.943 227.029,-278.092 196.94,-268.548"/>
<polygon fill="midnightblue" stroke="midnightblue" points="302.536,-305.715 313.127,-305.403 304.653,-299.043 302.536,-305.715"/>
</g>
<!-- Node4 -->
<g id="node4" class="node"><title>Node4</title>
<g id="a_node4"><a xlink:href="consolewindows_8h.html" target="_top" target="_top" xlink:title="S:/QT_CREATOR/Locker\l_Control/consolewindows.h">
<polygon fill="none" stroke="red" points="152.612,-61.5 152.612,-85.5 253.612,-85.5 253.612,-61.5 152.612,-61.5"/>
<text text-anchor="start" x="160.612" y="-75.9" font-family="Helvetica,sans-Serif" font-size="7.00">S:/QT_CREATOR/Locker</text>
<text text-anchor="middle" x="203.112" y="-67.9" font-family="Helvetica,sans-Serif" font-size="7.00">_Control/consolewindows.h</text>
</a>
</g>
</g>
<!-- Node1&#45;&gt;Node4 -->
<g id="edge14" class="edge"><title>Node1&#45;&gt;Node4</title>
<path fill="none" stroke="midnightblue" d="M367.307,-298.135C403.449,-261.349 474.091,-177.416 429.112,-122 407.445,-95.3063 313.381,-83.0602 253.644,-77.8842"/>
<polygon fill="midnightblue" stroke="midnightblue" points="364.787,-295.705 360.172,-305.242 369.727,-300.664 364.787,-295.705"/>
</g>
<!-- Node7 -->
<g id="node7" class="node"><title>Node7</title>
<g id="a_node7"><a xlink:href="settingsystem_8h.html" target="_top" target="_top" xlink:title="S:/QT_CREATOR/Locker\l_Control/settingsystem.h">
<polygon fill="none" stroke="black" points="196.112,-183.5 196.112,-207.5 292.112,-207.5 292.112,-183.5 196.112,-183.5"/>
<text text-anchor="start" x="204.112" y="-197.9" font-family="Helvetica,sans-Serif" font-size="7.00">S:/QT_CREATOR/Locker</text>
<text text-anchor="middle" x="244.112" y="-189.9" font-family="Helvetica,sans-Serif" font-size="7.00">_Control/settingsystem.h</text>
</a>
</g>
</g>
<!-- Node1&#45;&gt;Node7 -->
<g id="edge13" class="edge"><title>Node1&#45;&gt;Node7</title>
<path fill="none" stroke="midnightblue" d="M331.745,-297.615C309.778,-272.269 271.469,-228.066 253.686,-207.547"/>
<polygon fill="midnightblue" stroke="midnightblue" points="329.32,-300.161 338.514,-305.426 334.61,-295.577 329.32,-300.161"/>
</g>
<!-- Node10 -->
<g id="node10" class="node"><title>Node10</title>
<g id="a_node10"><a xlink:href="customxml_8cpp.html" target="_top" target="_top" xlink:title="S:/QT_CREATOR/Locker\l_Control/customxml.cpp">
<polygon fill="none" stroke="black" points="476.612,-244.5 476.612,-268.5 571.612,-268.5 571.612,-244.5 476.612,-244.5"/>
<text text-anchor="start" x="484.612" y="-258.9" font-family="Helvetica,sans-Serif" font-size="7.00">S:/QT_CREATOR/Locker</text>
<text text-anchor="middle" x="524.112" y="-250.9" font-family="Helvetica,sans-Serif" font-size="7.00">_Control/customxml.cpp</text>
</a>
</g>
</g>
<!-- Node1&#45;&gt;Node10 -->
<g id="edge15" class="edge"><title>Node1&#45;&gt;Node10</title>
<path fill="none" stroke="midnightblue" d="M390.852,-302.172C421.724,-291.823 462.807,-278.051 491.156,-268.548"/>
<polygon fill="midnightblue" stroke="midnightblue" points="389.585,-298.906 381.216,-305.403 391.81,-305.543 389.585,-298.906"/>
</g>
<!-- Node3 -->
<g id="node3" class="node"><title>Node3</title>
<g id="a_node3"><a xlink:href="deliveryconfirm_8h.html" target="_top" target="_top" xlink:title="S:/QT_CREATOR/Locker\l_Control/deliveryconfirm.h">
<polygon fill="none" stroke="red" points="23.6119,-183.5 23.6119,-207.5 124.612,-207.5 124.612,-183.5 23.6119,-183.5"/>
<text text-anchor="start" x="31.6119" y="-197.9" font-family="Helvetica,sans-Serif" font-size="7.00">S:/QT_CREATOR/Locker</text>
<text text-anchor="middle" x="74.1119" y="-189.9" font-family="Helvetica,sans-Serif" font-size="7.00">_Control/deliveryconfirm.h</text>
</a>
</g>
</g>
<!-- Node2&#45;&gt;Node3 -->
<g id="edge2" class="edge"><title>Node2&#45;&gt;Node3</title>
<path fill="none" stroke="midnightblue" d="M136.836,-238.554C121.97,-228.587 103.598,-216.269 90.5898,-207.548"/>
<polygon fill="midnightblue" stroke="midnightblue" points="135.305,-241.741 145.56,-244.403 139.203,-235.927 135.305,-241.741"/>
</g>
<!-- Node6 -->
<g id="node6" class="node"><title>Node6</title>
<g id="a_node6"><a xlink:href="threadsavedelivery_8cpp.html" target="_top" target="_top" xlink:title="S:/QT_CREATOR/Locker\l_Control/threadsavedelivery.cpp">
<polygon fill="none" stroke="black" points="14.6119,-122.5 14.6119,-146.5 133.612,-146.5 133.612,-122.5 14.6119,-122.5"/>
<text text-anchor="start" x="22.6119" y="-136.9" font-family="Helvetica,sans-Serif" font-size="7.00">S:/QT_CREATOR/Locker</text>
<text text-anchor="middle" x="74.1119" y="-128.9" font-family="Helvetica,sans-Serif" font-size="7.00">_Control/threadsavedelivery.cpp</text>
</a>
</g>
</g>
<!-- Node2&#45;&gt;Node6 -->
<g id="edge12" class="edge"><title>Node2&#45;&gt;Node6</title>
<path fill="none" stroke="midnightblue" d="M156.754,-234.26C152.188,-218.983 144.527,-198.437 133.112,-183 122.088,-168.092 105.309,-155.196 92.4591,-146.619"/>
<polygon fill="midnightblue" stroke="midnightblue" points="153.495,-235.605 159.542,-244.305 160.24,-233.733 153.495,-235.605"/>
</g>
<!-- Node2&#45;&gt;Node7 -->
<g id="edge6" class="edge"><title>Node2&#45;&gt;Node7</title>
<path fill="none" stroke="midnightblue" d="M185.665,-238.554C199.517,-228.587 216.636,-216.269 228.757,-207.548"/>
<polygon fill="midnightblue" stroke="midnightblue" points="183.609,-235.721 177.535,-244.403 187.697,-241.403 183.609,-235.721"/>
</g>
<!-- Node3&#45;&gt;Node4 -->
<g id="edge3" class="edge"><title>Node3&#45;&gt;Node4</title>
<path fill="none" stroke="midnightblue" d="M40.8121,-178.428C15.9369,-164.241 -11.1773,-142.659 5.11189,-122 23.1144,-99.1679 99.7364,-86.0656 152.209,-79.6162"/>
<polygon fill="midnightblue" stroke="midnightblue" points="39.3328,-181.607 49.7908,-183.305 42.6738,-175.456 39.3328,-181.607"/>
</g>
<!-- Node3&#45;&gt;Node6 -->
<g id="edge5" class="edge"><title>Node3&#45;&gt;Node6</title>
<path fill="none" stroke="midnightblue" d="M74.1119,-173.198C74.1119,-164.173 74.1119,-154.035 74.1119,-146.548"/>
<polygon fill="midnightblue" stroke="midnightblue" points="70.612,-173.403 74.1119,-183.403 77.612,-173.403 70.612,-173.403"/>
</g>
<!-- Node5 -->
<g id="node5" class="node"><title>Node5</title>
<g id="a_node5"><a xlink:href="consolewindows_8cpp.html" target="_top" target="_top" xlink:title="S:/QT_CREATOR/Locker\l_Control/consolewindows.cpp">
<polygon fill="none" stroke="black" points="149.112,-0.5 149.112,-24.5 257.112,-24.5 257.112,-0.5 149.112,-0.5"/>
<text text-anchor="start" x="157.112" y="-14.9" font-family="Helvetica,sans-Serif" font-size="7.00">S:/QT_CREATOR/Locker</text>
<text text-anchor="middle" x="203.112" y="-6.9" font-family="Helvetica,sans-Serif" font-size="7.00">_Control/consolewindows.cpp</text>
</a>
</g>
</g>
<!-- Node4&#45;&gt;Node5 -->
<g id="edge4" class="edge"><title>Node4&#45;&gt;Node5</title>
<path fill="none" stroke="midnightblue" d="M203.112,-51.198C203.112,-42.1726 203.112,-32.0351 203.112,-24.5477"/>
<polygon fill="midnightblue" stroke="midnightblue" points="199.612,-51.4025 203.112,-61.4026 206.612,-51.4026 199.612,-51.4025"/>
</g>
<!-- Node7&#45;&gt;Node4 -->
<g id="edge7" class="edge"><title>Node7&#45;&gt;Node4</title>
<path fill="none" stroke="midnightblue" d="M211.237,-178.068C199.5,-170.369 187.588,-159.993 181.112,-147 170.902,-126.516 184.735,-100.384 194.644,-85.7453"/>
<polygon fill="midnightblue" stroke="midnightblue" points="209.719,-181.241 220.085,-183.433 213.348,-175.256 209.719,-181.241"/>
</g>
<!-- Node8 -->
<g id="node8" class="node"><title>Node8</title>
<g id="a_node8"><a xlink:href="editsettingsystem_8h.html" target="_top" target="_top" xlink:title="S:/QT_CREATOR/Locker\l_Control/editsettingsystem.h">
<polygon fill="none" stroke="red" points="190.612,-122.5 190.612,-146.5 297.612,-146.5 297.612,-122.5 190.612,-122.5"/>
<text text-anchor="start" x="198.612" y="-136.9" font-family="Helvetica,sans-Serif" font-size="7.00">S:/QT_CREATOR/Locker</text>
<text text-anchor="middle" x="244.112" y="-128.9" font-family="Helvetica,sans-Serif" font-size="7.00">_Control/editsettingsystem.h</text>
</a>
</g>
</g>
<!-- Node7&#45;&gt;Node8 -->
<g id="edge8" class="edge"><title>Node7&#45;&gt;Node8</title>
<path fill="none" stroke="midnightblue" d="M237.599,-173.198C237.064,-164.173 237.434,-154.035 238.709,-146.548"/>
<polygon fill="midnightblue" stroke="midnightblue" points="234.148,-173.836 238.7,-183.403 241.107,-173.085 234.148,-173.836"/>
</g>
<!-- Node9 -->
<g id="node9" class="node"><title>Node9</title>
<g id="a_node9"><a xlink:href="settingsystem_8cpp.html" target="_top" target="_top" xlink:title="S:/QT_CREATOR/Locker\l_Control/settingsystem.cpp">
<polygon fill="none" stroke="black" points="316.112,-122.5 316.112,-146.5 420.112,-146.5 420.112,-122.5 316.112,-122.5"/>
<text text-anchor="start" x="324.112" y="-136.9" font-family="Helvetica,sans-Serif" font-size="7.00">S:/QT_CREATOR/Locker</text>
<text text-anchor="middle" x="368.112" y="-128.9" font-family="Helvetica,sans-Serif" font-size="7.00">_Control/settingsystem.cpp</text>
</a>
</g>
</g>
<!-- Node7&#45;&gt;Node9 -->
<g id="edge11" class="edge"><title>Node7&#45;&gt;Node9</title>
<path fill="none" stroke="midnightblue" d="M276.509,-179.085C297.969,-168.874 325.612,-155.722 344.893,-146.548"/>
<polygon fill="midnightblue" stroke="midnightblue" points="274.962,-175.945 267.435,-183.403 277.969,-182.266 274.962,-175.945"/>
</g>
<!-- Node8&#45;&gt;Node4 -->
<g id="edge10" class="edge"><title>Node8&#45;&gt;Node4</title>
<path fill="none" stroke="midnightblue" d="M230.539,-113.968C223.974,-104.521 216.335,-93.5288 210.789,-85.5477"/>
<polygon fill="midnightblue" stroke="midnightblue" points="227.819,-116.188 236.4,-122.403 233.568,-112.193 227.819,-116.188"/>
</g>
<!-- Node8&#45;&gt;Node7 -->
<g id="edge9" class="edge"><title>Node8&#45;&gt;Node7</title>
<path fill="none" stroke="midnightblue" d="M250.621,-156.742C251.16,-165.763 250.794,-175.903 249.523,-183.403"/>
<polygon fill="midnightblue" stroke="midnightblue" points="254.073,-156.112 249.515,-146.548 247.114,-156.867 254.073,-156.112"/>
</g>
</g>
</svg>
        <g id="navigator" transform="translate(0 0)" fill="#404254">
                <rect fill="#f2f5e9" fill-opacity="0.5" stroke="#606060" stroke-width=".5" x="0" y="0" width="60" height="60"/>
                <use id="zoomplus" xlink:href="#zoomPlus" target="_top" x="17" y="9" onmousedown="handleZoom(evt,'in')"/>
                <use id="zoomminus" xlink:href="#zoomMin" target="_top" x="42" y="9" onmousedown="handleZoom(evt,'out')"/>
                <use id="reset" xlink:href="#resetDef" target="_top" x="30" y="36" onmousedown="handleReset()"/>
                <g id="arrowUp" xlink:href="#dirArrow" target="_top" transform="translate(30 24)" onmousedown="handlePan(0,-1)">
                  <use xlink:href="#rim" target="_top" fill="#404040">
                        <set attributeName="fill" to="#808080" begin="arrowUp.mouseover" end="arrowUp.mouseout"/>
                  </use>
                  <path fill="none" stroke="white" stroke-width="1.5" d="M0,-3.0v7 M-2.5,-0.5L0,-3.0L2.5,-0.5"/>
                </g>
                <g id="arrowRight" xlink:href="#dirArrow" target="_top" transform="rotate(90) translate(36 -43)" onmousedown="handlePan(1,0)">
                  <use xlink:href="#rim" target="_top" fill="#404040">
                        <set attributeName="fill" to="#808080" begin="arrowRight.mouseover" end="arrowRight.mouseout"/>
                  </use>
                  <path fill="none" stroke="white" stroke-width="1.5" d="M0,-3.0v7 M-2.5,-0.5L0,-3.0L2.5,-0.5"/>
                </g>
                <g id="arrowDown" xlink:href="#dirArrow" target="_top" transform="rotate(180) translate(-30 -48)" onmousedown="handlePan(0,1)">
                  <use xlink:href="#rim" target="_top" fill="#404040">
                        <set attributeName="fill" to="#808080" begin="arrowDown.mouseover" end="arrowDown.mouseout"/>
                  </use>
                  <path fill="none" stroke="white" stroke-width="1.5" d="M0,-3.0v7 M-2.5,-0.5L0,-3.0L2.5,-0.5"/>
                </g>
                <g id="arrowLeft" xlink:href="#dirArrow" target="_top" transform="rotate(270) translate(-36 17)" onmousedown="handlePan(-1,0)">
                  <use xlink:href="#rim" target="_top" fill="#404040">
                        <set attributeName="fill" to="#808080" begin="arrowLeft.mouseover" end="arrowLeft.mouseout"/>
                  </use>
                  <path fill="none" stroke="white" stroke-width="1.5" d="M0,-3.0v7 M-2.5,-0.5L0,-3.0L2.5,-0.5"/>
                </g>
        </g>
        <svg viewBox="0 0 15 15" width="100%" height="30px" preserveAspectRatio="xMaxYMin meet">
         <g id="arrow_out" transform="scale(0.3 0.3)">
          <a xlink:href="customxml_8h__dep__incl_org.svg" target="_top" target="_base">
           <rect id="button" ry="5" rx="5" y="6" x="6" height="38" width="38"
                fill="#f2f5e9" fill-opacity="0.5" stroke="#606060" stroke-width="1.0"/>
           <path id="arrow"
             d="M 11.500037,31.436501 C 11.940474,20.09759 22.043105,11.32322 32.158766,21.979434 L 37.068811,17.246167 C 37.068811,17.246167 37.088388,32 37.088388,32 L 22.160133,31.978069 C 22.160133,31.978069 26.997745,27.140456 26.997745,27.140456 C 18.528582,18.264221 13.291696,25.230495 11.500037,31.436501 z"
             style="fill:#404040;"/>
          </a>
         </g>
        </svg>
</svg>
