<?xml version="1.0" encoding="UTF-8" standalone="no"?>
<!DOCTYPE svg PUBLIC "-//W3C//DTD SVG 1.1//EN"
 "http://www.w3.org/Graphics/SVG/1.1/DTD/svg11.dtd">
<!-- Generated by graphviz version 2.38.0 (20140413.2041)
 -->
<!-- Title: S:/QT_CREATOR/Locker_Control/customtreewidget.cpp Pages: 1 -->
<svg width="306pt" height="192pt"
 viewBox="0.00 0.00 305.50 192.00" xmlns="http://www.w3.org/2000/svg" xmlns:xlink="http://www.w3.org/1999/xlink">
<g id="graph0" class="graph" transform="scale(1 1) rotate(0) translate(4 188)">
<title>S:/QT_CREATOR/Locker_Control/customtreewidget.cpp</title>
<!-- Node1 -->
<g id="node1" class="node"><title>Node1</title>
<polygon fill="#bfbfbf" stroke="black" points="140,-159.5 140,-183.5 253,-183.5 253,-159.5 140,-159.5"/>
<text text-anchor="start" x="148" y="-173.9" font-family="Helvetica,sans-Serif" font-size="7.00">S:/QT_CREATOR/Locker</text>
<text text-anchor="middle" x="196.5" y="-165.9" font-family="Helvetica,sans-Serif" font-size="7.00">_Control/customtreewidget.cpp</text>
</g>
<!-- Node2 -->
<g id="node2" class="node"><title>Node2</title>
<g id="a_node2"><a xlink:href="customtreewidget_8h.html" target="_top" target="_top" xlink:title="customtreewidget.h">
<polygon fill="none" stroke="black" points="72,-106.5 72,-122.5 149,-122.5 149,-106.5 72,-106.5"/>
<text text-anchor="middle" x="110.5" y="-112.9" font-family="Helvetica,sans-Serif" font-size="7.00">customtreewidget.h</text>
</a>
</g>
</g>
<!-- Node1&#45;&gt;Node2 -->
<g id="edge1" class="edge"><title>Node1&#45;&gt;Node2</title>
<path fill="none" stroke="midnightblue" d="M179.097,-159.37C165.005,-150.358 145.147,-137.658 130.421,-128.24"/>
<polygon fill="midnightblue" stroke="midnightblue" points="131.907,-125.036 121.597,-122.597 128.136,-130.933 131.907,-125.036"/>
</g>
<!-- Node9 -->
<g id="node9" class="node"><title>Node9</title>
<polygon fill="none" stroke="#bfbfbf" points="167,-106.5 167,-122.5 226,-122.5 226,-106.5 167,-106.5"/>
<text text-anchor="middle" x="196.5" y="-112.9" font-family="Helvetica,sans-Serif" font-size="7.00">QHeaderView</text>
</g>
<!-- Node1&#45;&gt;Node9 -->
<g id="edge8" class="edge"><title>Node1&#45;&gt;Node9</title>
<path fill="none" stroke="midnightblue" d="M196.5,-159.37C196.5,-151.775 196.5,-141.56 196.5,-132.899"/>
<polygon fill="midnightblue" stroke="midnightblue" points="200,-132.757 196.5,-122.757 193,-132.758 200,-132.757"/>
</g>
<!-- Node10 -->
<g id="node10" class="node"><title>Node10</title>
<polygon fill="none" stroke="#bfbfbf" points="244.5,-106.5 244.5,-122.5 286.5,-122.5 286.5,-106.5 244.5,-106.5"/>
<text text-anchor="middle" x="265.5" y="-112.9" font-family="Helvetica,sans-Serif" font-size="7.00">QDebug</text>
</g>
<!-- Node1&#45;&gt;Node10 -->
<g id="edge9" class="edge"><title>Node1&#45;&gt;Node10</title>
<path fill="none" stroke="midnightblue" d="M210.463,-159.37C221.383,-150.665 236.62,-138.52 248.293,-129.215"/>
<polygon fill="midnightblue" stroke="midnightblue" points="250.757,-131.728 256.395,-122.757 246.394,-126.254 250.757,-131.728"/>
</g>
<!-- Node3 -->
<g id="node3" class="node"><title>Node3</title>
<polygon fill="none" stroke="#bfbfbf" points="0,-53.5 0,-69.5 57,-69.5 57,-53.5 0,-53.5"/>
<text text-anchor="middle" x="28.5" y="-59.9" font-family="Helvetica,sans-Serif" font-size="7.00">QTreeWidget</text>
</g>
<!-- Node2&#45;&gt;Node3 -->
<g id="edge2" class="edge"><title>Node2&#45;&gt;Node3</title>
<path fill="none" stroke="midnightblue" d="M99.0983,-106.409C86.0022,-98.2635 64.2792,-84.7529 48.3823,-74.8658"/>
<polygon fill="midnightblue" stroke="midnightblue" points="50.145,-71.8404 39.8049,-69.5311 46.448,-77.7846 50.145,-71.8404"/>
</g>
<!-- Node4 -->
<g id="node4" class="node"><title>Node4</title>
<polygon fill="none" stroke="#bfbfbf" points="75,-53.5 75,-69.5 146,-69.5 146,-53.5 75,-53.5"/>
<text text-anchor="middle" x="110.5" y="-59.9" font-family="Helvetica,sans-Serif" font-size="7.00">QTreeWidgetItem</text>
</g>
<!-- Node2&#45;&gt;Node4 -->
<g id="edge3" class="edge"><title>Node2&#45;&gt;Node4</title>
<path fill="none" stroke="midnightblue" d="M110.5,-106.409C110.5,-99.5576 110.5,-88.9106 110.5,-79.8167"/>
<polygon fill="midnightblue" stroke="midnightblue" points="114,-79.5311 110.5,-69.5311 107,-79.5311 114,-79.5311"/>
</g>
<!-- Node5 -->
<g id="node5" class="node"><title>Node5</title>
<g id="a_node5"><a xlink:href="custompushbutton_8h.html" target="_top" target="_top" xlink:title="custompushbutton.h">
<polygon fill="none" stroke="black" points="164.5,-53.5 164.5,-69.5 244.5,-69.5 244.5,-53.5 164.5,-53.5"/>
<text text-anchor="middle" x="204.5" y="-59.9" font-family="Helvetica,sans-Serif" font-size="7.00">custompushbutton.h</text>
</a>
</g>
</g>
<!-- Node2&#45;&gt;Node5 -->
<g id="edge4" class="edge"><title>Node2&#45;&gt;Node5</title>
<path fill="none" stroke="midnightblue" d="M123.57,-106.409C138.863,-98.1113 164.419,-84.246 182.723,-74.3153"/>
<polygon fill="midnightblue" stroke="midnightblue" points="184.42,-77.3764 191.541,-69.5311 181.082,-71.2236 184.42,-77.3764"/>
</g>
<!-- Node6 -->
<g id="node6" class="node"><title>Node6</title>
<polygon fill="none" stroke="#bfbfbf" points="97.5,-0.5 97.5,-16.5 155.5,-16.5 155.5,-0.5 97.5,-0.5"/>
<text text-anchor="middle" x="126.5" y="-6.9" font-family="Helvetica,sans-Serif" font-size="7.00">QPushButton</text>
</g>
<!-- Node5&#45;&gt;Node6 -->
<g id="edge5" class="edge"><title>Node5&#45;&gt;Node6</title>
<path fill="none" stroke="midnightblue" d="M193.654,-53.4087C181.314,-45.3397 160.919,-32.005 145.838,-22.144"/>
<polygon fill="midnightblue" stroke="midnightblue" points="147.539,-19.0742 137.253,-16.5311 143.708,-24.933 147.539,-19.0742"/>
</g>
<!-- Node7 -->
<g id="node7" class="node"><title>Node7</title>
<polygon fill="none" stroke="#bfbfbf" points="174,-0.5 174,-16.5 235,-16.5 235,-0.5 174,-0.5"/>
<text text-anchor="middle" x="204.5" y="-6.9" font-family="Helvetica,sans-Serif" font-size="7.00">QMouseEvent</text>
</g>
<!-- Node5&#45;&gt;Node7 -->
<g id="edge6" class="edge"><title>Node5&#45;&gt;Node7</title>
<path fill="none" stroke="midnightblue" d="M204.5,-53.4087C204.5,-46.5576 204.5,-35.9106 204.5,-26.8167"/>
<polygon fill="midnightblue" stroke="midnightblue" points="208,-26.5311 204.5,-16.5311 201,-26.5311 208,-26.5311"/>
</g>
<!-- Node8 -->
<g id="node8" class="node"><title>Node8</title>
<polygon fill="none" stroke="#bfbfbf" points="253.5,-0.5 253.5,-16.5 297.5,-16.5 297.5,-0.5 253.5,-0.5"/>
<text text-anchor="middle" x="275.5" y="-6.9" font-family="Helvetica,sans-Serif" font-size="7.00">QLayout</text>
</g>
<!-- Node5&#45;&gt;Node8 -->
<g id="edge7" class="edge"><title>Node5&#45;&gt;Node8</title>
<path fill="none" stroke="midnightblue" d="M214.372,-53.4087C225.5,-45.4158 243.82,-32.2561 257.508,-22.424"/>
<polygon fill="midnightblue" stroke="midnightblue" points="259.632,-25.2078 265.712,-16.5311 255.548,-19.5225 259.632,-25.2078"/>
</g>
</g>
</svg>
