<?xml version="1.0" encoding="UTF-8" standalone="no"?>
<!DOCTYPE svg PUBLIC "-//W3C//DTD SVG 1.1//EN"
 "http://www.w3.org/Graphics/SVG/1.1/DTD/svg11.dtd">
<!-- Generated by graphviz version 2.38.0 (20140413.2041)
 -->
<!-- Title: S:/QT_CREATOR/Locker_Control/customer.h Pages: 1 -->
<svg width="357pt" height="192pt"
 viewBox="0.00 0.00 356.50 192.00" xmlns="http://www.w3.org/2000/svg" xmlns:xlink="http://www.w3.org/1999/xlink">
<g id="graph0" class="graph" transform="scale(1 1) rotate(0) translate(4 188)">
<title>S:/QT_CREATOR/Locker_Control/customer.h</title>
<!-- Node1 -->
<g id="node1" class="node"><title>Node1</title>
<polygon fill="#bfbfbf" stroke="black" points="78.5,-159.5 78.5,-183.5 173.5,-183.5 173.5,-159.5 78.5,-159.5"/>
<text text-anchor="start" x="86.5" y="-173.9" font-family="Helvetica,sans-Serif" font-size="7.00">S:/QT_CREATOR/Locker</text>
<text text-anchor="middle" x="126" y="-165.9" font-family="Helvetica,sans-Serif" font-size="7.00">_Control/customer.h</text>
</g>
<!-- Node2 -->
<g id="node2" class="node"><title>Node2</title>
<polygon fill="none" stroke="#bfbfbf" points="0,-53.5 0,-69.5 44,-69.5 44,-53.5 0,-53.5"/>
<text text-anchor="middle" x="22" y="-59.9" font-family="Helvetica,sans-Serif" font-size="7.00">QWidget</text>
</g>
<!-- Node1&#45;&gt;Node2 -->
<g id="edge1" class="edge"><title>Node1&#45;&gt;Node2</title>
<path fill="none" stroke="midnightblue" d="M112.459,-159.279C101.458,-149.95 85.7332,-136.125 73,-123 58.8371,-108.401 43.9969,-90.4513 34.0005,-77.9103"/>
<polygon fill="midnightblue" stroke="midnightblue" points="36.5951,-75.5479 27.6566,-69.8597 31.0969,-79.8805 36.5951,-75.5479"/>
</g>
<!-- Node3 -->
<g id="node3" class="node"><title>Node3</title>
<polygon fill="none" stroke="#bfbfbf" points="220,-106.5 220,-122.5 294,-122.5 294,-106.5 220,-106.5"/>
<text text-anchor="middle" x="257" y="-112.9" font-family="Helvetica,sans-Serif" font-size="7.00">QRegExpValidator</text>
</g>
<!-- Node1&#45;&gt;Node3 -->
<g id="edge2" class="edge"><title>Node1&#45;&gt;Node3</title>
<path fill="none" stroke="midnightblue" d="M152.51,-159.37C175.304,-149.8 208.002,-136.072 230.727,-126.531"/>
<polygon fill="midnightblue" stroke="midnightblue" points="232.231,-129.695 240.096,-122.597 229.521,-123.241 232.231,-129.695"/>
</g>
<!-- Node4 -->
<g id="node4" class="node"><title>Node4</title>
<g id="a_node4"><a xlink:href="showwidgets_8h.html" target="_top" target="_top" xlink:title="showwidgets.h">
<polygon fill="none" stroke="black" points="62,-53.5 62,-69.5 124,-69.5 124,-53.5 62,-53.5"/>
<text text-anchor="middle" x="93" y="-59.9" font-family="Helvetica,sans-Serif" font-size="7.00">showwidgets.h</text>
</a>
</g>
</g>
<!-- Node1&#45;&gt;Node4 -->
<g id="edge3" class="edge"><title>Node1&#45;&gt;Node4</title>
<path fill="none" stroke="midnightblue" d="M109.599,-159.333C98.6531,-150.819 85.1757,-138.022 79,-123 73.1072,-108.666 78.2466,-91.3539 83.8866,-78.9275"/>
<polygon fill="midnightblue" stroke="midnightblue" points="87.1084,-80.3128 88.5107,-69.8112 80.8656,-77.1462 87.1084,-80.3128"/>
</g>
<!-- Node6 -->
<g id="node6" class="node"><title>Node6</title>
<g id="a_node6"><a xlink:href="csqlite__local__db_8h.html" target="_top" target="_top" xlink:title="csqlite_local_db.h">
<polygon fill="none" stroke="red" points="156,-53.5 156,-69.5 228,-69.5 228,-53.5 156,-53.5"/>
<text text-anchor="middle" x="192" y="-59.9" font-family="Helvetica,sans-Serif" font-size="7.00">csqlite_local_db.h</text>
</a>
</g>
</g>
<!-- Node1&#45;&gt;Node6 -->
<g id="edge5" class="edge"><title>Node1&#45;&gt;Node6</title>
<path fill="none" stroke="midnightblue" d="M140.167,-159.397C150.586,-150.55 164.38,-137.31 173,-123 181.09,-109.571 186.059,-92.361 188.876,-79.7323"/>
<polygon fill="midnightblue" stroke="midnightblue" points="192.361,-80.1539 190.885,-69.6623 185.496,-78.7839 192.361,-80.1539"/>
</g>
<!-- Node10 -->
<g id="node10" class="node"><title>Node10</title>
<g id="a_node10"><a xlink:href="showpackagebox_8h.html" target="_top" target="_top" xlink:title="showpackagebox.h">
<polygon fill="none" stroke="red" points="88,-106.5 88,-122.5 164,-122.5 164,-106.5 88,-106.5"/>
<text text-anchor="middle" x="126" y="-112.9" font-family="Helvetica,sans-Serif" font-size="7.00">showpackagebox.h</text>
</a>
</g>
</g>
<!-- Node1&#45;&gt;Node10 -->
<g id="edge9" class="edge"><title>Node1&#45;&gt;Node10</title>
<path fill="none" stroke="midnightblue" d="M126,-159.37C126,-151.775 126,-141.56 126,-132.899"/>
<polygon fill="midnightblue" stroke="midnightblue" points="129.5,-132.757 126,-122.757 122.5,-132.758 129.5,-132.757"/>
</g>
<!-- Node5 -->
<g id="node5" class="node"><title>Node5</title>
<polygon fill="none" stroke="#bfbfbf" points="32.5,-0.5 32.5,-16.5 101.5,-16.5 101.5,-0.5 32.5,-0.5"/>
<text text-anchor="middle" x="67" y="-6.9" font-family="Helvetica,sans-Serif" font-size="7.00">QStackedWidget</text>
</g>
<!-- Node4&#45;&gt;Node5 -->
<g id="edge4" class="edge"><title>Node4&#45;&gt;Node5</title>
<path fill="none" stroke="midnightblue" d="M89.3848,-53.4087C85.7369,-46.2531 79.9779,-34.9567 75.2149,-25.6139"/>
<polygon fill="midnightblue" stroke="midnightblue" points="78.2446,-23.8505 70.5845,-16.5311 72.0082,-27.0299 78.2446,-23.8505"/>
</g>
<!-- Node7 -->
<g id="node7" class="node"><title>Node7</title>
<polygon fill="none" stroke="#bfbfbf" points="120,-0.5 120,-16.5 160,-16.5 160,-0.5 120,-0.5"/>
<text text-anchor="middle" x="140" y="-6.9" font-family="Helvetica,sans-Serif" font-size="7.00">QString</text>
</g>
<!-- Node6&#45;&gt;Node7 -->
<g id="edge6" class="edge"><title>Node6&#45;&gt;Node7</title>
<path fill="none" stroke="midnightblue" d="M184.77,-53.4087C176.93,-45.7203 164.217,-33.2513 154.337,-23.5617"/>
<polygon fill="midnightblue" stroke="midnightblue" points="156.759,-21.0344 147.169,-16.5311 151.858,-26.032 156.759,-21.0344"/>
</g>
<!-- Node8 -->
<g id="node8" class="node"><title>Node8</title>
<polygon fill="none" stroke="#bfbfbf" points="178.5,-0.5 178.5,-16.5 259.5,-16.5 259.5,-0.5 178.5,-0.5"/>
<text text-anchor="middle" x="219" y="-6.9" font-family="Helvetica,sans-Serif" font-size="7.00">QtSql/QSqlDatabase</text>
</g>
<!-- Node6&#45;&gt;Node8 -->
<g id="edge7" class="edge"><title>Node6&#45;&gt;Node8</title>
<path fill="none" stroke="midnightblue" d="M195.754,-53.4087C199.542,-46.2531 205.523,-34.9567 210.469,-25.6139"/>
<polygon fill="midnightblue" stroke="midnightblue" points="213.692,-27.0066 215.278,-16.5311 207.505,-23.7314 213.692,-27.0066"/>
</g>
<!-- Node9 -->
<g id="node9" class="node"><title>Node9</title>
<polygon fill="none" stroke="#bfbfbf" points="277.5,-0.5 277.5,-16.5 348.5,-16.5 348.5,-0.5 277.5,-0.5"/>
<text text-anchor="middle" x="313" y="-6.9" font-family="Helvetica,sans-Serif" font-size="7.00">QtSql/QSqlDriver</text>
</g>
<!-- Node6&#45;&gt;Node9 -->
<g id="edge8" class="edge"><title>Node6&#45;&gt;Node9</title>
<path fill="none" stroke="midnightblue" d="M208.825,-53.4087C229.052,-44.8829 263.227,-30.4786 286.891,-20.5044"/>
<polygon fill="midnightblue" stroke="midnightblue" points="288.463,-23.6404 296.318,-16.5311 285.744,-17.1899 288.463,-23.6404"/>
</g>
<!-- Node10&#45;&gt;Node2 -->
<g id="edge10" class="edge"><title>Node10&#45;&gt;Node2</title>
<path fill="none" stroke="midnightblue" d="M111.539,-106.409C94.4639,-98.0352 65.825,-83.9911 45.5385,-74.0429"/>
<polygon fill="midnightblue" stroke="midnightblue" points="46.8575,-70.7916 36.3379,-69.5311 43.7754,-77.0766 46.8575,-70.7916"/>
</g>
<!-- Node10&#45;&gt;Node4 -->
<g id="edge11" class="edge"><title>Node10&#45;&gt;Node4</title>
<path fill="none" stroke="midnightblue" d="M121.411,-106.409C116.683,-99.1009 109.16,-87.4741 103.043,-78.0202"/>
<polygon fill="midnightblue" stroke="midnightblue" points="105.921,-76.0254 97.5495,-69.5311 100.044,-79.8282 105.921,-76.0254"/>
</g>
<!-- Node10&#45;&gt;Node6 -->
<g id="edge12" class="edge"><title>Node10&#45;&gt;Node6</title>
<path fill="none" stroke="midnightblue" d="M135.177,-106.409C145.422,-98.4919 162.227,-85.5063 174.91,-75.7058"/>
<polygon fill="midnightblue" stroke="midnightblue" points="177.128,-78.4151 182.901,-69.5311 172.848,-72.8761 177.128,-78.4151"/>
</g>
</g>
</svg>
