<?xml version="1.0" encoding="UTF-8" standalone="no"?>
<!DOCTYPE svg PUBLIC "-//W3C//DTD SVG 1.1//EN"
 "http://www.w3.org/Graphics/SVG/1.1/DTD/svg11.dtd">
<!-- Generated by graphviz version 2.38.0 (20140413.2041)
 -->
<!-- Title: S:/QT_CREATOR/Locker_Control/customxml.cpp Pages: 1 -->
<svg width="242pt" height="139pt"
 viewBox="0.00 0.00 241.50 139.00" xmlns="http://www.w3.org/2000/svg" xmlns:xlink="http://www.w3.org/1999/xlink">
<g id="graph0" class="graph" transform="scale(1 1) rotate(0) translate(4 135)">
<title>S:/QT_CREATOR/Locker_Control/customxml.cpp</title>
<!-- Node1 -->
<g id="node1" class="node"><title>Node1</title>
<polygon fill="#bfbfbf" stroke="black" points="62,-106.5 62,-130.5 157,-130.5 157,-106.5 62,-106.5"/>
<text text-anchor="start" x="70" y="-120.9" font-family="Helvetica,sans-Serif" font-size="7.00">S:/QT_CREATOR/Locker</text>
<text text-anchor="middle" x="109.5" y="-112.9" font-family="Helvetica,sans-Serif" font-size="7.00">_Control/customxml.cpp</text>
</g>
<!-- Node2 -->
<g id="node2" class="node"><title>Node2</title>
<g id="a_node2"><a xlink:href="customxml_8h.html" target="_top" xlink:title="customxml.h">
<polygon fill="none" stroke="black" points="81,-53.5 81,-69.5 138,-69.5 138,-53.5 81,-53.5"/>
<text text-anchor="middle" x="109.5" y="-59.9" font-family="Helvetica,sans-Serif" font-size="7.00">customxml.h</text>
</a>
</g>
</g>
<!-- Node1&#45;&gt;Node2 -->
<g id="edge1" class="edge"><title>Node1&#45;&gt;Node2</title>
<path fill="none" stroke="midnightblue" d="M109.5,-106.37C109.5,-98.7748 109.5,-88.5603 109.5,-79.8986"/>
<polygon fill="midnightblue" stroke="midnightblue" points="113,-79.7574 109.5,-69.7575 106,-79.7575 113,-79.7574"/>
</g>
<!-- Node3 -->
<g id="node3" class="node"><title>Node3</title>
<polygon fill="none" stroke="#bfbfbf" points="0,-0.5 0,-16.5 35,-16.5 35,-0.5 0,-0.5"/>
<text text-anchor="middle" x="17.5" y="-6.9" font-family="Helvetica,sans-Serif" font-size="7.00">QtXml</text>
</g>
<!-- Node2&#45;&gt;Node3 -->
<g id="edge2" class="edge"><title>Node2&#45;&gt;Node3</title>
<path fill="none" stroke="midnightblue" d="M96.7078,-53.4087C81.8773,-45.1874 57.1862,-31.4999 39.3086,-21.5896"/>
<polygon fill="midnightblue" stroke="midnightblue" points="40.6266,-18.3184 30.1836,-16.5311 37.2327,-24.4406 40.6266,-18.3184"/>
</g>
<!-- Node4 -->
<g id="node4" class="node"><title>Node4</title>
<polygon fill="none" stroke="#bfbfbf" points="53.5,-0.5 53.5,-16.5 105.5,-16.5 105.5,-0.5 53.5,-0.5"/>
<text text-anchor="middle" x="79.5" y="-6.9" font-family="Helvetica,sans-Serif" font-size="7.00">QIODevice</text>
</g>
<!-- Node2&#45;&gt;Node4 -->
<g id="edge3" class="edge"><title>Node2&#45;&gt;Node4</title>
<path fill="none" stroke="midnightblue" d="M105.329,-53.4087C101.075,-46.177 94.3329,-34.7159 88.8037,-25.3164"/>
<polygon fill="midnightblue" stroke="midnightblue" points="91.723,-23.3759 83.6359,-16.5311 85.6894,-26.925 91.723,-23.3759"/>
</g>
<!-- Node5 -->
<g id="node5" class="node"><title>Node5</title>
<polygon fill="none" stroke="#bfbfbf" points="124,-0.5 124,-16.5 157,-16.5 157,-0.5 124,-0.5"/>
<text text-anchor="middle" x="140.5" y="-6.9" font-family="Helvetica,sans-Serif" font-size="7.00">QFile</text>
</g>
<!-- Node2&#45;&gt;Node5 -->
<g id="edge4" class="edge"><title>Node2&#45;&gt;Node5</title>
<path fill="none" stroke="midnightblue" d="M113.81,-53.4087C118.206,-46.177 125.173,-34.7159 130.886,-25.3164"/>
<polygon fill="midnightblue" stroke="midnightblue" points="134.023,-26.8943 136.226,-16.5311 128.041,-23.2584 134.023,-26.8943"/>
</g>
<!-- Node6 -->
<g id="node6" class="node"><title>Node6</title>
<polygon fill="none" stroke="#bfbfbf" points="175.5,-0.5 175.5,-16.5 233.5,-16.5 233.5,-0.5 175.5,-0.5"/>
<text text-anchor="middle" x="204.5" y="-6.9" font-family="Helvetica,sans-Serif" font-size="7.00">QTextStream</text>
</g>
<!-- Node2&#45;&gt;Node6 -->
<g id="edge5" class="edge"><title>Node2&#45;&gt;Node6</title>
<path fill="none" stroke="midnightblue" d="M122.709,-53.4087C138.165,-45.1113 163.993,-31.246 182.491,-21.3153"/>
<polygon fill="midnightblue" stroke="midnightblue" points="184.248,-24.3448 191.403,-16.5311 180.937,-18.1774 184.248,-24.3448"/>
</g>
</g>
</svg>
