<?xml version="1.0" encoding="UTF-8" standalone="no"?>
<!DOCTYPE svg PUBLIC "-//W3C//DTD SVG 1.1//EN"
 "http://www.w3.org/Graphics/SVG/1.1/DTD/svg11.dtd">
<!-- Generated by graphviz version 2.38.0 (20140413.2041)
 -->
<!-- Title: S:/QT_CREATOR/Locker_Control/customtreewidget.h Pages: 1 -->
<svg width="306pt" height="139pt"
 viewBox="0.00 0.00 305.50 139.00" xmlns="http://www.w3.org/2000/svg" xmlns:xlink="http://www.w3.org/1999/xlink">
<g id="graph0" class="graph" transform="scale(1 1) rotate(0) translate(4 135)">
<title>S:/QT_CREATOR/Locker_Control/customtreewidget.h</title>
<!-- Node1 -->
<g id="node1" class="node"><title>Node1</title>
<polygon fill="#bfbfbf" stroke="black" points="57.5,-106.5 57.5,-130.5 163.5,-130.5 163.5,-106.5 57.5,-106.5"/>
<text text-anchor="start" x="65.5" y="-120.9" font-family="Helvetica,sans-Serif" font-size="7.00">S:/QT_CREATOR/Locker</text>
<text text-anchor="middle" x="110.5" y="-112.9" font-family="Helvetica,sans-Serif" font-size="7.00">_Control/customtreewidget.h</text>
</g>
<!-- Node2 -->
<g id="node2" class="node"><title>Node2</title>
<polygon fill="none" stroke="#bfbfbf" points="0,-53.5 0,-69.5 57,-69.5 57,-53.5 0,-53.5"/>
<text text-anchor="middle" x="28.5" y="-59.9" font-family="Helvetica,sans-Serif" font-size="7.00">QTreeWidget</text>
</g>
<!-- Node1&#45;&gt;Node2 -->
<g id="edge1" class="edge"><title>Node1&#45;&gt;Node2</title>
<path fill="none" stroke="midnightblue" d="M93.9061,-106.37C80.5467,-97.4094 61.7518,-84.803 47.7356,-75.4019"/>
<polygon fill="midnightblue" stroke="midnightblue" points="49.5748,-72.4211 39.3202,-69.7575 45.6755,-78.2346 49.5748,-72.4211"/>
</g>
<!-- Node3 -->
<g id="node3" class="node"><title>Node3</title>
<polygon fill="none" stroke="#bfbfbf" points="75,-53.5 75,-69.5 146,-69.5 146,-53.5 75,-53.5"/>
<text text-anchor="middle" x="110.5" y="-59.9" font-family="Helvetica,sans-Serif" font-size="7.00">QTreeWidgetItem</text>
</g>
<!-- Node1&#45;&gt;Node3 -->
<g id="edge2" class="edge"><title>Node1&#45;&gt;Node3</title>
<path fill="none" stroke="midnightblue" d="M110.5,-106.37C110.5,-98.7748 110.5,-88.5603 110.5,-79.8986"/>
<polygon fill="midnightblue" stroke="midnightblue" points="114,-79.7574 110.5,-69.7575 107,-79.7575 114,-79.7574"/>
</g>
<!-- Node4 -->
<g id="node4" class="node"><title>Node4</title>
<g id="a_node4"><a xlink:href="custompushbutton_8h.html" target="_top" xlink:title="custompushbutton.h">
<polygon fill="none" stroke="black" points="164.5,-53.5 164.5,-69.5 244.5,-69.5 244.5,-53.5 164.5,-53.5"/>
<text text-anchor="middle" x="204.5" y="-59.9" font-family="Helvetica,sans-Serif" font-size="7.00">custompushbutton.h</text>
</a>
</g>
</g>
<!-- Node1&#45;&gt;Node4 -->
<g id="edge3" class="edge"><title>Node1&#45;&gt;Node4</title>
<path fill="none" stroke="midnightblue" d="M129.522,-106.37C145.218,-97.1862 167.459,-84.1729 183.639,-74.7056"/>
<polygon fill="midnightblue" stroke="midnightblue" points="185.507,-77.6681 192.371,-69.597 181.972,-71.6263 185.507,-77.6681"/>
</g>
<!-- Node5 -->
<g id="node5" class="node"><title>Node5</title>
<polygon fill="none" stroke="#bfbfbf" points="97.5,-0.5 97.5,-16.5 155.5,-16.5 155.5,-0.5 97.5,-0.5"/>
<text text-anchor="middle" x="126.5" y="-6.9" font-family="Helvetica,sans-Serif" font-size="7.00">QPushButton</text>
</g>
<!-- Node4&#45;&gt;Node5 -->
<g id="edge4" class="edge"><title>Node4&#45;&gt;Node5</title>
<path fill="none" stroke="midnightblue" d="M193.654,-53.4087C181.314,-45.3397 160.919,-32.005 145.838,-22.144"/>
<polygon fill="midnightblue" stroke="midnightblue" points="147.539,-19.0742 137.253,-16.5311 143.708,-24.933 147.539,-19.0742"/>
</g>
<!-- Node6 -->
<g id="node6" class="node"><title>Node6</title>
<polygon fill="none" stroke="#bfbfbf" points="174,-0.5 174,-16.5 235,-16.5 235,-0.5 174,-0.5"/>
<text text-anchor="middle" x="204.5" y="-6.9" font-family="Helvetica,sans-Serif" font-size="7.00">QMouseEvent</text>
</g>
<!-- Node4&#45;&gt;Node6 -->
<g id="edge5" class="edge"><title>Node4&#45;&gt;Node6</title>
<path fill="none" stroke="midnightblue" d="M204.5,-53.4087C204.5,-46.5576 204.5,-35.9106 204.5,-26.8167"/>
<polygon fill="midnightblue" stroke="midnightblue" points="208,-26.5311 204.5,-16.5311 201,-26.5311 208,-26.5311"/>
</g>
<!-- Node7 -->
<g id="node7" class="node"><title>Node7</title>
<polygon fill="none" stroke="#bfbfbf" points="253.5,-0.5 253.5,-16.5 297.5,-16.5 297.5,-0.5 253.5,-0.5"/>
<text text-anchor="middle" x="275.5" y="-6.9" font-family="Helvetica,sans-Serif" font-size="7.00">QLayout</text>
</g>
<!-- Node4&#45;&gt;Node7 -->
<g id="edge6" class="edge"><title>Node4&#45;&gt;Node7</title>
<path fill="none" stroke="midnightblue" d="M214.372,-53.4087C225.5,-45.4158 243.82,-32.2561 257.508,-22.424"/>
<polygon fill="midnightblue" stroke="midnightblue" points="259.632,-25.2078 265.712,-16.5311 255.548,-19.5225 259.632,-25.2078"/>
</g>
</g>
</svg>
