<?xml version="1.0" encoding="UTF-8" standalone="no"?>
<!DOCTYPE svg PUBLIC "-//W3C//DTD SVG 1.1//EN"
 "http://www.w3.org/Graphics/SVG/1.1/DTD/svg11.dtd">
<!-- Generated by graphviz version 2.38.0 (20140413.2041)
 -->
<!-- Title: S:/QT_CREATOR/Locker_Control/custompushbutton.cpp Pages: 1 -->
<svg width="208pt" height="139pt"
 viewBox="0.00 0.00 208.00 139.00" xmlns="http://www.w3.org/2000/svg" xmlns:xlink="http://www.w3.org/1999/xlink">
<g id="graph0" class="graph" transform="scale(1 1) rotate(0) translate(4 135)">
<title>S:/QT_CREATOR/Locker_Control/custompushbutton.cpp</title>
<!-- Node1 -->
<g id="node1" class="node"><title>Node1</title>
<polygon fill="#bfbfbf" stroke="black" points="49,-106.5 49,-130.5 165,-130.5 165,-106.5 49,-106.5"/>
<text text-anchor="start" x="57" y="-120.9" font-family="Helvetica,sans-Serif" font-size="7.00">S:/QT_CREATOR/Locker</text>
<text text-anchor="middle" x="107" y="-112.9" font-family="Helvetica,sans-Serif" font-size="7.00">_Control/custompushbutton.cpp</text>
</g>
<!-- Node2 -->
<g id="node2" class="node"><title>Node2</title>
<g id="a_node2"><a xlink:href="custompushbutton_8h.html" target="_top" target="_top" xlink:title="custompushbutton.h">
<polygon fill="none" stroke="black" points="67,-53.5 67,-69.5 147,-69.5 147,-53.5 67,-53.5"/>
<text text-anchor="middle" x="107" y="-59.9" font-family="Helvetica,sans-Serif" font-size="7.00">custompushbutton.h</text>
</a>
</g>
</g>
<!-- Node1&#45;&gt;Node2 -->
<g id="edge1" class="edge"><title>Node1&#45;&gt;Node2</title>
<path fill="none" stroke="midnightblue" d="M107,-106.37C107,-98.7748 107,-88.5603 107,-79.8986"/>
<polygon fill="midnightblue" stroke="midnightblue" points="110.5,-79.7574 107,-69.7575 103.5,-79.7575 110.5,-79.7574"/>
</g>
<!-- Node3 -->
<g id="node3" class="node"><title>Node3</title>
<polygon fill="none" stroke="#bfbfbf" points="0,-0.5 0,-16.5 58,-16.5 58,-0.5 0,-0.5"/>
<text text-anchor="middle" x="29" y="-6.9" font-family="Helvetica,sans-Serif" font-size="7.00">QPushButton</text>
</g>
<!-- Node2&#45;&gt;Node3 -->
<g id="edge2" class="edge"><title>Node2&#45;&gt;Node3</title>
<path fill="none" stroke="midnightblue" d="M96.1544,-53.4087C83.8136,-45.3397 63.4194,-32.005 48.3378,-22.144"/>
<polygon fill="midnightblue" stroke="midnightblue" points="50.0386,-19.0742 39.7535,-16.5311 46.2078,-24.933 50.0386,-19.0742"/>
</g>
<!-- Node4 -->
<g id="node4" class="node"><title>Node4</title>
<polygon fill="none" stroke="#bfbfbf" points="76.5,-0.5 76.5,-16.5 137.5,-16.5 137.5,-0.5 76.5,-0.5"/>
<text text-anchor="middle" x="107" y="-6.9" font-family="Helvetica,sans-Serif" font-size="7.00">QMouseEvent</text>
</g>
<!-- Node2&#45;&gt;Node4 -->
<g id="edge3" class="edge"><title>Node2&#45;&gt;Node4</title>
<path fill="none" stroke="midnightblue" d="M107,-53.4087C107,-46.5576 107,-35.9106 107,-26.8167"/>
<polygon fill="midnightblue" stroke="midnightblue" points="110.5,-26.5311 107,-16.5311 103.5,-26.5311 110.5,-26.5311"/>
</g>
<!-- Node5 -->
<g id="node5" class="node"><title>Node5</title>
<polygon fill="none" stroke="#bfbfbf" points="156,-0.5 156,-16.5 200,-16.5 200,-0.5 156,-0.5"/>
<text text-anchor="middle" x="178" y="-6.9" font-family="Helvetica,sans-Serif" font-size="7.00">QLayout</text>
</g>
<!-- Node2&#45;&gt;Node5 -->
<g id="edge4" class="edge"><title>Node2&#45;&gt;Node5</title>
<path fill="none" stroke="midnightblue" d="M116.872,-53.4087C128,-45.4158 146.32,-32.2561 160.008,-22.424"/>
<polygon fill="midnightblue" stroke="midnightblue" points="162.132,-25.2078 168.212,-16.5311 158.048,-19.5225 162.132,-25.2078"/>
</g>
</g>
</svg>
