<?xml version="1.0" encoding="UTF-8" standalone="no"?>
<!DOCTYPE svg PUBLIC "-//W3C//DTD SVG 1.1//EN"
 "http://www.w3.org/Graphics/SVG/1.1/DTD/svg11.dtd">
<!-- Generated by graphviz version 2.38.0 (20140413.2041)
 -->
<!-- Title: S:/QT_CREATOR/Locker_Control/customxml.h Pages: 1 -->
<svg width="509pt" height="216pt"
 viewBox="0.00 0.00 509.00 216.00" xmlns="http://www.w3.org/2000/svg" xmlns:xlink="http://www.w3.org/1999/xlink">
<g id="graph0" class="graph" transform="scale(1 1) rotate(0) translate(4 212)">
<title>S:/QT_CREATOR/Locker_Control/customxml.h</title>
<!-- Node1 -->
<g id="node1" class="node"><title>Node1</title>
<polygon fill="#bfbfbf" stroke="black" points="292,-183.5 292,-207.5 387,-207.5 387,-183.5 292,-183.5"/>
<text text-anchor="start" x="300" y="-197.9" font-family="Helvetica,sans-Serif" font-size="7.00">S:/QT_CREATOR/Locker</text>
<text text-anchor="middle" x="339.5" y="-189.9" font-family="Helvetica,sans-Serif" font-size="7.00">_Control/customxml.h</text>
</g>
<!-- Node2 -->
<g id="node2" class="node"><title>Node2</title>
<g id="a_node2"><a xlink:href="threadsavedelivery_8h.html" target="_top" xlink:title="S:/QT_CREATOR/Locker\l_Control/threadsavedelivery.h">
<polygon fill="none" stroke="black" points="82.5,-122.5 82.5,-146.5 194.5,-146.5 194.5,-122.5 82.5,-122.5"/>
<text text-anchor="start" x="90.5" y="-136.9" font-family="Helvetica,sans-Serif" font-size="7.00">S:/QT_CREATOR/Locker</text>
<text text-anchor="middle" x="138.5" y="-128.9" font-family="Helvetica,sans-Serif" font-size="7.00">_Control/threadsavedelivery.h</text>
</a>
</g>
</g>
<!-- Node1&#45;&gt;Node2 -->
<g id="edge1" class="edge"><title>Node1&#45;&gt;Node2</title>
<path fill="none" stroke="midnightblue" d="M292.057,-180.574C256.653,-170.182 208.933,-156.174 176.137,-146.548"/>
<polygon fill="midnightblue" stroke="midnightblue" points="291.112,-183.944 301.693,-183.403 293.084,-177.228 291.112,-183.944"/>
</g>
<!-- Node7 -->
<g id="node7" class="node"><title>Node7</title>
<g id="a_node7"><a xlink:href="settingsystem_8h.html" target="_top" xlink:title="S:/QT_CREATOR/Locker\l_Control/settingsystem.h">
<polygon fill="none" stroke="black" points="291.5,-122.5 291.5,-146.5 387.5,-146.5 387.5,-122.5 291.5,-122.5"/>
<text text-anchor="start" x="299.5" y="-136.9" font-family="Helvetica,sans-Serif" font-size="7.00">S:/QT_CREATOR/Locker</text>
<text text-anchor="middle" x="339.5" y="-128.9" font-family="Helvetica,sans-Serif" font-size="7.00">_Control/settingsystem.h</text>
</a>
</g>
</g>
<!-- Node1&#45;&gt;Node7 -->
<g id="edge7" class="edge"><title>Node1&#45;&gt;Node7</title>
<path fill="none" stroke="midnightblue" d="M339.5,-173.198C339.5,-164.173 339.5,-154.035 339.5,-146.548"/>
<polygon fill="midnightblue" stroke="midnightblue" points="336,-173.403 339.5,-183.403 343,-173.403 336,-173.403"/>
</g>
<!-- Node10 -->
<g id="node10" class="node"><title>Node10</title>
<g id="a_node10"><a xlink:href="customxml_8cpp.html" target="_top" xlink:title="S:/QT_CREATOR/Locker\l_Control/customxml.cpp">
<polygon fill="none" stroke="black" points="406,-122.5 406,-146.5 501,-146.5 501,-122.5 406,-122.5"/>
<text text-anchor="start" x="414" y="-136.9" font-family="Helvetica,sans-Serif" font-size="7.00">S:/QT_CREATOR/Locker</text>
<text text-anchor="middle" x="453.5" y="-128.9" font-family="Helvetica,sans-Serif" font-size="7.00">_Control/customxml.cpp</text>
</a>
</g>
</g>
<!-- Node1&#45;&gt;Node10 -->
<g id="edge13" class="edge"><title>Node1&#45;&gt;Node10</title>
<path fill="none" stroke="midnightblue" d="M370.084,-178.672C389.696,-168.521 414.666,-155.598 432.154,-146.548"/>
<polygon fill="midnightblue" stroke="midnightblue" points="368.215,-175.698 360.943,-183.403 371.432,-181.915 368.215,-175.698"/>
</g>
<!-- Node3 -->
<g id="node3" class="node"><title>Node3</title>
<g id="a_node3"><a xlink:href="deliveryconfirm_8h.html" target="_top" xlink:title="S:/QT_CREATOR/Locker\l_Control/deliveryconfirm.h">
<polygon fill="none" stroke="black" points="88,-61.5 88,-85.5 189,-85.5 189,-61.5 88,-61.5"/>
<text text-anchor="start" x="96" y="-75.9" font-family="Helvetica,sans-Serif" font-size="7.00">S:/QT_CREATOR/Locker</text>
<text text-anchor="middle" x="138.5" y="-67.9" font-family="Helvetica,sans-Serif" font-size="7.00">_Control/deliveryconfirm.h</text>
</a>
</g>
</g>
<!-- Node2&#45;&gt;Node3 -->
<g id="edge2" class="edge"><title>Node2&#45;&gt;Node3</title>
<path fill="none" stroke="midnightblue" d="M138.5,-112.198C138.5,-103.173 138.5,-93.0351 138.5,-85.5477"/>
<polygon fill="midnightblue" stroke="midnightblue" points="135,-112.403 138.5,-122.403 142,-112.403 135,-112.403"/>
</g>
<!-- Node6 -->
<g id="node6" class="node"><title>Node6</title>
<g id="a_node6"><a xlink:href="threadsavedelivery_8cpp.html" target="_top" xlink:title="S:/QT_CREATOR/Locker\l_Control/threadsavedelivery.cpp">
<polygon fill="none" stroke="black" points="0,-0.5 0,-24.5 119,-24.5 119,-0.5 0,-0.5"/>
<text text-anchor="start" x="8" y="-14.9" font-family="Helvetica,sans-Serif" font-size="7.00">S:/QT_CREATOR/Locker</text>
<text text-anchor="middle" x="59.5" y="-6.9" font-family="Helvetica,sans-Serif" font-size="7.00">_Control/threadsavedelivery.cpp</text>
</a>
</g>
</g>
<!-- Node2&#45;&gt;Node6 -->
<g id="edge6" class="edge"><title>Node2&#45;&gt;Node6</title>
<path fill="none" stroke="midnightblue" d="M110.25,-116.878C98.8655,-108.871 86.5491,-98.3197 78.5,-86 65.9741,-66.8284 61.6908,-39.7502 60.237,-24.6985"/>
<polygon fill="midnightblue" stroke="midnightblue" points="108.423,-119.866 118.687,-122.492 112.3,-114.038 108.423,-119.866"/>
</g>
<!-- Node4 -->
<g id="node4" class="node"><title>Node4</title>
<g id="a_node4"><a xlink:href="consolewindows_8h.html" target="_top" xlink:title="S:/QT_CREATOR/Locker\l_Control/consolewindows.h">
<polygon fill="none" stroke="red" points="289,-0.5 289,-24.5 390,-24.5 390,-0.5 289,-0.5"/>
<text text-anchor="start" x="297" y="-14.9" font-family="Helvetica,sans-Serif" font-size="7.00">S:/QT_CREATOR/Locker</text>
<text text-anchor="middle" x="339.5" y="-6.9" font-family="Helvetica,sans-Serif" font-size="7.00">_Control/consolewindows.h</text>
</a>
</g>
</g>
<!-- Node3&#45;&gt;Node4 -->
<g id="edge3" class="edge"><title>Node3&#45;&gt;Node4</title>
<path fill="none" stroke="midnightblue" d="M185.943,-58.5739C221.347,-48.1817 269.067,-34.1744 301.863,-24.5477"/>
<polygon fill="midnightblue" stroke="midnightblue" points="184.916,-55.2277 176.307,-61.4026 186.888,-61.9443 184.916,-55.2277"/>
</g>
<!-- Node5 -->
<g id="node5" class="node"><title>Node5</title>
<g id="a_node5"><a xlink:href="deliveryconfirm_8cpp.html" target="_top" xlink:title="S:/QT_CREATOR/Locker\l_Control/deliveryconfirm.cpp">
<polygon fill="none" stroke="black" points="137.5,-0.5 137.5,-24.5 245.5,-24.5 245.5,-0.5 137.5,-0.5"/>
<text text-anchor="start" x="145.5" y="-14.9" font-family="Helvetica,sans-Serif" font-size="7.00">S:/QT_CREATOR/Locker</text>
<text text-anchor="middle" x="191.5" y="-6.9" font-family="Helvetica,sans-Serif" font-size="7.00">_Control/deliveryconfirm.cpp</text>
</a>
</g>
</g>
<!-- Node3&#45;&gt;Node5 -->
<g id="edge4" class="edge"><title>Node3&#45;&gt;Node5</title>
<path fill="none" stroke="midnightblue" d="M155.263,-53.8395C163.919,-44.2037 174.185,-32.7756 181.576,-24.5477"/>
<polygon fill="midnightblue" stroke="midnightblue" points="152.548,-51.6244 148.469,-61.4026 157.755,-56.3023 152.548,-51.6244"/>
</g>
<!-- Node3&#45;&gt;Node6 -->
<g id="edge5" class="edge"><title>Node3&#45;&gt;Node6</title>
<path fill="none" stroke="midnightblue" d="M115.43,-55.2709C102.153,-45.3545 85.8606,-33.187 74.2927,-24.5477"/>
<polygon fill="midnightblue" stroke="midnightblue" points="113.534,-58.223 123.641,-61.4026 117.723,-52.6145 113.534,-58.223"/>
</g>
<!-- Node7&#45;&gt;Node4 -->
<g id="edge8" class="edge"><title>Node7&#45;&gt;Node4</title>
<path fill="none" stroke="midnightblue" d="M339.5,-112.249C339.5,-86.6002 339.5,-44.4411 339.5,-24.5475"/>
<polygon fill="midnightblue" stroke="midnightblue" points="336,-112.426 339.5,-122.426 343,-112.426 336,-112.426"/>
</g>
<!-- Node8 -->
<g id="node8" class="node"><title>Node8</title>
<g id="a_node8"><a xlink:href="editsettingsystem_8h.html" target="_top" xlink:title="S:/QT_CREATOR/Locker\l_Control/editsettingsystem.h">
<polygon fill="none" stroke="red" points="368,-61.5 368,-85.5 475,-85.5 475,-61.5 368,-61.5"/>
<text text-anchor="start" x="376" y="-75.9" font-family="Helvetica,sans-Serif" font-size="7.00">S:/QT_CREATOR/Locker</text>
<text text-anchor="middle" x="421.5" y="-67.9" font-family="Helvetica,sans-Serif" font-size="7.00">_Control/editsettingsystem.h</text>
</a>
</g>
</g>
<!-- Node7&#45;&gt;Node8 -->
<g id="edge9" class="edge"><title>Node7&#45;&gt;Node8</title>
<path fill="none" stroke="midnightblue" d="M357.612,-115.987C370.414,-106.123 387.393,-94.1048 400.743,-85.5477"/>
<polygon fill="midnightblue" stroke="midnightblue" points="355.178,-113.45 349.512,-122.403 359.524,-118.937 355.178,-113.45"/>
</g>
<!-- Node9 -->
<g id="node9" class="node"><title>Node9</title>
<g id="a_node9"><a xlink:href="settingsystem_8cpp.html" target="_top" xlink:title="S:/QT_CREATOR/Locker\l_Control/settingsystem.cpp">
<polygon fill="none" stroke="black" points="207.5,-61.5 207.5,-85.5 311.5,-85.5 311.5,-61.5 207.5,-61.5"/>
<text text-anchor="start" x="215.5" y="-75.9" font-family="Helvetica,sans-Serif" font-size="7.00">S:/QT_CREATOR/Locker</text>
<text text-anchor="middle" x="259.5" y="-67.9" font-family="Helvetica,sans-Serif" font-size="7.00">_Control/settingsystem.cpp</text>
</a>
</g>
</g>
<!-- Node7&#45;&gt;Node9 -->
<g id="edge12" class="edge"><title>Node7&#45;&gt;Node9</title>
<path fill="none" stroke="midnightblue" d="M316.138,-116.271C302.693,-106.354 286.194,-94.187 274.48,-85.5477"/>
<polygon fill="midnightblue" stroke="midnightblue" points="314.327,-119.284 324.453,-122.403 318.482,-113.65 314.327,-119.284"/>
</g>
<!-- Node8&#45;&gt;Node4 -->
<g id="edge11" class="edge"><title>Node8&#45;&gt;Node4</title>
<path fill="none" stroke="midnightblue" d="M397.947,-55.5536C384.095,-45.5866 366.976,-33.2693 354.854,-24.5477"/>
<polygon fill="midnightblue" stroke="midnightblue" points="395.915,-58.4031 406.076,-61.4026 400.003,-52.721 395.915,-58.4031"/>
</g>
<!-- Node8&#45;&gt;Node7 -->
<g id="edge10" class="edge"><title>Node8&#45;&gt;Node7</title>
<path fill="none" stroke="midnightblue" d="M403.462,-91.9558C390.676,-101.811 373.699,-113.832 360.335,-122.403"/>
<polygon fill="midnightblue" stroke="midnightblue" points="405.885,-94.5017 411.549,-85.5477 401.537,-89.0155 405.885,-94.5017"/>
</g>
</g>
</svg>
