<?xml version="1.0" encoding="UTF-8" standalone="no"?>
<!DOCTYPE svg PUBLIC "-//W3C//DTD SVG 1.1//EN"
 "http://www.w3.org/Graphics/SVG/1.1/DTD/svg11.dtd">
<!-- Generated by graphviz version 2.38.0 (20140413.2041)
 -->
<!-- Title: S:/QT_CREATOR/Locker_Control/custompushbutton.h Pages: 1 -->
<svg width="208pt" height="86pt"
 viewBox="0.00 0.00 208.00 86.00" xmlns="http://www.w3.org/2000/svg" xmlns:xlink="http://www.w3.org/1999/xlink">
<g id="graph0" class="graph" transform="scale(1 1) rotate(0) translate(4 82)">
<title>S:/QT_CREATOR/Locker_Control/custompushbutton.h</title>
<!-- Node1 -->
<g id="node1" class="node"><title>Node1</title>
<polygon fill="#bfbfbf" stroke="black" points="52.5,-53.5 52.5,-77.5 161.5,-77.5 161.5,-53.5 52.5,-53.5"/>
<text text-anchor="start" x="60.5" y="-67.9" font-family="Helvetica,sans-Serif" font-size="7.00">S:/QT_CREATOR/Locker</text>
<text text-anchor="middle" x="107" y="-59.9" font-family="Helvetica,sans-Serif" font-size="7.00">_Control/custompushbutton.h</text>
</g>
<!-- Node2 -->
<g id="node2" class="node"><title>Node2</title>
<polygon fill="none" stroke="#bfbfbf" points="0,-0.5 0,-16.5 58,-16.5 58,-0.5 0,-0.5"/>
<text text-anchor="middle" x="29" y="-6.9" font-family="Helvetica,sans-Serif" font-size="7.00">QPushButton</text>
</g>
<!-- Node1&#45;&gt;Node2 -->
<g id="edge1" class="edge"><title>Node1&#45;&gt;Node2</title>
<path fill="none" stroke="midnightblue" d="M91.2155,-53.3699C78.6288,-44.4947 60.9698,-32.0428 47.6795,-22.6714"/>
<polygon fill="midnightblue" stroke="midnightblue" points="49.482,-19.6598 39.2924,-16.7575 45.448,-25.3806 49.482,-19.6598"/>
</g>
<!-- Node3 -->
<g id="node3" class="node"><title>Node3</title>
<polygon fill="none" stroke="#bfbfbf" points="76.5,-0.5 76.5,-16.5 137.5,-16.5 137.5,-0.5 76.5,-0.5"/>
<text text-anchor="middle" x="107" y="-6.9" font-family="Helvetica,sans-Serif" font-size="7.00">QMouseEvent</text>
</g>
<!-- Node1&#45;&gt;Node3 -->
<g id="edge2" class="edge"><title>Node1&#45;&gt;Node3</title>
<path fill="none" stroke="midnightblue" d="M107,-53.3699C107,-45.7748 107,-35.5603 107,-26.8986"/>
<polygon fill="midnightblue" stroke="midnightblue" points="110.5,-26.7574 107,-16.7575 103.5,-26.7575 110.5,-26.7574"/>
</g>
<!-- Node4 -->
<g id="node4" class="node"><title>Node4</title>
<polygon fill="none" stroke="#bfbfbf" points="156,-0.5 156,-16.5 200,-16.5 200,-0.5 156,-0.5"/>
<text text-anchor="middle" x="178" y="-6.9" font-family="Helvetica,sans-Serif" font-size="7.00">QLayout</text>
</g>
<!-- Node1&#45;&gt;Node4 -->
<g id="edge3" class="edge"><title>Node1&#45;&gt;Node4</title>
<path fill="none" stroke="midnightblue" d="M121.368,-53.3699C132.715,-44.58 148.591,-32.2819 160.647,-22.9426"/>
<polygon fill="midnightblue" stroke="midnightblue" points="162.869,-25.6484 168.631,-16.7575 158.582,-20.1146 162.869,-25.6484"/>
</g>
</g>
</svg>
