<?xml version="1.0" encoding="UTF-8" standalone="no"?>
<!DOCTYPE svg PUBLIC "-//W3C//DTD SVG 1.1//EN"
 "http://www.w3.org/Graphics/SVG/1.1/DTD/svg11.dtd">
<!-- Generated by graphviz version 2.38.0 (20140413.2041)
 -->
<!-- Title: S:/QT_CREATOR/Locker_Control/custompushbutton.h Pages: 1 -->
<!--zoomable 216 -->
<svg id="main" version="1.1" xmlns="http://www.w3.org/2000/svg" xmlns:xlink="http://www.w3.org/1999/xlink" xml:space="preserve" onload="init(evt)">
<style type="text/css"><![CDATA[
.edge:hover path { stroke: red; }
.edge:hover polygon { stroke: red; fill: red; }
]]></style>
<script type="text/javascript"><![CDATA[
var edges = document.getElementsByTagName('g');
if (edges && edges.length) {
  for (var i=0;i<edges.length;i++) {
    if (edges[i].id.substr(0,4)=='edge') {
      edges[i].setAttribute('class','edge');
    }
  }
}
]]></script>
        <defs>
                <circle id="rim" cx="0" cy="0" r="7"/>
                <circle id="rim2" cx="0" cy="0" r="3.5"/>
                <g id="zoomPlus">
                        <use xlink:href="#rim" fill="#404040">
                                <set attributeName="fill" to="#808080" begin="zoomplus.mouseover" end="zoomplus.mouseout"/>
                        </use>
                        <path d="M-4,0h8M0,-4v8" fill="none" stroke="white" stroke-width="1.5" pointer-events="none"/>
                </g>
                <g id="zoomMin">
                        <use xlink:href="#rim" fill="#404040">
                                <set attributeName="fill" to="#808080" begin="zoomminus.mouseover" end="zoomminus.mouseout"/>
                        </use>
                        <path d="M-4,0h8" fill="none" stroke="white" stroke-width="1.5" pointer-events="none"/>
                </g>
                <g id="dirArrow">
                        <path fill="none" stroke="white" stroke-width="1.5" d="M0,-3.0v7 M-2.5,-0.5L0,-3.0L2.5,-0.5"/>
                </g>
               <g id="resetDef">
                       <use xlink:href="#rim2" fill="#404040">
                               <set attributeName="fill" to="#808080" begin="reset.mouseover" end="reset.mouseout"/>
                       </use>
               </g>
        </defs>

<script type="text/javascript">
var viewWidth = 600;
var viewHeight = 216;
var sectionId = 'dynsection-1';
</script>
<script xlink:href="svgpan.js"/>
<svg id="graph" class="graph">
<g id="viewport">
<title>S:/QT_CREATOR/Locker_Control/custompushbutton.h</title>
<!-- Node1 -->
<g id="node1" class="node"><title>Node1</title>
<polygon fill="#bfbfbf" stroke="black" points="141.263,-183.5 141.263,-207.5 250.263,-207.5 250.263,-183.5 141.263,-183.5"/>
<text text-anchor="start" x="149.263" y="-197.9" font-family="Helvetica,sans-Serif" font-size="7.00">S:/QT_CREATOR/Locker</text>
<text text-anchor="middle" x="195.763" y="-189.9" font-family="Helvetica,sans-Serif" font-size="7.00">_Control/custompushbutton.h</text>
</g>
<!-- Node2 -->
<g id="node2" class="node"><title>Node2</title>
<g id="a_node2"><a xlink:href="customtreewidget_8h.html" target="_top" xlink:title="S:/QT_CREATOR/Locker\l_Control/customtreewidget.h">
<polygon fill="none" stroke="black" points="202.763,-122.5 202.763,-146.5 308.763,-146.5 308.763,-122.5 202.763,-122.5"/>
<text text-anchor="start" x="210.763" y="-136.9" font-family="Helvetica,sans-Serif" font-size="7.00">S:/QT_CREATOR/Locker</text>
<text text-anchor="middle" x="255.763" y="-128.9" font-family="Helvetica,sans-Serif" font-size="7.00">_Control/customtreewidget.h</text>
</a>
</g>
</g>
<!-- Node1&#45;&gt;Node2 -->
<g id="edge1" class="edge"><title>Node1&#45;&gt;Node2</title>
<path fill="none" stroke="midnightblue" d="M214.446,-176.128C224.306,-166.433 236.077,-154.858 244.528,-146.548"/>
<polygon fill="midnightblue" stroke="midnightblue" points="211.725,-173.896 207.048,-183.403 216.633,-178.887 211.725,-173.896"/>
</g>
<!-- Node4 -->
<g id="node4" class="node"><title>Node4</title>
<g id="a_node4"><a xlink:href="showpackagebox_8cpp.html" target="_top" xlink:title="S:/QT_CREATOR/Locker\l_Control/showpackagebox.cpp">
<polygon fill="none" stroke="black" points="25.7629,-0.5 25.7629,-24.5 137.763,-24.5 137.763,-0.5 25.7629,-0.5"/>
<text text-anchor="start" x="33.7629" y="-14.9" font-family="Helvetica,sans-Serif" font-size="7.00">S:/QT_CREATOR/Locker</text>
<text text-anchor="middle" x="81.7629" y="-6.9" font-family="Helvetica,sans-Serif" font-size="7.00">_Control/showpackagebox.cpp</text>
</a>
</g>
</g>
<!-- Node1&#45;&gt;Node4 -->
<g id="edge13" class="edge"><title>Node1&#45;&gt;Node4</title>
<path fill="none" stroke="midnightblue" d="M132.047,-180.492C84.694,-166.044 24.8062,-138.025 3.7629,-86 -0.403453,-75.6996 -1.67972,-70.6868 3.7629,-61 13.4709,-43.7217 32.295,-31.9919 49.0183,-24.5115"/>
<polygon fill="midnightblue" stroke="midnightblue" points="131.363,-183.938 141.942,-183.373 133.319,-177.217 131.363,-183.938"/>
</g>
<!-- Node5 -->
<g id="node5" class="node"><title>Node5</title>
<g id="a_node5"><a xlink:href="stowpackages_8h.html" target="_top" xlink:title="S:/QT_CREATOR/Locker\l_Control/stowpackages.h">
<polygon fill="none" stroke="red" points="13.2629,-61.5 13.2629,-85.5 108.263,-85.5 108.263,-61.5 13.2629,-61.5"/>
<text text-anchor="start" x="21.2629" y="-75.9" font-family="Helvetica,sans-Serif" font-size="7.00">S:/QT_CREATOR/Locker</text>
<text text-anchor="middle" x="60.7629" y="-67.9" font-family="Helvetica,sans-Serif" font-size="7.00">_Control/stowpackages.h</text>
</a>
</g>
</g>
<!-- Node1&#45;&gt;Node5 -->
<g id="edge10" class="edge"><title>Node1&#45;&gt;Node5</title>
<path fill="none" stroke="midnightblue" d="M131.707,-180.118C112.676,-173 93.3153,-162.476 79.7629,-147 64.5043,-129.575 61.279,-101.331 60.7301,-85.7373"/>
<polygon fill="midnightblue" stroke="midnightblue" points="130.7,-183.473 141.295,-183.442 132.993,-176.859 130.7,-183.473"/>
</g>
<!-- Node6 -->
<g id="node6" class="node"><title>Node6</title>
<g id="a_node6"><a xlink:href="openemptybox_8h.html" target="_top" xlink:title="S:/QT_CREATOR/Locker\l_Control/openemptybox.h">
<polygon fill="none" stroke="red" points="493.763,-61.5 493.763,-85.5 591.763,-85.5 591.763,-61.5 493.763,-61.5"/>
<text text-anchor="start" x="501.763" y="-75.9" font-family="Helvetica,sans-Serif" font-size="7.00">S:/QT_CREATOR/Locker</text>
<text text-anchor="middle" x="542.763" y="-67.9" font-family="Helvetica,sans-Serif" font-size="7.00">_Control/openemptybox.h</text>
</a>
</g>
</g>
<!-- Node1&#45;&gt;Node6 -->
<g id="edge11" class="edge"><title>Node1&#45;&gt;Node6</title>
<path fill="none" stroke="midnightblue" d="M239.186,-180.114C262.931,-171.628 292.557,-160.014 317.763,-147 335.726,-137.726 337.265,-130.157 355.763,-122 380.205,-111.221 446.781,-95.4351 493.5,-85.0652"/>
<polygon fill="midnightblue" stroke="midnightblue" points="238.006,-176.82 229.734,-183.44 240.328,-183.423 238.006,-176.82"/>
</g>
<!-- Node9 -->
<g id="node9" class="node"><title>Node9</title>
<g id="a_node9"><a xlink:href="scanpackage_8h.html" target="_top" xlink:title="S:/QT_CREATOR/Locker\l_Control/scanpackage.h">
<polygon fill="none" stroke="red" points="89.2629,-122.5 89.2629,-146.5 184.263,-146.5 184.263,-122.5 89.2629,-122.5"/>
<text text-anchor="start" x="97.2629" y="-136.9" font-family="Helvetica,sans-Serif" font-size="7.00">S:/QT_CREATOR/Locker</text>
<text text-anchor="middle" x="136.763" y="-128.9" font-family="Helvetica,sans-Serif" font-size="7.00">_Control/scanpackage.h</text>
</a>
</g>
</g>
<!-- Node1&#45;&gt;Node9 -->
<g id="edge8" class="edge"><title>Node1&#45;&gt;Node9</title>
<path fill="none" stroke="midnightblue" d="M177.391,-176.128C167.695,-166.433 156.121,-154.858 147.811,-146.548"/>
<polygon fill="midnightblue" stroke="midnightblue" points="175.119,-178.806 184.665,-183.403 180.069,-173.857 175.119,-178.806"/>
</g>
<!-- Node10 -->
<g id="node10" class="node"><title>Node10</title>
<g id="a_node10"><a xlink:href="custompushbutton_8cpp.html" target="_top" xlink:title="S:/QT_CREATOR/Locker\l_Control/custompushbutton.cpp">
<polygon fill="none" stroke="black" points="364.763,-122.5 364.763,-146.5 480.763,-146.5 480.763,-122.5 364.763,-122.5"/>
<text text-anchor="start" x="372.763" y="-136.9" font-family="Helvetica,sans-Serif" font-size="7.00">S:/QT_CREATOR/Locker</text>
<text text-anchor="middle" x="422.763" y="-128.9" font-family="Helvetica,sans-Serif" font-size="7.00">_Control/custompushbutton.cpp</text>
</a>
</g>
</g>
<!-- Node1&#45;&gt;Node10 -->
<g id="edge12" class="edge"><title>Node1&#45;&gt;Node10</title>
<path fill="none" stroke="midnightblue" d="M248.049,-180.91C288.121,-170.495 342.719,-156.304 380.155,-146.574"/>
<polygon fill="midnightblue" stroke="midnightblue" points="246.992,-177.569 238.194,-183.472 248.752,-184.344 246.992,-177.569"/>
</g>
<!-- Node3 -->
<g id="node3" class="node"><title>Node3</title>
<g id="a_node3"><a xlink:href="showpackagebox_8h.html" target="_top" xlink:title="S:/QT_CREATOR/Locker\l_Control/showpackagebox.h">
<polygon fill="none" stroke="red" points="126.763,-61.5 126.763,-85.5 230.763,-85.5 230.763,-61.5 126.763,-61.5"/>
<text text-anchor="start" x="134.763" y="-75.9" font-family="Helvetica,sans-Serif" font-size="7.00">S:/QT_CREATOR/Locker</text>
<text text-anchor="middle" x="178.763" y="-67.9" font-family="Helvetica,sans-Serif" font-size="7.00">_Control/showpackagebox.h</text>
</a>
</g>
</g>
<!-- Node2&#45;&gt;Node3 -->
<g id="edge2" class="edge"><title>Node2&#45;&gt;Node3</title>
<path fill="none" stroke="midnightblue" d="M233.277,-116.271C220.336,-106.354 204.456,-94.187 193.181,-85.5477"/>
<polygon fill="midnightblue" stroke="midnightblue" points="231.213,-119.099 241.28,-122.403 235.471,-113.542 231.213,-119.099"/>
</g>
<!-- Node2&#45;&gt;Node5 -->
<g id="edge4" class="edge"><title>Node2&#45;&gt;Node5</title>
<path fill="none" stroke="midnightblue" d="M209.295,-119.44C174.993,-109.062 128.958,-95.1333 97.2764,-85.5477"/>
<polygon fill="midnightblue" stroke="midnightblue" points="208.5,-122.857 219.085,-122.403 210.527,-116.156 208.5,-122.857"/>
</g>
<!-- Node2&#45;&gt;Node6 -->
<g id="edge5" class="edge"><title>Node2&#45;&gt;Node6</title>
<path fill="none" stroke="midnightblue" d="M318.961,-120.508C371.536,-109.7 445.319,-94.5319 493.571,-84.6126"/>
<polygon fill="midnightblue" stroke="midnightblue" points="318.163,-117.099 309.073,-122.541 319.573,-123.955 318.163,-117.099"/>
</g>
<!-- Node7 -->
<g id="node7" class="node"><title>Node7</title>
<g id="a_node7"><a xlink:href="doorsmanager_8h.html" target="_top" xlink:title="S:/QT_CREATOR/Locker\l_Control/doorsmanager.h">
<polygon fill="none" stroke="red" points="249.263,-61.5 249.263,-85.5 344.263,-85.5 344.263,-61.5 249.263,-61.5"/>
<text text-anchor="start" x="257.263" y="-75.9" font-family="Helvetica,sans-Serif" font-size="7.00">S:/QT_CREATOR/Locker</text>
<text text-anchor="middle" x="296.763" y="-67.9" font-family="Helvetica,sans-Serif" font-size="7.00">_Control/doorsmanager.h</text>
</a>
</g>
</g>
<!-- Node2&#45;&gt;Node7 -->
<g id="edge6" class="edge"><title>Node2&#45;&gt;Node7</title>
<path fill="none" stroke="midnightblue" d="M269.336,-113.968C275.901,-104.521 283.539,-93.5288 289.086,-85.5477"/>
<polygon fill="midnightblue" stroke="midnightblue" points="266.307,-112.193 263.475,-122.403 272.055,-116.188 266.307,-112.193"/>
</g>
<!-- Node8 -->
<g id="node8" class="node"><title>Node8</title>
<g id="a_node8"><a xlink:href="customtreewidget_8cpp.html" target="_top" xlink:title="S:/QT_CREATOR/Locker\l_Control/customtreewidget.cpp">
<polygon fill="none" stroke="black" points="362.263,-61.5 362.263,-85.5 475.263,-85.5 475.263,-61.5 362.263,-61.5"/>
<text text-anchor="start" x="370.263" y="-75.9" font-family="Helvetica,sans-Serif" font-size="7.00">S:/QT_CREATOR/Locker</text>
<text text-anchor="middle" x="418.763" y="-67.9" font-family="Helvetica,sans-Serif" font-size="7.00">_Control/customtreewidget.cpp</text>
</a>
</g>
</g>
<!-- Node2&#45;&gt;Node8 -->
<g id="edge7" class="edge"><title>Node2&#45;&gt;Node8</title>
<path fill="none" stroke="midnightblue" d="M296.091,-118.903C324.596,-108.585 362.214,-94.9687 388.241,-85.5477"/>
<polygon fill="midnightblue" stroke="midnightblue" points="294.634,-115.708 286.422,-122.403 297.016,-122.29 294.634,-115.708"/>
</g>
<!-- Node3&#45;&gt;Node4 -->
<g id="edge3" class="edge"><title>Node3&#45;&gt;Node4</title>
<path fill="none" stroke="midnightblue" d="M151.825,-56.1152C135.282,-46.0527 114.536,-33.4339 99.926,-24.5477"/>
<polygon fill="midnightblue" stroke="midnightblue" points="150.155,-59.1961 160.518,-61.4026 153.793,-53.2155 150.155,-59.1961"/>
</g>
<!-- Node9&#45;&gt;Node5 -->
<g id="edge9" class="edge"><title>Node9&#45;&gt;Node5</title>
<path fill="none" stroke="midnightblue" d="M114.204,-115.987C101.498,-106.123 86.0165,-94.1048 74.9938,-85.5477"/>
<polygon fill="midnightblue" stroke="midnightblue" points="112.422,-119.035 122.468,-122.403 116.715,-113.506 112.422,-119.035"/>
</g>
</g>
</svg>
        <g id="navigator" transform="translate(0 0)" fill="#404254">
                <rect fill="#f2f5e9" fill-opacity="0.5" stroke="#606060" stroke-width=".5" x="0" y="0" width="60" height="60"/>
                <use id="zoomplus" xlink:href="#zoomPlus" x="17" y="9" onmousedown="handleZoom(evt,'in')"/>
                <use id="zoomminus" xlink:href="#zoomMin" x="42" y="9" onmousedown="handleZoom(evt,'out')"/>
                <use id="reset" xlink:href="#resetDef" x="30" y="36" onmousedown="handleReset()"/>
                <g id="arrowUp" xlink:href="#dirArrow" transform="translate(30 24)" onmousedown="handlePan(0,-1)">
                  <use xlink:href="#rim" fill="#404040">
                        <set attributeName="fill" to="#808080" begin="arrowUp.mouseover" end="arrowUp.mouseout"/>
                  </use>
                  <path fill="none" stroke="white" stroke-width="1.5" d="M0,-3.0v7 M-2.5,-0.5L0,-3.0L2.5,-0.5"/>
                </g>
                <g id="arrowRight" xlink:href="#dirArrow" transform="rotate(90) translate(36 -43)" onmousedown="handlePan(1,0)">
                  <use xlink:href="#rim" fill="#404040">
                        <set attributeName="fill" to="#808080" begin="arrowRight.mouseover" end="arrowRight.mouseout"/>
                  </use>
                  <path fill="none" stroke="white" stroke-width="1.5" d="M0,-3.0v7 M-2.5,-0.5L0,-3.0L2.5,-0.5"/>
                </g>
                <g id="arrowDown" xlink:href="#dirArrow" transform="rotate(180) translate(-30 -48)" onmousedown="handlePan(0,1)">
                  <use xlink:href="#rim" fill="#404040">
                        <set attributeName="fill" to="#808080" begin="arrowDown.mouseover" end="arrowDown.mouseout"/>
                  </use>
                  <path fill="none" stroke="white" stroke-width="1.5" d="M0,-3.0v7 M-2.5,-0.5L0,-3.0L2.5,-0.5"/>
                </g>
                <g id="arrowLeft" xlink:href="#dirArrow" transform="rotate(270) translate(-36 17)" onmousedown="handlePan(-1,0)">
                  <use xlink:href="#rim" fill="#404040">
                        <set attributeName="fill" to="#808080" begin="arrowLeft.mouseover" end="arrowLeft.mouseout"/>
                  </use>
                  <path fill="none" stroke="white" stroke-width="1.5" d="M0,-3.0v7 M-2.5,-0.5L0,-3.0L2.5,-0.5"/>
                </g>
        </g>
        <svg viewBox="0 0 15 15" width="100%" height="30px" preserveAspectRatio="xMaxYMin meet">
         <g id="arrow_out" transform="scale(0.3 0.3)">
          <a xlink:href="custompushbutton_8h__dep__incl_org.svg" target="_base">
           <rect id="button" ry="5" rx="5" y="6" x="6" height="38" width="38"
                fill="#f2f5e9" fill-opacity="0.5" stroke="#606060" stroke-width="1.0"/>
           <path id="arrow"
             d="M 11.500037,31.436501 C 11.940474,20.09759 22.043105,11.32322 32.158766,21.979434 L 37.068811,17.246167 C 37.068811,17.246167 37.088388,32 37.088388,32 L 22.160133,31.978069 C 22.160133,31.978069 26.997745,27.140456 26.997745,27.140456 C 18.528582,18.264221 13.291696,25.230495 11.500037,31.436501 z"
             style="fill:#404040;"/>
          </a>
         </g>
        </svg>
</svg>
