<?xml version="1.0" encoding="UTF-8" standalone="no"?>
<!DOCTYPE svg PUBLIC "-//W3C//DTD SVG 1.1//EN"
 "http://www.w3.org/Graphics/SVG/1.1/DTD/svg11.dtd">
<!-- Generated by graphviz version 2.38.0 (20140413.2041)
 -->
<!-- Title: S:/QT_CREATOR/Locker_Control/customer.cpp Pages: 1 -->
<svg width="360pt" height="192pt"
 viewBox="0.00 0.00 360.00 192.00" xmlns="http://www.w3.org/2000/svg" xmlns:xlink="http://www.w3.org/1999/xlink">
<g id="graph0" class="graph" transform="scale(1 1) rotate(0) translate(4 188)">
<title>S:/QT_CREATOR/Locker_Control/customer.cpp</title>
<!-- Node1 -->
<g id="node1" class="node"><title>Node1</title>
<polygon fill="#bfbfbf" stroke="black" points="186.5,-159.5 186.5,-183.5 281.5,-183.5 281.5,-159.5 186.5,-159.5"/>
<text text-anchor="start" x="194.5" y="-173.9" font-family="Helvetica,sans-Serif" font-size="7.00">S:/QT_CREATOR/Locker</text>
<text text-anchor="middle" x="234" y="-165.9" font-family="Helvetica,sans-Serif" font-size="7.00">_Control/customer.cpp</text>
</g>
<!-- Node2 -->
<g id="node2" class="node"><title>Node2</title>
<g id="a_node2"><a xlink:href="customer_8h.html" target="_top" xlink:title="customer.h">
<polygon fill="none" stroke="black" points="98,-106.5 98,-122.5 150,-122.5 150,-106.5 98,-106.5"/>
<text text-anchor="middle" x="124" y="-112.9" font-family="Helvetica,sans-Serif" font-size="7.00">customer.h</text>
</a>
</g>
</g>
<!-- Node1&#45;&gt;Node2 -->
<g id="edge1" class="edge"><title>Node1&#45;&gt;Node2</title>
<path fill="none" stroke="midnightblue" d="M211.74,-159.37C193.029,-150.015 166.37,-136.685 147.357,-127.179"/>
<polygon fill="midnightblue" stroke="midnightblue" points="148.704,-123.939 138.194,-122.597 145.573,-130.2 148.704,-123.939"/>
</g>
<!-- Node8 -->
<g id="node8" class="node"><title>Node8</title>
<polygon fill="none" stroke="#bfbfbf" points="168.5,-106.5 168.5,-122.5 229.5,-122.5 229.5,-106.5 168.5,-106.5"/>
<text text-anchor="middle" x="199" y="-112.9" font-family="Helvetica,sans-Serif" font-size="7.00">ui_customer.h</text>
</g>
<!-- Node1&#45;&gt;Node8 -->
<g id="edge10" class="edge"><title>Node1&#45;&gt;Node8</title>
<path fill="none" stroke="midnightblue" d="M226.917,-159.37C221.812,-151.348 214.848,-140.404 209.153,-131.454"/>
<polygon fill="midnightblue" stroke="midnightblue" points="211.94,-129.315 203.618,-122.757 206.034,-133.073 211.94,-129.315"/>
</g>
<!-- Node9 -->
<g id="node9" class="node"><title>Node9</title>
<polygon fill="none" stroke="#bfbfbf" points="248,-106.5 248,-122.5 292,-122.5 292,-106.5 248,-106.5"/>
<text text-anchor="middle" x="270" y="-112.9" font-family="Helvetica,sans-Serif" font-size="7.00">QToolTip</text>
</g>
<!-- Node1&#45;&gt;Node9 -->
<g id="edge11" class="edge"><title>Node1&#45;&gt;Node9</title>
<path fill="none" stroke="midnightblue" d="M241.285,-159.37C246.592,-151.263 253.852,-140.171 259.744,-131.169"/>
<polygon fill="midnightblue" stroke="midnightblue" points="262.701,-133.041 265.25,-122.757 256.845,-129.208 262.701,-133.041"/>
</g>
<!-- Node10 -->
<g id="node10" class="node"><title>Node10</title>
<polygon fill="none" stroke="#bfbfbf" points="310,-106.5 310,-122.5 352,-122.5 352,-106.5 310,-106.5"/>
<text text-anchor="middle" x="331" y="-112.9" font-family="Helvetica,sans-Serif" font-size="7.00">QDebug</text>
</g>
<!-- Node1&#45;&gt;Node10 -->
<g id="edge12" class="edge"><title>Node1&#45;&gt;Node10</title>
<path fill="none" stroke="midnightblue" d="M253.629,-159.37C269.826,-150.186 292.777,-137.173 309.474,-127.706"/>
<polygon fill="midnightblue" stroke="midnightblue" points="311.511,-130.574 318.483,-122.597 308.058,-124.485 311.511,-130.574"/>
</g>
<!-- Node3 -->
<g id="node3" class="node"><title>Node3</title>
<polygon fill="none" stroke="#bfbfbf" points="0,-0.5 0,-16.5 44,-16.5 44,-0.5 0,-0.5"/>
<text text-anchor="middle" x="22" y="-6.9" font-family="Helvetica,sans-Serif" font-size="7.00">QWidget</text>
</g>
<!-- Node2&#45;&gt;Node3 -->
<g id="edge2" class="edge"><title>Node2&#45;&gt;Node3</title>
<path fill="none" stroke="midnightblue" d="M114.118,-106.349C103.077,-98.1469 84.927,-84.018 71,-70 56.7418,-55.6486 42.4066,-37.3982 32.9582,-24.7136"/>
<polygon fill="midnightblue" stroke="midnightblue" points="35.7454,-22.5958 27.0129,-16.5962 30.0981,-26.7319 35.7454,-22.5958"/>
</g>
<!-- Node4 -->
<g id="node4" class="node"><title>Node4</title>
<polygon fill="none" stroke="#bfbfbf" points="218,-53.5 218,-69.5 292,-69.5 292,-53.5 218,-53.5"/>
<text text-anchor="middle" x="255" y="-59.9" font-family="Helvetica,sans-Serif" font-size="7.00">QRegExpValidator</text>
</g>
<!-- Node2&#45;&gt;Node4 -->
<g id="edge3" class="edge"><title>Node2&#45;&gt;Node4</title>
<path fill="none" stroke="midnightblue" d="M142.215,-106.409C164.31,-97.8068 201.776,-83.2209 227.417,-73.2383"/>
<polygon fill="midnightblue" stroke="midnightblue" points="228.891,-76.4206 236.94,-69.5311 226.351,-69.8975 228.891,-76.4206"/>
</g>
<!-- Node5 -->
<g id="node5" class="node"><title>Node5</title>
<g id="a_node5"><a xlink:href="showwidgets_8h.html" target="_top" xlink:title="showwidgets.h">
<polygon fill="none" stroke="red" points="65,-0.5 65,-16.5 127,-16.5 127,-0.5 65,-0.5"/>
<text text-anchor="middle" x="96" y="-6.9" font-family="Helvetica,sans-Serif" font-size="7.00">showwidgets.h</text>
</a>
</g>
</g>
<!-- Node2&#45;&gt;Node5 -->
<g id="edge4" class="edge"><title>Node2&#45;&gt;Node5</title>
<path fill="none" stroke="midnightblue" d="M111.703,-106.333C100.289,-98.894 84.0349,-86.0967 77,-70 70.5989,-55.3536 77.5697,-37.8607 84.8039,-25.461"/>
<polygon fill="midnightblue" stroke="midnightblue" points="87.936,-27.0618 90.4115,-16.7602 82.0522,-23.2696 87.936,-27.0618"/>
</g>
<!-- Node6 -->
<g id="node6" class="node"><title>Node6</title>
<g id="a_node6"><a xlink:href="csqlite__local__db_8h.html" target="_top" xlink:title="csqlite_local_db.h">
<polygon fill="none" stroke="red" points="152,-0.5 152,-16.5 224,-16.5 224,-0.5 152,-0.5"/>
<text text-anchor="middle" x="188" y="-6.9" font-family="Helvetica,sans-Serif" font-size="7.00">csqlite_local_db.h</text>
</a>
</g>
</g>
<!-- Node2&#45;&gt;Node6 -->
<g id="edge5" class="edge"><title>Node2&#45;&gt;Node6</title>
<path fill="none" stroke="midnightblue" d="M134.555,-106.427C145.276,-98.7031 161.601,-85.3648 171,-70 179.108,-56.7462 183.456,-39.5167 185.718,-26.836"/>
<polygon fill="midnightblue" stroke="midnightblue" points="189.214,-27.1263 187.257,-16.7137 182.293,-26.0738 189.214,-27.1263"/>
</g>
<!-- Node7 -->
<g id="node7" class="node"><title>Node7</title>
<g id="a_node7"><a xlink:href="showpackagebox_8h.html" target="_top" xlink:title="showpackagebox.h">
<polygon fill="none" stroke="red" points="86,-53.5 86,-69.5 162,-69.5 162,-53.5 86,-53.5"/>
<text text-anchor="middle" x="124" y="-59.9" font-family="Helvetica,sans-Serif" font-size="7.00">showpackagebox.h</text>
</a>
</g>
</g>
<!-- Node2&#45;&gt;Node7 -->
<g id="edge6" class="edge"><title>Node2&#45;&gt;Node7</title>
<path fill="none" stroke="midnightblue" d="M124,-106.409C124,-99.5576 124,-88.9106 124,-79.8167"/>
<polygon fill="midnightblue" stroke="midnightblue" points="127.5,-79.5311 124,-69.5311 120.5,-79.5311 127.5,-79.5311"/>
</g>
<!-- Node7&#45;&gt;Node3 -->
<g id="edge7" class="edge"><title>Node7&#45;&gt;Node3</title>
<path fill="none" stroke="midnightblue" d="M109.817,-53.4087C93.0704,-45.0352 64.9822,-30.9911 45.0859,-21.0429"/>
<polygon fill="midnightblue" stroke="midnightblue" points="46.5718,-17.8728 36.0622,-16.5311 43.4412,-24.1338 46.5718,-17.8728"/>
</g>
<!-- Node7&#45;&gt;Node5 -->
<g id="edge8" class="edge"><title>Node7&#45;&gt;Node5</title>
<path fill="none" stroke="midnightblue" d="M120.107,-53.4087C116.136,-46.177 109.844,-34.7159 104.683,-25.3164"/>
<polygon fill="midnightblue" stroke="midnightblue" points="107.741,-23.6125 99.8602,-16.5311 101.605,-26.9813 107.741,-23.6125"/>
</g>
<!-- Node7&#45;&gt;Node6 -->
<g id="edge9" class="edge"><title>Node7&#45;&gt;Node6</title>
<path fill="none" stroke="midnightblue" d="M132.899,-53.4087C142.738,-45.568 158.817,-32.7556 171.072,-22.9894"/>
<polygon fill="midnightblue" stroke="midnightblue" points="173.537,-25.5004 179.177,-16.5311 169.175,-20.026 173.537,-25.5004"/>
</g>
</g>
</svg>
