<?xml version="1.0" encoding="UTF-8" standalone="no"?>
<!DOCTYPE svg PUBLIC "-//W3C//DTD SVG 1.1//EN"
 "http://www.w3.org/Graphics/SVG/1.1/DTD/svg11.dtd">
<!-- Generated by graphviz version 2.38.0 (20140413.2041)
 -->
<!-- Title: S:/QT_CREATOR/Locker_Control/customxml.h Pages: 1 -->
<svg width="338pt" height="139pt"
 viewBox="0.00 0.00 338.00 139.00" xmlns="http://www.w3.org/2000/svg" xmlns:xlink="http://www.w3.org/1999/xlink">
<g id="graph0" class="graph" transform="scale(1 1) rotate(0) translate(4 135)">
<title>S:/QT_CREATOR/Locker_Control/customxml.h</title>
<!-- Node1 -->
<g id="node1" class="node"><title>Node1</title>
<polygon fill="#bfbfbf" stroke="black" points="93,-106.5 93,-130.5 188,-130.5 188,-106.5 93,-106.5"/>
<text text-anchor="start" x="101" y="-120.9" font-family="Helvetica,sans-Serif" font-size="7.00">S:/QT_CREATOR/Locker</text>
<text text-anchor="middle" x="140.5" y="-112.9" font-family="Helvetica,sans-Serif" font-size="7.00">_Control/customxml.h</text>
</g>
<!-- Node2 -->
<g id="node2" class="node"><title>Node2</title>
<polygon fill="none" stroke="#bfbfbf" points="0,-53.5 0,-69.5 35,-69.5 35,-53.5 0,-53.5"/>
<text text-anchor="middle" x="17.5" y="-59.9" font-family="Helvetica,sans-Serif" font-size="7.00">QtXml</text>
</g>
<!-- Node1&#45;&gt;Node2 -->
<g id="edge1" class="edge"><title>Node1&#45;&gt;Node2</title>
<path fill="none" stroke="midnightblue" d="M115.609,-106.37C94.3991,-96.8858 64.0553,-83.3174 42.7446,-73.7882"/>
<polygon fill="midnightblue" stroke="midnightblue" points="43.9291,-70.484 33.3715,-69.597 41.0716,-76.8742 43.9291,-70.484"/>
</g>
<!-- Node3 -->
<g id="node3" class="node"><title>Node3</title>
<polygon fill="none" stroke="#bfbfbf" points="53.5,-53.5 53.5,-69.5 105.5,-69.5 105.5,-53.5 53.5,-53.5"/>
<text text-anchor="middle" x="79.5" y="-59.9" font-family="Helvetica,sans-Serif" font-size="7.00">QIODevice</text>
</g>
<!-- Node1&#45;&gt;Node3 -->
<g id="edge2" class="edge"><title>Node1&#45;&gt;Node3</title>
<path fill="none" stroke="midnightblue" d="M128.156,-106.37C118.596,-97.7507 105.295,-85.7582 95.0161,-76.4899"/>
<polygon fill="midnightblue" stroke="midnightblue" points="97.3198,-73.8545 87.5492,-69.7575 92.6324,-79.0533 97.3198,-73.8545"/>
</g>
<!-- Node4 -->
<g id="node4" class="node"><title>Node4</title>
<polygon fill="none" stroke="#bfbfbf" points="124,-53.5 124,-69.5 157,-69.5 157,-53.5 124,-53.5"/>
<text text-anchor="middle" x="140.5" y="-59.9" font-family="Helvetica,sans-Serif" font-size="7.00">QFile</text>
</g>
<!-- Node1&#45;&gt;Node4 -->
<g id="edge3" class="edge"><title>Node1&#45;&gt;Node4</title>
<path fill="none" stroke="midnightblue" d="M140.5,-106.37C140.5,-98.7748 140.5,-88.5603 140.5,-79.8986"/>
<polygon fill="midnightblue" stroke="midnightblue" points="144,-79.7574 140.5,-69.7575 137,-79.7575 144,-79.7574"/>
</g>
<!-- Node5 -->
<g id="node5" class="node"><title>Node5</title>
<polygon fill="none" stroke="#bfbfbf" points="175.5,-53.5 175.5,-69.5 233.5,-69.5 233.5,-53.5 175.5,-53.5"/>
<text text-anchor="middle" x="204.5" y="-59.9" font-family="Helvetica,sans-Serif" font-size="7.00">QTextStream</text>
</g>
<!-- Node1&#45;&gt;Node5 -->
<g id="edge4" class="edge"><title>Node1&#45;&gt;Node5</title>
<path fill="none" stroke="midnightblue" d="M153.451,-106.37C163.481,-97.7507 177.436,-85.7582 188.221,-76.4899"/>
<polygon fill="midnightblue" stroke="midnightblue" points="190.752,-78.9296 196.055,-69.7575 186.19,-73.6207 190.752,-78.9296"/>
</g>
<!-- Node6 -->
<g id="node6" class="node"><title>Node6</title>
<g id="a_node6"><a xlink:href="_data_structures_8h.html" target="_top" target="_top" xlink:title="Definnitions des formats de communications des données entre les classes de l&#39;application LC...">
<polygon fill="none" stroke="black" points="251.5,-53.5 251.5,-69.5 321.5,-69.5 321.5,-53.5 251.5,-53.5"/>
<text text-anchor="middle" x="286.5" y="-59.9" font-family="Helvetica,sans-Serif" font-size="7.00">DataStructures.h</text>
</a>
</g>
</g>
<!-- Node1&#45;&gt;Node6 -->
<g id="edge5" class="edge"><title>Node1&#45;&gt;Node6</title>
<path fill="none" stroke="midnightblue" d="M170.045,-106.37C195.791,-96.6712 232.874,-82.7014 258.235,-73.1478"/>
<polygon fill="midnightblue" stroke="midnightblue" points="259.537,-76.3976 267.661,-69.597 257.069,-69.847 259.537,-76.3976"/>
</g>
<!-- Node7 -->
<g id="node7" class="node"><title>Node7</title>
<polygon fill="none" stroke="#bfbfbf" points="238.5,-0.5 238.5,-16.5 278.5,-16.5 278.5,-0.5 238.5,-0.5"/>
<text text-anchor="middle" x="258.5" y="-6.9" font-family="Helvetica,sans-Serif" font-size="7.00">QString</text>
</g>
<!-- Node6&#45;&gt;Node7 -->
<g id="edge6" class="edge"><title>Node6&#45;&gt;Node7</title>
<path fill="none" stroke="midnightblue" d="M282.607,-53.4087C278.636,-46.177 272.344,-34.7159 267.183,-25.3164"/>
<polygon fill="midnightblue" stroke="midnightblue" points="270.241,-23.6125 262.36,-16.5311 264.105,-26.9813 270.241,-23.6125"/>
</g>
<!-- Node8 -->
<g id="node8" class="node"><title>Node8</title>
<polygon fill="none" stroke="#bfbfbf" points="297,-0.5 297,-16.5 330,-16.5 330,-0.5 297,-0.5"/>
<text text-anchor="middle" x="313.5" y="-6.9" font-family="Helvetica,sans-Serif" font-size="7.00">QList</text>
</g>
<!-- Node6&#45;&gt;Node8 -->
<g id="edge7" class="edge"><title>Node6&#45;&gt;Node8</title>
<path fill="none" stroke="midnightblue" d="M290.254,-53.4087C294.042,-46.2531 300.023,-34.9567 304.969,-25.6139"/>
<polygon fill="midnightblue" stroke="midnightblue" points="308.192,-27.0066 309.778,-16.5311 302.005,-23.7314 308.192,-27.0066"/>
</g>
</g>
</svg>
