<?xml version="1.0" encoding="UTF-8" standalone="no"?>
<!DOCTYPE svg PUBLIC "-//W3C//DTD SVG 1.1//EN"
 "http://www.w3.org/Graphics/SVG/1.1/DTD/svg11.dtd">
<!-- Generated by graphviz version 2.38.0 (20140413.2041)
 -->
<!-- Title: S:/QT_CREATOR/Locker_Control/customxml.cpp Pages: 1 -->
<svg width="338pt" height="192pt"
 viewBox="0.00 0.00 338.00 192.00" xmlns="http://www.w3.org/2000/svg" xmlns:xlink="http://www.w3.org/1999/xlink">
<g id="graph0" class="graph" transform="scale(1 1) rotate(0) translate(4 188)">
<title>S:/QT_CREATOR/Locker_Control/customxml.cpp</title>
<!-- Node1 -->
<g id="node1" class="node"><title>Node1</title>
<polygon fill="#bfbfbf" stroke="black" points="124,-159.5 124,-183.5 219,-183.5 219,-159.5 124,-159.5"/>
<text text-anchor="start" x="132" y="-173.9" font-family="Helvetica,sans-Serif" font-size="7.00">S:/QT_CREATOR/Locker</text>
<text text-anchor="middle" x="171.5" y="-165.9" font-family="Helvetica,sans-Serif" font-size="7.00">_Control/customxml.cpp</text>
</g>
<!-- Node2 -->
<g id="node2" class="node"><title>Node2</title>
<g id="a_node2"><a xlink:href="customxml_8h.html" target="_top" target="_top" xlink:title="customxml.h">
<polygon fill="none" stroke="black" points="112,-106.5 112,-122.5 169,-122.5 169,-106.5 112,-106.5"/>
<text text-anchor="middle" x="140.5" y="-112.9" font-family="Helvetica,sans-Serif" font-size="7.00">customxml.h</text>
</a>
</g>
</g>
<!-- Node1&#45;&gt;Node2 -->
<g id="edge1" class="edge"><title>Node1&#45;&gt;Node2</title>
<path fill="none" stroke="midnightblue" d="M165.227,-159.37C160.753,-151.433 154.668,-140.637 149.654,-131.741"/>
<polygon fill="midnightblue" stroke="midnightblue" points="152.55,-129.75 144.591,-122.757 146.452,-133.188 152.55,-129.75"/>
</g>
<!-- Node10 -->
<g id="node10" class="node"><title>Node10</title>
<polygon fill="none" stroke="#bfbfbf" points="187,-106.5 187,-122.5 218,-122.5 218,-106.5 187,-106.5"/>
<text text-anchor="middle" x="202.5" y="-112.9" font-family="Helvetica,sans-Serif" font-size="7.00">QDir</text>
</g>
<!-- Node1&#45;&gt;Node10 -->
<g id="edge9" class="edge"><title>Node1&#45;&gt;Node10</title>
<path fill="none" stroke="midnightblue" d="M177.773,-159.37C182.247,-151.433 188.332,-140.637 193.346,-131.741"/>
<polygon fill="midnightblue" stroke="midnightblue" points="196.548,-133.188 198.409,-122.757 190.45,-129.75 196.548,-133.188"/>
</g>
<!-- Node3 -->
<g id="node3" class="node"><title>Node3</title>
<polygon fill="none" stroke="#bfbfbf" points="0,-53.5 0,-69.5 35,-69.5 35,-53.5 0,-53.5"/>
<text text-anchor="middle" x="17.5" y="-59.9" font-family="Helvetica,sans-Serif" font-size="7.00">QtXml</text>
</g>
<!-- Node2&#45;&gt;Node3 -->
<g id="edge2" class="edge"><title>Node2&#45;&gt;Node3</title>
<path fill="none" stroke="midnightblue" d="M123.397,-106.409C102.744,-97.8449 67.7849,-83.3498 43.7186,-73.3711"/>
<polygon fill="midnightblue" stroke="midnightblue" points="45.0354,-70.1282 34.4574,-69.5311 42.3542,-76.5944 45.0354,-70.1282"/>
</g>
<!-- Node4 -->
<g id="node4" class="node"><title>Node4</title>
<polygon fill="none" stroke="#bfbfbf" points="53.5,-53.5 53.5,-69.5 105.5,-69.5 105.5,-53.5 53.5,-53.5"/>
<text text-anchor="middle" x="79.5" y="-59.9" font-family="Helvetica,sans-Serif" font-size="7.00">QIODevice</text>
</g>
<!-- Node2&#45;&gt;Node4 -->
<g id="edge3" class="edge"><title>Node2&#45;&gt;Node4</title>
<path fill="none" stroke="midnightblue" d="M132.018,-106.409C122.64,-98.568 107.316,-85.7556 95.6344,-75.9894"/>
<polygon fill="midnightblue" stroke="midnightblue" points="97.8267,-73.2602 87.9098,-69.5311 93.3367,-78.6305 97.8267,-73.2602"/>
</g>
<!-- Node5 -->
<g id="node5" class="node"><title>Node5</title>
<polygon fill="none" stroke="#bfbfbf" points="124,-53.5 124,-69.5 157,-69.5 157,-53.5 124,-53.5"/>
<text text-anchor="middle" x="140.5" y="-59.9" font-family="Helvetica,sans-Serif" font-size="7.00">QFile</text>
</g>
<!-- Node2&#45;&gt;Node5 -->
<g id="edge4" class="edge"><title>Node2&#45;&gt;Node5</title>
<path fill="none" stroke="midnightblue" d="M140.5,-106.409C140.5,-99.5576 140.5,-88.9106 140.5,-79.8167"/>
<polygon fill="midnightblue" stroke="midnightblue" points="144,-79.5311 140.5,-69.5311 137,-79.5311 144,-79.5311"/>
</g>
<!-- Node6 -->
<g id="node6" class="node"><title>Node6</title>
<polygon fill="none" stroke="#bfbfbf" points="175.5,-53.5 175.5,-69.5 233.5,-69.5 233.5,-53.5 175.5,-53.5"/>
<text text-anchor="middle" x="204.5" y="-59.9" font-family="Helvetica,sans-Serif" font-size="7.00">QTextStream</text>
</g>
<!-- Node2&#45;&gt;Node6 -->
<g id="edge5" class="edge"><title>Node2&#45;&gt;Node6</title>
<path fill="none" stroke="midnightblue" d="M149.399,-106.409C159.238,-98.568 175.317,-85.7556 187.572,-75.9894"/>
<polygon fill="midnightblue" stroke="midnightblue" points="190.037,-78.5004 195.677,-69.5311 185.675,-73.026 190.037,-78.5004"/>
</g>
<!-- Node7 -->
<g id="node7" class="node"><title>Node7</title>
<g id="a_node7"><a xlink:href="_data_structures_8h.html" target="_top" target="_top" xlink:title="Definnitions des formats de communications des données entre les classes de l&#39;application LC...">
<polygon fill="none" stroke="black" points="251.5,-53.5 251.5,-69.5 321.5,-69.5 321.5,-53.5 251.5,-53.5"/>
<text text-anchor="middle" x="286.5" y="-59.9" font-family="Helvetica,sans-Serif" font-size="7.00">DataStructures.h</text>
</a>
</g>
</g>
<!-- Node2&#45;&gt;Node7 -->
<g id="edge6" class="edge"><title>Node2&#45;&gt;Node7</title>
<path fill="none" stroke="midnightblue" d="M160.801,-106.409C185.752,-97.6926 228.293,-82.8326 256.89,-72.8433"/>
<polygon fill="midnightblue" stroke="midnightblue" points="258.085,-76.1331 266.372,-69.5311 255.777,-69.5247 258.085,-76.1331"/>
</g>
<!-- Node8 -->
<g id="node8" class="node"><title>Node8</title>
<polygon fill="none" stroke="#bfbfbf" points="238.5,-0.5 238.5,-16.5 278.5,-16.5 278.5,-0.5 238.5,-0.5"/>
<text text-anchor="middle" x="258.5" y="-6.9" font-family="Helvetica,sans-Serif" font-size="7.00">QString</text>
</g>
<!-- Node7&#45;&gt;Node8 -->
<g id="edge7" class="edge"><title>Node7&#45;&gt;Node8</title>
<path fill="none" stroke="midnightblue" d="M282.607,-53.4087C278.636,-46.177 272.344,-34.7159 267.183,-25.3164"/>
<polygon fill="midnightblue" stroke="midnightblue" points="270.241,-23.6125 262.36,-16.5311 264.105,-26.9813 270.241,-23.6125"/>
</g>
<!-- Node9 -->
<g id="node9" class="node"><title>Node9</title>
<polygon fill="none" stroke="#bfbfbf" points="297,-0.5 297,-16.5 330,-16.5 330,-0.5 297,-0.5"/>
<text text-anchor="middle" x="313.5" y="-6.9" font-family="Helvetica,sans-Serif" font-size="7.00">QList</text>
</g>
<!-- Node7&#45;&gt;Node9 -->
<g id="edge8" class="edge"><title>Node7&#45;&gt;Node9</title>
<path fill="none" stroke="midnightblue" d="M290.254,-53.4087C294.042,-46.2531 300.023,-34.9567 304.969,-25.6139"/>
<polygon fill="midnightblue" stroke="midnightblue" points="308.192,-27.0066 309.778,-16.5311 302.005,-23.7314 308.192,-27.0066"/>
</g>
</g>
</svg>
