<?xml version="1.0" encoding="UTF-8" standalone="no"?>
<!DOCTYPE svg PUBLIC "-//W3C//DTD SVG 1.1//EN"
 "http://www.w3.org/Graphics/SVG/1.1/DTD/svg11.dtd">
<!-- Generated by graphviz version 2.38.0 (20140413.2041)
 -->
<!-- Title: S:/QT_CREATOR/Locker_Control/deliveryconfirm.h Pages: 1 -->
<svg width="377pt" height="298pt"
 viewBox="0.00 0.00 377.17 298.00" xmlns="http://www.w3.org/2000/svg" xmlns:xlink="http://www.w3.org/1999/xlink">
<g id="graph0" class="graph" transform="scale(1 1) rotate(0) translate(4 294)">
<title>S:/QT_CREATOR/Locker_Control/deliveryconfirm.h</title>
<!-- Node1 -->
<g id="node1" class="node"><title>Node1</title>
<polygon fill="#bfbfbf" stroke="black" points="148.5,-265.5 148.5,-289.5 249.5,-289.5 249.5,-265.5 148.5,-265.5"/>
<text text-anchor="start" x="156.5" y="-279.9" font-family="Helvetica,sans-Serif" font-size="7.00">S:/QT_CREATOR/Locker</text>
<text text-anchor="middle" x="199" y="-271.9" font-family="Helvetica,sans-Serif" font-size="7.00">_Control/deliveryconfirm.h</text>
</g>
<!-- Node2 -->
<g id="node2" class="node"><title>Node2</title>
<polygon fill="none" stroke="#bfbfbf" points="0,-159.5 0,-175.5 44,-175.5 44,-159.5 0,-159.5"/>
<text text-anchor="middle" x="22" y="-165.9" font-family="Helvetica,sans-Serif" font-size="7.00">QWidget</text>
</g>
<!-- Node1&#45;&gt;Node2 -->
<g id="edge1" class="edge"><title>Node1&#45;&gt;Node2</title>
<path fill="none" stroke="midnightblue" d="M162.534,-265.447C139.003,-257.373 108.354,-245.041 84,-229 64.6303,-216.242 46.0977,-196.9 34.423,-183.536"/>
<polygon fill="midnightblue" stroke="midnightblue" points="36.945,-181.099 27.8015,-175.746 31.6116,-185.632 36.945,-181.099"/>
</g>
<!-- Node3 -->
<g id="node3" class="node"><title>Node3</title>
<g id="a_node3"><a xlink:href="showwidgets_8h.html" target="_top" xlink:title="showwidgets.h">
<polygon fill="none" stroke="black" points="62,-159.5 62,-175.5 124,-175.5 124,-159.5 62,-159.5"/>
<text text-anchor="middle" x="93" y="-165.9" font-family="Helvetica,sans-Serif" font-size="7.00">showwidgets.h</text>
</a>
</g>
</g>
<!-- Node1&#45;&gt;Node3 -->
<g id="edge2" class="edge"><title>Node1&#45;&gt;Node3</title>
<path fill="none" stroke="midnightblue" d="M148.387,-266.098C127.939,-259.162 106.304,-247.729 94,-229 85.6131,-216.234 86.431,-198.451 88.7029,-185.47"/>
<polygon fill="midnightblue" stroke="midnightblue" points="92.1562,-186.062 90.8789,-175.544 85.3186,-184.563 92.1562,-186.062"/>
</g>
<!-- Node5 -->
<g id="node5" class="node"><title>Node5</title>
<g id="a_node5"><a xlink:href="csqlite__local__db_8h.html" target="_top" xlink:title="csqlite_local_db.h">
<polygon fill="none" stroke="red" points="142,-159.5 142,-175.5 214,-175.5 214,-159.5 142,-159.5"/>
<text text-anchor="middle" x="178" y="-165.9" font-family="Helvetica,sans-Serif" font-size="7.00">csqlite_local_db.h</text>
</a>
</g>
</g>
<!-- Node1&#45;&gt;Node5 -->
<g id="edge4" class="edge"><title>Node1&#45;&gt;Node5</title>
<path fill="none" stroke="midnightblue" d="M196.832,-265.349C193.155,-246.44 185.675,-207.97 181.33,-185.625"/>
<polygon fill="midnightblue" stroke="midnightblue" points="184.725,-184.747 179.38,-175.599 177.854,-186.083 184.725,-184.747"/>
</g>
<!-- Node7 -->
<g id="node7" class="node"><title>Node7</title>
<g id="a_node7"><a xlink:href="_data_structures_8h.html" target="_top" xlink:title="Definnitions des formats de communications des données entre les classes de l&#39;application LC...">
<polygon fill="none" stroke="red" points="230,-53.5 230,-69.5 300,-69.5 300,-53.5 230,-53.5"/>
<text text-anchor="middle" x="265" y="-59.9" font-family="Helvetica,sans-Serif" font-size="7.00">DataStructures.h</text>
</a>
</g>
</g>
<!-- Node1&#45;&gt;Node7 -->
<g id="edge11" class="edge"><title>Node1&#45;&gt;Node7</title>
<path fill="none" stroke="midnightblue" d="M249.822,-276.251C286.334,-273.064 333.303,-262.154 358,-229 397.37,-176.149 319.298,-104.829 282.609,-75.7098"/>
<polygon fill="midnightblue" stroke="midnightblue" points="284.712,-72.912 274.665,-69.5513 280.424,-78.4443 284.712,-72.912"/>
</g>
<!-- Node8 -->
<g id="node8" class="node"><title>Node8</title>
<g id="a_node8"><a xlink:href="clms__db_8h.html" target="_top" xlink:title="clms_db.h">
<polygon fill="none" stroke="black" points="240.5,-106.5 240.5,-122.5 289.5,-122.5 289.5,-106.5 240.5,-106.5"/>
<text text-anchor="middle" x="265" y="-112.9" font-family="Helvetica,sans-Serif" font-size="7.00">clms_db.h</text>
</a>
</g>
</g>
<!-- Node1&#45;&gt;Node8 -->
<g id="edge10" class="edge"><title>Node1&#45;&gt;Node8</title>
<path fill="none" stroke="midnightblue" d="M203.536,-265.434C214.892,-237.732 244.6,-165.265 258.12,-132.282"/>
<polygon fill="midnightblue" stroke="midnightblue" points="261.481,-133.313 262.035,-122.732 255.004,-130.657 261.481,-133.313"/>
</g>
<!-- Node9 -->
<g id="node9" class="node"><title>Node9</title>
<g id="a_node9"><a xlink:href="stowpackages_8h.html" target="_top" xlink:title="stowpackages.h">
<polygon fill="none" stroke="red" points="103.5,-212.5 103.5,-228.5 170.5,-228.5 170.5,-212.5 103.5,-212.5"/>
<text text-anchor="middle" x="137" y="-218.9" font-family="Helvetica,sans-Serif" font-size="7.00">stowpackages.h</text>
</a>
</g>
</g>
<!-- Node1&#45;&gt;Node9 -->
<g id="edge12" class="edge"><title>Node1&#45;&gt;Node9</title>
<path fill="none" stroke="midnightblue" d="M186.453,-265.37C176.737,-256.751 163.218,-244.758 152.77,-235.49"/>
<polygon fill="midnightblue" stroke="midnightblue" points="154.985,-232.775 145.181,-228.757 150.339,-238.012 154.985,-232.775"/>
</g>
<!-- Node10 -->
<g id="node10" class="node"><title>Node10</title>
<g id="a_node10"><a xlink:href="threadsavedelivery_8h.html" target="_top" xlink:title="threadsavedelivery.h">
<polygon fill="none" stroke="red" points="265.5,-212.5 265.5,-228.5 348.5,-228.5 348.5,-212.5 265.5,-212.5"/>
<text text-anchor="middle" x="307" y="-218.9" font-family="Helvetica,sans-Serif" font-size="7.00">threadsavedelivery.h</text>
</a>
</g>
</g>
<!-- Node1&#45;&gt;Node10 -->
<g id="edge16" class="edge"><title>Node1&#45;&gt;Node10</title>
<path fill="none" stroke="midnightblue" d="M220.855,-265.37C239.226,-256.015 265.4,-242.685 284.068,-233.179"/>
<polygon fill="midnightblue" stroke="midnightblue" points="285.741,-236.254 293.064,-228.597 282.565,-230.016 285.741,-236.254"/>
</g>
<!-- Node4 -->
<g id="node4" class="node"><title>Node4</title>
<polygon fill="none" stroke="#bfbfbf" points="58.5,-106.5 58.5,-122.5 127.5,-122.5 127.5,-106.5 58.5,-106.5"/>
<text text-anchor="middle" x="93" y="-112.9" font-family="Helvetica,sans-Serif" font-size="7.00">QStackedWidget</text>
</g>
<!-- Node3&#45;&gt;Node4 -->
<g id="edge3" class="edge"><title>Node3&#45;&gt;Node4</title>
<path fill="none" stroke="midnightblue" d="M93,-159.409C93,-152.558 93,-141.911 93,-132.817"/>
<polygon fill="midnightblue" stroke="midnightblue" points="96.5001,-132.531 93,-122.531 89.5001,-132.531 96.5001,-132.531"/>
</g>
<!-- Node6 -->
<g id="node6" class="node"><title>Node6</title>
<polygon fill="none" stroke="#bfbfbf" points="199,-0.5 199,-16.5 239,-16.5 239,-0.5 199,-0.5"/>
<text text-anchor="middle" x="219" y="-6.9" font-family="Helvetica,sans-Serif" font-size="7.00">QString</text>
</g>
<!-- Node5&#45;&gt;Node6 -->
<g id="edge5" class="edge"><title>Node5&#45;&gt;Node6</title>
<path fill="none" stroke="midnightblue" d="M179.868,-159.346C186.005,-135.848 205.657,-60.5944 214.552,-26.5336"/>
<polygon fill="midnightblue" stroke="midnightblue" points="217.98,-27.2559 217.121,-16.696 211.208,-25.4871 217.98,-27.2559"/>
</g>
<!-- Node5&#45;&gt;Node7 -->
<g id="edge6" class="edge"><title>Node5&#45;&gt;Node7</title>
<path fill="none" stroke="midnightblue" d="M183.98,-159.352C198.011,-142.579 233.295,-100.4 252.34,-77.6337"/>
<polygon fill="midnightblue" stroke="midnightblue" points="255.246,-79.6142 258.978,-69.6984 249.877,-75.1228 255.246,-79.6142"/>
</g>
<!-- Node5&#45;&gt;Node8 -->
<g id="edge8" class="edge"><title>Node5&#45;&gt;Node8</title>
<path fill="none" stroke="midnightblue" d="M190.097,-159.409C204.121,-151.187 227.471,-137.5 244.377,-127.59"/>
<polygon fill="midnightblue" stroke="midnightblue" points="246.149,-130.608 253.006,-122.531 242.609,-124.569 246.149,-130.608"/>
</g>
<!-- Node7&#45;&gt;Node6 -->
<g id="edge7" class="edge"><title>Node7&#45;&gt;Node6</title>
<path fill="none" stroke="midnightblue" d="M258.604,-53.4087C251.807,-45.8725 240.866,-33.7432 232.205,-24.1405"/>
<polygon fill="midnightblue" stroke="midnightblue" points="234.639,-21.6126 225.342,-16.5311 229.44,-26.301 234.639,-21.6126"/>
</g>
<!-- Node8&#45;&gt;Node7 -->
<g id="edge9" class="edge"><title>Node8&#45;&gt;Node7</title>
<path fill="none" stroke="midnightblue" d="M265,-106.409C265,-99.5576 265,-88.9106 265,-79.8167"/>
<polygon fill="midnightblue" stroke="midnightblue" points="268.5,-79.5311 265,-69.5311 261.5,-79.5311 268.5,-79.5311"/>
</g>
<!-- Node9&#45;&gt;Node2 -->
<g id="edge13" class="edge"><title>Node9&#45;&gt;Node2</title>
<path fill="none" stroke="midnightblue" d="M121.01,-212.409C101.871,-203.921 69.5943,-189.607 47.1157,-179.638"/>
<polygon fill="midnightblue" stroke="midnightblue" points="48.4148,-176.386 37.8545,-175.531 45.5769,-182.785 48.4148,-176.386"/>
</g>
<!-- Node9&#45;&gt;Node3 -->
<g id="edge14" class="edge"><title>Node9&#45;&gt;Node3</title>
<path fill="none" stroke="midnightblue" d="M130.882,-212.409C124.38,-204.873 113.916,-192.743 105.631,-183.141"/>
<polygon fill="midnightblue" stroke="midnightblue" points="108.248,-180.816 99.0661,-175.531 102.948,-185.389 108.248,-180.816"/>
</g>
<!-- Node9&#45;&gt;Node5 -->
<g id="edge15" class="edge"><title>Node9&#45;&gt;Node5</title>
<path fill="none" stroke="midnightblue" d="M142.701,-212.409C148.698,-204.949 158.314,-192.988 165.996,-183.432"/>
<polygon fill="midnightblue" stroke="midnightblue" points="168.81,-185.518 172.348,-175.531 163.354,-181.132 168.81,-185.518"/>
</g>
<!-- Node10&#45;&gt;Node5 -->
<g id="edge18" class="edge"><title>Node10&#45;&gt;Node5</title>
<path fill="none" stroke="midnightblue" d="M289.063,-212.409C267.305,-203.807 230.412,-189.221 205.162,-179.238"/>
<polygon fill="midnightblue" stroke="midnightblue" points="206.371,-175.953 195.785,-175.531 203.797,-182.463 206.371,-175.953"/>
</g>
<!-- Node10&#45;&gt;Node7 -->
<g id="edge19" class="edge"><title>Node10&#45;&gt;Node7</title>
<path fill="none" stroke="midnightblue" d="M307.789,-212.289C309.52,-193.869 312.429,-143.866 298,-106 293.935,-95.3316 286.391,-85.0734 279.541,-77.2006"/>
<polygon fill="midnightblue" stroke="midnightblue" points="281.942,-74.643 272.578,-69.6876 276.808,-79.4012 281.942,-74.643"/>
</g>
<!-- Node10&#45;&gt;Node8 -->
<g id="edge17" class="edge"><title>Node10&#45;&gt;Node8</title>
<path fill="none" stroke="midnightblue" d="M304.113,-212.352C297.489,-195.95 281.055,-155.254 271.733,-132.173"/>
<polygon fill="midnightblue" stroke="midnightblue" points="274.897,-130.66 267.907,-122.698 268.406,-133.281 274.897,-130.66"/>
</g>
</g>
</svg>
