<?xml version="1.0" encoding="UTF-8" standalone="no"?>
<!DOCTYPE svg PUBLIC "-//W3C//DTD SVG 1.1//EN"
 "http://www.w3.org/Graphics/SVG/1.1/DTD/svg11.dtd">
<!-- Generated by graphviz version 2.38.0 (20140413.2041)
 -->
<!-- Title: S:/QT_CREATOR/Locker_Control/deliveryconfirm.h Pages: 1 -->
<svg width="468pt" height="293pt"
 viewBox="0.00 0.00 467.50 293.00" xmlns="http://www.w3.org/2000/svg" xmlns:xlink="http://www.w3.org/1999/xlink">
<g id="graph0" class="graph" transform="scale(1 1) rotate(0) translate(4 289)">
<title>S:/QT_CREATOR/Locker_Control/deliveryconfirm.h</title>
<!-- Node1 -->
<g id="node1" class="node"><title>Node1</title>
<polygon fill="#bfbfbf" stroke="black" points="217.5,-260.5 217.5,-284.5 318.5,-284.5 318.5,-260.5 217.5,-260.5"/>
<text text-anchor="start" x="225.5" y="-274.9" font-family="Helvetica,sans-Serif" font-size="7.00">S:/QT_CREATOR/Locker</text>
<text text-anchor="middle" x="268" y="-266.9" font-family="Helvetica,sans-Serif" font-size="7.00">_Control/deliveryconfirm.h</text>
</g>
<!-- Node2 -->
<g id="node2" class="node"><title>Node2</title>
<g id="a_node2"><a xlink:href="consolewindows_8h.html" target="_top" target="_top" xlink:title="S:/QT_CREATOR/Locker\l_Control/consolewindows.h">
<polygon fill="none" stroke="black" points="94.5,-199.5 94.5,-223.5 195.5,-223.5 195.5,-199.5 94.5,-199.5"/>
<text text-anchor="start" x="102.5" y="-213.9" font-family="Helvetica,sans-Serif" font-size="7.00">S:/QT_CREATOR/Locker</text>
<text text-anchor="middle" x="145" y="-205.9" font-family="Helvetica,sans-Serif" font-size="7.00">_Control/consolewindows.h</text>
</a>
</g>
</g>
<!-- Node1&#45;&gt;Node2 -->
<g id="edge1" class="edge"><title>Node1&#45;&gt;Node2</title>
<path fill="none" stroke="midnightblue" d="M235.577,-255.948C214.332,-245.757 187.072,-232.681 168.032,-223.548"/>
<polygon fill="midnightblue" stroke="midnightblue" points="234.335,-259.233 244.865,-260.403 237.362,-252.922 234.335,-259.233"/>
</g>
<!-- Node9 -->
<g id="node9" class="node"><title>Node9</title>
<g id="a_node9"><a xlink:href="deliveryconfirm_8cpp.html" target="_top" target="_top" xlink:title="S:/QT_CREATOR/Locker\l_Control/deliveryconfirm.cpp">
<polygon fill="none" stroke="black" points="214,-199.5 214,-223.5 322,-223.5 322,-199.5 214,-199.5"/>
<text text-anchor="start" x="222" y="-213.9" font-family="Helvetica,sans-Serif" font-size="7.00">S:/QT_CREATOR/Locker</text>
<text text-anchor="middle" x="268" y="-205.9" font-family="Helvetica,sans-Serif" font-size="7.00">_Control/deliveryconfirm.cpp</text>
</a>
</g>
</g>
<!-- Node1&#45;&gt;Node9 -->
<g id="edge12" class="edge"><title>Node1&#45;&gt;Node9</title>
<path fill="none" stroke="midnightblue" d="M268,-250.198C268,-241.173 268,-231.035 268,-223.548"/>
<polygon fill="midnightblue" stroke="midnightblue" points="264.5,-250.403 268,-260.403 271.5,-250.403 264.5,-250.403"/>
</g>
<!-- Node10 -->
<g id="node10" class="node"><title>Node10</title>
<g id="a_node10"><a xlink:href="threadsavedelivery_8cpp.html" target="_top" target="_top" xlink:title="S:/QT_CREATOR/Locker\l_Control/threadsavedelivery.cpp">
<polygon fill="none" stroke="black" points="340.5,-199.5 340.5,-223.5 459.5,-223.5 459.5,-199.5 340.5,-199.5"/>
<text text-anchor="start" x="348.5" y="-213.9" font-family="Helvetica,sans-Serif" font-size="7.00">S:/QT_CREATOR/Locker</text>
<text text-anchor="middle" x="400" y="-205.9" font-family="Helvetica,sans-Serif" font-size="7.00">_Control/threadsavedelivery.cpp</text>
</a>
</g>
</g>
<!-- Node1&#45;&gt;Node10 -->
<g id="edge13" class="edge"><title>Node1&#45;&gt;Node10</title>
<path fill="none" stroke="midnightblue" d="M302.18,-256.222C325.068,-245.993 354.666,-232.763 375.283,-223.548"/>
<polygon fill="midnightblue" stroke="midnightblue" points="300.529,-253.127 292.828,-260.403 303.386,-259.517 300.529,-253.127"/>
</g>
<!-- Node3 -->
<g id="node3" class="node"><title>Node3</title>
<g id="a_node3"><a xlink:href="consolewindows_8cpp.html" target="_top" target="_top" xlink:title="S:/QT_CREATOR/Locker\l_Control/consolewindows.cpp">
<polygon fill="none" stroke="black" points="0,-138.5 0,-162.5 108,-162.5 108,-138.5 0,-138.5"/>
<text text-anchor="start" x="8" y="-152.9" font-family="Helvetica,sans-Serif" font-size="7.00">S:/QT_CREATOR/Locker</text>
<text text-anchor="middle" x="54" y="-144.9" font-family="Helvetica,sans-Serif" font-size="7.00">_Control/consolewindows.cpp</text>
</a>
</g>
</g>
<!-- Node2&#45;&gt;Node3 -->
<g id="edge2" class="edge"><title>Node2&#45;&gt;Node3</title>
<path fill="none" stroke="midnightblue" d="M119.296,-193.835C103.848,-183.819 84.6186,-171.352 71.0397,-162.548"/>
<polygon fill="midnightblue" stroke="midnightblue" points="117.589,-196.899 127.884,-199.403 121.397,-191.026 117.589,-196.899"/>
</g>
<!-- Node4 -->
<g id="node4" class="node"><title>Node4</title>
<g id="a_node4"><a xlink:href="thread__databasemanager_8h.html" target="_top" target="_top" xlink:title="S:/QT_CREATOR/Locker\l_Control/thread_databasemanager.h">
<polygon fill="none" stroke="black" points="182,-138.5 182,-162.5 312,-162.5 312,-138.5 182,-138.5"/>
<text text-anchor="start" x="190" y="-152.9" font-family="Helvetica,sans-Serif" font-size="7.00">S:/QT_CREATOR/Locker</text>
<text text-anchor="middle" x="247" y="-144.9" font-family="Helvetica,sans-Serif" font-size="7.00">_Control/thread_databasemanager.h</text>
</a>
</g>
</g>
<!-- Node2&#45;&gt;Node4 -->
<g id="edge3" class="edge"><title>Node2&#45;&gt;Node4</title>
<path fill="none" stroke="midnightblue" d="M172.844,-194.394C190.318,-184.287 212.396,-171.516 227.901,-162.548"/>
<polygon fill="midnightblue" stroke="midnightblue" points="171.089,-191.366 164.185,-199.403 174.594,-197.425 171.089,-191.366"/>
</g>
<!-- Node5 -->
<g id="node5" class="node"><title>Node5</title>
<g id="a_node5"><a xlink:href="sqlite__local__databasemanager_8h.html" target="_top" target="_top" xlink:title="S:/QT_CREATOR/Locker\l_Control/sqlite_local\l_databasemanager.h">
<polygon fill="none" stroke="red" points="97.5,-69.5 97.5,-101.5 192.5,-101.5 192.5,-69.5 97.5,-69.5"/>
<text text-anchor="start" x="105.5" y="-91.9" font-family="Helvetica,sans-Serif" font-size="7.00">S:/QT_CREATOR/Locker</text>
<text text-anchor="start" x="105.5" y="-83.9" font-family="Helvetica,sans-Serif" font-size="7.00">_Control/sqlite_local</text>
<text text-anchor="middle" x="145" y="-75.9" font-family="Helvetica,sans-Serif" font-size="7.00">_databasemanager.h</text>
</a>
</g>
</g>
<!-- Node2&#45;&gt;Node5 -->
<g id="edge10" class="edge"><title>Node2&#45;&gt;Node5</title>
<path fill="none" stroke="midnightblue" d="M139.769,-189.31C137.561,-164.462 137.76,-123.882 140.366,-101.87"/>
<polygon fill="midnightblue" stroke="midnightblue" points="136.322,-189.967 140.953,-199.496 143.275,-189.159 136.322,-189.967"/>
</g>
<!-- Node8 -->
<g id="node8" class="node"><title>Node8</title>
<g id="a_node8"><a xlink:href="main_8cpp.html" target="_top" target="_top" xlink:title="S:/QT_CREATOR/Locker\l_Control/main.cpp">
<polygon fill="none" stroke="black" points="330.5,-138.5 330.5,-162.5 425.5,-162.5 425.5,-138.5 330.5,-138.5"/>
<text text-anchor="start" x="338.5" y="-152.9" font-family="Helvetica,sans-Serif" font-size="7.00">S:/QT_CREATOR/Locker</text>
<text text-anchor="middle" x="378" y="-144.9" font-family="Helvetica,sans-Serif" font-size="7.00">_Control/main.cpp</text>
</a>
</g>
</g>
<!-- Node2&#45;&gt;Node8 -->
<g id="edge11" class="edge"><title>Node2&#45;&gt;Node8</title>
<path fill="none" stroke="midnightblue" d="M198.407,-196.976C239.562,-186.555 295.759,-172.325 334.266,-162.574"/>
<polygon fill="midnightblue" stroke="midnightblue" points="197.387,-193.624 188.552,-199.472 199.105,-200.41 197.387,-193.624"/>
</g>
<!-- Node4&#45;&gt;Node5 -->
<g id="edge4" class="edge"><title>Node4&#45;&gt;Node5</title>
<path fill="none" stroke="midnightblue" d="M214.691,-133.245C197.789,-123.458 177.802,-111.084 163.476,-101.526"/>
<polygon fill="midnightblue" stroke="midnightblue" points="213.286,-136.473 223.708,-138.382 216.751,-130.391 213.286,-136.473"/>
</g>
<!-- Node7 -->
<g id="node7" class="node"><title>Node7</title>
<g id="a_node7"><a xlink:href="thread__databasemanager_8cpp.html" target="_top" target="_top" xlink:title="S:/QT_CREATOR/Locker\l_Control/thread_databasemanager.cpp">
<polygon fill="none" stroke="black" points="210.5,-73.5 210.5,-97.5 347.5,-97.5 347.5,-73.5 210.5,-73.5"/>
<text text-anchor="start" x="218.5" y="-87.9" font-family="Helvetica,sans-Serif" font-size="7.00">S:/QT_CREATOR/Locker</text>
<text text-anchor="middle" x="279" y="-79.9" font-family="Helvetica,sans-Serif" font-size="7.00">_Control/thread_databasemanager.cpp</text>
</a>
</g>
</g>
<!-- Node4&#45;&gt;Node7 -->
<g id="edge9" class="edge"><title>Node4&#45;&gt;Node7</title>
<path fill="none" stroke="midnightblue" d="M257.254,-129.312C262.579,-118.829 268.883,-106.418 273.329,-97.6656"/>
<polygon fill="midnightblue" stroke="midnightblue" points="254.129,-127.736 252.721,-138.237 260.37,-130.906 254.129,-127.736"/>
</g>
<!-- Node5&#45;&gt;Node2 -->
<g id="edge5" class="edge"><title>Node5&#45;&gt;Node2</title>
<path fill="none" stroke="midnightblue" d="M150.585,-112.084C152.545,-138.971 152.032,-180.012 149.047,-199.496"/>
<polygon fill="midnightblue" stroke="midnightblue" points="154.046,-111.503 149.634,-101.87 147.076,-112.152 154.046,-111.503"/>
</g>
<!-- Node5&#45;&gt;Node4 -->
<g id="edge6" class="edge"><title>Node5&#45;&gt;Node4</title>
<path fill="none" stroke="midnightblue" d="M184.44,-106.929C202.019,-117.322 221.478,-129.557 234.08,-138.237"/>
<polygon fill="midnightblue" stroke="midnightblue" points="185.866,-103.708 175.465,-101.69 182.337,-109.754 185.866,-103.708"/>
</g>
<!-- Node6 -->
<g id="node6" class="node"><title>Node6</title>
<g id="a_node6"><a xlink:href="thread__localdatabase__autosave_8h.html" target="_top" target="_top" xlink:title="S:/QT_CREATOR/Locker\l_Control/thread_localdatabase\l_autosave.h">
<polygon fill="none" stroke="red" points="89.5,-0.5 89.5,-32.5 200.5,-32.5 200.5,-0.5 89.5,-0.5"/>
<text text-anchor="start" x="97.5" y="-22.9" font-family="Helvetica,sans-Serif" font-size="7.00">S:/QT_CREATOR/Locker</text>
<text text-anchor="start" x="97.5" y="-14.9" font-family="Helvetica,sans-Serif" font-size="7.00">_Control/thread_localdatabase</text>
<text text-anchor="middle" x="145" y="-6.9" font-family="Helvetica,sans-Serif" font-size="7.00">_autosave.h</text>
</a>
</g>
</g>
<!-- Node5&#45;&gt;Node6 -->
<g id="edge7" class="edge"><title>Node5&#45;&gt;Node6</title>
<path fill="none" stroke="midnightblue" d="M138.438,-59.3179C138.024,-50.3414 138.293,-40.5143 139.246,-32.6432"/>
<polygon fill="midnightblue" stroke="midnightblue" points="134.95,-59.6087 139.239,-69.2967 141.928,-59.0487 134.95,-59.6087"/>
</g>
<!-- Node6&#45;&gt;Node5 -->
<g id="edge8" class="edge"><title>Node6&#45;&gt;Node5</title>
<path fill="none" stroke="midnightblue" d="M151.558,-42.6135C151.976,-51.5857 151.711,-61.4156 150.761,-69.2967"/>
<polygon fill="midnightblue" stroke="midnightblue" points="155.047,-42.3291 150.754,-32.6432 148.07,-42.8924 155.047,-42.3291"/>
</g>
</g>
</svg>
