<?xml version="1.0" encoding="UTF-8" standalone="no"?>
<!DOCTYPE svg PUBLIC "-//W3C//DTD SVG 1.1//EN"
 "http://www.w3.org/Graphics/SVG/1.1/DTD/svg11.dtd">
<!-- Generated by graphviz version 2.38.0 (20140413.2041)
 -->
<!-- Title: S:/QT_CREATOR/Locker_Control/deliveryconfirm.cpp Pages: 1 -->
<svg width="374pt" height="298pt"
 viewBox="0.00 0.00 374.00 298.00" xmlns="http://www.w3.org/2000/svg" xmlns:xlink="http://www.w3.org/1999/xlink">
<g id="graph0" class="graph" transform="scale(1 1) rotate(0) translate(4 294)">
<title>S:/QT_CREATOR/Locker_Control/deliveryconfirm.cpp</title>
<!-- Node1 -->
<g id="node1" class="node"><title>Node1</title>
<polygon fill="#bfbfbf" stroke="black" points="211,-265.5 211,-289.5 319,-289.5 319,-265.5 211,-265.5"/>
<text text-anchor="start" x="219" y="-279.9" font-family="Helvetica,sans-Serif" font-size="7.00">S:/QT_CREATOR/Locker</text>
<text text-anchor="middle" x="265" y="-271.9" font-family="Helvetica,sans-Serif" font-size="7.00">_Control/deliveryconfirm.cpp</text>
</g>
<!-- Node2 -->
<g id="node2" class="node"><title>Node2</title>
<g id="a_node2"><a xlink:href="deliveryconfirm_8h.html" target="_top" target="_top" xlink:title="deliveryconfirm.h">
<polygon fill="none" stroke="red" points="134,-212.5 134,-228.5 206,-228.5 206,-212.5 134,-212.5"/>
<text text-anchor="middle" x="170" y="-218.9" font-family="Helvetica,sans-Serif" font-size="7.00">deliveryconfirm.h</text>
</a>
</g>
</g>
<!-- Node1&#45;&gt;Node2 -->
<g id="edge1" class="edge"><title>Node1&#45;&gt;Node2</title>
<path fill="none" stroke="midnightblue" d="M245.775,-265.37C229.913,-256.186 207.435,-243.173 191.082,-233.706"/>
<polygon fill="midnightblue" stroke="midnightblue" points="192.666,-230.578 182.258,-228.597 189.159,-236.636 192.666,-230.578"/>
</g>
<!-- Node9 -->
<g id="node9" class="node"><title>Node9</title>
<polygon fill="none" stroke="#bfbfbf" points="224.5,-212.5 224.5,-228.5 305.5,-228.5 305.5,-212.5 224.5,-212.5"/>
<text text-anchor="middle" x="265" y="-218.9" font-family="Helvetica,sans-Serif" font-size="7.00">ui_deliveryconfirm.h</text>
</g>
<!-- Node1&#45;&gt;Node9 -->
<g id="edge14" class="edge"><title>Node1&#45;&gt;Node9</title>
<path fill="none" stroke="midnightblue" d="M265,-265.37C265,-257.775 265,-247.56 265,-238.899"/>
<polygon fill="midnightblue" stroke="midnightblue" points="268.5,-238.757 265,-228.757 261.5,-238.758 268.5,-238.757"/>
</g>
<!-- Node10 -->
<g id="node10" class="node"><title>Node10</title>
<polygon fill="none" stroke="#bfbfbf" points="324,-212.5 324,-228.5 366,-228.5 366,-212.5 324,-212.5"/>
<text text-anchor="middle" x="345" y="-218.9" font-family="Helvetica,sans-Serif" font-size="7.00">QDebug</text>
</g>
<!-- Node1&#45;&gt;Node10 -->
<g id="edge15" class="edge"><title>Node1&#45;&gt;Node10</title>
<path fill="none" stroke="midnightblue" d="M281.189,-265.37C294.099,-256.495 312.21,-244.043 325.842,-234.671"/>
<polygon fill="midnightblue" stroke="midnightblue" points="328.186,-237.307 334.444,-228.757 324.22,-231.539 328.186,-237.307"/>
</g>
<!-- Node3 -->
<g id="node3" class="node"><title>Node3</title>
<polygon fill="none" stroke="#bfbfbf" points="0,-106.5 0,-122.5 44,-122.5 44,-106.5 0,-106.5"/>
<text text-anchor="middle" x="22" y="-112.9" font-family="Helvetica,sans-Serif" font-size="7.00">QWidget</text>
</g>
<!-- Node2&#45;&gt;Node3 -->
<g id="edge2" class="edge"><title>Node2&#45;&gt;Node3</title>
<path fill="none" stroke="midnightblue" d="M133.735,-214.982C106.47,-209.828 69.8574,-198.916 46,-176 33.9033,-164.381 27.7658,-145.895 24.7438,-132.413"/>
<polygon fill="midnightblue" stroke="midnightblue" points="28.1713,-131.701 22.8756,-122.525 21.293,-133.001 28.1713,-131.701"/>
</g>
<!-- Node4 -->
<g id="node4" class="node"><title>Node4</title>
<g id="a_node4"><a xlink:href="showwidgets_8h.html" target="_top" target="_top" xlink:title="showwidgets.h">
<polygon fill="none" stroke="red" points="62,-106.5 62,-122.5 124,-122.5 124,-106.5 62,-106.5"/>
<text text-anchor="middle" x="93" y="-112.9" font-family="Helvetica,sans-Serif" font-size="7.00">showwidgets.h</text>
</a>
</g>
</g>
<!-- Node2&#45;&gt;Node4 -->
<g id="edge3" class="edge"><title>Node2&#45;&gt;Node4</title>
<path fill="none" stroke="midnightblue" d="M165.762,-212.194C158.927,-200.588 144.829,-177.37 131,-159 123.48,-149.011 114.271,-138.433 106.802,-130.209"/>
<polygon fill="midnightblue" stroke="midnightblue" points="109.146,-127.59 99.7918,-122.615 104.003,-132.337 109.146,-127.59"/>
</g>
<!-- Node5 -->
<g id="node5" class="node"><title>Node5</title>
<g id="a_node5"><a xlink:href="csqlite__local__db_8h.html" target="_top" target="_top" xlink:title="csqlite_local_db.h">
<polygon fill="none" stroke="red" points="142,-106.5 142,-122.5 214,-122.5 214,-106.5 142,-106.5"/>
<text text-anchor="middle" x="178" y="-112.9" font-family="Helvetica,sans-Serif" font-size="7.00">csqlite_local_db.h</text>
</a>
</g>
</g>
<!-- Node2&#45;&gt;Node5 -->
<g id="edge4" class="edge"><title>Node2&#45;&gt;Node5</title>
<path fill="none" stroke="midnightblue" d="M170.55,-212.352C171.8,-196.098 174.885,-155.989 176.669,-132.804"/>
<polygon fill="midnightblue" stroke="midnightblue" points="180.169,-132.937 177.446,-122.698 173.19,-132.4 180.169,-132.937"/>
</g>
<!-- Node6 -->
<g id="node6" class="node"><title>Node6</title>
<g id="a_node6"><a xlink:href="_data_structures_8h.html" target="_top" target="_top" xlink:title="Definnitions des formats de communications des données entre les classes de l&#39;application LC...">
<polygon fill="none" stroke="red" points="194,-0.5 194,-16.5 264,-16.5 264,-0.5 194,-0.5"/>
<text text-anchor="middle" x="229" y="-6.9" font-family="Helvetica,sans-Serif" font-size="7.00">DataStructures.h</text>
</a>
</g>
</g>
<!-- Node2&#45;&gt;Node6 -->
<g id="edge9" class="edge"><title>Node2&#45;&gt;Node6</title>
<path fill="none" stroke="midnightblue" d="M180.393,-212.218C191.026,-204.324 207.444,-190.849 218,-176 247.655,-134.286 252.795,-120.153 263,-70 264.507,-62.5962 265.461,-60.1437 263,-53 259.2,-41.969 251.328,-31.5938 244.114,-23.7445"/>
<polygon fill="midnightblue" stroke="midnightblue" points="246.545,-21.2249 237.034,-16.5575 241.559,-26.1376 246.545,-21.2249"/>
</g>
<!-- Node7 -->
<g id="node7" class="node"><title>Node7</title>
<g id="a_node7"><a xlink:href="clms__db_8h.html" target="_top" target="_top" xlink:title="clms_db.h">
<polygon fill="none" stroke="black" points="204.5,-53.5 204.5,-69.5 253.5,-69.5 253.5,-53.5 204.5,-53.5"/>
<text text-anchor="middle" x="229" y="-59.9" font-family="Helvetica,sans-Serif" font-size="7.00">clms_db.h</text>
</a>
</g>
</g>
<!-- Node2&#45;&gt;Node7 -->
<g id="edge8" class="edge"><title>Node2&#45;&gt;Node7</title>
<path fill="none" stroke="midnightblue" d="M175.204,-212.451C186.218,-197.107 211.796,-159.149 223,-123 227.357,-108.942 228.748,-92.2495 229.111,-79.9629"/>
<polygon fill="midnightblue" stroke="midnightblue" points="232.613,-79.7956 229.208,-69.7629 225.613,-79.7292 232.613,-79.7956"/>
</g>
<!-- Node8 -->
<g id="node8" class="node"><title>Node8</title>
<g id="a_node8"><a xlink:href="stowpackages_8h.html" target="_top" target="_top" xlink:title="stowpackages.h">
<polygon fill="none" stroke="red" points="55.5,-159.5 55.5,-175.5 122.5,-175.5 122.5,-159.5 55.5,-159.5"/>
<text text-anchor="middle" x="89" y="-165.9" font-family="Helvetica,sans-Serif" font-size="7.00">stowpackages.h</text>
</a>
</g>
</g>
<!-- Node2&#45;&gt;Node8 -->
<g id="edge10" class="edge"><title>Node2&#45;&gt;Node8</title>
<path fill="none" stroke="midnightblue" d="M158.737,-212.409C145.801,-204.264 124.343,-190.753 108.64,-180.866"/>
<polygon fill="midnightblue" stroke="midnightblue" points="110.494,-177.897 100.167,-175.531 106.765,-183.821 110.494,-177.897"/>
</g>
<!-- Node5&#45;&gt;Node6 -->
<g id="edge5" class="edge"><title>Node5&#45;&gt;Node6</title>
<path fill="none" stroke="midnightblue" d="M179.062,-106.464C181.013,-94.8386 185.833,-71.1048 195,-53 200.278,-42.575 208.239,-32.2145 215.131,-24.2211"/>
<polygon fill="midnightblue" stroke="midnightblue" points="217.918,-26.357 222.013,-16.5854 212.718,-21.6707 217.918,-26.357"/>
</g>
<!-- Node5&#45;&gt;Node7 -->
<g id="edge6" class="edge"><title>Node5&#45;&gt;Node7</title>
<path fill="none" stroke="midnightblue" d="M185.091,-106.409C192.704,-98.7964 205.002,-86.4977 214.65,-76.8503"/>
<polygon fill="midnightblue" stroke="midnightblue" points="217.373,-79.0771 221.969,-69.5311 212.423,-74.1273 217.373,-79.0771"/>
</g>
<!-- Node7&#45;&gt;Node6 -->
<g id="edge7" class="edge"><title>Node7&#45;&gt;Node6</title>
<path fill="none" stroke="midnightblue" d="M229,-53.4087C229,-46.5576 229,-35.9106 229,-26.8167"/>
<polygon fill="midnightblue" stroke="midnightblue" points="232.5,-26.5311 229,-16.5311 225.5,-26.5311 232.5,-26.5311"/>
</g>
<!-- Node8&#45;&gt;Node3 -->
<g id="edge11" class="edge"><title>Node8&#45;&gt;Node3</title>
<path fill="none" stroke="midnightblue" d="M79.6839,-159.409C69.2835,-151.492 52.224,-138.506 39.3488,-128.706"/>
<polygon fill="midnightblue" stroke="midnightblue" points="41.3139,-125.803 31.2369,-122.531 37.0741,-131.373 41.3139,-125.803"/>
</g>
<!-- Node8&#45;&gt;Node4 -->
<g id="edge12" class="edge"><title>Node8&#45;&gt;Node4</title>
<path fill="none" stroke="midnightblue" d="M89.5562,-159.409C90.0995,-152.482 90.9472,-141.674 91.6656,-132.514"/>
<polygon fill="midnightblue" stroke="midnightblue" points="95.1558,-132.774 92.4485,-122.531 88.1773,-132.227 95.1558,-132.774"/>
</g>
<!-- Node8&#45;&gt;Node5 -->
<g id="edge13" class="edge"><title>Node8&#45;&gt;Node5</title>
<path fill="none" stroke="midnightblue" d="M101.375,-159.409C115.722,-151.187 139.608,-137.5 156.903,-127.59"/>
<polygon fill="midnightblue" stroke="midnightblue" points="158.794,-130.54 165.73,-122.531 155.313,-124.466 158.794,-130.54"/>
</g>
</g>
</svg>
