<?xml version="1.0" encoding="UTF-8" standalone="yes"?><svg xmlns="http://www.w3.org/2000/svg" xmlns:xlink="http://www.w3.org/1999/xlink" height="281px" style="width:522px;height:281px;" version="1.1" viewBox="0 0 522 281" width="522px"><defs><filter height="300%" id="f1" width="300%" x="-1" y="-1"><feGaussianBlur result="blurOut" stdDeviation="2.0"/><feColorMatrix in="blurOut" result="blurOut2" type="matrix" values="0 0 0 0 0 0 0 0 0 0 0 0 0 0 0 0 0 0 .4 0"/><feOffset dx="4.0" dy="4.0" in="blurOut2" result="blurOut3"/><feBlend in="SourceGraphic" in2="blurOut3" mode="normal"/></filter></defs><g><rect fill="#FEFECE" filter="url(#f1)" height="48" style="stroke: #A80036; stroke-width: 1.5;" width="79" x="6" y="8"/><ellipse cx="21" cy="24" fill="#ADD1B2" rx="11" ry="11" style="stroke: #A80036; stroke-width: 1.0;"/><path d="M23.7656,19.875 Q23.9219,19.6563 24.1094,19.5469 Q24.2969,19.4375 24.5156,19.4375 Q24.8906,19.4375 25.125,19.6953 Q25.3594,19.9531 25.3594,20.5625 L25.3594,22.0156 Q25.3594,22.625 25.125,22.8906 Q24.8906,23.1563 24.5156,23.1563 Q24.1719,23.1563 23.9688,22.9531 Q23.7656,22.7656 23.6563,22.25 Q23.6094,21.8906 23.4219,21.7031 Q23.0938,21.3281 22.4844,21.1094 Q21.875,20.8906 21.25,20.8906 Q20.4844,20.8906 19.8516,21.2188 Q19.2188,21.5469 18.7266,22.2969 Q18.2344,23.0469 18.2344,24.0781 L18.2344,25.1719 Q18.2344,26.4063 19.125,27.2266 Q20.0156,28.0469 21.6094,28.0469 Q22.5469,28.0469 23.2031,27.7969 Q23.5938,27.6406 24.0156,27.2031 Q24.2813,26.9375 24.4297,26.8594 Q24.5781,26.7813 24.7813,26.7813 Q25.1094,26.7813 25.3672,27.0391 Q25.625,27.2969 25.625,27.6406 Q25.625,27.9844 25.2813,28.3906 Q24.7813,28.9688 23.9844,29.2969 Q22.9063,29.75 21.6094,29.75 Q20.0938,29.75 18.8906,29.125 Q17.9063,28.625 17.2188,27.5547 Q16.5313,26.4844 16.5313,25.2031 L16.5313,24.0469 Q16.5313,22.7188 17.1484,21.5703 Q17.7656,20.4219 18.8594,19.8047 Q19.9531,19.1875 21.1875,19.1875 Q21.9219,19.1875 22.5703,19.3516 Q23.2188,19.5156 23.7656,19.875 Z "/><text fill="#000000" font-family="sans-serif" font-size="12" lengthAdjust="spacingAndGlyphs" textLength="47" x="35" y="28.9102">QWidget</text><line style="stroke: #A80036; stroke-width: 1.5;" x1="7" x2="84" y1="40" y2="40"/><line style="stroke: #A80036; stroke-width: 1.5;" x1="7" x2="84" y1="48" y2="48"/><rect fill="#FEFECE" filter="url(#f1)" height="48" style="stroke: #A80036; stroke-width: 1.5;" width="114" x="211.5" y="116"/><ellipse cx="226.5" cy="132" fill="#ADD1B2" rx="11" ry="11" style="stroke: #A80036; stroke-width: 1.0;"/><path d="M229.2656,127.875 Q229.4219,127.6563 229.6094,127.5469 Q229.7969,127.4375 230.0156,127.4375 Q230.3906,127.4375 230.625,127.6953 Q230.8594,127.9531 230.8594,128.5625 L230.8594,130.0156 Q230.8594,130.625 230.625,130.8906 Q230.3906,131.1563 230.0156,131.1563 Q229.6719,131.1563 229.4688,130.9531 Q229.2656,130.7656 229.1563,130.25 Q229.1094,129.8906 228.9219,129.7031 Q228.5938,129.3281 227.9844,129.1094 Q227.375,128.8906 226.75,128.8906 Q225.9844,128.8906 225.3516,129.2188 Q224.7188,129.5469 224.2266,130.2969 Q223.7344,131.0469 223.7344,132.0781 L223.7344,133.1719 Q223.7344,134.4063 224.625,135.2266 Q225.5156,136.0469 227.1094,136.0469 Q228.0469,136.0469 228.7031,135.7969 Q229.0938,135.6406 229.5156,135.2031 Q229.7813,134.9375 229.9297,134.8594 Q230.0781,134.7813 230.2813,134.7813 Q230.6094,134.7813 230.8672,135.0391 Q231.125,135.2969 231.125,135.6406 Q231.125,135.9844 230.7813,136.3906 Q230.2813,136.9688 229.4844,137.2969 Q228.4063,137.75 227.1094,137.75 Q225.5938,137.75 224.3906,137.125 Q223.4063,136.625 222.7188,135.5547 Q222.0313,134.4844 222.0313,133.2031 L222.0313,132.0469 Q222.0313,130.7188 222.6484,129.5703 Q223.2656,128.4219 224.3594,127.8047 Q225.4531,127.1875 226.6875,127.1875 Q227.4219,127.1875 228.0703,127.3516 Q228.7188,127.5156 229.2656,127.875 Z "/><text fill="#000000" font-family="sans-serif" font-size="12" lengthAdjust="spacingAndGlyphs" textLength="82" x="240.5" y="136.9102">DoorsManager</text><line style="stroke: #A80036; stroke-width: 1.5;" x1="212.5" x2="324.5" y1="148" y2="148"/><line style="stroke: #A80036; stroke-width: 1.5;" x1="212.5" x2="324.5" y1="156" y2="156"/><rect fill="#FEFECE" filter="url(#f1)" height="48" style="stroke: #A80036; stroke-width: 1.5;" width="130" x="203.5" y="224"/><ellipse cx="218.5" cy="240" fill="#ADD1B2" rx="11" ry="11" style="stroke: #A80036; stroke-width: 1.0;"/><path d="M221.2656,235.875 Q221.4219,235.6563 221.6094,235.5469 Q221.7969,235.4375 222.0156,235.4375 Q222.3906,235.4375 222.625,235.6953 Q222.8594,235.9531 222.8594,236.5625 L222.8594,238.0156 Q222.8594,238.625 222.625,238.8906 Q222.3906,239.1563 222.0156,239.1563 Q221.6719,239.1563 221.4688,238.9531 Q221.2656,238.7656 221.1563,238.25 Q221.1094,237.8906 220.9219,237.7031 Q220.5938,237.3281 219.9844,237.1094 Q219.375,236.8906 218.75,236.8906 Q217.9844,236.8906 217.3516,237.2188 Q216.7188,237.5469 216.2266,238.2969 Q215.7344,239.0469 215.7344,240.0781 L215.7344,241.1719 Q215.7344,242.4063 216.625,243.2266 Q217.5156,244.0469 219.1094,244.0469 Q220.0469,244.0469 220.7031,243.7969 Q221.0938,243.6406 221.5156,243.2031 Q221.7813,242.9375 221.9297,242.8594 Q222.0781,242.7813 222.2813,242.7813 Q222.6094,242.7813 222.8672,243.0391 Q223.125,243.2969 223.125,243.6406 Q223.125,243.9844 222.7813,244.3906 Q222.2813,244.9688 221.4844,245.2969 Q220.4063,245.75 219.1094,245.75 Q217.5938,245.75 216.3906,245.125 Q215.4063,244.625 214.7188,243.5547 Q214.0313,242.4844 214.0313,241.2031 L214.0313,240.0469 Q214.0313,238.7188 214.6484,237.5703 Q215.2656,236.4219 216.3594,235.8047 Q217.4531,235.1875 218.6875,235.1875 Q219.4219,235.1875 220.0703,235.3516 Q220.7188,235.5156 221.2656,235.875 Z "/><text fill="#000000" font-family="sans-serif" font-size="12" lengthAdjust="spacingAndGlyphs" textLength="98" x="232.5" y="244.9102">ConsoleWindows</text><line style="stroke: #A80036; stroke-width: 1.5;" x1="204.5" x2="332.5" y1="256" y2="256"/><line style="stroke: #A80036; stroke-width: 1.5;" x1="204.5" x2="332.5" y1="264" y2="264"/><rect fill="#FEFECE" filter="url(#f1)" height="48" style="stroke: #A80036; stroke-width: 1.5;" width="139" x="120" y="8"/><ellipse cx="135" cy="24" fill="#ADD1B2" rx="11" ry="11" style="stroke: #A80036; stroke-width: 1.0;"/><path d="M137.7656,19.875 Q137.9219,19.6563 138.1094,19.5469 Q138.2969,19.4375 138.5156,19.4375 Q138.8906,19.4375 139.125,19.6953 Q139.3594,19.9531 139.3594,20.5625 L139.3594,22.0156 Q139.3594,22.625 139.125,22.8906 Q138.8906,23.1563 138.5156,23.1563 Q138.1719,23.1563 137.9688,22.9531 Q137.7656,22.7656 137.6563,22.25 Q137.6094,21.8906 137.4219,21.7031 Q137.0938,21.3281 136.4844,21.1094 Q135.875,20.8906 135.25,20.8906 Q134.4844,20.8906 133.8516,21.2188 Q133.2188,21.5469 132.7266,22.2969 Q132.2344,23.0469 132.2344,24.0781 L132.2344,25.1719 Q132.2344,26.4063 133.125,27.2266 Q134.0156,28.0469 135.6094,28.0469 Q136.5469,28.0469 137.2031,27.7969 Q137.5938,27.6406 138.0156,27.2031 Q138.2813,26.9375 138.4297,26.8594 Q138.5781,26.7813 138.7813,26.7813 Q139.1094,26.7813 139.3672,27.0391 Q139.625,27.2969 139.625,27.6406 Q139.625,27.9844 139.2813,28.3906 Q138.7813,28.9688 137.9844,29.2969 Q136.9063,29.75 135.6094,29.75 Q134.0938,29.75 132.8906,29.125 Q131.9063,28.625 131.2188,27.5547 Q130.5313,26.4844 130.5313,25.2031 L130.5313,24.0469 Q130.5313,22.7188 131.1484,21.5703 Q131.7656,20.4219 132.8594,19.8047 Q133.9531,19.1875 135.1875,19.1875 Q135.9219,19.1875 136.5703,19.3516 Q137.2188,19.5156 137.7656,19.875 Z "/><text fill="#000000" font-family="sans-serif" font-size="12" lengthAdjust="spacingAndGlyphs" textLength="107" x="149" y="28.9102">CSQLite_Local_DB</text><line style="stroke: #A80036; stroke-width: 1.5;" x1="121" x2="258" y1="40" y2="40"/><line style="stroke: #A80036; stroke-width: 1.5;" x1="121" x2="258" y1="48" y2="48"/><rect fill="#FEFECE" filter="url(#f1)" height="48" style="stroke: #A80036; stroke-width: 1.5;" width="108" x="294.5" y="8"/><ellipse cx="309.5" cy="24" fill="#ADD1B2" rx="11" ry="11" style="stroke: #A80036; stroke-width: 1.0;"/><path d="M312.2656,19.875 Q312.4219,19.6563 312.6094,19.5469 Q312.7969,19.4375 313.0156,19.4375 Q313.3906,19.4375 313.625,19.6953 Q313.8594,19.9531 313.8594,20.5625 L313.8594,22.0156 Q313.8594,22.625 313.625,22.8906 Q313.3906,23.1563 313.0156,23.1563 Q312.6719,23.1563 312.4688,22.9531 Q312.2656,22.7656 312.1563,22.25 Q312.1094,21.8906 311.9219,21.7031 Q311.5938,21.3281 310.9844,21.1094 Q310.375,20.8906 309.75,20.8906 Q308.9844,20.8906 308.3516,21.2188 Q307.7188,21.5469 307.2266,22.2969 Q306.7344,23.0469 306.7344,24.0781 L306.7344,25.1719 Q306.7344,26.4063 307.625,27.2266 Q308.5156,28.0469 310.1094,28.0469 Q311.0469,28.0469 311.7031,27.7969 Q312.0938,27.6406 312.5156,27.2031 Q312.7813,26.9375 312.9297,26.8594 Q313.0781,26.7813 313.2813,26.7813 Q313.6094,26.7813 313.8672,27.0391 Q314.125,27.2969 314.125,27.6406 Q314.125,27.9844 313.7813,28.3906 Q313.2813,28.9688 312.4844,29.2969 Q311.4063,29.75 310.1094,29.75 Q308.5938,29.75 307.3906,29.125 Q306.4063,28.625 305.7188,27.5547 Q305.0313,26.4844 305.0313,25.2031 L305.0313,24.0469 Q305.0313,22.7188 305.6484,21.5703 Q306.2656,20.4219 307.3594,19.8047 Q308.4531,19.1875 309.6875,19.1875 Q310.4219,19.1875 311.0703,19.3516 Q311.7188,19.5156 312.2656,19.875 Z "/><text fill="#000000" font-family="sans-serif" font-size="12" lengthAdjust="spacingAndGlyphs" textLength="76" x="323.5" y="28.9102">ShowWidgets</text><line style="stroke: #A80036; stroke-width: 1.5;" x1="295.5" x2="401.5" y1="40" y2="40"/><line style="stroke: #A80036; stroke-width: 1.5;" x1="295.5" x2="401.5" y1="48" y2="48"/><rect fill="#FEFECE" filter="url(#f1)" height="48" style="stroke: #A80036; stroke-width: 1.5;" width="75" x="438" y="8"/><ellipse cx="453" cy="24" fill="#ADD1B2" rx="11" ry="11" style="stroke: #A80036; stroke-width: 1.0;"/><path d="M455.7656,19.875 Q455.9219,19.6563 456.1094,19.5469 Q456.2969,19.4375 456.5156,19.4375 Q456.8906,19.4375 457.125,19.6953 Q457.3594,19.9531 457.3594,20.5625 L457.3594,22.0156 Q457.3594,22.625 457.125,22.8906 Q456.8906,23.1563 456.5156,23.1563 Q456.1719,23.1563 455.9688,22.9531 Q455.7656,22.7656 455.6563,22.25 Q455.6094,21.8906 455.4219,21.7031 Q455.0938,21.3281 454.4844,21.1094 Q453.875,20.8906 453.25,20.8906 Q452.4844,20.8906 451.8516,21.2188 Q451.2188,21.5469 450.7266,22.2969 Q450.2344,23.0469 450.2344,24.0781 L450.2344,25.1719 Q450.2344,26.4063 451.125,27.2266 Q452.0156,28.0469 453.6094,28.0469 Q454.5469,28.0469 455.2031,27.7969 Q455.5938,27.6406 456.0156,27.2031 Q456.2813,26.9375 456.4297,26.8594 Q456.5781,26.7813 456.7813,26.7813 Q457.1094,26.7813 457.3672,27.0391 Q457.625,27.2969 457.625,27.6406 Q457.625,27.9844 457.2813,28.3906 Q456.7813,28.9688 455.9844,29.2969 Q454.9063,29.75 453.6094,29.75 Q452.0938,29.75 450.8906,29.125 Q449.9063,28.625 449.2188,27.5547 Q448.5313,26.4844 448.5313,25.2031 L448.5313,24.0469 Q448.5313,22.7188 449.1484,21.5703 Q449.7656,20.4219 450.8594,19.8047 Q451.9531,19.1875 453.1875,19.1875 Q453.9219,19.1875 454.5703,19.3516 Q455.2188,19.5156 455.7656,19.875 Z "/><text fill="#000000" font-family="sans-serif" font-size="12" lengthAdjust="spacingAndGlyphs" textLength="43" x="467" y="28.9102">CDoors</text><line style="stroke: #A80036; stroke-width: 1.5;" x1="439" x2="512" y1="40" y2="40"/><line style="stroke: #A80036; stroke-width: 1.5;" x1="439" x2="512" y1="48" y2="48"/><path d="M103.5322,60.585 C139.698,77.776 185.696,99.64 219.928,115.912 " fill="none" style="stroke: #A80036; stroke-width: 1.0;"/><polygon fill="none" points="100.169,66.737,85.111,51.829,106.179,54.093,100.169,66.737" style="stroke: #A80036; stroke-width: 1.0;"/><path d="M243.509,176.8693 C241.161,192.3254 242.097,209.9595 246.318,223.6784 " fill="none" style="stroke: #A80036; stroke-width: 1.0;"/><polygon fill="#A80036" points="246.417,164,241.1926,168.9705,243.7714,175.7047,248.9958,170.7342,246.417,164" style="stroke: #A80036; stroke-width: 1.0;"/><path d="M268.5,210.2977 C268.5,194.9223 268.5,177.5198 268.5,164 " fill="none" style="stroke: #A80036; stroke-width: 1.0;"/><polygon fill="none" points="268.5,223.6784,272.5,217.6784,268.5,211.6784,264.5,217.6784,268.5,223.6784" style="stroke: #A80036; stroke-width: 1.0;"/><path d="M293.491,176.8693 C295.839,192.3254 294.903,209.9595 290.682,223.6784 " fill="none" style="stroke: #A80036; stroke-width: 1.0;"/><polygon fill="none" points="290.583,164,288.0042,170.7342,293.2286,175.7047,295.8074,168.9705,290.583,164" style="stroke: #A80036; stroke-width: 1.0;"/><path d="M214.5,66.545 C226.417,82.534 240.378,101.267 251.119,115.678 " fill="none" style="stroke: #A80036; stroke-width: 1.0;"/><polygon fill="none" points="206.642,56,207.02,63.2012,213.8126,65.6219,213.4346,58.4208,206.642,56" style="stroke: #A80036; stroke-width: 1.0;"/><path d="M323.183,66.545 C311.116,82.534 296.978,101.267 286.101,115.678 " fill="none" style="stroke: #A80036; stroke-width: 1.0;"/><polygon fill="none" points="331.141,56,324.3339,58.3797,323.9123,65.5784,330.7195,63.1988,331.141,56" style="stroke: #A80036; stroke-width: 1.0;"/><path d="M425.924,58.387 C391.712,75.906 346.593,99.01 313.432,115.991 " fill="none" style="stroke: #A80036; stroke-width: 1.0;"/><polygon fill="none" points="437.533,52.442,430.3693,51.6165,426.8521,57.9117,434.0158,58.7372,437.533,52.442" style="stroke: #A80036; stroke-width: 1.0;"/></g></svg>