<?xml version="1.0" encoding="UTF-8" standalone="no"?>
<!DOCTYPE svg PUBLIC "-//W3C//DTD SVG 1.1//EN"
 "http://www.w3.org/Graphics/SVG/1.1/DTD/svg11.dtd">
<!-- Generated by graphviz version 2.38.0 (20140413.2041)
 -->
<!-- Title: S:/QT_CREATOR/Locker_Control/doorsmanager.h Pages: 1 -->
<svg width="337pt" height="192pt"
 viewBox="0.00 0.00 336.50 192.00" xmlns="http://www.w3.org/2000/svg" xmlns:xlink="http://www.w3.org/1999/xlink">
<g id="graph0" class="graph" transform="scale(1 1) rotate(0) translate(4 188)">
<title>S:/QT_CREATOR/Locker_Control/doorsmanager.h</title>
<!-- Node1 -->
<g id="node1" class="node"><title>Node1</title>
<polygon fill="#bfbfbf" stroke="black" points="92.5,-159.5 92.5,-183.5 187.5,-183.5 187.5,-159.5 92.5,-159.5"/>
<text text-anchor="start" x="100.5" y="-173.9" font-family="Helvetica,sans-Serif" font-size="7.00">S:/QT_CREATOR/Locker</text>
<text text-anchor="middle" x="140" y="-165.9" font-family="Helvetica,sans-Serif" font-size="7.00">_Control/doorsmanager.h</text>
</g>
<!-- Node2 -->
<g id="node2" class="node"><title>Node2</title>
<polygon fill="none" stroke="#bfbfbf" points="9,-106.5 9,-122.5 53,-122.5 53,-106.5 9,-106.5"/>
<text text-anchor="middle" x="31" y="-112.9" font-family="Helvetica,sans-Serif" font-size="7.00">QWidget</text>
</g>
<!-- Node1&#45;&gt;Node2 -->
<g id="edge1" class="edge"><title>Node1&#45;&gt;Node2</title>
<path fill="none" stroke="midnightblue" d="M117.942,-159.37C99.4015,-150.015 72.9849,-136.685 54.1447,-127.179"/>
<polygon fill="midnightblue" stroke="midnightblue" points="55.5695,-123.977 45.065,-122.597 52.4161,-130.227 55.5695,-123.977"/>
</g>
<!-- Node3 -->
<g id="node3" class="node"><title>Node3</title>
<g id="a_node3"><a xlink:href="csqlite__local__db_8h.html" target="_top" xlink:title="csqlite_local_db.h">
<polygon fill="none" stroke="red" points="110,-53.5 110,-69.5 182,-69.5 182,-53.5 110,-53.5"/>
<text text-anchor="middle" x="146" y="-59.9" font-family="Helvetica,sans-Serif" font-size="7.00">csqlite_local_db.h</text>
</a>
</g>
</g>
<!-- Node1&#45;&gt;Node3 -->
<g id="edge2" class="edge"><title>Node1&#45;&gt;Node3</title>
<path fill="none" stroke="midnightblue" d="M125.17,-159.413C110.503,-146.991 91.4004,-125.968 100,-106 105.313,-93.6635 116.036,-83.1925 125.792,-75.6171"/>
<polygon fill="midnightblue" stroke="midnightblue" points="127.892,-78.418 133.958,-69.7312 123.799,-72.7395 127.892,-78.418"/>
</g>
<!-- Node8 -->
<g id="node8" class="node"><title>Node8</title>
<g id="a_node8"><a xlink:href="showwidgets_8h.html" target="_top" xlink:title="showwidgets.h">
<polygon fill="none" stroke="red" points="109,-106.5 109,-122.5 171,-122.5 171,-106.5 109,-106.5"/>
<text text-anchor="middle" x="140" y="-112.9" font-family="Helvetica,sans-Serif" font-size="7.00">showwidgets.h</text>
</a>
</g>
</g>
<!-- Node1&#45;&gt;Node8 -->
<g id="edge7" class="edge"><title>Node1&#45;&gt;Node8</title>
<path fill="none" stroke="midnightblue" d="M140,-159.37C140,-151.775 140,-141.56 140,-132.899"/>
<polygon fill="midnightblue" stroke="midnightblue" points="143.5,-132.757 140,-122.757 136.5,-132.758 143.5,-132.757"/>
</g>
<!-- Node9 -->
<g id="node9" class="node"><title>Node9</title>
<g id="a_node9"><a xlink:href="cdoors_8h.html" target="_top" xlink:title="cdoors.h">
<polygon fill="none" stroke="red" points="189,-106.5 189,-122.5 233,-122.5 233,-106.5 189,-106.5"/>
<text text-anchor="middle" x="211" y="-112.9" font-family="Helvetica,sans-Serif" font-size="7.00">cdoors.h</text>
</a>
</g>
</g>
<!-- Node1&#45;&gt;Node9 -->
<g id="edge8" class="edge"><title>Node1&#45;&gt;Node9</title>
<path fill="none" stroke="midnightblue" d="M154.368,-159.37C165.715,-150.58 181.591,-138.282 193.647,-128.943"/>
<polygon fill="midnightblue" stroke="midnightblue" points="195.869,-131.648 201.631,-122.757 191.582,-126.115 195.869,-131.648"/>
</g>
<!-- Node10 -->
<g id="node10" class="node"><title>Node10</title>
<g id="a_node10"><a xlink:href="customtreewidget_8h.html" target="_top" xlink:title="customtreewidget.h">
<polygon fill="none" stroke="red" points="251.5,-106.5 251.5,-122.5 328.5,-122.5 328.5,-106.5 251.5,-106.5"/>
<text text-anchor="middle" x="290" y="-112.9" font-family="Helvetica,sans-Serif" font-size="7.00">customtreewidget.h</text>
</a>
</g>
</g>
<!-- Node1&#45;&gt;Node10 -->
<g id="edge10" class="edge"><title>Node1&#45;&gt;Node10</title>
<path fill="none" stroke="midnightblue" d="M170.355,-159.37C196.806,-149.671 234.905,-135.701 260.961,-126.148"/>
<polygon fill="midnightblue" stroke="midnightblue" points="262.461,-129.326 270.645,-122.597 260.051,-122.754 262.461,-129.326"/>
</g>
<!-- Node4 -->
<g id="node4" class="node"><title>Node4</title>
<polygon fill="none" stroke="#bfbfbf" points="0,-0.5 0,-16.5 40,-16.5 40,-0.5 0,-0.5"/>
<text text-anchor="middle" x="20" y="-6.9" font-family="Helvetica,sans-Serif" font-size="7.00">QString</text>
</g>
<!-- Node3&#45;&gt;Node4 -->
<g id="edge3" class="edge"><title>Node3&#45;&gt;Node4</title>
<path fill="none" stroke="midnightblue" d="M128.48,-53.4087C107.323,-44.8449 71.5113,-30.3498 46.8581,-20.3711"/>
<polygon fill="midnightblue" stroke="midnightblue" points="47.9536,-17.0388 37.371,-16.5311 45.3272,-23.5274 47.9536,-17.0388"/>
</g>
<!-- Node5 -->
<g id="node5" class="node"><title>Node5</title>
<polygon fill="none" stroke="#bfbfbf" points="58.5,-0.5 58.5,-16.5 139.5,-16.5 139.5,-0.5 58.5,-0.5"/>
<text text-anchor="middle" x="99" y="-6.9" font-family="Helvetica,sans-Serif" font-size="7.00">QtSql/QSqlDatabase</text>
</g>
<!-- Node3&#45;&gt;Node5 -->
<g id="edge4" class="edge"><title>Node3&#45;&gt;Node5</title>
<path fill="none" stroke="midnightblue" d="M139.465,-53.4087C132.52,-45.8725 121.342,-33.7432 112.492,-24.1405"/>
<polygon fill="midnightblue" stroke="midnightblue" points="114.83,-21.5128 105.48,-16.5311 109.683,-26.2566 114.83,-21.5128"/>
</g>
<!-- Node6 -->
<g id="node6" class="node"><title>Node6</title>
<polygon fill="none" stroke="#bfbfbf" points="157.5,-0.5 157.5,-16.5 228.5,-16.5 228.5,-0.5 157.5,-0.5"/>
<text text-anchor="middle" x="193" y="-6.9" font-family="Helvetica,sans-Serif" font-size="7.00">QtSql/QSqlDriver</text>
</g>
<!-- Node3&#45;&gt;Node6 -->
<g id="edge5" class="edge"><title>Node3&#45;&gt;Node6</title>
<path fill="none" stroke="midnightblue" d="M152.535,-53.4087C159.48,-45.8725 170.658,-33.7432 179.508,-24.1405"/>
<polygon fill="midnightblue" stroke="midnightblue" points="182.317,-26.2566 186.52,-16.5311 177.17,-21.5128 182.317,-26.2566"/>
</g>
<!-- Node7 -->
<g id="node7" class="node"><title>Node7</title>
<polygon fill="none" stroke="#bfbfbf" points="246.5,-0.5 246.5,-16.5 297.5,-16.5 297.5,-0.5 246.5,-0.5"/>
<text text-anchor="middle" x="272" y="-6.9" font-family="Helvetica,sans-Serif" font-size="7.00">QSqlQuery</text>
</g>
<!-- Node3&#45;&gt;Node7 -->
<g id="edge6" class="edge"><title>Node3&#45;&gt;Node7</title>
<path fill="none" stroke="midnightblue" d="M163.52,-53.4087C184.677,-44.8449 220.489,-30.3498 245.142,-20.3711"/>
<polygon fill="midnightblue" stroke="midnightblue" points="246.673,-23.5274 254.629,-16.5311 244.046,-17.0388 246.673,-23.5274"/>
</g>
<!-- Node9&#45;&gt;Node3 -->
<g id="edge9" class="edge"><title>Node9&#45;&gt;Node3</title>
<path fill="none" stroke="midnightblue" d="M201.962,-106.409C191.872,-98.4919 175.322,-85.5063 162.831,-75.7058"/>
<polygon fill="midnightblue" stroke="midnightblue" points="164.989,-72.9504 154.961,-69.5311 160.668,-78.4576 164.989,-72.9504"/>
</g>
</g>
</svg>
