<?xml version="1.0" encoding="UTF-8" standalone="no"?>
<!DOCTYPE svg PUBLIC "-//W3C//DTD SVG 1.1//EN"
 "http://www.w3.org/Graphics/SVG/1.1/DTD/svg11.dtd">
<!-- Generated by graphviz version 2.38.0 (20140413.2041)
 -->
<!-- Title: S:/QT_CREATOR/Locker_Control/doorsmanager.cpp Pages: 1 -->
<svg width="486pt" height="245pt"
 viewBox="0.00 0.00 486.00 245.00" xmlns="http://www.w3.org/2000/svg" xmlns:xlink="http://www.w3.org/1999/xlink">
<g id="graph0" class="graph" transform="scale(1 1) rotate(0) translate(4 241)">
<title>S:/QT_CREATOR/Locker_Control/doorsmanager.cpp</title>
<!-- Node1 -->
<g id="node1" class="node"><title>Node1</title>
<polygon fill="#bfbfbf" stroke="black" points="266.5,-212.5 266.5,-236.5 369.5,-236.5 369.5,-212.5 266.5,-212.5"/>
<text text-anchor="start" x="274.5" y="-226.9" font-family="Helvetica,sans-Serif" font-size="7.00">S:/QT_CREATOR/Locker</text>
<text text-anchor="middle" x="318" y="-218.9" font-family="Helvetica,sans-Serif" font-size="7.00">_Control/doorsmanager.cpp</text>
</g>
<!-- Node2 -->
<g id="node2" class="node"><title>Node2</title>
<g id="a_node2"><a xlink:href="doorsmanager_8h.html" target="_top" xlink:title="doorsmanager.h">
<polygon fill="none" stroke="red" points="97.5,-159.5 97.5,-175.5 164.5,-175.5 164.5,-159.5 97.5,-159.5"/>
<text text-anchor="middle" x="131" y="-165.9" font-family="Helvetica,sans-Serif" font-size="7.00">doorsmanager.h</text>
</a>
</g>
</g>
<!-- Node1&#45;&gt;Node2 -->
<g id="edge1" class="edge"><title>Node1&#45;&gt;Node2</title>
<path fill="none" stroke="midnightblue" d="M280.158,-212.37C246.356,-202.428 197.297,-187.999 164.791,-178.438"/>
<polygon fill="midnightblue" stroke="midnightblue" points="165.44,-174.981 154.859,-175.517 163.465,-181.697 165.44,-174.981"/>
</g>
<!-- Node5 -->
<g id="node5" class="node"><title>Node5</title>
<g id="a_node5"><a xlink:href="_data_structures_8h.html" target="_top" xlink:title="Definnitions des formats de communications des données entre les classes de l&#39;application LC...">
<polygon fill="none" stroke="red" points="173,-0.5 173,-16.5 243,-16.5 243,-0.5 173,-0.5"/>
<text text-anchor="middle" x="208" y="-6.9" font-family="Helvetica,sans-Serif" font-size="7.00">DataStructures.h</text>
</a>
</g>
</g>
<!-- Node1&#45;&gt;Node5 -->
<g id="edge10" class="edge"><title>Node1&#45;&gt;Node5</title>
<path fill="none" stroke="midnightblue" d="M304.067,-212.251C293.77,-203.328 280.028,-190.056 271,-176 239.018,-126.205 219.633,-57.748 211.893,-26.4063"/>
<polygon fill="midnightblue" stroke="midnightblue" points="215.289,-25.5585 209.567,-16.6419 208.48,-27.1808 215.289,-25.5585"/>
</g>
<!-- Node8 -->
<g id="node8" class="node"><title>Node8</title>
<polygon fill="none" stroke="#bfbfbf" points="280,-159.5 280,-175.5 356,-175.5 356,-159.5 280,-159.5"/>
<text text-anchor="middle" x="318" y="-165.9" font-family="Helvetica,sans-Serif" font-size="7.00">ui_doorsmanager.h</text>
</g>
<!-- Node1&#45;&gt;Node8 -->
<g id="edge9" class="edge"><title>Node1&#45;&gt;Node8</title>
<path fill="none" stroke="midnightblue" d="M318,-212.37C318,-204.775 318,-194.56 318,-185.899"/>
<polygon fill="midnightblue" stroke="midnightblue" points="321.5,-185.757 318,-175.757 314.5,-185.758 321.5,-185.757"/>
</g>
<!-- Node9 -->
<g id="node9" class="node"><title>Node9</title>
<polygon fill="none" stroke="#bfbfbf" points="374,-159.5 374,-175.5 418,-175.5 418,-159.5 374,-159.5"/>
<text text-anchor="middle" x="396" y="-165.9" font-family="Helvetica,sans-Serif" font-size="7.00">QToolTip</text>
</g>
<!-- Node1&#45;&gt;Node9 -->
<g id="edge11" class="edge"><title>Node1&#45;&gt;Node9</title>
<path fill="none" stroke="midnightblue" d="M333.784,-212.37C346.371,-203.495 364.03,-191.043 377.321,-181.671"/>
<polygon fill="midnightblue" stroke="midnightblue" points="379.552,-184.381 385.708,-175.757 375.518,-178.66 379.552,-184.381"/>
</g>
<!-- Node10 -->
<g id="node10" class="node"><title>Node10</title>
<polygon fill="none" stroke="#bfbfbf" points="436,-159.5 436,-175.5 478,-175.5 478,-159.5 436,-159.5"/>
<text text-anchor="middle" x="457" y="-165.9" font-family="Helvetica,sans-Serif" font-size="7.00">QDebug</text>
</g>
<!-- Node1&#45;&gt;Node10 -->
<g id="edge12" class="edge"><title>Node1&#45;&gt;Node10</title>
<path fill="none" stroke="midnightblue" d="M346.129,-212.37C370.423,-202.757 405.322,-188.948 429.447,-179.402"/>
<polygon fill="midnightblue" stroke="midnightblue" points="431.053,-182.531 439.064,-175.597 428.478,-176.022 431.053,-182.531"/>
</g>
<!-- Node3 -->
<g id="node3" class="node"><title>Node3</title>
<polygon fill="none" stroke="#bfbfbf" points="0,-106.5 0,-122.5 44,-122.5 44,-106.5 0,-106.5"/>
<text text-anchor="middle" x="22" y="-112.9" font-family="Helvetica,sans-Serif" font-size="7.00">QWidget</text>
</g>
<!-- Node2&#45;&gt;Node3 -->
<g id="edge2" class="edge"><title>Node2&#45;&gt;Node3</title>
<path fill="none" stroke="midnightblue" d="M115.844,-159.409C97.785,-150.959 67.3853,-136.735 46.0925,-126.773"/>
<polygon fill="midnightblue" stroke="midnightblue" points="47.5682,-123.599 37.0273,-122.531 44.6015,-129.939 47.5682,-123.599"/>
</g>
<!-- Node4 -->
<g id="node4" class="node"><title>Node4</title>
<g id="a_node4"><a xlink:href="csqlite__local__db_8h.html" target="_top" xlink:title="csqlite_local_db.h">
<polygon fill="none" stroke="red" points="108,-53.5 108,-69.5 180,-69.5 180,-53.5 108,-53.5"/>
<text text-anchor="middle" x="144" y="-59.9" font-family="Helvetica,sans-Serif" font-size="7.00">csqlite_local_db.h</text>
</a>
</g>
</g>
<!-- Node2&#45;&gt;Node4 -->
<g id="edge3" class="edge"><title>Node2&#45;&gt;Node4</title>
<path fill="none" stroke="midnightblue" d="M120.449,-159.45C105.553,-148.555 81.2023,-126.717 91,-106 97.2646,-92.7539 109.758,-82.1889 121.043,-74.7891"/>
<polygon fill="midnightblue" stroke="midnightblue" points="122.957,-77.7218 129.691,-69.5426 119.326,-71.737 122.957,-77.7218"/>
</g>
<!-- Node6 -->
<g id="node6" class="node"><title>Node6</title>
<g id="a_node6"><a xlink:href="showwidgets_8h.html" target="_top" xlink:title="showwidgets.h">
<polygon fill="none" stroke="red" points="100,-106.5 100,-122.5 162,-122.5 162,-106.5 100,-106.5"/>
<text text-anchor="middle" x="131" y="-112.9" font-family="Helvetica,sans-Serif" font-size="7.00">showwidgets.h</text>
</a>
</g>
</g>
<!-- Node2&#45;&gt;Node6 -->
<g id="edge5" class="edge"><title>Node2&#45;&gt;Node6</title>
<path fill="none" stroke="midnightblue" d="M131,-159.409C131,-152.558 131,-141.911 131,-132.817"/>
<polygon fill="midnightblue" stroke="midnightblue" points="134.5,-132.531 131,-122.531 127.5,-132.531 134.5,-132.531"/>
</g>
<!-- Node7 -->
<g id="node7" class="node"><title>Node7</title>
<g id="a_node7"><a xlink:href="cdoors_8h.html" target="_top" xlink:title="cdoors.h">
<polygon fill="none" stroke="black" points="180,-106.5 180,-122.5 224,-122.5 224,-106.5 180,-106.5"/>
<text text-anchor="middle" x="202" y="-112.9" font-family="Helvetica,sans-Serif" font-size="7.00">cdoors.h</text>
</a>
</g>
</g>
<!-- Node2&#45;&gt;Node7 -->
<g id="edge6" class="edge"><title>Node2&#45;&gt;Node7</title>
<path fill="none" stroke="midnightblue" d="M140.872,-159.409C152,-151.416 170.32,-138.256 184.008,-128.424"/>
<polygon fill="midnightblue" stroke="midnightblue" points="186.132,-131.208 192.212,-122.531 182.048,-125.522 186.132,-131.208"/>
</g>
<!-- Node4&#45;&gt;Node5 -->
<g id="edge4" class="edge"><title>Node4&#45;&gt;Node5</title>
<path fill="none" stroke="midnightblue" d="M152.899,-53.4087C162.738,-45.568 178.817,-32.7556 191.072,-22.9894"/>
<polygon fill="midnightblue" stroke="midnightblue" points="193.537,-25.5004 199.177,-16.5311 189.175,-20.026 193.537,-25.5004"/>
</g>
<!-- Node7&#45;&gt;Node4 -->
<g id="edge8" class="edge"><title>Node7&#45;&gt;Node4</title>
<path fill="none" stroke="midnightblue" d="M193.935,-106.409C185.105,-98.6442 170.73,-86.0039 159.665,-76.2747"/>
<polygon fill="midnightblue" stroke="midnightblue" points="161.817,-73.5061 151.996,-69.5311 157.195,-78.7629 161.817,-73.5061"/>
</g>
<!-- Node7&#45;&gt;Node5 -->
<g id="edge7" class="edge"><title>Node7&#45;&gt;Node5</title>
<path fill="none" stroke="midnightblue" d="M202.412,-106.352C203.35,-90.0985 205.664,-49.9887 207.002,-26.8037"/>
<polygon fill="midnightblue" stroke="midnightblue" points="210.503,-26.8834 207.585,-16.6984 203.514,-26.4801 210.503,-26.8834"/>
</g>
</g>
</svg>
