<?xml version="1.0" encoding="UTF-8" standalone="no"?>
<!DOCTYPE svg PUBLIC "-//W3C//DTD SVG 1.1//EN"
 "http://www.w3.org/Graphics/SVG/1.1/DTD/svg11.dtd">
<!-- Generated by graphviz version 2.38.0 (20140413.2041)
 -->
<!-- Title: S:/QT_CREATOR/Locker_Control/drawbox.h Pages: 1 -->
<svg width="276pt" height="86pt"
 viewBox="0.00 0.00 275.50 86.00" xmlns="http://www.w3.org/2000/svg" xmlns:xlink="http://www.w3.org/1999/xlink">
<g id="graph0" class="graph" transform="scale(1 1) rotate(0) translate(4 82)">
<title>S:/QT_CREATOR/Locker_Control/drawbox.h</title>
<!-- Node1 -->
<g id="node1" class="node"><title>Node1</title>
<polygon fill="#bfbfbf" stroke="black" points="104,-53.5 104,-77.5 199,-77.5 199,-53.5 104,-53.5"/>
<text text-anchor="start" x="112" y="-67.9" font-family="Helvetica,sans-Serif" font-size="7.00">S:/QT_CREATOR/Locker</text>
<text text-anchor="middle" x="151.5" y="-59.9" font-family="Helvetica,sans-Serif" font-size="7.00">_Control/drawbox.h</text>
</g>
<!-- Node2 -->
<g id="node2" class="node"><title>Node2</title>
<polygon fill="none" stroke="#bfbfbf" points="0,-0.5 0,-16.5 79,-16.5 79,-0.5 0,-0.5"/>
<text text-anchor="middle" x="39.5" y="-6.9" font-family="Helvetica,sans-Serif" font-size="7.00">QGraphicsRectItem</text>
</g>
<!-- Node1&#45;&gt;Node2 -->
<g id="edge1" class="edge"><title>Node1&#45;&gt;Node2</title>
<path fill="none" stroke="midnightblue" d="M128.835,-53.3699C109.697,-43.9716 82.3913,-30.5627 63.0158,-21.0479"/>
<polygon fill="midnightblue" stroke="midnightblue" points="64.471,-17.8633 53.9521,-16.597 61.3854,-24.1466 64.471,-17.8633"/>
</g>
<!-- Node3 -->
<g id="node3" class="node"><title>Node3</title>
<polygon fill="none" stroke="#bfbfbf" points="97.5,-0.5 97.5,-16.5 205.5,-16.5 205.5,-0.5 97.5,-0.5"/>
<text text-anchor="middle" x="151.5" y="-6.9" font-family="Helvetica,sans-Serif" font-size="7.00">QGraphicsSceneMouseEvent</text>
</g>
<!-- Node1&#45;&gt;Node3 -->
<g id="edge2" class="edge"><title>Node1&#45;&gt;Node3</title>
<path fill="none" stroke="midnightblue" d="M151.5,-53.3699C151.5,-45.7748 151.5,-35.5603 151.5,-26.8986"/>
<polygon fill="midnightblue" stroke="midnightblue" points="155,-26.7574 151.5,-16.7575 148,-26.7575 155,-26.7574"/>
</g>
<!-- Node4 -->
<g id="node4" class="node"><title>Node4</title>
<polygon fill="none" stroke="#bfbfbf" points="223.5,-0.5 223.5,-16.5 267.5,-16.5 267.5,-0.5 223.5,-0.5"/>
<text text-anchor="middle" x="245.5" y="-6.9" font-family="Helvetica,sans-Serif" font-size="7.00">QPainter</text>
</g>
<!-- Node1&#45;&gt;Node4 -->
<g id="edge3" class="edge"><title>Node1&#45;&gt;Node4</title>
<path fill="none" stroke="midnightblue" d="M170.522,-53.3699C186.218,-44.1862 208.459,-31.1729 224.639,-21.7056"/>
<polygon fill="midnightblue" stroke="midnightblue" points="226.507,-24.6681 233.371,-16.597 222.972,-18.6263 226.507,-24.6681"/>
</g>
</g>
</svg>
