<?xml version="1.0" encoding="UTF-8" standalone="no"?>
<!DOCTYPE svg PUBLIC "-//W3C//DTD SVG 1.1//EN"
 "http://www.w3.org/Graphics/SVG/1.1/DTD/svg11.dtd">
<!-- Generated by graphviz version 2.38.0 (20140413.2041)
 -->
<!-- Title: S:/QT_CREATOR/Locker_Control/drawbox.cpp Pages: 1 -->
<svg width="514pt" height="139pt"
 viewBox="0.00 0.00 513.50 139.00" xmlns="http://www.w3.org/2000/svg" xmlns:xlink="http://www.w3.org/1999/xlink">
<g id="graph0" class="graph" transform="scale(1 1) rotate(0) translate(4 135)">
<title>S:/QT_CREATOR/Locker_Control/drawbox.cpp</title>
<!-- Node1 -->
<g id="node1" class="node"><title>Node1</title>
<polygon fill="#bfbfbf" stroke="black" points="254,-106.5 254,-130.5 349,-130.5 349,-106.5 254,-106.5"/>
<text text-anchor="start" x="262" y="-120.9" font-family="Helvetica,sans-Serif" font-size="7.00">S:/QT_CREATOR/Locker</text>
<text text-anchor="middle" x="301.5" y="-112.9" font-family="Helvetica,sans-Serif" font-size="7.00">_Control/drawbox.cpp</text>
</g>
<!-- Node2 -->
<g id="node2" class="node"><title>Node2</title>
<g id="a_node2"><a xlink:href="drawbox_8h.html" target="_top" xlink:title="drawbox.h">
<polygon fill="none" stroke="black" points="127.5,-53.5 127.5,-69.5 175.5,-69.5 175.5,-53.5 127.5,-53.5"/>
<text text-anchor="middle" x="151.5" y="-59.9" font-family="Helvetica,sans-Serif" font-size="7.00">drawbox.h</text>
</a>
</g>
</g>
<!-- Node1&#45;&gt;Node2 -->
<g id="edge1" class="edge"><title>Node1&#45;&gt;Node2</title>
<path fill="none" stroke="midnightblue" d="M271.145,-106.37C244.694,-96.6712 206.595,-82.7014 180.539,-73.1478"/>
<polygon fill="midnightblue" stroke="midnightblue" points="181.449,-69.7535 170.855,-69.597 179.039,-76.3257 181.449,-69.7535"/>
</g>
<!-- Node6 -->
<g id="node6" class="node"><title>Node6</title>
<polygon fill="none" stroke="#bfbfbf" points="193.5,-53.5 193.5,-69.5 235.5,-69.5 235.5,-53.5 193.5,-53.5"/>
<text text-anchor="middle" x="214.5" y="-59.9" font-family="Helvetica,sans-Serif" font-size="7.00">QDebug</text>
</g>
<!-- Node1&#45;&gt;Node6 -->
<g id="edge5" class="edge"><title>Node1&#45;&gt;Node6</title>
<path fill="none" stroke="midnightblue" d="M283.894,-106.37C269.503,-97.272 249.167,-84.4158 234.228,-74.972"/>
<polygon fill="midnightblue" stroke="midnightblue" points="236.049,-71.9822 225.726,-69.597 232.308,-77.899 236.049,-71.9822"/>
</g>
<!-- Node7 -->
<g id="node7" class="node"><title>Node7</title>
<polygon fill="none" stroke="#bfbfbf" points="253.5,-53.5 253.5,-69.5 293.5,-69.5 293.5,-53.5 253.5,-53.5"/>
<text text-anchor="middle" x="273.5" y="-59.9" font-family="Helvetica,sans-Serif" font-size="7.00">QBrush</text>
</g>
<!-- Node1&#45;&gt;Node7 -->
<g id="edge6" class="edge"><title>Node1&#45;&gt;Node7</title>
<path fill="none" stroke="midnightblue" d="M295.834,-106.37C291.793,-98.4334 286.297,-87.6369 281.768,-78.7405"/>
<polygon fill="midnightblue" stroke="midnightblue" points="284.851,-77.0812 277.195,-69.7575 278.613,-80.257 284.851,-77.0812"/>
</g>
<!-- Node8 -->
<g id="node8" class="node"><title>Node8</title>
<polygon fill="none" stroke="#bfbfbf" points="311.5,-53.5 311.5,-69.5 349.5,-69.5 349.5,-53.5 311.5,-53.5"/>
<text text-anchor="middle" x="330.5" y="-59.9" font-family="Helvetica,sans-Serif" font-size="7.00">QColor</text>
</g>
<!-- Node1&#45;&gt;Node8 -->
<g id="edge7" class="edge"><title>Node1&#45;&gt;Node8</title>
<path fill="none" stroke="midnightblue" d="M307.369,-106.37C311.553,-98.4334 317.246,-87.6369 321.937,-78.7405"/>
<polygon fill="midnightblue" stroke="midnightblue" points="325.105,-80.2356 326.673,-69.7575 318.913,-76.9707 325.105,-80.2356"/>
</g>
<!-- Node9 -->
<g id="node9" class="node"><title>Node9</title>
<g id="a_node9"><a xlink:href="_data_structures_8h.html" target="_top" xlink:title="Definnitions des formats de communications des données entre les classes de l&#39;application LC...">
<polygon fill="none" stroke="red" points="367.5,-53.5 367.5,-69.5 437.5,-69.5 437.5,-53.5 367.5,-53.5"/>
<text text-anchor="middle" x="402.5" y="-59.9" font-family="Helvetica,sans-Serif" font-size="7.00">DataStructures.h</text>
</a>
</g>
</g>
<!-- Node1&#45;&gt;Node9 -->
<g id="edge8" class="edge"><title>Node1&#45;&gt;Node9</title>
<path fill="none" stroke="midnightblue" d="M321.939,-106.37C338.961,-97.1004 363.148,-83.9293 380.572,-74.4411"/>
<polygon fill="midnightblue" stroke="midnightblue" points="382.359,-77.4533 389.467,-69.597 379.011,-71.3057 382.359,-77.4533"/>
</g>
<!-- Node10 -->
<g id="node10" class="node"><title>Node10</title>
<polygon fill="none" stroke="#bfbfbf" points="455.5,-53.5 455.5,-69.5 505.5,-69.5 505.5,-53.5 455.5,-53.5"/>
<text text-anchor="middle" x="480.5" y="-59.9" font-family="Helvetica,sans-Serif" font-size="7.00">QTextItem</text>
</g>
<!-- Node1&#45;&gt;Node10 -->
<g id="edge9" class="edge"><title>Node1&#45;&gt;Node10</title>
<path fill="none" stroke="midnightblue" d="M337.723,-106.37C369.939,-96.4714 416.633,-82.1238 447.75,-72.5629"/>
<polygon fill="midnightblue" stroke="midnightblue" points="449.131,-75.8001 457.662,-69.5173 447.075,-69.1088 449.131,-75.8001"/>
</g>
<!-- Node3 -->
<g id="node3" class="node"><title>Node3</title>
<polygon fill="none" stroke="#bfbfbf" points="0,-0.5 0,-16.5 79,-16.5 79,-0.5 0,-0.5"/>
<text text-anchor="middle" x="39.5" y="-6.9" font-family="Helvetica,sans-Serif" font-size="7.00">QGraphicsRectItem</text>
</g>
<!-- Node2&#45;&gt;Node3 -->
<g id="edge2" class="edge"><title>Node2&#45;&gt;Node3</title>
<path fill="none" stroke="midnightblue" d="M135.927,-53.4087C117.371,-44.9591 86.1344,-30.7353 64.2556,-20.7726"/>
<polygon fill="midnightblue" stroke="midnightblue" points="65.4922,-17.49 54.9409,-16.5311 62.5913,-23.8606 65.4922,-17.49"/>
</g>
<!-- Node4 -->
<g id="node4" class="node"><title>Node4</title>
<polygon fill="none" stroke="#bfbfbf" points="97.5,-0.5 97.5,-16.5 205.5,-16.5 205.5,-0.5 97.5,-0.5"/>
<text text-anchor="middle" x="151.5" y="-6.9" font-family="Helvetica,sans-Serif" font-size="7.00">QGraphicsSceneMouseEvent</text>
</g>
<!-- Node2&#45;&gt;Node4 -->
<g id="edge3" class="edge"><title>Node2&#45;&gt;Node4</title>
<path fill="none" stroke="midnightblue" d="M151.5,-53.4087C151.5,-46.5576 151.5,-35.9106 151.5,-26.8167"/>
<polygon fill="midnightblue" stroke="midnightblue" points="155,-26.5311 151.5,-16.5311 148,-26.5311 155,-26.5311"/>
</g>
<!-- Node5 -->
<g id="node5" class="node"><title>Node5</title>
<polygon fill="none" stroke="#bfbfbf" points="223.5,-0.5 223.5,-16.5 267.5,-16.5 267.5,-0.5 223.5,-0.5"/>
<text text-anchor="middle" x="245.5" y="-6.9" font-family="Helvetica,sans-Serif" font-size="7.00">QPainter</text>
</g>
<!-- Node2&#45;&gt;Node5 -->
<g id="edge4" class="edge"><title>Node2&#45;&gt;Node5</title>
<path fill="none" stroke="midnightblue" d="M164.57,-53.4087C179.863,-45.1113 205.419,-31.246 223.723,-21.3153"/>
<polygon fill="midnightblue" stroke="midnightblue" points="225.42,-24.3764 232.541,-16.5311 222.082,-18.2236 225.42,-24.3764"/>
</g>
</g>
</svg>
