<?xml version="1.0" encoding="UTF-8" standalone="no"?>
<!DOCTYPE svg PUBLIC "-//W3C//DTD SVG 1.1//EN"
 "http://www.w3.org/Graphics/SVG/1.1/DTD/svg11.dtd">
<!-- Generated by graphviz version 2.38.0 (20140413.2041)
 -->
<!-- Title: S:/QT_CREATOR/Locker_Control/drawbox.h Pages: 1 -->
<svg width="381pt" height="338pt"
 viewBox="0.00 0.00 381.29 338.00" xmlns="http://www.w3.org/2000/svg" xmlns:xlink="http://www.w3.org/1999/xlink">
<g id="graph0" class="graph" transform="scale(1 1) rotate(0) translate(4 334)">
<title>S:/QT_CREATOR/Locker_Control/drawbox.h</title>
<!-- Node1 -->
<g id="node1" class="node"><title>Node1</title>
<polygon fill="#bfbfbf" stroke="black" points="142,-305.5 142,-329.5 237,-329.5 237,-305.5 142,-305.5"/>
<text text-anchor="start" x="150" y="-319.9" font-family="Helvetica,sans-Serif" font-size="7.00">S:/QT_CREATOR/Locker</text>
<text text-anchor="middle" x="189.5" y="-311.9" font-family="Helvetica,sans-Serif" font-size="7.00">_Control/drawbox.h</text>
</g>
<!-- Node2 -->
<g id="node2" class="node"><title>Node2</title>
<g id="a_node2"><a xlink:href="boxchoice_8h.html" target="_top" target="_top" xlink:title="S:/QT_CREATOR/Locker\l_Control/boxchoice.h">
<polygon fill="none" stroke="black" points="142,-244.5 142,-268.5 237,-268.5 237,-244.5 142,-244.5"/>
<text text-anchor="start" x="150" y="-258.9" font-family="Helvetica,sans-Serif" font-size="7.00">S:/QT_CREATOR/Locker</text>
<text text-anchor="middle" x="189.5" y="-250.9" font-family="Helvetica,sans-Serif" font-size="7.00">_Control/boxchoice.h</text>
</a>
</g>
</g>
<!-- Node1&#45;&gt;Node2 -->
<g id="edge1" class="edge"><title>Node1&#45;&gt;Node2</title>
<path fill="none" stroke="midnightblue" d="M189.5,-295.198C189.5,-286.173 189.5,-276.035 189.5,-268.548"/>
<polygon fill="midnightblue" stroke="midnightblue" points="186,-295.403 189.5,-305.403 193,-295.403 186,-295.403"/>
</g>
<!-- Node5 -->
<g id="node5" class="node"><title>Node5</title>
<g id="a_node5"><a xlink:href="stowpackages_8h.html" target="_top" target="_top" xlink:title="S:/QT_CREATOR/Locker\l_Control/stowpackages.h">
<polygon fill="none" stroke="black" points="47,-122.5 47,-146.5 142,-146.5 142,-122.5 47,-122.5"/>
<text text-anchor="start" x="55" y="-136.9" font-family="Helvetica,sans-Serif" font-size="7.00">S:/QT_CREATOR/Locker</text>
<text text-anchor="middle" x="94.5" y="-128.9" font-family="Helvetica,sans-Serif" font-size="7.00">_Control/stowpackages.h</text>
</a>
</g>
</g>
<!-- Node1&#45;&gt;Node5 -->
<g id="edge13" class="edge"><title>Node1&#45;&gt;Node5</title>
<path fill="none" stroke="midnightblue" d="M163.161,-299.488C152.369,-291.38 140.55,-280.857 132.5,-269 105.564,-229.325 97.543,-170.663 95.3066,-146.507"/>
<polygon fill="midnightblue" stroke="midnightblue" points="161.333,-302.484 171.503,-305.453 165.404,-296.79 161.333,-302.484"/>
</g>
<!-- Node10 -->
<g id="node10" class="node"><title>Node10</title>
<g id="a_node10"><a xlink:href="drawbox_8cpp.html" target="_top" target="_top" xlink:title="S:/QT_CREATOR/Locker\l_Control/drawbox.cpp">
<polygon fill="none" stroke="black" points="255,-244.5 255,-268.5 350,-268.5 350,-244.5 255,-244.5"/>
<text text-anchor="start" x="263" y="-258.9" font-family="Helvetica,sans-Serif" font-size="7.00">S:/QT_CREATOR/Locker</text>
<text text-anchor="middle" x="302.5" y="-250.9" font-family="Helvetica,sans-Serif" font-size="7.00">_Control/drawbox.cpp</text>
</a>
</g>
</g>
<!-- Node1&#45;&gt;Node10 -->
<g id="edge14" class="edge"><title>Node1&#45;&gt;Node10</title>
<path fill="none" stroke="midnightblue" d="M219.816,-300.672C239.256,-290.521 264.006,-277.598 281.341,-268.548"/>
<polygon fill="midnightblue" stroke="midnightblue" points="217.999,-297.672 210.754,-305.403 221.239,-303.877 217.999,-297.672"/>
</g>
<!-- Node3 -->
<g id="node3" class="node"><title>Node3</title>
<g id="a_node3"><a xlink:href="boxchoice_8cpp.html" target="_top" target="_top" xlink:title="S:/QT_CREATOR/Locker\l_Control/boxchoice.cpp">
<polygon fill="none" stroke="black" points="255,-183.5 255,-207.5 350,-207.5 350,-183.5 255,-183.5"/>
<text text-anchor="start" x="263" y="-197.9" font-family="Helvetica,sans-Serif" font-size="7.00">S:/QT_CREATOR/Locker</text>
<text text-anchor="middle" x="302.5" y="-189.9" font-family="Helvetica,sans-Serif" font-size="7.00">_Control/boxchoice.cpp</text>
</a>
</g>
</g>
<!-- Node2&#45;&gt;Node3 -->
<g id="edge2" class="edge"><title>Node2&#45;&gt;Node3</title>
<path fill="none" stroke="midnightblue" d="M219.816,-239.672C239.256,-229.521 264.006,-216.598 281.341,-207.548"/>
<polygon fill="midnightblue" stroke="midnightblue" points="217.999,-236.672 210.754,-244.403 221.239,-242.877 217.999,-236.672"/>
</g>
<!-- Node4 -->
<g id="node4" class="node"><title>Node4</title>
<g id="a_node4"><a xlink:href="scanpackage_8h.html" target="_top" target="_top" xlink:title="S:/QT_CREATOR/Locker\l_Control/scanpackage.h">
<polygon fill="none" stroke="black" points="142,-183.5 142,-207.5 237,-207.5 237,-183.5 142,-183.5"/>
<text text-anchor="start" x="150" y="-197.9" font-family="Helvetica,sans-Serif" font-size="7.00">S:/QT_CREATOR/Locker</text>
<text text-anchor="middle" x="189.5" y="-189.9" font-family="Helvetica,sans-Serif" font-size="7.00">_Control/scanpackage.h</text>
</a>
</g>
</g>
<!-- Node2&#45;&gt;Node4 -->
<g id="edge3" class="edge"><title>Node2&#45;&gt;Node4</title>
<path fill="none" stroke="midnightblue" d="M189.5,-234.198C189.5,-225.173 189.5,-215.035 189.5,-207.548"/>
<polygon fill="midnightblue" stroke="midnightblue" points="186,-234.403 189.5,-244.403 193,-234.403 186,-234.403"/>
</g>
<!-- Node2&#45;&gt;Node5 -->
<g id="edge11" class="edge"><title>Node2&#45;&gt;Node5</title>
<path fill="none" stroke="midnightblue" d="M164.753,-238.332C153.959,-230.023 141.697,-219.386 132.5,-208 116.784,-188.543 104.717,-161.572 98.7093,-146.615"/>
<polygon fill="midnightblue" stroke="midnightblue" points="162.894,-241.311 173.009,-244.466 167.069,-235.692 162.894,-241.311"/>
</g>
<!-- Node7 -->
<g id="node7" class="node"><title>Node7</title>
<g id="a_node7"><a xlink:href="consolewindows_8h.html" target="_top" target="_top" xlink:title="S:/QT_CREATOR/Locker\l_Control/consolewindows.h">
<polygon fill="none" stroke="red" points="219,-0.5 219,-24.5 320,-24.5 320,-0.5 219,-0.5"/>
<text text-anchor="start" x="227" y="-14.9" font-family="Helvetica,sans-Serif" font-size="7.00">S:/QT_CREATOR/Locker</text>
<text text-anchor="middle" x="269.5" y="-6.9" font-family="Helvetica,sans-Serif" font-size="7.00">_Control/consolewindows.h</text>
</a>
</g>
</g>
<!-- Node2&#45;&gt;Node7 -->
<g id="edge12" class="edge"><title>Node2&#45;&gt;Node7</title>
<path fill="none" stroke="midnightblue" d="M247.092,-243.012C293.599,-232.346 352.445,-217.296 359.5,-208 406.285,-146.351 317.63,-56.4813 282.74,-24.9475"/>
<polygon fill="midnightblue" stroke="midnightblue" points="246.057,-239.658 237.08,-245.285 247.606,-246.484 246.057,-239.658"/>
</g>
<!-- Node4&#45;&gt;Node5 -->
<g id="edge4" class="edge"><title>Node4&#45;&gt;Node5</title>
<path fill="none" stroke="midnightblue" d="M163.118,-178.115C146.915,-168.053 126.597,-155.434 112.289,-146.548"/>
<polygon fill="midnightblue" stroke="midnightblue" points="161.29,-181.1 171.631,-183.403 164.983,-175.153 161.29,-181.1"/>
</g>
<!-- Node4&#45;&gt;Node7 -->
<g id="edge9" class="edge"><title>Node4&#45;&gt;Node7</title>
<path fill="none" stroke="midnightblue" d="M233.135,-178.917C247.303,-171.541 261.437,-161.164 269.5,-147 292.202,-107.118 279.787,-49.0681 272.996,-24.8113"/>
<polygon fill="midnightblue" stroke="midnightblue" points="231.396,-175.869 223.884,-183.34 234.416,-182.185 231.396,-175.869"/>
</g>
<!-- Node9 -->
<g id="node9" class="node"><title>Node9</title>
<g id="a_node9"><a xlink:href="scanpackage_8cpp.html" target="_top" target="_top" xlink:title="S:/QT_CREATOR/Locker\l_Control/scanpackage.cpp">
<polygon fill="none" stroke="black" points="160.5,-122.5 160.5,-146.5 260.5,-146.5 260.5,-122.5 160.5,-122.5"/>
<text text-anchor="start" x="168.5" y="-136.9" font-family="Helvetica,sans-Serif" font-size="7.00">S:/QT_CREATOR/Locker</text>
<text text-anchor="middle" x="210.5" y="-128.9" font-family="Helvetica,sans-Serif" font-size="7.00">_Control/scanpackage.cpp</text>
</a>
</g>
</g>
<!-- Node4&#45;&gt;Node9 -->
<g id="edge10" class="edge"><title>Node4&#45;&gt;Node9</title>
<path fill="none" stroke="midnightblue" d="M196.871,-173.791C200.135,-164.619 203.844,-154.2 206.568,-146.548"/>
<polygon fill="midnightblue" stroke="midnightblue" points="193.506,-172.808 193.45,-183.403 200.101,-175.155 193.506,-172.808"/>
</g>
<!-- Node6 -->
<g id="node6" class="node"><title>Node6</title>
<g id="a_node6"><a xlink:href="deliveryconfirm_8h.html" target="_top" target="_top" xlink:title="S:/QT_CREATOR/Locker\l_Control/deliveryconfirm.h">
<polygon fill="none" stroke="red" points="0,-61.5 0,-85.5 101,-85.5 101,-61.5 0,-61.5"/>
<text text-anchor="start" x="8" y="-75.9" font-family="Helvetica,sans-Serif" font-size="7.00">S:/QT_CREATOR/Locker</text>
<text text-anchor="middle" x="50.5" y="-67.9" font-family="Helvetica,sans-Serif" font-size="7.00">_Control/deliveryconfirm.h</text>
</a>
</g>
</g>
<!-- Node5&#45;&gt;Node6 -->
<g id="edge5" class="edge"><title>Node5&#45;&gt;Node6</title>
<path fill="none" stroke="midnightblue" d="M80.151,-114.259C73.0577,-104.748 64.7523,-93.6111 58.739,-85.5477"/>
<polygon fill="midnightblue" stroke="midnightblue" points="77.44,-116.479 86.2239,-122.403 83.0514,-112.294 77.44,-116.479"/>
</g>
<!-- Node5&#45;&gt;Node7 -->
<g id="edge7" class="edge"><title>Node5&#45;&gt;Node7</title>
<path fill="none" stroke="midnightblue" d="M146.36,-119.617C179.02,-110.085 217.399,-97.1842 230.5,-86 249.957,-69.3891 261.272,-40.5618 266.318,-24.7231"/>
<polygon fill="midnightblue" stroke="midnightblue" points="145.089,-116.341 136.442,-122.462 147.019,-123.069 145.089,-116.341"/>
</g>
<!-- Node8 -->
<g id="node8" class="node"><title>Node8</title>
<g id="a_node8"><a xlink:href="stowpackages_8cpp.html" target="_top" target="_top" xlink:title="S:/QT_CREATOR/Locker\l_Control/stowpackages.cpp">
<polygon fill="none" stroke="black" points="119,-61.5 119,-85.5 222,-85.5 222,-61.5 119,-61.5"/>
<text text-anchor="start" x="127" y="-75.9" font-family="Helvetica,sans-Serif" font-size="7.00">S:/QT_CREATOR/Locker</text>
<text text-anchor="middle" x="170.5" y="-67.9" font-family="Helvetica,sans-Serif" font-size="7.00">_Control/stowpackages.cpp</text>
</a>
</g>
</g>
<!-- Node5&#45;&gt;Node8 -->
<g id="edge8" class="edge"><title>Node5&#45;&gt;Node8</title>
<path fill="none" stroke="midnightblue" d="M117.059,-115.987C129.765,-106.123 145.246,-94.1048 156.269,-85.5477"/>
<polygon fill="midnightblue" stroke="midnightblue" points="114.548,-113.506 108.795,-122.403 118.84,-119.035 114.548,-113.506"/>
</g>
<!-- Node6&#45;&gt;Node7 -->
<g id="edge6" class="edge"><title>Node6&#45;&gt;Node7</title>
<path fill="none" stroke="midnightblue" d="M101.436,-58.7776C140.049,-48.3748 192.43,-34.2632 228.394,-24.5742"/>
<polygon fill="midnightblue" stroke="midnightblue" points="100.181,-55.4909 91.4353,-61.4718 102.002,-62.2499 100.181,-55.4909"/>
</g>
</g>
</svg>
