<?xml version="1.0" encoding="UTF-8" standalone="no"?>
<!DOCTYPE svg PUBLIC "-//W3C//DTD SVG 1.1//EN"
 "http://www.w3.org/Graphics/SVG/1.1/DTD/svg11.dtd">
<!-- Generated by graphviz version 2.38.0 (20140413.2041)
 -->
<!-- Title: S:/QT_CREATOR/Locker_Control/editsettingsystem.h Pages: 1 -->
<svg width="434pt" height="285pt"
 viewBox="0.00 0.00 433.50 285.00" xmlns="http://www.w3.org/2000/svg" xmlns:xlink="http://www.w3.org/1999/xlink">
<g id="graph0" class="graph" transform="scale(1 1) rotate(0) translate(4 281)">
<title>S:/QT_CREATOR/Locker_Control/editsettingsystem.h</title>
<!-- Node1 -->
<g id="node1" class="node"><title>Node1</title>
<polygon fill="#bfbfbf" stroke="black" points="167.5,-252.5 167.5,-276.5 274.5,-276.5 274.5,-252.5 167.5,-252.5"/>
<text text-anchor="start" x="175.5" y="-266.9" font-family="Helvetica,sans-Serif" font-size="7.00">S:/QT_CREATOR/Locker</text>
<text text-anchor="middle" x="221" y="-258.9" font-family="Helvetica,sans-Serif" font-size="7.00">_Control/editsettingsystem.h</text>
</g>
<!-- Node2 -->
<g id="node2" class="node"><title>Node2</title>
<g id="a_node2"><a xlink:href="settingsystem_8h.html" target="_top" xlink:title="S:/QT_CREATOR/Locker\l_Control/settingsystem.h">
<polygon fill="none" stroke="black" points="173,-191.5 173,-215.5 269,-215.5 269,-191.5 173,-191.5"/>
<text text-anchor="start" x="181" y="-205.9" font-family="Helvetica,sans-Serif" font-size="7.00">S:/QT_CREATOR/Locker</text>
<text text-anchor="middle" x="221" y="-197.9" font-family="Helvetica,sans-Serif" font-size="7.00">_Control/settingsystem.h</text>
</a>
</g>
</g>
<!-- Node1&#45;&gt;Node2 -->
<g id="edge1" class="edge"><title>Node1&#45;&gt;Node2</title>
<path fill="none" stroke="midnightblue" d="M214.487,-242.198C213.952,-233.173 214.322,-223.035 215.597,-215.548"/>
<polygon fill="midnightblue" stroke="midnightblue" points="211.036,-242.836 215.589,-252.403 217.995,-242.085 211.036,-242.836"/>
</g>
<!-- Node3 -->
<g id="node3" class="node"><title>Node3</title>
<g id="a_node3"><a xlink:href="consolewindows_8h.html" target="_top" xlink:title="S:/QT_CREATOR/Locker\l_Control/consolewindows.h">
<polygon fill="none" stroke="black" points="94.5,-130.5 94.5,-154.5 195.5,-154.5 195.5,-130.5 94.5,-130.5"/>
<text text-anchor="start" x="102.5" y="-144.9" font-family="Helvetica,sans-Serif" font-size="7.00">S:/QT_CREATOR/Locker</text>
<text text-anchor="middle" x="145" y="-136.9" font-family="Helvetica,sans-Serif" font-size="7.00">_Control/consolewindows.h</text>
</a>
</g>
</g>
<!-- Node1&#45;&gt;Node3 -->
<g id="edge13" class="edge"><title>Node1&#45;&gt;Node3</title>
<path fill="none" stroke="midnightblue" d="M194.082,-246.545C183.293,-238.499 171.633,-228.01 164,-216 151.716,-196.673 147.342,-169.653 145.808,-154.653"/>
<polygon fill="midnightblue" stroke="midnightblue" points="192.267,-249.547 202.455,-252.455 196.304,-243.829 192.267,-249.547"/>
</g>
<!-- Node10 -->
<g id="node10" class="node"><title>Node10</title>
<g id="a_node10"><a xlink:href="editsettingsystem_8cpp.html" target="_top" xlink:title="S:/QT_CREATOR/Locker\l_Control/editsettingsystem.cpp">
<polygon fill="none" stroke="black" points="287.5,-191.5 287.5,-215.5 402.5,-215.5 402.5,-191.5 287.5,-191.5"/>
<text text-anchor="start" x="295.5" y="-205.9" font-family="Helvetica,sans-Serif" font-size="7.00">S:/QT_CREATOR/Locker</text>
<text text-anchor="middle" x="345" y="-197.9" font-family="Helvetica,sans-Serif" font-size="7.00">_Control/editsettingsystem.cpp</text>
</a>
</g>
</g>
<!-- Node1&#45;&gt;Node10 -->
<g id="edge14" class="edge"><title>Node1&#45;&gt;Node10</title>
<path fill="none" stroke="midnightblue" d="M253.397,-248.085C274.857,-237.874 302.5,-224.722 321.781,-215.548"/>
<polygon fill="midnightblue" stroke="midnightblue" points="251.85,-244.945 244.323,-252.403 254.857,-251.266 251.85,-244.945"/>
</g>
<!-- Node2&#45;&gt;Node1 -->
<g id="edge11" class="edge"><title>Node2&#45;&gt;Node1</title>
<path fill="none" stroke="midnightblue" d="M227.509,-225.742C228.048,-234.763 227.682,-244.903 226.411,-252.403"/>
<polygon fill="midnightblue" stroke="midnightblue" points="230.961,-225.112 226.403,-215.548 224.002,-225.867 230.961,-225.112"/>
</g>
<!-- Node2&#45;&gt;Node3 -->
<g id="edge2" class="edge"><title>Node2&#45;&gt;Node3</title>
<path fill="none" stroke="midnightblue" d="M198.441,-184.987C185.735,-175.123 170.254,-163.105 159.231,-154.548"/>
<polygon fill="midnightblue" stroke="midnightblue" points="196.66,-188.035 206.705,-191.403 200.952,-182.506 196.66,-188.035"/>
</g>
<!-- Node9 -->
<g id="node9" class="node"><title>Node9</title>
<g id="a_node9"><a xlink:href="settingsystem_8cpp.html" target="_top" xlink:title="S:/QT_CREATOR/Locker\l_Control/settingsystem.cpp">
<polygon fill="none" stroke="black" points="214,-130.5 214,-154.5 318,-154.5 318,-130.5 214,-130.5"/>
<text text-anchor="start" x="222" y="-144.9" font-family="Helvetica,sans-Serif" font-size="7.00">S:/QT_CREATOR/Locker</text>
<text text-anchor="middle" x="266" y="-136.9" font-family="Helvetica,sans-Serif" font-size="7.00">_Control/settingsystem.cpp</text>
</a>
</g>
</g>
<!-- Node2&#45;&gt;Node9 -->
<g id="edge12" class="edge"><title>Node2&#45;&gt;Node9</title>
<path fill="none" stroke="midnightblue" d="M235.675,-183.259C242.93,-173.748 251.424,-162.611 257.574,-154.548"/>
<polygon fill="midnightblue" stroke="midnightblue" points="232.746,-181.329 229.464,-191.403 238.312,-185.574 232.746,-181.329"/>
</g>
<!-- Node4 -->
<g id="node4" class="node"><title>Node4</title>
<g id="a_node4"><a xlink:href="consolewindows_8cpp.html" target="_top" xlink:title="S:/QT_CREATOR/Locker\l_Control/consolewindows.cpp">
<polygon fill="none" stroke="black" points="0,-69.5 0,-93.5 108,-93.5 108,-69.5 0,-69.5"/>
<text text-anchor="start" x="8" y="-83.9" font-family="Helvetica,sans-Serif" font-size="7.00">S:/QT_CREATOR/Locker</text>
<text text-anchor="middle" x="54" y="-75.9" font-family="Helvetica,sans-Serif" font-size="7.00">_Control/consolewindows.cpp</text>
</a>
</g>
</g>
<!-- Node3&#45;&gt;Node4 -->
<g id="edge3" class="edge"><title>Node3&#45;&gt;Node4</title>
<path fill="none" stroke="midnightblue" d="M119.296,-124.835C103.848,-114.819 84.6186,-102.352 71.0397,-93.5477"/>
<polygon fill="midnightblue" stroke="midnightblue" points="117.589,-127.899 127.884,-130.403 121.397,-122.026 117.589,-127.899"/>
</g>
<!-- Node5 -->
<g id="node5" class="node"><title>Node5</title>
<g id="a_node5"><a xlink:href="thread__databasemanager_8h.html" target="_top" xlink:title="S:/QT_CREATOR/Locker\l_Control/thread_databasemanager.h">
<polygon fill="none" stroke="black" points="182,-69.5 182,-93.5 312,-93.5 312,-69.5 182,-69.5"/>
<text text-anchor="start" x="190" y="-83.9" font-family="Helvetica,sans-Serif" font-size="7.00">S:/QT_CREATOR/Locker</text>
<text text-anchor="middle" x="247" y="-75.9" font-family="Helvetica,sans-Serif" font-size="7.00">_Control/thread_databasemanager.h</text>
</a>
</g>
</g>
<!-- Node3&#45;&gt;Node5 -->
<g id="edge4" class="edge"><title>Node3&#45;&gt;Node5</title>
<path fill="none" stroke="midnightblue" d="M172.844,-125.394C190.318,-115.287 212.396,-102.516 227.901,-93.5477"/>
<polygon fill="midnightblue" stroke="midnightblue" points="171.089,-122.366 164.185,-130.403 174.594,-128.425 171.089,-122.366"/>
</g>
<!-- Node6 -->
<g id="node6" class="node"><title>Node6</title>
<g id="a_node6"><a xlink:href="sqlite__local__databasemanager_8h.html" target="_top" xlink:title="S:/QT_CREATOR/Locker\l_Control/sqlite_local\l_databasemanager.h">
<polygon fill="none" stroke="red" points="97.5,-0.5 97.5,-32.5 192.5,-32.5 192.5,-0.5 97.5,-0.5"/>
<text text-anchor="start" x="105.5" y="-22.9" font-family="Helvetica,sans-Serif" font-size="7.00">S:/QT_CREATOR/Locker</text>
<text text-anchor="start" x="105.5" y="-14.9" font-family="Helvetica,sans-Serif" font-size="7.00">_Control/sqlite_local</text>
<text text-anchor="middle" x="145" y="-6.9" font-family="Helvetica,sans-Serif" font-size="7.00">_databasemanager.h</text>
</a>
</g>
</g>
<!-- Node3&#45;&gt;Node6 -->
<g id="edge9" class="edge"><title>Node3&#45;&gt;Node6</title>
<path fill="none" stroke="midnightblue" d="M139.769,-120.31C137.561,-95.4624 137.76,-54.8819 140.366,-32.8701"/>
<polygon fill="midnightblue" stroke="midnightblue" points="136.322,-120.967 140.953,-130.496 143.275,-120.159 136.322,-120.967"/>
</g>
<!-- Node8 -->
<g id="node8" class="node"><title>Node8</title>
<g id="a_node8"><a xlink:href="main_8cpp.html" target="_top" xlink:title="S:/QT_CREATOR/Locker\l_Control/main.cpp">
<polygon fill="none" stroke="black" points="330.5,-69.5 330.5,-93.5 425.5,-93.5 425.5,-69.5 330.5,-69.5"/>
<text text-anchor="start" x="338.5" y="-83.9" font-family="Helvetica,sans-Serif" font-size="7.00">S:/QT_CREATOR/Locker</text>
<text text-anchor="middle" x="378" y="-75.9" font-family="Helvetica,sans-Serif" font-size="7.00">_Control/main.cpp</text>
</a>
</g>
</g>
<!-- Node3&#45;&gt;Node8 -->
<g id="edge10" class="edge"><title>Node3&#45;&gt;Node8</title>
<path fill="none" stroke="midnightblue" d="M198.407,-127.976C239.562,-117.555 295.759,-103.325 334.266,-93.5742"/>
<polygon fill="midnightblue" stroke="midnightblue" points="197.387,-124.624 188.552,-130.472 199.105,-131.41 197.387,-124.624"/>
</g>
<!-- Node5&#45;&gt;Node6 -->
<g id="edge5" class="edge"><title>Node5&#45;&gt;Node6</title>
<path fill="none" stroke="midnightblue" d="M214.691,-64.2452C197.789,-54.4582 177.802,-42.0838 163.476,-32.5257"/>
<polygon fill="midnightblue" stroke="midnightblue" points="213.286,-67.473 223.708,-69.3819 216.751,-61.3907 213.286,-67.473"/>
</g>
<!-- Node7 -->
<g id="node7" class="node"><title>Node7</title>
<g id="a_node7"><a xlink:href="thread__databasemanager_8cpp.html" target="_top" xlink:title="S:/QT_CREATOR/Locker\l_Control/thread_databasemanager.cpp">
<polygon fill="none" stroke="black" points="210.5,-4.5 210.5,-28.5 347.5,-28.5 347.5,-4.5 210.5,-4.5"/>
<text text-anchor="start" x="218.5" y="-18.9" font-family="Helvetica,sans-Serif" font-size="7.00">S:/QT_CREATOR/Locker</text>
<text text-anchor="middle" x="279" y="-10.9" font-family="Helvetica,sans-Serif" font-size="7.00">_Control/thread_databasemanager.cpp</text>
</a>
</g>
</g>
<!-- Node5&#45;&gt;Node7 -->
<g id="edge8" class="edge"><title>Node5&#45;&gt;Node7</title>
<path fill="none" stroke="midnightblue" d="M257.254,-60.3117C262.579,-49.8286 268.883,-37.4182 273.329,-28.6656"/>
<polygon fill="midnightblue" stroke="midnightblue" points="254.129,-58.736 252.721,-69.2369 260.37,-61.9061 254.129,-58.736"/>
</g>
<!-- Node6&#45;&gt;Node3 -->
<g id="edge6" class="edge"><title>Node6&#45;&gt;Node3</title>
<path fill="none" stroke="midnightblue" d="M150.585,-43.0841C152.545,-69.9714 152.032,-111.012 149.047,-130.496"/>
<polygon fill="midnightblue" stroke="midnightblue" points="154.046,-42.5026 149.634,-32.8701 147.076,-43.1515 154.046,-42.5026"/>
</g>
<!-- Node6&#45;&gt;Node5 -->
<g id="edge7" class="edge"><title>Node6&#45;&gt;Node5</title>
<path fill="none" stroke="midnightblue" d="M184.44,-37.9286C202.019,-48.3216 221.478,-60.5568 234.08,-69.2369"/>
<polygon fill="midnightblue" stroke="midnightblue" points="185.866,-34.7084 175.465,-32.6903 182.337,-40.754 185.866,-34.7084"/>
</g>
</g>
</svg>
