<?xml version="1.0" encoding="UTF-8" standalone="no"?>
<!DOCTYPE svg PUBLIC "-//W3C//DTD SVG 1.1//EN"
 "http://www.w3.org/Graphics/SVG/1.1/DTD/svg11.dtd">
<!-- Generated by graphviz version 2.38.0 (20140413.2041)
 -->
<!-- Title: S:/QT_CREATOR/Locker_Control/editsettingsystem.h Pages: 1 -->
<svg width="402pt" height="192pt"
 viewBox="0.00 0.00 402.00 192.00" xmlns="http://www.w3.org/2000/svg" xmlns:xlink="http://www.w3.org/1999/xlink">
<g id="graph0" class="graph" transform="scale(1 1) rotate(0) translate(4 188)">
<title>S:/QT_CREATOR/Locker_Control/editsettingsystem.h</title>
<!-- Node1 -->
<g id="node1" class="node"><title>Node1</title>
<polygon fill="#bfbfbf" stroke="black" points="101.5,-159.5 101.5,-183.5 208.5,-183.5 208.5,-159.5 101.5,-159.5"/>
<text text-anchor="start" x="109.5" y="-173.9" font-family="Helvetica,sans-Serif" font-size="7.00">S:/QT_CREATOR/Locker</text>
<text text-anchor="middle" x="155" y="-165.9" font-family="Helvetica,sans-Serif" font-size="7.00">_Control/editsettingsystem.h</text>
</g>
<!-- Node2 -->
<g id="node2" class="node"><title>Node2</title>
<polygon fill="none" stroke="#bfbfbf" points="0,-53.5 0,-69.5 44,-69.5 44,-53.5 0,-53.5"/>
<text text-anchor="middle" x="22" y="-59.9" font-family="Helvetica,sans-Serif" font-size="7.00">QWidget</text>
</g>
<!-- Node1&#45;&gt;Node2 -->
<g id="edge1" class="edge"><title>Node1&#45;&gt;Node2</title>
<path fill="none" stroke="midnightblue" d="M141.268,-159.349C116.7,-139.4 65.3175,-97.6751 38.733,-76.0877"/>
<polygon fill="midnightblue" stroke="midnightblue" points="40.7118,-73.186 30.7426,-69.5992 36.2992,-78.62 40.7118,-73.186"/>
</g>
<!-- Node3 -->
<g id="node3" class="node"><title>Node3</title>
<polygon fill="none" stroke="#bfbfbf" points="62.5,-53.5 62.5,-69.5 109.5,-69.5 109.5,-53.5 62.5,-53.5"/>
<text text-anchor="middle" x="86" y="-59.9" font-family="Helvetica,sans-Serif" font-size="7.00">QLineEdit</text>
</g>
<!-- Node1&#45;&gt;Node3 -->
<g id="edge2" class="edge"><title>Node1&#45;&gt;Node3</title>
<path fill="none" stroke="midnightblue" d="M147.876,-159.349C135.518,-140.007 110.083,-100.195 95.9753,-78.1135"/>
<polygon fill="midnightblue" stroke="midnightblue" points="98.869,-76.1418 90.5356,-69.5992 92.9701,-79.9106 98.869,-76.1418"/>
</g>
<!-- Node4 -->
<g id="node4" class="node"><title>Node4</title>
<polygon fill="none" stroke="#bfbfbf" points="238,-106.5 238,-122.5 312,-122.5 312,-106.5 238,-106.5"/>
<text text-anchor="middle" x="275" y="-112.9" font-family="Helvetica,sans-Serif" font-size="7.00">QRegExpValidator</text>
</g>
<!-- Node1&#45;&gt;Node4 -->
<g id="edge3" class="edge"><title>Node1&#45;&gt;Node4</title>
<path fill="none" stroke="midnightblue" d="M179.284,-159.37C199.976,-149.886 229.58,-136.317 250.371,-126.788"/>
<polygon fill="midnightblue" stroke="midnightblue" points="251.883,-129.945 259.516,-122.597 248.967,-123.582 251.883,-129.945"/>
</g>
<!-- Node5 -->
<g id="node5" class="node"><title>Node5</title>
<g id="a_node5"><a xlink:href="settingsystem_8h.html" target="_top" xlink:title="settingsystem.h">
<polygon fill="none" stroke="black" points="152,-106.5 152,-122.5 220,-122.5 220,-106.5 152,-106.5"/>
<text text-anchor="middle" x="186" y="-112.9" font-family="Helvetica,sans-Serif" font-size="7.00">settingsystem.h</text>
</a>
</g>
</g>
<!-- Node1&#45;&gt;Node5 -->
<g id="edge4" class="edge"><title>Node1&#45;&gt;Node5</title>
<path fill="none" stroke="midnightblue" d="M155.725,-159.37C158.966,-151.177 165.108,-139.937 171.198,-130.886"/>
<polygon fill="midnightblue" stroke="midnightblue" points="174.068,-132.891 177.161,-122.757 168.424,-128.75 174.068,-132.891"/>
</g>
<!-- Node6 -->
<g id="node6" class="node"><title>Node6</title>
<g id="a_node6"><a xlink:href="showwidgets_8h.html" target="_top" xlink:title="showwidgets.h">
<polygon fill="none" stroke="black" points="128,-53.5 128,-69.5 190,-69.5 190,-53.5 128,-53.5"/>
<text text-anchor="middle" x="159" y="-59.9" font-family="Helvetica,sans-Serif" font-size="7.00">showwidgets.h</text>
</a>
</g>
</g>
<!-- Node1&#45;&gt;Node6 -->
<g id="edge14" class="edge"><title>Node1&#45;&gt;Node6</title>
<path fill="none" stroke="midnightblue" d="M150.364,-159.092C145.715,-146.209 139.685,-124.615 143,-106 144.648,-96.746 148.123,-86.8801 151.415,-78.8875"/>
<polygon fill="midnightblue" stroke="midnightblue" points="154.648,-80.2316 155.468,-69.6686 148.24,-77.4144 154.648,-80.2316"/>
</g>
<!-- Node5&#45;&gt;Node1 -->
<g id="edge13" class="edge"><title>Node5&#45;&gt;Node1</title>
<path fill="none" stroke="midnightblue" d="M186.658,-122.757C184.437,-129.914 178.674,-141.171 172.508,-150.956"/>
<polygon fill="midnightblue" stroke="midnightblue" points="169.521,-149.125 166.822,-159.37 175.321,-153.044 169.521,-149.125"/>
</g>
<!-- Node5&#45;&gt;Node2 -->
<g id="edge5" class="edge"><title>Node5&#45;&gt;Node2</title>
<path fill="none" stroke="midnightblue" d="M163.197,-106.409C134.765,-97.5671 86.0028,-82.4033 53.8828,-72.4148"/>
<polygon fill="midnightblue" stroke="midnightblue" points="54.6741,-68.9956 44.0858,-69.3682 52.5954,-75.6798 54.6741,-68.9956"/>
</g>
<!-- Node5&#45;&gt;Node3 -->
<g id="edge6" class="edge"><title>Node5&#45;&gt;Node3</title>
<path fill="none" stroke="midnightblue" d="M172.095,-106.409C155.751,-98.0732 128.39,-84.1187 108.9,-74.1788"/>
<polygon fill="midnightblue" stroke="midnightblue" points="110.285,-70.9565 99.7865,-69.5311 107.105,-77.1923 110.285,-70.9565"/>
</g>
<!-- Node5&#45;&gt;Node6 -->
<g id="edge7" class="edge"><title>Node5&#45;&gt;Node6</title>
<path fill="none" stroke="midnightblue" d="M182.246,-106.409C178.458,-99.2531 172.477,-87.9567 167.531,-78.6139"/>
<polygon fill="midnightblue" stroke="midnightblue" points="170.495,-76.7314 162.722,-69.5311 164.308,-80.0066 170.495,-76.7314"/>
</g>
<!-- Node8 -->
<g id="node8" class="node"><title>Node8</title>
<g id="a_node8"><a xlink:href="customxml_8h.html" target="_top" xlink:title="customxml.h">
<polygon fill="none" stroke="red" points="208.5,-53.5 208.5,-69.5 265.5,-69.5 265.5,-53.5 208.5,-53.5"/>
<text text-anchor="middle" x="237" y="-59.9" font-family="Helvetica,sans-Serif" font-size="7.00">customxml.h</text>
</a>
</g>
</g>
<!-- Node5&#45;&gt;Node8 -->
<g id="edge9" class="edge"><title>Node5&#45;&gt;Node8</title>
<path fill="none" stroke="midnightblue" d="M193.091,-106.409C200.704,-98.7964 213.002,-86.4977 222.65,-76.8503"/>
<polygon fill="midnightblue" stroke="midnightblue" points="225.373,-79.0771 229.969,-69.5311 220.423,-74.1273 225.373,-79.0771"/>
</g>
<!-- Node9 -->
<g id="node9" class="node"><title>Node9</title>
<g id="a_node9"><a xlink:href="csqlite__local__db_8h.html" target="_top" xlink:title="csqlite_local_db.h">
<polygon fill="none" stroke="red" points="322,-53.5 322,-69.5 394,-69.5 394,-53.5 322,-53.5"/>
<text text-anchor="middle" x="358" y="-59.9" font-family="Helvetica,sans-Serif" font-size="7.00">csqlite_local_db.h</text>
</a>
</g>
</g>
<!-- Node5&#45;&gt;Node9 -->
<g id="edge10" class="edge"><title>Node5&#45;&gt;Node9</title>
<path fill="none" stroke="midnightblue" d="M209.916,-106.409C239.696,-97.5784 290.744,-82.4422 324.432,-72.4532"/>
<polygon fill="midnightblue" stroke="midnightblue" points="325.695,-75.7296 334.287,-69.5311 323.705,-69.0184 325.695,-75.7296"/>
</g>
<!-- Node10 -->
<g id="node10" class="node"><title>Node10</title>
<g id="a_node10"><a xlink:href="clms__db_8h.html" target="_top" xlink:title="clms_db.h">
<polygon fill="none" stroke="red" points="301.5,-0.5 301.5,-16.5 350.5,-16.5 350.5,-0.5 301.5,-0.5"/>
<text text-anchor="middle" x="326" y="-6.9" font-family="Helvetica,sans-Serif" font-size="7.00">clms_db.h</text>
</a>
</g>
</g>
<!-- Node5&#45;&gt;Node10 -->
<g id="edge12" class="edge"><title>Node5&#45;&gt;Node10</title>
<path fill="none" stroke="midnightblue" d="M206.084,-106.467C225.06,-99.2065 253.711,-86.6083 275,-70 291.386,-57.2169 306.215,-38.4146 315.606,-25.1711"/>
<polygon fill="midnightblue" stroke="midnightblue" points="318.662,-26.9034 321.427,-16.6758 312.887,-22.9468 318.662,-26.9034"/>
</g>
<!-- Node7 -->
<g id="node7" class="node"><title>Node7</title>
<polygon fill="none" stroke="#bfbfbf" points="124.5,-0.5 124.5,-16.5 193.5,-16.5 193.5,-0.5 124.5,-0.5"/>
<text text-anchor="middle" x="159" y="-6.9" font-family="Helvetica,sans-Serif" font-size="7.00">QStackedWidget</text>
</g>
<!-- Node6&#45;&gt;Node7 -->
<g id="edge8" class="edge"><title>Node6&#45;&gt;Node7</title>
<path fill="none" stroke="midnightblue" d="M159,-53.4087C159,-46.5576 159,-35.9106 159,-26.8167"/>
<polygon fill="midnightblue" stroke="midnightblue" points="162.5,-26.5311 159,-16.5311 155.5,-26.5311 162.5,-26.5311"/>
</g>
<!-- Node9&#45;&gt;Node10 -->
<g id="edge11" class="edge"><title>Node9&#45;&gt;Node10</title>
<path fill="none" stroke="midnightblue" d="M353.551,-53.4087C348.965,-46.1009 341.67,-34.4741 335.738,-25.0202"/>
<polygon fill="midnightblue" stroke="midnightblue" points="338.691,-23.1415 330.412,-16.5311 332.762,-26.862 338.691,-23.1415"/>
</g>
</g>
</svg>
