<?xml version="1.0" encoding="UTF-8" standalone="no"?>
<!DOCTYPE svg PUBLIC "-//W3C//DTD SVG 1.1//EN"
 "http://www.w3.org/Graphics/SVG/1.1/DTD/svg11.dtd">
<!-- Generated by graphviz version 2.38.0 (20140413.2041)
 -->
<!-- Title: S:/QT_CREATOR/Locker_Control/editsettingsystem.h Pages: 1 -->
<svg width="406pt" height="245pt"
 viewBox="0.00 0.00 405.64 245.00" xmlns="http://www.w3.org/2000/svg" xmlns:xlink="http://www.w3.org/1999/xlink">
<g id="graph0" class="graph" transform="scale(1 1) rotate(0) translate(4 241)">
<title>S:/QT_CREATOR/Locker_Control/editsettingsystem.h</title>
<!-- Node1 -->
<g id="node1" class="node"><title>Node1</title>
<polygon fill="#bfbfbf" stroke="black" points="125.5,-212.5 125.5,-236.5 232.5,-236.5 232.5,-212.5 125.5,-212.5"/>
<text text-anchor="start" x="133.5" y="-226.9" font-family="Helvetica,sans-Serif" font-size="7.00">S:/QT_CREATOR/Locker</text>
<text text-anchor="middle" x="179" y="-218.9" font-family="Helvetica,sans-Serif" font-size="7.00">_Control/editsettingsystem.h</text>
</g>
<!-- Node2 -->
<g id="node2" class="node"><title>Node2</title>
<polygon fill="none" stroke="#bfbfbf" points="0,-106.5 0,-122.5 44,-122.5 44,-106.5 0,-106.5"/>
<text text-anchor="middle" x="22" y="-112.9" font-family="Helvetica,sans-Serif" font-size="7.00">QWidget</text>
</g>
<!-- Node1&#45;&gt;Node2 -->
<g id="edge1" class="edge"><title>Node1&#45;&gt;Node2</title>
<path fill="none" stroke="midnightblue" d="M162.79,-212.349C133.537,-192.226 72.077,-149.948 40.9405,-128.529"/>
<polygon fill="midnightblue" stroke="midnightblue" points="42.5427,-125.383 32.3202,-122.599 38.5754,-131.15 42.5427,-125.383"/>
</g>
<!-- Node3 -->
<g id="node3" class="node"><title>Node3</title>
<polygon fill="none" stroke="#bfbfbf" points="62.5,-106.5 62.5,-122.5 109.5,-122.5 109.5,-106.5 62.5,-106.5"/>
<text text-anchor="middle" x="86" y="-112.9" font-family="Helvetica,sans-Serif" font-size="7.00">QLineEdit</text>
</g>
<!-- Node1&#45;&gt;Node3 -->
<g id="edge2" class="edge"><title>Node1&#45;&gt;Node3</title>
<path fill="none" stroke="midnightblue" d="M169.398,-212.349C152.518,-192.747 117.534,-152.12 98.6859,-130.232"/>
<polygon fill="midnightblue" stroke="midnightblue" points="101.291,-127.893 92.1132,-122.599 95.9863,-132.461 101.291,-127.893"/>
</g>
<!-- Node4 -->
<g id="node4" class="node"><title>Node4</title>
<polygon fill="none" stroke="#bfbfbf" points="262,-159.5 262,-175.5 336,-175.5 336,-159.5 262,-159.5"/>
<text text-anchor="middle" x="299" y="-165.9" font-family="Helvetica,sans-Serif" font-size="7.00">QRegExpValidator</text>
</g>
<!-- Node1&#45;&gt;Node4 -->
<g id="edge3" class="edge"><title>Node1&#45;&gt;Node4</title>
<path fill="none" stroke="midnightblue" d="M203.284,-212.37C223.976,-202.886 253.58,-189.317 274.371,-179.788"/>
<polygon fill="midnightblue" stroke="midnightblue" points="275.883,-182.945 283.516,-175.597 272.967,-176.582 275.883,-182.945"/>
</g>
<!-- Node5 -->
<g id="node5" class="node"><title>Node5</title>
<g id="a_node5"><a xlink:href="settingsystem_8h.html" target="_top" target="_top" xlink:title="settingsystem.h">
<polygon fill="none" stroke="black" points="176,-159.5 176,-175.5 244,-175.5 244,-159.5 176,-159.5"/>
<text text-anchor="middle" x="210" y="-165.9" font-family="Helvetica,sans-Serif" font-size="7.00">settingsystem.h</text>
</a>
</g>
</g>
<!-- Node1&#45;&gt;Node5 -->
<g id="edge4" class="edge"><title>Node1&#45;&gt;Node5</title>
<path fill="none" stroke="midnightblue" d="M179.725,-212.37C182.966,-204.177 189.108,-192.937 195.198,-183.886"/>
<polygon fill="midnightblue" stroke="midnightblue" points="198.068,-185.891 201.161,-175.757 192.424,-181.75 198.068,-185.891"/>
</g>
<!-- Node6 -->
<g id="node6" class="node"><title>Node6</title>
<g id="a_node6"><a xlink:href="showwidgets_8h.html" target="_top" target="_top" xlink:title="showwidgets.h">
<polygon fill="none" stroke="red" points="128,-106.5 128,-122.5 190,-122.5 190,-106.5 128,-106.5"/>
<text text-anchor="middle" x="159" y="-112.9" font-family="Helvetica,sans-Serif" font-size="7.00">showwidgets.h</text>
</a>
</g>
</g>
<!-- Node1&#45;&gt;Node6 -->
<g id="edge17" class="edge"><title>Node1&#45;&gt;Node6</title>
<path fill="none" stroke="midnightblue" d="M175.768,-212.258C173.11,-202.684 169.403,-188.53 167,-176 164.218,-161.491 162.093,-144.839 160.735,-132.682"/>
<polygon fill="midnightblue" stroke="midnightblue" points="164.203,-132.198 159.671,-122.622 157.242,-132.934 164.203,-132.198"/>
</g>
<!-- Node5&#45;&gt;Node1 -->
<g id="edge12" class="edge"><title>Node5&#45;&gt;Node1</title>
<path fill="none" stroke="midnightblue" d="M210.658,-175.757C208.437,-182.914 202.674,-194.171 196.508,-203.956"/>
<polygon fill="midnightblue" stroke="midnightblue" points="193.521,-202.125 190.822,-212.37 199.321,-206.044 193.521,-202.125"/>
</g>
<!-- Node5&#45;&gt;Node2 -->
<g id="edge5" class="edge"><title>Node5&#45;&gt;Node2</title>
<path fill="none" stroke="midnightblue" d="M183.859,-159.409C149.829,-150.177 90.3921,-134.053 53.7908,-124.124"/>
<polygon fill="midnightblue" stroke="midnightblue" points="54.6806,-120.739 44.113,-121.499 52.8478,-127.495 54.6806,-120.739"/>
</g>
<!-- Node5&#45;&gt;Node3 -->
<g id="edge6" class="edge"><title>Node5&#45;&gt;Node3</title>
<path fill="none" stroke="midnightblue" d="M192.758,-159.409C171.937,-150.845 136.694,-136.35 112.432,-126.371"/>
<polygon fill="midnightblue" stroke="midnightblue" points="113.675,-123.098 103.095,-122.531 111.012,-129.572 113.675,-123.098"/>
</g>
<!-- Node5&#45;&gt;Node6 -->
<g id="edge7" class="edge"><title>Node5&#45;&gt;Node6</title>
<path fill="none" stroke="midnightblue" d="M202.909,-159.409C195.296,-151.796 182.998,-139.498 173.35,-129.85"/>
<polygon fill="midnightblue" stroke="midnightblue" points="175.577,-127.127 166.031,-122.531 170.627,-132.077 175.577,-127.127"/>
</g>
<!-- Node7 -->
<g id="node7" class="node"><title>Node7</title>
<g id="a_node7"><a xlink:href="customxml_8h.html" target="_top" target="_top" xlink:title="customxml.h">
<polygon fill="none" stroke="red" points="192.5,-53.5 192.5,-69.5 249.5,-69.5 249.5,-53.5 192.5,-53.5"/>
<text text-anchor="middle" x="221" y="-59.9" font-family="Helvetica,sans-Serif" font-size="7.00">customxml.h</text>
</a>
</g>
</g>
<!-- Node5&#45;&gt;Node7 -->
<g id="edge8" class="edge"><title>Node5&#45;&gt;Node7</title>
<path fill="none" stroke="midnightblue" d="M210.756,-159.352C212.475,-143.098 216.718,-102.989 219.17,-79.8037"/>
<polygon fill="midnightblue" stroke="midnightblue" points="222.667,-80.0111 220.239,-69.6984 215.706,-79.2747 222.667,-80.0111"/>
</g>
<!-- Node8 -->
<g id="node8" class="node"><title>Node8</title>
<g id="a_node8"><a xlink:href="csqlite__local__db_8h.html" target="_top" target="_top" xlink:title="csqlite_local_db.h">
<polygon fill="none" stroke="red" points="312,-53.5 312,-69.5 384,-69.5 384,-53.5 312,-53.5"/>
<text text-anchor="middle" x="348" y="-59.9" font-family="Helvetica,sans-Serif" font-size="7.00">csqlite_local_db.h</text>
</a>
</g>
</g>
<!-- Node5&#45;&gt;Node8 -->
<g id="edge9" class="edge"><title>Node5&#45;&gt;Node8</title>
<path fill="none" stroke="midnightblue" d="M243.189,-159.443C277.121,-151.537 326.565,-137.865 339,-123 348.907,-111.157 350.464,-93.2489 349.959,-79.9867"/>
<polygon fill="midnightblue" stroke="midnightblue" points="353.43,-79.4859 349.144,-69.7971 346.453,-80.0445 353.43,-79.4859"/>
</g>
<!-- Node9 -->
<g id="node9" class="node"><title>Node9</title>
<g id="a_node9"><a xlink:href="clms__db_8h.html" target="_top" target="_top" xlink:title="clms_db.h">
<polygon fill="none" stroke="red" points="323.5,-0.5 323.5,-16.5 372.5,-16.5 372.5,-0.5 323.5,-0.5"/>
<text text-anchor="middle" x="348" y="-6.9" font-family="Helvetica,sans-Serif" font-size="7.00">clms_db.h</text>
</a>
</g>
</g>
<!-- Node5&#45;&gt;Node9 -->
<g id="edge11" class="edge"><title>Node5&#45;&gt;Node9</title>
<path fill="none" stroke="midnightblue" d="M243.101,-159.439C280.593,-150.975 338.84,-136.266 357,-123 385.249,-102.363 406.661,-85.2067 393,-53 387.802,-40.746 377.275,-30.259 367.709,-22.6537"/>
<polygon fill="midnightblue" stroke="midnightblue" points="369.501,-19.6266 359.374,-16.5115 365.348,-25.2617 369.501,-19.6266"/>
</g>
<!-- Node10 -->
<g id="node10" class="node"><title>Node10</title>
<g id="a_node10"><a xlink:href="threadsavedelivery_8h.html" target="_top" target="_top" xlink:title="threadsavedelivery.h">
<polygon fill="none" stroke="red" points="246.5,-106.5 246.5,-122.5 329.5,-122.5 329.5,-106.5 246.5,-106.5"/>
<text text-anchor="middle" x="288" y="-112.9" font-family="Helvetica,sans-Serif" font-size="7.00">threadsavedelivery.h</text>
</a>
</g>
</g>
<!-- Node5&#45;&gt;Node10 -->
<g id="edge13" class="edge"><title>Node5&#45;&gt;Node10</title>
<path fill="none" stroke="midnightblue" d="M220.846,-159.409C233.186,-151.34 253.581,-138.005 268.662,-128.144"/>
<polygon fill="midnightblue" stroke="midnightblue" points="270.792,-130.933 277.247,-122.531 266.961,-125.074 270.792,-130.933"/>
</g>
<!-- Node8&#45;&gt;Node9 -->
<g id="edge10" class="edge"><title>Node8&#45;&gt;Node9</title>
<path fill="none" stroke="midnightblue" d="M348,-53.4087C348,-46.5576 348,-35.9106 348,-26.8167"/>
<polygon fill="midnightblue" stroke="midnightblue" points="351.5,-26.5311 348,-16.5311 344.5,-26.5311 351.5,-26.5311"/>
</g>
<!-- Node10&#45;&gt;Node7 -->
<g id="edge16" class="edge"><title>Node10&#45;&gt;Node7</title>
<path fill="none" stroke="midnightblue" d="M278.684,-106.409C268.283,-98.4919 251.224,-85.5063 238.349,-75.7058"/>
<polygon fill="midnightblue" stroke="midnightblue" points="240.314,-72.803 230.237,-69.5311 236.074,-78.373 240.314,-72.803"/>
</g>
<!-- Node10&#45;&gt;Node8 -->
<g id="edge15" class="edge"><title>Node10&#45;&gt;Node8</title>
<path fill="none" stroke="midnightblue" d="M296.343,-106.409C305.477,-98.6442 320.348,-86.0039 331.794,-76.2747"/>
<polygon fill="midnightblue" stroke="midnightblue" points="334.375,-78.6744 339.728,-69.5311 329.842,-73.3408 334.375,-78.6744"/>
</g>
<!-- Node10&#45;&gt;Node9 -->
<g id="edge14" class="edge"><title>Node10&#45;&gt;Node9</title>
<path fill="none" stroke="midnightblue" d="M288.497,-106.315C289.587,-94.4753 292.952,-70.4405 303,-53 309.728,-41.3223 320.5,-30.7491 329.818,-22.9514"/>
<polygon fill="midnightblue" stroke="midnightblue" points="332.145,-25.5727 337.808,-16.6185 327.797,-20.0867 332.145,-25.5727"/>
</g>
</g>
</svg>
