<?xml version="1.0" encoding="UTF-8" standalone="no"?>
<!DOCTYPE svg PUBLIC "-//W3C//DTD SVG 1.1//EN"
 "http://www.w3.org/Graphics/SVG/1.1/DTD/svg11.dtd">
<!-- Generated by graphviz version 2.38.0 (20140413.2041)
 -->
<!-- Title: S:/QT_CREATOR/Locker_Control/editsettingsystem.cpp Pages: 1 -->
<svg width="364pt" height="192pt"
 viewBox="0.00 0.00 364.00 192.00" xmlns="http://www.w3.org/2000/svg" xmlns:xlink="http://www.w3.org/1999/xlink">
<g id="graph0" class="graph" transform="scale(1 1) rotate(0) translate(4 188)">
<title>S:/QT_CREATOR/Locker_Control/editsettingsystem.cpp</title>
<!-- Node1 -->
<g id="node1" class="node"><title>Node1</title>
<polygon fill="#bfbfbf" stroke="black" points="153.5,-159.5 153.5,-183.5 268.5,-183.5 268.5,-159.5 153.5,-159.5"/>
<text text-anchor="start" x="161.5" y="-173.9" font-family="Helvetica,sans-Serif" font-size="7.00">S:/QT_CREATOR/Locker</text>
<text text-anchor="middle" x="211" y="-165.9" font-family="Helvetica,sans-Serif" font-size="7.00">_Control/editsettingsystem.cpp</text>
</g>
<!-- Node2 -->
<g id="node2" class="node"><title>Node2</title>
<g id="a_node2"><a xlink:href="editsettingsystem_8h.html" target="_top" xlink:title="editsettingsystem.h">
<polygon fill="none" stroke="black" points="120.5,-106.5 120.5,-122.5 199.5,-122.5 199.5,-106.5 120.5,-106.5"/>
<text text-anchor="middle" x="160" y="-112.9" font-family="Helvetica,sans-Serif" font-size="7.00">editsettingsystem.h</text>
</a>
</g>
</g>
<!-- Node1&#45;&gt;Node2 -->
<g id="edge1" class="edge"><title>Node1&#45;&gt;Node2</title>
<path fill="none" stroke="midnightblue" d="M200.679,-159.37C192.924,-151.007 182.225,-139.468 173.745,-130.323"/>
<polygon fill="midnightblue" stroke="midnightblue" points="176.096,-127.71 166.73,-122.757 170.963,-132.47 176.096,-127.71"/>
</g>
<!-- Node10 -->
<g id="node10" class="node"><title>Node10</title>
<polygon fill="none" stroke="#bfbfbf" points="218,-106.5 218,-122.5 306,-122.5 306,-106.5 218,-106.5"/>
<text text-anchor="middle" x="262" y="-112.9" font-family="Helvetica,sans-Serif" font-size="7.00">ui_editsettingsystem.h</text>
</g>
<!-- Node1&#45;&gt;Node10 -->
<g id="edge13" class="edge"><title>Node1&#45;&gt;Node10</title>
<path fill="none" stroke="midnightblue" d="M221.321,-159.37C229.076,-151.007 239.775,-139.468 248.255,-130.323"/>
<polygon fill="midnightblue" stroke="midnightblue" points="251.037,-132.47 255.27,-122.757 245.904,-127.71 251.037,-132.47"/>
</g>
<!-- Node3 -->
<g id="node3" class="node"><title>Node3</title>
<polygon fill="none" stroke="#bfbfbf" points="0,-0.5 0,-16.5 44,-16.5 44,-0.5 0,-0.5"/>
<text text-anchor="middle" x="22" y="-6.9" font-family="Helvetica,sans-Serif" font-size="7.00">QWidget</text>
</g>
<!-- Node2&#45;&gt;Node3 -->
<g id="edge2" class="edge"><title>Node2&#45;&gt;Node3</title>
<path fill="none" stroke="midnightblue" d="M150.515,-106.352C127.668,-89.1337 69.2951,-45.1427 39.7307,-22.8623"/>
<polygon fill="midnightblue" stroke="midnightblue" points="41.6443,-19.9218 31.5517,-16.6984 37.4313,-25.512 41.6443,-19.9218"/>
</g>
<!-- Node4 -->
<g id="node4" class="node"><title>Node4</title>
<polygon fill="none" stroke="#bfbfbf" points="62.5,-0.5 62.5,-16.5 109.5,-16.5 109.5,-0.5 62.5,-0.5"/>
<text text-anchor="middle" x="86" y="-6.9" font-family="Helvetica,sans-Serif" font-size="7.00">QLineEdit</text>
</g>
<!-- Node2&#45;&gt;Node4 -->
<g id="edge3" class="edge"><title>Node2&#45;&gt;Node4</title>
<path fill="none" stroke="midnightblue" d="M151.626,-106.446C142.348,-98.3305 127.336,-84.2792 117,-70 106.944,-56.1078 98.3158,-38.4937 92.7347,-25.859"/>
<polygon fill="midnightblue" stroke="midnightblue" points="95.9344,-24.4395 88.7987,-16.6081 89.4932,-27.1801 95.9344,-24.4395"/>
</g>
<!-- Node5 -->
<g id="node5" class="node"><title>Node5</title>
<polygon fill="none" stroke="#bfbfbf" points="250,-53.5 250,-69.5 324,-69.5 324,-53.5 250,-53.5"/>
<text text-anchor="middle" x="287" y="-59.9" font-family="Helvetica,sans-Serif" font-size="7.00">QRegExpValidator</text>
</g>
<!-- Node2&#45;&gt;Node5 -->
<g id="edge4" class="edge"><title>Node2&#45;&gt;Node5</title>
<path fill="none" stroke="midnightblue" d="M177.659,-106.409C198.984,-97.8449 235.08,-83.3498 259.929,-73.3711"/>
<polygon fill="midnightblue" stroke="midnightblue" points="261.516,-76.5056 269.491,-69.5311 258.907,-70.0098 261.516,-76.5056"/>
</g>
<!-- Node6 -->
<g id="node6" class="node"><title>Node6</title>
<g id="a_node6"><a xlink:href="settingsystem_8h.html" target="_top" xlink:title="settingsystem.h">
<polygon fill="none" stroke="red" points="126,-53.5 126,-69.5 194,-69.5 194,-53.5 126,-53.5"/>
<text text-anchor="middle" x="160" y="-59.9" font-family="Helvetica,sans-Serif" font-size="7.00">settingsystem.h</text>
</a>
</g>
</g>
<!-- Node2&#45;&gt;Node6 -->
<g id="edge5" class="edge"><title>Node2&#45;&gt;Node6</title>
<path fill="none" stroke="midnightblue" d="M155.155,-106.409C153.345,-99.4815 152.825,-88.6735 153.594,-79.5142"/>
<polygon fill="midnightblue" stroke="midnightblue" points="157.068,-79.9548 155.171,-69.5311 150.153,-78.8625 157.068,-79.9548"/>
</g>
<!-- Node7 -->
<g id="node7" class="node"><title>Node7</title>
<g id="a_node7"><a xlink:href="showwidgets_8h.html" target="_top" xlink:title="showwidgets.h">
<polygon fill="none" stroke="red" points="294,-0.5 294,-16.5 356,-16.5 356,-0.5 294,-0.5"/>
<text text-anchor="middle" x="325" y="-6.9" font-family="Helvetica,sans-Serif" font-size="7.00">showwidgets.h</text>
</a>
</g>
</g>
<!-- Node2&#45;&gt;Node7 -->
<g id="edge12" class="edge"><title>Node2&#45;&gt;Node7</title>
<path fill="none" stroke="midnightblue" d="M168.651,-106.291C183.111,-94.4163 213.334,-70.3327 241,-53 260.196,-40.9738 283.091,-29.2791 300.127,-21.0497"/>
<polygon fill="midnightblue" stroke="midnightblue" points="301.886,-24.0889 309.408,-16.6285 298.875,-17.7693 301.886,-24.0889"/>
</g>
<!-- Node6&#45;&gt;Node2 -->
<g id="edge11" class="edge"><title>Node6&#45;&gt;Node2</title>
<path fill="none" stroke="midnightblue" d="M164.829,-69.5311C166.646,-76.4357 167.174,-87.2371 166.413,-96.406"/>
<polygon fill="midnightblue" stroke="midnightblue" points="162.936,-95.9873 164.845,-106.409 169.851,-97.0713 162.936,-95.9873"/>
</g>
<!-- Node6&#45;&gt;Node3 -->
<g id="edge6" class="edge"><title>Node6&#45;&gt;Node3</title>
<path fill="none" stroke="midnightblue" d="M140.812,-53.4087C117.433,-44.7688 77.7186,-30.0917 50.6988,-20.1061"/>
<polygon fill="midnightblue" stroke="midnightblue" points="51.6186,-16.7147 41.0253,-16.5311 49.192,-23.2807 51.6186,-16.7147"/>
</g>
<!-- Node6&#45;&gt;Node4 -->
<g id="edge7" class="edge"><title>Node6&#45;&gt;Node4</title>
<path fill="none" stroke="midnightblue" d="M149.711,-53.4087C138.113,-45.4158 119.019,-32.2561 104.752,-22.424"/>
<polygon fill="midnightblue" stroke="midnightblue" points="106.422,-19.324 96.202,-16.5311 102.45,-25.0878 106.422,-19.324"/>
</g>
<!-- Node6&#45;&gt;Node7 -->
<g id="edge8" class="edge"><title>Node6&#45;&gt;Node7</title>
<path fill="none" stroke="midnightblue" d="M182.943,-53.4087C211.388,-44.6165 260.059,-29.5725 292.38,-19.5827"/>
<polygon fill="midnightblue" stroke="midnightblue" points="293.732,-22.8281 302.252,-16.5311 291.665,-16.1403 293.732,-22.8281"/>
</g>
<!-- Node8 -->
<g id="node8" class="node"><title>Node8</title>
<g id="a_node8"><a xlink:href="customxml_8h.html" target="_top" xlink:title="customxml.h">
<polygon fill="none" stroke="red" points="218.5,-0.5 218.5,-16.5 275.5,-16.5 275.5,-0.5 218.5,-0.5"/>
<text text-anchor="middle" x="247" y="-6.9" font-family="Helvetica,sans-Serif" font-size="7.00">customxml.h</text>
</a>
</g>
</g>
<!-- Node6&#45;&gt;Node8 -->
<g id="edge9" class="edge"><title>Node6&#45;&gt;Node8</title>
<path fill="none" stroke="midnightblue" d="M172.097,-53.4087C186.121,-45.1874 209.471,-31.4999 226.377,-21.5896"/>
<polygon fill="midnightblue" stroke="midnightblue" points="228.149,-24.6078 235.006,-16.5311 224.609,-18.5689 228.149,-24.6078"/>
</g>
<!-- Node9 -->
<g id="node9" class="node"><title>Node9</title>
<g id="a_node9"><a xlink:href="csqlite__local__db_8h.html" target="_top" xlink:title="csqlite_local_db.h">
<polygon fill="none" stroke="red" points="128,-0.5 128,-16.5 200,-16.5 200,-0.5 128,-0.5"/>
<text text-anchor="middle" x="164" y="-6.9" font-family="Helvetica,sans-Serif" font-size="7.00">csqlite_local_db.h</text>
</a>
</g>
</g>
<!-- Node6&#45;&gt;Node9 -->
<g id="edge10" class="edge"><title>Node6&#45;&gt;Node9</title>
<path fill="none" stroke="midnightblue" d="M160.556,-53.4087C161.099,-46.4815 161.947,-35.6735 162.666,-26.5142"/>
<polygon fill="midnightblue" stroke="midnightblue" points="166.156,-26.7742 163.449,-16.5311 159.177,-26.2268 166.156,-26.7742"/>
</g>
</g>
</svg>
