<?xml version="1.0" encoding="UTF-8" standalone="no"?>
<!DOCTYPE svg PUBLIC "-//W3C//DTD SVG 1.1//EN"
 "http://www.w3.org/Graphics/SVG/1.1/DTD/svg11.dtd">
<!-- Generated by graphviz version 2.38.0 (20140413.2041)
 -->
<!-- Title: Légende du graphe Pages: 1 -->
<svg width="420pt" height="144pt"
 viewBox="0.00 0.00 420.00 144.00" xmlns="http://www.w3.org/2000/svg" xmlns:xlink="http://www.w3.org/1999/xlink">
<g id="graph0" class="graph" transform="scale(1 1) rotate(0) translate(4 140)">
<title>Légende du graphe</title>
<!-- Node9 -->
<g id="node1" class="node"><title>Node9</title>
<polygon fill="#bfbfbf" stroke="black" points="238.5,-16 194.5,-16 194.5,-0 238.5,-0 238.5,-16"/>
<text text-anchor="middle" x="216.5" y="-6.4" font-family="Helvetica,sans-Serif" font-size="7.00">Inherited</text>
</g>
<!-- Node10 -->
<g id="node2" class="node"><title>Node10</title>
<g id="a_node2"><a xlink:href="$classPublicBase.html" xlink:title="PublicBase">
<polygon fill="none" stroke="black" points="51,-76 0,-76 0,-60 51,-60 51,-76"/>
<text text-anchor="middle" x="25.5" y="-66.4" font-family="Helvetica,sans-Serif" font-size="7.00">PublicBase</text>
</a>
</g>
</g>
<!-- Node10&#45;&gt;Node9 -->
<g id="edge1" class="edge"><title>Node10&#45;&gt;Node9</title>
<path fill="none" stroke="midnightblue" d="M58.7279,-56.9098C97.6425,-45.0929 161.016,-25.8486 194.368,-15.7206"/>
<polygon fill="midnightblue" stroke="midnightblue" points="57.4719,-53.6334 48.9203,-59.8881 59.5059,-60.3314 57.4719,-53.6334"/>
</g>
<!-- Node11 -->
<g id="node3" class="node"><title>Node11</title>
<g id="a_node3"><a xlink:href="$classTruncated.html" xlink:title="Truncated">
<polygon fill="none" stroke="red" points="49,-136 2,-136 2,-120 49,-120 49,-136"/>
<text text-anchor="middle" x="25.5" y="-126.4" font-family="Helvetica,sans-Serif" font-size="7.00">Truncated</text>
</a>
</g>
</g>
<!-- Node11&#45;&gt;Node10 -->
<g id="edge2" class="edge"><title>Node11&#45;&gt;Node10</title>
<path fill="none" stroke="midnightblue" d="M25.5,-109.579C25.5,-98.3936 25.5,-84.4585 25.5,-76.1701"/>
<polygon fill="midnightblue" stroke="midnightblue" points="22.0001,-109.888 25.5,-119.888 29.0001,-109.888 22.0001,-109.888"/>
</g>
<!-- Node13 -->
<g id="node4" class="node"><title>Node13</title>
<g id="a_node4"><a xlink:href="$classProtectedBase.html" xlink:title="ProtectedBase">
<polygon fill="none" stroke="black" points="131.5,-76 69.5,-76 69.5,-60 131.5,-60 131.5,-76"/>
<text text-anchor="middle" x="100.5" y="-66.4" font-family="Helvetica,sans-Serif" font-size="7.00">ProtectedBase</text>
</a>
</g>
</g>
<!-- Node13&#45;&gt;Node9 -->
<g id="edge3" class="edge"><title>Node13&#45;&gt;Node9</title>
<path fill="none" stroke="darkgreen" d="M123.957,-55.2716C147.376,-43.5618 182.617,-25.9417 202.16,-16.1701"/>
<polygon fill="darkgreen" stroke="darkgreen" points="122.103,-52.2854 114.724,-59.8881 125.233,-58.5464 122.103,-52.2854"/>
</g>
<!-- Node14 -->
<g id="node5" class="node"><title>Node14</title>
<g id="a_node5"><a xlink:href="$classPrivateBase.html" xlink:title="PrivateBase">
<polygon fill="none" stroke="black" points="205,-76 150,-76 150,-60 205,-60 205,-76"/>
<text text-anchor="middle" x="177.5" y="-66.4" font-family="Helvetica,sans-Serif" font-size="7.00">PrivateBase</text>
</a>
</g>
</g>
<!-- Node14&#45;&gt;Node9 -->
<g id="edge4" class="edge"><title>Node14&#45;&gt;Node9</title>
<path fill="none" stroke="#8b1a1a" d="M188.043,-51.3211C195.738,-39.8762 205.812,-24.8947 211.679,-16.1701"/>
<polygon fill="#8b1a1a" stroke="#8b1a1a" points="184.958,-49.6366 182.282,-59.8881 190.767,-53.5426 184.958,-49.6366"/>
</g>
<!-- Node15 -->
<g id="node6" class="node"><title>Node15</title>
<polygon fill="none" stroke="#bfbfbf" points="287.5,-76 223.5,-76 223.5,-60 287.5,-60 287.5,-76"/>
<text text-anchor="middle" x="255.5" y="-66.4" font-family="Helvetica,sans-Serif" font-size="7.00">Undocumented</text>
</g>
<!-- Node15&#45;&gt;Node9 -->
<g id="edge5" class="edge"><title>Node15&#45;&gt;Node9</title>
<path fill="none" stroke="midnightblue" d="M244.957,-51.3211C237.262,-39.8762 227.188,-24.8947 221.321,-16.1701"/>
<polygon fill="midnightblue" stroke="midnightblue" points="242.233,-53.5426 250.718,-59.8881 248.042,-49.6366 242.233,-53.5426"/>
</g>
<!-- Node16 -->
<g id="node7" class="node"><title>Node16</title>
<g id="a_node7"><a xlink:href="$classTempl.html" xlink:title="Templ&lt; int &gt;">
<polygon fill="none" stroke="black" points="361,-76 306,-76 306,-60 361,-60 361,-76"/>
<text text-anchor="middle" x="333.5" y="-66.4" font-family="Helvetica,sans-Serif" font-size="7.00">Templ&lt; int &gt;</text>
</a>
</g>
</g>
<!-- Node16&#45;&gt;Node9 -->
<g id="edge6" class="edge"><title>Node16&#45;&gt;Node9</title>
<path fill="none" stroke="midnightblue" d="M310.157,-55.428C286.537,-43.7193 250.763,-25.9853 230.964,-16.1701"/>
<polygon fill="midnightblue" stroke="midnightblue" points="308.639,-58.5824 319.154,-59.8881 311.748,-52.3107 308.639,-58.5824"/>
</g>
<!-- Node17 -->
<g id="node8" class="node"><title>Node17</title>
<g id="a_node8"><a xlink:href="$classTempl.html" xlink:title="Templ&lt; T &gt;">
<polygon fill="none" stroke="black" points="359,-136 308,-136 308,-120 359,-120 359,-136"/>
<text text-anchor="middle" x="333.5" y="-126.4" font-family="Helvetica,sans-Serif" font-size="7.00">Templ&lt; T &gt;</text>
</a>
</g>
</g>
<!-- Node17&#45;&gt;Node16 -->
<g id="edge7" class="edge"><title>Node17&#45;&gt;Node16</title>
<path fill="none" stroke="orange" stroke-dasharray="5,2" d="M333.5,-109.579C333.5,-98.3936 333.5,-84.4585 333.5,-76.1701"/>
<polygon fill="orange" stroke="orange" points="330,-109.888 333.5,-119.888 337,-109.888 330,-109.888"/>
<text text-anchor="middle" x="343.5" y="-96.4" font-family="Helvetica,sans-Serif" font-size="7.00">&lt; int &gt;</text>
</g>
<!-- Node18 -->
<g id="node9" class="node"><title>Node18</title>
<g id="a_node9"><a xlink:href="$classUsed.html" xlink:title="Used">
<polygon fill="none" stroke="black" points="412,-76 379,-76 379,-60 412,-60 412,-76"/>
<text text-anchor="middle" x="395.5" y="-66.4" font-family="Helvetica,sans-Serif" font-size="7.00">Used</text>
</a>
</g>
</g>
<!-- Node18&#45;&gt;Node9 -->
<g id="edge8" class="edge"><title>Node18&#45;&gt;Node9</title>
<path fill="none" stroke="#9a32cd" stroke-dasharray="5,2" d="M369.328,-58.5198C333.863,-47.0284 271.194,-26.722 238.203,-16.0323"/>
<polygon fill="#9a32cd" stroke="#9a32cd" points="368.389,-61.8945 378.981,-61.6475 370.547,-55.2354 368.389,-61.8945"/>
<text text-anchor="middle" x="339" y="-36.4" font-family="Helvetica,sans-Serif" font-size="7.00">m_usedClass</text>
</g>
</g>
</svg>
