<?xml version="1.0" encoding="UTF-8" standalone="no"?>
<!DOCTYPE svg PUBLIC "-//W3C//DTD SVG 1.1//EN"
 "http://www.w3.org/Graphics/SVG/1.1/DTD/svg11.dtd">
<!-- Generated by graphviz version 2.38.0 (20140413.2041)
 -->
<!-- Title: Graphe hiérarchique des classes Pages: 1 -->
<svg width="185pt" height="208pt"
 viewBox="0.00 0.00 185.00 208.00" xmlns="http://www.w3.org/2000/svg" xmlns:xlink="http://www.w3.org/1999/xlink">
<g id="graph0" class="graph" transform="scale(1 1) rotate(0) translate(4 204)">
<title>Graphe hiérarchique des classes</title>
<!-- Node1 -->
<g id="node1" class="node"><title>Node1</title>
<polygon fill="none" stroke="#bfbfbf" points="0,-89.5 0,-105.5 43,-105.5 43,-89.5 0,-89.5"/>
<text text-anchor="middle" x="21.5" y="-95.9" font-family="Helvetica,sans-Serif" font-size="7.00">QThread</text>
</g>
<!-- Node2 -->
<g id="node2" class="node"><title>Node2</title>
<g id="a_node2"><a xlink:href="class_thread___databasemanager.html" target="_top" xlink:title="classe Thread_Databasemanager, hérite de QThread pour effectuer le traitement sur la base de données ...">
<polygon fill="none" stroke="black" points="79,-183.5 79,-199.5 177,-199.5 177,-183.5 79,-183.5"/>
<text text-anchor="middle" x="128" y="-189.9" font-family="Helvetica,sans-Serif" font-size="7.00">Thread_Databasemanager</text>
</a>
</g>
</g>
<!-- Node1&#45;&gt;Node2 -->
<g id="edge1" class="edge"><title>Node1&#45;&gt;Node2</title>
<path fill="none" stroke="midnightblue" d="M31.3042,-115.025C40.8548,-132.391 57.6398,-158.627 79,-174.5 83.9671,-178.191 89.8067,-181.135 95.6702,-183.464"/>
<polygon fill="midnightblue" stroke="midnightblue" points="34.2929,-113.189 26.5371,-105.971 28.099,-116.45 34.2929,-113.189"/>
</g>
<!-- Node3 -->
<g id="node3" class="node"><title>Node3</title>
<g id="a_node3"><a xlink:href="class_thread__linphonec.html" target="_top" xlink:title="Thread_linphonec">
<polygon fill="none" stroke="black" points="92.5,-148.5 92.5,-164.5 163.5,-164.5 163.5,-148.5 92.5,-148.5"/>
<text text-anchor="middle" x="128" y="-154.9" font-family="Helvetica,sans-Serif" font-size="7.00">Thread_linphonec</text>
</a>
</g>
</g>
<!-- Node1&#45;&gt;Node3 -->
<g id="edge2" class="edge"><title>Node1&#45;&gt;Node3</title>
<path fill="none" stroke="midnightblue" d="M39.2681,-112.061C50.0625,-120.887 64.7028,-131.878 79,-139.5 85.4749,-142.952 92.7969,-145.953 99.7361,-148.432"/>
<polygon fill="midnightblue" stroke="midnightblue" points="41.4249,-109.302 31.5157,-105.552 36.9238,-114.663 41.4249,-109.302"/>
</g>
<!-- Node4 -->
<g id="node4" class="node"><title>Node4</title>
<g id="a_node4"><a xlink:href="class_thread___local_database___auto_save.html" target="_top" xlink:title="classe Thread_LocalDatabase_AutoSave, hérite de QThread pour effectuer la sauvegarde de la base de do...">
<polygon fill="none" stroke="black" points="84,-105.5 84,-129.5 172,-129.5 172,-105.5 84,-105.5"/>
<text text-anchor="start" x="92" y="-119.9" font-family="Helvetica,sans-Serif" font-size="7.00">Thread_LocalDatabase</text>
<text text-anchor="middle" x="128" y="-111.9" font-family="Helvetica,sans-Serif" font-size="7.00">_AutoSave</text>
</a>
</g>
</g>
<!-- Node1&#45;&gt;Node4 -->
<g id="edge3" class="edge"><title>Node1&#45;&gt;Node4</title>
<path fill="none" stroke="midnightblue" d="M53.0676,-103.35C62.7191,-105.197 73.5705,-107.274 83.9256,-109.256"/>
<polygon fill="midnightblue" stroke="midnightblue" points="53.6255,-99.8936 43.1458,-101.451 52.3096,-106.769 53.6255,-99.8936"/>
</g>
<!-- Node5 -->
<g id="node5" class="node"><title>Node5</title>
<g id="a_node5"><a xlink:href="class_thread___status_doors.html" target="_top" xlink:title="Header de la classe Thread_StatusDoors. ">
<polygon fill="none" stroke="black" points="88,-70.5 88,-86.5 168,-86.5 168,-70.5 88,-70.5"/>
<text text-anchor="middle" x="128" y="-76.9" font-family="Helvetica,sans-Serif" font-size="7.00">Thread_StatusDoors</text>
</a>
</g>
</g>
<!-- Node1&#45;&gt;Node5 -->
<g id="edge4" class="edge"><title>Node1&#45;&gt;Node5</title>
<path fill="none" stroke="midnightblue" d="M53.0204,-91.9508C63.8902,-89.9745 76.2867,-87.7206 87.7838,-85.6302"/>
<polygon fill="midnightblue" stroke="midnightblue" points="52.3584,-88.5137 43.1458,-93.7462 53.6107,-95.4008 52.3584,-88.5137"/>
</g>
<!-- Node6 -->
<g id="node6" class="node"><title>Node6</title>
<g id="a_node6"><a xlink:href="class_thread_delete_extract_code.html" target="_top" xlink:title="Header de la classe ThreadDeleteExtractCode. ">
<polygon fill="none" stroke="black" points="79.5,-35.5 79.5,-51.5 176.5,-51.5 176.5,-35.5 79.5,-35.5"/>
<text text-anchor="middle" x="128" y="-41.9" font-family="Helvetica,sans-Serif" font-size="7.00">ThreadDeleteExtractCode</text>
</a>
</g>
</g>
<!-- Node1&#45;&gt;Node6 -->
<g id="edge5" class="edge"><title>Node1&#45;&gt;Node6</title>
<path fill="none" stroke="midnightblue" d="M42.2468,-83.4806C52.8328,-76.3394 66.2833,-67.8487 79,-61.5 86.4851,-57.7632 94.945,-54.3437 102.655,-51.5124"/>
<polygon fill="midnightblue" stroke="midnightblue" points="40.0199,-80.7646 33.7718,-89.3209 43.992,-86.5285 40.0199,-80.7646"/>
</g>
<!-- Node7 -->
<g id="node7" class="node"><title>Node7</title>
<g id="a_node7"><a xlink:href="class_thread_save_delivery.html" target="_top" xlink:title="Header de la classe ThreadSaveDelivery. ">
<polygon fill="none" stroke="black" points="87.5,-0.5 87.5,-16.5 168.5,-16.5 168.5,-0.5 87.5,-0.5"/>
<text text-anchor="middle" x="128" y="-6.9" font-family="Helvetica,sans-Serif" font-size="7.00">ThreadSaveDelivery</text>
</a>
</g>
</g>
<!-- Node1&#45;&gt;Node7 -->
<g id="edge6" class="edge"><title>Node1&#45;&gt;Node7</title>
<path fill="none" stroke="midnightblue" d="M32.274,-80.4882C42.2052,-64.5562 58.953,-41.0768 79,-26.5 84.6146,-22.4174 91.2639,-19.1517 97.7961,-16.5839"/>
<polygon fill="midnightblue" stroke="midnightblue" points="29.1402,-78.9087 27.0028,-89.2857 35.1449,-82.5065 29.1402,-78.9087"/>
</g>
</g>
</svg>
