<?xml version="1.0" encoding="UTF-8" standalone="no"?>
<!DOCTYPE svg PUBLIC "-//W3C//DTD SVG 1.1//EN"
 "http://www.w3.org/Graphics/SVG/1.1/DTD/svg11.dtd">
<!-- Generated by graphviz version 2.38.0 (20140413.2041)
 -->
<!-- Title: Graphe hiérarchique des classes Pages: 1 -->
<svg width="206pt" height="620pt"
 viewBox="0.00 0.00 206.00 620.00" xmlns="http://www.w3.org/2000/svg" xmlns:xlink="http://www.w3.org/1999/xlink">
<g id="graph0" class="graph" transform="scale(1 1) rotate(0) translate(4 616)">
<title>Graphe hiérarchique des classes</title>
<!-- Node1 -->
<g id="node1" class="node"><title>Node1</title>
<polygon fill="none" stroke="#bfbfbf" points="0,-297.5 0,-313.5 44,-313.5 44,-297.5 0,-297.5"/>
<text text-anchor="middle" x="22" y="-303.9" font-family="Helvetica,sans-Serif" font-size="7.00">QWidget</text>
</g>
<!-- Node2 -->
<g id="node2" class="node"><title>Node2</title>
<g id="a_node2"><a xlink:href="class_assistance.html" target="_top" xlink:title="Assistance">
<polygon fill="none" stroke="black" points="113.5,-595.5 113.5,-611.5 164.5,-611.5 164.5,-595.5 113.5,-595.5"/>
<text text-anchor="middle" x="139" y="-601.9" font-family="Helvetica,sans-Serif" font-size="7.00">Assistance</text>
</a>
</g>
</g>
<!-- Node1&#45;&gt;Node2 -->
<g id="edge1" class="edge"><title>Node1&#45;&gt;Node2</title>
<path fill="none" stroke="midnightblue" d="M24.2856,-323.794C28.5829,-379.814 44.2421,-547.566 80,-586.5 88.5174,-595.774 101.794,-600.089 113.496,-602.056"/>
<polygon fill="midnightblue" stroke="midnightblue" points="27.7617,-323.339 23.538,-313.622 20.7805,-323.852 27.7617,-323.339"/>
</g>
<!-- Node3 -->
<g id="node3" class="node"><title>Node3</title>
<g id="a_node3"><a xlink:href="class_box_choice.html" target="_top" xlink:title="Definition de la classe BoxChoice. ">
<polygon fill="none" stroke="black" points="114,-560.5 114,-576.5 164,-576.5 164,-560.5 114,-560.5"/>
<text text-anchor="middle" x="139" y="-566.9" font-family="Helvetica,sans-Serif" font-size="7.00">BoxChoice</text>
</a>
</g>
</g>
<!-- Node1&#45;&gt;Node3 -->
<g id="edge2" class="edge"><title>Node1&#45;&gt;Node3</title>
<path fill="none" stroke="midnightblue" d="M24.8617,-323.812C30.4247,-375.026 48.5183,-518.156 80,-551.5 88.7164,-560.732 102.151,-565.035 113.895,-567.005"/>
<polygon fill="midnightblue" stroke="midnightblue" points="28.3159,-323.192 23.7894,-313.613 21.3543,-323.924 28.3159,-323.192"/>
</g>
<!-- Node4 -->
<g id="node4" class="node"><title>Node4</title>
<g id="a_node4"><a xlink:href="class_customer.html" target="_top" xlink:title="Header de la classe Customer. ">
<polygon fill="none" stroke="black" points="115.5,-525.5 115.5,-541.5 162.5,-541.5 162.5,-525.5 115.5,-525.5"/>
<text text-anchor="middle" x="139" y="-531.9" font-family="Helvetica,sans-Serif" font-size="7.00">Customer</text>
</a>
</g>
</g>
<!-- Node1&#45;&gt;Node4 -->
<g id="edge3" class="edge"><title>Node1&#45;&gt;Node4</title>
<path fill="none" stroke="midnightblue" d="M22.3668,-323.738C21.996,-364.234 26.9773,-462.337 80,-516.5 89.2489,-525.948 103.444,-530.214 115.475,-532.11"/>
<polygon fill="midnightblue" stroke="midnightblue" points="25.8662,-323.801 22.5849,-313.727 18.8678,-323.649 25.8662,-323.801"/>
</g>
<!-- Node5 -->
<g id="node5" class="node"><title>Node5</title>
<g id="a_node5"><a xlink:href="class_delivery_confirm.html" target="_top" xlink:title="Header de la classe DeliveryConfirm. ">
<polygon fill="none" stroke="black" points="104.5,-490.5 104.5,-506.5 173.5,-506.5 173.5,-490.5 104.5,-490.5"/>
<text text-anchor="middle" x="139" y="-496.9" font-family="Helvetica,sans-Serif" font-size="7.00">DeliveryConfirm</text>
</a>
</g>
</g>
<!-- Node1&#45;&gt;Node5 -->
<g id="edge4" class="edge"><title>Node1&#45;&gt;Node5</title>
<path fill="none" stroke="midnightblue" d="M23.5476,-323.792C25.6211,-359.337 35.3121,-438.05 80,-481.5 86.6204,-487.937 95.5428,-491.957 104.402,-494.462"/>
<polygon fill="midnightblue" stroke="midnightblue" points="27.0314,-323.343 23.0969,-313.506 20.0381,-323.649 27.0314,-323.343"/>
</g>
<!-- Node6 -->
<g id="node6" class="node"><title>Node6</title>
<g id="a_node6"><a xlink:href="class_doors_manager.html" target="_top" xlink:title="classe DoorsManager, hérite de QWidget pour la gestion de l&#39;IHM. La classe DoorsManager permet à l&#39;ut...">
<polygon fill="none" stroke="black" points="108,-455.5 108,-471.5 170,-471.5 170,-455.5 108,-455.5"/>
<text text-anchor="middle" x="139" y="-461.9" font-family="Helvetica,sans-Serif" font-size="7.00">DoorsManager</text>
</a>
</g>
</g>
<!-- Node1&#45;&gt;Node6 -->
<g id="edge5" class="edge"><title>Node1&#45;&gt;Node6</title>
<path fill="none" stroke="midnightblue" d="M25.2685,-323.835C29.9621,-353.864 43.5432,-413.487 80,-446.5 87.6224,-453.402 97.9085,-457.511 107.702,-459.954"/>
<polygon fill="midnightblue" stroke="midnightblue" points="28.685,-322.992 23.8365,-313.572 21.7522,-323.96 28.685,-322.992"/>
</g>
<!-- Node7 -->
<g id="node7" class="node"><title>Node7</title>
<g id="a_node7"><a xlink:href="class_edit_setting_system.html" target="_top" xlink:title="Header de la classe EditSettingSystem. ">
<polygon fill="none" stroke="black" points="101.5,-420.5 101.5,-436.5 176.5,-436.5 176.5,-420.5 101.5,-420.5"/>
<text text-anchor="middle" x="139" y="-426.9" font-family="Helvetica,sans-Serif" font-size="7.00">EditSettingSystem</text>
</a>
</g>
</g>
<!-- Node1&#45;&gt;Node7 -->
<g id="edge6" class="edge"><title>Node1&#45;&gt;Node7</title>
<path fill="none" stroke="midnightblue" d="M27.8377,-323.256C35.1849,-346.872 51.4166,-388.326 80,-411.5 86.1946,-416.522 93.8229,-420.061 101.488,-422.554"/>
<polygon fill="midnightblue" stroke="midnightblue" points="31.159,-322.143 25.0016,-313.521 24.4384,-324.101 31.159,-322.143"/>
</g>
<!-- Node8 -->
<g id="node8" class="node"><title>Node8</title>
<g id="a_node8"><a xlink:href="class_key_board.html" target="_top" xlink:title="Header de la classe KeyBoard. ">
<polygon fill="none" stroke="black" points="115.5,-385.5 115.5,-401.5 162.5,-401.5 162.5,-385.5 115.5,-385.5"/>
<text text-anchor="middle" x="139" y="-391.9" font-family="Helvetica,sans-Serif" font-size="7.00">KeyBoard</text>
</a>
</g>
</g>
<!-- Node1&#45;&gt;Node8 -->
<g id="edge7" class="edge"><title>Node1&#45;&gt;Node8</title>
<path fill="none" stroke="midnightblue" d="M32.6617,-322.844C42.5356,-339.018 59.3294,-362.668 80,-376.5 90.552,-383.561 104.087,-387.745 115.427,-390.194"/>
<polygon fill="midnightblue" stroke="midnightblue" points="35.5004,-320.764 27.4352,-313.894 29.4556,-324.294 35.5004,-320.764"/>
</g>
<!-- Node9 -->
<g id="node9" class="node"><title>Node9</title>
<g id="a_node9"><a xlink:href="class_login.html" target="_top" xlink:title="Header de la classe Login. ">
<polygon fill="none" stroke="black" points="122.5,-350.5 122.5,-366.5 155.5,-366.5 155.5,-350.5 122.5,-350.5"/>
<text text-anchor="middle" x="139" y="-356.9" font-family="Helvetica,sans-Serif" font-size="7.00">Login</text>
</a>
</g>
</g>
<!-- Node1&#45;&gt;Node9 -->
<g id="edge8" class="edge"><title>Node1&#45;&gt;Node9</title>
<path fill="none" stroke="midnightblue" d="M42.0274,-319.402C52.7641,-326.754 66.6665,-335.478 80,-341.5 93.7707,-347.719 110.401,-352.321 122.317,-355.157"/>
<polygon fill="midnightblue" stroke="midnightblue" points="44.0278,-316.53 33.8351,-313.639 40.0001,-322.255 44.0278,-316.53"/>
</g>
<!-- Node10 -->
<g id="node10" class="node"><title>Node10</title>
<g id="a_node10"><a xlink:href="class_maintenance_menu.html" target="_top" xlink:title="classe MaintenanceMenu, Gestion du menu de maintenance de Locker Control &#160;Projet Locker Control sur g...">
<polygon fill="none" stroke="black" points="103,-315.5 103,-331.5 175,-331.5 175,-315.5 103,-315.5"/>
<text text-anchor="middle" x="139" y="-321.9" font-family="Helvetica,sans-Serif" font-size="7.00">MaintenanceMenu</text>
</a>
</g>
</g>
<!-- Node1&#45;&gt;Node10 -->
<g id="edge9" class="edge"><title>Node1&#45;&gt;Node10</title>
<path fill="none" stroke="midnightblue" d="M54.3515,-310.407C69.2722,-312.743 87.1776,-315.545 102.587,-317.957"/>
<polygon fill="midnightblue" stroke="midnightblue" points="54.5137,-306.89 44.0928,-308.801 53.4312,-313.806 54.5137,-306.89"/>
</g>
<!-- Node11 -->
<g id="node11" class="node"><title>Node11</title>
<g id="a_node11"><a xlink:href="class_menu_delivery.html" target="_top" xlink:title="Header de la classe MenuDelivery. ">
<polygon fill="none" stroke="black" points="109,-280.5 109,-296.5 169,-296.5 169,-280.5 109,-280.5"/>
<text text-anchor="middle" x="139" y="-286.9" font-family="Helvetica,sans-Serif" font-size="7.00">MenuDelivery</text>
</a>
</g>
</g>
<!-- Node1&#45;&gt;Node11 -->
<g id="edge10" class="edge"><title>Node1&#45;&gt;Node11</title>
<path fill="none" stroke="midnightblue" d="M54.1103,-300.901C71.1347,-298.384 92.1004,-295.285 108.813,-292.815"/>
<polygon fill="midnightblue" stroke="midnightblue" points="53.4734,-297.457 44.0928,-302.382 54.4971,-304.382 53.4734,-297.457"/>
</g>
<!-- Node12 -->
<g id="node12" class="node"><title>Node12</title>
<g id="a_node12"><a xlink:href="class_open_empty_box.html" target="_top" xlink:title="Header de la classe OpenEmptyBox. ">
<polygon fill="none" stroke="black" points="106,-245.5 106,-261.5 172,-261.5 172,-245.5 106,-245.5"/>
<text text-anchor="middle" x="139" y="-251.9" font-family="Helvetica,sans-Serif" font-size="7.00">OpenEmptyBox</text>
</a>
</g>
</g>
<!-- Node1&#45;&gt;Node12 -->
<g id="edge11" class="edge"><title>Node1&#45;&gt;Node12</title>
<path fill="none" stroke="midnightblue" d="M43.3024,-291.786C53.9117,-285.039 67.302,-277.161 80,-271.5 88.6666,-267.636 98.4081,-264.264 107.398,-261.516"/>
<polygon fill="midnightblue" stroke="midnightblue" points="41.2481,-288.947 34.7822,-297.34 45.0708,-294.811 41.2481,-288.947"/>
</g>
<!-- Node13 -->
<g id="node13" class="node"><title>Node13</title>
<g id="a_node13"><a xlink:href="class_scan_package.html" target="_top" xlink:title="Header de la classe ScanPackage. ">
<polygon fill="none" stroke="black" points="109.5,-210.5 109.5,-226.5 168.5,-226.5 168.5,-210.5 109.5,-210.5"/>
<text text-anchor="middle" x="139" y="-216.9" font-family="Helvetica,sans-Serif" font-size="7.00">ScanPackage</text>
</a>
</g>
</g>
<!-- Node1&#45;&gt;Node13 -->
<g id="edge12" class="edge"><title>Node1&#45;&gt;Node13</title>
<path fill="none" stroke="midnightblue" d="M32.824,-288.722C42.8165,-273.059 59.6938,-250.115 80,-236.5 88.7571,-230.629 99.5228,-226.598 109.392,-223.865"/>
<polygon fill="midnightblue" stroke="midnightblue" points="29.7573,-287.028 27.5229,-297.384 35.7281,-290.682 29.7573,-287.028"/>
</g>
<!-- Node14 -->
<g id="node14" class="node"><title>Node14</title>
<g id="a_node14"><a xlink:href="class_setting.html" target="_top" xlink:title="Header de la classe Setting. ">
<polygon fill="none" stroke="black" points="120,-175.5 120,-191.5 158,-191.5 158,-175.5 120,-175.5"/>
<text text-anchor="middle" x="139" y="-181.9" font-family="Helvetica,sans-Serif" font-size="7.00">Setting</text>
</a>
</g>
</g>
<!-- Node1&#45;&gt;Node14 -->
<g id="edge13" class="edge"><title>Node1&#45;&gt;Node14</title>
<path fill="none" stroke="midnightblue" d="M28.0969,-287.799C35.6625,-264.641 52.0611,-224.333 80,-201.5 91.3475,-192.226 107.472,-187.716 119.84,-185.531"/>
<polygon fill="midnightblue" stroke="midnightblue" points="24.7465,-286.787 25.1563,-297.374 31.438,-288.842 24.7465,-286.787"/>
</g>
<!-- Node15 -->
<g id="node15" class="node"><title>Node15</title>
<g id="a_node15"><a xlink:href="class_setting_system.html" target="_top" xlink:title="Header de la classe SettingSystem. ">
<polygon fill="none" stroke="black" points="107.5,-140.5 107.5,-156.5 170.5,-156.5 170.5,-140.5 107.5,-140.5"/>
<text text-anchor="middle" x="139" y="-146.9" font-family="Helvetica,sans-Serif" font-size="7.00">SettingSystem</text>
</a>
</g>
</g>
<!-- Node1&#45;&gt;Node15 -->
<g id="edge14" class="edge"><title>Node1&#45;&gt;Node15</title>
<path fill="none" stroke="midnightblue" d="M25.4769,-287.061C30.4323,-257.408 44.3339,-199.15 80,-166.5 87.5434,-159.594 97.6974,-155.338 107.401,-152.714"/>
<polygon fill="midnightblue" stroke="midnightblue" points="21.9736,-286.822 23.9465,-297.231 28.8957,-287.864 21.9736,-286.822"/>
</g>
<!-- Node16 -->
<g id="node16" class="node"><title>Node16</title>
<g id="a_node16"><a xlink:href="class_show_package_box.html" target="_top" xlink:title="ShowPackageBox">
<polygon fill="none" stroke="black" points="103,-105.5 103,-121.5 175,-121.5 175,-105.5 103,-105.5"/>
<text text-anchor="middle" x="139" y="-111.9" font-family="Helvetica,sans-Serif" font-size="7.00">ShowPackageBox</text>
</a>
</g>
</g>
<!-- Node1&#45;&gt;Node16 -->
<g id="edge15" class="edge"><title>Node1&#45;&gt;Node16</title>
<path fill="none" stroke="midnightblue" d="M23.7078,-286.983C26.0671,-251.712 36.2433,-174.577 80,-131.5 86.236,-125.361 94.5252,-121.31 102.881,-118.64"/>
<polygon fill="midnightblue" stroke="midnightblue" points="20.199,-287.06 23.1701,-297.23 27.1894,-287.427 20.199,-287.06"/>
</g>
<!-- Node17 -->
<g id="node17" class="node"><title>Node17</title>
<g id="a_node17"><a xlink:href="class_site_config_manager.html" target="_top" xlink:title="SiteConfigManager">
<polygon fill="none" stroke="black" points="101,-70.5 101,-86.5 177,-86.5 177,-70.5 101,-70.5"/>
<text text-anchor="middle" x="139" y="-76.9" font-family="Helvetica,sans-Serif" font-size="7.00">SiteConfigManager</text>
</a>
</g>
</g>
<!-- Node1&#45;&gt;Node17 -->
<g id="edge16" class="edge"><title>Node1&#45;&gt;Node17</title>
<path fill="none" stroke="midnightblue" d="M22.4861,-287.233C22.3838,-247.077 27.918,-150.42 80,-96.5 85.6401,-90.6609 93.1346,-86.7059 100.858,-84.0299"/>
<polygon fill="midnightblue" stroke="midnightblue" points="18.9887,-287.432 22.6418,-297.377 25.9878,-287.324 18.9887,-287.432"/>
</g>
<!-- Node18 -->
<g id="node18" class="node"><title>Node18</title>
<g id="a_node18"><a xlink:href="class_s_q_lite___local___database_manager.html" target="_top" xlink:title="classe SQLite_Local_DatabaseManager, gestion des actions et interractions entre l&#39;interface de mainte...">
<polygon fill="none" stroke="black" points="80,-35.5 80,-51.5 198,-51.5 198,-35.5 80,-35.5"/>
<text text-anchor="middle" x="139" y="-41.9" font-family="Helvetica,sans-Serif" font-size="7.00">SQLite_Local_DatabaseManager</text>
</a>
</g>
</g>
<!-- Node1&#45;&gt;Node18 -->
<g id="edge17" class="edge"><title>Node1&#45;&gt;Node18</title>
<path fill="none" stroke="midnightblue" d="M24.9094,-287.36C30.5984,-236.624 48.9935,-94.8043 80,-61.5 83.9513,-57.2559 88.882,-54.0045 94.1887,-51.5153"/>
<polygon fill="midnightblue" stroke="midnightblue" points="21.4123,-287.144 23.8113,-297.464 28.3713,-287.9 21.4123,-287.144"/>
</g>
<!-- Node19 -->
<g id="node19" class="node"><title>Node19</title>
<g id="a_node19"><a xlink:href="class_stow_packages.html" target="_top" xlink:title="Header de la classe StowPackages. ">
<polygon fill="none" stroke="black" points="108,-0.5 108,-16.5 170,-16.5 170,-0.5 108,-0.5"/>
<text text-anchor="middle" x="139" y="-6.9" font-family="Helvetica,sans-Serif" font-size="7.00">StowPackages</text>
</a>
</g>
</g>
<!-- Node1&#45;&gt;Node19 -->
<g id="edge18" class="edge"><title>Node1&#45;&gt;Node19</title>
<path fill="none" stroke="midnightblue" d="M24.3312,-287.36C28.7614,-231.805 44.7659,-65.4224 80,-26.5 87.1464,-18.6055 97.6818,-14.1385 107.82,-11.6233"/>
<polygon fill="midnightblue" stroke="midnightblue" points="20.8327,-287.208 23.5588,-297.446 27.8122,-287.743 20.8327,-287.208"/>
</g>
</g>
</svg>
