<?xml version="1.0" encoding="UTF-8" standalone="no"?>
<!DOCTYPE svg PUBLIC "-//W3C//DTD SVG 1.1//EN"
 "http://www.w3.org/Graphics/SVG/1.1/DTD/svg11.dtd">
<!-- Generated by graphviz version 2.38.0 (20140413.2041)
 -->
<!-- Title: Graphe hiérarchique des classes Pages: 1 -->
<svg width="200pt" height="60pt"
 viewBox="0.00 0.00 200.00 60.00" xmlns="http://www.w3.org/2000/svg" xmlns:xlink="http://www.w3.org/1999/xlink">
<g id="graph0" class="graph" transform="scale(1 1) rotate(0) translate(4 56)">
<title>Graphe hiérarchique des classes</title>
<!-- Node1 -->
<g id="node1" class="node"><title>Node1</title>
<polygon fill="none" stroke="#bfbfbf" points="0,-35.5 0,-51.5 79,-51.5 79,-35.5 0,-35.5"/>
<text text-anchor="middle" x="39.5" y="-41.9" font-family="Helvetica,sans-Serif" font-size="7.00">QGraphicsRectItem</text>
</g>
<!-- Node2 -->
<g id="node2" class="node"><title>Node2</title>
<g id="a_node2"><a xlink:href="classdraw_box.html" target="_top" xlink:title="drawBox">
<polygon fill="none" stroke="black" points="132,-35.5 132,-51.5 175,-51.5 175,-35.5 132,-35.5"/>
<text text-anchor="middle" x="153.5" y="-41.9" font-family="Helvetica,sans-Serif" font-size="7.00">drawBox</text>
</a>
</g>
</g>
<!-- Node1&#45;&gt;Node2 -->
<g id="edge1" class="edge"><title>Node1&#45;&gt;Node2</title>
<path fill="none" stroke="midnightblue" d="M89.2297,-43.5C104.182,-43.5 119.838,-43.5 131.835,-43.5"/>
<polygon fill="midnightblue" stroke="midnightblue" points="89.0441,-40.0001 79.044,-43.5 89.044,-47.0001 89.0441,-40.0001"/>
</g>
<!-- Node3 -->
<g id="node3" class="node"><title>Node3</title>
<polygon fill="none" stroke="#bfbfbf" points="18.5,-0.5 18.5,-16.5 60.5,-16.5 60.5,-0.5 18.5,-0.5"/>
<text text-anchor="middle" x="39.5" y="-6.9" font-family="Helvetica,sans-Serif" font-size="7.00">QObject</text>
</g>
<!-- Node3&#45;&gt;Node2 -->
<g id="edge3" class="edge"><title>Node3&#45;&gt;Node2</title>
<path fill="none" stroke="midnightblue" d="M70.131,-17.7597C89.5971,-23.8429 114.572,-31.6474 131.892,-37.0601"/>
<polygon fill="midnightblue" stroke="midnightblue" points="71.1121,-14.3994 60.5234,-14.7573 69.0242,-21.0808 71.1121,-14.3994"/>
</g>
<!-- Node4 -->
<g id="node4" class="node"><title>Node4</title>
<g id="a_node4"><a xlink:href="class_c_s_q_lite___local___d_b.html" target="_top" xlink:title="classe CSQLite_Local_DB, gestion des communications entre une base de données locale de type SQLite...">
<polygon fill="none" stroke="black" points="115,-0.5 115,-16.5 192,-16.5 192,-0.5 115,-0.5"/>
<text text-anchor="middle" x="153.5" y="-6.9" font-family="Helvetica,sans-Serif" font-size="7.00">CSQLite_Local_DB</text>
</a>
</g>
</g>
<!-- Node3&#45;&gt;Node4 -->
<g id="edge2" class="edge"><title>Node3&#45;&gt;Node4</title>
<path fill="none" stroke="midnightblue" d="M70.8029,-8.5C84.4176,-8.5 100.62,-8.5 114.991,-8.5"/>
<polygon fill="midnightblue" stroke="midnightblue" points="70.5234,-5.0001 60.5234,-8.5 70.5233,-12.0001 70.5234,-5.0001"/>
</g>
</g>
</svg>
