<?xml version="1.0" encoding="UTF-8" standalone="no"?>
<!DOCTYPE svg PUBLIC "-//W3C//DTD SVG 1.1//EN"
 "http://www.w3.org/Graphics/SVG/1.1/DTD/svg11.dtd">
<!-- Generated by graphviz version 2.38.0 (20140413.2041)
 -->
<!-- Title: Graphe hiérarchique des classes Pages: 1 -->
<svg width="185pt" height="173pt"
 viewBox="0.00 0.00 185.00 173.00" xmlns="http://www.w3.org/2000/svg" xmlns:xlink="http://www.w3.org/1999/xlink">
<g id="graph0" class="graph" transform="scale(1 1) rotate(0) translate(4 169)">
<title>Graphe hiérarchique des classes</title>
<!-- Node1 -->
<g id="node1" class="node"><title>Node1</title>
<polygon fill="none" stroke="#bfbfbf" points="0,-70.5 0,-86.5 43,-86.5 43,-70.5 0,-70.5"/>
<text text-anchor="middle" x="21.5" y="-76.9" font-family="Helvetica,sans-Serif" font-size="7.00">QThread</text>
</g>
<!-- Node2 -->
<g id="node2" class="node"><title>Node2</title>
<g id="a_node2"><a xlink:href="class_thread___databasemanager.html" target="_top" xlink:title="classe Thread_Databasemanager, hérite de QThread pour effectuer le traitement sur la base de données ...">
<polygon fill="none" stroke="black" points="79,-148.5 79,-164.5 177,-164.5 177,-148.5 79,-148.5"/>
<text text-anchor="middle" x="128" y="-154.9" font-family="Helvetica,sans-Serif" font-size="7.00">Thread_Databasemanager</text>
</a>
</g>
</g>
<!-- Node1&#45;&gt;Node2 -->
<g id="edge1" class="edge"><title>Node1&#45;&gt;Node2</title>
<path fill="none" stroke="midnightblue" d="M34.3394,-95.2282C44.7322,-108.826 60.9728,-127.637 79,-139.5 84.5387,-143.145 90.9519,-146.113 97.2519,-148.489"/>
<polygon fill="midnightblue" stroke="midnightblue" points="36.8774,-92.7723 28.1286,-86.7966 31.2414,-96.9238 36.8774,-92.7723"/>
</g>
<!-- Node3 -->
<g id="node3" class="node"><title>Node3</title>
<g id="a_node3"><a xlink:href="class_thread___local_database___auto_save.html" target="_top" xlink:title="classe Thread_LocalDatabase_AutoSave, hérite de QThread pour effectuer la sauvegarde de la base de do...">
<polygon fill="none" stroke="black" points="84,-105.5 84,-129.5 172,-129.5 172,-105.5 84,-105.5"/>
<text text-anchor="start" x="92" y="-119.9" font-family="Helvetica,sans-Serif" font-size="7.00">Thread_LocalDatabase</text>
<text text-anchor="middle" x="128" y="-111.9" font-family="Helvetica,sans-Serif" font-size="7.00">_AutoSave</text>
</a>
</g>
</g>
<!-- Node1&#45;&gt;Node3 -->
<g id="edge2" class="edge"><title>Node1&#45;&gt;Node3</title>
<path fill="none" stroke="midnightblue" d="M52.6472,-89.7511C65.7437,-94.6388 81.1116,-100.374 94.4659,-105.358"/>
<polygon fill="midnightblue" stroke="midnightblue" points="53.7384,-86.4226 43.1458,-86.2051 51.2909,-92.9808 53.7384,-86.4226"/>
</g>
<!-- Node4 -->
<g id="node4" class="node"><title>Node4</title>
<g id="a_node4"><a xlink:href="class_thread___status_doors.html" target="_top" xlink:title="Thread_StatusDoors">
<polygon fill="none" stroke="black" points="88,-70.5 88,-86.5 168,-86.5 168,-70.5 88,-70.5"/>
<text text-anchor="middle" x="128" y="-76.9" font-family="Helvetica,sans-Serif" font-size="7.00">Thread_StatusDoors</text>
</a>
</g>
</g>
<!-- Node1&#45;&gt;Node4 -->
<g id="edge3" class="edge"><title>Node1&#45;&gt;Node4</title>
<path fill="none" stroke="midnightblue" d="M53.3571,-78.5C64.1457,-78.5 76.4052,-78.5 87.7838,-78.5"/>
<polygon fill="midnightblue" stroke="midnightblue" points="53.1459,-75.0001 43.1458,-78.5 53.1458,-82.0001 53.1459,-75.0001"/>
</g>
<!-- Node5 -->
<g id="node5" class="node"><title>Node5</title>
<g id="a_node5"><a xlink:href="class_thread_delete_extract_code.html" target="_top" xlink:title="ThreadDeleteExtractCode">
<polygon fill="none" stroke="black" points="79.5,-35.5 79.5,-51.5 176.5,-51.5 176.5,-35.5 79.5,-35.5"/>
<text text-anchor="middle" x="128" y="-41.9" font-family="Helvetica,sans-Serif" font-size="7.00">ThreadDeleteExtractCode</text>
</a>
</g>
</g>
<!-- Node1&#45;&gt;Node5 -->
<g id="edge4" class="edge"><title>Node1&#45;&gt;Node5</title>
<path fill="none" stroke="midnightblue" d="M53.077,-68.2589C69.0297,-62.9159 88.2584,-56.4756 103.105,-51.503"/>
<polygon fill="midnightblue" stroke="midnightblue" points="51.5165,-65.0904 43.1458,-71.5851 53.7397,-71.728 51.5165,-65.0904"/>
</g>
<!-- Node6 -->
<g id="node6" class="node"><title>Node6</title>
<g id="a_node6"><a xlink:href="class_thread_save_delivery.html" target="_top" xlink:title="ThreadSaveDelivery">
<polygon fill="none" stroke="black" points="87.5,-0.5 87.5,-16.5 168.5,-16.5 168.5,-0.5 87.5,-0.5"/>
<text text-anchor="middle" x="128" y="-6.9" font-family="Helvetica,sans-Serif" font-size="7.00">ThreadSaveDelivery</text>
</a>
</g>
</g>
<!-- Node1&#45;&gt;Node6 -->
<g id="edge5" class="edge"><title>Node1&#45;&gt;Node6</title>
<path fill="none" stroke="midnightblue" d="M36.2625,-62.9423C46.9834,-51.5908 62.7349,-36.5027 79,-26.5 85.444,-22.5371 92.9005,-19.2214 99.9867,-16.56"/>
<polygon fill="midnightblue" stroke="midnightblue" points="33.5848,-60.6839 29.4098,-70.4215 38.746,-65.4128 33.5848,-60.6839"/>
</g>
</g>
</svg>
