<?xml version="1.0" encoding="UTF-8" standalone="no"?>
<!DOCTYPE svg PUBLIC "-//W3C//DTD SVG 1.1//EN"
 "http://www.w3.org/Graphics/SVG/1.1/DTD/svg11.dtd">
<!-- Generated by graphviz version 2.38.0 (20140413.2041)
 -->
<!-- Title: S:/QT_CREATOR/Locker_Control/keyboard.cpp Pages: 1 -->
<svg width="170pt" height="139pt"
 viewBox="0.00 0.00 169.50 139.00" xmlns="http://www.w3.org/2000/svg" xmlns:xlink="http://www.w3.org/1999/xlink">
<g id="graph0" class="graph" transform="scale(1 1) rotate(0) translate(4 135)">
<title>S:/QT_CREATOR/Locker_Control/keyboard.cpp</title>
<!-- Node1 -->
<g id="node1" class="node"><title>Node1</title>
<polygon fill="#bfbfbf" stroke="black" points="45.5,-106.5 45.5,-130.5 140.5,-130.5 140.5,-106.5 45.5,-106.5"/>
<text text-anchor="start" x="53.5" y="-120.9" font-family="Helvetica,sans-Serif" font-size="7.00">S:/QT_CREATOR/Locker</text>
<text text-anchor="middle" x="93" y="-112.9" font-family="Helvetica,sans-Serif" font-size="7.00">_Control/keyboard.cpp</text>
</g>
<!-- Node2 -->
<g id="node2" class="node"><title>Node2</title>
<g id="a_node2"><a xlink:href="keyboard_8h.html" target="_top" xlink:title="keyboard.h">
<polygon fill="none" stroke="black" points="30,-53.5 30,-69.5 82,-69.5 82,-53.5 30,-53.5"/>
<text text-anchor="middle" x="56" y="-59.9" font-family="Helvetica,sans-Serif" font-size="7.00">keyboard.h</text>
</a>
</g>
</g>
<!-- Node1&#45;&gt;Node2 -->
<g id="edge1" class="edge"><title>Node1&#45;&gt;Node2</title>
<path fill="none" stroke="midnightblue" d="M85.5125,-106.37C80.0586,-98.2627 72.597,-87.1712 66.5411,-78.1693"/>
<polygon fill="midnightblue" stroke="midnightblue" points="69.3681,-76.1011 60.8823,-69.7575 63.5601,-80.0083 69.3681,-76.1011"/>
</g>
<!-- Node5 -->
<g id="node5" class="node"><title>Node5</title>
<polygon fill="none" stroke="#bfbfbf" points="100.5,-53.5 100.5,-69.5 161.5,-69.5 161.5,-53.5 100.5,-53.5"/>
<text text-anchor="middle" x="131" y="-59.9" font-family="Helvetica,sans-Serif" font-size="7.00">ui_keyboard.h</text>
</g>
<!-- Node1&#45;&gt;Node5 -->
<g id="edge4" class="edge"><title>Node1&#45;&gt;Node5</title>
<path fill="none" stroke="midnightblue" d="M100.69,-106.37C106.291,-98.2627 113.954,-87.1712 120.174,-78.1693"/>
<polygon fill="midnightblue" stroke="midnightblue" points="123.181,-79.9743 125.986,-69.7575 117.422,-75.9953 123.181,-79.9743"/>
</g>
<!-- Node3 -->
<g id="node3" class="node"><title>Node3</title>
<polygon fill="none" stroke="#bfbfbf" points="0,-0.5 0,-16.5 44,-16.5 44,-0.5 0,-0.5"/>
<text text-anchor="middle" x="22" y="-6.9" font-family="Helvetica,sans-Serif" font-size="7.00">QWidget</text>
</g>
<!-- Node2&#45;&gt;Node3 -->
<g id="edge2" class="edge"><title>Node2&#45;&gt;Node3</title>
<path fill="none" stroke="midnightblue" d="M51.2724,-53.4087C46.4006,-46.1009 38.6494,-34.4741 32.3468,-25.0202"/>
<polygon fill="midnightblue" stroke="midnightblue" points="35.1466,-22.9102 26.6874,-16.5311 29.3223,-26.7931 35.1466,-22.9102"/>
</g>
<!-- Node4 -->
<g id="node4" class="node"><title>Node4</title>
<polygon fill="none" stroke="#bfbfbf" points="62,-0.5 62,-16.5 120,-16.5 120,-0.5 62,-0.5"/>
<text text-anchor="middle" x="91" y="-6.9" font-family="Helvetica,sans-Serif" font-size="7.00">QPushButton</text>
</g>
<!-- Node2&#45;&gt;Node4 -->
<g id="edge3" class="edge"><title>Node2&#45;&gt;Node4</title>
<path fill="none" stroke="midnightblue" d="M60.8666,-53.4087C65.8817,-46.1009 73.8609,-34.4741 80.3489,-25.0202"/>
<polygon fill="midnightblue" stroke="midnightblue" points="83.4021,-26.7567 86.1747,-16.5311 77.6305,-22.7958 83.4021,-26.7567"/>
</g>
</g>
</svg>
