<?xml version="1.0" encoding="UTF-8" standalone="no"?>
<!DOCTYPE svg PUBLIC "-//W3C//DTD SVG 1.1//EN"
 "http://www.w3.org/Graphics/SVG/1.1/DTD/svg11.dtd">
<!-- Generated by graphviz version 2.38.0 (20140413.2041)
 -->
<!-- Title: S:/QT_CREATOR/Locker_Control/keyboard.h Pages: 1 -->
<svg width="128pt" height="86pt"
 viewBox="0.00 0.00 128.00 86.00" xmlns="http://www.w3.org/2000/svg" xmlns:xlink="http://www.w3.org/1999/xlink">
<g id="graph0" class="graph" transform="scale(1 1) rotate(0) translate(4 82)">
<title>S:/QT_CREATOR/Locker_Control/keyboard.h</title>
<!-- Node1 -->
<g id="node1" class="node"><title>Node1</title>
<polygon fill="#bfbfbf" stroke="black" points="8.5,-53.5 8.5,-77.5 103.5,-77.5 103.5,-53.5 8.5,-53.5"/>
<text text-anchor="start" x="16.5" y="-67.9" font-family="Helvetica,sans-Serif" font-size="7.00">S:/QT_CREATOR/Locker</text>
<text text-anchor="middle" x="56" y="-59.9" font-family="Helvetica,sans-Serif" font-size="7.00">_Control/keyboard.h</text>
</g>
<!-- Node2 -->
<g id="node2" class="node"><title>Node2</title>
<polygon fill="none" stroke="#bfbfbf" points="0,-0.5 0,-16.5 44,-16.5 44,-0.5 0,-0.5"/>
<text text-anchor="middle" x="22" y="-6.9" font-family="Helvetica,sans-Serif" font-size="7.00">QWidget</text>
</g>
<!-- Node1&#45;&gt;Node2 -->
<g id="edge1" class="edge"><title>Node1&#45;&gt;Node2</title>
<path fill="none" stroke="midnightblue" d="M49.1196,-53.3699C44.1606,-45.3481 37.3954,-34.4043 31.8626,-25.4542"/>
<polygon fill="midnightblue" stroke="midnightblue" points="34.7218,-23.423 26.4864,-16.7575 28.7676,-27.1038 34.7218,-23.423"/>
</g>
<!-- Node3 -->
<g id="node3" class="node"><title>Node3</title>
<polygon fill="none" stroke="#bfbfbf" points="62,-0.5 62,-16.5 120,-16.5 120,-0.5 62,-0.5"/>
<text text-anchor="middle" x="91" y="-6.9" font-family="Helvetica,sans-Serif" font-size="7.00">QPushButton</text>
</g>
<!-- Node1&#45;&gt;Node3 -->
<g id="edge2" class="edge"><title>Node1&#45;&gt;Node3</title>
<path fill="none" stroke="midnightblue" d="M63.0828,-53.3699C68.1876,-45.3481 75.1518,-34.4043 80.8473,-25.4542"/>
<polygon fill="midnightblue" stroke="midnightblue" points="83.9656,-27.0732 86.3816,-16.7575 78.06,-23.315 83.9656,-27.0732"/>
</g>
</g>
</svg>
