<?xml version="1.0" encoding="UTF-8" standalone="no"?>
<!DOCTYPE svg PUBLIC "-//W3C//DTD SVG 1.1//EN"
 "http://www.w3.org/Graphics/SVG/1.1/DTD/svg11.dtd">
<!-- Generated by graphviz version 2.38.0 (20140413.2041)
 -->
<!-- Title: S:/QT_CREATOR/Locker_Control/login.h Pages: 1 -->
<svg width="484pt" height="139pt"
 viewBox="0.00 0.00 483.50 139.00" xmlns="http://www.w3.org/2000/svg" xmlns:xlink="http://www.w3.org/1999/xlink">
<g id="graph0" class="graph" transform="scale(1 1) rotate(0) translate(4 135)">
<title>S:/QT_CREATOR/Locker_Control/login.h</title>
<!-- Node1 -->
<g id="node1" class="node"><title>Node1</title>
<polygon fill="#bfbfbf" stroke="black" points="45.5,-106.5 45.5,-130.5 140.5,-130.5 140.5,-106.5 45.5,-106.5"/>
<text text-anchor="start" x="53.5" y="-120.9" font-family="Helvetica,sans-Serif" font-size="7.00">S:/QT_CREATOR/Locker</text>
<text text-anchor="middle" x="93" y="-112.9" font-family="Helvetica,sans-Serif" font-size="7.00">_Control/login.h</text>
</g>
<!-- Node2 -->
<g id="node2" class="node"><title>Node2</title>
<polygon fill="none" stroke="#bfbfbf" points="0,-53.5 0,-69.5 44,-69.5 44,-53.5 0,-53.5"/>
<text text-anchor="middle" x="22" y="-59.9" font-family="Helvetica,sans-Serif" font-size="7.00">QWidget</text>
</g>
<!-- Node1&#45;&gt;Node2 -->
<g id="edge1" class="edge"><title>Node1&#45;&gt;Node2</title>
<path fill="none" stroke="midnightblue" d="M78.6321,-106.37C67.2851,-97.58 51.4094,-85.2819 39.3532,-75.9426"/>
<polygon fill="midnightblue" stroke="midnightblue" points="41.4177,-73.1146 31.3687,-69.7575 37.1308,-78.6484 41.4177,-73.1146"/>
</g>
<!-- Node3 -->
<g id="node3" class="node"><title>Node3</title>
<g id="a_node3"><a xlink:href="showwidgets_8h.html" target="_top" target="_top" xlink:title="showwidgets.h">
<polygon fill="none" stroke="black" points="62,-53.5 62,-69.5 124,-69.5 124,-53.5 62,-53.5"/>
<text text-anchor="middle" x="93" y="-59.9" font-family="Helvetica,sans-Serif" font-size="7.00">showwidgets.h</text>
</a>
</g>
</g>
<!-- Node1&#45;&gt;Node3 -->
<g id="edge2" class="edge"><title>Node1&#45;&gt;Node3</title>
<path fill="none" stroke="midnightblue" d="M93,-106.37C93,-98.7748 93,-88.5603 93,-79.8986"/>
<polygon fill="midnightblue" stroke="midnightblue" points="96.5001,-79.7574 93,-69.7575 89.5001,-79.7575 96.5001,-79.7574"/>
</g>
<!-- Node5 -->
<g id="node5" class="node"><title>Node5</title>
<g id="a_node5"><a xlink:href="csqlite__local__db_8h.html" target="_top" target="_top" xlink:title="csqlite_local_db.h">
<polygon fill="none" stroke="red" points="223,-53.5 223,-69.5 295,-69.5 295,-53.5 223,-53.5"/>
<text text-anchor="middle" x="259" y="-59.9" font-family="Helvetica,sans-Serif" font-size="7.00">csqlite_local_db.h</text>
</a>
</g>
</g>
<!-- Node1&#45;&gt;Node5 -->
<g id="edge4" class="edge"><title>Node1&#45;&gt;Node5</title>
<path fill="none" stroke="midnightblue" d="M126.593,-106.37C156.254,-96.5425 199.15,-82.3298 228.004,-72.7697"/>
<polygon fill="midnightblue" stroke="midnightblue" points="229.188,-76.0646 237.58,-69.597 226.987,-69.4198 229.188,-76.0646"/>
</g>
<!-- Node4 -->
<g id="node4" class="node"><title>Node4</title>
<polygon fill="none" stroke="#bfbfbf" points="25.5,-0.5 25.5,-16.5 94.5,-16.5 94.5,-0.5 25.5,-0.5"/>
<text text-anchor="middle" x="60" y="-6.9" font-family="Helvetica,sans-Serif" font-size="7.00">QStackedWidget</text>
</g>
<!-- Node3&#45;&gt;Node4 -->
<g id="edge3" class="edge"><title>Node3&#45;&gt;Node4</title>
<path fill="none" stroke="midnightblue" d="M88.4115,-53.4087C83.6829,-46.1009 76.1597,-34.4741 70.0425,-25.0202"/>
<polygon fill="midnightblue" stroke="midnightblue" points="72.9206,-23.0254 64.5495,-16.5311 67.0436,-26.8282 72.9206,-23.0254"/>
</g>
<!-- Node6 -->
<g id="node6" class="node"><title>Node6</title>
<polygon fill="none" stroke="#bfbfbf" points="113,-0.5 113,-16.5 153,-16.5 153,-0.5 113,-0.5"/>
<text text-anchor="middle" x="133" y="-6.9" font-family="Helvetica,sans-Serif" font-size="7.00">QString</text>
</g>
<!-- Node5&#45;&gt;Node6 -->
<g id="edge5" class="edge"><title>Node5&#45;&gt;Node6</title>
<path fill="none" stroke="midnightblue" d="M241.48,-53.4087C220.323,-44.8449 184.511,-30.3498 159.858,-20.3711"/>
<polygon fill="midnightblue" stroke="midnightblue" points="160.954,-17.0388 150.371,-16.5311 158.327,-23.5274 160.954,-17.0388"/>
</g>
<!-- Node7 -->
<g id="node7" class="node"><title>Node7</title>
<polygon fill="none" stroke="#bfbfbf" points="171.5,-0.5 171.5,-16.5 252.5,-16.5 252.5,-0.5 171.5,-0.5"/>
<text text-anchor="middle" x="212" y="-6.9" font-family="Helvetica,sans-Serif" font-size="7.00">QtSql/QSqlDatabase</text>
</g>
<!-- Node5&#45;&gt;Node7 -->
<g id="edge6" class="edge"><title>Node5&#45;&gt;Node7</title>
<path fill="none" stroke="midnightblue" d="M252.465,-53.4087C245.52,-45.8725 234.342,-33.7432 225.492,-24.1405"/>
<polygon fill="midnightblue" stroke="midnightblue" points="227.83,-21.5128 218.48,-16.5311 222.683,-26.2566 227.83,-21.5128"/>
</g>
<!-- Node8 -->
<g id="node8" class="node"><title>Node8</title>
<polygon fill="none" stroke="#bfbfbf" points="270.5,-0.5 270.5,-16.5 341.5,-16.5 341.5,-0.5 270.5,-0.5"/>
<text text-anchor="middle" x="306" y="-6.9" font-family="Helvetica,sans-Serif" font-size="7.00">QtSql/QSqlDriver</text>
</g>
<!-- Node5&#45;&gt;Node8 -->
<g id="edge7" class="edge"><title>Node5&#45;&gt;Node8</title>
<path fill="none" stroke="midnightblue" d="M265.535,-53.4087C272.48,-45.8725 283.658,-33.7432 292.508,-24.1405"/>
<polygon fill="midnightblue" stroke="midnightblue" points="295.317,-26.2566 299.52,-16.5311 290.17,-21.5128 295.317,-26.2566"/>
</g>
<!-- Node9 -->
<g id="node9" class="node"><title>Node9</title>
<polygon fill="none" stroke="#bfbfbf" points="359.5,-0.5 359.5,-16.5 410.5,-16.5 410.5,-0.5 359.5,-0.5"/>
<text text-anchor="middle" x="385" y="-6.9" font-family="Helvetica,sans-Serif" font-size="7.00">QSqlQuery</text>
</g>
<!-- Node5&#45;&gt;Node9 -->
<g id="edge8" class="edge"><title>Node5&#45;&gt;Node9</title>
<path fill="none" stroke="midnightblue" d="M276.52,-53.4087C297.677,-44.8449 333.489,-30.3498 358.142,-20.3711"/>
<polygon fill="midnightblue" stroke="midnightblue" points="359.673,-23.5274 367.629,-16.5311 357.046,-17.0388 359.673,-23.5274"/>
</g>
<!-- Node10 -->
<g id="node10" class="node"><title>Node10</title>
<polygon fill="none" stroke="#bfbfbf" points="428.5,-0.5 428.5,-16.5 475.5,-16.5 475.5,-0.5 428.5,-0.5"/>
<text text-anchor="middle" x="452" y="-6.9" font-family="Helvetica,sans-Serif" font-size="7.00">QSqlError</text>
</g>
<!-- Node5&#45;&gt;Node10 -->
<g id="edge9" class="edge"><title>Node5&#45;&gt;Node10</title>
<path fill="none" stroke="midnightblue" d="M285.836,-53.4087C320.487,-44.2521 380.798,-28.3149 418.443,-18.3675"/>
<polygon fill="midnightblue" stroke="midnightblue" points="419.645,-21.67 428.419,-15.7313 417.857,-14.9023 419.645,-21.67"/>
</g>
</g>
</svg>
