<?xml version="1.0" encoding="UTF-8" standalone="no"?>
<!DOCTYPE svg PUBLIC "-//W3C//DTD SVG 1.1//EN"
 "http://www.w3.org/Graphics/SVG/1.1/DTD/svg11.dtd">
<!-- Generated by graphviz version 2.38.0 (20140413.2041)
 -->
<!-- Title: S:/QT_CREATOR/Locker_Control/login.cpp Pages: 1 -->
<svg width="498pt" height="139pt"
 viewBox="0.00 0.00 498.00 139.00" xmlns="http://www.w3.org/2000/svg" xmlns:xlink="http://www.w3.org/1999/xlink">
<g id="graph0" class="graph" transform="scale(1 1) rotate(0) translate(4 135)">
<title>S:/QT_CREATOR/Locker_Control/login.cpp</title>
<!-- Node1 -->
<g id="node1" class="node"><title>Node1</title>
<polygon fill="#bfbfbf" stroke="black" points="195.5,-106.5 195.5,-130.5 290.5,-130.5 290.5,-106.5 195.5,-106.5"/>
<text text-anchor="start" x="203.5" y="-120.9" font-family="Helvetica,sans-Serif" font-size="7.00">S:/QT_CREATOR/Locker</text>
<text text-anchor="middle" x="243" y="-112.9" font-family="Helvetica,sans-Serif" font-size="7.00">_Control/login.cpp</text>
</g>
<!-- Node2 -->
<g id="node2" class="node"><title>Node2</title>
<g id="a_node2"><a xlink:href="login_8h.html" target="_top" xlink:title="login.h">
<polygon fill="none" stroke="red" points="38.5,-53.5 38.5,-69.5 75.5,-69.5 75.5,-53.5 38.5,-53.5"/>
<text text-anchor="middle" x="57" y="-59.9" font-family="Helvetica,sans-Serif" font-size="7.00">login.h</text>
</a>
</g>
</g>
<!-- Node1&#45;&gt;Node2 -->
<g id="edge1" class="edge"><title>Node1&#45;&gt;Node2</title>
<path fill="none" stroke="midnightblue" d="M205.36,-106.37C169.92,-95.8902 117.615,-80.4237 85.5092,-70.9301"/>
<polygon fill="midnightblue" stroke="midnightblue" points="86.4241,-67.5509 75.8421,-68.0716 84.4391,-74.2636 86.4241,-67.5509"/>
</g>
<!-- Node5 -->
<g id="node5" class="node"><title>Node5</title>
<polygon fill="none" stroke="#bfbfbf" points="94,-53.5 94,-69.5 140,-69.5 140,-53.5 94,-53.5"/>
<text text-anchor="middle" x="117" y="-59.9" font-family="Helvetica,sans-Serif" font-size="7.00">ui_login.h</text>
</g>
<!-- Node1&#45;&gt;Node5 -->
<g id="edge4" class="edge"><title>Node1&#45;&gt;Node5</title>
<path fill="none" stroke="midnightblue" d="M217.502,-106.37C195.676,-96.8429 164.409,-83.1946 142.565,-73.6591"/>
<polygon fill="midnightblue" stroke="midnightblue" points="143.824,-70.3899 133.259,-69.597 141.023,-76.8053 143.824,-70.3899"/>
</g>
<!-- Node6 -->
<g id="node6" class="node"><title>Node6</title>
<polygon fill="none" stroke="#bfbfbf" points="158,-53.5 158,-69.5 200,-69.5 200,-53.5 158,-53.5"/>
<text text-anchor="middle" x="179" y="-59.9" font-family="Helvetica,sans-Serif" font-size="7.00">QDebug</text>
</g>
<!-- Node1&#45;&gt;Node6 -->
<g id="edge5" class="edge"><title>Node1&#45;&gt;Node6</title>
<path fill="none" stroke="midnightblue" d="M230.049,-106.37C220.019,-97.7507 206.064,-85.7582 195.279,-76.4899"/>
<polygon fill="midnightblue" stroke="midnightblue" points="197.31,-73.6207 187.445,-69.7575 192.748,-78.9296 197.31,-73.6207"/>
</g>
<!-- Node7 -->
<g id="node7" class="node"><title>Node7</title>
<polygon fill="none" stroke="#bfbfbf" points="218.5,-53.5 218.5,-69.5 267.5,-69.5 267.5,-53.5 218.5,-53.5"/>
<text text-anchor="middle" x="243" y="-59.9" font-family="Helvetica,sans-Serif" font-size="7.00">QValidator</text>
</g>
<!-- Node1&#45;&gt;Node7 -->
<g id="edge6" class="edge"><title>Node1&#45;&gt;Node7</title>
<path fill="none" stroke="midnightblue" d="M243,-106.37C243,-98.7748 243,-88.5603 243,-79.8986"/>
<polygon fill="midnightblue" stroke="midnightblue" points="246.5,-79.7574 243,-69.7575 239.5,-79.7575 246.5,-79.7574"/>
</g>
<!-- Node8 -->
<g id="node8" class="node"><title>Node8</title>
<polygon fill="none" stroke="#bfbfbf" points="286,-53.5 286,-69.5 360,-69.5 360,-53.5 286,-53.5"/>
<text text-anchor="middle" x="323" y="-59.9" font-family="Helvetica,sans-Serif" font-size="7.00">QRegExpValidator</text>
</g>
<!-- Node1&#45;&gt;Node8 -->
<g id="edge7" class="edge"><title>Node1&#45;&gt;Node8</title>
<path fill="none" stroke="midnightblue" d="M259.189,-106.37C272.099,-97.4947 290.21,-85.0428 303.842,-75.6714"/>
<polygon fill="midnightblue" stroke="midnightblue" points="306.186,-78.307 312.444,-69.7575 302.22,-72.5386 306.186,-78.307"/>
</g>
<!-- Node9 -->
<g id="node9" class="node"><title>Node9</title>
<polygon fill="none" stroke="#bfbfbf" points="378,-53.5 378,-69.5 428,-69.5 428,-53.5 378,-53.5"/>
<text text-anchor="middle" x="403" y="-59.9" font-family="Helvetica,sans-Serif" font-size="7.00">QScrollBar</text>
</g>
<!-- Node1&#45;&gt;Node9 -->
<g id="edge8" class="edge"><title>Node1&#45;&gt;Node9</title>
<path fill="none" stroke="midnightblue" d="M275.378,-106.37C303.842,-96.5854 344.953,-82.4538 372.759,-72.8952"/>
<polygon fill="midnightblue" stroke="midnightblue" points="374.035,-76.1578 382.354,-69.597 371.76,-69.538 374.035,-76.1578"/>
</g>
<!-- Node10 -->
<g id="node10" class="node"><title>Node10</title>
<polygon fill="none" stroke="#bfbfbf" points="446,-53.5 446,-69.5 490,-69.5 490,-53.5 446,-53.5"/>
<text text-anchor="middle" x="468" y="-59.9" font-family="Helvetica,sans-Serif" font-size="7.00">QToolTip</text>
</g>
<!-- Node1&#45;&gt;Node10 -->
<g id="edge9" class="edge"><title>Node1&#45;&gt;Node10</title>
<path fill="none" stroke="midnightblue" d="M288.261,-106.436C331.897,-95.7697 396.849,-79.8924 435.558,-70.4302"/>
<polygon fill="midnightblue" stroke="midnightblue" points="436.858,-73.7156 445.741,-67.9411 435.196,-66.9158 436.858,-73.7156"/>
</g>
<!-- Node3 -->
<g id="node3" class="node"><title>Node3</title>
<polygon fill="none" stroke="#bfbfbf" points="0,-0.5 0,-16.5 44,-16.5 44,-0.5 0,-0.5"/>
<text text-anchor="middle" x="22" y="-6.9" font-family="Helvetica,sans-Serif" font-size="7.00">QWidget</text>
</g>
<!-- Node2&#45;&gt;Node3 -->
<g id="edge2" class="edge"><title>Node2&#45;&gt;Node3</title>
<path fill="none" stroke="midnightblue" d="M52.1334,-53.4087C47.1183,-46.1009 39.1391,-34.4741 32.6511,-25.0202"/>
<polygon fill="midnightblue" stroke="midnightblue" points="35.3695,-22.7958 26.8253,-16.5311 29.5979,-26.7567 35.3695,-22.7958"/>
</g>
<!-- Node4 -->
<g id="node4" class="node"><title>Node4</title>
<g id="a_node4"><a xlink:href="showwidgets_8h.html" target="_top" xlink:title="showwidgets.h">
<polygon fill="none" stroke="red" points="62,-0.5 62,-16.5 124,-16.5 124,-0.5 62,-0.5"/>
<text text-anchor="middle" x="93" y="-6.9" font-family="Helvetica,sans-Serif" font-size="7.00">showwidgets.h</text>
</a>
</g>
</g>
<!-- Node2&#45;&gt;Node4 -->
<g id="edge3" class="edge"><title>Node2&#45;&gt;Node4</title>
<path fill="none" stroke="midnightblue" d="M62.0056,-53.4087C67.2178,-46.0248 75.5425,-34.2314 82.2526,-24.7255"/>
<polygon fill="midnightblue" stroke="midnightblue" points="85.1294,-26.7192 88.0369,-16.5311 79.4106,-22.6824 85.1294,-26.7192"/>
</g>
</g>
</svg>
