<?xml version="1.0" encoding="UTF-8" standalone="no"?>
<!DOCTYPE svg PUBLIC "-//W3C//DTD SVG 1.1//EN"
 "http://www.w3.org/Graphics/SVG/1.1/DTD/svg11.dtd">
<!-- Generated by graphviz version 2.38.0 (20140413.2041)
 -->
<!-- Title: S:/QT_CREATOR/Locker_Control/maintenancemenu.cpp Pages: 1 -->
<svg width="213pt" height="192pt"
 viewBox="0.00 0.00 212.50 192.00" xmlns="http://www.w3.org/2000/svg" xmlns:xlink="http://www.w3.org/1999/xlink">
<g id="graph0" class="graph" transform="scale(1 1) rotate(0) translate(4 188)">
<title>S:/QT_CREATOR/Locker_Control/maintenancemenu.cpp</title>
<!-- Node1 -->
<g id="node1" class="node"><title>Node1</title>
<polygon fill="#bfbfbf" stroke="black" points="50,-159.5 50,-183.5 166,-183.5 166,-159.5 50,-159.5"/>
<text text-anchor="start" x="58" y="-173.9" font-family="Helvetica,sans-Serif" font-size="7.00">S:/QT_CREATOR/Locker</text>
<text text-anchor="middle" x="108" y="-165.9" font-family="Helvetica,sans-Serif" font-size="7.00">_Control/maintenancemenu.cpp</text>
</g>
<!-- Node2 -->
<g id="node2" class="node"><title>Node2</title>
<g id="a_node2"><a xlink:href="maintenancemenu_8h.html" target="_top" target="_top" xlink:title="maintenancemenu.h">
<polygon fill="none" stroke="black" points="17,-106.5 17,-122.5 97,-122.5 97,-106.5 17,-106.5"/>
<text text-anchor="middle" x="57" y="-112.9" font-family="Helvetica,sans-Serif" font-size="7.00">maintenancemenu.h</text>
</a>
</g>
</g>
<!-- Node1&#45;&gt;Node2 -->
<g id="edge1" class="edge"><title>Node1&#45;&gt;Node2</title>
<path fill="none" stroke="midnightblue" d="M97.6794,-159.37C89.9244,-151.007 79.2246,-139.468 70.7448,-130.323"/>
<polygon fill="midnightblue" stroke="midnightblue" points="73.0955,-127.71 63.7297,-122.757 67.9626,-132.47 73.0955,-127.71"/>
</g>
<!-- Node6 -->
<g id="node6" class="node"><title>Node6</title>
<polygon fill="none" stroke="#bfbfbf" points="115.5,-106.5 115.5,-122.5 204.5,-122.5 204.5,-106.5 115.5,-106.5"/>
<text text-anchor="middle" x="160" y="-112.9" font-family="Helvetica,sans-Serif" font-size="7.00">ui_maintenancemenu.h</text>
</g>
<!-- Node1&#45;&gt;Node6 -->
<g id="edge5" class="edge"><title>Node1&#45;&gt;Node6</title>
<path fill="none" stroke="midnightblue" d="M118.523,-159.37C126.511,-150.921 137.563,-139.232 146.25,-130.044"/>
<polygon fill="midnightblue" stroke="midnightblue" points="148.812,-132.429 153.138,-122.757 143.725,-127.619 148.812,-132.429"/>
</g>
<!-- Node3 -->
<g id="node3" class="node"><title>Node3</title>
<polygon fill="none" stroke="#bfbfbf" points="0,-53.5 0,-69.5 44,-69.5 44,-53.5 0,-53.5"/>
<text text-anchor="middle" x="22" y="-59.9" font-family="Helvetica,sans-Serif" font-size="7.00">QWidget</text>
</g>
<!-- Node2&#45;&gt;Node3 -->
<g id="edge2" class="edge"><title>Node2&#45;&gt;Node3</title>
<path fill="none" stroke="midnightblue" d="M52.1334,-106.409C47.1183,-99.1009 39.1391,-87.4741 32.6511,-78.0202"/>
<polygon fill="midnightblue" stroke="midnightblue" points="35.3695,-75.7958 26.8253,-69.5311 29.5979,-79.7567 35.3695,-75.7958"/>
</g>
<!-- Node4 -->
<g id="node4" class="node"><title>Node4</title>
<g id="a_node4"><a xlink:href="showwidgets_8h.html" target="_top" target="_top" xlink:title="showwidgets.h">
<polygon fill="none" stroke="black" points="62,-53.5 62,-69.5 124,-69.5 124,-53.5 62,-53.5"/>
<text text-anchor="middle" x="93" y="-59.9" font-family="Helvetica,sans-Serif" font-size="7.00">showwidgets.h</text>
</a>
</g>
</g>
<!-- Node2&#45;&gt;Node4 -->
<g id="edge3" class="edge"><title>Node2&#45;&gt;Node4</title>
<path fill="none" stroke="midnightblue" d="M62.0056,-106.409C67.2178,-99.0248 75.5425,-87.2314 82.2526,-77.7255"/>
<polygon fill="midnightblue" stroke="midnightblue" points="85.1294,-79.7192 88.0369,-69.5311 79.4106,-75.6824 85.1294,-79.7192"/>
</g>
<!-- Node5 -->
<g id="node5" class="node"><title>Node5</title>
<polygon fill="none" stroke="#bfbfbf" points="58.5,-0.5 58.5,-16.5 127.5,-16.5 127.5,-0.5 58.5,-0.5"/>
<text text-anchor="middle" x="93" y="-6.9" font-family="Helvetica,sans-Serif" font-size="7.00">QStackedWidget</text>
</g>
<!-- Node4&#45;&gt;Node5 -->
<g id="edge4" class="edge"><title>Node4&#45;&gt;Node5</title>
<path fill="none" stroke="midnightblue" d="M93,-53.4087C93,-46.5576 93,-35.9106 93,-26.8167"/>
<polygon fill="midnightblue" stroke="midnightblue" points="96.5001,-26.5311 93,-16.5311 89.5001,-26.5311 96.5001,-26.5311"/>
</g>
</g>
</svg>
