<?xml version="1.0" encoding="UTF-8" standalone="yes"?><svg xmlns="http://www.w3.org/2000/svg" xmlns:xlink="http://www.w3.org/1999/xlink" height="281px" style="width:237px;height:281px;" version="1.1" viewBox="0 0 237 281" width="237px"><defs><filter height="300%" id="f1" width="300%" x="-1" y="-1"><feGaussianBlur result="blurOut" stdDeviation="2.0"/><feColorMatrix in="blurOut" result="blurOut2" type="matrix" values="0 0 0 0 0 0 0 0 0 0 0 0 0 0 0 0 0 0 .4 0"/><feOffset dx="4.0" dy="4.0" in="blurOut2" result="blurOut3"/><feBlend in="SourceGraphic" in2="blurOut3" mode="normal"/></filter></defs><g><rect fill="#FEFECE" filter="url(#f1)" height="48" style="stroke: #A80036; stroke-width: 1.5;" width="79" x="6" y="8"/><ellipse cx="21" cy="24" fill="#ADD1B2" rx="11" ry="11" style="stroke: #A80036; stroke-width: 1.0;"/><path d="M23.7656,19.875 Q23.9219,19.6563 24.1094,19.5469 Q24.2969,19.4375 24.5156,19.4375 Q24.8906,19.4375 25.125,19.6953 Q25.3594,19.9531 25.3594,20.5625 L25.3594,22.0156 Q25.3594,22.625 25.125,22.8906 Q24.8906,23.1563 24.5156,23.1563 Q24.1719,23.1563 23.9688,22.9531 Q23.7656,22.7656 23.6563,22.25 Q23.6094,21.8906 23.4219,21.7031 Q23.0938,21.3281 22.4844,21.1094 Q21.875,20.8906 21.25,20.8906 Q20.4844,20.8906 19.8516,21.2188 Q19.2188,21.5469 18.7266,22.2969 Q18.2344,23.0469 18.2344,24.0781 L18.2344,25.1719 Q18.2344,26.4063 19.125,27.2266 Q20.0156,28.0469 21.6094,28.0469 Q22.5469,28.0469 23.2031,27.7969 Q23.5938,27.6406 24.0156,27.2031 Q24.2813,26.9375 24.4297,26.8594 Q24.5781,26.7813 24.7813,26.7813 Q25.1094,26.7813 25.3672,27.0391 Q25.625,27.2969 25.625,27.6406 Q25.625,27.9844 25.2813,28.3906 Q24.7813,28.9688 23.9844,29.2969 Q22.9063,29.75 21.6094,29.75 Q20.0938,29.75 18.8906,29.125 Q17.9063,28.625 17.2188,27.5547 Q16.5313,26.4844 16.5313,25.2031 L16.5313,24.0469 Q16.5313,22.7188 17.1484,21.5703 Q17.7656,20.4219 18.8594,19.8047 Q19.9531,19.1875 21.1875,19.1875 Q21.9219,19.1875 22.5703,19.3516 Q23.2188,19.5156 23.7656,19.875 Z "/><text fill="#000000" font-family="sans-serif" font-size="12" lengthAdjust="spacingAndGlyphs" textLength="47" x="35" y="28.9102">QWidget</text><line style="stroke: #A80036; stroke-width: 1.5;" x1="7" x2="84" y1="40" y2="40"/><line style="stroke: #A80036; stroke-width: 1.5;" x1="7" x2="84" y1="48" y2="48"/><rect fill="#FEFECE" filter="url(#f1)" height="48" style="stroke: #A80036; stroke-width: 1.5;" width="132" x="43.5" y="116"/><ellipse cx="58.5" cy="132" fill="#ADD1B2" rx="11" ry="11" style="stroke: #A80036; stroke-width: 1.0;"/><path d="M61.2656,127.875 Q61.4219,127.6563 61.6094,127.5469 Q61.7969,127.4375 62.0156,127.4375 Q62.3906,127.4375 62.625,127.6953 Q62.8594,127.9531 62.8594,128.5625 L62.8594,130.0156 Q62.8594,130.625 62.625,130.8906 Q62.3906,131.1563 62.0156,131.1563 Q61.6719,131.1563 61.4688,130.9531 Q61.2656,130.7656 61.1563,130.25 Q61.1094,129.8906 60.9219,129.7031 Q60.5938,129.3281 59.9844,129.1094 Q59.375,128.8906 58.75,128.8906 Q57.9844,128.8906 57.3516,129.2188 Q56.7188,129.5469 56.2266,130.2969 Q55.7344,131.0469 55.7344,132.0781 L55.7344,133.1719 Q55.7344,134.4063 56.625,135.2266 Q57.5156,136.0469 59.1094,136.0469 Q60.0469,136.0469 60.7031,135.7969 Q61.0938,135.6406 61.5156,135.2031 Q61.7813,134.9375 61.9297,134.8594 Q62.0781,134.7813 62.2813,134.7813 Q62.6094,134.7813 62.8672,135.0391 Q63.125,135.2969 63.125,135.6406 Q63.125,135.9844 62.7813,136.3906 Q62.2813,136.9688 61.4844,137.2969 Q60.4063,137.75 59.1094,137.75 Q57.5938,137.75 56.3906,137.125 Q55.4063,136.625 54.7188,135.5547 Q54.0313,134.4844 54.0313,133.2031 L54.0313,132.0469 Q54.0313,130.7188 54.6484,129.5703 Q55.2656,128.4219 56.3594,127.8047 Q57.4531,127.1875 58.6875,127.1875 Q59.4219,127.1875 60.0703,127.3516 Q60.7188,127.5156 61.2656,127.875 Z "/><text fill="#000000" font-family="sans-serif" font-size="12" lengthAdjust="spacingAndGlyphs" textLength="100" x="72.5" y="136.9102">MaintenanceMenu</text><line style="stroke: #A80036; stroke-width: 1.5;" x1="44.5" x2="174.5" y1="148" y2="148"/><line style="stroke: #A80036; stroke-width: 1.5;" x1="44.5" x2="174.5" y1="156" y2="156"/><rect fill="#FEFECE" filter="url(#f1)" height="48" style="stroke: #A80036; stroke-width: 1.5;" width="130" x="44.5" y="224"/><ellipse cx="59.5" cy="240" fill="#ADD1B2" rx="11" ry="11" style="stroke: #A80036; stroke-width: 1.0;"/><path d="M62.2656,235.875 Q62.4219,235.6563 62.6094,235.5469 Q62.7969,235.4375 63.0156,235.4375 Q63.3906,235.4375 63.625,235.6953 Q63.8594,235.9531 63.8594,236.5625 L63.8594,238.0156 Q63.8594,238.625 63.625,238.8906 Q63.3906,239.1563 63.0156,239.1563 Q62.6719,239.1563 62.4688,238.9531 Q62.2656,238.7656 62.1563,238.25 Q62.1094,237.8906 61.9219,237.7031 Q61.5938,237.3281 60.9844,237.1094 Q60.375,236.8906 59.75,236.8906 Q58.9844,236.8906 58.3516,237.2188 Q57.7188,237.5469 57.2266,238.2969 Q56.7344,239.0469 56.7344,240.0781 L56.7344,241.1719 Q56.7344,242.4063 57.625,243.2266 Q58.5156,244.0469 60.1094,244.0469 Q61.0469,244.0469 61.7031,243.7969 Q62.0938,243.6406 62.5156,243.2031 Q62.7813,242.9375 62.9297,242.8594 Q63.0781,242.7813 63.2813,242.7813 Q63.6094,242.7813 63.8672,243.0391 Q64.125,243.2969 64.125,243.6406 Q64.125,243.9844 63.7813,244.3906 Q63.2813,244.9688 62.4844,245.2969 Q61.4063,245.75 60.1094,245.75 Q58.5938,245.75 57.3906,245.125 Q56.4063,244.625 55.7188,243.5547 Q55.0313,242.4844 55.0313,241.2031 L55.0313,240.0469 Q55.0313,238.7188 55.6484,237.5703 Q56.2656,236.4219 57.3594,235.8047 Q58.4531,235.1875 59.6875,235.1875 Q60.4219,235.1875 61.0703,235.3516 Q61.7188,235.5156 62.2656,235.875 Z "/><text fill="#000000" font-family="sans-serif" font-size="12" lengthAdjust="spacingAndGlyphs" textLength="98" x="73.5" y="244.9102">ConsoleWindows</text><line style="stroke: #A80036; stroke-width: 1.5;" x1="45.5" x2="173.5" y1="256" y2="256"/><line style="stroke: #A80036; stroke-width: 1.5;" x1="45.5" x2="173.5" y1="264" y2="264"/><rect fill="#FEFECE" filter="url(#f1)" height="48" style="stroke: #A80036; stroke-width: 1.5;" width="108" x="120.5" y="8"/><ellipse cx="135.5" cy="24" fill="#ADD1B2" rx="11" ry="11" style="stroke: #A80036; stroke-width: 1.0;"/><path d="M138.2656,19.875 Q138.4219,19.6563 138.6094,19.5469 Q138.7969,19.4375 139.0156,19.4375 Q139.3906,19.4375 139.625,19.6953 Q139.8594,19.9531 139.8594,20.5625 L139.8594,22.0156 Q139.8594,22.625 139.625,22.8906 Q139.3906,23.1563 139.0156,23.1563 Q138.6719,23.1563 138.4688,22.9531 Q138.2656,22.7656 138.1563,22.25 Q138.1094,21.8906 137.9219,21.7031 Q137.5938,21.3281 136.9844,21.1094 Q136.375,20.8906 135.75,20.8906 Q134.9844,20.8906 134.3516,21.2188 Q133.7188,21.5469 133.2266,22.2969 Q132.7344,23.0469 132.7344,24.0781 L132.7344,25.1719 Q132.7344,26.4063 133.625,27.2266 Q134.5156,28.0469 136.1094,28.0469 Q137.0469,28.0469 137.7031,27.7969 Q138.0938,27.6406 138.5156,27.2031 Q138.7813,26.9375 138.9297,26.8594 Q139.0781,26.7813 139.2813,26.7813 Q139.6094,26.7813 139.8672,27.0391 Q140.125,27.2969 140.125,27.6406 Q140.125,27.9844 139.7813,28.3906 Q139.2813,28.9688 138.4844,29.2969 Q137.4063,29.75 136.1094,29.75 Q134.5938,29.75 133.3906,29.125 Q132.4063,28.625 131.7188,27.5547 Q131.0313,26.4844 131.0313,25.2031 L131.0313,24.0469 Q131.0313,22.7188 131.6484,21.5703 Q132.2656,20.4219 133.3594,19.8047 Q134.4531,19.1875 135.6875,19.1875 Q136.4219,19.1875 137.0703,19.3516 Q137.7188,19.5156 138.2656,19.875 Z "/><text fill="#000000" font-family="sans-serif" font-size="12" lengthAdjust="spacingAndGlyphs" textLength="76" x="149.5" y="28.9102">ShowWidgets</text><line style="stroke: #A80036; stroke-width: 1.5;" x1="121.5" x2="227.5" y1="40" y2="40"/><line style="stroke: #A80036; stroke-width: 1.5;" x1="121.5" x2="227.5" y1="48" y2="48"/><path d="M69.7319,73.134 C78.4052,87.499 87.8889,103.207 95.419,115.678 " fill="none" style="stroke: #A80036; stroke-width: 1.0;"/><polygon fill="none" points="63.732,76.74,59.387,56,75.7169,69.504,63.732,76.74" style="stroke: #A80036; stroke-width: 1.0;"/><path d="M97.3273,177.3383 C96.2304,192.6813 96.6966,210.098 98.7257,223.6784 " fill="none" style="stroke: #A80036; stroke-width: 1.0;"/><polygon fill="#A80036" points="98.7741,164,94.1504,169.5336,97.4799,175.93,102.1037,170.3964,98.7741,164" style="stroke: #A80036; stroke-width: 1.0;"/><path d="M122.389,177.3383 C123.55,192.6813 123.057,210.098 120.908,223.6784 " fill="none" style="stroke: #A80036; stroke-width: 1.0;"/><polygon fill="none" points="120.857,164,117.5678,170.4172,122.2263,175.9216,125.5155,169.5044,120.857,164" style="stroke: #A80036; stroke-width: 1.0;"/><path d="M153.363,67.47 C143.684,83.253 132.468,101.544 123.801,115.678 " fill="none" style="stroke: #A80036; stroke-width: 1.0;"/><polygon fill="none" points="160.396,56,153.8496,59.0241,154.1232,66.23,160.6696,63.2059,160.396,56" style="stroke: #A80036; stroke-width: 1.0;"/></g></svg>