<?xml version="1.0" encoding="UTF-8" standalone="no"?>
<!DOCTYPE svg PUBLIC "-//W3C//DTD SVG 1.1//EN"
 "http://www.w3.org/Graphics/SVG/1.1/DTD/svg11.dtd">
<!-- Generated by graphviz version 2.38.0 (20140413.2041)
 -->
<!-- Title: S:/QT_CREATOR/Locker_Control/main.cpp Pages: 1 -->
<svg width="390pt" height="139pt"
 viewBox="0.00 0.00 389.50 139.00" xmlns="http://www.w3.org/2000/svg" xmlns:xlink="http://www.w3.org/1999/xlink">
<g id="graph0" class="graph" transform="scale(1 1) rotate(0) translate(4 135)">
<title>S:/QT_CREATOR/Locker_Control/main.cpp</title>
<!-- Node1 -->
<g id="node1" class="node"><title>Node1</title>
<polygon fill="#bfbfbf" stroke="black" points="69.5,-106.5 69.5,-130.5 164.5,-130.5 164.5,-106.5 69.5,-106.5"/>
<text text-anchor="start" x="77.5" y="-120.9" font-family="Helvetica,sans-Serif" font-size="7.00">S:/QT_CREATOR/Locker</text>
<text text-anchor="middle" x="117" y="-112.9" font-family="Helvetica,sans-Serif" font-size="7.00">_Control/main.cpp</text>
</g>
<!-- Node2 -->
<g id="node2" class="node"><title>Node2</title>
<polygon fill="none" stroke="#bfbfbf" points="15,-53.5 15,-69.5 71,-69.5 71,-53.5 15,-53.5"/>
<text text-anchor="middle" x="43" y="-59.9" font-family="Helvetica,sans-Serif" font-size="7.00">QApplication</text>
</g>
<!-- Node1&#45;&gt;Node2 -->
<g id="edge1" class="edge"><title>Node1&#45;&gt;Node2</title>
<path fill="none" stroke="midnightblue" d="M102.025,-106.37C90.1986,-97.58 73.6521,-85.2819 61.0864,-75.9426"/>
<polygon fill="midnightblue" stroke="midnightblue" points="62.8784,-72.9137 52.7646,-69.7575 58.7027,-78.5318 62.8784,-72.9137"/>
</g>
<!-- Node3 -->
<g id="node3" class="node"><title>Node3</title>
<polygon fill="none" stroke="#bfbfbf" points="89,-53.5 89,-69.5 145,-69.5 145,-53.5 89,-53.5"/>
<text text-anchor="middle" x="117" y="-59.9" font-family="Helvetica,sans-Serif" font-size="7.00">QTextCodec</text>
</g>
<!-- Node1&#45;&gt;Node3 -->
<g id="edge2" class="edge"><title>Node1&#45;&gt;Node3</title>
<path fill="none" stroke="midnightblue" d="M117,-106.37C117,-98.7748 117,-88.5603 117,-79.8986"/>
<polygon fill="midnightblue" stroke="midnightblue" points="120.5,-79.7574 117,-69.7575 113.5,-79.7575 120.5,-79.7574"/>
</g>
<!-- Node4 -->
<g id="node4" class="node"><title>Node4</title>
<g id="a_node4"><a xlink:href="consolewindows_8h.html" target="_top" xlink:title="consolewindows.h">
<polygon fill="none" stroke="red" points="163,-53.5 163,-69.5 235,-69.5 235,-53.5 163,-53.5"/>
<text text-anchor="middle" x="199" y="-59.9" font-family="Helvetica,sans-Serif" font-size="7.00">consolewindows.h</text>
</a>
</g>
</g>
<!-- Node1&#45;&gt;Node4 -->
<g id="edge3" class="edge"><title>Node1&#45;&gt;Node4</title>
<path fill="none" stroke="midnightblue" d="M133.594,-106.37C146.953,-97.4094 165.748,-84.803 179.764,-75.4019"/>
<polygon fill="midnightblue" stroke="midnightblue" points="181.825,-78.2346 188.18,-69.7575 177.925,-72.4211 181.825,-78.2346"/>
</g>
<!-- Node5 -->
<g id="node5" class="node"><title>Node5</title>
<polygon fill="none" stroke="#bfbfbf" points="0,-0.5 0,-16.5 60,-16.5 60,-0.5 0,-0.5"/>
<text text-anchor="middle" x="30" y="-6.9" font-family="Helvetica,sans-Serif" font-size="7.00">QMainWindow</text>
</g>
<!-- Node4&#45;&gt;Node5 -->
<g id="edge4" class="edge"><title>Node4&#45;&gt;Node5</title>
<path fill="none" stroke="midnightblue" d="M175.501,-53.4087C146.24,-44.5784 96.0829,-29.4422 62.9822,-19.4532"/>
<polygon fill="midnightblue" stroke="midnightblue" points="63.8839,-16.0695 53.2991,-16.5311 61.8615,-22.771 63.8839,-16.0695"/>
</g>
<!-- Node6 -->
<g id="node6" class="node"><title>Node6</title>
<polygon fill="none" stroke="#bfbfbf" points="78.5,-0.5 78.5,-16.5 117.5,-16.5 117.5,-0.5 78.5,-0.5"/>
<text text-anchor="middle" x="98" y="-6.9" font-family="Helvetica,sans-Serif" font-size="7.00">QTimer</text>
</g>
<!-- Node4&#45;&gt;Node6 -->
<g id="edge5" class="edge"><title>Node4&#45;&gt;Node6</title>
<path fill="none" stroke="midnightblue" d="M184.956,-53.4087C168.374,-45.0352 140.561,-30.9911 120.86,-21.0429"/>
<polygon fill="midnightblue" stroke="midnightblue" points="122.429,-17.9143 111.924,-16.5311 119.273,-24.1629 122.429,-17.9143"/>
</g>
<!-- Node7 -->
<g id="node7" class="node"><title>Node7</title>
<polygon fill="none" stroke="#bfbfbf" points="135.5,-0.5 135.5,-16.5 196.5,-16.5 196.5,-0.5 135.5,-0.5"/>
<text text-anchor="middle" x="166" y="-6.9" font-family="Helvetica,sans-Serif" font-size="7.00">QMouseEvent</text>
</g>
<!-- Node4&#45;&gt;Node7 -->
<g id="edge6" class="edge"><title>Node4&#45;&gt;Node7</title>
<path fill="none" stroke="midnightblue" d="M194.411,-53.4087C189.683,-46.1009 182.16,-34.4741 176.043,-25.0202"/>
<polygon fill="midnightblue" stroke="midnightblue" points="178.921,-23.0254 170.55,-16.5311 173.044,-26.8282 178.921,-23.0254"/>
</g>
<!-- Node8 -->
<g id="node8" class="node"><title>Node8</title>
<polygon fill="none" stroke="#bfbfbf" points="214.5,-0.5 214.5,-16.5 247.5,-16.5 247.5,-0.5 214.5,-0.5"/>
<text text-anchor="middle" x="231" y="-6.9" font-family="Helvetica,sans-Serif" font-size="7.00">QList</text>
</g>
<!-- Node4&#45;&gt;Node8 -->
<g id="edge7" class="edge"><title>Node4&#45;&gt;Node8</title>
<path fill="none" stroke="midnightblue" d="M203.449,-53.4087C208.035,-46.1009 215.33,-34.4741 221.262,-25.0202"/>
<polygon fill="midnightblue" stroke="midnightblue" points="224.238,-26.862 226.588,-16.5311 218.309,-23.1415 224.238,-26.862"/>
</g>
<!-- Node9 -->
<g id="node9" class="node"><title>Node9</title>
<polygon fill="none" stroke="#bfbfbf" points="265.5,-0.5 265.5,-16.5 316.5,-16.5 316.5,-0.5 265.5,-0.5"/>
<text text-anchor="middle" x="291" y="-6.9" font-family="Helvetica,sans-Serif" font-size="7.00">QStringList</text>
</g>
<!-- Node4&#45;&gt;Node9 -->
<g id="edge8" class="edge"><title>Node4&#45;&gt;Node9</title>
<path fill="none" stroke="midnightblue" d="M211.792,-53.4087C226.623,-45.1874 251.314,-31.4999 269.191,-21.5896"/>
<polygon fill="midnightblue" stroke="midnightblue" points="271.267,-24.4406 278.316,-16.5311 267.873,-18.3184 271.267,-24.4406"/>
</g>
<!-- Node10 -->
<g id="node10" class="node"><title>Node10</title>
<g id="a_node10"><a xlink:href="country_8h.html" target="_top" xlink:title="country.h">
<polygon fill="none" stroke="red" points="334.5,-0.5 334.5,-16.5 381.5,-16.5 381.5,-0.5 334.5,-0.5"/>
<text text-anchor="middle" x="358" y="-6.9" font-family="Helvetica,sans-Serif" font-size="7.00">country.h</text>
</a>
</g>
</g>
<!-- Node4&#45;&gt;Node10 -->
<g id="edge9" class="edge"><title>Node4&#45;&gt;Node10</title>
<path fill="none" stroke="midnightblue" d="M221.108,-53.4087C248.4,-44.6546 295.015,-29.7027 326.16,-19.7127"/>
<polygon fill="midnightblue" stroke="midnightblue" points="327.626,-22.9182 336.079,-16.5311 325.488,-16.2527 327.626,-22.9182"/>
</g>
</g>
</svg>
