<?xml version="1.0" encoding="UTF-8" standalone="no"?>
<!DOCTYPE svg PUBLIC "-//W3C//DTD SVG 1.1//EN"
 "http://www.w3.org/Graphics/SVG/1.1/DTD/svg11.dtd">
<!-- Generated by graphviz version 2.38.0 (20140413.2041)
 -->
<!-- Title: S:/QT_CREATOR/Locker_Control/menudelivery.h Pages: 1 -->
<svg width="489pt" height="338pt"
 viewBox="0.00 0.00 489.00 338.00" xmlns="http://www.w3.org/2000/svg" xmlns:xlink="http://www.w3.org/1999/xlink">
<g id="graph0" class="graph" transform="scale(1 1) rotate(0) translate(4 334)">
<title>S:/QT_CREATOR/Locker_Control/menudelivery.h</title>
<!-- Node1 -->
<g id="node1" class="node"><title>Node1</title>
<polygon fill="#bfbfbf" stroke="black" points="285,-305.5 285,-329.5 380,-329.5 380,-305.5 285,-305.5"/>
<text text-anchor="start" x="293" y="-319.9" font-family="Helvetica,sans-Serif" font-size="7.00">S:/QT_CREATOR/Locker</text>
<text text-anchor="middle" x="332.5" y="-311.9" font-family="Helvetica,sans-Serif" font-size="7.00">_Control/menudelivery.h</text>
</g>
<!-- Node2 -->
<g id="node2" class="node"><title>Node2</title>
<g id="a_node2"><a xlink:href="boxchoice_8h.html" target="_top" target="_top" xlink:title="S:/QT_CREATOR/Locker\l_Control/boxchoice.h">
<polygon fill="none" stroke="black" points="152,-244.5 152,-268.5 247,-268.5 247,-244.5 152,-244.5"/>
<text text-anchor="start" x="160" y="-258.9" font-family="Helvetica,sans-Serif" font-size="7.00">S:/QT_CREATOR/Locker</text>
<text text-anchor="middle" x="199.5" y="-250.9" font-family="Helvetica,sans-Serif" font-size="7.00">_Control/boxchoice.h</text>
</a>
</g>
</g>
<!-- Node1&#45;&gt;Node2 -->
<g id="edge1" class="edge"><title>Node1&#45;&gt;Node2</title>
<path fill="none" stroke="midnightblue" d="M298.061,-301.222C275,-290.993 245.178,-277.763 224.404,-268.548"/>
<polygon fill="midnightblue" stroke="midnightblue" points="296.923,-304.547 307.484,-305.403 299.762,-298.148 296.923,-304.547"/>
</g>
<!-- Node6 -->
<g id="node6" class="node"><title>Node6</title>
<g id="a_node6"><a xlink:href="consolewindows_8h.html" target="_top" target="_top" xlink:title="S:/QT_CREATOR/Locker\l_Control/consolewindows.h">
<polygon fill="none" stroke="red" points="225,-61.5 225,-85.5 326,-85.5 326,-61.5 225,-61.5"/>
<text text-anchor="start" x="233" y="-75.9" font-family="Helvetica,sans-Serif" font-size="7.00">S:/QT_CREATOR/Locker</text>
<text text-anchor="middle" x="275.5" y="-67.9" font-family="Helvetica,sans-Serif" font-size="7.00">_Control/consolewindows.h</text>
</a>
</g>
</g>
<!-- Node1&#45;&gt;Node6 -->
<g id="edge11" class="edge"><title>Node1&#45;&gt;Node6</title>
<path fill="none" stroke="midnightblue" d="M328.303,-295.252C321.104,-259.369 305.613,-184.554 289.5,-122 286.283,-109.512 282.03,-95.3503 279.059,-85.764"/>
<polygon fill="midnightblue" stroke="midnightblue" points="324.952,-296.347 330.34,-305.47 331.817,-294.979 324.952,-296.347"/>
</g>
<!-- Node9 -->
<g id="node9" class="node"><title>Node9</title>
<g id="a_node9"><a xlink:href="openemptybox_8h.html" target="_top" target="_top" xlink:title="S:/QT_CREATOR/Locker\l_Control/openemptybox.h">
<polygon fill="none" stroke="red" points="341.5,-122.5 341.5,-146.5 439.5,-146.5 439.5,-122.5 341.5,-122.5"/>
<text text-anchor="start" x="349.5" y="-136.9" font-family="Helvetica,sans-Serif" font-size="7.00">S:/QT_CREATOR/Locker</text>
<text text-anchor="middle" x="390.5" y="-128.9" font-family="Helvetica,sans-Serif" font-size="7.00">_Control/openemptybox.h</text>
</a>
</g>
</g>
<!-- Node1&#45;&gt;Node9 -->
<g id="edge12" class="edge"><title>Node1&#45;&gt;Node9</title>
<path fill="none" stroke="midnightblue" d="M339.116,-295.855C351.387,-257.558 377.298,-176.699 386.857,-146.867"/>
<polygon fill="midnightblue" stroke="midnightblue" points="335.759,-294.859 336.041,-305.45 342.426,-296.995 335.759,-294.859"/>
</g>
<!-- Node10 -->
<g id="node10" class="node"><title>Node10</title>
<g id="a_node10"><a xlink:href="menudelivery_8cpp.html" target="_top" target="_top" xlink:title="S:/QT_CREATOR/Locker\l_Control/menudelivery.cpp">
<polygon fill="none" stroke="black" points="380,-244.5 380,-268.5 481,-268.5 481,-244.5 380,-244.5"/>
<text text-anchor="start" x="388" y="-258.9" font-family="Helvetica,sans-Serif" font-size="7.00">S:/QT_CREATOR/Locker</text>
<text text-anchor="middle" x="430.5" y="-250.9" font-family="Helvetica,sans-Serif" font-size="7.00">_Control/menudelivery.cpp</text>
</a>
</g>
</g>
<!-- Node1&#45;&gt;Node10 -->
<g id="edge14" class="edge"><title>Node1&#45;&gt;Node10</title>
<path fill="none" stroke="midnightblue" d="M359.715,-300.115C376.429,-290.053 397.389,-277.434 412.15,-268.548"/>
<polygon fill="midnightblue" stroke="midnightblue" points="357.695,-297.246 350.933,-305.403 361.306,-303.243 357.695,-297.246"/>
</g>
<!-- Node3 -->
<g id="node3" class="node"><title>Node3</title>
<g id="a_node3"><a xlink:href="boxchoice_8cpp.html" target="_top" target="_top" xlink:title="S:/QT_CREATOR/Locker\l_Control/boxchoice.cpp">
<polygon fill="none" stroke="black" points="0,-183.5 0,-207.5 95,-207.5 95,-183.5 0,-183.5"/>
<text text-anchor="start" x="8" y="-197.9" font-family="Helvetica,sans-Serif" font-size="7.00">S:/QT_CREATOR/Locker</text>
<text text-anchor="middle" x="47.5" y="-189.9" font-family="Helvetica,sans-Serif" font-size="7.00">_Control/boxchoice.cpp</text>
</a>
</g>
</g>
<!-- Node2&#45;&gt;Node3 -->
<g id="edge2" class="edge"><title>Node2&#45;&gt;Node3</title>
<path fill="none" stroke="midnightblue" d="M161.545,-240.768C135.006,-230.466 100.127,-216.928 75.9618,-207.548"/>
<polygon fill="midnightblue" stroke="midnightblue" points="160.321,-244.047 170.91,-244.403 162.854,-237.521 160.321,-244.047"/>
</g>
<!-- Node4 -->
<g id="node4" class="node"><title>Node4</title>
<g id="a_node4"><a xlink:href="scanpackage_8h.html" target="_top" target="_top" xlink:title="S:/QT_CREATOR/Locker\l_Control/scanpackage.h">
<polygon fill="none" stroke="red" points="152,-183.5 152,-207.5 247,-207.5 247,-183.5 152,-183.5"/>
<text text-anchor="start" x="160" y="-197.9" font-family="Helvetica,sans-Serif" font-size="7.00">S:/QT_CREATOR/Locker</text>
<text text-anchor="middle" x="199.5" y="-189.9" font-family="Helvetica,sans-Serif" font-size="7.00">_Control/scanpackage.h</text>
</a>
</g>
</g>
<!-- Node2&#45;&gt;Node4 -->
<g id="edge3" class="edge"><title>Node2&#45;&gt;Node4</title>
<path fill="none" stroke="midnightblue" d="M199.5,-234.198C199.5,-225.173 199.5,-215.035 199.5,-207.548"/>
<polygon fill="midnightblue" stroke="midnightblue" points="196,-234.403 199.5,-244.403 203,-234.403 196,-234.403"/>
</g>
<!-- Node5 -->
<g id="node5" class="node"><title>Node5</title>
<g id="a_node5"><a xlink:href="stowpackages_8h.html" target="_top" target="_top" xlink:title="S:/QT_CREATOR/Locker\l_Control/stowpackages.h">
<polygon fill="none" stroke="red" points="114,-122.5 114,-146.5 209,-146.5 209,-122.5 114,-122.5"/>
<text text-anchor="start" x="122" y="-136.9" font-family="Helvetica,sans-Serif" font-size="7.00">S:/QT_CREATOR/Locker</text>
<text text-anchor="middle" x="161.5" y="-128.9" font-family="Helvetica,sans-Serif" font-size="7.00">_Control/stowpackages.h</text>
</a>
</g>
</g>
<!-- Node2&#45;&gt;Node5 -->
<g id="edge9" class="edge"><title>Node2&#45;&gt;Node5</title>
<path fill="none" stroke="midnightblue" d="M170.085,-238.711C159.327,-230.888 148.363,-220.518 142.5,-208 132.897,-187.497 145.126,-161.372 153.945,-146.739"/>
<polygon fill="midnightblue" stroke="midnightblue" points="168.319,-241.742 178.567,-244.431 172.233,-235.938 168.319,-241.742"/>
</g>
<!-- Node2&#45;&gt;Node6 -->
<g id="edge10" class="edge"><title>Node2&#45;&gt;Node6</title>
<path fill="none" stroke="midnightblue" d="M227.034,-238.486C237.607,-230.534 248.747,-220.129 255.5,-208 278.073,-167.458 277.692,-109.769 276.361,-85.7096"/>
<polygon fill="midnightblue" stroke="midnightblue" points="224.918,-235.696 218.771,-244.325 228.957,-241.413 224.918,-235.696"/>
</g>
<!-- Node4&#45;&gt;Node5 -->
<g id="edge4" class="edge"><title>Node4&#45;&gt;Node5</title>
<path fill="none" stroke="midnightblue" d="M186.92,-174.968C180.835,-165.521 173.756,-154.529 168.615,-146.548"/>
<polygon fill="midnightblue" stroke="midnightblue" points="183.995,-176.891 192.352,-183.403 189.88,-173.1 183.995,-176.891"/>
</g>
<!-- Node4&#45;&gt;Node6 -->
<g id="edge8" class="edge"><title>Node4&#45;&gt;Node6</title>
<path fill="none" stroke="midnightblue" d="M211.882,-174.949C227.999,-149.502 255.621,-105.887 268.503,-85.5475"/>
<polygon fill="midnightblue" stroke="midnightblue" points="208.907,-173.105 206.514,-183.426 214.821,-176.85 208.907,-173.105"/>
</g>
<!-- Node5&#45;&gt;Node6 -->
<g id="edge5" class="edge"><title>Node5&#45;&gt;Node6</title>
<path fill="none" stroke="midnightblue" d="M192.084,-117.672C211.696,-107.521 236.666,-94.5984 254.154,-85.5477"/>
<polygon fill="midnightblue" stroke="midnightblue" points="190.215,-114.698 182.943,-122.403 193.432,-120.915 190.215,-114.698"/>
</g>
<!-- Node7 -->
<g id="node7" class="node"><title>Node7</title>
<g id="a_node7"><a xlink:href="consolewindows_8cpp.html" target="_top" target="_top" xlink:title="S:/QT_CREATOR/Locker\l_Control/consolewindows.cpp">
<polygon fill="none" stroke="black" points="153.5,-0.5 153.5,-24.5 261.5,-24.5 261.5,-0.5 153.5,-0.5"/>
<text text-anchor="start" x="161.5" y="-14.9" font-family="Helvetica,sans-Serif" font-size="7.00">S:/QT_CREATOR/Locker</text>
<text text-anchor="middle" x="207.5" y="-6.9" font-family="Helvetica,sans-Serif" font-size="7.00">_Control/consolewindows.cpp</text>
</a>
</g>
</g>
<!-- Node6&#45;&gt;Node7 -->
<g id="edge6" class="edge"><title>Node6&#45;&gt;Node7</title>
<path fill="none" stroke="midnightblue" d="M254.987,-54.7018C243.681,-44.8923 230,-33.0225 220.233,-24.5477"/>
<polygon fill="midnightblue" stroke="midnightblue" points="252.863,-57.4926 262.71,-61.4026 257.45,-52.2053 252.863,-57.4926"/>
</g>
<!-- Node8 -->
<g id="node8" class="node"><title>Node8</title>
<g id="a_node8"><a xlink:href="thread__databasemanager_8h.html" target="_top" target="_top" xlink:title="S:/QT_CREATOR/Locker\l_Control/thread_databasemanager.h">
<polygon fill="none" stroke="red" points="279.5,-0.5 279.5,-24.5 409.5,-24.5 409.5,-0.5 279.5,-0.5"/>
<text text-anchor="start" x="287.5" y="-14.9" font-family="Helvetica,sans-Serif" font-size="7.00">S:/QT_CREATOR/Locker</text>
<text text-anchor="middle" x="344.5" y="-6.9" font-family="Helvetica,sans-Serif" font-size="7.00">_Control/thread_databasemanager.h</text>
</a>
</g>
</g>
<!-- Node6&#45;&gt;Node8 -->
<g id="edge7" class="edge"><title>Node6&#45;&gt;Node8</title>
<path fill="none" stroke="midnightblue" d="M296.315,-54.7018C307.787,-44.8923 321.669,-33.0225 331.58,-24.5477"/>
<polygon fill="midnightblue" stroke="midnightblue" points="293.804,-52.2436 288.478,-61.4026 298.353,-57.5638 293.804,-52.2436"/>
</g>
<!-- Node9&#45;&gt;Node6 -->
<g id="edge13" class="edge"><title>Node9&#45;&gt;Node6</title>
<path fill="none" stroke="midnightblue" d="M359.917,-117.81C340.093,-107.639 314.755,-94.6396 297.034,-85.5477"/>
<polygon fill="midnightblue" stroke="midnightblue" points="358.374,-120.952 368.869,-122.403 361.57,-114.724 358.374,-120.952"/>
</g>
</g>
</svg>
