<?xml version="1.0" encoding="UTF-8" standalone="no"?>
<!DOCTYPE svg PUBLIC "-//W3C//DTD SVG 1.1//EN"
 "http://www.w3.org/Graphics/SVG/1.1/DTD/svg11.dtd">
<!-- Generated by graphviz version 2.38.0 (20140413.2041)
 -->
<!-- Title: S:/QT_CREATOR/Locker_Control/openemptybox.cpp Pages: 1 -->
<svg width="409pt" height="192pt"
 viewBox="0.00 0.00 409.00 192.00" xmlns="http://www.w3.org/2000/svg" xmlns:xlink="http://www.w3.org/1999/xlink">
<g id="graph0" class="graph" transform="scale(1 1) rotate(0) translate(4 188)">
<title>S:/QT_CREATOR/Locker_Control/openemptybox.cpp</title>
<!-- Node1 -->
<g id="node1" class="node"><title>Node1</title>
<polygon fill="#bfbfbf" stroke="black" points="220.5,-159.5 220.5,-183.5 325.5,-183.5 325.5,-159.5 220.5,-159.5"/>
<text text-anchor="start" x="228.5" y="-173.9" font-family="Helvetica,sans-Serif" font-size="7.00">S:/QT_CREATOR/Locker</text>
<text text-anchor="middle" x="273" y="-165.9" font-family="Helvetica,sans-Serif" font-size="7.00">_Control/openemptybox.cpp</text>
</g>
<!-- Node2 -->
<g id="node2" class="node"><title>Node2</title>
<g id="a_node2"><a xlink:href="openemptybox_8h.html" target="_top" xlink:title="openemptybox.h">
<polygon fill="none" stroke="red" points="105.5,-106.5 105.5,-122.5 174.5,-122.5 174.5,-106.5 105.5,-106.5"/>
<text text-anchor="middle" x="140" y="-112.9" font-family="Helvetica,sans-Serif" font-size="7.00">openemptybox.h</text>
</a>
</g>
</g>
<!-- Node1&#45;&gt;Node2 -->
<g id="edge1" class="edge"><title>Node1&#45;&gt;Node2</title>
<path fill="none" stroke="midnightblue" d="M246.085,-159.37C222.944,-149.8 189.746,-136.072 166.674,-126.531"/>
<polygon fill="midnightblue" stroke="midnightblue" points="167.74,-123.184 157.162,-122.597 165.065,-129.653 167.74,-123.184"/>
</g>
<!-- Node8 -->
<g id="node8" class="node"><title>Node8</title>
<polygon fill="none" stroke="#bfbfbf" points="193,-106.5 193,-122.5 271,-122.5 271,-106.5 193,-106.5"/>
<text text-anchor="middle" x="232" y="-112.9" font-family="Helvetica,sans-Serif" font-size="7.00">ui_openemptybox.h</text>
</g>
<!-- Node1&#45;&gt;Node8 -->
<g id="edge9" class="edge"><title>Node1&#45;&gt;Node8</title>
<path fill="none" stroke="midnightblue" d="M264.703,-159.37C258.596,-151.177 250.217,-139.937 243.469,-130.886"/>
<polygon fill="midnightblue" stroke="midnightblue" points="246.193,-128.683 237.41,-122.757 240.581,-132.867 246.193,-128.683"/>
</g>
<!-- Node9 -->
<g id="node9" class="node"><title>Node9</title>
<polygon fill="none" stroke="#bfbfbf" points="289,-106.5 289,-122.5 339,-122.5 339,-106.5 289,-106.5"/>
<text text-anchor="middle" x="314" y="-112.9" font-family="Helvetica,sans-Serif" font-size="7.00">QScrollBar</text>
</g>
<!-- Node1&#45;&gt;Node9 -->
<g id="edge10" class="edge"><title>Node1&#45;&gt;Node9</title>
<path fill="none" stroke="midnightblue" d="M281.297,-159.37C287.404,-151.177 295.783,-139.937 302.531,-130.886"/>
<polygon fill="midnightblue" stroke="midnightblue" points="305.419,-132.867 308.59,-122.757 299.807,-128.683 305.419,-132.867"/>
</g>
<!-- Node10 -->
<g id="node10" class="node"><title>Node10</title>
<polygon fill="none" stroke="#bfbfbf" points="357,-106.5 357,-122.5 401,-122.5 401,-106.5 357,-106.5"/>
<text text-anchor="middle" x="379" y="-112.9" font-family="Helvetica,sans-Serif" font-size="7.00">QToolTip</text>
</g>
<!-- Node1&#45;&gt;Node10 -->
<g id="edge11" class="edge"><title>Node1&#45;&gt;Node10</title>
<path fill="none" stroke="midnightblue" d="M294.451,-159.37C312.398,-150.057 337.935,-136.807 356.24,-127.31"/>
<polygon fill="midnightblue" stroke="midnightblue" points="358.058,-130.309 365.322,-122.597 354.834,-124.096 358.058,-130.309"/>
</g>
<!-- Node3 -->
<g id="node3" class="node"><title>Node3</title>
<polygon fill="none" stroke="#bfbfbf" points="0,-0.5 0,-16.5 44,-16.5 44,-0.5 0,-0.5"/>
<text text-anchor="middle" x="22" y="-6.9" font-family="Helvetica,sans-Serif" font-size="7.00">QWidget</text>
</g>
<!-- Node2&#45;&gt;Node3 -->
<g id="edge2" class="edge"><title>Node2&#45;&gt;Node3</title>
<path fill="none" stroke="midnightblue" d="M105.289,-112.396C74.8757,-109.364 32.2996,-99.6604 11,-70 1.76252,-57.1365 6.9243,-38.8661 12.8993,-25.7744"/>
<polygon fill="midnightblue" stroke="midnightblue" points="16.1612,-27.0835 17.6059,-16.5876 9.93122,-23.8917 16.1612,-27.0835"/>
</g>
<!-- Node4 -->
<g id="node4" class="node"><title>Node4</title>
<g id="a_node4"><a xlink:href="showwidgets_8h.html" target="_top" xlink:title="showwidgets.h">
<polygon fill="none" stroke="red" points="132,-0.5 132,-16.5 194,-16.5 194,-0.5 132,-0.5"/>
<text text-anchor="middle" x="163" y="-6.9" font-family="Helvetica,sans-Serif" font-size="7.00">showwidgets.h</text>
</a>
</g>
</g>
<!-- Node2&#45;&gt;Node4 -->
<g id="edge3" class="edge"><title>Node2&#45;&gt;Node4</title>
<path fill="none" stroke="midnightblue" d="M151.374,-106.489C162.33,-98.9961 178.211,-86.0052 185,-70 191.399,-54.9138 183.251,-37.2621 175.12,-24.9327"/>
<polygon fill="midnightblue" stroke="midnightblue" points="177.843,-22.725 169.147,-16.6724 172.171,-26.8267 177.843,-22.725"/>
</g>
<!-- Node5 -->
<g id="node5" class="node"><title>Node5</title>
<g id="a_node5"><a xlink:href="csqlite__local__db_8h.html" target="_top" xlink:title="csqlite_local_db.h">
<polygon fill="none" stroke="red" points="104,-53.5 104,-69.5 176,-69.5 176,-53.5 104,-53.5"/>
<text text-anchor="middle" x="140" y="-59.9" font-family="Helvetica,sans-Serif" font-size="7.00">csqlite_local_db.h</text>
</a>
</g>
</g>
<!-- Node2&#45;&gt;Node5 -->
<g id="edge4" class="edge"><title>Node2&#45;&gt;Node5</title>
<path fill="none" stroke="midnightblue" d="M140,-106.409C140,-99.5576 140,-88.9106 140,-79.8167"/>
<polygon fill="midnightblue" stroke="midnightblue" points="143.5,-79.5311 140,-69.5311 136.5,-79.5311 143.5,-79.5311"/>
</g>
<!-- Node6 -->
<g id="node6" class="node"><title>Node6</title>
<g id="a_node6"><a xlink:href="menudelivery_8h.html" target="_top" xlink:title="menudelivery.h">
<polygon fill="none" stroke="black" points="20.5,-53.5 20.5,-69.5 85.5,-69.5 85.5,-53.5 20.5,-53.5"/>
<text text-anchor="middle" x="53" y="-59.9" font-family="Helvetica,sans-Serif" font-size="7.00">menudelivery.h</text>
</a>
</g>
</g>
<!-- Node2&#45;&gt;Node6 -->
<g id="edge5" class="edge"><title>Node2&#45;&gt;Node6</title>
<path fill="none" stroke="midnightblue" d="M127.903,-106.409C113.879,-98.1874 90.5293,-84.4999 73.6234,-74.5896"/>
<polygon fill="midnightblue" stroke="midnightblue" points="75.3913,-71.5689 64.9942,-69.5311 71.8512,-77.6078 75.3913,-71.5689"/>
</g>
<!-- Node7 -->
<g id="node7" class="node"><title>Node7</title>
<g id="a_node7"><a xlink:href="custompushbutton_8h.html" target="_top" xlink:title="custompushbutton.h">
<polygon fill="none" stroke="red" points="232,-53.5 232,-69.5 312,-69.5 312,-53.5 232,-53.5"/>
<text text-anchor="middle" x="272" y="-59.9" font-family="Helvetica,sans-Serif" font-size="7.00">custompushbutton.h</text>
</a>
</g>
</g>
<!-- Node2&#45;&gt;Node7 -->
<g id="edge8" class="edge"><title>Node2&#45;&gt;Node7</title>
<path fill="none" stroke="midnightblue" d="M158.354,-106.409C180.618,-97.8068 218.37,-83.2209 244.207,-73.2383"/>
<polygon fill="midnightblue" stroke="midnightblue" points="245.735,-76.4 253.802,-69.5311 243.212,-69.8704 245.735,-76.4"/>
</g>
<!-- Node6&#45;&gt;Node3 -->
<g id="edge6" class="edge"><title>Node6&#45;&gt;Node3</title>
<path fill="none" stroke="midnightblue" d="M48.6896,-53.4087C44.2939,-46.177 37.3273,-34.7159 31.6139,-25.3164"/>
<polygon fill="midnightblue" stroke="midnightblue" points="34.4588,-23.2584 26.2738,-16.5311 28.4772,-26.8943 34.4588,-23.2584"/>
</g>
<!-- Node6&#45;&gt;Node4 -->
<g id="edge7" class="edge"><title>Node6&#45;&gt;Node4</title>
<path fill="none" stroke="midnightblue" d="M68.295,-53.4087C86.5197,-44.9591 117.198,-30.7353 138.686,-20.7726"/>
<polygon fill="midnightblue" stroke="midnightblue" points="140.235,-23.9127 147.835,-16.5311 137.29,-17.5621 140.235,-23.9127"/>
</g>
</g>
</svg>
