<?xml version="1.0" encoding="UTF-8" standalone="no"?>
<!DOCTYPE svg PUBLIC "-//W3C//DTD SVG 1.1//EN"
 "http://www.w3.org/Graphics/SVG/1.1/DTD/svg11.dtd">
<!-- Generated by graphviz version 2.38.0 (20140413.2041)
 -->
<!-- Title: S:/QT_CREATOR/Locker_Control/openemptybox.h Pages: 1 -->
<svg width="441pt" height="192pt"
 viewBox="0.00 0.00 441.35 192.00" xmlns="http://www.w3.org/2000/svg" xmlns:xlink="http://www.w3.org/1999/xlink">
<g id="graph0" class="graph" transform="scale(1 1) rotate(0) translate(4 188)">
<title>S:/QT_CREATOR/Locker_Control/openemptybox.h</title>
<!-- Node1 -->
<g id="node1" class="node"><title>Node1</title>
<polygon fill="#bfbfbf" stroke="black" points="145,-159.5 145,-183.5 243,-183.5 243,-159.5 145,-159.5"/>
<text text-anchor="start" x="153" y="-173.9" font-family="Helvetica,sans-Serif" font-size="7.00">S:/QT_CREATOR/Locker</text>
<text text-anchor="middle" x="194" y="-165.9" font-family="Helvetica,sans-Serif" font-size="7.00">_Control/openemptybox.h</text>
</g>
<!-- Node2 -->
<g id="node2" class="node"><title>Node2</title>
<polygon fill="none" stroke="#bfbfbf" points="0,-53.5 0,-69.5 44,-69.5 44,-53.5 0,-53.5"/>
<text text-anchor="middle" x="22" y="-59.9" font-family="Helvetica,sans-Serif" font-size="7.00">QWidget</text>
</g>
<!-- Node1&#45;&gt;Node2 -->
<g id="edge1" class="edge"><title>Node1&#45;&gt;Node2</title>
<path fill="none" stroke="midnightblue" d="M144.686,-168.849C108.889,-164.937 62.0068,-153.734 34,-123 23.5126,-111.491 21.0673,-93.5382 20.9119,-80.1741"/>
<polygon fill="midnightblue" stroke="midnightblue" points="24.4189,-79.9891 21.2201,-69.8887 17.422,-79.7793 24.4189,-79.9891"/>
</g>
<!-- Node3 -->
<g id="node3" class="node"><title>Node3</title>
<g id="a_node3"><a xlink:href="showwidgets_8h.html" target="_top" xlink:title="showwidgets.h">
<polygon fill="none" stroke="black" points="77,-53.5 77,-69.5 139,-69.5 139,-53.5 77,-53.5"/>
<text text-anchor="middle" x="108" y="-59.9" font-family="Helvetica,sans-Serif" font-size="7.00">showwidgets.h</text>
</a>
</g>
</g>
<!-- Node1&#45;&gt;Node3 -->
<g id="edge2" class="edge"><title>Node1&#45;&gt;Node3</title>
<path fill="none" stroke="midnightblue" d="M185.12,-159.349C169.58,-139.833 137.446,-99.479 119.963,-77.5237"/>
<polygon fill="midnightblue" stroke="midnightblue" points="122.62,-75.2418 113.653,-69.5992 117.144,-79.6023 122.62,-75.2418"/>
</g>
<!-- Node5 -->
<g id="node5" class="node"><title>Node5</title>
<g id="a_node5"><a xlink:href="csqlite__local__db_8h.html" target="_top" xlink:title="csqlite_local_db.h">
<polygon fill="none" stroke="red" points="251,-0.5 251,-16.5 323,-16.5 323,-0.5 251,-0.5"/>
<text text-anchor="middle" x="287" y="-6.9" font-family="Helvetica,sans-Serif" font-size="7.00">csqlite_local_db.h</text>
</a>
</g>
</g>
<!-- Node1&#45;&gt;Node5 -->
<g id="edge4" class="edge"><title>Node1&#45;&gt;Node5</title>
<path fill="none" stroke="midnightblue" d="M192.716,-159.328C190.749,-137.019 189.323,-86.2453 212,-53 222.325,-37.8622 239.79,-27.2848 255.27,-20.3537"/>
<polygon fill="midnightblue" stroke="midnightblue" points="256.67,-23.5619 264.57,-16.5011 253.991,-17.0948 256.67,-23.5619"/>
</g>
<!-- Node6 -->
<g id="node6" class="node"><title>Node6</title>
<g id="a_node6"><a xlink:href="menudelivery_8h.html" target="_top" xlink:title="menudelivery.h">
<polygon fill="none" stroke="black" points="43.5,-106.5 43.5,-122.5 108.5,-122.5 108.5,-106.5 43.5,-106.5"/>
<text text-anchor="middle" x="76" y="-112.9" font-family="Helvetica,sans-Serif" font-size="7.00">menudelivery.h</text>
</a>
</g>
</g>
<!-- Node1&#45;&gt;Node6 -->
<g id="edge5" class="edge"><title>Node1&#45;&gt;Node6</title>
<path fill="none" stroke="midnightblue" d="M170.121,-159.37C149.865,-149.929 120.926,-136.44 100.496,-126.918"/>
<polygon fill="midnightblue" stroke="midnightblue" points="101.769,-123.649 91.2263,-122.597 98.8114,-129.994 101.769,-123.649"/>
</g>
<!-- Node7 -->
<g id="node7" class="node"><title>Node7</title>
<g id="a_node7"><a xlink:href="custompushbutton_8h.html" target="_top" xlink:title="custompushbutton.h">
<polygon fill="none" stroke="red" points="221,-53.5 221,-69.5 301,-69.5 301,-53.5 221,-53.5"/>
<text text-anchor="middle" x="261" y="-59.9" font-family="Helvetica,sans-Serif" font-size="7.00">custompushbutton.h</text>
</a>
</g>
</g>
<!-- Node1&#45;&gt;Node7 -->
<g id="edge8" class="edge"><title>Node1&#45;&gt;Node7</title>
<path fill="none" stroke="midnightblue" d="M200.271,-159.432C207.658,-146.495 220.398,-124.497 232,-106 237.893,-96.6049 244.767,-86.2685 250.343,-78.0297"/>
<polygon fill="midnightblue" stroke="midnightblue" points="253.415,-79.7376 256.156,-69.5036 247.631,-75.7942 253.415,-79.7376"/>
</g>
<!-- Node8 -->
<g id="node8" class="node"><title>Node8</title>
<g id="a_node8"><a xlink:href="customtreewidget_8h.html" target="_top" xlink:title="customtreewidget.h">
<polygon fill="none" stroke="red" points="241.5,-106.5 241.5,-122.5 318.5,-122.5 318.5,-106.5 241.5,-106.5"/>
<text text-anchor="middle" x="280" y="-112.9" font-family="Helvetica,sans-Serif" font-size="7.00">customtreewidget.h</text>
</a>
</g>
</g>
<!-- Node1&#45;&gt;Node8 -->
<g id="edge9" class="edge"><title>Node1&#45;&gt;Node8</title>
<path fill="none" stroke="midnightblue" d="M211.403,-159.37C225.495,-150.358 245.353,-137.658 260.079,-128.24"/>
<polygon fill="midnightblue" stroke="midnightblue" points="262.364,-130.933 268.903,-122.597 258.593,-125.036 262.364,-130.933"/>
</g>
<!-- Node9 -->
<g id="node9" class="node"><title>Node9</title>
<g id="a_node9"><a xlink:href="thread__statusdoors_8h.html" target="_top" xlink:title="thread_statusdoors.h">
<polygon fill="none" stroke="red" points="336.5,-106.5 336.5,-122.5 419.5,-122.5 419.5,-106.5 336.5,-106.5"/>
<text text-anchor="middle" x="378" y="-112.9" font-family="Helvetica,sans-Serif" font-size="7.00">thread_statusdoors.h</text>
</a>
</g>
</g>
<!-- Node1&#45;&gt;Node9 -->
<g id="edge11" class="edge"><title>Node1&#45;&gt;Node9</title>
<path fill="none" stroke="midnightblue" d="M231.235,-159.37C264.494,-149.428 312.767,-134.999 344.751,-125.438"/>
<polygon fill="midnightblue" stroke="midnightblue" points="345.945,-128.735 354.524,-122.517 343.94,-122.028 345.945,-128.735"/>
</g>
<!-- Node10 -->
<g id="node10" class="node"><title>Node10</title>
<g id="a_node10"><a xlink:href="cdoors_8h.html" target="_top" xlink:title="cdoors.h">
<polygon fill="none" stroke="red" points="356,-53.5 356,-69.5 400,-69.5 400,-53.5 356,-53.5"/>
<text text-anchor="middle" x="378" y="-59.9" font-family="Helvetica,sans-Serif" font-size="7.00">cdoors.h</text>
</a>
</g>
</g>
<!-- Node1&#45;&gt;Node10 -->
<g id="edge14" class="edge"><title>Node1&#45;&gt;Node10</title>
<path fill="none" stroke="midnightblue" d="M243.031,-167.689C304.88,-163.001 405.971,-151.149 429,-123 442.817,-106.111 419.853,-86.8879 400.432,-74.7299"/>
<polygon fill="midnightblue" stroke="midnightblue" points="402.02,-71.6029 391.631,-69.5223 398.455,-77.6272 402.02,-71.6029"/>
</g>
<!-- Node4 -->
<g id="node4" class="node"><title>Node4</title>
<polygon fill="none" stroke="#bfbfbf" points="73.5,-0.5 73.5,-16.5 142.5,-16.5 142.5,-0.5 73.5,-0.5"/>
<text text-anchor="middle" x="108" y="-6.9" font-family="Helvetica,sans-Serif" font-size="7.00">QStackedWidget</text>
</g>
<!-- Node3&#45;&gt;Node4 -->
<g id="edge3" class="edge"><title>Node3&#45;&gt;Node4</title>
<path fill="none" stroke="midnightblue" d="M108,-53.4087C108,-46.5576 108,-35.9106 108,-26.8167"/>
<polygon fill="midnightblue" stroke="midnightblue" points="111.5,-26.5311 108,-16.5311 104.5,-26.5311 111.5,-26.5311"/>
</g>
<!-- Node6&#45;&gt;Node2 -->
<g id="edge6" class="edge"><title>Node6&#45;&gt;Node2</title>
<path fill="none" stroke="midnightblue" d="M68.4915,-106.409C60.3509,-98.7203 47.1484,-86.2513 36.8888,-76.5617"/>
<polygon fill="midnightblue" stroke="midnightblue" points="39.118,-73.8528 29.4447,-69.5311 34.3117,-78.9419 39.118,-73.8528"/>
</g>
<!-- Node6&#45;&gt;Node3 -->
<g id="edge7" class="edge"><title>Node6&#45;&gt;Node3</title>
<path fill="none" stroke="midnightblue" d="M80.4495,-106.409C85.0347,-99.1009 92.33,-87.4741 98.2618,-78.0202"/>
<polygon fill="midnightblue" stroke="midnightblue" points="101.238,-79.862 103.588,-69.5311 95.3086,-76.1415 101.238,-79.862"/>
</g>
<!-- Node8&#45;&gt;Node7 -->
<g id="edge10" class="edge"><title>Node8&#45;&gt;Node7</title>
<path fill="none" stroke="midnightblue" d="M277.358,-106.409C274.721,-99.3293 270.573,-88.1966 267.115,-78.9127"/>
<polygon fill="midnightblue" stroke="midnightblue" points="270.39,-77.68 263.619,-69.5311 263.831,-80.1238 270.39,-77.68"/>
</g>
<!-- Node9&#45;&gt;Node10 -->
<g id="edge12" class="edge"><title>Node9&#45;&gt;Node10</title>
<path fill="none" stroke="midnightblue" d="M378,-106.409C378,-99.5576 378,-88.9106 378,-79.8167"/>
<polygon fill="midnightblue" stroke="midnightblue" points="381.5,-79.5311 378,-69.5311 374.5,-79.5311 381.5,-79.5311"/>
</g>
<!-- Node10&#45;&gt;Node5 -->
<g id="edge13" class="edge"><title>Node10&#45;&gt;Node5</title>
<path fill="none" stroke="midnightblue" d="M365.347,-53.4087C350.678,-45.1874 326.255,-31.4999 308.572,-21.5896"/>
<polygon fill="midnightblue" stroke="midnightblue" points="309.98,-18.3669 299.546,-16.5311 306.558,-24.4733 309.98,-18.3669"/>
</g>
</g>
</svg>
