<?xml version="1.0" encoding="UTF-8" standalone="no"?>
<!DOCTYPE svg PUBLIC "-//W3C//DTD SVG 1.1//EN"
 "http://www.w3.org/Graphics/SVG/1.1/DTD/svg11.dtd">
<!-- Generated by graphviz version 2.38.0 (20140413.2041)
 -->
<!-- Title: S:/QT_CREATOR/Locker_Control/scanpackage.h Pages: 1 -->
<svg width="589pt" height="346pt"
 viewBox="0.00 0.00 589.00 346.00" xmlns="http://www.w3.org/2000/svg" xmlns:xlink="http://www.w3.org/1999/xlink">
<g id="graph0" class="graph" transform="scale(1 1) rotate(0) translate(4 342)">
<title>S:/QT_CREATOR/Locker_Control/scanpackage.h</title>
<!-- Node1 -->
<g id="node1" class="node"><title>Node1</title>
<polygon fill="#bfbfbf" stroke="black" points="405.5,-313.5 405.5,-337.5 500.5,-337.5 500.5,-313.5 405.5,-313.5"/>
<text text-anchor="start" x="413.5" y="-327.9" font-family="Helvetica,sans-Serif" font-size="7.00">S:/QT_CREATOR/Locker</text>
<text text-anchor="middle" x="453" y="-319.9" font-family="Helvetica,sans-Serif" font-size="7.00">_Control/scanpackage.h</text>
</g>
<!-- Node2 -->
<g id="node2" class="node"><title>Node2</title>
<g id="a_node2"><a xlink:href="stowpackages_8h.html" target="_top" xlink:title="S:/QT_CREATOR/Locker\l_Control/stowpackages.h">
<polygon fill="none" stroke="black" points="285.5,-252.5 285.5,-276.5 380.5,-276.5 380.5,-252.5 285.5,-252.5"/>
<text text-anchor="start" x="293.5" y="-266.9" font-family="Helvetica,sans-Serif" font-size="7.00">S:/QT_CREATOR/Locker</text>
<text text-anchor="middle" x="333" y="-258.9" font-family="Helvetica,sans-Serif" font-size="7.00">_Control/stowpackages.h</text>
</a>
</g>
</g>
<!-- Node1&#45;&gt;Node2 -->
<g id="edge1" class="edge"><title>Node1&#45;&gt;Node2</title>
<path fill="none" stroke="midnightblue" d="M421.368,-308.948C400.641,-298.757 374.046,-285.681 355.47,-276.548"/>
<polygon fill="midnightblue" stroke="midnightblue" points="419.911,-312.131 430.429,-313.403 422.999,-305.849 419.911,-312.131"/>
</g>
<!-- Node4 -->
<g id="node4" class="node"><title>Node4</title>
<g id="a_node4"><a xlink:href="consolewindows_8h.html" target="_top" xlink:title="S:/QT_CREATOR/Locker\l_Control/consolewindows.h">
<polygon fill="none" stroke="black" points="242.5,-130.5 242.5,-154.5 343.5,-154.5 343.5,-130.5 242.5,-130.5"/>
<text text-anchor="start" x="250.5" y="-144.9" font-family="Helvetica,sans-Serif" font-size="7.00">S:/QT_CREATOR/Locker</text>
<text text-anchor="middle" x="293" y="-136.9" font-family="Helvetica,sans-Serif" font-size="7.00">_Control/consolewindows.h</text>
</a>
</g>
</g>
<!-- Node1&#45;&gt;Node4 -->
<g id="edge13" class="edge"><title>Node1&#45;&gt;Node4</title>
<path fill="none" stroke="midnightblue" d="M456.28,-303.095C459.438,-274.229 460.426,-222.784 434,-191 411.953,-164.484 374.556,-152.706 343.814,-147.505"/>
<polygon fill="midnightblue" stroke="midnightblue" points="452.772,-302.934 454.967,-313.299 459.715,-303.827 452.772,-302.934"/>
</g>
<!-- Node10 -->
<g id="node10" class="node"><title>Node10</title>
<g id="a_node10"><a xlink:href="scanpackage_8cpp.html" target="_top" xlink:title="S:/QT_CREATOR/Locker\l_Control/scanpackage.cpp">
<polygon fill="none" stroke="black" points="481,-252.5 481,-276.5 581,-276.5 581,-252.5 481,-252.5"/>
<text text-anchor="start" x="489" y="-266.9" font-family="Helvetica,sans-Serif" font-size="7.00">S:/QT_CREATOR/Locker</text>
<text text-anchor="middle" x="531" y="-258.9" font-family="Helvetica,sans-Serif" font-size="7.00">_Control/scanpackage.cpp</text>
</a>
</g>
</g>
<!-- Node1&#45;&gt;Node10 -->
<g id="edge14" class="edge"><title>Node1&#45;&gt;Node10</title>
<path fill="none" stroke="midnightblue" d="M475.778,-307.271C488.887,-297.354 504.973,-285.187 516.395,-276.548"/>
<polygon fill="midnightblue" stroke="midnightblue" points="473.535,-304.578 467.671,-313.403 477.758,-310.161 473.535,-304.578"/>
</g>
<!-- Node3 -->
<g id="node3" class="node"><title>Node3</title>
<g id="a_node3"><a xlink:href="deliveryconfirm_8h.html" target="_top" xlink:title="S:/QT_CREATOR/Locker\l_Control/deliveryconfirm.h">
<polygon fill="none" stroke="red" points="163.5,-191.5 163.5,-215.5 264.5,-215.5 264.5,-191.5 163.5,-191.5"/>
<text text-anchor="start" x="171.5" y="-205.9" font-family="Helvetica,sans-Serif" font-size="7.00">S:/QT_CREATOR/Locker</text>
<text text-anchor="middle" x="214" y="-197.9" font-family="Helvetica,sans-Serif" font-size="7.00">_Control/deliveryconfirm.h</text>
</a>
</g>
</g>
<!-- Node2&#45;&gt;Node3 -->
<g id="edge2" class="edge"><title>Node2&#45;&gt;Node3</title>
<path fill="none" stroke="midnightblue" d="M301.632,-247.948C281.077,-237.757 254.703,-224.681 236.283,-215.548"/>
<polygon fill="midnightblue" stroke="midnightblue" points="300.103,-251.096 310.617,-252.403 303.212,-244.825 300.103,-251.096"/>
</g>
<!-- Node2&#45;&gt;Node4 -->
<g id="edge11" class="edge"><title>Node2&#45;&gt;Node4</title>
<path fill="none" stroke="midnightblue" d="M323.136,-243.129C319.346,-234.834 315.173,-225.077 312,-216 304.615,-194.873 298.577,-169.408 295.409,-154.971"/>
<polygon fill="midnightblue" stroke="midnightblue" points="320.06,-244.813 327.476,-252.379 326.397,-241.84 320.06,-244.813"/>
</g>
<!-- Node9 -->
<g id="node9" class="node"><title>Node9</title>
<g id="a_node9"><a xlink:href="stowpackages_8cpp.html" target="_top" xlink:title="S:/QT_CREATOR/Locker\l_Control/stowpackages.cpp">
<polygon fill="none" stroke="black" points="321.5,-191.5 321.5,-215.5 424.5,-215.5 424.5,-191.5 321.5,-191.5"/>
<text text-anchor="start" x="329.5" y="-205.9" font-family="Helvetica,sans-Serif" font-size="7.00">S:/QT_CREATOR/Locker</text>
<text text-anchor="middle" x="373" y="-197.9" font-family="Helvetica,sans-Serif" font-size="7.00">_Control/stowpackages.cpp</text>
</a>
</g>
</g>
<!-- Node2&#45;&gt;Node9 -->
<g id="edge12" class="edge"><title>Node2&#45;&gt;Node9</title>
<path fill="none" stroke="midnightblue" d="M346.242,-243.968C352.647,-234.521 360.099,-223.529 365.51,-215.548"/>
<polygon fill="midnightblue" stroke="midnightblue" points="343.238,-242.161 340.524,-252.403 349.032,-246.09 343.238,-242.161"/>
</g>
<!-- Node3&#45;&gt;Node4 -->
<g id="edge3" class="edge"><title>Node3&#45;&gt;Node4</title>
<path fill="none" stroke="midnightblue" d="M237.07,-185.271C250.347,-175.354 266.639,-163.187 278.207,-154.548"/>
<polygon fill="midnightblue" stroke="midnightblue" points="234.777,-182.614 228.859,-191.403 238.966,-188.223 234.777,-182.614"/>
</g>
<!-- Node5 -->
<g id="node5" class="node"><title>Node5</title>
<g id="a_node5"><a xlink:href="consolewindows_8cpp.html" target="_top" xlink:title="S:/QT_CREATOR/Locker\l_Control/consolewindows.cpp">
<polygon fill="none" stroke="black" points="0,-69.5 0,-93.5 108,-93.5 108,-69.5 0,-69.5"/>
<text text-anchor="start" x="8" y="-83.9" font-family="Helvetica,sans-Serif" font-size="7.00">S:/QT_CREATOR/Locker</text>
<text text-anchor="middle" x="54" y="-75.9" font-family="Helvetica,sans-Serif" font-size="7.00">_Control/consolewindows.cpp</text>
</a>
</g>
</g>
<!-- Node4&#45;&gt;Node5 -->
<g id="edge4" class="edge"><title>Node4&#45;&gt;Node5</title>
<path fill="none" stroke="midnightblue" d="M238.485,-128.042C196.247,-117.615 138.442,-103.346 98.8598,-93.5742"/>
<polygon fill="midnightblue" stroke="midnightblue" points="237.779,-131.473 248.326,-130.472 239.457,-124.677 237.779,-131.473"/>
</g>
<!-- Node6 -->
<g id="node6" class="node"><title>Node6</title>
<g id="a_node6"><a xlink:href="thread__databasemanager_8h.html" target="_top" xlink:title="S:/QT_CREATOR/Locker\l_Control/thread_databasemanager.h">
<polygon fill="none" stroke="red" points="126,-69.5 126,-93.5 256,-93.5 256,-69.5 126,-69.5"/>
<text text-anchor="start" x="134" y="-83.9" font-family="Helvetica,sans-Serif" font-size="7.00">S:/QT_CREATOR/Locker</text>
<text text-anchor="middle" x="191" y="-75.9" font-family="Helvetica,sans-Serif" font-size="7.00">_Control/thread_databasemanager.h</text>
</a>
</g>
</g>
<!-- Node4&#45;&gt;Node6 -->
<g id="edge5" class="edge"><title>Node4&#45;&gt;Node6</title>
<path fill="none" stroke="midnightblue" d="M265.156,-125.394C247.682,-115.287 225.604,-102.516 210.099,-93.5477"/>
<polygon fill="midnightblue" stroke="midnightblue" points="263.406,-128.425 273.815,-130.403 266.911,-122.366 263.406,-128.425"/>
</g>
<!-- Node7 -->
<g id="node7" class="node"><title>Node7</title>
<g id="a_node7"><a xlink:href="sqlite__local__databasemanager_8h.html" target="_top" xlink:title="S:/QT_CREATOR/Locker\l_Control/sqlite_local\l_databasemanager.h">
<polygon fill="none" stroke="red" points="194.5,-0.5 194.5,-32.5 289.5,-32.5 289.5,-0.5 194.5,-0.5"/>
<text text-anchor="start" x="202.5" y="-22.9" font-family="Helvetica,sans-Serif" font-size="7.00">S:/QT_CREATOR/Locker</text>
<text text-anchor="start" x="202.5" y="-14.9" font-family="Helvetica,sans-Serif" font-size="7.00">_Control/sqlite_local</text>
<text text-anchor="middle" x="242" y="-6.9" font-family="Helvetica,sans-Serif" font-size="7.00">_databasemanager.h</text>
</a>
</g>
</g>
<!-- Node4&#45;&gt;Node7 -->
<g id="edge9" class="edge"><title>Node4&#45;&gt;Node7</title>
<path fill="none" stroke="midnightblue" d="M277.868,-120.997C270.923,-106.417 263.244,-86.4094 256,-69 250.884,-56.7046 244.713,-42.9384 241.4,-32.7342"/>
<polygon fill="midnightblue" stroke="midnightblue" points="274.869,-122.821 282.544,-130.126 281.1,-119.63 274.869,-122.821"/>
</g>
<!-- Node8 -->
<g id="node8" class="node"><title>Node8</title>
<g id="a_node8"><a xlink:href="main_8cpp.html" target="_top" xlink:title="S:/QT_CREATOR/Locker\l_Control/main.cpp">
<polygon fill="none" stroke="black" points="330.5,-69.5 330.5,-93.5 425.5,-93.5 425.5,-69.5 330.5,-69.5"/>
<text text-anchor="start" x="338.5" y="-83.9" font-family="Helvetica,sans-Serif" font-size="7.00">S:/QT_CREATOR/Locker</text>
<text text-anchor="middle" x="378" y="-75.9" font-family="Helvetica,sans-Serif" font-size="7.00">_Control/main.cpp</text>
</a>
</g>
</g>
<!-- Node4&#45;&gt;Node8 -->
<g id="edge10" class="edge"><title>Node4&#45;&gt;Node8</title>
<path fill="none" stroke="midnightblue" d="M317.414,-124.554C331.774,-114.587 349.519,-102.269 362.084,-93.5477"/>
<polygon fill="midnightblue" stroke="midnightblue" points="315.207,-121.825 308.988,-130.403 319.199,-127.576 315.207,-121.825"/>
</g>
<!-- Node6&#45;&gt;Node7 -->
<g id="edge6" class="edge"><title>Node6&#45;&gt;Node7</title>
<path fill="none" stroke="midnightblue" d="M200.631,-60.8094C207.267,-51.7358 215.996,-41.1336 223.832,-32.6903"/>
<polygon fill="midnightblue" stroke="midnightblue" points="197.612,-59.0214 194.802,-69.2369 203.369,-63.0033 197.612,-59.0214"/>
</g>
<!-- Node7&#45;&gt;Node4 -->
<g id="edge7" class="edge"><title>Node7&#45;&gt;Node4</title>
<path fill="none" stroke="midnightblue" d="M261.503,-41.5253C265.917,-50.1479 270.243,-59.9705 274,-69 282.915,-90.427 292.49,-115.789 295.084,-130.126"/>
<polygon fill="midnightblue" stroke="midnightblue" points="264.567,-39.833 256.702,-32.7342 258.423,-43.1882 264.567,-39.833"/>
</g>
<!-- Node7&#45;&gt;Node6 -->
<g id="edge8" class="edge"><title>Node7&#45;&gt;Node6</title>
<path fill="none" stroke="midnightblue" d="M229.657,-40.8314C222.3,-50.5366 213.134,-61.3532 205.434,-69.2369"/>
<polygon fill="midnightblue" stroke="midnightblue" points="232.526,-42.8371 235.574,-32.6903 226.863,-38.7214 232.526,-42.8371"/>
</g>
</g>
</svg>
