<?xml version="1.0" encoding="UTF-8" standalone="no"?>
<!DOCTYPE svg PUBLIC "-//W3C//DTD SVG 1.1//EN"
 "http://www.w3.org/Graphics/SVG/1.1/DTD/svg11.dtd">
<!-- Generated by graphviz version 2.38.0 (20140413.2041)
 -->
<!-- Title: S:/QT_CREATOR/Locker_Control/scanpackage.cpp Pages: 1 -->
<svg width="429pt" height="192pt"
 viewBox="0.00 0.00 429.00 192.00" xmlns="http://www.w3.org/2000/svg" xmlns:xlink="http://www.w3.org/1999/xlink">
<g id="graph0" class="graph" transform="scale(1 1) rotate(0) translate(4 188)">
<title>S:/QT_CREATOR/Locker_Control/scanpackage.cpp</title>
<!-- Node1 -->
<g id="node1" class="node"><title>Node1</title>
<polygon fill="#bfbfbf" stroke="black" points="224,-159.5 224,-183.5 324,-183.5 324,-159.5 224,-159.5"/>
<text text-anchor="start" x="232" y="-173.9" font-family="Helvetica,sans-Serif" font-size="7.00">S:/QT_CREATOR/Locker</text>
<text text-anchor="middle" x="274" y="-165.9" font-family="Helvetica,sans-Serif" font-size="7.00">_Control/scanpackage.cpp</text>
</g>
<!-- Node2 -->
<g id="node2" class="node"><title>Node2</title>
<g id="a_node2"><a xlink:href="scanpackage_8h.html" target="_top" xlink:title="scanpackage.h">
<polygon fill="none" stroke="red" points="75,-106.5 75,-122.5 139,-122.5 139,-106.5 75,-106.5"/>
<text text-anchor="middle" x="107" y="-112.9" font-family="Helvetica,sans-Serif" font-size="7.00">scanpackage.h</text>
</a>
</g>
</g>
<!-- Node1&#45;&gt;Node2 -->
<g id="edge1" class="edge"><title>Node1&#45;&gt;Node2</title>
<path fill="none" stroke="midnightblue" d="M240.205,-159.37C210.365,-149.542 167.21,-135.33 138.182,-125.77"/>
<polygon fill="midnightblue" stroke="midnightblue" points="139.142,-122.401 128.549,-122.597 136.952,-129.05 139.142,-122.401"/>
</g>
<!-- Node7 -->
<g id="node7" class="node"><title>Node7</title>
<polygon fill="none" stroke="#bfbfbf" points="157.5,-106.5 157.5,-122.5 230.5,-122.5 230.5,-106.5 157.5,-106.5"/>
<text text-anchor="middle" x="194" y="-112.9" font-family="Helvetica,sans-Serif" font-size="7.00">ui_scanpackage.h</text>
</g>
<!-- Node1&#45;&gt;Node7 -->
<g id="edge9" class="edge"><title>Node1&#45;&gt;Node7</title>
<path fill="none" stroke="midnightblue" d="M257.811,-159.37C244.901,-150.495 226.79,-138.043 213.158,-128.671"/>
<polygon fill="midnightblue" stroke="midnightblue" points="214.78,-125.539 204.556,-122.757 210.814,-131.307 214.78,-125.539"/>
</g>
<!-- Node8 -->
<g id="node8" class="node"><title>Node8</title>
<polygon fill="none" stroke="#bfbfbf" points="249,-106.5 249,-122.5 299,-122.5 299,-106.5 249,-106.5"/>
<text text-anchor="middle" x="274" y="-112.9" font-family="Helvetica,sans-Serif" font-size="7.00">QScrollBar</text>
</g>
<!-- Node1&#45;&gt;Node8 -->
<g id="edge10" class="edge"><title>Node1&#45;&gt;Node8</title>
<path fill="none" stroke="midnightblue" d="M274,-159.37C274,-151.775 274,-141.56 274,-132.899"/>
<polygon fill="midnightblue" stroke="midnightblue" points="277.5,-132.757 274,-122.757 270.5,-132.758 277.5,-132.757"/>
</g>
<!-- Node9 -->
<g id="node9" class="node"><title>Node9</title>
<polygon fill="none" stroke="#bfbfbf" points="317,-106.5 317,-122.5 361,-122.5 361,-106.5 317,-106.5"/>
<text text-anchor="middle" x="339" y="-112.9" font-family="Helvetica,sans-Serif" font-size="7.00">QToolTip</text>
</g>
<!-- Node1&#45;&gt;Node9 -->
<g id="edge11" class="edge"><title>Node1&#45;&gt;Node9</title>
<path fill="none" stroke="midnightblue" d="M287.154,-159.37C297.34,-150.751 311.513,-138.758 322.466,-129.49"/>
<polygon fill="midnightblue" stroke="midnightblue" points="325.05,-131.889 330.423,-122.757 320.528,-126.545 325.05,-131.889"/>
</g>
<!-- Node10 -->
<g id="node10" class="node"><title>Node10</title>
<polygon fill="none" stroke="#bfbfbf" points="379,-106.5 379,-122.5 421,-122.5 421,-106.5 379,-106.5"/>
<text text-anchor="middle" x="400" y="-112.9" font-family="Helvetica,sans-Serif" font-size="7.00">QDebug</text>
</g>
<!-- Node1&#45;&gt;Node10 -->
<g id="edge12" class="edge"><title>Node1&#45;&gt;Node10</title>
<path fill="none" stroke="midnightblue" d="M299.498,-159.37C321.324,-149.843 352.591,-136.195 374.435,-126.659"/>
<polygon fill="midnightblue" stroke="midnightblue" points="375.977,-129.805 383.741,-122.597 373.176,-123.39 375.977,-129.805"/>
</g>
<!-- Node3 -->
<g id="node3" class="node"><title>Node3</title>
<polygon fill="none" stroke="#bfbfbf" points="0,-0.5 0,-16.5 44,-16.5 44,-0.5 0,-0.5"/>
<text text-anchor="middle" x="22" y="-6.9" font-family="Helvetica,sans-Serif" font-size="7.00">QWidget</text>
</g>
<!-- Node2&#45;&gt;Node3 -->
<g id="edge2" class="edge"><title>Node2&#45;&gt;Node3</title>
<path fill="none" stroke="midnightblue" d="M91.7446,-106.425C77.5605,-99.1347 56.7552,-86.5155 44,-70 34.0666,-57.1382 28.3199,-39.3689 25.2084,-26.4164"/>
<polygon fill="midnightblue" stroke="midnightblue" points="28.6084,-25.5769 23.1136,-16.5183 21.7601,-27.0264 28.6084,-25.5769"/>
</g>
<!-- Node4 -->
<g id="node4" class="node"><title>Node4</title>
<g id="a_node4"><a xlink:href="showwidgets_8h.html" target="_top" xlink:title="showwidgets.h">
<polygon fill="none" stroke="red" points="62,-0.5 62,-16.5 124,-16.5 124,-0.5 62,-0.5"/>
<text text-anchor="middle" x="93" y="-6.9" font-family="Helvetica,sans-Serif" font-size="7.00">showwidgets.h</text>
</a>
</g>
</g>
<!-- Node2&#45;&gt;Node4 -->
<g id="edge3" class="edge"><title>Node2&#45;&gt;Node4</title>
<path fill="none" stroke="midnightblue" d="M109.852,-106.335C113.997,-94.9217 120.705,-71.9641 116,-53 113.572,-43.2149 108.495,-33.207 103.727,-25.2613"/>
<polygon fill="midnightblue" stroke="midnightblue" points="106.609,-23.2721 98.2632,-16.7456 100.718,-27.0522 106.609,-23.2721"/>
</g>
<!-- Node5 -->
<g id="node5" class="node"><title>Node5</title>
<g id="a_node5"><a xlink:href="_data_structures_8h.html" target="_top" xlink:title="Definnitions des formats de communications des données entre les classes de l&#39;application LC...">
<polygon fill="none" stroke="red" points="142,-0.5 142,-16.5 212,-16.5 212,-0.5 142,-0.5"/>
<text text-anchor="middle" x="177" y="-6.9" font-family="Helvetica,sans-Serif" font-size="7.00">DataStructures.h</text>
</a>
</g>
</g>
<!-- Node2&#45;&gt;Node5 -->
<g id="edge4" class="edge"><title>Node2&#45;&gt;Node5</title>
<path fill="none" stroke="midnightblue" d="M111.811,-106.352C123.001,-89.7274 150.989,-48.1447 166.404,-25.2426"/>
<polygon fill="midnightblue" stroke="midnightblue" points="169.475,-26.9486 172.155,-16.6984 163.668,-23.0399 169.475,-26.9486"/>
</g>
<!-- Node6 -->
<g id="node6" class="node"><title>Node6</title>
<g id="a_node6"><a xlink:href="boxchoice_8h.html" target="_top" xlink:title="boxchoice.h">
<polygon fill="none" stroke="red" points="53,-53.5 53,-69.5 107,-69.5 107,-53.5 53,-53.5"/>
<text text-anchor="middle" x="80" y="-59.9" font-family="Helvetica,sans-Serif" font-size="7.00">boxchoice.h</text>
</a>
</g>
</g>
<!-- Node2&#45;&gt;Node6 -->
<g id="edge5" class="edge"><title>Node2&#45;&gt;Node6</title>
<path fill="none" stroke="midnightblue" d="M103.246,-106.409C99.4575,-99.2531 93.4771,-87.9567 88.5309,-78.6139"/>
<polygon fill="midnightblue" stroke="midnightblue" points="91.4945,-76.7314 83.7223,-69.5311 85.308,-80.0066 91.4945,-76.7314"/>
</g>
<!-- Node6&#45;&gt;Node3 -->
<g id="edge6" class="edge"><title>Node6&#45;&gt;Node3</title>
<path fill="none" stroke="midnightblue" d="M71.9353,-53.4087C63.1051,-45.6442 48.7299,-33.0039 37.6653,-23.2747"/>
<polygon fill="midnightblue" stroke="midnightblue" points="39.8171,-20.5061 29.9962,-16.5311 35.1947,-25.7629 39.8171,-20.5061"/>
</g>
<!-- Node6&#45;&gt;Node4 -->
<g id="edge7" class="edge"><title>Node6&#45;&gt;Node4</title>
<path fill="none" stroke="midnightblue" d="M81.8076,-53.4087C83.5733,-46.4815 86.3283,-35.6735 88.6631,-26.5142"/>
<polygon fill="midnightblue" stroke="midnightblue" points="92.1292,-27.0858 91.2078,-16.5311 85.3461,-25.3567 92.1292,-27.0858"/>
</g>
<!-- Node6&#45;&gt;Node5 -->
<g id="edge8" class="edge"><title>Node6&#45;&gt;Node5</title>
<path fill="none" stroke="midnightblue" d="M93.4874,-53.4087C109.269,-45.1113 135.64,-31.246 154.528,-21.3153"/>
<polygon fill="midnightblue" stroke="midnightblue" points="156.405,-24.2828 163.627,-16.5311 153.147,-18.0869 156.405,-24.2828"/>
</g>
</g>
</svg>
