<?xml version="1.0" encoding="UTF-8" standalone="no"?>
<!DOCTYPE svg PUBLIC "-//W3C//DTD SVG 1.1//EN"
 "http://www.w3.org/Graphics/SVG/1.1/DTD/svg11.dtd">
<!-- Generated by graphviz version 2.38.0 (20140413.2041)
 -->
<!-- Title: S:/QT_CREATOR/Locker_Control/scanpackage.h Pages: 1 -->
<svg width="346pt" height="192pt"
 viewBox="0.00 0.00 346.00 192.00" xmlns="http://www.w3.org/2000/svg" xmlns:xlink="http://www.w3.org/1999/xlink">
<g id="graph0" class="graph" transform="scale(1 1) rotate(0) translate(4 188)">
<title>S:/QT_CREATOR/Locker_Control/scanpackage.h</title>
<!-- Node1 -->
<g id="node1" class="node"><title>Node1</title>
<polygon fill="#bfbfbf" stroke="black" points="103.5,-159.5 103.5,-183.5 198.5,-183.5 198.5,-159.5 103.5,-159.5"/>
<text text-anchor="start" x="111.5" y="-173.9" font-family="Helvetica,sans-Serif" font-size="7.00">S:/QT_CREATOR/Locker</text>
<text text-anchor="middle" x="151" y="-165.9" font-family="Helvetica,sans-Serif" font-size="7.00">_Control/scanpackage.h</text>
</g>
<!-- Node2 -->
<g id="node2" class="node"><title>Node2</title>
<polygon fill="none" stroke="#bfbfbf" points="0,-53.5 0,-69.5 44,-69.5 44,-53.5 0,-53.5"/>
<text text-anchor="middle" x="22" y="-59.9" font-family="Helvetica,sans-Serif" font-size="7.00">QWidget</text>
</g>
<!-- Node1&#45;&gt;Node2 -->
<g id="edge1" class="edge"><title>Node1&#45;&gt;Node2</title>
<path fill="none" stroke="midnightblue" d="M137.681,-159.349C113.852,-139.4 64.0147,-97.6751 38.2297,-76.0877"/>
<polygon fill="midnightblue" stroke="midnightblue" points="40.394,-73.335 30.4796,-69.5992 35.9004,-78.7023 40.394,-73.335"/>
</g>
<!-- Node3 -->
<g id="node3" class="node"><title>Node3</title>
<g id="a_node3"><a xlink:href="showwidgets_8h.html" target="_top" xlink:title="showwidgets.h">
<polygon fill="none" stroke="black" points="62,-53.5 62,-69.5 124,-69.5 124,-53.5 62,-53.5"/>
<text text-anchor="middle" x="93" y="-59.9" font-family="Helvetica,sans-Serif" font-size="7.00">showwidgets.h</text>
</a>
</g>
</g>
<!-- Node1&#45;&gt;Node3 -->
<g id="edge2" class="edge"><title>Node1&#45;&gt;Node3</title>
<path fill="none" stroke="midnightblue" d="M141.095,-159.452C133.212,-150.224 122.324,-136.449 115,-123 107.388,-109.022 101.437,-91.8743 97.6548,-79.4083"/>
<polygon fill="midnightblue" stroke="midnightblue" points="100.933,-78.1444 94.8052,-69.5016 94.206,-80.0795 100.933,-78.1444"/>
</g>
<!-- Node5 -->
<g id="node5" class="node"><title>Node5</title>
<g id="a_node5"><a xlink:href="_data_structures_8h.html" target="_top" xlink:title="Definnitions des formats de communications des données entre les classes de l&#39;application LC...">
<polygon fill="none" stroke="black" points="268,-53.5 268,-69.5 338,-69.5 338,-53.5 268,-53.5"/>
<text text-anchor="middle" x="303" y="-59.9" font-family="Helvetica,sans-Serif" font-size="7.00">DataStructures.h</text>
</a>
</g>
</g>
<!-- Node1&#45;&gt;Node5 -->
<g id="edge4" class="edge"><title>Node1&#45;&gt;Node5</title>
<path fill="none" stroke="midnightblue" d="M162.419,-159.195C176.444,-145.639 201.3,-122.664 225,-106 242.331,-93.8141 263.383,-82.2439 279.246,-74.1038"/>
<polygon fill="midnightblue" stroke="midnightblue" points="281.018,-77.1301 288.372,-69.5039 277.867,-70.8792 281.018,-77.1301"/>
</g>
<!-- Node8 -->
<g id="node8" class="node"><title>Node8</title>
<g id="a_node8"><a xlink:href="boxchoice_8h.html" target="_top" xlink:title="boxchoice.h">
<polygon fill="none" stroke="red" points="124,-106.5 124,-122.5 178,-122.5 178,-106.5 124,-106.5"/>
<text text-anchor="middle" x="151" y="-112.9" font-family="Helvetica,sans-Serif" font-size="7.00">boxchoice.h</text>
</a>
</g>
</g>
<!-- Node1&#45;&gt;Node8 -->
<g id="edge7" class="edge"><title>Node1&#45;&gt;Node8</title>
<path fill="none" stroke="midnightblue" d="M151,-159.37C151,-151.775 151,-141.56 151,-132.899"/>
<polygon fill="midnightblue" stroke="midnightblue" points="154.5,-132.757 151,-122.757 147.5,-132.758 154.5,-132.757"/>
</g>
<!-- Node10 -->
<g id="node10" class="node"><title>Node10</title>
<g id="a_node10"><a xlink:href="custompushbutton_8h.html" target="_top" xlink:title="custompushbutton.h">
<polygon fill="none" stroke="red" points="234,-106.5 234,-122.5 314,-122.5 314,-106.5 234,-106.5"/>
<text text-anchor="middle" x="274" y="-112.9" font-family="Helvetica,sans-Serif" font-size="7.00">custompushbutton.h</text>
</a>
</g>
</g>
<!-- Node1&#45;&gt;Node10 -->
<g id="edge13" class="edge"><title>Node1&#45;&gt;Node10</title>
<path fill="none" stroke="midnightblue" d="M175.891,-159.37C197.101,-149.886 227.445,-136.317 248.755,-126.788"/>
<polygon fill="midnightblue" stroke="midnightblue" points="250.428,-129.874 258.129,-122.597 247.571,-123.484 250.428,-129.874"/>
</g>
<!-- Node4 -->
<g id="node4" class="node"><title>Node4</title>
<polygon fill="none" stroke="#bfbfbf" points="58.5,-0.5 58.5,-16.5 127.5,-16.5 127.5,-0.5 58.5,-0.5"/>
<text text-anchor="middle" x="93" y="-6.9" font-family="Helvetica,sans-Serif" font-size="7.00">QStackedWidget</text>
</g>
<!-- Node3&#45;&gt;Node4 -->
<g id="edge3" class="edge"><title>Node3&#45;&gt;Node4</title>
<path fill="none" stroke="midnightblue" d="M93,-53.4087C93,-46.5576 93,-35.9106 93,-26.8167"/>
<polygon fill="midnightblue" stroke="midnightblue" points="96.5001,-26.5311 93,-16.5311 89.5001,-26.5311 96.5001,-26.5311"/>
</g>
<!-- Node6 -->
<g id="node6" class="node"><title>Node6</title>
<polygon fill="none" stroke="#bfbfbf" points="283,-0.5 283,-16.5 323,-16.5 323,-0.5 283,-0.5"/>
<text text-anchor="middle" x="303" y="-6.9" font-family="Helvetica,sans-Serif" font-size="7.00">QString</text>
</g>
<!-- Node5&#45;&gt;Node6 -->
<g id="edge5" class="edge"><title>Node5&#45;&gt;Node6</title>
<path fill="none" stroke="midnightblue" d="M303,-53.4087C303,-46.5576 303,-35.9106 303,-26.8167"/>
<polygon fill="midnightblue" stroke="midnightblue" points="306.5,-26.5311 303,-16.5311 299.5,-26.5311 306.5,-26.5311"/>
</g>
<!-- Node7 -->
<g id="node7" class="node"><title>Node7</title>
<polygon fill="none" stroke="#bfbfbf" points="188.5,-0.5 188.5,-16.5 221.5,-16.5 221.5,-0.5 188.5,-0.5"/>
<text text-anchor="middle" x="205" y="-6.9" font-family="Helvetica,sans-Serif" font-size="7.00">QList</text>
</g>
<!-- Node5&#45;&gt;Node7 -->
<g id="edge6" class="edge"><title>Node5&#45;&gt;Node7</title>
<path fill="none" stroke="midnightblue" d="M289.374,-53.4087C273.356,-45.0732 246.542,-31.1187 227.442,-21.1788"/>
<polygon fill="midnightblue" stroke="midnightblue" points="228.997,-18.0428 218.511,-16.5311 225.766,-24.2523 228.997,-18.0428"/>
</g>
<!-- Node8&#45;&gt;Node2 -->
<g id="edge8" class="edge"><title>Node8&#45;&gt;Node2</title>
<path fill="none" stroke="midnightblue" d="M133.063,-106.409C111.305,-97.8068 74.4116,-83.2209 49.1617,-73.2383"/>
<polygon fill="midnightblue" stroke="midnightblue" points="50.371,-69.9529 39.7846,-69.5311 47.7973,-76.4626 50.371,-69.9529"/>
</g>
<!-- Node8&#45;&gt;Node3 -->
<g id="edge11" class="edge"><title>Node8&#45;&gt;Node3</title>
<path fill="none" stroke="midnightblue" d="M142.935,-106.409C134.105,-98.6442 119.73,-86.0039 108.665,-76.2747"/>
<polygon fill="midnightblue" stroke="midnightblue" points="110.817,-73.5061 100.996,-69.5311 106.195,-78.7629 110.817,-73.5061"/>
</g>
<!-- Node8&#45;&gt;Node5 -->
<g id="edge12" class="edge"><title>Node8&#45;&gt;Node5</title>
<path fill="none" stroke="midnightblue" d="M172.135,-106.409C198.226,-97.6546 242.788,-82.7027 272.562,-72.7127"/>
<polygon fill="midnightblue" stroke="midnightblue" points="273.677,-76.0304 282.045,-69.5311 271.451,-69.394 273.677,-76.0304"/>
</g>
<!-- Node8&#45;&gt;Node7 -->
<g id="edge10" class="edge"><title>Node8&#45;&gt;Node7</title>
<path fill="none" stroke="midnightblue" d="M152.491,-106.473C155.133,-94.859 161.292,-71.1421 171,-53 176.513,-42.6974 184.486,-32.3427 191.325,-24.3218"/>
<polygon fill="midnightblue" stroke="midnightblue" points="194.115,-26.451 198.132,-16.6472 188.878,-21.8063 194.115,-26.451"/>
</g>
<!-- Node9 -->
<g id="node9" class="node"><title>Node9</title>
<polygon fill="none" stroke="#bfbfbf" points="180.5,-53.5 180.5,-69.5 249.5,-69.5 249.5,-53.5 180.5,-53.5"/>
<text text-anchor="middle" x="215" y="-59.9" font-family="Helvetica,sans-Serif" font-size="7.00">QGraphicsScene</text>
</g>
<!-- Node8&#45;&gt;Node9 -->
<g id="edge9" class="edge"><title>Node8&#45;&gt;Node9</title>
<path fill="none" stroke="midnightblue" d="M159.899,-106.409C169.738,-98.568 185.817,-85.7556 198.072,-75.9894"/>
<polygon fill="midnightblue" stroke="midnightblue" points="200.537,-78.5004 206.177,-69.5311 196.175,-73.026 200.537,-78.5004"/>
</g>
</g>
</svg>
