<?xml version="1.0" encoding="UTF-8" standalone="no"?>
<!DOCTYPE svg PUBLIC "-//W3C//DTD SVG 1.1//EN"
 "http://www.w3.org/Graphics/SVG/1.1/DTD/svg11.dtd">
<!-- Generated by graphviz version 2.38.0 (20140413.2041)
 -->
<!-- Title: S:/QT_CREATOR/Locker_Control/scanpackage.cpp Pages: 1 -->
<svg width="437pt" height="139pt"
 viewBox="0.00 0.00 437.00 139.00" xmlns="http://www.w3.org/2000/svg" xmlns:xlink="http://www.w3.org/1999/xlink">
<g id="graph0" class="graph" transform="scale(1 1) rotate(0) translate(4 135)">
<title>S:/QT_CREATOR/Locker_Control/scanpackage.cpp</title>
<!-- Node1 -->
<g id="node1" class="node"><title>Node1</title>
<polygon fill="#bfbfbf" stroke="black" points="232,-106.5 232,-130.5 332,-130.5 332,-106.5 232,-106.5"/>
<text text-anchor="start" x="240" y="-120.9" font-family="Helvetica,sans-Serif" font-size="7.00">S:/QT_CREATOR/Locker</text>
<text text-anchor="middle" x="282" y="-112.9" font-family="Helvetica,sans-Serif" font-size="7.00">_Control/scanpackage.cpp</text>
</g>
<!-- Node2 -->
<g id="node2" class="node"><title>Node2</title>
<g id="a_node2"><a xlink:href="scanpackage_8h.html" target="_top" target="_top" xlink:title="scanpackage.h">
<polygon fill="none" stroke="red" points="83,-53.5 83,-69.5 147,-69.5 147,-53.5 83,-53.5"/>
<text text-anchor="middle" x="115" y="-59.9" font-family="Helvetica,sans-Serif" font-size="7.00">scanpackage.h</text>
</a>
</g>
</g>
<!-- Node1&#45;&gt;Node2 -->
<g id="edge1" class="edge"><title>Node1&#45;&gt;Node2</title>
<path fill="none" stroke="midnightblue" d="M248.205,-106.37C218.365,-96.5425 175.21,-82.3298 146.182,-72.7697"/>
<polygon fill="midnightblue" stroke="midnightblue" points="147.142,-69.4008 136.549,-69.597 144.952,-76.0495 147.142,-69.4008"/>
</g>
<!-- Node7 -->
<g id="node7" class="node"><title>Node7</title>
<polygon fill="none" stroke="#bfbfbf" points="165.5,-53.5 165.5,-69.5 238.5,-69.5 238.5,-53.5 165.5,-53.5"/>
<text text-anchor="middle" x="202" y="-59.9" font-family="Helvetica,sans-Serif" font-size="7.00">ui_scanpackage.h</text>
</g>
<!-- Node1&#45;&gt;Node7 -->
<g id="edge6" class="edge"><title>Node1&#45;&gt;Node7</title>
<path fill="none" stroke="midnightblue" d="M265.811,-106.37C252.901,-97.4947 234.79,-85.0428 221.158,-75.6714"/>
<polygon fill="midnightblue" stroke="midnightblue" points="222.78,-72.5386 212.556,-69.7575 218.814,-78.307 222.78,-72.5386"/>
</g>
<!-- Node8 -->
<g id="node8" class="node"><title>Node8</title>
<polygon fill="none" stroke="#bfbfbf" points="257,-53.5 257,-69.5 307,-69.5 307,-53.5 257,-53.5"/>
<text text-anchor="middle" x="282" y="-59.9" font-family="Helvetica,sans-Serif" font-size="7.00">QScrollBar</text>
</g>
<!-- Node1&#45;&gt;Node8 -->
<g id="edge7" class="edge"><title>Node1&#45;&gt;Node8</title>
<path fill="none" stroke="midnightblue" d="M282,-106.37C282,-98.7748 282,-88.5603 282,-79.8986"/>
<polygon fill="midnightblue" stroke="midnightblue" points="285.5,-79.7574 282,-69.7575 278.5,-79.7575 285.5,-79.7574"/>
</g>
<!-- Node9 -->
<g id="node9" class="node"><title>Node9</title>
<polygon fill="none" stroke="#bfbfbf" points="325,-53.5 325,-69.5 369,-69.5 369,-53.5 325,-53.5"/>
<text text-anchor="middle" x="347" y="-59.9" font-family="Helvetica,sans-Serif" font-size="7.00">QToolTip</text>
</g>
<!-- Node1&#45;&gt;Node9 -->
<g id="edge8" class="edge"><title>Node1&#45;&gt;Node9</title>
<path fill="none" stroke="midnightblue" d="M295.154,-106.37C305.34,-97.7507 319.513,-85.7582 330.466,-76.4899"/>
<polygon fill="midnightblue" stroke="midnightblue" points="333.05,-78.8888 338.423,-69.7575 328.528,-73.5451 333.05,-78.8888"/>
</g>
<!-- Node10 -->
<g id="node10" class="node"><title>Node10</title>
<polygon fill="none" stroke="#bfbfbf" points="387,-53.5 387,-69.5 429,-69.5 429,-53.5 387,-53.5"/>
<text text-anchor="middle" x="408" y="-59.9" font-family="Helvetica,sans-Serif" font-size="7.00">QDebug</text>
</g>
<!-- Node1&#45;&gt;Node10 -->
<g id="edge9" class="edge"><title>Node1&#45;&gt;Node10</title>
<path fill="none" stroke="midnightblue" d="M307.498,-106.37C329.324,-96.8429 360.591,-83.1946 382.435,-73.6591"/>
<polygon fill="midnightblue" stroke="midnightblue" points="383.977,-76.8053 391.741,-69.597 381.176,-70.3899 383.977,-76.8053"/>
</g>
<!-- Node3 -->
<g id="node3" class="node"><title>Node3</title>
<polygon fill="none" stroke="#bfbfbf" points="0,-0.5 0,-16.5 44,-16.5 44,-0.5 0,-0.5"/>
<text text-anchor="middle" x="22" y="-6.9" font-family="Helvetica,sans-Serif" font-size="7.00">QWidget</text>
</g>
<!-- Node2&#45;&gt;Node3 -->
<g id="edge2" class="edge"><title>Node2&#45;&gt;Node3</title>
<path fill="none" stroke="midnightblue" d="M102.069,-53.4087C87.0771,-45.1874 62.1175,-31.4999 44.0457,-21.5896"/>
<polygon fill="midnightblue" stroke="midnightblue" points="45.2725,-18.2706 34.8214,-16.5311 41.9066,-24.4083 45.2725,-18.2706"/>
</g>
<!-- Node4 -->
<g id="node4" class="node"><title>Node4</title>
<polygon fill="none" stroke="#bfbfbf" points="62,-0.5 62,-16.5 100,-16.5 100,-0.5 62,-0.5"/>
<text text-anchor="middle" x="81" y="-6.9" font-family="Helvetica,sans-Serif" font-size="7.00">QLabel</text>
</g>
<!-- Node2&#45;&gt;Node4 -->
<g id="edge3" class="edge"><title>Node2&#45;&gt;Node4</title>
<path fill="none" stroke="midnightblue" d="M110.272,-53.4087C105.401,-46.1009 97.6494,-34.4741 91.3468,-25.0202"/>
<polygon fill="midnightblue" stroke="midnightblue" points="94.1466,-22.9102 85.6874,-16.5311 88.3223,-26.7931 94.1466,-22.9102"/>
</g>
<!-- Node5 -->
<g id="node5" class="node"><title>Node5</title>
<g id="a_node5"><a xlink:href="showwidgets_8h.html" target="_top" target="_top" xlink:title="showwidgets.h">
<polygon fill="none" stroke="red" points="118,-0.5 118,-16.5 180,-16.5 180,-0.5 118,-0.5"/>
<text text-anchor="middle" x="149" y="-6.9" font-family="Helvetica,sans-Serif" font-size="7.00">showwidgets.h</text>
</a>
</g>
</g>
<!-- Node2&#45;&gt;Node5 -->
<g id="edge4" class="edge"><title>Node2&#45;&gt;Node5</title>
<path fill="none" stroke="midnightblue" d="M119.728,-53.4087C124.599,-46.1009 132.351,-34.4741 138.653,-25.0202"/>
<polygon fill="midnightblue" stroke="midnightblue" points="141.678,-26.7931 144.313,-16.5311 135.853,-22.9102 141.678,-26.7931"/>
</g>
<!-- Node6 -->
<g id="node6" class="node"><title>Node6</title>
<g id="a_node6"><a xlink:href="_data_structures_8h.html" target="_top" target="_top" xlink:title="Definnitions des formats de communications des données entre les classes de l&#39;application LC...">
<polygon fill="none" stroke="red" points="198,-0.5 198,-16.5 268,-16.5 268,-0.5 198,-0.5"/>
<text text-anchor="middle" x="233" y="-6.9" font-family="Helvetica,sans-Serif" font-size="7.00">DataStructures.h</text>
</a>
</g>
</g>
<!-- Node2&#45;&gt;Node6 -->
<g id="edge5" class="edge"><title>Node2&#45;&gt;Node6</title>
<path fill="none" stroke="midnightblue" d="M131.407,-53.4087C151.134,-44.8829 184.461,-30.4786 207.539,-20.5044"/>
<polygon fill="midnightblue" stroke="midnightblue" points="208.941,-23.7113 216.732,-16.5311 206.164,-17.2857 208.941,-23.7113"/>
</g>
</g>
</svg>
