<?xml version="1.0" encoding="UTF-8" standalone="no"?>
<!DOCTYPE svg PUBLIC "-//W3C//DTD SVG 1.1//EN"
 "http://www.w3.org/Graphics/SVG/1.1/DTD/svg11.dtd">
<!-- Generated by graphviz version 2.38.0 (20140413.2041)
 -->
<!-- Title: S:/QT_CREATOR/Locker_Control/scanpackage.h Pages: 1 -->
<svg width="375pt" height="192pt"
 viewBox="0.00 0.00 375.00 192.00" xmlns="http://www.w3.org/2000/svg" xmlns:xlink="http://www.w3.org/1999/xlink">
<g id="graph0" class="graph" transform="scale(1 1) rotate(0) translate(4 188)">
<title>S:/QT_CREATOR/Locker_Control/scanpackage.h</title>
<!-- Node1 -->
<g id="node1" class="node"><title>Node1</title>
<polygon fill="#bfbfbf" stroke="black" points="127.5,-159.5 127.5,-183.5 222.5,-183.5 222.5,-159.5 127.5,-159.5"/>
<text text-anchor="start" x="135.5" y="-173.9" font-family="Helvetica,sans-Serif" font-size="7.00">S:/QT_CREATOR/Locker</text>
<text text-anchor="middle" x="175" y="-165.9" font-family="Helvetica,sans-Serif" font-size="7.00">_Control/scanpackage.h</text>
</g>
<!-- Node2 -->
<g id="node2" class="node"><title>Node2</title>
<polygon fill="none" stroke="#bfbfbf" points="0,-53.5 0,-69.5 44,-69.5 44,-53.5 0,-53.5"/>
<text text-anchor="middle" x="22" y="-59.9" font-family="Helvetica,sans-Serif" font-size="7.00">QWidget</text>
</g>
<!-- Node1&#45;&gt;Node2 -->
<g id="edge1" class="edge"><title>Node1&#45;&gt;Node2</title>
<path fill="none" stroke="midnightblue" d="M156.496,-159.458C141.118,-150.122 118.795,-136.196 100,-123 78.4265,-107.853 54.6193,-89.0673 39.0505,-76.4833"/>
<polygon fill="midnightblue" stroke="midnightblue" points="40.881,-73.4606 30.9149,-69.8651 36.4636,-78.8908 40.881,-73.4606"/>
</g>
<!-- Node3 -->
<g id="node3" class="node"><title>Node3</title>
<polygon fill="none" stroke="#bfbfbf" points="231,-106.5 231,-122.5 269,-122.5 269,-106.5 231,-106.5"/>
<text text-anchor="middle" x="250" y="-112.9" font-family="Helvetica,sans-Serif" font-size="7.00">QLabel</text>
</g>
<!-- Node1&#45;&gt;Node3 -->
<g id="edge2" class="edge"><title>Node1&#45;&gt;Node3</title>
<path fill="none" stroke="midnightblue" d="M190.177,-159.37C202.28,-150.495 219.26,-138.043 232.039,-128.671"/>
<polygon fill="midnightblue" stroke="midnightblue" points="234.109,-131.494 240.103,-122.757 229.97,-125.849 234.109,-131.494"/>
</g>
<!-- Node4 -->
<g id="node4" class="node"><title>Node4</title>
<g id="a_node4"><a xlink:href="showwidgets_8h.html" target="_top" target="_top" xlink:title="showwidgets.h">
<polygon fill="none" stroke="black" points="62,-53.5 62,-69.5 124,-69.5 124,-53.5 62,-53.5"/>
<text text-anchor="middle" x="93" y="-59.9" font-family="Helvetica,sans-Serif" font-size="7.00">showwidgets.h</text>
</a>
</g>
</g>
<!-- Node1&#45;&gt;Node4 -->
<g id="edge3" class="edge"><title>Node1&#45;&gt;Node4</title>
<path fill="none" stroke="midnightblue" d="M154.131,-159.372C140.355,-151.041 122.899,-138.445 112,-123 102.868,-110.06 97.9998,-92.5579 95.4867,-79.7075"/>
<polygon fill="midnightblue" stroke="midnightblue" points="98.9387,-79.1293 93.8366,-69.8438 92.0346,-80.2843 98.9387,-79.1293"/>
</g>
<!-- Node6 -->
<g id="node6" class="node"><title>Node6</title>
<g id="a_node6"><a xlink:href="_data_structures_8h.html" target="_top" target="_top" xlink:title="Definnitions des formats de communications des données entre les classes de l&#39;application LC...">
<polygon fill="none" stroke="black" points="180,-53.5 180,-69.5 250,-69.5 250,-53.5 180,-53.5"/>
<text text-anchor="middle" x="215" y="-59.9" font-family="Helvetica,sans-Serif" font-size="7.00">DataStructures.h</text>
</a>
</g>
</g>
<!-- Node1&#45;&gt;Node6 -->
<g id="edge5" class="edge"><title>Node1&#45;&gt;Node6</title>
<path fill="none" stroke="midnightblue" d="M179.13,-159.349C186.197,-140.267 200.644,-101.262 208.884,-79.0142"/>
<polygon fill="midnightblue" stroke="midnightblue" points="212.18,-80.1923 212.371,-69.5992 205.615,-77.7611 212.18,-80.1923"/>
</g>
<!-- Node9 -->
<g id="node9" class="node"><title>Node9</title>
<g id="a_node9"><a xlink:href="boxchoice_8h.html" target="_top" target="_top" xlink:title="boxchoice.h">
<polygon fill="none" stroke="red" points="121,-106.5 121,-122.5 175,-122.5 175,-106.5 121,-106.5"/>
<text text-anchor="middle" x="148" y="-112.9" font-family="Helvetica,sans-Serif" font-size="7.00">boxchoice.h</text>
</a>
</g>
</g>
<!-- Node1&#45;&gt;Node9 -->
<g id="edge8" class="edge"><title>Node1&#45;&gt;Node9</title>
<path fill="none" stroke="midnightblue" d="M169.536,-159.37C165.64,-151.433 160.34,-140.637 155.973,-131.741"/>
<polygon fill="midnightblue" stroke="midnightblue" points="159.111,-130.192 151.563,-122.757 152.828,-133.277 159.111,-130.192"/>
</g>
<!-- Node10 -->
<g id="node10" class="node"><title>Node10</title>
<g id="a_node10"><a xlink:href="custompushbutton_8h.html" target="_top" target="_top" xlink:title="custompushbutton.h">
<polygon fill="none" stroke="red" points="287,-106.5 287,-122.5 367,-122.5 367,-106.5 287,-106.5"/>
<text text-anchor="middle" x="327" y="-112.9" font-family="Helvetica,sans-Serif" font-size="7.00">custompushbutton.h</text>
</a>
</g>
</g>
<!-- Node1&#45;&gt;Node10 -->
<g id="edge13" class="edge"><title>Node1&#45;&gt;Node10</title>
<path fill="none" stroke="midnightblue" d="M205.759,-159.37C232.682,-149.628 271.513,-135.578 297.923,-126.021"/>
<polygon fill="midnightblue" stroke="midnightblue" points="299.174,-129.291 307.386,-122.597 296.792,-122.708 299.174,-129.291"/>
</g>
<!-- Node5 -->
<g id="node5" class="node"><title>Node5</title>
<polygon fill="none" stroke="#bfbfbf" points="57.5,-0.5 57.5,-16.5 126.5,-16.5 126.5,-0.5 57.5,-0.5"/>
<text text-anchor="middle" x="92" y="-6.9" font-family="Helvetica,sans-Serif" font-size="7.00">QStackedWidget</text>
</g>
<!-- Node4&#45;&gt;Node5 -->
<g id="edge4" class="edge"><title>Node4&#45;&gt;Node5</title>
<path fill="none" stroke="midnightblue" d="M92.861,-53.4087C92.7266,-46.5576 92.5179,-35.9106 92.3395,-26.8167"/>
<polygon fill="midnightblue" stroke="midnightblue" points="95.8333,-26.4605 92.1379,-16.5311 88.8347,-26.5978 95.8333,-26.4605"/>
</g>
<!-- Node7 -->
<g id="node7" class="node"><title>Node7</title>
<polygon fill="none" stroke="#bfbfbf" points="196,-0.5 196,-16.5 236,-16.5 236,-0.5 196,-0.5"/>
<text text-anchor="middle" x="216" y="-6.9" font-family="Helvetica,sans-Serif" font-size="7.00">QString</text>
</g>
<!-- Node6&#45;&gt;Node7 -->
<g id="edge6" class="edge"><title>Node6&#45;&gt;Node7</title>
<path fill="none" stroke="midnightblue" d="M215.139,-53.4087C215.273,-46.5576 215.482,-35.9106 215.66,-26.8167"/>
<polygon fill="midnightblue" stroke="midnightblue" points="219.165,-26.5978 215.862,-16.5311 212.167,-26.4605 219.165,-26.5978"/>
</g>
<!-- Node8 -->
<g id="node8" class="node"><title>Node8</title>
<polygon fill="none" stroke="#bfbfbf" points="144.5,-0.5 144.5,-16.5 177.5,-16.5 177.5,-0.5 144.5,-0.5"/>
<text text-anchor="middle" x="161" y="-6.9" font-family="Helvetica,sans-Serif" font-size="7.00">QList</text>
</g>
<!-- Node6&#45;&gt;Node8 -->
<g id="edge7" class="edge"><title>Node6&#45;&gt;Node8</title>
<path fill="none" stroke="midnightblue" d="M207.492,-53.4087C199.351,-45.7203 186.148,-33.2513 175.889,-23.5617"/>
<polygon fill="midnightblue" stroke="midnightblue" points="178.118,-20.8528 168.445,-16.5311 173.312,-25.9419 178.118,-20.8528"/>
</g>
<!-- Node9&#45;&gt;Node2 -->
<g id="edge9" class="edge"><title>Node9&#45;&gt;Node2</title>
<path fill="none" stroke="midnightblue" d="M130.48,-106.409C109.323,-97.8449 73.5113,-83.3498 48.8581,-73.3711"/>
<polygon fill="midnightblue" stroke="midnightblue" points="49.9536,-70.0388 39.371,-69.5311 47.3272,-76.5274 49.9536,-70.0388"/>
</g>
<!-- Node9&#45;&gt;Node4 -->
<g id="edge11" class="edge"><title>Node9&#45;&gt;Node4</title>
<path fill="none" stroke="midnightblue" d="M140.352,-106.409C132.061,-98.7203 118.614,-86.2513 108.165,-76.5617"/>
<polygon fill="midnightblue" stroke="midnightblue" points="110.295,-73.7641 100.583,-69.5311 105.535,-78.897 110.295,-73.7641"/>
</g>
<!-- Node9&#45;&gt;Node6 -->
<g id="edge12" class="edge"><title>Node9&#45;&gt;Node6</title>
<path fill="none" stroke="midnightblue" d="M157.316,-106.409C167.717,-98.4919 184.776,-85.5063 197.651,-75.7058"/>
<polygon fill="midnightblue" stroke="midnightblue" points="199.926,-78.373 205.763,-69.5311 195.686,-72.803 199.926,-78.373"/>
</g>
<!-- Node9&#45;&gt;Node8 -->
<g id="edge10" class="edge"><title>Node9&#45;&gt;Node8</title>
<path fill="none" stroke="midnightblue" d="M148.894,-106.352C150.925,-90.0985 155.939,-49.9887 158.837,-26.8037"/>
<polygon fill="midnightblue" stroke="midnightblue" points="162.333,-27.0553 160.1,-16.6984 155.387,-26.187 162.333,-27.0553"/>
</g>
</g>
</svg>
