<?xml version="1.0" encoding="UTF-8" standalone="no"?>
<!DOCTYPE svg PUBLIC "-//W3C//DTD SVG 1.1//EN"
 "http://www.w3.org/Graphics/SVG/1.1/DTD/svg11.dtd">
<!-- Generated by graphviz version 2.38.0 (20140413.2041)
 -->
<!-- Title: S:/QT_CREATOR/Locker_Control/settingsystem.h Pages: 1 -->
<svg width="425pt" height="192pt"
 viewBox="0.00 0.00 424.62 192.00" xmlns="http://www.w3.org/2000/svg" xmlns:xlink="http://www.w3.org/1999/xlink">
<g id="graph0" class="graph" transform="scale(1 1) rotate(0) translate(4 188)">
<title>S:/QT_CREATOR/Locker_Control/settingsystem.h</title>
<!-- Node1 -->
<g id="node1" class="node"><title>Node1</title>
<polygon fill="#bfbfbf" stroke="black" points="148,-159.5 148,-183.5 244,-183.5 244,-159.5 148,-159.5"/>
<text text-anchor="start" x="156" y="-173.9" font-family="Helvetica,sans-Serif" font-size="7.00">S:/QT_CREATOR/Locker</text>
<text text-anchor="middle" x="196" y="-165.9" font-family="Helvetica,sans-Serif" font-size="7.00">_Control/settingsystem.h</text>
</g>
<!-- Node2 -->
<g id="node2" class="node"><title>Node2</title>
<polygon fill="none" stroke="#bfbfbf" points="0,-53.5 0,-69.5 44,-69.5 44,-53.5 0,-53.5"/>
<text text-anchor="middle" x="22" y="-59.9" font-family="Helvetica,sans-Serif" font-size="7.00">QWidget</text>
</g>
<!-- Node1&#45;&gt;Node2 -->
<g id="edge1" class="edge"><title>Node1&#45;&gt;Node2</title>
<path fill="none" stroke="midnightblue" d="M149.331,-159.445C124.201,-151.952 93.6071,-140.223 70,-123 53.6141,-111.045 39.8322,-92.0922 31.2989,-78.5868"/>
<polygon fill="midnightblue" stroke="midnightblue" points="34.2154,-76.6456 26.0507,-69.8936 28.2227,-80.2634 34.2154,-76.6456"/>
</g>
<!-- Node3 -->
<g id="node3" class="node"><title>Node3</title>
<polygon fill="none" stroke="#bfbfbf" points="63.5,-53.5 63.5,-69.5 110.5,-69.5 110.5,-53.5 63.5,-53.5"/>
<text text-anchor="middle" x="87" y="-59.9" font-family="Helvetica,sans-Serif" font-size="7.00">QLineEdit</text>
</g>
<!-- Node1&#45;&gt;Node3 -->
<g id="edge2" class="edge"><title>Node1&#45;&gt;Node3</title>
<path fill="none" stroke="midnightblue" d="M147.765,-163.846C122.785,-157.684 94.3659,-145.822 79,-123 70.3091,-110.092 74.224,-92.0807 79.1408,-79.071"/>
<polygon fill="midnightblue" stroke="midnightblue" points="82.5046,-80.1094 83.2518,-69.541 76.0771,-77.3367 82.5046,-80.1094"/>
</g>
<!-- Node4 -->
<g id="node4" class="node"><title>Node4</title>
<g id="a_node4"><a xlink:href="showwidgets_8h.html" target="_top" target="_top" xlink:title="showwidgets.h">
<polygon fill="none" stroke="black" points="130,-53.5 130,-69.5 192,-69.5 192,-53.5 130,-53.5"/>
<text text-anchor="middle" x="161" y="-59.9" font-family="Helvetica,sans-Serif" font-size="7.00">showwidgets.h</text>
</a>
</g>
</g>
<!-- Node1&#45;&gt;Node4 -->
<g id="edge3" class="edge"><title>Node1&#45;&gt;Node4</title>
<path fill="none" stroke="midnightblue" d="M192.567,-159.047C188.667,-146.125 182.055,-124.496 176,-106 173.095,-97.1268 169.716,-87.2889 166.902,-79.2165"/>
<polygon fill="midnightblue" stroke="midnightblue" points="170.126,-77.8351 163.511,-69.5595 163.521,-80.1543 170.126,-77.8351"/>
</g>
<!-- Node6 -->
<g id="node6" class="node"><title>Node6</title>
<g id="a_node6"><a xlink:href="customxml_8h.html" target="_top" target="_top" xlink:title="customxml.h">
<polygon fill="none" stroke="red" points="212.5,-53.5 212.5,-69.5 269.5,-69.5 269.5,-53.5 212.5,-53.5"/>
<text text-anchor="middle" x="241" y="-59.9" font-family="Helvetica,sans-Serif" font-size="7.00">customxml.h</text>
</a>
</g>
</g>
<!-- Node1&#45;&gt;Node6 -->
<g id="edge5" class="edge"><title>Node1&#45;&gt;Node6</title>
<path fill="none" stroke="midnightblue" d="M200.646,-159.349C208.597,-140.267 224.849,-101.262 234.119,-79.0142"/>
<polygon fill="midnightblue" stroke="midnightblue" points="237.427,-80.1762 238.042,-69.5992 230.965,-77.4838 237.427,-80.1762"/>
</g>
<!-- Node7 -->
<g id="node7" class="node"><title>Node7</title>
<g id="a_node7"><a xlink:href="csqlite__local__db_8h.html" target="_top" target="_top" xlink:title="csqlite_local_db.h">
<polygon fill="none" stroke="red" points="331,-53.5 331,-69.5 403,-69.5 403,-53.5 331,-53.5"/>
<text text-anchor="middle" x="367" y="-59.9" font-family="Helvetica,sans-Serif" font-size="7.00">csqlite_local_db.h</text>
</a>
</g>
</g>
<!-- Node1&#45;&gt;Node7 -->
<g id="edge6" class="edge"><title>Node1&#45;&gt;Node7</title>
<path fill="none" stroke="midnightblue" d="M244.204,-168.587C279.534,-164.554 326.03,-153.314 354,-123 364.593,-111.519 367.347,-93.5621 367.749,-80.1897"/>
<polygon fill="midnightblue" stroke="midnightblue" points="371.245,-79.8569 367.635,-69.8963 364.246,-79.9345 371.245,-79.8569"/>
</g>
<!-- Node8 -->
<g id="node8" class="node"><title>Node8</title>
<g id="a_node8"><a xlink:href="clms__db_8h.html" target="_top" target="_top" xlink:title="clms_db.h">
<polygon fill="none" stroke="red" points="342.5,-0.5 342.5,-16.5 391.5,-16.5 391.5,-0.5 342.5,-0.5"/>
<text text-anchor="middle" x="367" y="-6.9" font-family="Helvetica,sans-Serif" font-size="7.00">clms_db.h</text>
</a>
</g>
</g>
<!-- Node1&#45;&gt;Node8 -->
<g id="edge8" class="edge"><title>Node1&#45;&gt;Node8</title>
<path fill="none" stroke="midnightblue" d="M244.322,-166.294C282.109,-161.047 334.512,-149.292 373,-123 402.407,-102.912 425.907,-85.7862 412,-53 406.802,-40.746 396.275,-30.259 386.709,-22.6537"/>
<polygon fill="midnightblue" stroke="midnightblue" points="388.501,-19.6266 378.374,-16.5115 384.348,-25.2617 388.501,-19.6266"/>
</g>
<!-- Node9 -->
<g id="node9" class="node"><title>Node9</title>
<g id="a_node9"><a xlink:href="editsettingsystem_8h.html" target="_top" target="_top" xlink:title="editsettingsystem.h">
<polygon fill="none" stroke="red" points="88.5,-106.5 88.5,-122.5 167.5,-122.5 167.5,-106.5 88.5,-106.5"/>
<text text-anchor="middle" x="128" y="-112.9" font-family="Helvetica,sans-Serif" font-size="7.00">editsettingsystem.h</text>
</a>
</g>
</g>
<!-- Node1&#45;&gt;Node9 -->
<g id="edge9" class="edge"><title>Node1&#45;&gt;Node9</title>
<path fill="none" stroke="midnightblue" d="M176.691,-159.37C164.706,-150.836 149.916,-138.995 139.637,-129.766"/>
<polygon fill="midnightblue" stroke="midnightblue" points="141.895,-127.085 132.225,-122.757 137.086,-132.171 141.895,-127.085"/>
</g>
<!-- Node10 -->
<g id="node10" class="node"><title>Node10</title>
<g id="a_node10"><a xlink:href="threadsavedelivery_8h.html" target="_top" target="_top" xlink:title="threadsavedelivery.h">
<polygon fill="none" stroke="red" points="262.5,-106.5 262.5,-122.5 345.5,-122.5 345.5,-106.5 262.5,-106.5"/>
<text text-anchor="middle" x="304" y="-112.9" font-family="Helvetica,sans-Serif" font-size="7.00">threadsavedelivery.h</text>
</a>
</g>
</g>
<!-- Node1&#45;&gt;Node10 -->
<g id="edge14" class="edge"><title>Node1&#45;&gt;Node10</title>
<path fill="none" stroke="midnightblue" d="M217.855,-159.37C236.226,-150.015 262.4,-136.685 281.068,-127.179"/>
<polygon fill="midnightblue" stroke="midnightblue" points="282.741,-130.254 290.064,-122.597 279.565,-124.016 282.741,-130.254"/>
</g>
<!-- Node5 -->
<g id="node5" class="node"><title>Node5</title>
<polygon fill="none" stroke="#bfbfbf" points="126.5,-0.5 126.5,-16.5 195.5,-16.5 195.5,-0.5 126.5,-0.5"/>
<text text-anchor="middle" x="161" y="-6.9" font-family="Helvetica,sans-Serif" font-size="7.00">QStackedWidget</text>
</g>
<!-- Node4&#45;&gt;Node5 -->
<g id="edge4" class="edge"><title>Node4&#45;&gt;Node5</title>
<path fill="none" stroke="midnightblue" d="M161,-53.4087C161,-46.5576 161,-35.9106 161,-26.8167"/>
<polygon fill="midnightblue" stroke="midnightblue" points="164.5,-26.5311 161,-16.5311 157.5,-26.5311 164.5,-26.5311"/>
</g>
<!-- Node7&#45;&gt;Node8 -->
<g id="edge7" class="edge"><title>Node7&#45;&gt;Node8</title>
<path fill="none" stroke="midnightblue" d="M367,-53.4087C367,-46.5576 367,-35.9106 367,-26.8167"/>
<polygon fill="midnightblue" stroke="midnightblue" points="370.5,-26.5311 367,-16.5311 363.5,-26.5311 370.5,-26.5311"/>
</g>
<!-- Node9&#45;&gt;Node1 -->
<g id="edge12" class="edge"><title>Node9&#45;&gt;Node1</title>
<path fill="none" stroke="midnightblue" d="M141.721,-122.757C152.927,-130.28 168.371,-142.33 180.057,-152.442"/>
<polygon fill="midnightblue" stroke="midnightblue" points="178.005,-155.303 187.788,-159.37 182.676,-150.09 178.005,-155.303"/>
</g>
<!-- Node9&#45;&gt;Node2 -->
<g id="edge10" class="edge"><title>Node9&#45;&gt;Node2</title>
<path fill="none" stroke="midnightblue" d="M113.261,-106.409C95.7783,-97.9971 66.4022,-83.8633 45.7098,-73.9075"/>
<polygon fill="midnightblue" stroke="midnightblue" points="47.1424,-70.7128 36.6137,-69.5311 44.1074,-77.0207 47.1424,-70.7128"/>
</g>
<!-- Node9&#45;&gt;Node3 -->
<g id="edge11" class="edge"><title>Node9&#45;&gt;Node3</title>
<path fill="none" stroke="midnightblue" d="M122.299,-106.409C116.302,-98.9487 106.686,-86.9878 99.0044,-77.4323"/>
<polygon fill="midnightblue" stroke="midnightblue" points="101.646,-75.1319 92.6525,-69.5311 96.1902,-79.5178 101.646,-75.1319"/>
</g>
<!-- Node9&#45;&gt;Node4 -->
<g id="edge13" class="edge"><title>Node9&#45;&gt;Node4</title>
<path fill="none" stroke="midnightblue" d="M132.589,-106.409C137.317,-99.1009 144.84,-87.4741 150.957,-78.0202"/>
<polygon fill="midnightblue" stroke="midnightblue" points="153.956,-79.8282 156.45,-69.5311 148.079,-76.0254 153.956,-79.8282"/>
</g>
<!-- Node10&#45;&gt;Node6 -->
<g id="edge17" class="edge"><title>Node10&#45;&gt;Node6</title>
<path fill="none" stroke="midnightblue" d="M295.24,-106.409C285.555,-98.568 269.727,-85.7556 257.663,-75.9894"/>
<polygon fill="midnightblue" stroke="midnightblue" points="259.66,-73.1028 249.685,-69.5311 255.256,-78.5435 259.66,-73.1028"/>
</g>
<!-- Node10&#45;&gt;Node7 -->
<g id="edge16" class="edge"><title>Node10&#45;&gt;Node7</title>
<path fill="none" stroke="midnightblue" d="M312.76,-106.409C322.445,-98.568 338.273,-85.7556 350.337,-75.9894"/>
<polygon fill="midnightblue" stroke="midnightblue" points="352.744,-78.5435 358.315,-69.5311 348.34,-73.1028 352.744,-78.5435"/>
</g>
<!-- Node10&#45;&gt;Node8 -->
<g id="edge15" class="edge"><title>Node10&#45;&gt;Node8</title>
<path fill="none" stroke="midnightblue" d="M304.928,-106.311C306.712,-94.4651 311.42,-70.4218 322,-53 328.996,-41.4806 339.776,-30.9124 349.031,-23.0777"/>
<polygon fill="midnightblue" stroke="midnightblue" points="351.355,-25.6996 356.95,-16.7021 346.966,-20.2471 351.355,-25.6996"/>
</g>
</g>
</svg>
