<?xml version="1.0" encoding="UTF-8" standalone="no"?>
<!DOCTYPE svg PUBLIC "-//W3C//DTD SVG 1.1//EN"
 "http://www.w3.org/Graphics/SVG/1.1/DTD/svg11.dtd">
<!-- Generated by graphviz version 2.38.0 (20140413.2041)
 -->
<!-- Title: S:/QT_CREATOR/Locker_Control/settingsystem.cpp Pages: 1 -->
<svg width="428pt" height="192pt"
 viewBox="0.00 0.00 428.00 192.00" xmlns="http://www.w3.org/2000/svg" xmlns:xlink="http://www.w3.org/1999/xlink">
<g id="graph0" class="graph" transform="scale(1 1) rotate(0) translate(4 188)">
<title>S:/QT_CREATOR/Locker_Control/settingsystem.cpp</title>
<!-- Node1 -->
<g id="node1" class="node"><title>Node1</title>
<polygon fill="#bfbfbf" stroke="black" points="237,-159.5 237,-183.5 341,-183.5 341,-159.5 237,-159.5"/>
<text text-anchor="start" x="245" y="-173.9" font-family="Helvetica,sans-Serif" font-size="7.00">S:/QT_CREATOR/Locker</text>
<text text-anchor="middle" x="289" y="-165.9" font-family="Helvetica,sans-Serif" font-size="7.00">_Control/settingsystem.cpp</text>
</g>
<!-- Node2 -->
<g id="node2" class="node"><title>Node2</title>
<g id="a_node2"><a xlink:href="settingsystem_8h.html" target="_top" target="_top" xlink:title="settingsystem.h">
<polygon fill="none" stroke="red" points="164,-106.5 164,-122.5 232,-122.5 232,-106.5 164,-106.5"/>
<text text-anchor="middle" x="198" y="-112.9" font-family="Helvetica,sans-Serif" font-size="7.00">settingsystem.h</text>
</a>
</g>
</g>
<!-- Node1&#45;&gt;Node2 -->
<g id="edge1" class="edge"><title>Node1&#45;&gt;Node2</title>
<path fill="none" stroke="midnightblue" d="M270.585,-159.37C255.532,-150.272 234.261,-137.416 218.635,-127.972"/>
<polygon fill="midnightblue" stroke="midnightblue" points="220.111,-124.774 209.742,-122.597 216.49,-130.765 220.111,-124.774"/>
</g>
<!-- Node9 -->
<g id="node9" class="node"><title>Node9</title>
<polygon fill="none" stroke="#bfbfbf" points="250.5,-106.5 250.5,-122.5 327.5,-122.5 327.5,-106.5 250.5,-106.5"/>
<text text-anchor="middle" x="289" y="-112.9" font-family="Helvetica,sans-Serif" font-size="7.00">ui_settingsystem.h</text>
</g>
<!-- Node1&#45;&gt;Node9 -->
<g id="edge9" class="edge"><title>Node1&#45;&gt;Node9</title>
<path fill="none" stroke="midnightblue" d="M289,-159.37C289,-151.775 289,-141.56 289,-132.899"/>
<polygon fill="midnightblue" stroke="midnightblue" points="292.5,-132.757 289,-122.757 285.5,-132.758 292.5,-132.757"/>
</g>
<!-- Node10 -->
<g id="node10" class="node"><title>Node10</title>
<polygon fill="none" stroke="#bfbfbf" points="346,-106.5 346,-122.5 420,-122.5 420,-106.5 346,-106.5"/>
<text text-anchor="middle" x="383" y="-112.9" font-family="Helvetica,sans-Serif" font-size="7.00">QRegExpValidator</text>
</g>
<!-- Node1&#45;&gt;Node10 -->
<g id="edge10" class="edge"><title>Node1&#45;&gt;Node10</title>
<path fill="none" stroke="midnightblue" d="M308.022,-159.37C323.718,-150.186 345.959,-137.173 362.139,-127.706"/>
<polygon fill="midnightblue" stroke="midnightblue" points="364.007,-130.668 370.871,-122.597 360.472,-124.626 364.007,-130.668"/>
</g>
<!-- Node3 -->
<g id="node3" class="node"><title>Node3</title>
<polygon fill="none" stroke="#bfbfbf" points="0,-53.5 0,-69.5 44,-69.5 44,-53.5 0,-53.5"/>
<text text-anchor="middle" x="22" y="-59.9" font-family="Helvetica,sans-Serif" font-size="7.00">QWidget</text>
</g>
<!-- Node2&#45;&gt;Node3 -->
<g id="edge2" class="edge"><title>Node2&#45;&gt;Node3</title>
<path fill="none" stroke="midnightblue" d="M173.528,-106.409C142.37,-97.38 88.4614,-81.7587 54.0517,-71.7877"/>
<polygon fill="midnightblue" stroke="midnightblue" points="54.6247,-68.3098 44.0456,-68.8882 52.6764,-75.0332 54.6247,-68.3098"/>
</g>
<!-- Node4 -->
<g id="node4" class="node"><title>Node4</title>
<polygon fill="none" stroke="#bfbfbf" points="62.5,-53.5 62.5,-69.5 109.5,-69.5 109.5,-53.5 62.5,-53.5"/>
<text text-anchor="middle" x="86" y="-59.9" font-family="Helvetica,sans-Serif" font-size="7.00">QLineEdit</text>
</g>
<!-- Node2&#45;&gt;Node4 -->
<g id="edge3" class="edge"><title>Node2&#45;&gt;Node4</title>
<path fill="none" stroke="midnightblue" d="M182.427,-106.409C163.871,-97.9591 132.634,-83.7353 110.756,-73.7726"/>
<polygon fill="midnightblue" stroke="midnightblue" points="111.992,-70.49 101.441,-69.5311 109.091,-76.8606 111.992,-70.49"/>
</g>
<!-- Node5 -->
<g id="node5" class="node"><title>Node5</title>
<g id="a_node5"><a xlink:href="showwidgets_8h.html" target="_top" target="_top" xlink:title="showwidgets.h">
<polygon fill="none" stroke="red" points="128,-53.5 128,-69.5 190,-69.5 190,-53.5 128,-53.5"/>
<text text-anchor="middle" x="159" y="-59.9" font-family="Helvetica,sans-Serif" font-size="7.00">showwidgets.h</text>
</a>
</g>
</g>
<!-- Node2&#45;&gt;Node5 -->
<g id="edge4" class="edge"><title>Node2&#45;&gt;Node5</title>
<path fill="none" stroke="midnightblue" d="M192.577,-106.409C186.931,-99.0248 177.912,-87.2314 170.643,-77.7255"/>
<polygon fill="midnightblue" stroke="midnightblue" points="173.232,-75.3486 164.377,-69.5311 167.671,-79.6008 173.232,-75.3486"/>
</g>
<!-- Node6 -->
<g id="node6" class="node"><title>Node6</title>
<g id="a_node6"><a xlink:href="customxml_8h.html" target="_top" target="_top" xlink:title="customxml.h">
<polygon fill="none" stroke="red" points="208.5,-53.5 208.5,-69.5 265.5,-69.5 265.5,-53.5 208.5,-53.5"/>
<text text-anchor="middle" x="237" y="-59.9" font-family="Helvetica,sans-Serif" font-size="7.00">customxml.h</text>
</a>
</g>
</g>
<!-- Node2&#45;&gt;Node6 -->
<g id="edge5" class="edge"><title>Node2&#45;&gt;Node6</title>
<path fill="none" stroke="midnightblue" d="M203.423,-106.409C209.069,-99.0248 218.088,-87.2314 225.357,-77.7255"/>
<polygon fill="midnightblue" stroke="midnightblue" points="228.329,-79.6008 231.623,-69.5311 222.768,-75.3486 228.329,-79.6008"/>
</g>
<!-- Node7 -->
<g id="node7" class="node"><title>Node7</title>
<g id="a_node7"><a xlink:href="csqlite__local__db_8h.html" target="_top" target="_top" xlink:title="csqlite_local_db.h">
<polygon fill="none" stroke="red" points="284,-53.5 284,-69.5 356,-69.5 356,-53.5 284,-53.5"/>
<text text-anchor="middle" x="320" y="-59.9" font-family="Helvetica,sans-Serif" font-size="7.00">csqlite_local_db.h</text>
</a>
</g>
</g>
<!-- Node2&#45;&gt;Node7 -->
<g id="edge6" class="edge"><title>Node2&#45;&gt;Node7</title>
<path fill="none" stroke="midnightblue" d="M214.964,-106.409C235.358,-97.8829 269.816,-83.4786 293.676,-73.5044"/>
<polygon fill="midnightblue" stroke="midnightblue" points="295.304,-76.6173 303.18,-69.5311 292.604,-70.1589 295.304,-76.6173"/>
</g>
<!-- Node8 -->
<g id="node8" class="node"><title>Node8</title>
<g id="a_node8"><a xlink:href="clms__db_8h.html" target="_top" target="_top" xlink:title="clms_db.h">
<polygon fill="none" stroke="red" points="327.5,-0.5 327.5,-16.5 376.5,-16.5 376.5,-0.5 327.5,-0.5"/>
<text text-anchor="middle" x="352" y="-6.9" font-family="Helvetica,sans-Serif" font-size="7.00">clms_db.h</text>
</a>
</g>
</g>
<!-- Node2&#45;&gt;Node8 -->
<g id="edge8" class="edge"><title>Node2&#45;&gt;Node8</title>
<path fill="none" stroke="midnightblue" d="M232.011,-106.94C278.42,-97.6489 356.801,-80.6082 365,-70 374.842,-57.2655 368.713,-38.7165 361.935,-25.5194"/>
<polygon fill="midnightblue" stroke="midnightblue" points="364.874,-23.6077 356.879,-16.6557 358.793,-27.0761 364.874,-23.6077"/>
</g>
<!-- Node7&#45;&gt;Node8 -->
<g id="edge7" class="edge"><title>Node7&#45;&gt;Node8</title>
<path fill="none" stroke="midnightblue" d="M324.449,-53.4087C329.035,-46.1009 336.33,-34.4741 342.262,-25.0202"/>
<polygon fill="midnightblue" stroke="midnightblue" points="345.238,-26.862 347.588,-16.5311 339.309,-23.1415 345.238,-26.862"/>
</g>
</g>
</svg>
