<?xml version="1.0" encoding="UTF-8" standalone="no"?>
<!DOCTYPE svg PUBLIC "-//W3C//DTD SVG 1.1//EN"
 "http://www.w3.org/Graphics/SVG/1.1/DTD/svg11.dtd">
<!-- Generated by graphviz version 2.38.0 (20140413.2041)
 -->
<!-- Title: S:/QT_CREATOR/Locker_Control/settingsystem.h Pages: 1 -->
<svg width="398pt" height="192pt"
 viewBox="0.00 0.00 397.50 192.00" xmlns="http://www.w3.org/2000/svg" xmlns:xlink="http://www.w3.org/1999/xlink">
<g id="graph0" class="graph" transform="scale(1 1) rotate(0) translate(4 188)">
<title>S:/QT_CREATOR/Locker_Control/settingsystem.h</title>
<!-- Node1 -->
<g id="node1" class="node"><title>Node1</title>
<polygon fill="#bfbfbf" stroke="black" points="111,-159.5 111,-183.5 207,-183.5 207,-159.5 111,-159.5"/>
<text text-anchor="start" x="119" y="-173.9" font-family="Helvetica,sans-Serif" font-size="7.00">S:/QT_CREATOR/Locker</text>
<text text-anchor="middle" x="159" y="-165.9" font-family="Helvetica,sans-Serif" font-size="7.00">_Control/settingsystem.h</text>
</g>
<!-- Node2 -->
<g id="node2" class="node"><title>Node2</title>
<polygon fill="none" stroke="#bfbfbf" points="0,-53.5 0,-69.5 44,-69.5 44,-53.5 0,-53.5"/>
<text text-anchor="middle" x="22" y="-59.9" font-family="Helvetica,sans-Serif" font-size="7.00">QWidget</text>
</g>
<!-- Node1&#45;&gt;Node2 -->
<g id="edge1" class="edge"><title>Node1&#45;&gt;Node2</title>
<path fill="none" stroke="midnightblue" d="M130.759,-159.334C112.016,-151.065 87.5443,-138.556 69,-123 53.7339,-110.194 40.2395,-91.6574 31.6714,-78.4827"/>
<polygon fill="midnightblue" stroke="midnightblue" points="34.4057,-76.2544 26.1317,-69.6368 28.473,-79.9697 34.4057,-76.2544"/>
</g>
<!-- Node3 -->
<g id="node3" class="node"><title>Node3</title>
<polygon fill="none" stroke="#bfbfbf" points="69.5,-53.5 69.5,-69.5 116.5,-69.5 116.5,-53.5 69.5,-53.5"/>
<text text-anchor="middle" x="93" y="-59.9" font-family="Helvetica,sans-Serif" font-size="7.00">QLineEdit</text>
</g>
<!-- Node1&#45;&gt;Node3 -->
<g id="edge2" class="edge"><title>Node1&#45;&gt;Node3</title>
<path fill="none" stroke="midnightblue" d="M122.936,-159.484C105.487,-152.131 86.1609,-140.522 76,-123 67.8879,-109.011 74.8679,-90.9399 82.1834,-78.2032"/>
<polygon fill="midnightblue" stroke="midnightblue" points="85.2015,-79.9791 87.5985,-69.659 79.289,-76.2318 85.2015,-79.9791"/>
</g>
<!-- Node4 -->
<g id="node4" class="node"><title>Node4</title>
<g id="a_node4"><a xlink:href="showwidgets_8h.html" target="_top" xlink:title="showwidgets.h">
<polygon fill="none" stroke="black" points="148,-53.5 148,-69.5 210,-69.5 210,-53.5 148,-53.5"/>
<text text-anchor="middle" x="179" y="-59.9" font-family="Helvetica,sans-Serif" font-size="7.00">showwidgets.h</text>
</a>
</g>
</g>
<!-- Node1&#45;&gt;Node4 -->
<g id="edge3" class="edge"><title>Node1&#45;&gt;Node4</title>
<path fill="none" stroke="midnightblue" d="M162.943,-159.323C166.148,-149.789 170.53,-135.657 173,-123 175.819,-108.555 177.347,-91.8969 178.154,-79.7221"/>
<polygon fill="midnightblue" stroke="midnightblue" points="181.654,-79.8237 178.726,-69.6416 174.665,-79.4274 181.654,-79.8237"/>
</g>
<!-- Node6 -->
<g id="node6" class="node"><title>Node6</title>
<g id="a_node6"><a xlink:href="customxml_8h.html" target="_top" xlink:title="customxml.h">
<polygon fill="none" stroke="red" points="221.5,-106.5 221.5,-122.5 278.5,-122.5 278.5,-106.5 221.5,-106.5"/>
<text text-anchor="middle" x="250" y="-112.9" font-family="Helvetica,sans-Serif" font-size="7.00">customxml.h</text>
</a>
</g>
</g>
<!-- Node1&#45;&gt;Node6 -->
<g id="edge5" class="edge"><title>Node1&#45;&gt;Node6</title>
<path fill="none" stroke="midnightblue" d="M177.415,-159.37C192.468,-150.272 213.739,-137.416 229.365,-127.972"/>
<polygon fill="midnightblue" stroke="midnightblue" points="231.51,-130.765 238.258,-122.597 227.889,-124.774 231.51,-130.765"/>
</g>
<!-- Node8 -->
<g id="node8" class="node"><title>Node8</title>
<g id="a_node8"><a xlink:href="csqlite__local__db_8h.html" target="_top" xlink:title="csqlite_local_db.h">
<polygon fill="none" stroke="red" points="297,-106.5 297,-122.5 369,-122.5 369,-106.5 297,-106.5"/>
<text text-anchor="middle" x="333" y="-112.9" font-family="Helvetica,sans-Serif" font-size="7.00">csqlite_local_db.h</text>
</a>
</g>
</g>
<!-- Node1&#45;&gt;Node8 -->
<g id="edge7" class="edge"><title>Node1&#45;&gt;Node8</title>
<path fill="none" stroke="midnightblue" d="M194.211,-159.37C225.527,-149.471 270.917,-135.124 301.165,-125.563"/>
<polygon fill="midnightblue" stroke="midnightblue" points="302.32,-128.869 310.8,-122.517 300.21,-122.194 302.32,-128.869"/>
</g>
<!-- Node9 -->
<g id="node9" class="node"><title>Node9</title>
<g id="a_node9"><a xlink:href="clms__db_8h.html" target="_top" xlink:title="clms_db.h">
<polygon fill="none" stroke="red" points="340.5,-53.5 340.5,-69.5 389.5,-69.5 389.5,-53.5 340.5,-53.5"/>
<text text-anchor="middle" x="365" y="-59.9" font-family="Helvetica,sans-Serif" font-size="7.00">clms_db.h</text>
</a>
</g>
</g>
<!-- Node1&#45;&gt;Node9 -->
<g id="edge9" class="edge"><title>Node1&#45;&gt;Node9</title>
<path fill="none" stroke="midnightblue" d="M207.227,-166.95C265.091,-161.571 356.968,-149.083 378,-123 388.103,-110.471 381.929,-91.887 375.069,-78.6255"/>
<polygon fill="midnightblue" stroke="midnightblue" points="377.964,-76.6381 369.948,-69.7103 371.894,-80.1249 377.964,-76.6381"/>
</g>
<!-- Node10 -->
<g id="node10" class="node"><title>Node10</title>
<g id="a_node10"><a xlink:href="editsettingsystem_8h.html" target="_top" xlink:title="editsettingsystem.h">
<polygon fill="none" stroke="red" points="85.5,-106.5 85.5,-122.5 164.5,-122.5 164.5,-106.5 85.5,-106.5"/>
<text text-anchor="middle" x="125" y="-112.9" font-family="Helvetica,sans-Serif" font-size="7.00">editsettingsystem.h</text>
</a>
</g>
</g>
<!-- Node1&#45;&gt;Node10 -->
<g id="edge10" class="edge"><title>Node1&#45;&gt;Node10</title>
<path fill="none" stroke="midnightblue" d="M146.571,-159.37C140.399,-151.519 133.582,-140.869 128.97,-132.028"/>
<polygon fill="midnightblue" stroke="midnightblue" points="132.074,-130.401 124.738,-122.757 125.706,-133.308 132.074,-130.401"/>
</g>
<!-- Node5 -->
<g id="node5" class="node"><title>Node5</title>
<polygon fill="none" stroke="#bfbfbf" points="144.5,-0.5 144.5,-16.5 213.5,-16.5 213.5,-0.5 144.5,-0.5"/>
<text text-anchor="middle" x="179" y="-6.9" font-family="Helvetica,sans-Serif" font-size="7.00">QStackedWidget</text>
</g>
<!-- Node4&#45;&gt;Node5 -->
<g id="edge4" class="edge"><title>Node4&#45;&gt;Node5</title>
<path fill="none" stroke="midnightblue" d="M179,-53.4087C179,-46.5576 179,-35.9106 179,-26.8167"/>
<polygon fill="midnightblue" stroke="midnightblue" points="182.5,-26.5311 179,-16.5311 175.5,-26.5311 182.5,-26.5311"/>
</g>
<!-- Node7 -->
<g id="node7" class="node"><title>Node7</title>
<polygon fill="none" stroke="#bfbfbf" points="232.5,-53.5 232.5,-69.5 267.5,-69.5 267.5,-53.5 232.5,-53.5"/>
<text text-anchor="middle" x="250" y="-59.9" font-family="Helvetica,sans-Serif" font-size="7.00">QtXml</text>
</g>
<!-- Node6&#45;&gt;Node7 -->
<g id="edge6" class="edge"><title>Node6&#45;&gt;Node7</title>
<path fill="none" stroke="midnightblue" d="M250,-106.409C250,-99.5576 250,-88.9106 250,-79.8167"/>
<polygon fill="midnightblue" stroke="midnightblue" points="253.5,-79.5311 250,-69.5311 246.5,-79.5311 253.5,-79.5311"/>
</g>
<!-- Node8&#45;&gt;Node9 -->
<g id="edge8" class="edge"><title>Node8&#45;&gt;Node9</title>
<path fill="none" stroke="midnightblue" d="M337.449,-106.409C342.035,-99.1009 349.33,-87.4741 355.262,-78.0202"/>
<polygon fill="midnightblue" stroke="midnightblue" points="358.238,-79.862 360.588,-69.5311 352.309,-76.1415 358.238,-79.862"/>
</g>
<!-- Node10&#45;&gt;Node1 -->
<g id="edge13" class="edge"><title>Node10&#45;&gt;Node1</title>
<path fill="none" stroke="midnightblue" d="M134.235,-122.757C140.345,-129.768 147.705,-140.713 153.078,-150.355"/>
<polygon fill="midnightblue" stroke="midnightblue" points="150.011,-152.047 157.668,-159.37 156.249,-148.871 150.011,-152.047"/>
</g>
<!-- Node10&#45;&gt;Node2 -->
<g id="edge11" class="edge"><title>Node10&#45;&gt;Node2</title>
<path fill="none" stroke="midnightblue" d="M110.678,-106.409C93.7671,-98.0352 65.4036,-83.9911 45.3122,-74.0429"/>
<polygon fill="midnightblue" stroke="midnightblue" points="46.7148,-70.8319 36.2001,-69.5311 43.6086,-77.105 46.7148,-70.8319"/>
</g>
<!-- Node10&#45;&gt;Node3 -->
<g id="edge12" class="edge"><title>Node10&#45;&gt;Node3</title>
<path fill="none" stroke="midnightblue" d="M120.551,-106.409C115.965,-99.1009 108.67,-87.4741 102.738,-78.0202"/>
<polygon fill="midnightblue" stroke="midnightblue" points="105.691,-76.1415 97.4117,-69.5311 99.7619,-79.862 105.691,-76.1415"/>
</g>
<!-- Node10&#45;&gt;Node4 -->
<g id="edge14" class="edge"><title>Node10&#45;&gt;Node4</title>
<path fill="none" stroke="midnightblue" d="M132.508,-106.409C140.649,-98.7203 153.852,-86.2513 164.111,-76.5617"/>
<polygon fill="midnightblue" stroke="midnightblue" points="166.688,-78.9419 171.555,-69.5311 161.882,-73.8528 166.688,-78.9419"/>
</g>
</g>
</svg>
