<?xml version="1.0" encoding="UTF-8" standalone="no"?>
<!DOCTYPE svg PUBLIC "-//W3C//DTD SVG 1.1//EN"
 "http://www.w3.org/Graphics/SVG/1.1/DTD/svg11.dtd">
<!-- Generated by graphviz version 2.38.0 (20140413.2041)
 -->
<!-- Title: S:/QT_CREATOR/Locker_Control/showpackagebox.h Pages: 1 -->
<svg width="444pt" height="245pt"
 viewBox="0.00 0.00 443.50 245.00" xmlns="http://www.w3.org/2000/svg" xmlns:xlink="http://www.w3.org/1999/xlink">
<g id="graph0" class="graph" transform="scale(1 1) rotate(0) translate(4 241)">
<title>S:/QT_CREATOR/Locker_Control/showpackagebox.h</title>
<!-- Node1 -->
<g id="node1" class="node"><title>Node1</title>
<polygon fill="#bfbfbf" stroke="black" points="138,-212.5 138,-236.5 242,-236.5 242,-212.5 138,-212.5"/>
<text text-anchor="start" x="146" y="-226.9" font-family="Helvetica,sans-Serif" font-size="7.00">S:/QT_CREATOR/Locker</text>
<text text-anchor="middle" x="190" y="-218.9" font-family="Helvetica,sans-Serif" font-size="7.00">_Control/showpackagebox.h</text>
</g>
<!-- Node2 -->
<g id="node2" class="node"><title>Node2</title>
<polygon fill="none" stroke="#bfbfbf" points="0,-159.5 0,-175.5 44,-175.5 44,-159.5 0,-159.5"/>
<text text-anchor="middle" x="22" y="-165.9" font-family="Helvetica,sans-Serif" font-size="7.00">QWidget</text>
</g>
<!-- Node1&#45;&gt;Node2 -->
<g id="edge1" class="edge"><title>Node1&#45;&gt;Node2</title>
<path fill="none" stroke="midnightblue" d="M156.003,-212.37C125.984,-202.542 82.5709,-188.33 53.3692,-178.77"/>
<polygon fill="midnightblue" stroke="midnightblue" points="54.2708,-175.382 43.6781,-175.597 52.0928,-182.035 54.2708,-175.382"/>
</g>
<!-- Node3 -->
<g id="node3" class="node"><title>Node3</title>
<g id="a_node3"><a xlink:href="showwidgets_8h.html" target="_top" xlink:title="showwidgets.h">
<polygon fill="none" stroke="black" points="62,-159.5 62,-175.5 124,-175.5 124,-159.5 62,-159.5"/>
<text text-anchor="middle" x="93" y="-165.9" font-family="Helvetica,sans-Serif" font-size="7.00">showwidgets.h</text>
</a>
</g>
</g>
<!-- Node1&#45;&gt;Node3 -->
<g id="edge2" class="edge"><title>Node1&#45;&gt;Node3</title>
<path fill="none" stroke="midnightblue" d="M170.371,-212.37C154.174,-203.186 131.223,-190.173 114.526,-180.706"/>
<polygon fill="midnightblue" stroke="midnightblue" points="115.942,-177.485 105.517,-175.597 112.489,-183.574 115.942,-177.485"/>
</g>
<!-- Node5 -->
<g id="node5" class="node"><title>Node5</title>
<g id="a_node5"><a xlink:href="csqlite__local__db_8h.html" target="_top" xlink:title="csqlite_local_db.h">
<polygon fill="none" stroke="red" points="193,-53.5 193,-69.5 265,-69.5 265,-53.5 193,-53.5"/>
<text text-anchor="middle" x="229" y="-59.9" font-family="Helvetica,sans-Serif" font-size="7.00">csqlite_local_db.h</text>
</a>
</g>
</g>
<!-- Node1&#45;&gt;Node5 -->
<g id="edge4" class="edge"><title>Node1&#45;&gt;Node5</title>
<path fill="none" stroke="midnightblue" d="M184.042,-212.472C173.227,-190.846 153.072,-141.856 171,-106 177.863,-92.2741 191.344,-81.7556 203.584,-74.5027"/>
<polygon fill="midnightblue" stroke="midnightblue" points="205.472,-77.4593 212.571,-69.5939 202.117,-71.316 205.472,-77.4593"/>
</g>
<!-- Node7 -->
<g id="node7" class="node"><title>Node7</title>
<g id="a_node7"><a xlink:href="threaddeleteextractcode_8h.html" target="_top" xlink:title="threaddeleteextractcode.h">
<polygon fill="none" stroke="red" points="180,-106.5 180,-122.5 278,-122.5 278,-106.5 180,-106.5"/>
<text text-anchor="middle" x="229" y="-112.9" font-family="Helvetica,sans-Serif" font-size="7.00">threaddeleteextractcode.h</text>
</a>
</g>
</g>
<!-- Node1&#45;&gt;Node7 -->
<g id="edge6" class="edge"><title>Node1&#45;&gt;Node7</title>
<path fill="none" stroke="midnightblue" d="M193.03,-212.419C196.664,-199.469 203.131,-177.46 210,-159 213.357,-149.978 217.607,-140.132 221.235,-132.093"/>
<polygon fill="midnightblue" stroke="midnightblue" points="224.517,-133.334 225.52,-122.787 218.158,-130.406 224.517,-133.334"/>
</g>
<!-- Node8 -->
<g id="node8" class="node"><title>Node8</title>
<g id="a_node8"><a xlink:href="thread__statusdoors_8h.html" target="_top" xlink:title="thread_statusdoors.h">
<polygon fill="none" stroke="red" points="218.5,-159.5 218.5,-175.5 301.5,-175.5 301.5,-159.5 218.5,-159.5"/>
<text text-anchor="middle" x="260" y="-165.9" font-family="Helvetica,sans-Serif" font-size="7.00">thread_statusdoors.h</text>
</a>
</g>
</g>
<!-- Node1&#45;&gt;Node8 -->
<g id="edge8" class="edge"><title>Node1&#45;&gt;Node8</title>
<path fill="none" stroke="midnightblue" d="M204.166,-212.37C215.353,-203.58 231.005,-191.282 242.891,-181.943"/>
<polygon fill="midnightblue" stroke="midnightblue" points="245.062,-184.688 250.763,-175.757 240.738,-179.184 245.062,-184.688"/>
</g>
<!-- Node9 -->
<g id="node9" class="node"><title>Node9</title>
<g id="a_node9"><a xlink:href="cdoors_8h.html" target="_top" xlink:title="cdoors.h">
<polygon fill="none" stroke="red" points="296,-106.5 296,-122.5 340,-122.5 340,-106.5 296,-106.5"/>
<text text-anchor="middle" x="318" y="-112.9" font-family="Helvetica,sans-Serif" font-size="7.00">cdoors.h</text>
</a>
</g>
</g>
<!-- Node1&#45;&gt;Node9 -->
<g id="edge12" class="edge"><title>Node1&#45;&gt;Node9</title>
<path fill="none" stroke="midnightblue" d="M242.18,-215.697C266.864,-209.239 294.483,-197.461 311,-176 320.377,-163.816 321.36,-145.955 320.46,-132.796"/>
<polygon fill="midnightblue" stroke="midnightblue" points="323.922,-132.26 319.347,-122.704 316.964,-133.027 323.922,-132.26"/>
</g>
<!-- Node10 -->
<g id="node10" class="node"><title>Node10</title>
<g id="a_node10"><a xlink:href="customtreewidget_8h.html" target="_top" xlink:title="customtreewidget.h">
<polygon fill="none" stroke="red" points="358.5,-159.5 358.5,-175.5 435.5,-175.5 435.5,-159.5 358.5,-159.5"/>
<text text-anchor="middle" x="397" y="-165.9" font-family="Helvetica,sans-Serif" font-size="7.00">customtreewidget.h</text>
</a>
</g>
</g>
<!-- Node1&#45;&gt;Node10 -->
<g id="edge11" class="edge"><title>Node1&#45;&gt;Node10</title>
<path fill="none" stroke="midnightblue" d="M231.89,-212.37C269.63,-202.342 324.555,-187.749 360.526,-178.191"/>
<polygon fill="midnightblue" stroke="midnightblue" points="361.824,-181.468 370.59,-175.517 360.026,-174.703 361.824,-181.468"/>
</g>
<!-- Node4 -->
<g id="node4" class="node"><title>Node4</title>
<polygon fill="none" stroke="#bfbfbf" points="54.5,-106.5 54.5,-122.5 123.5,-122.5 123.5,-106.5 54.5,-106.5"/>
<text text-anchor="middle" x="89" y="-112.9" font-family="Helvetica,sans-Serif" font-size="7.00">QStackedWidget</text>
</g>
<!-- Node3&#45;&gt;Node4 -->
<g id="edge3" class="edge"><title>Node3&#45;&gt;Node4</title>
<path fill="none" stroke="midnightblue" d="M92.4438,-159.409C91.9005,-152.482 91.0528,-141.674 90.3344,-132.514"/>
<polygon fill="midnightblue" stroke="midnightblue" points="93.8227,-132.227 89.5515,-122.531 86.8442,-132.774 93.8227,-132.227"/>
</g>
<!-- Node6 -->
<g id="node6" class="node"><title>Node6</title>
<polygon fill="none" stroke="#bfbfbf" points="209,-0.5 209,-16.5 249,-16.5 249,-0.5 209,-0.5"/>
<text text-anchor="middle" x="229" y="-6.9" font-family="Helvetica,sans-Serif" font-size="7.00">QString</text>
</g>
<!-- Node5&#45;&gt;Node6 -->
<g id="edge5" class="edge"><title>Node5&#45;&gt;Node6</title>
<path fill="none" stroke="midnightblue" d="M229,-53.4087C229,-46.5576 229,-35.9106 229,-26.8167"/>
<polygon fill="midnightblue" stroke="midnightblue" points="232.5,-26.5311 229,-16.5311 225.5,-26.5311 232.5,-26.5311"/>
</g>
<!-- Node7&#45;&gt;Node5 -->
<g id="edge7" class="edge"><title>Node7&#45;&gt;Node5</title>
<path fill="none" stroke="midnightblue" d="M229,-106.409C229,-99.5576 229,-88.9106 229,-79.8167"/>
<polygon fill="midnightblue" stroke="midnightblue" points="232.5,-79.5311 229,-69.5311 225.5,-79.5311 232.5,-79.5311"/>
</g>
<!-- Node8&#45;&gt;Node9 -->
<g id="edge9" class="edge"><title>Node8&#45;&gt;Node9</title>
<path fill="none" stroke="midnightblue" d="M268.065,-159.409C276.895,-151.644 291.27,-139.004 302.335,-129.275"/>
<polygon fill="midnightblue" stroke="midnightblue" points="304.805,-131.763 310.004,-122.531 300.183,-126.506 304.805,-131.763"/>
</g>
<!-- Node9&#45;&gt;Node5 -->
<g id="edge10" class="edge"><title>Node9&#45;&gt;Node5</title>
<path fill="none" stroke="midnightblue" d="M305.625,-106.409C291.278,-98.1874 267.392,-84.4999 250.097,-74.5896"/>
<polygon fill="midnightblue" stroke="midnightblue" points="251.687,-71.4663 241.27,-69.5311 248.206,-77.5398 251.687,-71.4663"/>
</g>
</g>
</svg>
