<?xml version="1.0" encoding="UTF-8" standalone="no"?>
<!DOCTYPE svg PUBLIC "-//W3C//DTD SVG 1.1//EN"
 "http://www.w3.org/Graphics/SVG/1.1/DTD/svg11.dtd">
<!-- Generated by graphviz version 2.38.0 (20140413.2041)
 -->
<!-- Title: S:/QT_CREATOR/Locker_Control/showpackagebox.cpp Pages: 1 -->
<svg width="527pt" height="192pt"
 viewBox="0.00 0.00 527.00 192.00" xmlns="http://www.w3.org/2000/svg" xmlns:xlink="http://www.w3.org/1999/xlink">
<g id="graph0" class="graph" transform="scale(1 1) rotate(0) translate(4 188)">
<title>S:/QT_CREATOR/Locker_Control/showpackagebox.cpp</title>
<!-- Node1 -->
<g id="node1" class="node"><title>Node1</title>
<polygon fill="#bfbfbf" stroke="black" points="233,-159.5 233,-183.5 345,-183.5 345,-159.5 233,-159.5"/>
<text text-anchor="start" x="241" y="-173.9" font-family="Helvetica,sans-Serif" font-size="7.00">S:/QT_CREATOR/Locker</text>
<text text-anchor="middle" x="289" y="-165.9" font-family="Helvetica,sans-Serif" font-size="7.00">_Control/showpackagebox.cpp</text>
</g>
<!-- Node2 -->
<g id="node2" class="node"><title>Node2</title>
<g id="a_node2"><a xlink:href="showpackagebox_8h.html" target="_top" xlink:title="showpackagebox.h">
<polygon fill="none" stroke="red" points="0,-53.5 0,-69.5 76,-69.5 76,-53.5 0,-53.5"/>
<text text-anchor="middle" x="38" y="-59.9" font-family="Helvetica,sans-Serif" font-size="7.00">showpackagebox.h</text>
</a>
</g>
</g>
<!-- Node1&#45;&gt;Node2 -->
<g id="edge1" class="edge"><title>Node1&#45;&gt;Node2</title>
<path fill="none" stroke="midnightblue" d="M232.865,-164.317C175.496,-157.005 91.3304,-143.217 66,-123 52.5726,-112.283 45.3027,-93.6537 41.5641,-79.8907"/>
<polygon fill="midnightblue" stroke="midnightblue" points="44.8794,-78.6967 39.1965,-69.755 38.0629,-80.289 44.8794,-78.6967"/>
</g>
<!-- Node5 -->
<g id="node5" class="node"><title>Node5</title>
<polygon fill="none" stroke="#bfbfbf" points="145.5,-106.5 145.5,-122.5 230.5,-122.5 230.5,-106.5 145.5,-106.5"/>
<text text-anchor="middle" x="188" y="-112.9" font-family="Helvetica,sans-Serif" font-size="7.00">ui_showpackagebox.h</text>
</g>
<!-- Node1&#45;&gt;Node5 -->
<g id="edge4" class="edge"><title>Node1&#45;&gt;Node5</title>
<path fill="none" stroke="midnightblue" d="M268.561,-159.37C251.539,-150.1 227.352,-136.929 209.928,-127.441"/>
<polygon fill="midnightblue" stroke="midnightblue" points="211.489,-124.306 201.033,-122.597 208.141,-130.453 211.489,-124.306"/>
</g>
<!-- Node6 -->
<g id="node6" class="node"><title>Node6</title>
<g id="a_node6"><a xlink:href="customer_8h.html" target="_top" xlink:title="customer.h">
<polygon fill="none" stroke="red" points="75,-106.5 75,-122.5 127,-122.5 127,-106.5 75,-106.5"/>
<text text-anchor="middle" x="101" y="-112.9" font-family="Helvetica,sans-Serif" font-size="7.00">customer.h</text>
</a>
</g>
</g>
<!-- Node1&#45;&gt;Node6 -->
<g id="edge5" class="edge"><title>Node1&#45;&gt;Node6</title>
<path fill="none" stroke="midnightblue" d="M250.955,-159.37C216.973,-149.428 167.651,-134.999 134.971,-125.438"/>
<polygon fill="midnightblue" stroke="midnightblue" points="135.567,-121.966 124.986,-122.517 133.601,-128.684 135.567,-121.966"/>
</g>
<!-- Node7 -->
<g id="node7" class="node"><title>Node7</title>
<g id="a_node7"><a xlink:href="custompushbutton_8h.html" target="_top" xlink:title="custompushbutton.h">
<polygon fill="none" stroke="red" points="249,-106.5 249,-122.5 329,-122.5 329,-106.5 249,-106.5"/>
<text text-anchor="middle" x="289" y="-112.9" font-family="Helvetica,sans-Serif" font-size="7.00">custompushbutton.h</text>
</a>
</g>
</g>
<!-- Node1&#45;&gt;Node7 -->
<g id="edge9" class="edge"><title>Node1&#45;&gt;Node7</title>
<path fill="none" stroke="midnightblue" d="M289,-159.37C289,-151.775 289,-141.56 289,-132.899"/>
<polygon fill="midnightblue" stroke="midnightblue" points="292.5,-132.757 289,-122.757 285.5,-132.758 292.5,-132.757"/>
</g>
<!-- Node8 -->
<g id="node8" class="node"><title>Node8</title>
<polygon fill="none" stroke="#bfbfbf" points="347,-106.5 347,-122.5 397,-122.5 397,-106.5 347,-106.5"/>
<text text-anchor="middle" x="372" y="-112.9" font-family="Helvetica,sans-Serif" font-size="7.00">QScrollBar</text>
</g>
<!-- Node1&#45;&gt;Node8 -->
<g id="edge10" class="edge"><title>Node1&#45;&gt;Node8</title>
<path fill="none" stroke="midnightblue" d="M305.796,-159.37C319.319,-150.409 338.343,-137.803 352.53,-128.402"/>
<polygon fill="midnightblue" stroke="midnightblue" points="354.645,-131.199 361.048,-122.757 350.779,-125.364 354.645,-131.199"/>
</g>
<!-- Node9 -->
<g id="node9" class="node"><title>Node9</title>
<polygon fill="none" stroke="#bfbfbf" points="415,-106.5 415,-122.5 459,-122.5 459,-106.5 415,-106.5"/>
<text text-anchor="middle" x="437" y="-112.9" font-family="Helvetica,sans-Serif" font-size="7.00">QToolTip</text>
</g>
<!-- Node1&#45;&gt;Node9 -->
<g id="edge11" class="edge"><title>Node1&#45;&gt;Node9</title>
<path fill="none" stroke="midnightblue" d="M318.95,-159.37C345.048,-149.671 382.64,-135.701 408.348,-126.148"/>
<polygon fill="midnightblue" stroke="midnightblue" points="409.748,-129.361 417.903,-122.597 407.31,-122.8 409.748,-129.361"/>
</g>
<!-- Node10 -->
<g id="node10" class="node"><title>Node10</title>
<polygon fill="none" stroke="#bfbfbf" points="477,-106.5 477,-122.5 519,-122.5 519,-106.5 477,-106.5"/>
<text text-anchor="middle" x="498" y="-112.9" font-family="Helvetica,sans-Serif" font-size="7.00">QDebug</text>
</g>
<!-- Node1&#45;&gt;Node10 -->
<g id="edge12" class="edge"><title>Node1&#45;&gt;Node10</title>
<path fill="none" stroke="midnightblue" d="M331.043,-159.436C371.185,-148.872 430.749,-133.198 466.82,-123.705"/>
<polygon fill="midnightblue" stroke="midnightblue" points="467.994,-127.016 476.774,-121.086 466.213,-120.246 467.994,-127.016"/>
</g>
<!-- Node3 -->
<g id="node3" class="node"><title>Node3</title>
<polygon fill="none" stroke="#bfbfbf" points="111,-0.5 111,-16.5 155,-16.5 155,-0.5 111,-0.5"/>
<text text-anchor="middle" x="133" y="-6.9" font-family="Helvetica,sans-Serif" font-size="7.00">QWidget</text>
</g>
<!-- Node2&#45;&gt;Node3 -->
<g id="edge2" class="edge"><title>Node2&#45;&gt;Node3</title>
<path fill="none" stroke="midnightblue" d="M51.2093,-53.4087C66.6652,-45.1113 92.4927,-31.246 110.991,-21.3153"/>
<polygon fill="midnightblue" stroke="midnightblue" points="112.748,-24.3448 119.903,-16.5311 109.437,-18.1774 112.748,-24.3448"/>
</g>
<!-- Node4 -->
<g id="node4" class="node"><title>Node4</title>
<g id="a_node4"><a xlink:href="showwidgets_8h.html" target="_top" xlink:title="showwidgets.h">
<polygon fill="none" stroke="red" points="15,-0.5 15,-16.5 77,-16.5 77,-0.5 15,-0.5"/>
<text text-anchor="middle" x="46" y="-6.9" font-family="Helvetica,sans-Serif" font-size="7.00">showwidgets.h</text>
</a>
</g>
</g>
<!-- Node2&#45;&gt;Node4 -->
<g id="edge3" class="edge"><title>Node2&#45;&gt;Node4</title>
<path fill="none" stroke="midnightblue" d="M39.1124,-53.4087C40.199,-46.4815 41.8943,-35.6735 43.3311,-26.5142"/>
<polygon fill="midnightblue" stroke="midnightblue" points="46.805,-26.9527 44.8971,-16.5311 39.8896,-25.8679 46.805,-26.9527"/>
</g>
<!-- Node6&#45;&gt;Node2 -->
<g id="edge8" class="edge"><title>Node6&#45;&gt;Node2</title>
<path fill="none" stroke="midnightblue" d="M92.2401,-106.409C82.5546,-98.568 66.7275,-85.7556 54.6634,-75.9894"/>
<polygon fill="midnightblue" stroke="midnightblue" points="56.6602,-73.1028 46.6855,-69.5311 52.2557,-78.5435 56.6602,-73.1028"/>
</g>
<!-- Node6&#45;&gt;Node3 -->
<g id="edge6" class="edge"><title>Node6&#45;&gt;Node3</title>
<path fill="none" stroke="midnightblue" d="M104.182,-106.215C107.841,-97.6589 113.873,-82.9818 118,-70 122.571,-55.6199 126.613,-38.9561 129.346,-26.7625"/>
<polygon fill="midnightblue" stroke="midnightblue" points="132.837,-27.177 131.539,-16.662 125.997,-25.6913 132.837,-27.177"/>
</g>
<!-- Node6&#45;&gt;Node4 -->
<g id="edge7" class="edge"><title>Node6&#45;&gt;Node4</title>
<path fill="none" stroke="midnightblue" d="M100.217,-106.393C98.6933,-94.6638 94.5946,-70.7851 85,-53 79.0766,-42.0201 69.8421,-31.5492 61.8456,-23.6329"/>
<polygon fill="midnightblue" stroke="midnightblue" points="64.1081,-20.9557 54.4303,-16.6439 59.3069,-26.0498 64.1081,-20.9557"/>
</g>
</g>
</svg>
