<?xml version="1.0" encoding="UTF-8" standalone="no"?>
<!DOCTYPE svg PUBLIC "-//W3C//DTD SVG 1.1//EN"
 "http://www.w3.org/Graphics/SVG/1.1/DTD/svg11.dtd">
<!-- Generated by graphviz version 2.38.0 (20140413.2041)
 -->
<!-- Title: S:/QT_CREATOR/Locker_Control/showwidgets.cpp Pages: 1 -->
<svg width="106pt" height="139pt"
 viewBox="0.00 0.00 106.00 139.00" xmlns="http://www.w3.org/2000/svg" xmlns:xlink="http://www.w3.org/1999/xlink">
<g id="graph0" class="graph" transform="scale(1 1) rotate(0) translate(4 135)">
<title>S:/QT_CREATOR/Locker_Control/showwidgets.cpp</title>
<!-- Node1 -->
<g id="node1" class="node"><title>Node1</title>
<polygon fill="#bfbfbf" stroke="black" points="0,-106.5 0,-130.5 98,-130.5 98,-106.5 0,-106.5"/>
<text text-anchor="start" x="8" y="-120.9" font-family="Helvetica,sans-Serif" font-size="7.00">S:/QT_CREATOR/Locker</text>
<text text-anchor="middle" x="49" y="-112.9" font-family="Helvetica,sans-Serif" font-size="7.00">_Control/showwidgets.cpp</text>
</g>
<!-- Node2 -->
<g id="node2" class="node"><title>Node2</title>
<g id="a_node2"><a xlink:href="showwidgets_8h.html" target="_top" xlink:title="showwidgets.h">
<polygon fill="none" stroke="black" points="18,-53.5 18,-69.5 80,-69.5 80,-53.5 18,-53.5"/>
<text text-anchor="middle" x="49" y="-59.9" font-family="Helvetica,sans-Serif" font-size="7.00">showwidgets.h</text>
</a>
</g>
</g>
<!-- Node1&#45;&gt;Node2 -->
<g id="edge1" class="edge"><title>Node1&#45;&gt;Node2</title>
<path fill="none" stroke="midnightblue" d="M49,-106.37C49,-98.7748 49,-88.5603 49,-79.8986"/>
<polygon fill="midnightblue" stroke="midnightblue" points="52.5001,-79.7574 49,-69.7575 45.5001,-79.7575 52.5001,-79.7574"/>
</g>
<!-- Node3 -->
<g id="node3" class="node"><title>Node3</title>
<polygon fill="none" stroke="#bfbfbf" points="14.5,-0.5 14.5,-16.5 83.5,-16.5 83.5,-0.5 14.5,-0.5"/>
<text text-anchor="middle" x="49" y="-6.9" font-family="Helvetica,sans-Serif" font-size="7.00">QStackedWidget</text>
</g>
<!-- Node2&#45;&gt;Node3 -->
<g id="edge2" class="edge"><title>Node2&#45;&gt;Node3</title>
<path fill="none" stroke="midnightblue" d="M49,-53.4087C49,-46.5576 49,-35.9106 49,-26.8167"/>
<polygon fill="midnightblue" stroke="midnightblue" points="52.5001,-26.5311 49,-16.5311 45.5001,-26.5311 52.5001,-26.5311"/>
</g>
</g>
</svg>
