<?xml version="1.0" encoding="UTF-8" standalone="no"?>
<!DOCTYPE svg PUBLIC "-//W3C//DTD SVG 1.1//EN"
 "http://www.w3.org/Graphics/SVG/1.1/DTD/svg11.dtd">
<!-- Generated by graphviz version 2.38.0 (20140413.2041)
 -->
<!-- Title: S:/QT_CREATOR/Locker_Control/showpackagebox.h Pages: 1 -->
<svg width="502pt" height="192pt"
 viewBox="0.00 0.00 501.50 192.00" xmlns="http://www.w3.org/2000/svg" xmlns:xlink="http://www.w3.org/1999/xlink">
<g id="graph0" class="graph" transform="scale(1 1) rotate(0) translate(4 188)">
<title>S:/QT_CREATOR/Locker_Control/showpackagebox.h</title>
<!-- Node1 -->
<g id="node1" class="node"><title>Node1</title>
<polygon fill="#bfbfbf" stroke="black" points="177,-159.5 177,-183.5 281,-183.5 281,-159.5 177,-159.5"/>
<text text-anchor="start" x="185" y="-173.9" font-family="Helvetica,sans-Serif" font-size="7.00">S:/QT_CREATOR/Locker</text>
<text text-anchor="middle" x="229" y="-165.9" font-family="Helvetica,sans-Serif" font-size="7.00">_Control/showpackagebox.h</text>
</g>
<!-- Node2 -->
<g id="node2" class="node"><title>Node2</title>
<polygon fill="none" stroke="#bfbfbf" points="0,-106.5 0,-122.5 44,-122.5 44,-106.5 0,-106.5"/>
<text text-anchor="middle" x="22" y="-112.9" font-family="Helvetica,sans-Serif" font-size="7.00">QWidget</text>
</g>
<!-- Node1&#45;&gt;Node2 -->
<g id="edge1" class="edge"><title>Node1&#45;&gt;Node2</title>
<path fill="none" stroke="midnightblue" d="M187.11,-159.37C147.757,-148.914 89.7196,-133.493 53.9691,-123.994"/>
<polygon fill="midnightblue" stroke="midnightblue" points="54.6364,-120.55 44.0729,-121.365 52.8388,-127.315 54.6364,-120.55"/>
</g>
<!-- Node3 -->
<g id="node3" class="node"><title>Node3</title>
<polygon fill="none" stroke="#bfbfbf" points="62.5,-106.5 62.5,-122.5 101.5,-122.5 101.5,-106.5 62.5,-106.5"/>
<text text-anchor="middle" x="82" y="-112.9" font-family="Helvetica,sans-Serif" font-size="7.00">QTimer</text>
</g>
<!-- Node1&#45;&gt;Node3 -->
<g id="edge2" class="edge"><title>Node1&#45;&gt;Node3</title>
<path fill="none" stroke="midnightblue" d="M199.252,-159.37C173.33,-149.671 135.993,-135.701 110.459,-126.148"/>
<polygon fill="midnightblue" stroke="midnightblue" points="111.561,-122.823 100.968,-122.597 109.108,-129.379 111.561,-122.823"/>
</g>
<!-- Node4 -->
<g id="node4" class="node"><title>Node4</title>
<g id="a_node4"><a xlink:href="showwidgets_8h.html" target="_top" xlink:title="showwidgets.h">
<polygon fill="none" stroke="black" points="120,-106.5 120,-122.5 182,-122.5 182,-106.5 120,-106.5"/>
<text text-anchor="middle" x="151" y="-112.9" font-family="Helvetica,sans-Serif" font-size="7.00">showwidgets.h</text>
</a>
</g>
</g>
<!-- Node1&#45;&gt;Node4 -->
<g id="edge3" class="edge"><title>Node1&#45;&gt;Node4</title>
<path fill="none" stroke="midnightblue" d="M213.216,-159.37C200.629,-150.495 182.97,-138.043 169.679,-128.671"/>
<polygon fill="midnightblue" stroke="midnightblue" points="171.482,-125.66 161.292,-122.757 167.448,-131.381 171.482,-125.66"/>
</g>
<!-- Node6 -->
<g id="node6" class="node"><title>Node6</title>
<g id="a_node6"><a xlink:href="csqlite__local__db_8h.html" target="_top" xlink:title="csqlite_local_db.h">
<polygon fill="none" stroke="red" points="251,-0.5 251,-16.5 323,-16.5 323,-0.5 251,-0.5"/>
<text text-anchor="middle" x="287" y="-6.9" font-family="Helvetica,sans-Serif" font-size="7.00">csqlite_local_db.h</text>
</a>
</g>
</g>
<!-- Node1&#45;&gt;Node6 -->
<g id="edge5" class="edge"><title>Node1&#45;&gt;Node6</title>
<path fill="none" stroke="midnightblue" d="M225.886,-159.391C220.427,-137.623 211.302,-88.3966 229,-53 235.863,-39.2741 249.344,-28.7556 261.584,-21.5027"/>
<polygon fill="midnightblue" stroke="midnightblue" points="263.472,-24.4593 270.571,-16.5939 260.117,-18.316 263.472,-24.4593"/>
</g>
<!-- Node7 -->
<g id="node7" class="node"><title>Node7</title>
<g id="a_node7"><a xlink:href="threaddeleteextractcode_8h.html" target="_top" xlink:title="threaddeleteextractcode.h">
<polygon fill="none" stroke="red" points="238,-53.5 238,-69.5 336,-69.5 336,-53.5 238,-53.5"/>
<text text-anchor="middle" x="287" y="-59.9" font-family="Helvetica,sans-Serif" font-size="7.00">threaddeleteextractcode.h</text>
</a>
</g>
</g>
<!-- Node1&#45;&gt;Node7 -->
<g id="edge6" class="edge"><title>Node1&#45;&gt;Node7</title>
<path fill="none" stroke="midnightblue" d="M234.989,-159.349C245.329,-140.094 266.565,-100.551 278.455,-78.4116"/>
<polygon fill="midnightblue" stroke="midnightblue" points="281.54,-80.0651 283.187,-69.5992 275.373,-76.7532 281.54,-80.0651"/>
</g>
<!-- Node8 -->
<g id="node8" class="node"><title>Node8</title>
<g id="a_node8"><a xlink:href="thread__statusdoors_8h.html" target="_top" xlink:title="thread_statusdoors.h">
<polygon fill="none" stroke="red" points="276.5,-106.5 276.5,-122.5 359.5,-122.5 359.5,-106.5 276.5,-106.5"/>
<text text-anchor="middle" x="318" y="-112.9" font-family="Helvetica,sans-Serif" font-size="7.00">thread_statusdoors.h</text>
</a>
</g>
</g>
<!-- Node1&#45;&gt;Node8 -->
<g id="edge8" class="edge"><title>Node1&#45;&gt;Node8</title>
<path fill="none" stroke="midnightblue" d="M247.01,-159.37C261.733,-150.272 282.536,-137.416 297.818,-127.972"/>
<polygon fill="midnightblue" stroke="midnightblue" points="299.849,-130.831 306.516,-122.597 296.169,-124.877 299.849,-130.831"/>
</g>
<!-- Node9 -->
<g id="node9" class="node"><title>Node9</title>
<g id="a_node9"><a xlink:href="cdoors_8h.html" target="_top" xlink:title="cdoors.h">
<polygon fill="none" stroke="red" points="354,-53.5 354,-69.5 398,-69.5 398,-53.5 354,-53.5"/>
<text text-anchor="middle" x="376" y="-59.9" font-family="Helvetica,sans-Serif" font-size="7.00">cdoors.h</text>
</a>
</g>
</g>
<!-- Node1&#45;&gt;Node9 -->
<g id="edge12" class="edge"><title>Node1&#45;&gt;Node9</title>
<path fill="none" stroke="midnightblue" d="M281.082,-166.354C311.432,-161.071 347.792,-149.256 369,-123 378.661,-111.04 379.605,-93.1479 378.619,-79.9212"/>
<polygon fill="midnightblue" stroke="midnightblue" points="382.068,-79.288 377.425,-69.7651 375.116,-80.1054 382.068,-79.288"/>
</g>
<!-- Node10 -->
<g id="node10" class="node"><title>Node10</title>
<g id="a_node10"><a xlink:href="customtreewidget_8h.html" target="_top" xlink:title="customtreewidget.h">
<polygon fill="none" stroke="red" points="416.5,-106.5 416.5,-122.5 493.5,-122.5 493.5,-106.5 416.5,-106.5"/>
<text text-anchor="middle" x="455" y="-112.9" font-family="Helvetica,sans-Serif" font-size="7.00">customtreewidget.h</text>
</a>
</g>
</g>
<!-- Node1&#45;&gt;Node10 -->
<g id="edge11" class="edge"><title>Node1&#45;&gt;Node10</title>
<path fill="none" stroke="midnightblue" d="M274.463,-159.436C316.083,-149.307 377.011,-134.48 416.34,-124.908"/>
<polygon fill="midnightblue" stroke="midnightblue" points="417.204,-128.3 426.093,-122.535 415.549,-121.499 417.204,-128.3"/>
</g>
<!-- Node5 -->
<g id="node5" class="node"><title>Node5</title>
<polygon fill="none" stroke="#bfbfbf" points="112.5,-53.5 112.5,-69.5 181.5,-69.5 181.5,-53.5 112.5,-53.5"/>
<text text-anchor="middle" x="147" y="-59.9" font-family="Helvetica,sans-Serif" font-size="7.00">QStackedWidget</text>
</g>
<!-- Node4&#45;&gt;Node5 -->
<g id="edge4" class="edge"><title>Node4&#45;&gt;Node5</title>
<path fill="none" stroke="midnightblue" d="M150.444,-106.409C149.901,-99.4815 149.053,-88.6735 148.334,-79.5142"/>
<polygon fill="midnightblue" stroke="midnightblue" points="151.823,-79.2268 147.551,-69.5311 144.844,-79.7742 151.823,-79.2268"/>
</g>
<!-- Node7&#45;&gt;Node6 -->
<g id="edge7" class="edge"><title>Node7&#45;&gt;Node6</title>
<path fill="none" stroke="midnightblue" d="M287,-53.4087C287,-46.5576 287,-35.9106 287,-26.8167"/>
<polygon fill="midnightblue" stroke="midnightblue" points="290.5,-26.5311 287,-16.5311 283.5,-26.5311 290.5,-26.5311"/>
</g>
<!-- Node8&#45;&gt;Node9 -->
<g id="edge9" class="edge"><title>Node8&#45;&gt;Node9</title>
<path fill="none" stroke="midnightblue" d="M326.065,-106.409C334.895,-98.6442 349.27,-86.0039 360.335,-76.2747"/>
<polygon fill="midnightblue" stroke="midnightblue" points="362.805,-78.7629 368.004,-69.5311 358.183,-73.5061 362.805,-78.7629"/>
</g>
<!-- Node9&#45;&gt;Node6 -->
<g id="edge10" class="edge"><title>Node9&#45;&gt;Node6</title>
<path fill="none" stroke="midnightblue" d="M363.625,-53.4087C349.278,-45.1874 325.392,-31.4999 308.097,-21.5896"/>
<polygon fill="midnightblue" stroke="midnightblue" points="309.687,-18.4663 299.27,-16.5311 306.206,-24.5398 309.687,-18.4663"/>
</g>
</g>
</svg>
