<?xml version="1.0" encoding="UTF-8" standalone="no"?>
<!DOCTYPE svg PUBLIC "-//W3C//DTD SVG 1.1//EN"
 "http://www.w3.org/Graphics/SVG/1.1/DTD/svg11.dtd">
<!-- Generated by graphviz version 2.38.0 (20140413.2041)
 -->
<!-- Title: S:/QT_CREATOR/Locker_Control/showpackagebox.cpp Pages: 1 -->
<svg width="466pt" height="192pt"
 viewBox="0.00 0.00 465.64 192.00" xmlns="http://www.w3.org/2000/svg" xmlns:xlink="http://www.w3.org/1999/xlink">
<g id="graph0" class="graph" transform="scale(1 1) rotate(0) translate(4 188)">
<title>S:/QT_CREATOR/Locker_Control/showpackagebox.cpp</title>
<!-- Node1 -->
<g id="node1" class="node"><title>Node1</title>
<polygon fill="#bfbfbf" stroke="black" points="171.642,-159.5 171.642,-183.5 283.642,-183.5 283.642,-159.5 171.642,-159.5"/>
<text text-anchor="start" x="179.642" y="-173.9" font-family="Helvetica,sans-Serif" font-size="7.00">S:/QT_CREATOR/Locker</text>
<text text-anchor="middle" x="227.642" y="-165.9" font-family="Helvetica,sans-Serif" font-size="7.00">_Control/showpackagebox.cpp</text>
</g>
<!-- Node2 -->
<g id="node2" class="node"><title>Node2</title>
<g id="a_node2"><a xlink:href="showpackagebox_8h.html" target="_top" target="_top" xlink:title="showpackagebox.h">
<polygon fill="none" stroke="red" points="39.6424,-53.5 39.6424,-69.5 115.642,-69.5 115.642,-53.5 39.6424,-53.5"/>
<text text-anchor="middle" x="77.6424" y="-59.9" font-family="Helvetica,sans-Serif" font-size="7.00">showpackagebox.h</text>
</a>
</g>
</g>
<!-- Node1&#45;&gt;Node2 -->
<g id="edge1" class="edge"><title>Node1&#45;&gt;Node2</title>
<path fill="none" stroke="midnightblue" d="M171.466,-166.434C112.414,-160.853 25.2507,-148.46 4.6424,-123 -11.7752,-102.717 20.1353,-84.3541 46.8143,-73.3114"/>
<polygon fill="midnightblue" stroke="midnightblue" points="48.2783,-76.4968 56.3074,-69.5843 45.72,-69.981 48.2783,-76.4968"/>
</g>
<!-- Node5 -->
<g id="node5" class="node"><title>Node5</title>
<polygon fill="none" stroke="#bfbfbf" points="14.1424,-106.5 14.1424,-122.5 99.1424,-122.5 99.1424,-106.5 14.1424,-106.5"/>
<text text-anchor="middle" x="56.6424" y="-112.9" font-family="Helvetica,sans-Serif" font-size="7.00">ui_showpackagebox.h</text>
</g>
<!-- Node1&#45;&gt;Node5 -->
<g id="edge4" class="edge"><title>Node1&#45;&gt;Node5</title>
<path fill="none" stroke="midnightblue" d="M193.038,-159.37C162.484,-149.542 118.295,-135.33 88.5717,-125.77"/>
<polygon fill="midnightblue" stroke="midnightblue" points="89.299,-122.327 78.7076,-122.597 87.1556,-128.991 89.299,-122.327"/>
</g>
<!-- Node6 -->
<g id="node6" class="node"><title>Node6</title>
<g id="a_node6"><a xlink:href="customer_8h.html" target="_top" target="_top" xlink:title="customer.h">
<polygon fill="none" stroke="red" points="117.642,-106.5 117.642,-122.5 169.642,-122.5 169.642,-106.5 117.642,-106.5"/>
<text text-anchor="middle" x="143.642" y="-112.9" font-family="Helvetica,sans-Serif" font-size="7.00">customer.h</text>
</a>
</g>
</g>
<!-- Node1&#45;&gt;Node6 -->
<g id="edge5" class="edge"><title>Node1&#45;&gt;Node6</title>
<path fill="none" stroke="midnightblue" d="M210.644,-159.37C196.959,-150.409 177.705,-137.803 163.347,-128.402"/>
<polygon fill="midnightblue" stroke="midnightblue" points="165.01,-125.307 154.727,-122.757 161.175,-131.164 165.01,-125.307"/>
</g>
<!-- Node7 -->
<g id="node7" class="node"><title>Node7</title>
<g id="a_node7"><a xlink:href="custompushbutton_8h.html" target="_top" target="_top" xlink:title="custompushbutton.h">
<polygon fill="none" stroke="red" points="187.642,-106.5 187.642,-122.5 267.642,-122.5 267.642,-106.5 187.642,-106.5"/>
<text text-anchor="middle" x="227.642" y="-112.9" font-family="Helvetica,sans-Serif" font-size="7.00">custompushbutton.h</text>
</a>
</g>
</g>
<!-- Node1&#45;&gt;Node7 -->
<g id="edge8" class="edge"><title>Node1&#45;&gt;Node7</title>
<path fill="none" stroke="midnightblue" d="M227.642,-159.37C227.642,-151.775 227.642,-141.56 227.642,-132.899"/>
<polygon fill="midnightblue" stroke="midnightblue" points="231.143,-132.757 227.642,-122.757 224.143,-132.758 231.143,-132.757"/>
</g>
<!-- Node8 -->
<g id="node8" class="node"><title>Node8</title>
<polygon fill="none" stroke="#bfbfbf" points="285.642,-106.5 285.642,-122.5 335.642,-122.5 335.642,-106.5 285.642,-106.5"/>
<text text-anchor="middle" x="310.642" y="-112.9" font-family="Helvetica,sans-Serif" font-size="7.00">QScrollBar</text>
</g>
<!-- Node1&#45;&gt;Node8 -->
<g id="edge9" class="edge"><title>Node1&#45;&gt;Node8</title>
<path fill="none" stroke="midnightblue" d="M244.439,-159.37C257.961,-150.409 276.985,-137.803 291.172,-128.402"/>
<polygon fill="midnightblue" stroke="midnightblue" points="293.288,-131.199 299.69,-122.757 289.421,-125.364 293.288,-131.199"/>
</g>
<!-- Node9 -->
<g id="node9" class="node"><title>Node9</title>
<polygon fill="none" stroke="#bfbfbf" points="353.642,-106.5 353.642,-122.5 397.642,-122.5 397.642,-106.5 353.642,-106.5"/>
<text text-anchor="middle" x="375.642" y="-112.9" font-family="Helvetica,sans-Serif" font-size="7.00">QToolTip</text>
</g>
<!-- Node1&#45;&gt;Node9 -->
<g id="edge10" class="edge"><title>Node1&#45;&gt;Node9</title>
<path fill="none" stroke="midnightblue" d="M257.592,-159.37C283.691,-149.671 321.282,-135.701 346.99,-126.148"/>
<polygon fill="midnightblue" stroke="midnightblue" points="348.391,-129.361 356.545,-122.597 345.952,-122.8 348.391,-129.361"/>
</g>
<!-- Node10 -->
<g id="node10" class="node"><title>Node10</title>
<polygon fill="none" stroke="#bfbfbf" points="415.642,-106.5 415.642,-122.5 457.642,-122.5 457.642,-106.5 415.642,-106.5"/>
<text text-anchor="middle" x="436.642" y="-112.9" font-family="Helvetica,sans-Serif" font-size="7.00">QDebug</text>
</g>
<!-- Node1&#45;&gt;Node10 -->
<g id="edge11" class="edge"><title>Node1&#45;&gt;Node10</title>
<path fill="none" stroke="midnightblue" d="M269.685,-159.436C309.827,-148.872 369.391,-133.198 405.463,-123.705"/>
<polygon fill="midnightblue" stroke="midnightblue" points="406.637,-127.016 415.417,-121.086 404.855,-120.246 406.637,-127.016"/>
</g>
<!-- Node3 -->
<g id="node3" class="node"><title>Node3</title>
<polygon fill="none" stroke="#bfbfbf" points="118.642,-0.5 118.642,-16.5 162.642,-16.5 162.642,-0.5 118.642,-0.5"/>
<text text-anchor="middle" x="140.642" y="-6.9" font-family="Helvetica,sans-Serif" font-size="7.00">QWidget</text>
</g>
<!-- Node2&#45;&gt;Node3 -->
<g id="edge2" class="edge"><title>Node2&#45;&gt;Node3</title>
<path fill="none" stroke="midnightblue" d="M86.4023,-53.4087C96.0878,-45.568 111.915,-32.7556 123.979,-22.9894"/>
<polygon fill="midnightblue" stroke="midnightblue" points="126.387,-25.5435 131.957,-16.5311 121.982,-20.1028 126.387,-25.5435"/>
</g>
<!-- Node4 -->
<g id="node4" class="node"><title>Node4</title>
<polygon fill="none" stroke="#bfbfbf" points="58.1424,-0.5 58.1424,-16.5 97.1424,-16.5 97.1424,-0.5 58.1424,-0.5"/>
<text text-anchor="middle" x="77.6424" y="-6.9" font-family="Helvetica,sans-Serif" font-size="7.00">QTimer</text>
</g>
<!-- Node2&#45;&gt;Node4 -->
<g id="edge3" class="edge"><title>Node2&#45;&gt;Node4</title>
<path fill="none" stroke="midnightblue" d="M77.6424,-53.4087C77.6424,-46.5576 77.6424,-35.9106 77.6424,-26.8167"/>
<polygon fill="midnightblue" stroke="midnightblue" points="81.1425,-26.5311 77.6424,-16.5311 74.1425,-26.5311 81.1425,-26.5311"/>
</g>
<!-- Node6&#45;&gt;Node2 -->
<g id="edge7" class="edge"><title>Node6&#45;&gt;Node2</title>
<path fill="none" stroke="midnightblue" d="M134.465,-106.409C124.22,-98.4919 107.415,-85.5063 94.7323,-75.7058"/>
<polygon fill="midnightblue" stroke="midnightblue" points="96.7944,-72.8761 86.7415,-69.5311 92.5143,-78.4151 96.7944,-72.8761"/>
</g>
<!-- Node6&#45;&gt;Node3 -->
<g id="edge6" class="edge"><title>Node6&#45;&gt;Node3</title>
<path fill="none" stroke="midnightblue" d="M143.436,-106.352C142.967,-90.0985 141.81,-49.9887 141.142,-26.8037"/>
<polygon fill="midnightblue" stroke="midnightblue" points="144.637,-26.5933 140.85,-16.6984 137.64,-26.7952 144.637,-26.5933"/>
</g>
</g>
</svg>
