<?xml version="1.0" encoding="UTF-8" standalone="no"?>
<!DOCTYPE svg PUBLIC "-//W3C//DTD SVG 1.1//EN"
 "http://www.w3.org/Graphics/SVG/1.1/DTD/svg11.dtd">
<!-- Generated by graphviz version 2.38.0 (20140413.2041)
 -->
<!-- Title: S:/QT_CREATOR/Locker_Control/showpackagebox.h Pages: 1 -->
<svg width="655pt" height="285pt"
 viewBox="0.00 0.00 655.00 285.00" xmlns="http://www.w3.org/2000/svg" xmlns:xlink="http://www.w3.org/1999/xlink">
<g id="graph0" class="graph" transform="scale(1 1) rotate(0) translate(4 281)">
<title>S:/QT_CREATOR/Locker_Control/showpackagebox.h</title>
<!-- Node1 -->
<g id="node1" class="node"><title>Node1</title>
<polygon fill="#bfbfbf" stroke="black" points="395,-252.5 395,-276.5 499,-276.5 499,-252.5 395,-252.5"/>
<text text-anchor="start" x="403" y="-266.9" font-family="Helvetica,sans-Serif" font-size="7.00">S:/QT_CREATOR/Locker</text>
<text text-anchor="middle" x="447" y="-258.9" font-family="Helvetica,sans-Serif" font-size="7.00">_Control/showpackagebox.h</text>
</g>
<!-- Node2 -->
<g id="node2" class="node"><title>Node2</title>
<g id="a_node2"><a xlink:href="customer_8h.html" target="_top" xlink:title="S:/QT_CREATOR/Locker\l_Control/customer.h">
<polygon fill="none" stroke="black" points="361.5,-191.5 361.5,-215.5 456.5,-215.5 456.5,-191.5 361.5,-191.5"/>
<text text-anchor="start" x="369.5" y="-205.9" font-family="Helvetica,sans-Serif" font-size="7.00">S:/QT_CREATOR/Locker</text>
<text text-anchor="middle" x="409" y="-197.9" font-family="Helvetica,sans-Serif" font-size="7.00">_Control/customer.h</text>
</a>
</g>
</g>
<!-- Node1&#45;&gt;Node2 -->
<g id="edge1" class="edge"><title>Node1&#45;&gt;Node2</title>
<path fill="none" stroke="midnightblue" d="M434.42,-243.968C428.335,-234.521 421.256,-223.529 416.115,-215.548"/>
<polygon fill="midnightblue" stroke="midnightblue" points="431.495,-245.891 439.852,-252.403 437.38,-242.1 431.495,-245.891"/>
</g>
<!-- Node3 -->
<g id="node3" class="node"><title>Node3</title>
<g id="a_node3"><a xlink:href="consolewindows_8h.html" target="_top" xlink:title="S:/QT_CREATOR/Locker\l_Control/consolewindows.h">
<polygon fill="none" stroke="black" points="242.5,-130.5 242.5,-154.5 343.5,-154.5 343.5,-130.5 242.5,-130.5"/>
<text text-anchor="start" x="250.5" y="-144.9" font-family="Helvetica,sans-Serif" font-size="7.00">S:/QT_CREATOR/Locker</text>
<text text-anchor="middle" x="293" y="-136.9" font-family="Helvetica,sans-Serif" font-size="7.00">_Control/consolewindows.h</text>
</a>
</g>
</g>
<!-- Node1&#45;&gt;Node3 -->
<g id="edge12" class="edge"><title>Node1&#45;&gt;Node3</title>
<path fill="none" stroke="midnightblue" d="M407.625,-248.338C389.613,-240.308 368.632,-229.331 352,-216 329.461,-197.934 309.741,-169.94 299.817,-154.559"/>
<polygon fill="midnightblue" stroke="midnightblue" points="406.71,-251.755 417.28,-252.493 409.477,-245.325 406.71,-251.755"/>
</g>
<!-- Node9 -->
<g id="node9" class="node"><title>Node9</title>
<g id="a_node9"><a xlink:href="showpackagebox_8cpp.html" target="_top" xlink:title="S:/QT_CREATOR/Locker\l_Control/showpackagebox.cpp">
<polygon fill="none" stroke="black" points="475,-130.5 475,-154.5 587,-154.5 587,-130.5 475,-130.5"/>
<text text-anchor="start" x="483" y="-144.9" font-family="Helvetica,sans-Serif" font-size="7.00">S:/QT_CREATOR/Locker</text>
<text text-anchor="middle" x="531" y="-136.9" font-family="Helvetica,sans-Serif" font-size="7.00">_Control/showpackagebox.cpp</text>
</a>
</g>
</g>
<!-- Node1&#45;&gt;Node9 -->
<g id="edge13" class="edge"><title>Node1&#45;&gt;Node9</title>
<path fill="none" stroke="midnightblue" d="M460.686,-243.949C478.499,-218.502 509.029,-174.887 523.267,-154.547"/>
<polygon fill="midnightblue" stroke="midnightblue" points="457.619,-242.226 454.752,-252.426 463.354,-246.241 457.619,-242.226"/>
</g>
<!-- Node10 -->
<g id="node10" class="node"><title>Node10</title>
<g id="a_node10"><a xlink:href="threaddeleteextractcode_8cpp.html" target="_top" xlink:title="S:/QT_CREATOR/Locker\l_Control/threaddeleteextractcode.cpp">
<polygon fill="none" stroke="black" points="513,-191.5 513,-215.5 647,-215.5 647,-191.5 513,-191.5"/>
<text text-anchor="start" x="521" y="-205.9" font-family="Helvetica,sans-Serif" font-size="7.00">S:/QT_CREATOR/Locker</text>
<text text-anchor="middle" x="580" y="-197.9" font-family="Helvetica,sans-Serif" font-size="7.00">_Control/threaddeleteextractcode.cpp</text>
</a>
</g>
</g>
<!-- Node1&#45;&gt;Node10 -->
<g id="edge14" class="edge"><title>Node1&#45;&gt;Node10</title>
<path fill="none" stroke="midnightblue" d="M481.439,-248.222C504.5,-237.993 534.322,-224.763 555.096,-215.548"/>
<polygon fill="midnightblue" stroke="midnightblue" points="479.738,-245.148 472.016,-252.403 482.577,-251.547 479.738,-245.148"/>
</g>
<!-- Node2&#45;&gt;Node3 -->
<g id="edge2" class="edge"><title>Node2&#45;&gt;Node3</title>
<path fill="none" stroke="midnightblue" d="M378.151,-186.81C358.154,-176.639 332.596,-163.64 314.721,-154.548"/>
<polygon fill="midnightblue" stroke="midnightblue" points="376.681,-189.989 387.181,-191.403 379.855,-183.749 376.681,-189.989"/>
</g>
<!-- Node8 -->
<g id="node8" class="node"><title>Node8</title>
<g id="a_node8"><a xlink:href="customer_8cpp.html" target="_top" xlink:title="S:/QT_CREATOR/Locker\l_Control/customer.cpp">
<polygon fill="none" stroke="black" points="361.5,-130.5 361.5,-154.5 456.5,-154.5 456.5,-130.5 361.5,-130.5"/>
<text text-anchor="start" x="369.5" y="-144.9" font-family="Helvetica,sans-Serif" font-size="7.00">S:/QT_CREATOR/Locker</text>
<text text-anchor="middle" x="409" y="-136.9" font-family="Helvetica,sans-Serif" font-size="7.00">_Control/customer.cpp</text>
</a>
</g>
</g>
<!-- Node2&#45;&gt;Node8 -->
<g id="edge10" class="edge"><title>Node2&#45;&gt;Node8</title>
<path fill="none" stroke="midnightblue" d="M409,-181.198C409,-172.173 409,-162.035 409,-154.548"/>
<polygon fill="midnightblue" stroke="midnightblue" points="405.5,-181.403 409,-191.403 412.5,-181.403 405.5,-181.403"/>
</g>
<!-- Node2&#45;&gt;Node9 -->
<g id="edge11" class="edge"><title>Node2&#45;&gt;Node9</title>
<path fill="none" stroke="midnightblue" d="M441.159,-186.948C462.232,-176.757 489.27,-163.681 508.156,-154.548"/>
<polygon fill="midnightblue" stroke="midnightblue" points="439.426,-183.898 431.947,-191.403 442.474,-190.2 439.426,-183.898"/>
</g>
<!-- Node4 -->
<g id="node4" class="node"><title>Node4</title>
<g id="a_node4"><a xlink:href="consolewindows_8cpp.html" target="_top" xlink:title="S:/QT_CREATOR/Locker\l_Control/consolewindows.cpp">
<polygon fill="none" stroke="black" points="0,-69.5 0,-93.5 108,-93.5 108,-69.5 0,-69.5"/>
<text text-anchor="start" x="8" y="-83.9" font-family="Helvetica,sans-Serif" font-size="7.00">S:/QT_CREATOR/Locker</text>
<text text-anchor="middle" x="54" y="-75.9" font-family="Helvetica,sans-Serif" font-size="7.00">_Control/consolewindows.cpp</text>
</a>
</g>
</g>
<!-- Node3&#45;&gt;Node4 -->
<g id="edge3" class="edge"><title>Node3&#45;&gt;Node4</title>
<path fill="none" stroke="midnightblue" d="M238.485,-128.042C196.247,-117.615 138.442,-103.346 98.8598,-93.5742"/>
<polygon fill="midnightblue" stroke="midnightblue" points="237.779,-131.473 248.326,-130.472 239.457,-124.677 237.779,-131.473"/>
</g>
<!-- Node5 -->
<g id="node5" class="node"><title>Node5</title>
<g id="a_node5"><a xlink:href="thread__databasemanager_8h.html" target="_top" xlink:title="S:/QT_CREATOR/Locker\l_Control/thread_databasemanager.h">
<polygon fill="none" stroke="red" points="126,-69.5 126,-93.5 256,-93.5 256,-69.5 126,-69.5"/>
<text text-anchor="start" x="134" y="-83.9" font-family="Helvetica,sans-Serif" font-size="7.00">S:/QT_CREATOR/Locker</text>
<text text-anchor="middle" x="191" y="-75.9" font-family="Helvetica,sans-Serif" font-size="7.00">_Control/thread_databasemanager.h</text>
</a>
</g>
</g>
<!-- Node3&#45;&gt;Node5 -->
<g id="edge4" class="edge"><title>Node3&#45;&gt;Node5</title>
<path fill="none" stroke="midnightblue" d="M265.156,-125.394C247.682,-115.287 225.604,-102.516 210.099,-93.5477"/>
<polygon fill="midnightblue" stroke="midnightblue" points="263.406,-128.425 273.815,-130.403 266.911,-122.366 263.406,-128.425"/>
</g>
<!-- Node6 -->
<g id="node6" class="node"><title>Node6</title>
<g id="a_node6"><a xlink:href="sqlite__local__databasemanager_8h.html" target="_top" xlink:title="S:/QT_CREATOR/Locker\l_Control/sqlite_local\l_databasemanager.h">
<polygon fill="none" stroke="red" points="194.5,-0.5 194.5,-32.5 289.5,-32.5 289.5,-0.5 194.5,-0.5"/>
<text text-anchor="start" x="202.5" y="-22.9" font-family="Helvetica,sans-Serif" font-size="7.00">S:/QT_CREATOR/Locker</text>
<text text-anchor="start" x="202.5" y="-14.9" font-family="Helvetica,sans-Serif" font-size="7.00">_Control/sqlite_local</text>
<text text-anchor="middle" x="242" y="-6.9" font-family="Helvetica,sans-Serif" font-size="7.00">_databasemanager.h</text>
</a>
</g>
</g>
<!-- Node3&#45;&gt;Node6 -->
<g id="edge8" class="edge"><title>Node3&#45;&gt;Node6</title>
<path fill="none" stroke="midnightblue" d="M277.868,-120.997C270.923,-106.417 263.244,-86.4094 256,-69 250.884,-56.7046 244.713,-42.9384 241.4,-32.7342"/>
<polygon fill="midnightblue" stroke="midnightblue" points="274.869,-122.821 282.544,-130.126 281.1,-119.63 274.869,-122.821"/>
</g>
<!-- Node7 -->
<g id="node7" class="node"><title>Node7</title>
<g id="a_node7"><a xlink:href="main_8cpp.html" target="_top" xlink:title="S:/QT_CREATOR/Locker\l_Control/main.cpp">
<polygon fill="none" stroke="black" points="330.5,-69.5 330.5,-93.5 425.5,-93.5 425.5,-69.5 330.5,-69.5"/>
<text text-anchor="start" x="338.5" y="-83.9" font-family="Helvetica,sans-Serif" font-size="7.00">S:/QT_CREATOR/Locker</text>
<text text-anchor="middle" x="378" y="-75.9" font-family="Helvetica,sans-Serif" font-size="7.00">_Control/main.cpp</text>
</a>
</g>
</g>
<!-- Node3&#45;&gt;Node7 -->
<g id="edge9" class="edge"><title>Node3&#45;&gt;Node7</title>
<path fill="none" stroke="midnightblue" d="M317.414,-124.554C331.774,-114.587 349.519,-102.269 362.084,-93.5477"/>
<polygon fill="midnightblue" stroke="midnightblue" points="315.207,-121.825 308.988,-130.403 319.199,-127.576 315.207,-121.825"/>
</g>
<!-- Node5&#45;&gt;Node6 -->
<g id="edge5" class="edge"><title>Node5&#45;&gt;Node6</title>
<path fill="none" stroke="midnightblue" d="M200.631,-60.8094C207.267,-51.7358 215.996,-41.1336 223.832,-32.6903"/>
<polygon fill="midnightblue" stroke="midnightblue" points="197.612,-59.0214 194.802,-69.2369 203.369,-63.0033 197.612,-59.0214"/>
</g>
<!-- Node6&#45;&gt;Node3 -->
<g id="edge6" class="edge"><title>Node6&#45;&gt;Node3</title>
<path fill="none" stroke="midnightblue" d="M261.503,-41.5253C265.917,-50.1479 270.243,-59.9705 274,-69 282.915,-90.427 292.49,-115.789 295.084,-130.126"/>
<polygon fill="midnightblue" stroke="midnightblue" points="264.567,-39.833 256.702,-32.7342 258.423,-43.1882 264.567,-39.833"/>
</g>
<!-- Node6&#45;&gt;Node5 -->
<g id="edge7" class="edge"><title>Node6&#45;&gt;Node5</title>
<path fill="none" stroke="midnightblue" d="M229.657,-40.8314C222.3,-50.5366 213.134,-61.3532 205.434,-69.2369"/>
<polygon fill="midnightblue" stroke="midnightblue" points="232.526,-42.8371 235.574,-32.6903 226.863,-38.7214 232.526,-42.8371"/>
</g>
</g>
</svg>
