<?xml version="1.0" encoding="UTF-8" standalone="no"?>
<!DOCTYPE svg PUBLIC "-//W3C//DTD SVG 1.1//EN"
 "http://www.w3.org/Graphics/SVG/1.1/DTD/svg11.dtd">
<!-- Generated by graphviz version 2.38.0 (20140413.2041)
 -->
<!-- Title: S:/QT_CREATOR/Locker_Control/siteconfigmanager.cpp Pages: 1 -->
<svg width="318pt" height="245pt"
 viewBox="0.00 0.00 317.50 245.00" xmlns="http://www.w3.org/2000/svg" xmlns:xlink="http://www.w3.org/1999/xlink">
<g id="graph0" class="graph" transform="scale(1 1) rotate(0) translate(4 241)">
<title>S:/QT_CREATOR/Locker_Control/siteconfigmanager.cpp</title>
<!-- Node1 -->
<g id="node1" class="node"><title>Node1</title>
<polygon fill="#bfbfbf" stroke="black" points="2,-212.5 2,-236.5 118,-236.5 118,-212.5 2,-212.5"/>
<text text-anchor="start" x="10" y="-226.9" font-family="Helvetica,sans-Serif" font-size="7.00">S:/QT_CREATOR/Locker</text>
<text text-anchor="middle" x="60" y="-218.9" font-family="Helvetica,sans-Serif" font-size="7.00">_Control/siteconfigmanager.cpp</text>
</g>
<!-- Node2 -->
<g id="node2" class="node"><title>Node2</title>
<polygon fill="none" stroke="#bfbfbf" points="0,-159.5 0,-175.5 42,-175.5 42,-159.5 0,-159.5"/>
<text text-anchor="middle" x="21" y="-165.9" font-family="Helvetica,sans-Serif" font-size="7.00">QDebug</text>
</g>
<!-- Node1&#45;&gt;Node2 -->
<g id="edge1" class="edge"><title>Node1&#45;&gt;Node2</title>
<path fill="none" stroke="midnightblue" d="M52.1078,-212.37C46.359,-204.263 38.4941,-193.171 32.1109,-184.169"/>
<polygon fill="midnightblue" stroke="midnightblue" points="34.7856,-181.89 26.1462,-175.757 29.0755,-185.939 34.7856,-181.89"/>
</g>
<!-- Node3 -->
<g id="node3" class="node"><title>Node3</title>
<g id="a_node3"><a xlink:href="siteconfigmanager_8h.html" target="_top" xlink:title="siteconfigmanager.h">
<polygon fill="none" stroke="black" points="60,-159.5 60,-175.5 140,-175.5 140,-159.5 60,-159.5"/>
<text text-anchor="middle" x="100" y="-165.9" font-family="Helvetica,sans-Serif" font-size="7.00">siteconfigmanager.h</text>
</a>
</g>
</g>
<!-- Node1&#45;&gt;Node3 -->
<g id="edge2" class="edge"><title>Node1&#45;&gt;Node3</title>
<path fill="none" stroke="midnightblue" d="M68.0946,-212.37C74.0528,-204.177 82.2274,-192.937 88.8104,-183.886"/>
<polygon fill="midnightblue" stroke="midnightblue" points="91.6707,-185.903 94.7218,-175.757 86.0095,-181.786 91.6707,-185.903"/>
</g>
<!-- Node4 -->
<g id="node4" class="node"><title>Node4</title>
<polygon fill="none" stroke="#bfbfbf" points="6,-53.5 6,-69.5 50,-69.5 50,-53.5 6,-53.5"/>
<text text-anchor="middle" x="28" y="-59.9" font-family="Helvetica,sans-Serif" font-size="7.00">QWidget</text>
</g>
<!-- Node3&#45;&gt;Node4 -->
<g id="edge3" class="edge"><title>Node3&#45;&gt;Node4</title>
<path fill="none" stroke="midnightblue" d="M70.3479,-159.402C51.4955,-153.188 28.5361,-142.071 17,-123 8.89033,-109.594 13.6947,-91.6743 19.2712,-78.8228"/>
<polygon fill="midnightblue" stroke="midnightblue" points="22.4408,-80.3082 23.6771,-69.7857 16.1488,-77.2405 22.4408,-80.3082"/>
</g>
<!-- Node5 -->
<g id="node5" class="node"><title>Node5</title>
<g id="a_node5"><a xlink:href="showwidgets_8h.html" target="_top" xlink:title="showwidgets.h">
<polygon fill="none" stroke="black" points="83,-53.5 83,-69.5 145,-69.5 145,-53.5 83,-53.5"/>
<text text-anchor="middle" x="114" y="-59.9" font-family="Helvetica,sans-Serif" font-size="7.00">showwidgets.h</text>
</a>
</g>
</g>
<!-- Node3&#45;&gt;Node5 -->
<g id="edge4" class="edge"><title>Node3&#45;&gt;Node5</title>
<path fill="none" stroke="midnightblue" d="M103.313,-159.306C107.015,-150.834 112.782,-136.236 115,-123 117.421,-108.554 116.908,-91.8957 115.939,-79.7213"/>
<polygon fill="midnightblue" stroke="midnightblue" points="119.41,-79.2521 114.951,-69.6412 112.443,-79.935 119.41,-79.2521"/>
</g>
<!-- Node7 -->
<g id="node7" class="node"><title>Node7</title>
<g id="a_node7"><a xlink:href="maintenancemenu_8h.html" target="_top" xlink:title="maintenancemenu.h">
<polygon fill="none" stroke="black" points="26,-106.5 26,-122.5 106,-122.5 106,-106.5 26,-106.5"/>
<text text-anchor="middle" x="66" y="-112.9" font-family="Helvetica,sans-Serif" font-size="7.00">maintenancemenu.h</text>
</a>
</g>
</g>
<!-- Node3&#45;&gt;Node7 -->
<g id="edge6" class="edge"><title>Node3&#45;&gt;Node7</title>
<path fill="none" stroke="midnightblue" d="M95.2724,-159.409C90.4006,-152.101 82.6494,-140.474 76.3468,-131.02"/>
<polygon fill="midnightblue" stroke="midnightblue" points="79.1466,-128.91 70.6874,-122.531 73.3223,-132.793 79.1466,-128.91"/>
</g>
<!-- Node8 -->
<g id="node8" class="node"><title>Node8</title>
<g id="a_node8"><a xlink:href="csqlite__local__db_8h.html" target="_top" xlink:title="csqlite_local_db.h">
<polygon fill="none" stroke="red" points="162,-106.5 162,-122.5 234,-122.5 234,-106.5 162,-106.5"/>
<text text-anchor="middle" x="198" y="-112.9" font-family="Helvetica,sans-Serif" font-size="7.00">csqlite_local_db.h</text>
</a>
</g>
</g>
<!-- Node3&#45;&gt;Node8 -->
<g id="edge9" class="edge"><title>Node3&#45;&gt;Node8</title>
<path fill="none" stroke="midnightblue" d="M113.626,-159.409C129.644,-151.073 156.458,-137.119 175.558,-127.179"/>
<polygon fill="midnightblue" stroke="midnightblue" points="177.234,-130.252 184.489,-122.531 174.003,-124.043 177.234,-130.252"/>
</g>
<!-- Node6 -->
<g id="node6" class="node"><title>Node6</title>
<polygon fill="none" stroke="#bfbfbf" points="79.5,-0.5 79.5,-16.5 148.5,-16.5 148.5,-0.5 79.5,-0.5"/>
<text text-anchor="middle" x="114" y="-6.9" font-family="Helvetica,sans-Serif" font-size="7.00">QStackedWidget</text>
</g>
<!-- Node5&#45;&gt;Node6 -->
<g id="edge5" class="edge"><title>Node5&#45;&gt;Node6</title>
<path fill="none" stroke="midnightblue" d="M114,-53.4087C114,-46.5576 114,-35.9106 114,-26.8167"/>
<polygon fill="midnightblue" stroke="midnightblue" points="117.5,-26.5311 114,-16.5311 110.5,-26.5311 117.5,-26.5311"/>
</g>
<!-- Node7&#45;&gt;Node4 -->
<g id="edge7" class="edge"><title>Node7&#45;&gt;Node4</title>
<path fill="none" stroke="midnightblue" d="M60.7163,-106.409C55.2145,-99.0248 46.4273,-87.2314 39.3445,-77.7255"/>
<polygon fill="midnightblue" stroke="midnightblue" points="42.0203,-75.4588 33.2389,-69.5311 36.4071,-79.6412 42.0203,-75.4588"/>
</g>
<!-- Node7&#45;&gt;Node5 -->
<g id="edge8" class="edge"><title>Node7&#45;&gt;Node5</title>
<path fill="none" stroke="midnightblue" d="M72.6742,-106.409C79.8387,-98.7964 91.4139,-86.4977 100.494,-76.8503"/>
<polygon fill="midnightblue" stroke="midnightblue" points="103.078,-79.2119 107.382,-69.5311 97.9801,-74.4143 103.078,-79.2119"/>
</g>
<!-- Node9 -->
<g id="node9" class="node"><title>Node9</title>
<polygon fill="none" stroke="#bfbfbf" points="170,-53.5 170,-69.5 210,-69.5 210,-53.5 170,-53.5"/>
<text text-anchor="middle" x="190" y="-59.9" font-family="Helvetica,sans-Serif" font-size="7.00">QString</text>
</g>
<!-- Node8&#45;&gt;Node9 -->
<g id="edge10" class="edge"><title>Node8&#45;&gt;Node9</title>
<path fill="none" stroke="midnightblue" d="M196.888,-106.409C195.801,-99.4815 194.106,-88.6735 192.669,-79.5142"/>
<polygon fill="midnightblue" stroke="midnightblue" points="196.11,-78.8679 191.103,-69.5311 189.195,-79.9527 196.11,-78.8679"/>
</g>
<!-- Node10 -->
<g id="node10" class="node"><title>Node10</title>
<polygon fill="none" stroke="#bfbfbf" points="228.5,-53.5 228.5,-69.5 309.5,-69.5 309.5,-53.5 228.5,-53.5"/>
<text text-anchor="middle" x="269" y="-59.9" font-family="Helvetica,sans-Serif" font-size="7.00">QtSql/QSqlDatabase</text>
</g>
<!-- Node8&#45;&gt;Node10 -->
<g id="edge11" class="edge"><title>Node8&#45;&gt;Node10</title>
<path fill="none" stroke="midnightblue" d="M207.872,-106.409C219,-98.4158 237.32,-85.2561 251.008,-75.424"/>
<polygon fill="midnightblue" stroke="midnightblue" points="253.132,-78.2078 259.212,-69.5311 249.048,-72.5225 253.132,-78.2078"/>
</g>
</g>
</svg>
