<?xml version="1.0" encoding="UTF-8" standalone="no"?>
<!DOCTYPE svg PUBLIC "-//W3C//DTD SVG 1.1//EN"
 "http://www.w3.org/Graphics/SVG/1.1/DTD/svg11.dtd">
<!-- Generated by graphviz version 2.38.0 (20140413.2041)
 -->
<!-- Title: S:/QT_CREATOR/Locker_Control/siteconfigmanager.h Pages: 1 -->
<svg width="448pt" height="192pt"
 viewBox="0.00 0.00 447.50 192.00" xmlns="http://www.w3.org/2000/svg" xmlns:xlink="http://www.w3.org/1999/xlink">
<g id="graph0" class="graph" transform="scale(1 1) rotate(0) translate(4 188)">
<title>S:/QT_CREATOR/Locker_Control/siteconfigmanager.h</title>
<!-- Node1 -->
<g id="node1" class="node"><title>Node1</title>
<polygon fill="#bfbfbf" stroke="black" points="69.5,-159.5 69.5,-183.5 178.5,-183.5 178.5,-159.5 69.5,-159.5"/>
<text text-anchor="start" x="77.5" y="-173.9" font-family="Helvetica,sans-Serif" font-size="7.00">S:/QT_CREATOR/Locker</text>
<text text-anchor="middle" x="124" y="-165.9" font-family="Helvetica,sans-Serif" font-size="7.00">_Control/siteconfigmanager.h</text>
</g>
<!-- Node2 -->
<g id="node2" class="node"><title>Node2</title>
<polygon fill="none" stroke="#bfbfbf" points="0,-53.5 0,-69.5 44,-69.5 44,-53.5 0,-53.5"/>
<text text-anchor="middle" x="22" y="-59.9" font-family="Helvetica,sans-Serif" font-size="7.00">QWidget</text>
</g>
<!-- Node1&#45;&gt;Node2 -->
<g id="edge1" class="edge"><title>Node1&#45;&gt;Node2</title>
<path fill="none" stroke="midnightblue" d="M92.9005,-159.347C75.3984,-151.616 54.4279,-139.685 41,-123 30.9635,-110.529 26.1986,-92.7065 23.9548,-79.6352"/>
<polygon fill="midnightblue" stroke="midnightblue" points="27.4069,-79.0479 22.5628,-69.6253 20.4736,-80.0121 27.4069,-79.0479"/>
</g>
<!-- Node3 -->
<g id="node3" class="node"><title>Node3</title>
<g id="a_node3"><a xlink:href="showwidgets_8h.html" target="_top" target="_top" xlink:title="showwidgets.h">
<polygon fill="none" stroke="black" points="62,-53.5 62,-69.5 124,-69.5 124,-53.5 62,-53.5"/>
<text text-anchor="middle" x="93" y="-59.9" font-family="Helvetica,sans-Serif" font-size="7.00">showwidgets.h</text>
</a>
</g>
</g>
<!-- Node1&#45;&gt;Node3 -->
<g id="edge2" class="edge"><title>Node1&#45;&gt;Node3</title>
<path fill="none" stroke="midnightblue" d="M130.807,-159.164C137.792,-145.974 146.64,-123.739 139,-106 133.687,-93.6635 122.964,-83.1925 113.208,-75.6171"/>
<polygon fill="midnightblue" stroke="midnightblue" points="115.201,-72.7395 105.042,-69.7312 111.108,-78.418 115.201,-72.7395"/>
</g>
<!-- Node5 -->
<g id="node5" class="node"><title>Node5</title>
<g id="a_node5"><a xlink:href="maintenancemenu_8h.html" target="_top" target="_top" xlink:title="maintenancemenu.h">
<polygon fill="none" stroke="black" points="50,-106.5 50,-122.5 130,-122.5 130,-106.5 50,-106.5"/>
<text text-anchor="middle" x="90" y="-112.9" font-family="Helvetica,sans-Serif" font-size="7.00">maintenancemenu.h</text>
</a>
</g>
</g>
<!-- Node1&#45;&gt;Node5 -->
<g id="edge4" class="edge"><title>Node1&#45;&gt;Node5</title>
<path fill="none" stroke="midnightblue" d="M117.12,-159.37C112.161,-151.348 105.395,-140.404 99.8626,-131.454"/>
<polygon fill="midnightblue" stroke="midnightblue" points="102.722,-129.423 94.4864,-122.757 96.7676,-133.104 102.722,-129.423"/>
</g>
<!-- Node6 -->
<g id="node6" class="node"><title>Node6</title>
<g id="a_node6"><a xlink:href="csqlite__local__db_8h.html" target="_top" target="_top" xlink:title="csqlite_local_db.h">
<polygon fill="none" stroke="red" points="205,-106.5 205,-122.5 277,-122.5 277,-106.5 205,-106.5"/>
<text text-anchor="middle" x="241" y="-112.9" font-family="Helvetica,sans-Serif" font-size="7.00">csqlite_local_db.h</text>
</a>
</g>
</g>
<!-- Node1&#45;&gt;Node6 -->
<g id="edge7" class="edge"><title>Node1&#45;&gt;Node6</title>
<path fill="none" stroke="midnightblue" d="M147.677,-159.37C167.761,-149.929 196.455,-136.44 216.711,-126.918"/>
<polygon fill="midnightblue" stroke="midnightblue" points="218.342,-130.019 225.903,-122.597 215.364,-123.684 218.342,-130.019"/>
</g>
<!-- Node4 -->
<g id="node4" class="node"><title>Node4</title>
<polygon fill="none" stroke="#bfbfbf" points="58.5,-0.5 58.5,-16.5 127.5,-16.5 127.5,-0.5 58.5,-0.5"/>
<text text-anchor="middle" x="93" y="-6.9" font-family="Helvetica,sans-Serif" font-size="7.00">QStackedWidget</text>
</g>
<!-- Node3&#45;&gt;Node4 -->
<g id="edge3" class="edge"><title>Node3&#45;&gt;Node4</title>
<path fill="none" stroke="midnightblue" d="M93,-53.4087C93,-46.5576 93,-35.9106 93,-26.8167"/>
<polygon fill="midnightblue" stroke="midnightblue" points="96.5001,-26.5311 93,-16.5311 89.5001,-26.5311 96.5001,-26.5311"/>
</g>
<!-- Node5&#45;&gt;Node2 -->
<g id="edge5" class="edge"><title>Node5&#45;&gt;Node2</title>
<path fill="none" stroke="midnightblue" d="M80.5449,-106.409C69.9892,-98.4919 52.6751,-85.5063 39.6077,-75.7058"/>
<polygon fill="midnightblue" stroke="midnightblue" points="41.4748,-72.7311 31.3748,-69.5311 37.2748,-78.3311 41.4748,-72.7311"/>
</g>
<!-- Node5&#45;&gt;Node3 -->
<g id="edge6" class="edge"><title>Node5&#45;&gt;Node3</title>
<path fill="none" stroke="midnightblue" d="M90.4171,-106.409C90.8246,-99.4815 91.4604,-88.6735 91.9992,-79.5142"/>
<polygon fill="midnightblue" stroke="midnightblue" points="95.4931,-79.7194 92.5864,-69.5311 88.5051,-79.3083 95.4931,-79.7194"/>
</g>
<!-- Node7 -->
<g id="node7" class="node"><title>Node7</title>
<polygon fill="none" stroke="#bfbfbf" points="142,-53.5 142,-69.5 182,-69.5 182,-53.5 142,-53.5"/>
<text text-anchor="middle" x="162" y="-59.9" font-family="Helvetica,sans-Serif" font-size="7.00">QString</text>
</g>
<!-- Node6&#45;&gt;Node7 -->
<g id="edge8" class="edge"><title>Node6&#45;&gt;Node7</title>
<path fill="none" stroke="midnightblue" d="M230.015,-106.409C217.516,-98.3397 196.861,-85.005 181.586,-75.144"/>
<polygon fill="midnightblue" stroke="midnightblue" points="183.191,-72.0143 172.891,-69.5311 179.394,-77.8953 183.191,-72.0143"/>
</g>
<!-- Node8 -->
<g id="node8" class="node"><title>Node8</title>
<polygon fill="none" stroke="#bfbfbf" points="200.5,-53.5 200.5,-69.5 281.5,-69.5 281.5,-53.5 200.5,-53.5"/>
<text text-anchor="middle" x="241" y="-59.9" font-family="Helvetica,sans-Serif" font-size="7.00">QtSql/QSqlDatabase</text>
</g>
<!-- Node6&#45;&gt;Node8 -->
<g id="edge9" class="edge"><title>Node6&#45;&gt;Node8</title>
<path fill="none" stroke="midnightblue" d="M241,-106.409C241,-99.5576 241,-88.9106 241,-79.8167"/>
<polygon fill="midnightblue" stroke="midnightblue" points="244.5,-79.5311 241,-69.5311 237.5,-79.5311 244.5,-79.5311"/>
</g>
<!-- Node9 -->
<g id="node9" class="node"><title>Node9</title>
<polygon fill="none" stroke="#bfbfbf" points="299.5,-53.5 299.5,-69.5 370.5,-69.5 370.5,-53.5 299.5,-53.5"/>
<text text-anchor="middle" x="335" y="-59.9" font-family="Helvetica,sans-Serif" font-size="7.00">QtSql/QSqlDriver</text>
</g>
<!-- Node6&#45;&gt;Node9 -->
<g id="edge10" class="edge"><title>Node6&#45;&gt;Node9</title>
<path fill="none" stroke="midnightblue" d="M254.07,-106.409C269.363,-98.1113 294.919,-84.246 313.223,-74.3153"/>
<polygon fill="midnightblue" stroke="midnightblue" points="314.92,-77.3764 322.041,-69.5311 311.582,-71.2236 314.92,-77.3764"/>
</g>
<!-- Node10 -->
<g id="node10" class="node"><title>Node10</title>
<polygon fill="none" stroke="#bfbfbf" points="388.5,-53.5 388.5,-69.5 439.5,-69.5 439.5,-53.5 388.5,-53.5"/>
<text text-anchor="middle" x="414" y="-59.9" font-family="Helvetica,sans-Serif" font-size="7.00">QSqlQuery</text>
</g>
<!-- Node6&#45;&gt;Node10 -->
<g id="edge11" class="edge"><title>Node6&#45;&gt;Node10</title>
<path fill="none" stroke="midnightblue" d="M265.055,-106.409C295.008,-97.5784 346.353,-82.4422 380.237,-72.4532"/>
<polygon fill="midnightblue" stroke="midnightblue" points="381.547,-75.716 390.149,-69.5311 379.568,-69.0017 381.547,-75.716"/>
</g>
</g>
</svg>
