<?xml version="1.0" encoding="UTF-8" standalone="no"?>
<!DOCTYPE svg PUBLIC "-//W3C//DTD SVG 1.1//EN"
 "http://www.w3.org/Graphics/SVG/1.1/DTD/svg11.dtd">
<!-- Generated by graphviz version 2.38.0 (20140413.2041)
 -->
<!-- Title: S:/QT_CREATOR/Locker_Control/sqlite_local_databasemanager.cpp Pages: 1 -->
<!--zoomable 208 -->
<svg id="main" version="1.1" xmlns="http://www.w3.org/2000/svg" xmlns:xlink="http://www.w3.org/1999/xlink" xml:space="preserve" onload="init(evt)">
<style type="text/css"><![CDATA[
.edge:hover path { stroke: red; }
.edge:hover polygon { stroke: red; fill: red; }
]]></style>
<script type="text/javascript"><![CDATA[
var edges = document.getElementsByTagName('g');
if (edges && edges.length) {
  for (var i=0;i<edges.length;i++) {
    if (edges[i].id.substr(0,4)=='edge') {
      edges[i].setAttribute('class','edge');
    }
  }
}
]]></script>
        <defs>
                <circle id="rim" cx="0" cy="0" r="7"/>
                <circle id="rim2" cx="0" cy="0" r="3.5"/>
                <g id="zoomPlus">
                        <use xlink:href="#rim" fill="#404040">
                                <set attributeName="fill" to="#808080" begin="zoomplus.mouseover" end="zoomplus.mouseout"/>
                        </use>
                        <path d="M-4,0h8M0,-4v8" fill="none" stroke="white" stroke-width="1.5" pointer-events="none"/>
                </g>
                <g id="zoomMin">
                        <use xlink:href="#rim" fill="#404040">
                                <set attributeName="fill" to="#808080" begin="zoomminus.mouseover" end="zoomminus.mouseout"/>
                        </use>
                        <path d="M-4,0h8" fill="none" stroke="white" stroke-width="1.5" pointer-events="none"/>
                </g>
                <g id="dirArrow">
                        <path fill="none" stroke="white" stroke-width="1.5" d="M0,-3.0v7 M-2.5,-0.5L0,-3.0L2.5,-0.5"/>
                </g>
               <g id="resetDef">
                       <use xlink:href="#rim2" fill="#404040">
                               <set attributeName="fill" to="#808080" begin="reset.mouseover" end="reset.mouseout"/>
                       </use>
               </g>
        </defs>

<script type="text/javascript">
var viewWidth = 550;
var viewHeight = 208;
var sectionId = 'dynsection-0';
</script>
<script xlink:href="svgpan.js"/>
<svg id="graph" class="graph">
<g id="viewport">
<title>S:/QT_CREATOR/Locker_Control/sqlite_local_databasemanager.cpp</title>
<!-- Node1 -->
<g id="node1" class="node"><title>Node1</title>
<polygon fill="#bfbfbf" stroke="black" points="209.5,-167.5 209.5,-199.5 304.5,-199.5 304.5,-167.5 209.5,-167.5"/>
<text text-anchor="start" x="217.5" y="-189.9" font-family="Helvetica,sans-Serif" font-size="7.00">S:/QT_CREATOR/Locker</text>
<text text-anchor="start" x="217.5" y="-181.9" font-family="Helvetica,sans-Serif" font-size="7.00">_Control/sqlite_local</text>
<text text-anchor="middle" x="257" y="-173.9" font-family="Helvetica,sans-Serif" font-size="7.00">_databasemanager.cpp</text>
</g>
<!-- Node2 -->
<g id="node2" class="node"><title>Node2</title>
<polygon fill="none" stroke="#bfbfbf" points="0,-114.5 0,-130.5 42,-130.5 42,-114.5 0,-114.5"/>
<text text-anchor="middle" x="21" y="-120.9" font-family="Helvetica,sans-Serif" font-size="7.00">QDebug</text>
</g>
<!-- Node1&#45;&gt;Node2 -->
<g id="edge1" class="edge"><title>Node1&#45;&gt;Node2</title>
<path fill="none" stroke="midnightblue" d="M209.242,-170.56C162.283,-158.821 91.9898,-141.247 51.9166,-131.229"/>
<polygon fill="midnightblue" stroke="midnightblue" points="52.7242,-127.823 42.1739,-128.793 51.0264,-134.614 52.7242,-127.823"/>
</g>
<!-- Node3 -->
<g id="node3" class="node"><title>Node3</title>
<polygon fill="none" stroke="#bfbfbf" points="183.5,-0.5 183.5,-16.5 226.5,-16.5 226.5,-0.5 183.5,-0.5"/>
<text text-anchor="middle" x="205" y="-6.9" font-family="Helvetica,sans-Serif" font-size="7.00">QThread</text>
</g>
<!-- Node1&#45;&gt;Node3 -->
<g id="edge2" class="edge"><title>Node1&#45;&gt;Node3</title>
<path fill="none" stroke="midnightblue" d="M209.213,-169.286C167.534,-154.75 110.476,-126.717 89,-78 84.518,-67.833 82.6712,-62.1325 89,-53 107.819,-25.8445 145.819,-15.6157 173.205,-11.7775"/>
<polygon fill="midnightblue" stroke="midnightblue" points="173.961,-15.2126 183.481,-10.5621 173.139,-8.26101 173.961,-15.2126"/>
</g>
<!-- Node4 -->
<g id="node4" class="node"><title>Node4</title>
<g id="a_node4"><a xlink:href="sqlite__local__databasemanager_8h.html" target="_top" xlink:title="sqlite_local_databasemanager.h">
<polygon fill="none" stroke="red" points="156,-114.5 156,-130.5 272,-130.5 272,-114.5 156,-114.5"/>
<text text-anchor="middle" x="214" y="-120.9" font-family="Helvetica,sans-Serif" font-size="7.00">sqlite_local_databasemanager.h</text>
</a>
</g>
</g>
<!-- Node1&#45;&gt;Node4 -->
<g id="edge3" class="edge"><title>Node1&#45;&gt;Node4</title>
<path fill="none" stroke="midnightblue" d="M245.926,-167.306C239.573,-158.589 231.617,-147.673 225.237,-138.918"/>
<polygon fill="midnightblue" stroke="midnightblue" points="228.01,-136.78 219.291,-130.76 222.353,-140.903 228.01,-136.78"/>
</g>
<!-- Node8 -->
<g id="node8" class="node"><title>Node8</title>
<g id="a_node8"><a xlink:href="thread__localdatabase__autosave_8h.html" target="_top" xlink:title="thread_localdatabase\l_autosave.h">
<polygon fill="none" stroke="red" points="298.5,-53.5 298.5,-77.5 381.5,-77.5 381.5,-53.5 298.5,-53.5"/>
<text text-anchor="start" x="306.5" y="-67.9" font-family="Helvetica,sans-Serif" font-size="7.00">thread_localdatabase</text>
<text text-anchor="middle" x="340" y="-59.9" font-family="Helvetica,sans-Serif" font-size="7.00">_autosave.h</text>
</a>
</g>
</g>
<!-- Node1&#45;&gt;Node8 -->
<g id="edge12" class="edge"><title>Node1&#45;&gt;Node8</title>
<path fill="none" stroke="midnightblue" d="M267.851,-167.335C282.825,-146.408 309.826,-108.67 326.212,-85.7694"/>
<polygon fill="midnightblue" stroke="midnightblue" points="329.151,-87.677 332.124,-77.5078 323.458,-83.6037 329.151,-87.677"/>
</g>
<!-- Node9 -->
<g id="node9" class="node"><title>Node9</title>
<polygon fill="none" stroke="#bfbfbf" points="328.5,-114.5 328.5,-130.5 453.5,-130.5 453.5,-114.5 328.5,-114.5"/>
<text text-anchor="middle" x="391" y="-120.9" font-family="Helvetica,sans-Serif" font-size="7.00">ui_sqlite_local_databasemanager.h</text>
</g>
<!-- Node1&#45;&gt;Node9 -->
<g id="edge10" class="edge"><title>Node1&#45;&gt;Node9</title>
<path fill="none" stroke="midnightblue" d="M291.161,-167.459C314.322,-157.261 344.439,-144.001 365.513,-134.722"/>
<polygon fill="midnightblue" stroke="midnightblue" points="367.039,-137.874 374.781,-130.641 364.219,-131.468 367.039,-137.874"/>
</g>
<!-- Node10 -->
<g id="node10" class="node"><title>Node10</title>
<g id="a_node10"><a xlink:href="_data_structures_8h.html" target="_top" xlink:title="Definnitions des formats de communications des données entre les classes de l&#39;application LC...">
<polygon fill="none" stroke="red" points="472,-114.5 472,-130.5 542,-130.5 542,-114.5 472,-114.5"/>
<text text-anchor="middle" x="507" y="-120.9" font-family="Helvetica,sans-Serif" font-size="7.00">DataStructures.h</text>
</a>
</g>
</g>
<!-- Node1&#45;&gt;Node10 -->
<g id="edge11" class="edge"><title>Node1&#45;&gt;Node10</title>
<path fill="none" stroke="midnightblue" d="M304.612,-171.264C351.796,-160.128 423.234,-143.269 467.406,-132.844"/>
<polygon fill="midnightblue" stroke="midnightblue" points="468.279,-136.234 477.208,-130.531 466.671,-129.422 468.279,-136.234"/>
</g>
<!-- Node5 -->
<g id="node5" class="node"><title>Node5</title>
<polygon fill="none" stroke="#bfbfbf" points="98,-57.5 98,-73.5 142,-73.5 142,-57.5 98,-57.5"/>
<text text-anchor="middle" x="120" y="-63.9" font-family="Helvetica,sans-Serif" font-size="7.00">QWidget</text>
</g>
<!-- Node4&#45;&gt;Node5 -->
<g id="edge4" class="edge"><title>Node4&#45;&gt;Node5</title>
<path fill="none" stroke="midnightblue" d="M201.711,-114.31C186.215,-105.243 159.344,-89.5202 140.666,-78.5916"/>
<polygon fill="midnightblue" stroke="midnightblue" points="142.393,-75.5474 131.995,-73.5182 138.858,-81.5892 142.393,-75.5474"/>
</g>
<!-- Node6 -->
<g id="node6" class="node"><title>Node6</title>
<polygon fill="none" stroke="#bfbfbf" points="160.5,-57.5 160.5,-73.5 199.5,-73.5 199.5,-57.5 160.5,-57.5"/>
<text text-anchor="middle" x="180" y="-63.9" font-family="Helvetica,sans-Serif" font-size="7.00">QTimer</text>
</g>
<!-- Node4&#45;&gt;Node6 -->
<g id="edge5" class="edge"><title>Node4&#45;&gt;Node6</title>
<path fill="none" stroke="midnightblue" d="M209.555,-114.31C204.539,-106.195 196.227,-92.7492 189.693,-82.1802"/>
<polygon fill="midnightblue" stroke="midnightblue" points="192.574,-80.1837 184.338,-73.5182 186.62,-83.8645 192.574,-80.1837"/>
</g>
<!-- Node7 -->
<g id="node7" class="node"><title>Node7</title>
<g id="a_node7"><a xlink:href="showwidgets_8h.html" target="_top" xlink:title="showwidgets.h">
<polygon fill="none" stroke="red" points="218,-57.5 218,-73.5 280,-73.5 280,-57.5 218,-57.5"/>
<text text-anchor="middle" x="249" y="-63.9" font-family="Helvetica,sans-Serif" font-size="7.00">showwidgets.h</text>
</a>
</g>
</g>
<!-- Node4&#45;&gt;Node7 -->
<g id="edge6" class="edge"><title>Node4&#45;&gt;Node7</title>
<path fill="none" stroke="midnightblue" d="M218.576,-114.31C223.74,-106.195 232.296,-92.7492 239.022,-82.1802"/>
<polygon fill="midnightblue" stroke="midnightblue" points="242.118,-83.8339 244.534,-73.5182 236.212,-80.0757 242.118,-83.8339"/>
</g>
<!-- Node4&#45;&gt;Node8 -->
<g id="edge7" class="edge"><title>Node4&#45;&gt;Node8</title>
<path fill="none" stroke="midnightblue" d="M225.741,-114.31C242.612,-106.022 273.886,-92.1727 299.531,-81.5074"/>
<polygon fill="midnightblue" stroke="midnightblue" points="301.126,-84.6357 309.042,-77.5939 298.463,-78.1623 301.126,-84.6357"/>
</g>
<!-- Node8&#45;&gt;Node3 -->
<g id="edge8" class="edge"><title>Node8&#45;&gt;Node3</title>
<path fill="none" stroke="midnightblue" d="M312.681,-53.3699C289.085,-43.7571 255.191,-29.9483 231.761,-20.4024"/>
<polygon fill="midnightblue" stroke="midnightblue" points="233.001,-17.1287 222.42,-16.597 230.36,-23.6114 233.001,-17.1287"/>
</g>
<!-- Node8&#45;&gt;Node4 -->
<g id="edge9" class="edge"><title>Node8&#45;&gt;Node4</title>
<path fill="none" stroke="midnightblue" d="M320.24,-77.5407C299.833,-87.1601 268.049,-101.03 244.465,-110.606"/>
<polygon fill="midnightblue" stroke="midnightblue" points="242.904,-107.461 234.917,-114.422 245.501,-113.961 242.904,-107.461"/>
</g>
</g>
</svg>
        <g id="navigator" transform="translate(0 0)" fill="#404254">
                <rect fill="#f2f5e9" fill-opacity="0.5" stroke="#606060" stroke-width=".5" x="0" y="0" width="60" height="60"/>
                <use id="zoomplus" xlink:href="#zoomPlus" x="17" y="9" onmousedown="handleZoom(evt,'in')"/>
                <use id="zoomminus" xlink:href="#zoomMin" x="42" y="9" onmousedown="handleZoom(evt,'out')"/>
                <use id="reset" xlink:href="#resetDef" x="30" y="36" onmousedown="handleReset()"/>
                <g id="arrowUp" xlink:href="#dirArrow" transform="translate(30 24)" onmousedown="handlePan(0,-1)">
                  <use xlink:href="#rim" fill="#404040">
                        <set attributeName="fill" to="#808080" begin="arrowUp.mouseover" end="arrowUp.mouseout"/>
                  </use>
                  <path fill="none" stroke="white" stroke-width="1.5" d="M0,-3.0v7 M-2.5,-0.5L0,-3.0L2.5,-0.5"/>
                </g>
                <g id="arrowRight" xlink:href="#dirArrow" transform="rotate(90) translate(36 -43)" onmousedown="handlePan(1,0)">
                  <use xlink:href="#rim" fill="#404040">
                        <set attributeName="fill" to="#808080" begin="arrowRight.mouseover" end="arrowRight.mouseout"/>
                  </use>
                  <path fill="none" stroke="white" stroke-width="1.5" d="M0,-3.0v7 M-2.5,-0.5L0,-3.0L2.5,-0.5"/>
                </g>
                <g id="arrowDown" xlink:href="#dirArrow" transform="rotate(180) translate(-30 -48)" onmousedown="handlePan(0,1)">
                  <use xlink:href="#rim" fill="#404040">
                        <set attributeName="fill" to="#808080" begin="arrowDown.mouseover" end="arrowDown.mouseout"/>
                  </use>
                  <path fill="none" stroke="white" stroke-width="1.5" d="M0,-3.0v7 M-2.5,-0.5L0,-3.0L2.5,-0.5"/>
                </g>
                <g id="arrowLeft" xlink:href="#dirArrow" transform="rotate(270) translate(-36 17)" onmousedown="handlePan(-1,0)">
                  <use xlink:href="#rim" fill="#404040">
                        <set attributeName="fill" to="#808080" begin="arrowLeft.mouseover" end="arrowLeft.mouseout"/>
                  </use>
                  <path fill="none" stroke="white" stroke-width="1.5" d="M0,-3.0v7 M-2.5,-0.5L0,-3.0L2.5,-0.5"/>
                </g>
        </g>
        <svg viewBox="0 0 15 15" width="100%" height="30px" preserveAspectRatio="xMaxYMin meet">
         <g id="arrow_out" transform="scale(0.3 0.3)">
          <a xlink:href="sqlite__local__databasemanager_8cpp__incl_org.svg" target="_base">
           <rect id="button" ry="5" rx="5" y="6" x="6" height="38" width="38"
                fill="#f2f5e9" fill-opacity="0.5" stroke="#606060" stroke-width="1.0"/>
           <path id="arrow"
             d="M 11.500037,31.436501 C 11.940474,20.09759 22.043105,11.32322 32.158766,21.979434 L 37.068811,17.246167 C 37.068811,17.246167 37.088388,32 37.088388,32 L 22.160133,31.978069 C 22.160133,31.978069 26.997745,27.140456 26.997745,27.140456 C 18.528582,18.264221 13.291696,25.230495 11.500037,31.436501 z"
             style="fill:#404040;"/>
          </a>
         </g>
        </svg>
</svg>
