<?xml version="1.0" encoding="UTF-8" standalone="yes"?><svg xmlns="http://www.w3.org/2000/svg" xmlns:xlink="http://www.w3.org/1999/xlink" height="281px" style="width:641px;height:281px;" version="1.1" viewBox="0 0 641 281" width="641px"><defs><filter height="300%" id="f1" width="300%" x="-1" y="-1"><feGaussianBlur result="blurOut" stdDeviation="2.0"/><feColorMatrix in="blurOut" result="blurOut2" type="matrix" values="0 0 0 0 0 0 0 0 0 0 0 0 0 0 0 0 0 0 .4 0"/><feOffset dx="4.0" dy="4.0" in="blurOut2" result="blurOut3"/><feBlend in="SourceGraphic" in2="blurOut3" mode="normal"/></filter></defs><g><rect fill="#FEFECE" filter="url(#f1)" height="48" style="stroke: #A80036; stroke-width: 1.5;" width="79" x="203" y="8"/><ellipse cx="218" cy="24" fill="#ADD1B2" rx="11" ry="11" style="stroke: #A80036; stroke-width: 1.0;"/><path d="M220.7656,19.875 Q220.9219,19.6563 221.1094,19.5469 Q221.2969,19.4375 221.5156,19.4375 Q221.8906,19.4375 222.125,19.6953 Q222.3594,19.9531 222.3594,20.5625 L222.3594,22.0156 Q222.3594,22.625 222.125,22.8906 Q221.8906,23.1563 221.5156,23.1563 Q221.1719,23.1563 220.9688,22.9531 Q220.7656,22.7656 220.6563,22.25 Q220.6094,21.8906 220.4219,21.7031 Q220.0938,21.3281 219.4844,21.1094 Q218.875,20.8906 218.25,20.8906 Q217.4844,20.8906 216.8516,21.2188 Q216.2188,21.5469 215.7266,22.2969 Q215.2344,23.0469 215.2344,24.0781 L215.2344,25.1719 Q215.2344,26.4063 216.125,27.2266 Q217.0156,28.0469 218.6094,28.0469 Q219.5469,28.0469 220.2031,27.7969 Q220.5938,27.6406 221.0156,27.2031 Q221.2813,26.9375 221.4297,26.8594 Q221.5781,26.7813 221.7813,26.7813 Q222.1094,26.7813 222.3672,27.0391 Q222.625,27.2969 222.625,27.6406 Q222.625,27.9844 222.2813,28.3906 Q221.7813,28.9688 220.9844,29.2969 Q219.9063,29.75 218.6094,29.75 Q217.0938,29.75 215.8906,29.125 Q214.9063,28.625 214.2188,27.5547 Q213.5313,26.4844 213.5313,25.2031 L213.5313,24.0469 Q213.5313,22.7188 214.1484,21.5703 Q214.7656,20.4219 215.8594,19.8047 Q216.9531,19.1875 218.1875,19.1875 Q218.9219,19.1875 219.5703,19.3516 Q220.2188,19.5156 220.7656,19.875 Z "/><text fill="#000000" font-family="sans-serif" font-size="12" lengthAdjust="spacingAndGlyphs" textLength="47" x="232" y="28.9102">QWidget</text><line style="stroke: #A80036; stroke-width: 1.5;" x1="204" x2="281" y1="40" y2="40"/><line style="stroke: #A80036; stroke-width: 1.5;" x1="204" x2="281" y1="48" y2="48"/><rect fill="#FEFECE" filter="url(#f1)" height="48" style="stroke: #A80036; stroke-width: 1.5;" width="215" x="159" y="116"/><ellipse cx="174" cy="132" fill="#ADD1B2" rx="11" ry="11" style="stroke: #A80036; stroke-width: 1.0;"/><path d="M176.7656,127.875 Q176.9219,127.6563 177.1094,127.5469 Q177.2969,127.4375 177.5156,127.4375 Q177.8906,127.4375 178.125,127.6953 Q178.3594,127.9531 178.3594,128.5625 L178.3594,130.0156 Q178.3594,130.625 178.125,130.8906 Q177.8906,131.1563 177.5156,131.1563 Q177.1719,131.1563 176.9688,130.9531 Q176.7656,130.7656 176.6563,130.25 Q176.6094,129.8906 176.4219,129.7031 Q176.0938,129.3281 175.4844,129.1094 Q174.875,128.8906 174.25,128.8906 Q173.4844,128.8906 172.8516,129.2188 Q172.2188,129.5469 171.7266,130.2969 Q171.2344,131.0469 171.2344,132.0781 L171.2344,133.1719 Q171.2344,134.4063 172.125,135.2266 Q173.0156,136.0469 174.6094,136.0469 Q175.5469,136.0469 176.2031,135.7969 Q176.5938,135.6406 177.0156,135.2031 Q177.2813,134.9375 177.4297,134.8594 Q177.5781,134.7813 177.7813,134.7813 Q178.1094,134.7813 178.3672,135.0391 Q178.625,135.2969 178.625,135.6406 Q178.625,135.9844 178.2813,136.3906 Q177.7813,136.9688 176.9844,137.2969 Q175.9063,137.75 174.6094,137.75 Q173.0938,137.75 171.8906,137.125 Q170.9063,136.625 170.2188,135.5547 Q169.5313,134.4844 169.5313,133.2031 L169.5313,132.0469 Q169.5313,130.7188 170.1484,129.5703 Q170.7656,128.4219 171.8594,127.8047 Q172.9531,127.1875 174.1875,127.1875 Q174.9219,127.1875 175.5703,127.3516 Q176.2188,127.5156 176.7656,127.875 Z "/><text fill="#000000" font-family="sans-serif" font-size="12" lengthAdjust="spacingAndGlyphs" textLength="183" x="188" y="136.9102">SQLite_Local_DatabaseManager</text><line style="stroke: #A80036; stroke-width: 1.5;" x1="160" x2="373" y1="148" y2="148"/><line style="stroke: #A80036; stroke-width: 1.5;" x1="160" x2="373" y1="156" y2="156"/><rect fill="#FEFECE" filter="url(#f1)" height="48" style="stroke: #A80036; stroke-width: 1.5;" width="130" x="10.5" y="224"/><ellipse cx="25.5" cy="240" fill="#ADD1B2" rx="11" ry="11" style="stroke: #A80036; stroke-width: 1.0;"/><path d="M28.2656,235.875 Q28.4219,235.6563 28.6094,235.5469 Q28.7969,235.4375 29.0156,235.4375 Q29.3906,235.4375 29.625,235.6953 Q29.8594,235.9531 29.8594,236.5625 L29.8594,238.0156 Q29.8594,238.625 29.625,238.8906 Q29.3906,239.1563 29.0156,239.1563 Q28.6719,239.1563 28.4688,238.9531 Q28.2656,238.7656 28.1563,238.25 Q28.1094,237.8906 27.9219,237.7031 Q27.5938,237.3281 26.9844,237.1094 Q26.375,236.8906 25.75,236.8906 Q24.9844,236.8906 24.3516,237.2188 Q23.7188,237.5469 23.2266,238.2969 Q22.7344,239.0469 22.7344,240.0781 L22.7344,241.1719 Q22.7344,242.4063 23.625,243.2266 Q24.5156,244.0469 26.1094,244.0469 Q27.0469,244.0469 27.7031,243.7969 Q28.0938,243.6406 28.5156,243.2031 Q28.7813,242.9375 28.9297,242.8594 Q29.0781,242.7813 29.2813,242.7813 Q29.6094,242.7813 29.8672,243.0391 Q30.125,243.2969 30.125,243.6406 Q30.125,243.9844 29.7813,244.3906 Q29.2813,244.9688 28.4844,245.2969 Q27.4063,245.75 26.1094,245.75 Q24.5938,245.75 23.3906,245.125 Q22.4063,244.625 21.7188,243.5547 Q21.0313,242.4844 21.0313,241.2031 L21.0313,240.0469 Q21.0313,238.7188 21.6484,237.5703 Q22.2656,236.4219 23.3594,235.8047 Q24.4531,235.1875 25.6875,235.1875 Q26.4219,235.1875 27.0703,235.3516 Q27.7188,235.5156 28.2656,235.875 Z "/><text fill="#000000" font-family="sans-serif" font-size="12" lengthAdjust="spacingAndGlyphs" textLength="98" x="39.5" y="244.9102">ConsoleWindows</text><line style="stroke: #A80036; stroke-width: 1.5;" x1="11.5" x2="139.5" y1="256" y2="256"/><line style="stroke: #A80036; stroke-width: 1.5;" x1="11.5" x2="139.5" y1="264" y2="264"/><rect fill="#FEFECE" filter="url(#f1)" height="48" style="stroke: #A80036; stroke-width: 1.5;" width="182" x="175.5" y="224"/><ellipse cx="190.5" cy="240" fill="#ADD1B2" rx="11" ry="11" style="stroke: #A80036; stroke-width: 1.0;"/><path d="M193.2656,235.875 Q193.4219,235.6563 193.6094,235.5469 Q193.7969,235.4375 194.0156,235.4375 Q194.3906,235.4375 194.625,235.6953 Q194.8594,235.9531 194.8594,236.5625 L194.8594,238.0156 Q194.8594,238.625 194.625,238.8906 Q194.3906,239.1563 194.0156,239.1563 Q193.6719,239.1563 193.4688,238.9531 Q193.2656,238.7656 193.1563,238.25 Q193.1094,237.8906 192.9219,237.7031 Q192.5938,237.3281 191.9844,237.1094 Q191.375,236.8906 190.75,236.8906 Q189.9844,236.8906 189.3516,237.2188 Q188.7188,237.5469 188.2266,238.2969 Q187.7344,239.0469 187.7344,240.0781 L187.7344,241.1719 Q187.7344,242.4063 188.625,243.2266 Q189.5156,244.0469 191.1094,244.0469 Q192.0469,244.0469 192.7031,243.7969 Q193.0938,243.6406 193.5156,243.2031 Q193.7813,242.9375 193.9297,242.8594 Q194.0781,242.7813 194.2813,242.7813 Q194.6094,242.7813 194.8672,243.0391 Q195.125,243.2969 195.125,243.6406 Q195.125,243.9844 194.7813,244.3906 Q194.2813,244.9688 193.4844,245.2969 Q192.4063,245.75 191.1094,245.75 Q189.5938,245.75 188.3906,245.125 Q187.4063,244.625 186.7188,243.5547 Q186.0313,242.4844 186.0313,241.2031 L186.0313,240.0469 Q186.0313,238.7188 186.6484,237.5703 Q187.2656,236.4219 188.3594,235.8047 Q189.4531,235.1875 190.6875,235.1875 Q191.4219,235.1875 192.0703,235.3516 Q192.7188,235.5156 193.2656,235.875 Z "/><text fill="#000000" font-family="sans-serif" font-size="12" lengthAdjust="spacingAndGlyphs" textLength="150" x="204.5" y="244.9102">Thread_Databasemanager</text><line style="stroke: #A80036; stroke-width: 1.5;" x1="176.5" x2="356.5" y1="256" y2="256"/><line style="stroke: #A80036; stroke-width: 1.5;" x1="176.5" x2="356.5" y1="264" y2="264"/><rect fill="#FEFECE" filter="url(#f1)" height="48" style="stroke: #A80036; stroke-width: 1.5;" width="240" x="392.5" y="224"/><ellipse cx="407.5" cy="240" fill="#ADD1B2" rx="11" ry="11" style="stroke: #A80036; stroke-width: 1.0;"/><path d="M410.2656,235.875 Q410.4219,235.6563 410.6094,235.5469 Q410.7969,235.4375 411.0156,235.4375 Q411.3906,235.4375 411.625,235.6953 Q411.8594,235.9531 411.8594,236.5625 L411.8594,238.0156 Q411.8594,238.625 411.625,238.8906 Q411.3906,239.1563 411.0156,239.1563 Q410.6719,239.1563 410.4688,238.9531 Q410.2656,238.7656 410.1563,238.25 Q410.1094,237.8906 409.9219,237.7031 Q409.5938,237.3281 408.9844,237.1094 Q408.375,236.8906 407.75,236.8906 Q406.9844,236.8906 406.3516,237.2188 Q405.7188,237.5469 405.2266,238.2969 Q404.7344,239.0469 404.7344,240.0781 L404.7344,241.1719 Q404.7344,242.4063 405.625,243.2266 Q406.5156,244.0469 408.1094,244.0469 Q409.0469,244.0469 409.7031,243.7969 Q410.0938,243.6406 410.5156,243.2031 Q410.7813,242.9375 410.9297,242.8594 Q411.0781,242.7813 411.2813,242.7813 Q411.6094,242.7813 411.8672,243.0391 Q412.125,243.2969 412.125,243.6406 Q412.125,243.9844 411.7813,244.3906 Q411.2813,244.9688 410.4844,245.2969 Q409.4063,245.75 408.1094,245.75 Q406.5938,245.75 405.3906,245.125 Q404.4063,244.625 403.7188,243.5547 Q403.0313,242.4844 403.0313,241.2031 L403.0313,240.0469 Q403.0313,238.7188 403.6484,237.5703 Q404.2656,236.4219 405.3594,235.8047 Q406.4531,235.1875 407.6875,235.1875 Q408.4219,235.1875 409.0703,235.3516 Q409.7188,235.5156 410.2656,235.875 Z "/><text fill="#000000" font-family="sans-serif" font-size="12" lengthAdjust="spacingAndGlyphs" textLength="208" x="421.5" y="244.9102">Thread_Databasemanager_AutoSave</text><line style="stroke: #A80036; stroke-width: 1.5;" x1="393.5" x2="631.5" y1="256" y2="256"/><line style="stroke: #A80036; stroke-width: 1.5;" x1="393.5" x2="631.5" y1="264" y2="264"/><rect fill="#FEFECE" filter="url(#f1)" height="48" style="stroke: #A80036; stroke-width: 1.5;" width="139" x="6" y="8"/><ellipse cx="21" cy="24" fill="#ADD1B2" rx="11" ry="11" style="stroke: #A80036; stroke-width: 1.0;"/><path d="M23.7656,19.875 Q23.9219,19.6563 24.1094,19.5469 Q24.2969,19.4375 24.5156,19.4375 Q24.8906,19.4375 25.125,19.6953 Q25.3594,19.9531 25.3594,20.5625 L25.3594,22.0156 Q25.3594,22.625 25.125,22.8906 Q24.8906,23.1563 24.5156,23.1563 Q24.1719,23.1563 23.9688,22.9531 Q23.7656,22.7656 23.6563,22.25 Q23.6094,21.8906 23.4219,21.7031 Q23.0938,21.3281 22.4844,21.1094 Q21.875,20.8906 21.25,20.8906 Q20.4844,20.8906 19.8516,21.2188 Q19.2188,21.5469 18.7266,22.2969 Q18.2344,23.0469 18.2344,24.0781 L18.2344,25.1719 Q18.2344,26.4063 19.125,27.2266 Q20.0156,28.0469 21.6094,28.0469 Q22.5469,28.0469 23.2031,27.7969 Q23.5938,27.6406 24.0156,27.2031 Q24.2813,26.9375 24.4297,26.8594 Q24.5781,26.7813 24.7813,26.7813 Q25.1094,26.7813 25.3672,27.0391 Q25.625,27.2969 25.625,27.6406 Q25.625,27.9844 25.2813,28.3906 Q24.7813,28.9688 23.9844,29.2969 Q22.9063,29.75 21.6094,29.75 Q20.0938,29.75 18.8906,29.125 Q17.9063,28.625 17.2188,27.5547 Q16.5313,26.4844 16.5313,25.2031 L16.5313,24.0469 Q16.5313,22.7188 17.1484,21.5703 Q17.7656,20.4219 18.8594,19.8047 Q19.9531,19.1875 21.1875,19.1875 Q21.9219,19.1875 22.5703,19.3516 Q23.2188,19.5156 23.7656,19.875 Z "/><text fill="#000000" font-family="sans-serif" font-size="12" lengthAdjust="spacingAndGlyphs" textLength="107" x="35" y="28.9102">CSQLite_Local_DB</text><line style="stroke: #A80036; stroke-width: 1.5;" x1="7" x2="144" y1="40" y2="40"/><line style="stroke: #A80036; stroke-width: 1.5;" x1="7" x2="144" y1="48" y2="48"/><rect fill="#FEFECE" filter="url(#f1)" height="48" style="stroke: #A80036; stroke-width: 1.5;" width="108" x="317.5" y="8"/><ellipse cx="332.5" cy="24" fill="#ADD1B2" rx="11" ry="11" style="stroke: #A80036; stroke-width: 1.0;"/><path d="M335.2656,19.875 Q335.4219,19.6563 335.6094,19.5469 Q335.7969,19.4375 336.0156,19.4375 Q336.3906,19.4375 336.625,19.6953 Q336.8594,19.9531 336.8594,20.5625 L336.8594,22.0156 Q336.8594,22.625 336.625,22.8906 Q336.3906,23.1563 336.0156,23.1563 Q335.6719,23.1563 335.4688,22.9531 Q335.2656,22.7656 335.1563,22.25 Q335.1094,21.8906 334.9219,21.7031 Q334.5938,21.3281 333.9844,21.1094 Q333.375,20.8906 332.75,20.8906 Q331.9844,20.8906 331.3516,21.2188 Q330.7188,21.5469 330.2266,22.2969 Q329.7344,23.0469 329.7344,24.0781 L329.7344,25.1719 Q329.7344,26.4063 330.625,27.2266 Q331.5156,28.0469 333.1094,28.0469 Q334.0469,28.0469 334.7031,27.7969 Q335.0938,27.6406 335.5156,27.2031 Q335.7813,26.9375 335.9297,26.8594 Q336.0781,26.7813 336.2813,26.7813 Q336.6094,26.7813 336.8672,27.0391 Q337.125,27.2969 337.125,27.6406 Q337.125,27.9844 336.7813,28.3906 Q336.2813,28.9688 335.4844,29.2969 Q334.4063,29.75 333.1094,29.75 Q331.5938,29.75 330.3906,29.125 Q329.4063,28.625 328.7188,27.5547 Q328.0313,26.4844 328.0313,25.2031 L328.0313,24.0469 Q328.0313,22.7188 328.6484,21.5703 Q329.2656,20.4219 330.3594,19.8047 Q331.4531,19.1875 332.6875,19.1875 Q333.4219,19.1875 334.0703,19.3516 Q334.7188,19.5156 335.2656,19.875 Z "/><text fill="#000000" font-family="sans-serif" font-size="12" lengthAdjust="spacingAndGlyphs" textLength="76" x="346.5" y="28.9102">ShowWidgets</text><line style="stroke: #A80036; stroke-width: 1.5;" x1="318.5" x2="424.5" y1="40" y2="40"/><line style="stroke: #A80036; stroke-width: 1.5;" x1="318.5" x2="424.5" y1="48" y2="48"/><path d="M252.132,75.54 C255.232,89.235 258.553,103.9 261.22,115.678 " fill="none" style="stroke: #A80036; stroke-width: 1.0;"/><polygon fill="none" points="245.297,77.052,247.708,56,258.951,73.961,245.297,77.052" style="stroke: #A80036; stroke-width: 1.0;"/><path d="M190.929,169.814 C156.425,186.79 118.751,207.9808 95.0669,223.8617 " fill="none" style="stroke: #A80036; stroke-width: 1.0;"/><polygon fill="#A80036" points="202.973,164,195.8308,163.0054,192.1657,169.2156,199.3079,170.2102,202.973,164" style="stroke: #A80036; stroke-width: 1.0;"/><path d="M213.375,170.483 C182.993,187.3443 145.433,208.1888 117.193,223.8617 " fill="none" style="stroke: #A80036; stroke-width: 1.0;"/><polygon fill="none" points="225.056,164,217.8687,163.414,214.5635,169.823,221.7508,170.409,225.056,164" style="stroke: #A80036; stroke-width: 1.0;"/><path d="M151.371,218.0386 C185.893,201.038 223.536,179.8505 247.139,164 " fill="none" style="stroke: #A80036; stroke-width: 1.0;"/><polygon fill="none" points="139.318,223.8617,146.4606,224.853,150.1229,218.6411,142.9802,217.6498,139.318,223.8617" style="stroke: #A80036; stroke-width: 1.0;"/><path d="M266.5,210.2977 C266.5,194.9223 266.5,177.5198 266.5,164 " fill="none" style="stroke: #A80036; stroke-width: 1.0;"/><polygon fill="#A80036" points="266.5,223.6784,270.5,217.6784,266.5,211.6784,262.5,217.6784,266.5,223.6784" style="stroke: #A80036; stroke-width: 1.0;"/><path d="M241.509,176.8693 C239.161,192.3254 240.097,209.9595 244.318,223.6784 " fill="none" style="stroke: #A80036; stroke-width: 1.0;"/><polygon fill="none" points="244.417,164,239.1926,168.9705,241.7714,175.7047,246.9958,170.7342,244.417,164" style="stroke: #A80036; stroke-width: 1.0;"/><path d="M291.546,210.7677 C293.842,195.2779 292.854,177.6578 288.583,164 " fill="none" style="stroke: #A80036; stroke-width: 1.0;"/><polygon fill="none" points="288.682,223.6784,293.8863,218.6869,291.2804,211.9631,286.0761,216.9546,288.682,223.6784" style="stroke: #A80036; stroke-width: 1.0;"/><path d="M446.833,218.7045 C407.124,201.594 357.144,180.0581 319.878,164 " fill="none" style="stroke: #A80036; stroke-width: 1.0;"/><polygon fill="#A80036" points="458.802,223.8617,454.8746,217.8139,447.7815,219.1131,451.7089,225.1609,458.802,223.8617" style="stroke: #A80036; stroke-width: 1.0;"/><path d="M309.718,169.814 C345.201,186.79 394.888,207.9808 436.676,223.8617 " fill="none" style="stroke: #A80036; stroke-width: 1.0;"/><polygon fill="none" points="297.796,164,301.4356,170.2252,308.5818,169.2599,304.9422,163.0347,297.796,164" style="stroke: #A80036; stroke-width: 1.0;"/><path d="M468.973,218.0386 C433.408,201.038 383.703,179.8505 341.961,164 " fill="none" style="stroke: #A80036; stroke-width: 1.0;"/><polygon fill="none" points="480.927,223.8617,477.2846,217.6381,470.1388,218.6067,473.7812,224.8303,480.927,223.8617" style="stroke: #A80036; stroke-width: 1.0;"/><path d="M65.65,69.258 C61.3244,113.36 61.8378,186.5129 67.1901,223.7196 " fill="none" style="stroke: #A80036; stroke-width: 1.0;"/><polygon fill="#A80036" points="67.1859,56.309,62.5069,61.796,65.7723,68.2254,70.4512,62.7384,67.1859,56.309" style="stroke: #A80036; stroke-width: 1.0;"/><path d="M85.9294,69.258 C90.5094,113.36 89.9659,186.5129 84.2988,223.7196 " fill="none" style="stroke: #A80036; stroke-width: 1.0;"/><polygon fill="none" points="84.3031,56.309,81.082,62.7607,85.7985,68.2155,89.0196,61.7638,84.3031,56.309" style="stroke: #A80036; stroke-width: 1.0;"/><path d="M339.182,65.626 C323.148,81.812 304.152,100.989 289.602,115.678 " fill="none" style="stroke: #A80036; stroke-width: 1.0;"/><polygon fill="none" points="348.717,56,341.6527,57.4477,340.272,64.5254,347.3363,63.0777,348.717,56" style="stroke: #A80036; stroke-width: 1.0;"/><path d="M128.625,62.483 C159.007,79.344 196.567,100.189 224.807,115.862 " fill="none" style="stroke: #A80036; stroke-width: 1.0;"/><polygon fill="none" points="116.944,56,120.2492,62.409,127.4364,61.8231,124.1313,55.4141,116.944,56" style="stroke: #A80036; stroke-width: 1.0;"/></g></svg>