<?xml version="1.0" encoding="UTF-8" standalone="no"?>
<!DOCTYPE svg PUBLIC "-//W3C//DTD SVG 1.1//EN"
 "http://www.w3.org/Graphics/SVG/1.1/DTD/svg11.dtd">
<!-- Generated by graphviz version 2.38.0 (20140413.2041)
 -->
<!-- Title: S:/QT_CREATOR/Locker_Control/sqlite_local_databasemanager.h Pages: 1 -->
<svg width="621pt" height="240pt"
 viewBox="0.00 0.00 620.50 240.00" xmlns="http://www.w3.org/2000/svg" xmlns:xlink="http://www.w3.org/1999/xlink">
<g id="graph0" class="graph" transform="scale(1 1) rotate(0) translate(4 236)">
<title>S:/QT_CREATOR/Locker_Control/sqlite_local_databasemanager.h</title>
<!-- Node1 -->
<g id="node1" class="node"><title>Node1</title>
<polygon fill="#bfbfbf" stroke="black" points="257.5,-199.5 257.5,-231.5 352.5,-231.5 352.5,-199.5 257.5,-199.5"/>
<text text-anchor="start" x="265.5" y="-221.9" font-family="Helvetica,sans-Serif" font-size="7.00">S:/QT_CREATOR/Locker</text>
<text text-anchor="start" x="265.5" y="-213.9" font-family="Helvetica,sans-Serif" font-size="7.00">_Control/sqlite_local</text>
<text text-anchor="middle" x="305" y="-205.9" font-family="Helvetica,sans-Serif" font-size="7.00">_databasemanager.h</text>
</g>
<!-- Node2 -->
<g id="node2" class="node"><title>Node2</title>
<g id="a_node2"><a xlink:href="consolewindows_8h.html" target="_top" xlink:title="S:/QT_CREATOR/Locker\l_Control/consolewindows.h">
<polygon fill="none" stroke="black" points="166.5,-134.5 166.5,-158.5 267.5,-158.5 267.5,-134.5 166.5,-134.5"/>
<text text-anchor="start" x="174.5" y="-148.9" font-family="Helvetica,sans-Serif" font-size="7.00">S:/QT_CREATOR/Locker</text>
<text text-anchor="middle" x="217" y="-140.9" font-family="Helvetica,sans-Serif" font-size="7.00">_Control/consolewindows.h</text>
</a>
</g>
</g>
<!-- Node1&#45;&gt;Node2 -->
<g id="edge1" class="edge"><title>Node1&#45;&gt;Node2</title>
<path fill="none" stroke="midnightblue" d="M270.683,-193.196C254.812,-181.731 237.239,-168.06 226.494,-158.677"/>
<polygon fill="midnightblue" stroke="midnightblue" points="269.091,-196.359 279.271,-199.297 273.145,-190.652 269.091,-196.359"/>
</g>
<!-- Node4 -->
<g id="node4" class="node"><title>Node4</title>
<g id="a_node4"><a xlink:href="thread__databasemanager_8h.html" target="_top" xlink:title="S:/QT_CREATOR/Locker\l_Control/thread_databasemanager.h">
<polygon fill="none" stroke="black" points="240,-65.5 240,-89.5 370,-89.5 370,-65.5 240,-65.5"/>
<text text-anchor="start" x="248" y="-79.9" font-family="Helvetica,sans-Serif" font-size="7.00">S:/QT_CREATOR/Locker</text>
<text text-anchor="middle" x="305" y="-71.9" font-family="Helvetica,sans-Serif" font-size="7.00">_Control/thread_databasemanager.h</text>
</a>
</g>
</g>
<!-- Node1&#45;&gt;Node4 -->
<g id="edge8" class="edge"><title>Node1&#45;&gt;Node4</title>
<path fill="none" stroke="midnightblue" d="M299.624,-189.391C297.395,-159.656 297.878,-111.431 301.075,-89.7216"/>
<polygon fill="midnightblue" stroke="midnightblue" points="296.146,-189.798 300.567,-199.426 303.116,-189.142 296.146,-189.798"/>
</g>
<!-- Node7 -->
<g id="node7" class="node"><title>Node7</title>
<g id="a_node7"><a xlink:href="thread__localdatabase__autosave_8h.html" target="_top" xlink:title="S:/QT_CREATOR/Locker\l_Control/thread_localdatabase\l_autosave.h">
<polygon fill="none" stroke="black" points="380.5,-130.5 380.5,-162.5 491.5,-162.5 491.5,-130.5 380.5,-130.5"/>
<text text-anchor="start" x="388.5" y="-152.9" font-family="Helvetica,sans-Serif" font-size="7.00">S:/QT_CREATOR/Locker</text>
<text text-anchor="start" x="388.5" y="-144.9" font-family="Helvetica,sans-Serif" font-size="7.00">_Control/thread_localdatabase</text>
<text text-anchor="middle" x="436" y="-136.9" font-family="Helvetica,sans-Serif" font-size="7.00">_autosave.h</text>
</a>
</g>
</g>
<!-- Node1&#45;&gt;Node7 -->
<g id="edge9" class="edge"><title>Node1&#45;&gt;Node7</title>
<path fill="none" stroke="midnightblue" d="M337.614,-194.635C356.754,-184.422 380.864,-172.17 400.483,-162.718"/>
<polygon fill="midnightblue" stroke="midnightblue" points="335.799,-191.637 328.658,-199.464 339.122,-197.799 335.799,-191.637"/>
</g>
<!-- Node8 -->
<g id="node8" class="node"><title>Node8</title>
<g id="a_node8"><a xlink:href="sqlite__local__databasemanager_8cpp.html" target="_top" xlink:title="S:/QT_CREATOR/Locker\l_Control/sqlite_local\l_databasemanager.cpp">
<polygon fill="none" stroke="black" points="388.5,-61.5 388.5,-93.5 483.5,-93.5 483.5,-61.5 388.5,-61.5"/>
<text text-anchor="start" x="396.5" y="-83.9" font-family="Helvetica,sans-Serif" font-size="7.00">S:/QT_CREATOR/Locker</text>
<text text-anchor="start" x="396.5" y="-75.9" font-family="Helvetica,sans-Serif" font-size="7.00">_Control/sqlite_local</text>
<text text-anchor="middle" x="436" y="-67.9" font-family="Helvetica,sans-Serif" font-size="7.00">_databasemanager.cpp</text>
</a>
</g>
</g>
<!-- Node1&#45;&gt;Node8 -->
<g id="edge13" class="edge"><title>Node1&#45;&gt;Node8</title>
<path fill="none" stroke="midnightblue" d="M321.245,-190.706C333.831,-173.062 352.235,-148.896 371,-130 384.392,-116.515 401.255,-103.244 414.449,-93.5519"/>
<polygon fill="midnightblue" stroke="midnightblue" points="318.109,-189.082 315.223,-199.276 323.836,-193.107 318.109,-189.082"/>
</g>
<!-- Node2&#45;&gt;Node1 -->
<g id="edge6" class="edge"><title>Node2&#45;&gt;Node1</title>
<path fill="none" stroke="midnightblue" d="M245.416,-164.589C260.581,-175.294 278.472,-188.969 290.792,-199.297"/>
<polygon fill="midnightblue" stroke="midnightblue" points="247.081,-161.485 236.865,-158.677 243.1,-167.243 247.081,-161.485"/>
</g>
<!-- Node3 -->
<g id="node3" class="node"><title>Node3</title>
<g id="a_node3"><a xlink:href="consolewindows_8cpp.html" target="_top" xlink:title="S:/QT_CREATOR/Locker\l_Control/consolewindows.cpp">
<polygon fill="none" stroke="black" points="0,-65.5 0,-89.5 108,-89.5 108,-65.5 0,-65.5"/>
<text text-anchor="start" x="8" y="-79.9" font-family="Helvetica,sans-Serif" font-size="7.00">S:/QT_CREATOR/Locker</text>
<text text-anchor="middle" x="54" y="-71.9" font-family="Helvetica,sans-Serif" font-size="7.00">_Control/consolewindows.cpp</text>
</a>
</g>
</g>
<!-- Node2&#45;&gt;Node3 -->
<g id="edge2" class="edge"><title>Node2&#45;&gt;Node3</title>
<path fill="none" stroke="midnightblue" d="M180.741,-130.596C150.545,-118.184 108.223,-100.788 80.9561,-89.5801"/>
<polygon fill="midnightblue" stroke="midnightblue" points="179.504,-133.872 190.084,-134.436 182.165,-127.397 179.504,-133.872"/>
</g>
<!-- Node2&#45;&gt;Node4 -->
<g id="edge3" class="edge"><title>Node2&#45;&gt;Node4</title>
<path fill="none" stroke="midnightblue" d="M239.83,-128.118C255.81,-115.951 276.682,-100.06 290.447,-89.5801"/>
<polygon fill="midnightblue" stroke="midnightblue" points="237.368,-125.594 231.531,-134.436 241.608,-131.163 237.368,-125.594"/>
</g>
<!-- Node6 -->
<g id="node6" class="node"><title>Node6</title>
<g id="a_node6"><a xlink:href="main_8cpp.html" target="_top" xlink:title="S:/QT_CREATOR/Locker\l_Control/main.cpp">
<polygon fill="none" stroke="black" points="126.5,-65.5 126.5,-89.5 221.5,-89.5 221.5,-65.5 126.5,-65.5"/>
<text text-anchor="start" x="134.5" y="-79.9" font-family="Helvetica,sans-Serif" font-size="7.00">S:/QT_CREATOR/Locker</text>
<text text-anchor="middle" x="174" y="-71.9" font-family="Helvetica,sans-Serif" font-size="7.00">_Control/main.cpp</text>
</a>
</g>
</g>
<!-- Node2&#45;&gt;Node6 -->
<g id="edge7" class="edge"><title>Node2&#45;&gt;Node6</title>
<path fill="none" stroke="midnightblue" d="M204.334,-125.764C196.816,-114.05 187.553,-99.6171 181.255,-89.8041"/>
<polygon fill="midnightblue" stroke="midnightblue" points="201.553,-127.911 209.899,-134.436 207.444,-124.13 201.553,-127.911"/>
</g>
<!-- Node4&#45;&gt;Node1 -->
<g id="edge4" class="edge"><title>Node4&#45;&gt;Node1</title>
<path fill="none" stroke="midnightblue" d="M310.079,-99.9343C312.505,-127.653 312.29,-175.234 309.433,-199.426"/>
<polygon fill="midnightblue" stroke="midnightblue" points="313.526,-99.2657 308.925,-89.7216 306.57,-100.051 313.526,-99.2657"/>
</g>
<!-- Node5 -->
<g id="node5" class="node"><title>Node5</title>
<g id="a_node5"><a xlink:href="thread__databasemanager_8cpp.html" target="_top" xlink:title="S:/QT_CREATOR/Locker\l_Control/thread_databasemanager.cpp">
<polygon fill="none" stroke="black" points="236.5,-0.5 236.5,-24.5 373.5,-24.5 373.5,-0.5 236.5,-0.5"/>
<text text-anchor="start" x="244.5" y="-14.9" font-family="Helvetica,sans-Serif" font-size="7.00">S:/QT_CREATOR/Locker</text>
<text text-anchor="middle" x="305" y="-6.9" font-family="Helvetica,sans-Serif" font-size="7.00">_Control/thread_databasemanager.cpp</text>
</a>
</g>
</g>
<!-- Node4&#45;&gt;Node5 -->
<g id="edge5" class="edge"><title>Node4&#45;&gt;Node5</title>
<path fill="none" stroke="midnightblue" d="M305,-55.0188C305,-44.8216 305,-33.0609 305,-24.6656"/>
<polygon fill="midnightblue" stroke="midnightblue" points="301.5,-55.2368 305,-65.2369 308.5,-55.2369 301.5,-55.2368"/>
</g>
<!-- Node7&#45;&gt;Node1 -->
<g id="edge10" class="edge"><title>Node7&#45;&gt;Node1</title>
<path fill="none" stroke="midnightblue" d="M403.017,-167.562C383.813,-177.801 359.701,-190.048 340.139,-199.464"/>
<polygon fill="midnightblue" stroke="midnightblue" points="404.865,-170.542 412.008,-162.718 401.545,-164.379 404.865,-170.542"/>
</g>
<!-- Node7&#45;&gt;Node8 -->
<g id="edge11" class="edge"><title>Node7&#45;&gt;Node8</title>
<path fill="none" stroke="midnightblue" d="M436,-120.025C436,-111.128 436,-101.429 436,-93.6432"/>
<polygon fill="midnightblue" stroke="midnightblue" points="432.5,-120.297 436,-130.297 439.5,-120.297 432.5,-120.297"/>
</g>
<!-- Node9 -->
<g id="node9" class="node"><title>Node9</title>
<g id="a_node9"><a xlink:href="thread__localdatabase__autosave_8cpp.html" target="_top" xlink:title="S:/QT_CREATOR/Locker\l_Control/thread_localdatabase\l_autosave.cpp">
<polygon fill="none" stroke="black" points="501.5,-61.5 501.5,-93.5 612.5,-93.5 612.5,-61.5 501.5,-61.5"/>
<text text-anchor="start" x="509.5" y="-83.9" font-family="Helvetica,sans-Serif" font-size="7.00">S:/QT_CREATOR/Locker</text>
<text text-anchor="start" x="509.5" y="-75.9" font-family="Helvetica,sans-Serif" font-size="7.00">_Control/thread_localdatabase</text>
<text text-anchor="middle" x="557" y="-67.9" font-family="Helvetica,sans-Serif" font-size="7.00">_autosave.cpp</text>
</a>
</g>
</g>
<!-- Node7&#45;&gt;Node9 -->
<g id="edge12" class="edge"><title>Node7&#45;&gt;Node9</title>
<path fill="none" stroke="midnightblue" d="M472.127,-125.496C490.521,-115.311 512.524,-103.127 529.517,-93.7177"/>
<polygon fill="midnightblue" stroke="midnightblue" points="470.208,-122.558 463.155,-130.464 473.599,-128.682 470.208,-122.558"/>
</g>
</g>
</svg>
