<?xml version="1.0" encoding="UTF-8" standalone="no"?>
<!DOCTYPE svg PUBLIC "-//W3C//DTD SVG 1.1//EN"
 "http://www.w3.org/Graphics/SVG/1.1/DTD/svg11.dtd">
<!-- Generated by graphviz version 2.38.0 (20140413.2041)
 -->
<!-- Title: S:/QT_CREATOR/Locker_Control/sqlite_local_databasemanager.h Pages: 1 -->
<svg width="444pt" height="261pt"
 viewBox="0.00 0.00 443.50 261.00" xmlns="http://www.w3.org/2000/svg" xmlns:xlink="http://www.w3.org/1999/xlink">
<g id="graph0" class="graph" transform="scale(1 1) rotate(0) translate(4 257)">
<title>S:/QT_CREATOR/Locker_Control/sqlite_local_databasemanager.h</title>
<!-- Node1 -->
<g id="node1" class="node"><title>Node1</title>
<polygon fill="#bfbfbf" stroke="black" points="153.5,-220.5 153.5,-252.5 248.5,-252.5 248.5,-220.5 153.5,-220.5"/>
<text text-anchor="start" x="161.5" y="-242.9" font-family="Helvetica,sans-Serif" font-size="7.00">S:/QT_CREATOR/Locker</text>
<text text-anchor="start" x="161.5" y="-234.9" font-family="Helvetica,sans-Serif" font-size="7.00">_Control/sqlite_local</text>
<text text-anchor="middle" x="201" y="-226.9" font-family="Helvetica,sans-Serif" font-size="7.00">_databasemanager.h</text>
</g>
<!-- Node2 -->
<g id="node2" class="node"><title>Node2</title>
<polygon fill="none" stroke="#bfbfbf" points="0,-163.5 0,-179.5 44,-179.5 44,-163.5 0,-163.5"/>
<text text-anchor="middle" x="22" y="-169.9" font-family="Helvetica,sans-Serif" font-size="7.00">QWidget</text>
</g>
<!-- Node1&#45;&gt;Node2 -->
<g id="edge1" class="edge"><title>Node1&#45;&gt;Node2</title>
<path fill="none" stroke="midnightblue" d="M158.125,-220.41C125.188,-208.817 80.5621,-193.111 51.5299,-182.893"/>
<polygon fill="midnightblue" stroke="midnightblue" points="52.5507,-179.542 41.9559,-179.524 50.2267,-186.145 52.5507,-179.542"/>
</g>
<!-- Node3 -->
<g id="node3" class="node"><title>Node3</title>
<polygon fill="none" stroke="#bfbfbf" points="65.5,-53.5 65.5,-69.5 104.5,-69.5 104.5,-53.5 65.5,-53.5"/>
<text text-anchor="middle" x="85" y="-59.9" font-family="Helvetica,sans-Serif" font-size="7.00">QTimer</text>
</g>
<!-- Node1&#45;&gt;Node3 -->
<g id="edge2" class="edge"><title>Node1&#45;&gt;Node3</title>
<path fill="none" stroke="midnightblue" d="M179.23,-220.487C166.822,-211.1 151.67,-198.133 141,-184 115.757,-150.564 98.2847,-103.927 90.1648,-79.291"/>
<polygon fill="midnightblue" stroke="midnightblue" points="93.4637,-78.1153 87.0978,-69.6462 86.7929,-80.2366 93.4637,-78.1153"/>
</g>
<!-- Node4 -->
<g id="node4" class="node"><title>Node4</title>
<g id="a_node4"><a xlink:href="showwidgets_8h.html" target="_top" target="_top" xlink:title="showwidgets.h">
<polygon fill="none" stroke="black" points="136,-53.5 136,-69.5 198,-69.5 198,-53.5 136,-53.5"/>
<text text-anchor="middle" x="167" y="-59.9" font-family="Helvetica,sans-Serif" font-size="7.00">showwidgets.h</text>
</a>
</g>
</g>
<!-- Node1&#45;&gt;Node4 -->
<g id="edge3" class="edge"><title>Node1&#45;&gt;Node4</title>
<path fill="none" stroke="midnightblue" d="M187.058,-220.186C169.521,-199.78 140.331,-161.725 129,-123 126.878,-115.748 126.345,-113.074 129,-106 133.281,-94.593 142.058,-84.2151 150.099,-76.4591"/>
<polygon fill="midnightblue" stroke="midnightblue" points="152.597,-78.9202 157.701,-69.6359 147.921,-73.7108 152.597,-78.9202"/>
</g>
<!-- Node6 -->
<g id="node6" class="node"><title>Node6</title>
<g id="a_node6"><a xlink:href="csqlite__local__db_8h.html" target="_top" target="_top" xlink:title="csqlite_local_db.h">
<polygon fill="none" stroke="red" points="222,-53.5 222,-69.5 294,-69.5 294,-53.5 222,-53.5"/>
<text text-anchor="middle" x="258" y="-59.9" font-family="Helvetica,sans-Serif" font-size="7.00">csqlite_local_db.h</text>
</a>
</g>
</g>
<!-- Node1&#45;&gt;Node6 -->
<g id="edge5" class="edge"><title>Node1&#45;&gt;Node6</title>
<path fill="none" stroke="midnightblue" d="M248.691,-224.153C269.777,-216.507 292.568,-204.029 305,-184 326.989,-148.573 292.932,-101.159 272.148,-77.3966"/>
<polygon fill="midnightblue" stroke="midnightblue" points="274.538,-74.8216 265.22,-69.778 269.359,-79.5312 274.538,-74.8216"/>
</g>
<!-- Node8 -->
<g id="node8" class="node"><title>Node8</title>
<g id="a_node8"><a xlink:href="thread__databasemanager_8h.html" target="_top" target="_top" xlink:title="thread_databasemanager.h">
<polygon fill="none" stroke="red" points="194.5,-163.5 194.5,-179.5 295.5,-179.5 295.5,-163.5 194.5,-163.5"/>
<text text-anchor="middle" x="245" y="-169.9" font-family="Helvetica,sans-Serif" font-size="7.00">thread_databasemanager.h</text>
</a>
</g>
</g>
<!-- Node1&#45;&gt;Node8 -->
<g id="edge7" class="edge"><title>Node1&#45;&gt;Node8</title>
<path fill="none" stroke="midnightblue" d="M205.773,-220.249C211.528,-210.335 220.525,-197.464 228.608,-187.583"/>
<polygon fill="midnightblue" stroke="midnightblue" points="231.441,-189.658 235.371,-179.819 226.163,-185.06 231.441,-189.658"/>
</g>
<!-- Node9 -->
<g id="node9" class="node"><title>Node9</title>
<g id="a_node9"><a xlink:href="consolewindows_8h.html" target="_top" target="_top" xlink:title="consolewindows.h">
<polygon fill="none" stroke="red" points="138,-106.5 138,-122.5 210,-122.5 210,-106.5 138,-106.5"/>
<text text-anchor="middle" x="174" y="-112.9" font-family="Helvetica,sans-Serif" font-size="7.00">consolewindows.h</text>
</a>
</g>
</g>
<!-- Node1&#45;&gt;Node9 -->
<g id="edge18" class="edge"><title>Node1&#45;&gt;Node9</title>
<path fill="none" stroke="midnightblue" d="M188.442,-220.293C183.922,-210.1 179.868,-196.336 177,-184 172.985,-166.728 169.627,-146.727 169.193,-132.814"/>
<polygon fill="midnightblue" stroke="midnightblue" points="172.693,-132.875 169.567,-122.752 165.698,-132.615 172.693,-132.875"/>
</g>
<!-- Node10 -->
<g id="node10" class="node"><title>Node10</title>
<g id="a_node10"><a xlink:href="thread__localdatabase__autosave_8h.html" target="_top" target="_top" xlink:title="thread_localdatabase\l_autosave.h">
<polygon fill="none" stroke="red" points="352.5,-159.5 352.5,-183.5 435.5,-183.5 435.5,-159.5 352.5,-159.5"/>
<text text-anchor="start" x="360.5" y="-173.9" font-family="Helvetica,sans-Serif" font-size="7.00">thread_localdatabase</text>
<text text-anchor="middle" x="394" y="-165.9" font-family="Helvetica,sans-Serif" font-size="7.00">_autosave.h</text>
</a>
</g>
</g>
<!-- Node1&#45;&gt;Node10 -->
<g id="edge15" class="edge"><title>Node1&#45;&gt;Node10</title>
<path fill="none" stroke="midnightblue" d="M241.369,-220.41C271.67,-210.117 313.182,-196.581 345.314,-186.523"/>
<polygon fill="midnightblue" stroke="midnightblue" points="346.454,-189.834 354.962,-183.521 344.374,-183.15 346.454,-189.834"/>
</g>
<!-- Node5 -->
<g id="node5" class="node"><title>Node5</title>
<polygon fill="none" stroke="#bfbfbf" points="132.5,-0.5 132.5,-16.5 201.5,-16.5 201.5,-0.5 132.5,-0.5"/>
<text text-anchor="middle" x="167" y="-6.9" font-family="Helvetica,sans-Serif" font-size="7.00">QStackedWidget</text>
</g>
<!-- Node4&#45;&gt;Node5 -->
<g id="edge4" class="edge"><title>Node4&#45;&gt;Node5</title>
<path fill="none" stroke="midnightblue" d="M167,-53.4087C167,-46.5576 167,-35.9106 167,-26.8167"/>
<polygon fill="midnightblue" stroke="midnightblue" points="170.5,-26.5311 167,-16.5311 163.5,-26.5311 170.5,-26.5311"/>
</g>
<!-- Node7 -->
<g id="node7" class="node"><title>Node7</title>
<polygon fill="none" stroke="#bfbfbf" points="238,-0.5 238,-16.5 278,-16.5 278,-0.5 238,-0.5"/>
<text text-anchor="middle" x="258" y="-6.9" font-family="Helvetica,sans-Serif" font-size="7.00">QString</text>
</g>
<!-- Node6&#45;&gt;Node7 -->
<g id="edge6" class="edge"><title>Node6&#45;&gt;Node7</title>
<path fill="none" stroke="midnightblue" d="M258,-53.4087C258,-46.5576 258,-35.9106 258,-26.8167"/>
<polygon fill="midnightblue" stroke="midnightblue" points="261.5,-26.5311 258,-16.5311 254.5,-26.5311 261.5,-26.5311"/>
</g>
<!-- Node8&#45;&gt;Node1 -->
<g id="edge9" class="edge"><title>Node8&#45;&gt;Node1</title>
<path fill="none" stroke="midnightblue" d="M244.405,-179.819C240.816,-187.745 232.376,-200.795 223.764,-212.269"/>
<polygon fill="midnightblue" stroke="midnightblue" points="220.927,-210.214 217.529,-220.249 226.444,-214.524 220.927,-210.214"/>
</g>
<!-- Node8&#45;&gt;Node6 -->
<g id="edge8" class="edge"><title>Node8&#45;&gt;Node6</title>
<path fill="none" stroke="midnightblue" d="M245.853,-163.414C247.872,-146.637 252.994,-104.089 255.901,-79.9383"/>
<polygon fill="midnightblue" stroke="midnightblue" points="259.407,-80.1005 257.127,-69.7539 252.457,-79.2639 259.407,-80.1005"/>
</g>
<!-- Node8&#45;&gt;Node9 -->
<g id="edge10" class="edge"><title>Node8&#45;&gt;Node9</title>
<path fill="none" stroke="midnightblue" d="M235.718,-163.31C224.387,-154.532 205.006,-139.518 190.98,-128.654"/>
<polygon fill="midnightblue" stroke="midnightblue" points="193.109,-125.875 183.06,-122.518 188.822,-131.409 193.109,-125.875"/>
</g>
<!-- Node9&#45;&gt;Node1 -->
<g id="edge14" class="edge"><title>Node9&#45;&gt;Node1</title>
<path fill="none" stroke="midnightblue" d="M180.438,-122.752C185.798,-135.312 189.86,-161.891 195,-184 197.016,-192.674 199.619,-202.053 201.62,-210.401"/>
<polygon fill="midnightblue" stroke="midnightblue" points="198.223,-211.25 203.743,-220.293 205.067,-209.781 198.223,-211.25"/>
</g>
<!-- Node9&#45;&gt;Node3 -->
<g id="edge11" class="edge"><title>Node9&#45;&gt;Node3</title>
<path fill="none" stroke="midnightblue" d="M161.625,-106.409C147.278,-98.1874 123.392,-84.4999 106.097,-74.5896"/>
<polygon fill="midnightblue" stroke="midnightblue" points="107.687,-71.4663 97.27,-69.5311 104.206,-77.5398 107.687,-71.4663"/>
</g>
<!-- Node9&#45;&gt;Node4 -->
<g id="edge12" class="edge"><title>Node9&#45;&gt;Node4</title>
<path fill="none" stroke="midnightblue" d="M173.027,-106.409C172.076,-99.4815 170.592,-88.6735 169.335,-79.5142"/>
<polygon fill="midnightblue" stroke="midnightblue" points="172.792,-78.9623 167.965,-69.5311 165.857,-79.9142 172.792,-78.9623"/>
</g>
<!-- Node9&#45;&gt;Node6 -->
<g id="edge13" class="edge"><title>Node9&#45;&gt;Node6</title>
<path fill="none" stroke="midnightblue" d="M185.68,-106.409C199.095,-98.2635 221.348,-84.7529 237.633,-74.8658"/>
<polygon fill="midnightblue" stroke="midnightblue" points="239.688,-77.7127 246.419,-69.5311 236.055,-71.7292 239.688,-77.7127"/>
</g>
<!-- Node10&#45;&gt;Node1 -->
<g id="edge16" class="edge"><title>Node10&#45;&gt;Node1</title>
<path fill="none" stroke="midnightblue" d="M365.504,-183.524C337.324,-193.266 293.61,-207.618 258.279,-218.775"/>
<polygon fill="midnightblue" stroke="midnightblue" points="257.047,-215.493 248.557,-221.83 259.146,-222.171 257.047,-215.493"/>
</g>
<!-- Node10&#45;&gt;Node6 -->
<g id="edge17" class="edge"><title>Node10&#45;&gt;Node6</title>
<path fill="none" stroke="midnightblue" d="M386.291,-159.385C376.327,-145.602 357.883,-121.977 338,-106 321.671,-92.8786 300.815,-81.6868 284.491,-73.9422"/>
<polygon fill="midnightblue" stroke="midnightblue" points="285.542,-70.5735 274.994,-69.5792 282.62,-76.9343 285.542,-70.5735"/>
</g>
</g>
</svg>
