<?xml version="1.0" encoding="UTF-8" standalone="no"?>
<!DOCTYPE svg PUBLIC "-//W3C//DTD SVG 1.1//EN"
 "http://www.w3.org/Graphics/SVG/1.1/DTD/svg11.dtd">
<!-- Generated by graphviz version 2.38.0 (20140413.2041)
 -->
<!-- Title: S:/QT_CREATOR/Locker_Control/stowpackages.cpp Pages: 1 -->
<svg width="438pt" height="192pt"
 viewBox="0.00 0.00 438.00 192.00" xmlns="http://www.w3.org/2000/svg" xmlns:xlink="http://www.w3.org/1999/xlink">
<g id="graph0" class="graph" transform="scale(1 1) rotate(0) translate(4 188)">
<title>S:/QT_CREATOR/Locker_Control/stowpackages.cpp</title>
<!-- Node1 -->
<g id="node1" class="node"><title>Node1</title>
<polygon fill="#bfbfbf" stroke="black" points="231.5,-159.5 231.5,-183.5 334.5,-183.5 334.5,-159.5 231.5,-159.5"/>
<text text-anchor="start" x="239.5" y="-173.9" font-family="Helvetica,sans-Serif" font-size="7.00">S:/QT_CREATOR/Locker</text>
<text text-anchor="middle" x="283" y="-165.9" font-family="Helvetica,sans-Serif" font-size="7.00">_Control/stowpackages.cpp</text>
</g>
<!-- Node2 -->
<g id="node2" class="node"><title>Node2</title>
<g id="a_node2"><a xlink:href="stowpackages_8h.html" target="_top" target="_top" xlink:title="stowpackages.h">
<polygon fill="none" stroke="red" points="78.5,-106.5 78.5,-122.5 145.5,-122.5 145.5,-106.5 78.5,-106.5"/>
<text text-anchor="middle" x="112" y="-112.9" font-family="Helvetica,sans-Serif" font-size="7.00">stowpackages.h</text>
</a>
</g>
</g>
<!-- Node1&#45;&gt;Node2 -->
<g id="edge1" class="edge"><title>Node1&#45;&gt;Node2</title>
<path fill="none" stroke="midnightblue" d="M248.396,-159.37C217.841,-149.542 173.653,-135.33 143.929,-125.77"/>
<polygon fill="midnightblue" stroke="midnightblue" points="144.657,-122.327 134.065,-122.597 142.513,-128.991 144.657,-122.327"/>
</g>
<!-- Node7 -->
<g id="node7" class="node"><title>Node7</title>
<polygon fill="none" stroke="#bfbfbf" points="164,-106.5 164,-122.5 240,-122.5 240,-106.5 164,-106.5"/>
<text text-anchor="middle" x="202" y="-112.9" font-family="Helvetica,sans-Serif" font-size="7.00">ui_stowpackages.h</text>
</g>
<!-- Node1&#45;&gt;Node7 -->
<g id="edge9" class="edge"><title>Node1&#45;&gt;Node7</title>
<path fill="none" stroke="midnightblue" d="M266.608,-159.37C253.412,-150.409 234.846,-137.803 221.001,-128.402"/>
<polygon fill="midnightblue" stroke="midnightblue" points="222.927,-125.479 212.688,-122.757 218.995,-131.271 222.927,-125.479"/>
</g>
<!-- Node8 -->
<g id="node8" class="node"><title>Node8</title>
<polygon fill="none" stroke="#bfbfbf" points="258,-106.5 258,-122.5 308,-122.5 308,-106.5 258,-106.5"/>
<text text-anchor="middle" x="283" y="-112.9" font-family="Helvetica,sans-Serif" font-size="7.00">QScrollBar</text>
</g>
<!-- Node1&#45;&gt;Node8 -->
<g id="edge10" class="edge"><title>Node1&#45;&gt;Node8</title>
<path fill="none" stroke="midnightblue" d="M283,-159.37C283,-151.775 283,-141.56 283,-132.899"/>
<polygon fill="midnightblue" stroke="midnightblue" points="286.5,-132.757 283,-122.757 279.5,-132.758 286.5,-132.757"/>
</g>
<!-- Node9 -->
<g id="node9" class="node"><title>Node9</title>
<polygon fill="none" stroke="#bfbfbf" points="326,-106.5 326,-122.5 370,-122.5 370,-106.5 326,-106.5"/>
<text text-anchor="middle" x="348" y="-112.9" font-family="Helvetica,sans-Serif" font-size="7.00">QToolTip</text>
</g>
<!-- Node1&#45;&gt;Node9 -->
<g id="edge11" class="edge"><title>Node1&#45;&gt;Node9</title>
<path fill="none" stroke="midnightblue" d="M296.154,-159.37C306.34,-150.751 320.513,-138.758 331.466,-129.49"/>
<polygon fill="midnightblue" stroke="midnightblue" points="334.05,-131.889 339.423,-122.757 329.528,-126.545 334.05,-131.889"/>
</g>
<!-- Node10 -->
<g id="node10" class="node"><title>Node10</title>
<polygon fill="none" stroke="#bfbfbf" points="388,-106.5 388,-122.5 430,-122.5 430,-106.5 388,-106.5"/>
<text text-anchor="middle" x="409" y="-112.9" font-family="Helvetica,sans-Serif" font-size="7.00">QDebug</text>
</g>
<!-- Node1&#45;&gt;Node10 -->
<g id="edge12" class="edge"><title>Node1&#45;&gt;Node10</title>
<path fill="none" stroke="midnightblue" d="M308.498,-159.37C330.324,-149.843 361.591,-136.195 383.435,-126.659"/>
<polygon fill="midnightblue" stroke="midnightblue" points="384.977,-129.805 392.741,-122.597 382.176,-123.39 384.977,-129.805"/>
</g>
<!-- Node3 -->
<g id="node3" class="node"><title>Node3</title>
<polygon fill="none" stroke="#bfbfbf" points="0,-0.5 0,-16.5 44,-16.5 44,-0.5 0,-0.5"/>
<text text-anchor="middle" x="22" y="-6.9" font-family="Helvetica,sans-Serif" font-size="7.00">QWidget</text>
</g>
<!-- Node2&#45;&gt;Node3 -->
<g id="edge2" class="edge"><title>Node2&#45;&gt;Node3</title>
<path fill="none" stroke="midnightblue" d="M93.0608,-106.372C77.0144,-99.4096 54.5189,-87.322 41,-70 31.151,-57.3803 26.3606,-39.5781 24.0598,-26.552"/>
<polygon fill="midnightblue" stroke="midnightblue" points="27.5133,-25.9786 22.6141,-16.5846 20.5858,-26.9835 27.5133,-25.9786"/>
</g>
<!-- Node4 -->
<g id="node4" class="node"><title>Node4</title>
<g id="a_node4"><a xlink:href="showwidgets_8h.html" target="_top" target="_top" xlink:title="showwidgets.h">
<polygon fill="none" stroke="red" points="62,-0.5 62,-16.5 124,-16.5 124,-0.5 62,-0.5"/>
<text text-anchor="middle" x="93" y="-6.9" font-family="Helvetica,sans-Serif" font-size="7.00">showwidgets.h</text>
</a>
</g>
</g>
<!-- Node2&#45;&gt;Node4 -->
<g id="edge3" class="edge"><title>Node2&#45;&gt;Node4</title>
<path fill="none" stroke="midnightblue" d="M115.507,-106.286C120.602,-94.8041 128.84,-71.755 123,-53 119.75,-42.563 113.026,-32.4177 106.766,-24.5538"/>
<polygon fill="midnightblue" stroke="midnightblue" points="109.26,-22.0843 100.106,-16.7505 103.936,-26.6288 109.26,-22.0843"/>
</g>
<!-- Node5 -->
<g id="node5" class="node"><title>Node5</title>
<g id="a_node5"><a xlink:href="scanpackage_8h.html" target="_top" target="_top" xlink:title="scanpackage.h">
<polygon fill="none" stroke="red" points="50,-53.5 50,-69.5 114,-69.5 114,-53.5 50,-53.5"/>
<text text-anchor="middle" x="82" y="-59.9" font-family="Helvetica,sans-Serif" font-size="7.00">scanpackage.h</text>
</a>
</g>
</g>
<!-- Node2&#45;&gt;Node5 -->
<g id="edge4" class="edge"><title>Node2&#45;&gt;Node5</title>
<path fill="none" stroke="midnightblue" d="M107.829,-106.409C103.575,-99.177 96.8329,-87.7159 91.3037,-78.3164"/>
<polygon fill="midnightblue" stroke="midnightblue" points="94.223,-76.3759 86.1359,-69.5311 88.1894,-79.925 94.223,-76.3759"/>
</g>
<!-- Node6 -->
<g id="node6" class="node"><title>Node6</title>
<g id="a_node6"><a xlink:href="custompushbutton_8h.html" target="_top" target="_top" xlink:title="custompushbutton.h">
<polygon fill="none" stroke="red" points="142,-0.5 142,-16.5 222,-16.5 222,-0.5 142,-0.5"/>
<text text-anchor="middle" x="182" y="-6.9" font-family="Helvetica,sans-Serif" font-size="7.00">custompushbutton.h</text>
</a>
</g>
</g>
<!-- Node2&#45;&gt;Node6 -->
<g id="edge8" class="edge"><title>Node2&#45;&gt;Node6</title>
<path fill="none" stroke="midnightblue" d="M116.811,-106.352C128.001,-89.7274 155.989,-48.1447 171.404,-25.2426"/>
<polygon fill="midnightblue" stroke="midnightblue" points="174.475,-26.9486 177.155,-16.6984 168.668,-23.0399 174.475,-26.9486"/>
</g>
<!-- Node5&#45;&gt;Node3 -->
<g id="edge5" class="edge"><title>Node5&#45;&gt;Node3</title>
<path fill="none" stroke="midnightblue" d="M73.6573,-53.4087C64.5225,-45.6442 49.6516,-33.0039 38.2055,-23.2747"/>
<polygon fill="midnightblue" stroke="midnightblue" points="40.1581,-20.3408 30.2719,-16.5311 35.6245,-25.6744 40.1581,-20.3408"/>
</g>
<!-- Node5&#45;&gt;Node4 -->
<g id="edge6" class="edge"><title>Node5&#45;&gt;Node4</title>
<path fill="none" stroke="midnightblue" d="M83.5295,-53.4087C85.0236,-46.4815 87.3547,-35.6735 89.3303,-26.5142"/>
<polygon fill="midnightblue" stroke="midnightblue" points="92.7964,-27.0443 91.4835,-16.5311 85.9537,-25.5684 92.7964,-27.0443"/>
</g>
<!-- Node5&#45;&gt;Node6 -->
<g id="edge7" class="edge"><title>Node5&#45;&gt;Node6</title>
<path fill="none" stroke="midnightblue" d="M95.9046,-53.4087C112.249,-45.0732 139.61,-31.1187 159.1,-21.1788"/>
<polygon fill="midnightblue" stroke="midnightblue" points="160.895,-24.1923 168.214,-16.5311 157.715,-17.9565 160.895,-24.1923"/>
</g>
</g>
</svg>
