<?xml version="1.0" encoding="UTF-8" standalone="no"?>
<!DOCTYPE svg PUBLIC "-//W3C//DTD SVG 1.1//EN"
 "http://www.w3.org/Graphics/SVG/1.1/DTD/svg11.dtd">
<!-- Generated by graphviz version 2.38.0 (20140413.2041)
 -->
<!-- Title: S:/QT_CREATOR/Locker_Control/threaddeleteextractcode.h Pages: 1 -->
<svg width="482pt" height="139pt"
 viewBox="0.00 0.00 482.00 139.00" xmlns="http://www.w3.org/2000/svg" xmlns:xlink="http://www.w3.org/1999/xlink">
<g id="graph0" class="graph" transform="scale(1 1) rotate(0) translate(4 135)">
<title>S:/QT_CREATOR/Locker_Control/threaddeleteextractcode.h</title>
<!-- Node1 -->
<g id="node1" class="node"><title>Node1</title>
<polygon fill="#bfbfbf" stroke="black" points="171,-106.5 171,-130.5 297,-130.5 297,-106.5 171,-106.5"/>
<text text-anchor="start" x="179" y="-120.9" font-family="Helvetica,sans-Serif" font-size="7.00">S:/QT_CREATOR/Locker</text>
<text text-anchor="middle" x="234" y="-112.9" font-family="Helvetica,sans-Serif" font-size="7.00">_Control/threaddeleteextractcode.h</text>
</g>
<!-- Node2 -->
<g id="node2" class="node"><title>Node2</title>
<polygon fill="none" stroke="#bfbfbf" points="174.5,-53.5 174.5,-69.5 217.5,-69.5 217.5,-53.5 174.5,-53.5"/>
<text text-anchor="middle" x="196" y="-59.9" font-family="Helvetica,sans-Serif" font-size="7.00">QThread</text>
</g>
<!-- Node1&#45;&gt;Node2 -->
<g id="edge1" class="edge"><title>Node1&#45;&gt;Node2</title>
<path fill="none" stroke="midnightblue" d="M226.31,-106.37C220.709,-98.2627 213.046,-87.1712 206.826,-78.1693"/>
<polygon fill="midnightblue" stroke="midnightblue" points="209.578,-75.9953 201.014,-69.7575 203.819,-79.9743 209.578,-75.9953"/>
</g>
<!-- Node3 -->
<g id="node3" class="node"><title>Node3</title>
<g id="a_node3"><a xlink:href="csqlite__local__db_8h.html" target="_top" xlink:title="csqlite_local_db.h">
<polygon fill="none" stroke="red" points="236,-53.5 236,-69.5 308,-69.5 308,-53.5 236,-53.5"/>
<text text-anchor="middle" x="272" y="-59.9" font-family="Helvetica,sans-Serif" font-size="7.00">csqlite_local_db.h</text>
</a>
</g>
</g>
<!-- Node1&#45;&gt;Node3 -->
<g id="edge2" class="edge"><title>Node1&#45;&gt;Node3</title>
<path fill="none" stroke="midnightblue" d="M241.69,-106.37C247.291,-98.2627 254.954,-87.1712 261.174,-78.1693"/>
<polygon fill="midnightblue" stroke="midnightblue" points="264.181,-79.9743 266.986,-69.7575 258.422,-75.9953 264.181,-79.9743"/>
</g>
<!-- Node4 -->
<g id="node4" class="node"><title>Node4</title>
<polygon fill="none" stroke="#bfbfbf" points="0,-0.5 0,-16.5 40,-16.5 40,-0.5 0,-0.5"/>
<text text-anchor="middle" x="20" y="-6.9" font-family="Helvetica,sans-Serif" font-size="7.00">QString</text>
</g>
<!-- Node3&#45;&gt;Node4 -->
<g id="edge3" class="edge"><title>Node3&#45;&gt;Node4</title>
<path fill="none" stroke="midnightblue" d="M235.94,-54.1587C193.716,-46.581 121.454,-33.1417 50.2766,-17.1717"/>
<polygon fill="midnightblue" stroke="midnightblue" points="50.7693,-13.6948 40.2435,-14.9018 49.2246,-20.5222 50.7693,-13.6948"/>
</g>
<!-- Node5 -->
<g id="node5" class="node"><title>Node5</title>
<polygon fill="none" stroke="#bfbfbf" points="58.5,-0.5 58.5,-16.5 139.5,-16.5 139.5,-0.5 58.5,-0.5"/>
<text text-anchor="middle" x="99" y="-6.9" font-family="Helvetica,sans-Serif" font-size="7.00">QtSql/QSqlDatabase</text>
</g>
<!-- Node3&#45;&gt;Node5 -->
<g id="edge4" class="edge"><title>Node3&#45;&gt;Node5</title>
<path fill="none" stroke="midnightblue" d="M247.945,-53.4087C217.992,-44.5784 166.647,-29.4422 132.763,-19.4532"/>
<polygon fill="midnightblue" stroke="midnightblue" points="133.432,-16.0017 122.851,-16.5311 131.453,-22.716 133.432,-16.0017"/>
</g>
<!-- Node6 -->
<g id="node6" class="node"><title>Node6</title>
<polygon fill="none" stroke="#bfbfbf" points="157.5,-0.5 157.5,-16.5 228.5,-16.5 228.5,-0.5 157.5,-0.5"/>
<text text-anchor="middle" x="193" y="-6.9" font-family="Helvetica,sans-Serif" font-size="7.00">QtSql/QSqlDriver</text>
</g>
<!-- Node3&#45;&gt;Node6 -->
<g id="edge5" class="edge"><title>Node3&#45;&gt;Node6</title>
<path fill="none" stroke="midnightblue" d="M261.015,-53.4087C248.516,-45.3397 227.861,-32.005 212.586,-22.144"/>
<polygon fill="midnightblue" stroke="midnightblue" points="214.191,-19.0143 203.891,-16.5311 210.394,-24.8953 214.191,-19.0143"/>
</g>
<!-- Node7 -->
<g id="node7" class="node"><title>Node7</title>
<polygon fill="none" stroke="#bfbfbf" points="246.5,-0.5 246.5,-16.5 297.5,-16.5 297.5,-0.5 246.5,-0.5"/>
<text text-anchor="middle" x="272" y="-6.9" font-family="Helvetica,sans-Serif" font-size="7.00">QSqlQuery</text>
</g>
<!-- Node3&#45;&gt;Node7 -->
<g id="edge6" class="edge"><title>Node3&#45;&gt;Node7</title>
<path fill="none" stroke="midnightblue" d="M272,-53.4087C272,-46.5576 272,-35.9106 272,-26.8167"/>
<polygon fill="midnightblue" stroke="midnightblue" points="275.5,-26.5311 272,-16.5311 268.5,-26.5311 275.5,-26.5311"/>
</g>
<!-- Node8 -->
<g id="node8" class="node"><title>Node8</title>
<polygon fill="none" stroke="#bfbfbf" points="315.5,-0.5 315.5,-16.5 362.5,-16.5 362.5,-0.5 315.5,-0.5"/>
<text text-anchor="middle" x="339" y="-6.9" font-family="Helvetica,sans-Serif" font-size="7.00">QSqlError</text>
</g>
<!-- Node3&#45;&gt;Node8 -->
<g id="edge7" class="edge"><title>Node3&#45;&gt;Node8</title>
<path fill="none" stroke="midnightblue" d="M281.316,-53.4087C291.717,-45.4919 308.776,-32.5063 321.651,-22.7058"/>
<polygon fill="midnightblue" stroke="midnightblue" points="323.926,-25.373 329.763,-16.5311 319.686,-19.803 323.926,-25.373"/>
</g>
<!-- Node9 -->
<g id="node9" class="node"><title>Node9</title>
<polygon fill="none" stroke="#bfbfbf" points="380.5,-0.5 380.5,-16.5 413.5,-16.5 413.5,-0.5 380.5,-0.5"/>
<text text-anchor="middle" x="397" y="-6.9" font-family="Helvetica,sans-Serif" font-size="7.00">QFile</text>
</g>
<!-- Node3&#45;&gt;Node9 -->
<g id="edge8" class="edge"><title>Node3&#45;&gt;Node9</title>
<path fill="none" stroke="midnightblue" d="M289.381,-53.4087C310.488,-44.7968 346.297,-30.1868 370.766,-20.2034"/>
<polygon fill="midnightblue" stroke="midnightblue" points="372.229,-23.3865 380.166,-16.3682 369.585,-16.9052 372.229,-23.3865"/>
</g>
<!-- Node10 -->
<g id="node10" class="node"><title>Node10</title>
<polygon fill="none" stroke="#bfbfbf" points="432,-0.5 432,-16.5 474,-16.5 474,-0.5 432,-0.5"/>
<text text-anchor="middle" x="453" y="-6.9" font-family="Helvetica,sans-Serif" font-size="7.00">QObject</text>
</g>
<!-- Node3&#45;&gt;Node10 -->
<g id="edge9" class="edge"><title>Node3&#45;&gt;Node10</title>
<path fill="none" stroke="midnightblue" d="M297.167,-53.4087C329.879,-44.1916 386.974,-28.104 422.226,-18.1711"/>
<polygon fill="midnightblue" stroke="midnightblue" points="423.307,-21.503 431.983,-15.422 421.408,-14.7653 423.307,-21.503"/>
</g>
</g>
</svg>
