<?xml version="1.0" encoding="UTF-8" standalone="no"?>
<!DOCTYPE svg PUBLIC "-//W3C//DTD SVG 1.1//EN"
 "http://www.w3.org/Graphics/SVG/1.1/DTD/svg11.dtd">
<!-- Generated by graphviz version 2.38.0 (20140413.2041)
 -->
<!-- Title: S:/QT_CREATOR/Locker_Control/threadsavedelivery.cpp Pages: 1 -->
<svg width="295pt" height="298pt"
 viewBox="0.00 0.00 295.26 298.00" xmlns="http://www.w3.org/2000/svg" xmlns:xlink="http://www.w3.org/1999/xlink">
<g id="graph0" class="graph" transform="scale(1 1) rotate(0) translate(4 294)">
<title>S:/QT_CREATOR/Locker_Control/threadsavedelivery.cpp</title>
<!-- Node1 -->
<g id="node1" class="node"><title>Node1</title>
<polygon fill="#bfbfbf" stroke="black" points="81,-265.5 81,-289.5 200,-289.5 200,-265.5 81,-265.5"/>
<text text-anchor="start" x="89" y="-279.9" font-family="Helvetica,sans-Serif" font-size="7.00">S:/QT_CREATOR/Locker</text>
<text text-anchor="middle" x="140.5" y="-271.9" font-family="Helvetica,sans-Serif" font-size="7.00">_Control/threadsavedelivery.cpp</text>
</g>
<!-- Node2 -->
<g id="node2" class="node"><title>Node2</title>
<g id="a_node2"><a xlink:href="threadsavedelivery_8h.html" target="_top" xlink:title="threadsavedelivery.h">
<polygon fill="none" stroke="black" points="0,-159.5 0,-175.5 83,-175.5 83,-159.5 0,-159.5"/>
<text text-anchor="middle" x="41.5" y="-165.9" font-family="Helvetica,sans-Serif" font-size="7.00">threadsavedelivery.h</text>
</a>
</g>
</g>
<!-- Node1&#45;&gt;Node2 -->
<g id="edge1" class="edge"><title>Node1&#45;&gt;Node2</title>
<path fill="none" stroke="midnightblue" d="M130.278,-265.349C112.309,-245.747 75.0682,-205.12 55.0043,-183.232"/>
<polygon fill="midnightblue" stroke="midnightblue" points="57.3449,-180.606 48.0076,-175.599 52.1848,-185.336 57.3449,-180.606"/>
</g>
<!-- Node8 -->
<g id="node8" class="node"><title>Node8</title>
<g id="a_node8"><a xlink:href="deliveryconfirm_8h.html" target="_top" xlink:title="deliveryconfirm.h">
<polygon fill="none" stroke="red" points="158.5,-212.5 158.5,-228.5 230.5,-228.5 230.5,-212.5 158.5,-212.5"/>
<text text-anchor="middle" x="194.5" y="-218.9" font-family="Helvetica,sans-Serif" font-size="7.00">deliveryconfirm.h</text>
</a>
</g>
</g>
<!-- Node1&#45;&gt;Node8 -->
<g id="edge11" class="edge"><title>Node1&#45;&gt;Node8</title>
<path fill="none" stroke="midnightblue" d="M151.428,-265.37C159.723,-256.921 171.2,-245.232 180.221,-236.044"/>
<polygon fill="midnightblue" stroke="midnightblue" points="182.866,-238.345 187.374,-228.757 177.871,-233.441 182.866,-238.345"/>
</g>
<!-- Node3 -->
<g id="node3" class="node"><title>Node3</title>
<polygon fill="none" stroke="#bfbfbf" points="81,-106.5 81,-122.5 124,-122.5 124,-106.5 81,-106.5"/>
<text text-anchor="middle" x="102.5" y="-112.9" font-family="Helvetica,sans-Serif" font-size="7.00">QThread</text>
</g>
<!-- Node2&#45;&gt;Node3 -->
<g id="edge2" class="edge"><title>Node2&#45;&gt;Node3</title>
<path fill="none" stroke="midnightblue" d="M49.9818,-159.409C59.3598,-151.568 74.6845,-138.756 86.3656,-128.989"/>
<polygon fill="midnightblue" stroke="midnightblue" points="88.6633,-131.631 94.0902,-122.531 84.1733,-126.26 88.6633,-131.631"/>
</g>
<!-- Node4 -->
<g id="node4" class="node"><title>Node4</title>
<g id="a_node4"><a xlink:href="clms__db_8h.html" target="_top" xlink:title="clms_db.h">
<polygon fill="none" stroke="black" points="139,-53.5 139,-69.5 188,-69.5 188,-53.5 139,-53.5"/>
<text text-anchor="middle" x="163.5" y="-59.9" font-family="Helvetica,sans-Serif" font-size="7.00">clms_db.h</text>
</a>
</g>
</g>
<!-- Node2&#45;&gt;Node4 -->
<g id="edge3" class="edge"><title>Node2&#45;&gt;Node4</title>
<path fill="none" stroke="midnightblue" d="M66.504,-159.455C86.4112,-152.786 113.923,-141.071 132.5,-123 144.925,-110.913 153.297,-92.7809 158.177,-79.5187"/>
<polygon fill="midnightblue" stroke="midnightblue" points="161.587,-80.3577 161.467,-69.7635 154.955,-78.1207 161.587,-80.3577"/>
</g>
<!-- Node5 -->
<g id="node5" class="node"><title>Node5</title>
<g id="a_node5"><a xlink:href="_data_structures_8h.html" target="_top" xlink:title="Definnitions des formats de communications des données entre les classes de l&#39;application LC...">
<polygon fill="none" stroke="red" points="128.5,-0.5 128.5,-16.5 198.5,-16.5 198.5,-0.5 128.5,-0.5"/>
<text text-anchor="middle" x="163.5" y="-6.9" font-family="Helvetica,sans-Serif" font-size="7.00">DataStructures.h</text>
</a>
</g>
</g>
<!-- Node2&#45;&gt;Node5 -->
<g id="edge8" class="edge"><title>Node2&#45;&gt;Node5</title>
<path fill="none" stroke="midnightblue" d="M39.1696,-159.258C33.4198,-139.891 20.6796,-86.1285 44.5,-53 61.3348,-29.5868 92.1347,-18.7457 118.182,-13.7403"/>
<polygon fill="midnightblue" stroke="midnightblue" points="118.981,-17.155 128.26,-12.0398 117.817,-10.2526 118.981,-17.155"/>
</g>
<!-- Node6 -->
<g id="node6" class="node"><title>Node6</title>
<g id="a_node6"><a xlink:href="csqlite__local__db_8h.html" target="_top" xlink:title="csqlite_local_db.h">
<polygon fill="none" stroke="red" points="180.5,-106.5 180.5,-122.5 252.5,-122.5 252.5,-106.5 180.5,-106.5"/>
<text text-anchor="middle" x="216.5" y="-112.9" font-family="Helvetica,sans-Serif" font-size="7.00">csqlite_local_db.h</text>
</a>
</g>
</g>
<!-- Node2&#45;&gt;Node6 -->
<g id="edge5" class="edge"><title>Node2&#45;&gt;Node6</title>
<path fill="none" stroke="midnightblue" d="M65.833,-159.409C96.1328,-150.578 148.071,-135.442 182.347,-125.453"/>
<polygon fill="midnightblue" stroke="midnightblue" points="183.752,-128.689 192.374,-122.531 181.794,-121.969 183.752,-128.689"/>
</g>
<!-- Node7 -->
<g id="node7" class="node"><title>Node7</title>
<g id="a_node7"><a xlink:href="customxml_8h.html" target="_top" xlink:title="customxml.h">
<polygon fill="none" stroke="red" points="54,-53.5 54,-69.5 111,-69.5 111,-53.5 54,-53.5"/>
<text text-anchor="middle" x="82.5" y="-59.9" font-family="Helvetica,sans-Serif" font-size="7.00">customxml.h</text>
</a>
</g>
</g>
<!-- Node2&#45;&gt;Node7 -->
<g id="edge9" class="edge"><title>Node2&#45;&gt;Node7</title>
<path fill="none" stroke="midnightblue" d="M44.3181,-159.352C50.7841,-142.95 66.8277,-102.254 75.9271,-79.1727"/>
<polygon fill="midnightblue" stroke="midnightblue" points="79.2506,-80.2852 79.6622,-69.6984 72.7384,-77.7179 79.2506,-80.2852"/>
</g>
<!-- Node4&#45;&gt;Node5 -->
<g id="edge4" class="edge"><title>Node4&#45;&gt;Node5</title>
<path fill="none" stroke="midnightblue" d="M163.5,-53.4087C163.5,-46.5576 163.5,-35.9106 163.5,-26.8167"/>
<polygon fill="midnightblue" stroke="midnightblue" points="167,-26.5311 163.5,-16.5311 160,-26.5311 167,-26.5311"/>
</g>
<!-- Node6&#45;&gt;Node4 -->
<g id="edge7" class="edge"><title>Node6&#45;&gt;Node4</title>
<path fill="none" stroke="midnightblue" d="M209.131,-106.409C201.141,-98.7203 188.183,-86.2513 178.113,-76.5617"/>
<polygon fill="midnightblue" stroke="midnightblue" points="180.439,-73.9429 170.807,-69.5311 175.586,-78.9869 180.439,-73.9429"/>
</g>
<!-- Node6&#45;&gt;Node5 -->
<g id="edge6" class="edge"><title>Node6&#45;&gt;Node5</title>
<path fill="none" stroke="midnightblue" d="M214.98,-106.488C212.295,-94.897 206.077,-71.2116 196.5,-53 191.121,-42.7721 183.382,-32.421 176.75,-24.3834"/>
<polygon fill="midnightblue" stroke="midnightblue" points="179.318,-22.0004 170.153,-16.6849 174.002,-26.5556 179.318,-22.0004"/>
</g>
<!-- Node7&#45;&gt;Node5 -->
<g id="edge10" class="edge"><title>Node7&#45;&gt;Node5</title>
<path fill="none" stroke="midnightblue" d="M93.7627,-53.4087C106.699,-45.2635 128.157,-31.7529 143.86,-21.8658"/>
<polygon fill="midnightblue" stroke="midnightblue" points="145.735,-24.8211 152.333,-16.5311 142.006,-18.8975 145.735,-24.8211"/>
</g>
<!-- Node8&#45;&gt;Node2 -->
<g id="edge17" class="edge"><title>Node8&#45;&gt;Node2</title>
<path fill="none" stroke="midnightblue" d="M173.226,-212.409C146.964,-203.655 102.108,-188.703 72.138,-178.713"/>
<polygon fill="midnightblue" stroke="midnightblue" points="73.187,-175.373 62.5933,-175.531 70.9733,-182.014 73.187,-175.373"/>
</g>
<!-- Node8&#45;&gt;Node4 -->
<g id="edge15" class="edge"><title>Node8&#45;&gt;Node4</title>
<path fill="none" stroke="midnightblue" d="M208.808,-212.233C221.767,-204.885 240.339,-192.297 250.5,-176 267.162,-149.276 278.667,-132.402 261.5,-106 247.509,-84.4822 220.16,-73.5244 197.901,-67.9936"/>
<polygon fill="midnightblue" stroke="midnightblue" points="198.619,-64.5679 188.098,-65.8158 197.101,-71.4013 198.619,-64.5679"/>
</g>
<!-- Node8&#45;&gt;Node5 -->
<g id="edge16" class="edge"><title>Node8&#45;&gt;Node5</title>
<path fill="none" stroke="midnightblue" d="M216.76,-212.381C233.886,-205.724 256.718,-194.062 269.5,-176 287.654,-150.347 292.842,-134.454 279.5,-106 260.697,-65.9 216.137,-36.677 188.041,-21.4538"/>
<polygon fill="midnightblue" stroke="midnightblue" points="189.343,-18.1853 178.859,-16.6582 186.102,-24.3901 189.343,-18.1853"/>
</g>
<!-- Node8&#45;&gt;Node6 -->
<g id="edge14" class="edge"><title>Node8&#45;&gt;Node6</title>
<path fill="none" stroke="midnightblue" d="M204.277,-212.476C214.048,-204.792 228.463,-191.485 234.5,-176 240.279,-161.176 233.714,-143.707 226.947,-131.361"/>
<polygon fill="midnightblue" stroke="midnightblue" points="229.881,-129.45 221.709,-122.707 223.892,-133.074 229.881,-129.45"/>
</g>
<!-- Node9 -->
<g id="node9" class="node"><title>Node9</title>
<polygon fill="none" stroke="#bfbfbf" points="101.5,-159.5 101.5,-175.5 145.5,-175.5 145.5,-159.5 101.5,-159.5"/>
<text text-anchor="middle" x="123.5" y="-165.9" font-family="Helvetica,sans-Serif" font-size="7.00">QWidget</text>
</g>
<!-- Node8&#45;&gt;Node9 -->
<g id="edge12" class="edge"><title>Node8&#45;&gt;Node9</title>
<path fill="none" stroke="midnightblue" d="M184.628,-212.409C173.5,-204.416 155.18,-191.256 141.492,-181.424"/>
<polygon fill="midnightblue" stroke="midnightblue" points="143.452,-178.522 133.288,-175.531 139.368,-184.208 143.452,-178.522"/>
</g>
<!-- Node10 -->
<g id="node10" class="node"><title>Node10</title>
<g id="a_node10"><a xlink:href="showwidgets_8h.html" target="_top" xlink:title="showwidgets.h">
<polygon fill="none" stroke="red" points="163.5,-159.5 163.5,-175.5 225.5,-175.5 225.5,-159.5 163.5,-159.5"/>
<text text-anchor="middle" x="194.5" y="-165.9" font-family="Helvetica,sans-Serif" font-size="7.00">showwidgets.h</text>
</a>
</g>
</g>
<!-- Node8&#45;&gt;Node10 -->
<g id="edge13" class="edge"><title>Node8&#45;&gt;Node10</title>
<path fill="none" stroke="midnightblue" d="M194.5,-212.409C194.5,-205.558 194.5,-194.911 194.5,-185.817"/>
<polygon fill="midnightblue" stroke="midnightblue" points="198,-185.531 194.5,-175.531 191,-185.531 198,-185.531"/>
</g>
</g>
</svg>
