<?xml version="1.0" encoding="UTF-8" standalone="no"?>
<!DOCTYPE svg PUBLIC "-//W3C//DTD SVG 1.1//EN"
 "http://www.w3.org/Graphics/SVG/1.1/DTD/svg11.dtd">
<!-- Generated by graphviz version 2.38.0 (20140413.2041)
 -->
<!-- Title: S:/QT_CREATOR/Locker_Control/thread_localdatabase_autosave.h Pages: 1 -->
<svg width="458pt" height="306pt"
 viewBox="0.00 0.00 458.00 306.00" xmlns="http://www.w3.org/2000/svg" xmlns:xlink="http://www.w3.org/1999/xlink">
<g id="graph0" class="graph" transform="scale(1 1) rotate(0) translate(4 302)">
<title>S:/QT_CREATOR/Locker_Control/thread_localdatabase_autosave.h</title>
<!-- Node1 -->
<g id="node1" class="node"><title>Node1</title>
<polygon fill="#bfbfbf" stroke="black" points="20.5,-265.5 20.5,-297.5 131.5,-297.5 131.5,-265.5 20.5,-265.5"/>
<text text-anchor="start" x="28.5" y="-287.9" font-family="Helvetica,sans-Serif" font-size="7.00">S:/QT_CREATOR/Locker</text>
<text text-anchor="start" x="28.5" y="-279.9" font-family="Helvetica,sans-Serif" font-size="7.00">_Control/thread_localdatabase</text>
<text text-anchor="middle" x="76" y="-271.9" font-family="Helvetica,sans-Serif" font-size="7.00">_autosave.h</text>
</g>
<!-- Node2 -->
<g id="node2" class="node"><title>Node2</title>
<polygon fill="none" stroke="#bfbfbf" points="56,-0.5 56,-16.5 98,-16.5 98,-0.5 56,-0.5"/>
<text text-anchor="middle" x="77" y="-6.9" font-family="Helvetica,sans-Serif" font-size="7.00">QObject</text>
</g>
<!-- Node1&#45;&gt;Node2 -->
<g id="edge1" class="edge"><title>Node1&#45;&gt;Node2</title>
<path fill="none" stroke="midnightblue" d="M56.822,-265.292C34.3076,-245.583 0,-208.917 0,-168.5 0,-168.5 0,-168.5 0,-113.5 0,-74.4553 35.4891,-40.4917 58.2806,-22.7058"/>
<polygon fill="midnightblue" stroke="midnightblue" points="60.3877,-25.5005 66.2935,-16.7044 56.1913,-19.8977 60.3877,-25.5005"/>
</g>
<!-- Node3 -->
<g id="node3" class="node"><title>Node3</title>
<polygon fill="none" stroke="#bfbfbf" points="75.5,-106.5 75.5,-122.5 118.5,-122.5 118.5,-106.5 75.5,-106.5"/>
<text text-anchor="middle" x="97" y="-112.9" font-family="Helvetica,sans-Serif" font-size="7.00">QThread</text>
</g>
<!-- Node1&#45;&gt;Node3 -->
<g id="edge2" class="edge"><title>Node1&#45;&gt;Node3</title>
<path fill="none" stroke="midnightblue" d="M77.938,-265.273C81.8447,-234.578 90.6442,-165.439 94.7769,-132.968"/>
<polygon fill="midnightblue" stroke="midnightblue" points="98.2799,-133.165 96.0706,-122.803 91.3359,-132.281 98.2799,-133.165"/>
</g>
<!-- Node4 -->
<g id="node4" class="node"><title>Node4</title>
<g id="a_node4"><a xlink:href="sqlite__local__databasemanager_8h.html" target="_top" xlink:title="sqlite_local_databasemanager.h">
<polygon fill="none" stroke="black" points="201,-212.5 201,-228.5 317,-228.5 317,-212.5 201,-212.5"/>
<text text-anchor="middle" x="259" y="-218.9" font-family="Helvetica,sans-Serif" font-size="7.00">sqlite_local_databasemanager.h</text>
</a>
</g>
</g>
<!-- Node1&#45;&gt;Node4 -->
<g id="edge3" class="edge"><title>Node1&#45;&gt;Node4</title>
<path fill="none" stroke="midnightblue" d="M116.682,-265.459C148.448,-254.815 192.06,-240.835 222.675,-231.528"/>
<polygon fill="midnightblue" stroke="midnightblue" points="223.957,-234.797 232.524,-228.563 221.939,-228.095 223.957,-234.797"/>
</g>
<!-- Node8 -->
<g id="node8" class="node"><title>Node8</title>
<g id="a_node8"><a xlink:href="csqlite__local__db_8h.html" target="_top" xlink:title="csqlite_local_db.h">
<polygon fill="none" stroke="red" points="119,-53.5 119,-69.5 191,-69.5 191,-53.5 119,-53.5"/>
<text text-anchor="middle" x="155" y="-59.9" font-family="Helvetica,sans-Serif" font-size="7.00">csqlite_local_db.h</text>
</a>
</g>
</g>
<!-- Node1&#45;&gt;Node8 -->
<g id="edge20" class="edge"><title>Node1&#45;&gt;Node8</title>
<path fill="none" stroke="midnightblue" d="M69.6069,-265.046C57.3298,-232.709 34.3429,-156.709 66,-106 76.2204,-89.6287 94.5823,-79.2516 111.984,-72.7592"/>
<polygon fill="midnightblue" stroke="midnightblue" points="113.146,-76.0611 121.495,-69.5387 110.901,-69.4309 113.146,-76.0611"/>
</g>
<!-- Node4&#45;&gt;Node1 -->
<g id="edge18" class="edge"><title>Node4&#45;&gt;Node1</title>
<path fill="none" stroke="midnightblue" d="M241.441,-228.641C217.695,-236.979 174.519,-251.08 138.181,-262.475"/>
<polygon fill="midnightblue" stroke="midnightblue" points="137.125,-259.138 128.623,-265.459 139.211,-265.82 137.125,-259.138"/>
</g>
<!-- Node5 -->
<g id="node5" class="node"><title>Node5</title>
<polygon fill="none" stroke="#bfbfbf" points="262,-159.5 262,-175.5 306,-175.5 306,-159.5 262,-159.5"/>
<text text-anchor="middle" x="284" y="-165.9" font-family="Helvetica,sans-Serif" font-size="7.00">QWidget</text>
</g>
<!-- Node4&#45;&gt;Node5 -->
<g id="edge4" class="edge"><title>Node4&#45;&gt;Node5</title>
<path fill="none" stroke="midnightblue" d="M262.476,-212.409C265.984,-205.253 271.521,-193.957 276.101,-184.614"/>
<polygon fill="midnightblue" stroke="midnightblue" points="279.294,-186.051 280.553,-175.531 273.009,-182.97 279.294,-186.051"/>
</g>
<!-- Node6 -->
<g id="node6" class="node"><title>Node6</title>
<polygon fill="none" stroke="#bfbfbf" points="314.5,-53.5 314.5,-69.5 353.5,-69.5 353.5,-53.5 314.5,-53.5"/>
<text text-anchor="middle" x="334" y="-59.9" font-family="Helvetica,sans-Serif" font-size="7.00">QTimer</text>
</g>
<!-- Node4&#45;&gt;Node6 -->
<g id="edge5" class="edge"><title>Node4&#45;&gt;Node6</title>
<path fill="none" stroke="midnightblue" d="M280.23,-212.375C298.405,-205.415 324.358,-193.328 342,-176 361.156,-157.184 364.348,-149.014 371,-123 372.872,-115.68 373.608,-113.091 371,-106 366.842,-94.6942 358.297,-84.3216 350.465,-76.5429"/>
<polygon fill="midnightblue" stroke="midnightblue" points="352.777,-73.9137 343.06,-69.6905 348.022,-79.0514 352.777,-73.9137"/>
</g>
<!-- Node7 -->
<g id="node7" class="node"><title>Node7</title>
<g id="a_node7"><a xlink:href="showwidgets_8h.html" target="_top" xlink:title="showwidgets.h">
<polygon fill="none" stroke="red" points="388,-53.5 388,-69.5 450,-69.5 450,-53.5 388,-53.5"/>
<text text-anchor="middle" x="419" y="-59.9" font-family="Helvetica,sans-Serif" font-size="7.00">showwidgets.h</text>
</a>
</g>
</g>
<!-- Node4&#45;&gt;Node7 -->
<g id="edge6" class="edge"><title>Node4&#45;&gt;Node7</title>
<path fill="none" stroke="midnightblue" d="M291.76,-212.475C314.385,-206.187 343.904,-194.954 364,-176 392.603,-149.023 408.14,-104.05 414.868,-79.5985"/>
<polygon fill="midnightblue" stroke="midnightblue" points="418.318,-80.2351 417.419,-69.6785 411.539,-78.4918 418.318,-80.2351"/>
</g>
<!-- Node4&#45;&gt;Node8 -->
<g id="edge7" class="edge"><title>Node4&#45;&gt;Node8</title>
<path fill="none" stroke="midnightblue" d="M254.261,-212.346C238.492,-188.541 187.54,-111.622 165.415,-78.222"/>
<polygon fill="midnightblue" stroke="midnightblue" points="168.207,-76.0999 159.767,-69.696 162.371,-79.9657 168.207,-76.0999"/>
</g>
<!-- Node9 -->
<g id="node9" class="node"><title>Node9</title>
<g id="a_node9"><a xlink:href="thread__databasemanager_8h.html" target="_top" xlink:title="thread_databasemanager.h">
<polygon fill="none" stroke="red" points="104.5,-159.5 104.5,-175.5 205.5,-175.5 205.5,-159.5 104.5,-159.5"/>
<text text-anchor="middle" x="155" y="-165.9" font-family="Helvetica,sans-Serif" font-size="7.00">thread_databasemanager.h</text>
</a>
</g>
</g>
<!-- Node4&#45;&gt;Node9 -->
<g id="edge9" class="edge"><title>Node4&#45;&gt;Node9</title>
<path fill="none" stroke="midnightblue" d="M239.694,-212.409C220.607,-204.111 192.014,-190.246 173.295,-180.315"/>
<polygon fill="midnightblue" stroke="midnightblue" points="174.965,-177.239 164.509,-175.531 171.618,-183.387 174.965,-177.239"/>
</g>
<!-- Node10 -->
<g id="node10" class="node"><title>Node10</title>
<g id="a_node10"><a xlink:href="consolewindows_8h.html" target="_top" xlink:title="consolewindows.h">
<polygon fill="none" stroke="red" points="290,-106.5 290,-122.5 362,-122.5 362,-106.5 290,-106.5"/>
<text text-anchor="middle" x="326" y="-112.9" font-family="Helvetica,sans-Serif" font-size="7.00">consolewindows.h</text>
</a>
</g>
</g>
<!-- Node4&#45;&gt;Node10 -->
<g id="edge19" class="edge"><title>Node4&#45;&gt;Node10</title>
<path fill="none" stroke="midnightblue" d="M266.437,-212.29C277.425,-204.982 296.042,-192.421 306,-176 313.963,-162.868 316.45,-145.39 318.698,-132.597"/>
<polygon fill="midnightblue" stroke="midnightblue" points="322.129,-133.292 320.744,-122.788 315.276,-131.863 322.129,-133.292"/>
</g>
<!-- Node8&#45;&gt;Node2 -->
<g id="edge8" class="edge"><title>Node8&#45;&gt;Node2</title>
<path fill="none" stroke="midnightblue" d="M144.154,-53.4087C131.814,-45.3397 111.419,-32.005 96.3378,-22.144"/>
<polygon fill="midnightblue" stroke="midnightblue" points="98.0386,-19.0742 87.7535,-16.5311 94.2078,-24.933 98.0386,-19.0742"/>
</g>
<!-- Node9&#45;&gt;Node3 -->
<g id="edge10" class="edge"><title>Node9&#45;&gt;Node3</title>
<path fill="none" stroke="midnightblue" d="M146.935,-159.409C138.105,-151.644 123.73,-139.004 112.665,-129.275"/>
<polygon fill="midnightblue" stroke="midnightblue" points="114.817,-126.506 104.996,-122.531 110.195,-131.763 114.817,-126.506"/>
</g>
<!-- Node9&#45;&gt;Node4 -->
<g id="edge12" class="edge"><title>Node9&#45;&gt;Node4</title>
<path fill="none" stroke="midnightblue" d="M174.167,-175.531C193.209,-183.801 221.802,-197.663 240.569,-207.612"/>
<polygon fill="midnightblue" stroke="midnightblue" points="238.927,-210.704 249.384,-212.409 242.273,-204.555 238.927,-210.704"/>
</g>
<!-- Node9&#45;&gt;Node8 -->
<g id="edge11" class="edge"><title>Node9&#45;&gt;Node8</title>
<path fill="none" stroke="midnightblue" d="M155,-159.352C155,-143.098 155,-102.989 155,-79.8037"/>
<polygon fill="midnightblue" stroke="midnightblue" points="158.5,-79.6983 155,-69.6984 151.5,-79.6984 158.5,-79.6983"/>
</g>
<!-- Node9&#45;&gt;Node10 -->
<g id="edge13" class="edge"><title>Node9&#45;&gt;Node10</title>
<path fill="none" stroke="midnightblue" d="M178.777,-159.409C208.384,-150.578 259.135,-135.442 292.628,-125.453"/>
<polygon fill="midnightblue" stroke="midnightblue" points="293.843,-128.743 302.425,-122.531 291.842,-122.035 293.843,-128.743"/>
</g>
<!-- Node10&#45;&gt;Node4 -->
<g id="edge17" class="edge"><title>Node10&#45;&gt;Node4</title>
<path fill="none" stroke="midnightblue" d="M331.84,-122.788C335.437,-134.777 334.296,-159.021 324,-176 315.936,-189.299 302.192,-200.066 289.258,-207.561"/>
<polygon fill="midnightblue" stroke="midnightblue" points="287.27,-204.653 280.075,-212.43 290.549,-210.838 287.27,-204.653"/>
</g>
<!-- Node10&#45;&gt;Node6 -->
<g id="edge14" class="edge"><title>Node10&#45;&gt;Node6</title>
<path fill="none" stroke="midnightblue" d="M327.112,-106.409C328.199,-99.4815 329.894,-88.6735 331.331,-79.5142"/>
<polygon fill="midnightblue" stroke="midnightblue" points="334.805,-79.9527 332.897,-69.5311 327.89,-78.8679 334.805,-79.9527"/>
</g>
<!-- Node10&#45;&gt;Node7 -->
<g id="edge15" class="edge"><title>Node10&#45;&gt;Node7</title>
<path fill="none" stroke="midnightblue" d="M338.931,-106.409C353.923,-98.1874 378.882,-84.4999 396.954,-74.5896"/>
<polygon fill="midnightblue" stroke="midnightblue" points="399.093,-77.4083 406.179,-69.5311 395.728,-71.2706 399.093,-77.4083"/>
</g>
<!-- Node10&#45;&gt;Node8 -->
<g id="edge16" class="edge"><title>Node10&#45;&gt;Node8</title>
<path fill="none" stroke="midnightblue" d="M302.223,-106.409C272.616,-97.5784 221.865,-82.4422 188.372,-72.4532"/>
<polygon fill="midnightblue" stroke="midnightblue" points="189.158,-69.0352 178.575,-69.5311 187.157,-75.7432 189.158,-69.0352"/>
</g>
</g>
</svg>
