<?xml version="1.0" encoding="UTF-8" standalone="no"?>
<!DOCTYPE svg PUBLIC "-//W3C//DTD SVG 1.1//EN"
 "http://www.w3.org/Graphics/SVG/1.1/DTD/svg11.dtd">
<!-- Generated by graphviz version 2.38.0 (20140413.2041)
 -->
<!-- Title: S:/QT_CREATOR/Locker_Control/threaddeleteextractcode.cpp Pages: 1 -->
<!--zoomable 192 -->
<svg id="main" version="1.1" xmlns="http://www.w3.org/2000/svg" xmlns:xlink="http://www.w3.org/1999/xlink" xml:space="preserve" onload="init(evt)">
<style type="text/css"><![CDATA[
.edge:hover path { stroke: red; }
.edge:hover polygon { stroke: red; fill: red; }
]]></style>
<script type="text/javascript"><![CDATA[
var edges = document.getElementsByTagName('g');
if (edges && edges.length) {
  for (var i=0;i<edges.length;i++) {
    if (edges[i].id.substr(0,4)=='edge') {
      edges[i].setAttribute('class','edge');
    }
  }
}
]]></script>
        <defs>
                <circle id="rim" cx="0" cy="0" r="7"/>
                <circle id="rim2" cx="0" cy="0" r="3.5"/>
                <g id="zoomPlus">
                        <use xlink:href="#rim" fill="#404040">
                                <set attributeName="fill" to="#808080" begin="zoomplus.mouseover" end="zoomplus.mouseout"/>
                        </use>
                        <path d="M-4,0h8M0,-4v8" fill="none" stroke="white" stroke-width="1.5" pointer-events="none"/>
                </g>
                <g id="zoomMin">
                        <use xlink:href="#rim" fill="#404040">
                                <set attributeName="fill" to="#808080" begin="zoomminus.mouseover" end="zoomminus.mouseout"/>
                        </use>
                        <path d="M-4,0h8" fill="none" stroke="white" stroke-width="1.5" pointer-events="none"/>
                </g>
                <g id="dirArrow">
                        <path fill="none" stroke="white" stroke-width="1.5" d="M0,-3.0v7 M-2.5,-0.5L0,-3.0L2.5,-0.5"/>
                </g>
               <g id="resetDef">
                       <use xlink:href="#rim2" fill="#404040">
                               <set attributeName="fill" to="#808080" begin="reset.mouseover" end="reset.mouseout"/>
                       </use>
               </g>
        </defs>

<script type="text/javascript">
var viewWidth = 542;
var viewHeight = 192;
var sectionId = 'dynsection-0';
</script>
<script xlink:href="svgpan.js"/>
<svg id="graph" class="graph">
<g id="viewport">
<title>S:/QT_CREATOR/Locker_Control/threaddeleteextractcode.cpp</title>
<!-- Node1 -->
<g id="node1" class="node"><title>Node1</title>
<polygon fill="#bfbfbf" stroke="black" points="283,-159.5 283,-183.5 417,-183.5 417,-159.5 283,-159.5"/>
<text text-anchor="start" x="291" y="-173.9" font-family="Helvetica,sans-Serif" font-size="7.00">S:/QT_CREATOR/Locker</text>
<text text-anchor="middle" x="350" y="-165.9" font-family="Helvetica,sans-Serif" font-size="7.00">_Control/threaddeleteextractcode.cpp</text>
</g>
<!-- Node2 -->
<g id="node2" class="node"><title>Node2</title>
<g id="a_node2"><a xlink:href="threaddeleteextractcode_8h.html" target="_top" xlink:title="threaddeleteextractcode.h">
<polygon fill="none" stroke="black" points="436,-53.5 436,-69.5 534,-69.5 534,-53.5 436,-53.5"/>
<text text-anchor="middle" x="485" y="-59.9" font-family="Helvetica,sans-Serif" font-size="7.00">threaddeleteextractcode.h</text>
</a>
</g>
</g>
<!-- Node1&#45;&gt;Node2 -->
<g id="edge1" class="edge"><title>Node1&#45;&gt;Node2</title>
<path fill="none" stroke="midnightblue" d="M363.939,-159.349C388.875,-139.4 441.031,-97.6751 468.015,-76.0877"/>
<polygon fill="midnightblue" stroke="midnightblue" points="470.504,-78.5793 476.126,-69.5992 466.131,-73.1132 470.504,-78.5793"/>
</g>
<!-- Node5 -->
<g id="node5" class="node"><title>Node5</title>
<g id="a_node5"><a xlink:href="showpackagebox_8h.html" target="_top" xlink:title="showpackagebox.h">
<polygon fill="none" stroke="red" points="234,-106.5 234,-122.5 310,-122.5 310,-106.5 234,-106.5"/>
<text text-anchor="middle" x="272" y="-112.9" font-family="Helvetica,sans-Serif" font-size="7.00">showpackagebox.h</text>
</a>
</g>
</g>
<!-- Node1&#45;&gt;Node5 -->
<g id="edge4" class="edge"><title>Node1&#45;&gt;Node5</title>
<path fill="none" stroke="midnightblue" d="M334.216,-159.37C321.629,-150.495 303.97,-138.043 290.679,-128.671"/>
<polygon fill="midnightblue" stroke="midnightblue" points="292.482,-125.66 282.292,-122.757 288.448,-131.381 292.482,-125.66"/>
</g>
<!-- Node3 -->
<g id="node3" class="node"><title>Node3</title>
<polygon fill="none" stroke="#bfbfbf" points="437.5,-0.5 437.5,-16.5 480.5,-16.5 480.5,-0.5 437.5,-0.5"/>
<text text-anchor="middle" x="459" y="-6.9" font-family="Helvetica,sans-Serif" font-size="7.00">QThread</text>
</g>
<!-- Node2&#45;&gt;Node3 -->
<g id="edge2" class="edge"><title>Node2&#45;&gt;Node3</title>
<path fill="none" stroke="midnightblue" d="M481.385,-53.4087C477.737,-46.2531 471.978,-34.9567 467.215,-25.6139"/>
<polygon fill="midnightblue" stroke="midnightblue" points="470.245,-23.8505 462.584,-16.5311 464.008,-27.0299 470.245,-23.8505"/>
</g>
<!-- Node4 -->
<g id="node4" class="node"><title>Node4</title>
<g id="a_node4"><a xlink:href="csqlite__local__db_8h.html" target="_top" xlink:title="csqlite_local_db.h">
<polygon fill="none" stroke="red" points="321,-0.5 321,-16.5 393,-16.5 393,-0.5 321,-0.5"/>
<text text-anchor="middle" x="357" y="-6.9" font-family="Helvetica,sans-Serif" font-size="7.00">csqlite_local_db.h</text>
</a>
</g>
</g>
<!-- Node2&#45;&gt;Node4 -->
<g id="edge3" class="edge"><title>Node2&#45;&gt;Node4</title>
<path fill="none" stroke="midnightblue" d="M467.202,-53.4087C445.613,-44.8068 409.005,-30.2209 383.951,-20.2383"/>
<polygon fill="midnightblue" stroke="midnightblue" points="385.232,-16.9811 374.647,-16.5311 382.641,-23.484 385.232,-16.9811"/>
</g>
<!-- Node5&#45;&gt;Node2 -->
<g id="edge9" class="edge"><title>Node5&#45;&gt;Node2</title>
<path fill="none" stroke="midnightblue" d="M301.617,-106.409C339.211,-97.4072 404.174,-81.8526 445.834,-71.8778"/>
<polygon fill="midnightblue" stroke="midnightblue" points="446.725,-75.2635 455.635,-69.5311 445.095,-68.4559 446.725,-75.2635"/>
</g>
<!-- Node5&#45;&gt;Node4 -->
<g id="edge8" class="edge"><title>Node5&#45;&gt;Node4</title>
<path fill="none" stroke="midnightblue" d="M277.842,-106.352C291.551,-89.579 326.024,-47.4002 344.631,-24.6337"/>
<polygon fill="midnightblue" stroke="midnightblue" points="347.498,-26.6562 351.117,-16.6984 342.078,-22.2263 347.498,-26.6562"/>
</g>
<!-- Node6 -->
<g id="node6" class="node"><title>Node6</title>
<polygon fill="none" stroke="#bfbfbf" points="0,-53.5 0,-69.5 44,-69.5 44,-53.5 0,-53.5"/>
<text text-anchor="middle" x="22" y="-59.9" font-family="Helvetica,sans-Serif" font-size="7.00">QWidget</text>
</g>
<!-- Node5&#45;&gt;Node6 -->
<g id="edge5" class="edge"><title>Node5&#45;&gt;Node6</title>
<path fill="none" stroke="midnightblue" d="M233.92,-106.43C192.206,-98.5767 123.086,-85.2448 54.4459,-70.2429"/>
<polygon fill="midnightblue" stroke="midnightblue" points="54.8438,-66.7469 44.3255,-68.0179 53.3407,-73.5836 54.8438,-66.7469"/>
</g>
<!-- Node7 -->
<g id="node7" class="node"><title>Node7</title>
<polygon fill="none" stroke="#bfbfbf" points="62.5,-53.5 62.5,-69.5 101.5,-69.5 101.5,-53.5 62.5,-53.5"/>
<text text-anchor="middle" x="82" y="-59.9" font-family="Helvetica,sans-Serif" font-size="7.00">QTimer</text>
</g>
<!-- Node5&#45;&gt;Node7 -->
<g id="edge6" class="edge"><title>Node5&#45;&gt;Node7</title>
<path fill="none" stroke="midnightblue" d="M245.581,-106.409C210.408,-96.9674 148.378,-80.3173 111.645,-70.4574"/>
<polygon fill="midnightblue" stroke="midnightblue" points="112.122,-66.9616 101.557,-67.7494 110.307,-73.7223 112.122,-66.9616"/>
</g>
<!-- Node8 -->
<g id="node8" class="node"><title>Node8</title>
<g id="a_node8"><a xlink:href="showwidgets_8h.html" target="_top" xlink:title="showwidgets.h">
<polygon fill="none" stroke="red" points="120,-53.5 120,-69.5 182,-69.5 182,-53.5 120,-53.5"/>
<text text-anchor="middle" x="151" y="-59.9" font-family="Helvetica,sans-Serif" font-size="7.00">showwidgets.h</text>
</a>
</g>
</g>
<!-- Node5&#45;&gt;Node8 -->
<g id="edge7" class="edge"><title>Node5&#45;&gt;Node8</title>
<path fill="none" stroke="midnightblue" d="M255.175,-106.409C234.948,-97.8829 200.773,-83.4786 177.109,-73.5044"/>
<polygon fill="midnightblue" stroke="midnightblue" points="178.256,-70.1899 167.682,-69.5311 175.537,-76.6404 178.256,-70.1899"/>
</g>
<!-- Node9 -->
<g id="node9" class="node"><title>Node9</title>
<g id="a_node9"><a xlink:href="thread__statusdoors_8h.html" target="_top" xlink:title="thread_statusdoors.h">
<polygon fill="none" stroke="red" points="334.5,-53.5 334.5,-69.5 417.5,-69.5 417.5,-53.5 334.5,-53.5"/>
<text text-anchor="middle" x="376" y="-59.9" font-family="Helvetica,sans-Serif" font-size="7.00">thread_statusdoors.h</text>
</a>
</g>
</g>
<!-- Node5&#45;&gt;Node9 -->
<g id="edge10" class="edge"><title>Node5&#45;&gt;Node9</title>
<path fill="none" stroke="midnightblue" d="M286.461,-106.409C303.536,-98.0352 332.175,-83.9911 352.461,-74.0429"/>
<polygon fill="midnightblue" stroke="midnightblue" points="354.225,-77.0766 361.662,-69.5311 351.142,-70.7916 354.225,-77.0766"/>
</g>
<!-- Node10 -->
<g id="node10" class="node"><title>Node10</title>
<g id="a_node10"><a xlink:href="customtreewidget_8h.html" target="_top" xlink:title="customtreewidget.h">
<polygon fill="none" stroke="red" points="200.5,-53.5 200.5,-69.5 277.5,-69.5 277.5,-53.5 200.5,-53.5"/>
<text text-anchor="middle" x="239" y="-59.9" font-family="Helvetica,sans-Serif" font-size="7.00">customtreewidget.h</text>
</a>
</g>
</g>
<!-- Node5&#45;&gt;Node10 -->
<g id="edge12" class="edge"><title>Node5&#45;&gt;Node10</title>
<path fill="none" stroke="midnightblue" d="M267.411,-106.409C262.683,-99.1009 255.16,-87.4741 249.043,-78.0202"/>
<polygon fill="midnightblue" stroke="midnightblue" points="251.921,-76.0254 243.55,-69.5311 246.044,-79.8282 251.921,-76.0254"/>
</g>
<!-- Node9&#45;&gt;Node3 -->
<g id="edge11" class="edge"><title>Node9&#45;&gt;Node3</title>
<path fill="none" stroke="midnightblue" d="M387.541,-53.4087C400.797,-45.2635 422.784,-31.7529 438.875,-21.8658"/>
<polygon fill="midnightblue" stroke="midnightblue" points="440.869,-24.7484 447.557,-16.5311 437.205,-18.7844 440.869,-24.7484"/>
</g>
</g>
</svg>
        <g id="navigator" transform="translate(0 0)" fill="#404254">
                <rect fill="#f2f5e9" fill-opacity="0.5" stroke="#606060" stroke-width=".5" x="0" y="0" width="60" height="60"/>
                <use id="zoomplus" xlink:href="#zoomPlus" x="17" y="9" onmousedown="handleZoom(evt,'in')"/>
                <use id="zoomminus" xlink:href="#zoomMin" x="42" y="9" onmousedown="handleZoom(evt,'out')"/>
                <use id="reset" xlink:href="#resetDef" x="30" y="36" onmousedown="handleReset()"/>
                <g id="arrowUp" xlink:href="#dirArrow" transform="translate(30 24)" onmousedown="handlePan(0,-1)">
                  <use xlink:href="#rim" fill="#404040">
                        <set attributeName="fill" to="#808080" begin="arrowUp.mouseover" end="arrowUp.mouseout"/>
                  </use>
                  <path fill="none" stroke="white" stroke-width="1.5" d="M0,-3.0v7 M-2.5,-0.5L0,-3.0L2.5,-0.5"/>
                </g>
                <g id="arrowRight" xlink:href="#dirArrow" transform="rotate(90) translate(36 -43)" onmousedown="handlePan(1,0)">
                  <use xlink:href="#rim" fill="#404040">
                        <set attributeName="fill" to="#808080" begin="arrowRight.mouseover" end="arrowRight.mouseout"/>
                  </use>
                  <path fill="none" stroke="white" stroke-width="1.5" d="M0,-3.0v7 M-2.5,-0.5L0,-3.0L2.5,-0.5"/>
                </g>
                <g id="arrowDown" xlink:href="#dirArrow" transform="rotate(180) translate(-30 -48)" onmousedown="handlePan(0,1)">
                  <use xlink:href="#rim" fill="#404040">
                        <set attributeName="fill" to="#808080" begin="arrowDown.mouseover" end="arrowDown.mouseout"/>
                  </use>
                  <path fill="none" stroke="white" stroke-width="1.5" d="M0,-3.0v7 M-2.5,-0.5L0,-3.0L2.5,-0.5"/>
                </g>
                <g id="arrowLeft" xlink:href="#dirArrow" transform="rotate(270) translate(-36 17)" onmousedown="handlePan(-1,0)">
                  <use xlink:href="#rim" fill="#404040">
                        <set attributeName="fill" to="#808080" begin="arrowLeft.mouseover" end="arrowLeft.mouseout"/>
                  </use>
                  <path fill="none" stroke="white" stroke-width="1.5" d="M0,-3.0v7 M-2.5,-0.5L0,-3.0L2.5,-0.5"/>
                </g>
        </g>
        <svg viewBox="0 0 15 15" width="100%" height="30px" preserveAspectRatio="xMaxYMin meet">
         <g id="arrow_out" transform="scale(0.3 0.3)">
          <a xlink:href="threaddeleteextractcode_8cpp__incl_org.svg" target="_base">
           <rect id="button" ry="5" rx="5" y="6" x="6" height="38" width="38"
                fill="#f2f5e9" fill-opacity="0.5" stroke="#606060" stroke-width="1.0"/>
           <path id="arrow"
             d="M 11.500037,31.436501 C 11.940474,20.09759 22.043105,11.32322 32.158766,21.979434 L 37.068811,17.246167 C 37.068811,17.246167 37.088388,32 37.088388,32 L 22.160133,31.978069 C 22.160133,31.978069 26.997745,27.140456 26.997745,27.140456 C 18.528582,18.264221 13.291696,25.230495 11.500037,31.436501 z"
             style="fill:#404040;"/>
          </a>
         </g>
        </svg>
</svg>
