<?xml version="1.0" encoding="UTF-8" standalone="no"?>
<!DOCTYPE svg PUBLIC "-//W3C//DTD SVG 1.1//EN"
 "http://www.w3.org/Graphics/SVG/1.1/DTD/svg11.dtd">
<!-- Generated by graphviz version 2.38.0 (20140413.2041)
 -->
<!-- Title: S:/QT_CREATOR/Locker_Control/threaddeleteextractcode.h Pages: 1 -->
<svg width="604pt" height="346pt"
 viewBox="0.00 0.00 604.00 346.00" xmlns="http://www.w3.org/2000/svg" xmlns:xlink="http://www.w3.org/1999/xlink">
<g id="graph0" class="graph" transform="scale(1 1) rotate(0) translate(4 342)">
<title>S:/QT_CREATOR/Locker_Control/threaddeleteextractcode.h</title>
<!-- Node1 -->
<g id="node1" class="node"><title>Node1</title>
<polygon fill="#bfbfbf" stroke="black" points="414,-313.5 414,-337.5 540,-337.5 540,-313.5 414,-313.5"/>
<text text-anchor="start" x="422" y="-327.9" font-family="Helvetica,sans-Serif" font-size="7.00">S:/QT_CREATOR/Locker</text>
<text text-anchor="middle" x="477" y="-319.9" font-family="Helvetica,sans-Serif" font-size="7.00">_Control/threaddeleteextractcode.h</text>
</g>
<!-- Node2 -->
<g id="node2" class="node"><title>Node2</title>
<g id="a_node2"><a xlink:href="showpackagebox_8h.html" target="_top" xlink:title="S:/QT_CREATOR/Locker\l_Control/showpackagebox.h">
<polygon fill="none" stroke="black" points="382,-252.5 382,-276.5 486,-276.5 486,-252.5 382,-252.5"/>
<text text-anchor="start" x="390" y="-266.9" font-family="Helvetica,sans-Serif" font-size="7.00">S:/QT_CREATOR/Locker</text>
<text text-anchor="middle" x="434" y="-258.9" font-family="Helvetica,sans-Serif" font-size="7.00">_Control/showpackagebox.h</text>
</a>
</g>
</g>
<!-- Node1&#45;&gt;Node2 -->
<g id="edge1" class="edge"><title>Node1&#45;&gt;Node2</title>
<path fill="none" stroke="midnightblue" d="M462.977,-305.259C456.045,-295.748 447.928,-284.611 442.052,-276.548"/>
<polygon fill="midnightblue" stroke="midnightblue" points="460.194,-307.383 468.912,-313.403 465.851,-303.26 460.194,-307.383"/>
</g>
<!-- Node10 -->
<g id="node10" class="node"><title>Node10</title>
<g id="a_node10"><a xlink:href="threaddeleteextractcode_8cpp.html" target="_top" xlink:title="S:/QT_CREATOR/Locker\l_Control/threaddeleteextractcode.cpp">
<polygon fill="none" stroke="black" points="462,-191.5 462,-215.5 596,-215.5 596,-191.5 462,-191.5"/>
<text text-anchor="start" x="470" y="-205.9" font-family="Helvetica,sans-Serif" font-size="7.00">S:/QT_CREATOR/Locker</text>
<text text-anchor="middle" x="529" y="-197.9" font-family="Helvetica,sans-Serif" font-size="7.00">_Control/threaddeleteextractcode.cpp</text>
</a>
</g>
</g>
<!-- Node1&#45;&gt;Node10 -->
<g id="edge15" class="edge"><title>Node1&#45;&gt;Node10</title>
<path fill="none" stroke="midnightblue" d="M485.911,-303.935C496.995,-278.358 515.515,-235.62 524.213,-215.547"/>
<polygon fill="midnightblue" stroke="midnightblue" points="482.564,-302.859 481.799,-313.426 488.986,-305.642 482.564,-302.859"/>
</g>
<!-- Node3 -->
<g id="node3" class="node"><title>Node3</title>
<g id="a_node3"><a xlink:href="customer_8h.html" target="_top" xlink:title="S:/QT_CREATOR/Locker\l_Control/customer.h">
<polygon fill="none" stroke="black" points="310.5,-191.5 310.5,-215.5 405.5,-215.5 405.5,-191.5 310.5,-191.5"/>
<text text-anchor="start" x="318.5" y="-205.9" font-family="Helvetica,sans-Serif" font-size="7.00">S:/QT_CREATOR/Locker</text>
<text text-anchor="middle" x="358" y="-197.9" font-family="Helvetica,sans-Serif" font-size="7.00">_Control/customer.h</text>
</a>
</g>
</g>
<!-- Node2&#45;&gt;Node3 -->
<g id="edge2" class="edge"><title>Node2&#45;&gt;Node3</title>
<path fill="none" stroke="midnightblue" d="M411.441,-245.987C398.735,-236.123 383.254,-224.105 372.231,-215.548"/>
<polygon fill="midnightblue" stroke="midnightblue" points="409.66,-249.035 419.705,-252.403 413.952,-243.506 409.66,-249.035"/>
</g>
<!-- Node4 -->
<g id="node4" class="node"><title>Node4</title>
<g id="a_node4"><a xlink:href="consolewindows_8h.html" target="_top" xlink:title="S:/QT_CREATOR/Locker\l_Control/consolewindows.h">
<polygon fill="none" stroke="red" points="191.5,-130.5 191.5,-154.5 292.5,-154.5 292.5,-130.5 191.5,-130.5"/>
<text text-anchor="start" x="199.5" y="-144.9" font-family="Helvetica,sans-Serif" font-size="7.00">S:/QT_CREATOR/Locker</text>
<text text-anchor="middle" x="242" y="-136.9" font-family="Helvetica,sans-Serif" font-size="7.00">_Control/consolewindows.h</text>
</a>
</g>
</g>
<!-- Node2&#45;&gt;Node4 -->
<g id="edge12" class="edge"><title>Node2&#45;&gt;Node4</title>
<path fill="none" stroke="midnightblue" d="M373.792,-249.578C349.725,-242.149 322.644,-231.301 301,-216 277.28,-199.232 257.886,-170.467 248.364,-154.68"/>
<polygon fill="midnightblue" stroke="midnightblue" points="372.964,-252.982 383.546,-252.456 374.945,-246.269 372.964,-252.982"/>
</g>
<!-- Node9 -->
<g id="node9" class="node"><title>Node9</title>
<g id="a_node9"><a xlink:href="showpackagebox_8cpp.html" target="_top" xlink:title="S:/QT_CREATOR/Locker\l_Control/showpackagebox.cpp">
<polygon fill="none" stroke="black" points="424,-130.5 424,-154.5 536,-154.5 536,-130.5 424,-130.5"/>
<text text-anchor="start" x="432" y="-144.9" font-family="Helvetica,sans-Serif" font-size="7.00">S:/QT_CREATOR/Locker</text>
<text text-anchor="middle" x="480" y="-136.9" font-family="Helvetica,sans-Serif" font-size="7.00">_Control/showpackagebox.cpp</text>
</a>
</g>
</g>
<!-- Node2&#45;&gt;Node9 -->
<g id="edge13" class="edge"><title>Node2&#45;&gt;Node9</title>
<path fill="none" stroke="midnightblue" d="M438.029,-242.299C441.19,-227.588 446.198,-207.71 453,-191 458.293,-177.997 466.49,-164.153 472.464,-154.786"/>
<polygon fill="midnightblue" stroke="midnightblue" points="434.537,-241.907 435.972,-252.404 441.396,-243.303 434.537,-241.907"/>
</g>
<!-- Node2&#45;&gt;Node10 -->
<g id="edge14" class="edge"><title>Node2&#45;&gt;Node10</title>
<path fill="none" stroke="midnightblue" d="M460.382,-247.115C476.585,-237.053 496.903,-224.434 511.211,-215.548"/>
<polygon fill="midnightblue" stroke="midnightblue" points="458.517,-244.153 451.869,-252.403 462.21,-250.1 458.517,-244.153"/>
</g>
<!-- Node3&#45;&gt;Node4 -->
<g id="edge3" class="edge"><title>Node3&#45;&gt;Node4</title>
<path fill="none" stroke="midnightblue" d="M327.151,-186.81C307.154,-176.639 281.596,-163.64 263.721,-154.548"/>
<polygon fill="midnightblue" stroke="midnightblue" points="325.681,-189.989 336.181,-191.403 328.855,-183.749 325.681,-189.989"/>
</g>
<!-- Node8 -->
<g id="node8" class="node"><title>Node8</title>
<g id="a_node8"><a xlink:href="customer_8cpp.html" target="_top" xlink:title="S:/QT_CREATOR/Locker\l_Control/customer.cpp">
<polygon fill="none" stroke="black" points="310.5,-130.5 310.5,-154.5 405.5,-154.5 405.5,-130.5 310.5,-130.5"/>
<text text-anchor="start" x="318.5" y="-144.9" font-family="Helvetica,sans-Serif" font-size="7.00">S:/QT_CREATOR/Locker</text>
<text text-anchor="middle" x="358" y="-136.9" font-family="Helvetica,sans-Serif" font-size="7.00">_Control/customer.cpp</text>
</a>
</g>
</g>
<!-- Node3&#45;&gt;Node8 -->
<g id="edge10" class="edge"><title>Node3&#45;&gt;Node8</title>
<path fill="none" stroke="midnightblue" d="M358,-181.198C358,-172.173 358,-162.035 358,-154.548"/>
<polygon fill="midnightblue" stroke="midnightblue" points="354.5,-181.403 358,-191.403 361.5,-181.403 354.5,-181.403"/>
</g>
<!-- Node3&#45;&gt;Node9 -->
<g id="edge11" class="edge"><title>Node3&#45;&gt;Node9</title>
<path fill="none" stroke="midnightblue" d="M390.159,-186.948C411.232,-176.757 438.27,-163.681 457.156,-154.548"/>
<polygon fill="midnightblue" stroke="midnightblue" points="388.426,-183.898 380.947,-191.403 391.474,-190.2 388.426,-183.898"/>
</g>
<!-- Node5 -->
<g id="node5" class="node"><title>Node5</title>
<g id="a_node5"><a xlink:href="consolewindows_8cpp.html" target="_top" xlink:title="S:/QT_CREATOR/Locker\l_Control/consolewindows.cpp">
<polygon fill="none" stroke="black" points="0,-69.5 0,-93.5 108,-93.5 108,-69.5 0,-69.5"/>
<text text-anchor="start" x="8" y="-83.9" font-family="Helvetica,sans-Serif" font-size="7.00">S:/QT_CREATOR/Locker</text>
<text text-anchor="middle" x="54" y="-75.9" font-family="Helvetica,sans-Serif" font-size="7.00">_Control/consolewindows.cpp</text>
</a>
</g>
</g>
<!-- Node4&#45;&gt;Node5 -->
<g id="edge4" class="edge"><title>Node4&#45;&gt;Node5</title>
<path fill="none" stroke="midnightblue" d="M196.774,-127.307C163.749,-116.943 119.616,-103.092 89.2028,-93.5477"/>
<polygon fill="midnightblue" stroke="midnightblue" points="196.049,-130.748 206.639,-130.403 198.145,-124.069 196.049,-130.748"/>
</g>
<!-- Node6 -->
<g id="node6" class="node"><title>Node6</title>
<g id="a_node6"><a xlink:href="thread__databasemanager_8h.html" target="_top" xlink:title="S:/QT_CREATOR/Locker\l_Control/thread_databasemanager.h">
<polygon fill="none" stroke="red" points="126,-69.5 126,-93.5 256,-93.5 256,-69.5 126,-69.5"/>
<text text-anchor="start" x="134" y="-83.9" font-family="Helvetica,sans-Serif" font-size="7.00">S:/QT_CREATOR/Locker</text>
<text text-anchor="middle" x="191" y="-75.9" font-family="Helvetica,sans-Serif" font-size="7.00">_Control/thread_databasemanager.h</text>
</a>
</g>
</g>
<!-- Node4&#45;&gt;Node6 -->
<g id="edge5" class="edge"><title>Node4&#45;&gt;Node6</title>
<path fill="none" stroke="midnightblue" d="M225.619,-122.55C217.343,-112.975 207.591,-101.693 200.55,-93.5477"/>
<polygon fill="midnightblue" stroke="midnightblue" points="223.22,-125.126 232.407,-130.403 228.516,-120.548 223.22,-125.126"/>
</g>
<!-- Node7 -->
<g id="node7" class="node"><title>Node7</title>
<g id="a_node7"><a xlink:href="sqlite__local__databasemanager_8h.html" target="_top" xlink:title="S:/QT_CREATOR/Locker\l_Control/sqlite_local\l_databasemanager.h">
<polygon fill="none" stroke="red" points="194.5,-0.5 194.5,-32.5 289.5,-32.5 289.5,-0.5 194.5,-0.5"/>
<text text-anchor="start" x="202.5" y="-22.9" font-family="Helvetica,sans-Serif" font-size="7.00">S:/QT_CREATOR/Locker</text>
<text text-anchor="start" x="202.5" y="-14.9" font-family="Helvetica,sans-Serif" font-size="7.00">_Control/sqlite_local</text>
<text text-anchor="middle" x="242" y="-6.9" font-family="Helvetica,sans-Serif" font-size="7.00">_databasemanager.h</text>
</a>
</g>
</g>
<!-- Node4&#45;&gt;Node7 -->
<g id="edge9" class="edge"><title>Node4&#45;&gt;Node7</title>
<path fill="none" stroke="midnightblue" d="M246.04,-120.986C249.669,-112.88 253.868,-103.293 256,-94 260.961,-72.372 250.736,-47.8962 244.567,-32.5808"/>
<polygon fill="midnightblue" stroke="midnightblue" points="242.754,-119.764 241.947,-130.328 249.166,-122.573 242.754,-119.764"/>
</g>
<!-- Node6&#45;&gt;Node7 -->
<g id="edge6" class="edge"><title>Node6&#45;&gt;Node7</title>
<path fill="none" stroke="midnightblue" d="M200.631,-60.8094C207.267,-51.7358 215.996,-41.1336 223.832,-32.6903"/>
<polygon fill="midnightblue" stroke="midnightblue" points="197.612,-59.0214 194.802,-69.2369 203.369,-63.0033 197.612,-59.0214"/>
</g>
<!-- Node7&#45;&gt;Node4 -->
<g id="edge7" class="edge"><title>Node7&#45;&gt;Node4</title>
<path fill="none" stroke="midnightblue" d="M263.514,-41.2286C271.802,-56.2256 278.108,-76.0893 274,-94 270.968,-107.217 263.755,-121.028 256.469,-130.328"/>
<polygon fill="midnightblue" stroke="midnightblue" points="266.406,-39.2495 258.173,-32.5808 260.45,-42.928 266.406,-39.2495"/>
</g>
<!-- Node7&#45;&gt;Node6 -->
<g id="edge8" class="edge"><title>Node7&#45;&gt;Node6</title>
<path fill="none" stroke="midnightblue" d="M229.657,-40.8314C222.3,-50.5366 213.134,-61.3532 205.434,-69.2369"/>
<polygon fill="midnightblue" stroke="midnightblue" points="232.526,-42.8371 235.574,-32.6903 226.863,-38.7214 232.526,-42.8371"/>
</g>
</g>
</svg>
