<?xml version="1.0" encoding="UTF-8" standalone="no"?>
<!DOCTYPE svg PUBLIC "-//W3C//DTD SVG 1.1//EN"
 "http://www.w3.org/Graphics/SVG/1.1/DTD/svg11.dtd">
<!-- Generated by graphviz version 2.38.0 (20140413.2041)
 -->
<!-- Title: S:/QT_CREATOR/Locker_Control/thread_linphonec.h Pages: 1 -->
<svg width="452pt" height="285pt"
 viewBox="0.00 0.00 452.00 285.00" xmlns="http://www.w3.org/2000/svg" xmlns:xlink="http://www.w3.org/1999/xlink">
<g id="graph0" class="graph" transform="scale(1 1) rotate(0) translate(4 281)">
<title>S:/QT_CREATOR/Locker_Control/thread_linphonec.h</title>
<!-- Node1 -->
<g id="node1" class="node"><title>Node1</title>
<polygon fill="#bfbfbf" stroke="black" points="53.5,-252.5 53.5,-276.5 157.5,-276.5 157.5,-252.5 53.5,-252.5"/>
<text text-anchor="start" x="61.5" y="-266.9" font-family="Helvetica,sans-Serif" font-size="7.00">S:/QT_CREATOR/Locker</text>
<text text-anchor="middle" x="105.5" y="-258.9" font-family="Helvetica,sans-Serif" font-size="7.00">_Control/thread_linphonec.h</text>
</g>
<!-- Node2 -->
<g id="node2" class="node"><title>Node2</title>
<g id="a_node2"><a xlink:href="assistance_8h.html" target="_top" xlink:title="S:/QT_CREATOR/Locker\l_Control/assistance.h">
<polygon fill="none" stroke="black" points="58,-191.5 58,-215.5 153,-215.5 153,-191.5 58,-191.5"/>
<text text-anchor="start" x="66" y="-205.9" font-family="Helvetica,sans-Serif" font-size="7.00">S:/QT_CREATOR/Locker</text>
<text text-anchor="middle" x="105.5" y="-197.9" font-family="Helvetica,sans-Serif" font-size="7.00">_Control/assistance.h</text>
</a>
</g>
</g>
<!-- Node1&#45;&gt;Node2 -->
<g id="edge1" class="edge"><title>Node1&#45;&gt;Node2</title>
<path fill="none" stroke="midnightblue" d="M98.9872,-242.198C98.4522,-233.173 98.8222,-223.035 100.097,-215.548"/>
<polygon fill="midnightblue" stroke="midnightblue" points="95.5356,-242.836 100.089,-252.403 102.495,-242.085 95.5356,-242.836"/>
</g>
<!-- Node10 -->
<g id="node10" class="node"><title>Node10</title>
<g id="a_node10"><a xlink:href="thread__linphonec_8cpp.html" target="_top" xlink:title="S:/QT_CREATOR/Locker\l_Control/thread_linphonec.cpp">
<polygon fill="none" stroke="black" points="171,-191.5 171,-215.5 282,-215.5 282,-191.5 171,-191.5"/>
<text text-anchor="start" x="179" y="-205.9" font-family="Helvetica,sans-Serif" font-size="7.00">S:/QT_CREATOR/Locker</text>
<text text-anchor="middle" x="226.5" y="-197.9" font-family="Helvetica,sans-Serif" font-size="7.00">_Control/thread_linphonec.cpp</text>
</a>
</g>
</g>
<!-- Node1&#45;&gt;Node10 -->
<g id="edge13" class="edge"><title>Node1&#45;&gt;Node10</title>
<path fill="none" stroke="midnightblue" d="M137.395,-247.948C158.296,-237.757 185.112,-224.681 203.843,-215.548"/>
<polygon fill="midnightblue" stroke="midnightblue" points="135.714,-244.874 128.259,-252.403 138.782,-251.166 135.714,-244.874"/>
</g>
<!-- Node2&#45;&gt;Node1 -->
<g id="edge3" class="edge"><title>Node2&#45;&gt;Node1</title>
<path fill="none" stroke="midnightblue" d="M112.009,-225.742C112.548,-234.763 112.182,-244.903 110.911,-252.403"/>
<polygon fill="midnightblue" stroke="midnightblue" points="115.461,-225.112 110.903,-215.548 108.502,-225.867 115.461,-225.112"/>
</g>
<!-- Node3 -->
<g id="node3" class="node"><title>Node3</title>
<g id="a_node3"><a xlink:href="assistance_8cpp.html" target="_top" xlink:title="S:/QT_CREATOR/Locker\l_Control/assistance.cpp">
<polygon fill="none" stroke="black" points="0,-130.5 0,-154.5 95,-154.5 95,-130.5 0,-130.5"/>
<text text-anchor="start" x="8" y="-144.9" font-family="Helvetica,sans-Serif" font-size="7.00">S:/QT_CREATOR/Locker</text>
<text text-anchor="middle" x="47.5" y="-136.9" font-family="Helvetica,sans-Serif" font-size="7.00">_Control/assistance.cpp</text>
</a>
</g>
</g>
<!-- Node2&#45;&gt;Node3 -->
<g id="edge2" class="edge"><title>Node2&#45;&gt;Node3</title>
<path fill="none" stroke="midnightblue" d="M87.4395,-184.128C77.9083,-174.433 66.5298,-162.858 58.3604,-154.548"/>
<polygon fill="midnightblue" stroke="midnightblue" points="85.0843,-186.725 94.5906,-191.403 90.0762,-181.818 85.0843,-186.725"/>
</g>
<!-- Node4 -->
<g id="node4" class="node"><title>Node4</title>
<g id="a_node4"><a xlink:href="consolewindows_8h.html" target="_top" xlink:title="S:/QT_CREATOR/Locker\l_Control/consolewindows.h">
<polygon fill="none" stroke="black" points="113,-130.5 113,-154.5 214,-154.5 214,-130.5 113,-130.5"/>
<text text-anchor="start" x="121" y="-144.9" font-family="Helvetica,sans-Serif" font-size="7.00">S:/QT_CREATOR/Locker</text>
<text text-anchor="middle" x="163.5" y="-136.9" font-family="Helvetica,sans-Serif" font-size="7.00">_Control/consolewindows.h</text>
</a>
</g>
</g>
<!-- Node2&#45;&gt;Node4 -->
<g id="edge4" class="edge"><title>Node2&#45;&gt;Node4</title>
<path fill="none" stroke="midnightblue" d="M123.561,-184.128C133.092,-174.433 144.47,-162.858 152.64,-154.548"/>
<polygon fill="midnightblue" stroke="midnightblue" points="120.924,-181.818 116.409,-191.403 125.916,-186.725 120.924,-181.818"/>
</g>
<!-- Node5 -->
<g id="node5" class="node"><title>Node5</title>
<g id="a_node5"><a xlink:href="consolewindows_8cpp.html" target="_top" xlink:title="S:/QT_CREATOR/Locker\l_Control/consolewindows.cpp">
<polygon fill="none" stroke="black" points="18.5,-69.5 18.5,-93.5 126.5,-93.5 126.5,-69.5 18.5,-69.5"/>
<text text-anchor="start" x="26.5" y="-83.9" font-family="Helvetica,sans-Serif" font-size="7.00">S:/QT_CREATOR/Locker</text>
<text text-anchor="middle" x="72.5" y="-75.9" font-family="Helvetica,sans-Serif" font-size="7.00">_Control/consolewindows.cpp</text>
</a>
</g>
</g>
<!-- Node4&#45;&gt;Node5 -->
<g id="edge5" class="edge"><title>Node4&#45;&gt;Node5</title>
<path fill="none" stroke="midnightblue" d="M137.796,-124.835C122.348,-114.819 103.119,-102.352 89.5397,-93.5477"/>
<polygon fill="midnightblue" stroke="midnightblue" points="136.089,-127.899 146.384,-130.403 139.897,-122.026 136.089,-127.899"/>
</g>
<!-- Node6 -->
<g id="node6" class="node"><title>Node6</title>
<g id="a_node6"><a xlink:href="thread__databasemanager_8h.html" target="_top" xlink:title="S:/QT_CREATOR/Locker\l_Control/thread_databasemanager.h">
<polygon fill="none" stroke="black" points="200.5,-69.5 200.5,-93.5 330.5,-93.5 330.5,-69.5 200.5,-69.5"/>
<text text-anchor="start" x="208.5" y="-83.9" font-family="Helvetica,sans-Serif" font-size="7.00">S:/QT_CREATOR/Locker</text>
<text text-anchor="middle" x="265.5" y="-75.9" font-family="Helvetica,sans-Serif" font-size="7.00">_Control/thread_databasemanager.h</text>
</a>
</g>
</g>
<!-- Node4&#45;&gt;Node6 -->
<g id="edge6" class="edge"><title>Node4&#45;&gt;Node6</title>
<path fill="none" stroke="midnightblue" d="M191.344,-125.394C208.818,-115.287 230.896,-102.516 246.401,-93.5477"/>
<polygon fill="midnightblue" stroke="midnightblue" points="189.589,-122.366 182.685,-130.403 193.094,-128.425 189.589,-122.366"/>
</g>
<!-- Node7 -->
<g id="node7" class="node"><title>Node7</title>
<g id="a_node7"><a xlink:href="sqlite__local__databasemanager_8h.html" target="_top" xlink:title="S:/QT_CREATOR/Locker\l_Control/sqlite_local\l_databasemanager.h">
<polygon fill="none" stroke="red" points="116,-0.5 116,-32.5 211,-32.5 211,-0.5 116,-0.5"/>
<text text-anchor="start" x="124" y="-22.9" font-family="Helvetica,sans-Serif" font-size="7.00">S:/QT_CREATOR/Locker</text>
<text text-anchor="start" x="124" y="-14.9" font-family="Helvetica,sans-Serif" font-size="7.00">_Control/sqlite_local</text>
<text text-anchor="middle" x="163.5" y="-6.9" font-family="Helvetica,sans-Serif" font-size="7.00">_databasemanager.h</text>
</a>
</g>
</g>
<!-- Node4&#45;&gt;Node7 -->
<g id="edge11" class="edge"><title>Node4&#45;&gt;Node7</title>
<path fill="none" stroke="midnightblue" d="M158.269,-120.31C156.061,-95.4624 156.26,-54.8819 158.866,-32.8701"/>
<polygon fill="midnightblue" stroke="midnightblue" points="154.822,-120.967 159.453,-130.496 161.775,-120.159 154.822,-120.967"/>
</g>
<!-- Node9 -->
<g id="node9" class="node"><title>Node9</title>
<g id="a_node9"><a xlink:href="main_8cpp.html" target="_top" xlink:title="S:/QT_CREATOR/Locker\l_Control/main.cpp">
<polygon fill="none" stroke="black" points="349,-69.5 349,-93.5 444,-93.5 444,-69.5 349,-69.5"/>
<text text-anchor="start" x="357" y="-83.9" font-family="Helvetica,sans-Serif" font-size="7.00">S:/QT_CREATOR/Locker</text>
<text text-anchor="middle" x="396.5" y="-75.9" font-family="Helvetica,sans-Serif" font-size="7.00">_Control/main.cpp</text>
</a>
</g>
</g>
<!-- Node4&#45;&gt;Node9 -->
<g id="edge12" class="edge"><title>Node4&#45;&gt;Node9</title>
<path fill="none" stroke="midnightblue" d="M216.907,-127.976C258.062,-117.555 314.259,-103.325 352.766,-93.5742"/>
<polygon fill="midnightblue" stroke="midnightblue" points="215.887,-124.624 207.052,-130.472 217.605,-131.41 215.887,-124.624"/>
</g>
<!-- Node6&#45;&gt;Node7 -->
<g id="edge7" class="edge"><title>Node6&#45;&gt;Node7</title>
<path fill="none" stroke="midnightblue" d="M233.191,-64.2452C216.289,-54.4582 196.302,-42.0838 181.976,-32.5257"/>
<polygon fill="midnightblue" stroke="midnightblue" points="231.786,-67.473 242.208,-69.3819 235.251,-61.3907 231.786,-67.473"/>
</g>
<!-- Node8 -->
<g id="node8" class="node"><title>Node8</title>
<g id="a_node8"><a xlink:href="thread__databasemanager_8cpp.html" target="_top" xlink:title="S:/QT_CREATOR/Locker\l_Control/thread_databasemanager.cpp">
<polygon fill="none" stroke="black" points="229,-4.5 229,-28.5 366,-28.5 366,-4.5 229,-4.5"/>
<text text-anchor="start" x="237" y="-18.9" font-family="Helvetica,sans-Serif" font-size="7.00">S:/QT_CREATOR/Locker</text>
<text text-anchor="middle" x="297.5" y="-10.9" font-family="Helvetica,sans-Serif" font-size="7.00">_Control/thread_databasemanager.cpp</text>
</a>
</g>
</g>
<!-- Node6&#45;&gt;Node8 -->
<g id="edge10" class="edge"><title>Node6&#45;&gt;Node8</title>
<path fill="none" stroke="midnightblue" d="M275.754,-60.3117C281.079,-49.8286 287.383,-37.4182 291.829,-28.6656"/>
<polygon fill="midnightblue" stroke="midnightblue" points="272.629,-58.736 271.221,-69.2369 278.87,-61.9061 272.629,-58.736"/>
</g>
<!-- Node7&#45;&gt;Node4 -->
<g id="edge8" class="edge"><title>Node7&#45;&gt;Node4</title>
<path fill="none" stroke="midnightblue" d="M169.085,-43.0841C171.045,-69.9714 170.532,-111.012 167.547,-130.496"/>
<polygon fill="midnightblue" stroke="midnightblue" points="172.546,-42.5026 168.134,-32.8701 165.576,-43.1515 172.546,-42.5026"/>
</g>
<!-- Node7&#45;&gt;Node6 -->
<g id="edge9" class="edge"><title>Node7&#45;&gt;Node6</title>
<path fill="none" stroke="midnightblue" d="M202.94,-37.9286C220.519,-48.3216 239.978,-60.5568 252.58,-69.2369"/>
<polygon fill="midnightblue" stroke="midnightblue" points="204.366,-34.7084 193.965,-32.6903 200.837,-40.754 204.366,-34.7084"/>
</g>
</g>
</svg>
