<?xml version="1.0" encoding="UTF-8" standalone="no"?>
<!DOCTYPE svg PUBLIC "-//W3C//DTD SVG 1.1//EN"
 "http://www.w3.org/Graphics/SVG/1.1/DTD/svg11.dtd">
<!-- Generated by graphviz version 2.38.0 (20140413.2041)
 -->
<!-- Title: S:/QT_CREATOR/Locker_Control/thread_databasemanager.h Pages: 1 -->
<svg width="351pt" height="298pt"
 viewBox="0.00 0.00 351.15 298.00" xmlns="http://www.w3.org/2000/svg" xmlns:xlink="http://www.w3.org/1999/xlink">
<g id="graph0" class="graph" transform="scale(1 1) rotate(0) translate(4 294)">
<title>S:/QT_CREATOR/Locker_Control/thread_databasemanager.h</title>
<!-- Node1 -->
<g id="node1" class="node"><title>Node1</title>
<polygon fill="#bfbfbf" stroke="black" points="122.148,-265.5 122.148,-289.5 252.148,-289.5 252.148,-265.5 122.148,-265.5"/>
<text text-anchor="start" x="130.148" y="-279.9" font-family="Helvetica,sans-Serif" font-size="7.00">S:/QT_CREATOR/Locker</text>
<text text-anchor="middle" x="187.148" y="-271.9" font-family="Helvetica,sans-Serif" font-size="7.00">_Control/thread_databasemanager.h</text>
</g>
<!-- Node2 -->
<g id="node2" class="node"><title>Node2</title>
<polygon fill="none" stroke="#bfbfbf" points="29.6483,-212.5 29.6483,-228.5 72.6483,-228.5 72.6483,-212.5 29.6483,-212.5"/>
<text text-anchor="middle" x="51.1483" y="-218.9" font-family="Helvetica,sans-Serif" font-size="7.00">QThread</text>
</g>
<!-- Node1&#45;&gt;Node2 -->
<g id="edge1" class="edge"><title>Node1&#45;&gt;Node2</title>
<path fill="none" stroke="midnightblue" d="M159.627,-265.37C135.857,-255.757 101.711,-241.948 78.107,-232.402"/>
<polygon fill="midnightblue" stroke="midnightblue" points="79.28,-229.101 68.6972,-228.597 76.6556,-235.591 79.28,-229.101"/>
</g>
<!-- Node3 -->
<g id="node3" class="node"><title>Node3</title>
<g id="a_node3"><a xlink:href="csqlite__local__db_8h.html" target="_top" xlink:title="csqlite_local_db.h">
<polygon fill="none" stroke="red" points="112.148,-106.5 112.148,-122.5 184.148,-122.5 184.148,-106.5 112.148,-106.5"/>
<text text-anchor="middle" x="148.148" y="-112.9" font-family="Helvetica,sans-Serif" font-size="7.00">csqlite_local_db.h</text>
</a>
</g>
</g>
<!-- Node1&#45;&gt;Node3 -->
<g id="edge2" class="edge"><title>Node1&#45;&gt;Node3</title>
<path fill="none" stroke="midnightblue" d="M160.96,-265.453C146.068,-257.643 128.725,-245.593 120.148,-229 103.426,-196.646 123.905,-153.883 137.648,-131.199"/>
<polygon fill="midnightblue" stroke="midnightblue" points="140.739,-132.861 143.164,-122.547 134.837,-129.098 140.739,-132.861"/>
</g>
<!-- Node8 -->
<g id="node8" class="node"><title>Node8</title>
<g id="a_node8"><a xlink:href="_data_structures_8h.html" target="_top" xlink:title="Definnitions des formats de communications des données entre les classes de l&#39;application LC...">
<polygon fill="none" stroke="red" points="273.148,-53.5 273.148,-69.5 343.148,-69.5 343.148,-53.5 273.148,-53.5"/>
<text text-anchor="middle" x="308.148" y="-59.9" font-family="Helvetica,sans-Serif" font-size="7.00">DataStructures.h</text>
</a>
</g>
</g>
<!-- Node1&#45;&gt;Node8 -->
<g id="edge9" class="edge"><title>Node1&#45;&gt;Node8</title>
<path fill="none" stroke="midnightblue" d="M218.742,-265.438C236.107,-257.792 256.607,-245.917 269.148,-229 303.161,-183.119 308.078,-112.171 308.422,-79.7396"/>
<polygon fill="midnightblue" stroke="midnightblue" points="311.921,-79.6391 308.386,-69.6514 304.921,-79.6635 311.921,-79.6391"/>
</g>
<!-- Node9 -->
<g id="node9" class="node"><title>Node9</title>
<g id="a_node9"><a xlink:href="sqlite__local__databasemanager_8h.html" target="_top" xlink:title="sqlite_local_databasemanager.h">
<polygon fill="none" stroke="red" points="129.148,-212.5 129.148,-228.5 245.148,-228.5 245.148,-212.5 129.148,-212.5"/>
<text text-anchor="middle" x="187.148" y="-218.9" font-family="Helvetica,sans-Serif" font-size="7.00">sqlite_local_databasemanager.h</text>
</a>
</g>
</g>
<!-- Node1&#45;&gt;Node9 -->
<g id="edge10" class="edge"><title>Node1&#45;&gt;Node9</title>
<path fill="none" stroke="midnightblue" d="M181.6,-265.37C180.324,-257.775 180.064,-247.56 180.82,-238.899"/>
<polygon fill="midnightblue" stroke="midnightblue" points="184.319,-239.177 182.4,-228.757 177.403,-238.1 184.319,-239.177"/>
</g>
<!-- Node10 -->
<g id="node10" class="node"><title>Node10</title>
<g id="a_node10"><a xlink:href="consolewindows_8h.html" target="_top" xlink:title="consolewindows.h">
<polygon fill="none" stroke="red" points="174.148,-159.5 174.148,-175.5 246.148,-175.5 246.148,-159.5 174.148,-159.5"/>
<text text-anchor="middle" x="210.148" y="-165.9" font-family="Helvetica,sans-Serif" font-size="7.00">consolewindows.h</text>
</a>
</g>
</g>
<!-- Node1&#45;&gt;Node10 -->
<g id="edge16" class="edge"><title>Node1&#45;&gt;Node10</title>
<path fill="none" stroke="midnightblue" d="M213.336,-265.453C228.229,-257.643 245.572,-245.593 254.148,-229 263.255,-211.38 245.838,-193.252 230.302,-181.493"/>
<polygon fill="midnightblue" stroke="midnightblue" points="232.231,-178.57 222.044,-175.658 228.192,-184.287 232.231,-178.57"/>
</g>
<!-- Node4 -->
<g id="node4" class="node"><title>Node4</title>
<polygon fill="none" stroke="#bfbfbf" points="127.148,-0.5 127.148,-16.5 167.148,-16.5 167.148,-0.5 127.148,-0.5"/>
<text text-anchor="middle" x="147.148" y="-6.9" font-family="Helvetica,sans-Serif" font-size="7.00">QString</text>
</g>
<!-- Node3&#45;&gt;Node4 -->
<g id="edge3" class="edge"><title>Node3&#45;&gt;Node4</title>
<path fill="none" stroke="midnightblue" d="M111.983,-113.637C78.4784,-111.591 30.2945,-102.651 6.14829,-70 -23.7324,-29.5951 67.0024,-15.8858 116.807,-11.4691"/>
<polygon fill="midnightblue" stroke="midnightblue" points="117.361,-14.9358 127.046,-10.6401 116.796,-7.95866 117.361,-14.9358"/>
</g>
<!-- Node5 -->
<g id="node5" class="node"><title>Node5</title>
<polygon fill="none" stroke="#bfbfbf" points="15.6483,-53.5 15.6483,-69.5 96.6483,-69.5 96.6483,-53.5 15.6483,-53.5"/>
<text text-anchor="middle" x="56.1483" y="-59.9" font-family="Helvetica,sans-Serif" font-size="7.00">QtSql/QSqlDatabase</text>
</g>
<!-- Node3&#45;&gt;Node5 -->
<g id="edge4" class="edge"><title>Node3&#45;&gt;Node5</title>
<path fill="none" stroke="midnightblue" d="M135.356,-106.409C120.526,-98.1874 95.8345,-84.4999 77.9569,-74.5896"/>
<polygon fill="midnightblue" stroke="midnightblue" points="79.2749,-71.3184 68.8318,-69.5311 75.881,-77.4406 79.2749,-71.3184"/>
</g>
<!-- Node6 -->
<g id="node6" class="node"><title>Node6</title>
<polygon fill="none" stroke="#bfbfbf" points="114.648,-53.5 114.648,-69.5 185.648,-69.5 185.648,-53.5 114.648,-53.5"/>
<text text-anchor="middle" x="150.148" y="-59.9" font-family="Helvetica,sans-Serif" font-size="7.00">QtSql/QSqlDriver</text>
</g>
<!-- Node3&#45;&gt;Node6 -->
<g id="edge5" class="edge"><title>Node3&#45;&gt;Node6</title>
<path fill="none" stroke="midnightblue" d="M148.426,-106.409C148.695,-99.5576 149.113,-88.9106 149.469,-79.8167"/>
<polygon fill="midnightblue" stroke="midnightblue" points="152.978,-79.6606 149.873,-69.5311 145.983,-79.3862 152.978,-79.6606"/>
</g>
<!-- Node7 -->
<g id="node7" class="node"><title>Node7</title>
<polygon fill="none" stroke="#bfbfbf" points="203.648,-53.5 203.648,-69.5 254.648,-69.5 254.648,-53.5 203.648,-53.5"/>
<text text-anchor="middle" x="229.148" y="-59.9" font-family="Helvetica,sans-Serif" font-size="7.00">QSqlQuery</text>
</g>
<!-- Node3&#45;&gt;Node7 -->
<g id="edge6" class="edge"><title>Node3&#45;&gt;Node7</title>
<path fill="none" stroke="midnightblue" d="M159.411,-106.409C172.347,-98.2635 193.805,-84.7529 209.508,-74.8658"/>
<polygon fill="midnightblue" stroke="midnightblue" points="211.384,-77.8211 217.981,-69.5311 207.654,-71.8975 211.384,-77.8211"/>
</g>
<!-- Node3&#45;&gt;Node8 -->
<g id="edge7" class="edge"><title>Node3&#45;&gt;Node8</title>
<path fill="none" stroke="midnightblue" d="M170.396,-106.409C197.979,-97.6165 245.176,-82.5725 276.516,-72.5827"/>
<polygon fill="midnightblue" stroke="midnightblue" points="277.625,-75.9028 286.09,-69.5311 275.499,-69.2334 277.625,-75.9028"/>
</g>
<!-- Node8&#45;&gt;Node4 -->
<g id="edge8" class="edge"><title>Node8&#45;&gt;Node4</title>
<path fill="none" stroke="midnightblue" d="M285.762,-53.4087C257.383,-44.4189 208.37,-28.8932 176.876,-18.917"/>
<polygon fill="midnightblue" stroke="midnightblue" points="177.905,-15.5715 167.315,-15.8882 175.791,-22.2447 177.905,-15.5715"/>
</g>
<!-- Node9&#45;&gt;Node1 -->
<g id="edge12" class="edge"><title>Node9&#45;&gt;Node1</title>
<path fill="none" stroke="midnightblue" d="M191.897,-228.757C193.599,-235.476 194.215,-245.808 193.746,-255.144"/>
<polygon fill="midnightblue" stroke="midnightblue" points="190.236,-255.065 192.697,-265.37 197.2,-255.779 190.236,-255.065"/>
</g>
<!-- Node9&#45;&gt;Node3 -->
<g id="edge11" class="edge"><title>Node9&#45;&gt;Node3</title>
<path fill="none" stroke="midnightblue" d="M182.964,-212.31C178.167,-203.843 170.304,-189.25 165.148,-176 159.575,-161.676 154.987,-144.796 151.989,-132.511"/>
<polygon fill="midnightblue" stroke="midnightblue" points="155.385,-131.665 149.699,-122.725 148.569,-133.26 155.385,-131.665"/>
</g>
<!-- Node9&#45;&gt;Node10 -->
<g id="edge13" class="edge"><title>Node9&#45;&gt;Node10</title>
<path fill="none" stroke="midnightblue" d="M185.501,-212.409C186.874,-205.177 191.558,-193.716 196.718,-184.316"/>
<polygon fill="midnightblue" stroke="midnightblue" points="199.868,-185.878 202.148,-175.531 193.913,-182.197 199.868,-185.878"/>
</g>
<!-- Node10&#45;&gt;Node3 -->
<g id="edge14" class="edge"><title>Node10&#45;&gt;Node3</title>
<path fill="none" stroke="midnightblue" d="M201.527,-159.409C191.996,-151.568 176.42,-138.756 164.547,-128.989"/>
<polygon fill="midnightblue" stroke="midnightblue" points="166.642,-126.181 156.696,-122.531 162.195,-131.587 166.642,-126.181"/>
</g>
<!-- Node10&#45;&gt;Node9 -->
<g id="edge15" class="edge"><title>Node10&#45;&gt;Node9</title>
<path fill="none" stroke="midnightblue" d="M211.807,-175.531C210.439,-182.815 205.68,-194.436 200.459,-203.902"/>
<polygon fill="midnightblue" stroke="midnightblue" points="197.48,-202.064 195.191,-212.409 203.431,-205.749 197.48,-202.064"/>
</g>
</g>
</svg>
