<?xml version="1.0" encoding="UTF-8" standalone="no"?>
<!DOCTYPE svg PUBLIC "-//W3C//DTD SVG 1.1//EN"
 "http://www.w3.org/Graphics/SVG/1.1/DTD/svg11.dtd">
<!-- Generated by graphviz version 2.38.0 (20140413.2041)
 -->
<!-- Title: S:/QT_CREATOR/Locker_Control/thread_linphonec.cpp Pages: 1 -->
<svg width="232pt" height="245pt"
 viewBox="0.00 0.00 232.00 245.00" xmlns="http://www.w3.org/2000/svg" xmlns:xlink="http://www.w3.org/1999/xlink">
<g id="graph0" class="graph" transform="scale(1 1) rotate(0) translate(4 241)">
<title>S:/QT_CREATOR/Locker_Control/thread_linphonec.cpp</title>
<!-- Node1 -->
<g id="node1" class="node"><title>Node1</title>
<polygon fill="#bfbfbf" stroke="black" points="102,-212.5 102,-236.5 213,-236.5 213,-212.5 102,-212.5"/>
<text text-anchor="start" x="110" y="-226.9" font-family="Helvetica,sans-Serif" font-size="7.00">S:/QT_CREATOR/Locker</text>
<text text-anchor="middle" x="157.5" y="-218.9" font-family="Helvetica,sans-Serif" font-size="7.00">_Control/thread_linphonec.cpp</text>
</g>
<!-- Node2 -->
<g id="node2" class="node"><title>Node2</title>
<g id="a_node2"><a xlink:href="thread__linphonec_8h.html" target="_top" xlink:title="thread_linphonec.h">
<polygon fill="none" stroke="black" points="82,-159.5 82,-175.5 157,-175.5 157,-159.5 82,-159.5"/>
<text text-anchor="middle" x="119.5" y="-165.9" font-family="Helvetica,sans-Serif" font-size="7.00">thread_linphonec.h</text>
</a>
</g>
</g>
<!-- Node1&#45;&gt;Node2 -->
<g id="edge1" class="edge"><title>Node1&#45;&gt;Node2</title>
<path fill="none" stroke="midnightblue" d="M149.81,-212.37C144.209,-204.263 136.546,-193.171 130.326,-184.169"/>
<polygon fill="midnightblue" stroke="midnightblue" points="133.078,-181.995 124.514,-175.757 127.319,-185.974 133.078,-181.995"/>
</g>
<!-- Node9 -->
<g id="node9" class="node"><title>Node9</title>
<polygon fill="none" stroke="#bfbfbf" points="175.5,-159.5 175.5,-175.5 217.5,-175.5 217.5,-159.5 175.5,-159.5"/>
<text text-anchor="middle" x="196.5" y="-165.9" font-family="Helvetica,sans-Serif" font-size="7.00">QDebug</text>
</g>
<!-- Node1&#45;&gt;Node9 -->
<g id="edge9" class="edge"><title>Node1&#45;&gt;Node9</title>
<path fill="none" stroke="midnightblue" d="M165.392,-212.37C171.141,-204.263 179.006,-193.171 185.389,-184.169"/>
<polygon fill="midnightblue" stroke="midnightblue" points="188.425,-185.939 191.354,-175.757 182.714,-181.89 188.425,-185.939"/>
</g>
<!-- Node3 -->
<g id="node3" class="node"><title>Node3</title>
<polygon fill="none" stroke="#bfbfbf" points="0,-106.5 0,-122.5 43,-122.5 43,-106.5 0,-106.5"/>
<text text-anchor="middle" x="21.5" y="-112.9" font-family="Helvetica,sans-Serif" font-size="7.00">QThread</text>
</g>
<!-- Node2&#45;&gt;Node3 -->
<g id="edge2" class="edge"><title>Node2&#45;&gt;Node3</title>
<path fill="none" stroke="midnightblue" d="M105.874,-159.409C89.8564,-151.073 63.0418,-137.119 43.9417,-127.179"/>
<polygon fill="midnightblue" stroke="midnightblue" points="45.4972,-124.043 35.0107,-122.531 42.2657,-130.252 45.4972,-124.043"/>
</g>
<!-- Node4 -->
<g id="node4" class="node"><title>Node4</title>
<polygon fill="none" stroke="#bfbfbf" points="61,-106.5 61,-122.5 108,-122.5 108,-106.5 61,-106.5"/>
<text text-anchor="middle" x="84.5" y="-112.9" font-family="Helvetica,sans-Serif" font-size="7.00">QProcess</text>
</g>
<!-- Node2&#45;&gt;Node4 -->
<g id="edge3" class="edge"><title>Node2&#45;&gt;Node4</title>
<path fill="none" stroke="midnightblue" d="M114.633,-159.409C109.618,-152.101 101.639,-140.474 95.1511,-131.02"/>
<polygon fill="midnightblue" stroke="midnightblue" points="97.8695,-128.796 89.3253,-122.531 92.0979,-132.757 97.8695,-128.796"/>
</g>
<!-- Node5 -->
<g id="node5" class="node"><title>Node5</title>
<g id="a_node5"><a xlink:href="assistance_8h.html" target="_top" xlink:title="assistance.h">
<polygon fill="none" stroke="black" points="126.5,-106.5 126.5,-122.5 182.5,-122.5 182.5,-106.5 126.5,-106.5"/>
<text text-anchor="middle" x="154.5" y="-112.9" font-family="Helvetica,sans-Serif" font-size="7.00">assistance.h</text>
</a>
</g>
</g>
<!-- Node2&#45;&gt;Node5 -->
<g id="edge4" class="edge"><title>Node2&#45;&gt;Node5</title>
<path fill="none" stroke="midnightblue" d="M119.522,-159.409C122.725,-151.873 130.606,-139.743 138.279,-130.141"/>
<polygon fill="midnightblue" stroke="midnightblue" points="140.962,-132.389 144.846,-122.531 135.663,-127.815 140.962,-132.389"/>
</g>
<!-- Node5&#45;&gt;Node2 -->
<g id="edge8" class="edge"><title>Node5&#45;&gt;Node2</title>
<path fill="none" stroke="midnightblue" d="M154.504,-122.531C151.326,-130.043 143.456,-142.166 135.782,-151.783"/>
<polygon fill="midnightblue" stroke="midnightblue" points="133.088,-149.548 129.212,-159.409 138.391,-154.118 133.088,-149.548"/>
</g>
<!-- Node6 -->
<g id="node6" class="node"><title>Node6</title>
<polygon fill="none" stroke="#bfbfbf" points="96.5,-53.5 96.5,-69.5 140.5,-69.5 140.5,-53.5 96.5,-53.5"/>
<text text-anchor="middle" x="118.5" y="-59.9" font-family="Helvetica,sans-Serif" font-size="7.00">QWidget</text>
</g>
<!-- Node5&#45;&gt;Node6 -->
<g id="edge5" class="edge"><title>Node5&#45;&gt;Node6</title>
<path fill="none" stroke="midnightblue" d="M149.494,-106.409C144.282,-99.0248 135.957,-87.2314 129.247,-77.7255"/>
<polygon fill="midnightblue" stroke="midnightblue" points="132.089,-75.6824 123.463,-69.5311 126.371,-79.7192 132.089,-75.6824"/>
</g>
<!-- Node7 -->
<g id="node7" class="node"><title>Node7</title>
<g id="a_node7"><a xlink:href="showwidgets_8h.html" target="_top" xlink:title="showwidgets.h">
<polygon fill="none" stroke="black" points="158.5,-53.5 158.5,-69.5 220.5,-69.5 220.5,-53.5 158.5,-53.5"/>
<text text-anchor="middle" x="189.5" y="-59.9" font-family="Helvetica,sans-Serif" font-size="7.00">showwidgets.h</text>
</a>
</g>
</g>
<!-- Node5&#45;&gt;Node7 -->
<g id="edge6" class="edge"><title>Node5&#45;&gt;Node7</title>
<path fill="none" stroke="midnightblue" d="M159.367,-106.409C164.382,-99.1009 172.361,-87.4741 178.849,-78.0202"/>
<polygon fill="midnightblue" stroke="midnightblue" points="181.902,-79.7567 184.675,-69.5311 176.13,-75.7958 181.902,-79.7567"/>
</g>
<!-- Node8 -->
<g id="node8" class="node"><title>Node8</title>
<polygon fill="none" stroke="#bfbfbf" points="155,-0.5 155,-16.5 224,-16.5 224,-0.5 155,-0.5"/>
<text text-anchor="middle" x="189.5" y="-6.9" font-family="Helvetica,sans-Serif" font-size="7.00">QStackedWidget</text>
</g>
<!-- Node7&#45;&gt;Node8 -->
<g id="edge7" class="edge"><title>Node7&#45;&gt;Node8</title>
<path fill="none" stroke="midnightblue" d="M189.5,-53.4087C189.5,-46.5576 189.5,-35.9106 189.5,-26.8167"/>
<polygon fill="midnightblue" stroke="midnightblue" points="193,-26.5311 189.5,-16.5311 186,-26.5311 193,-26.5311"/>
</g>
</g>
</svg>
