<?xml version="1.0" encoding="UTF-8" standalone="no"?>
<!DOCTYPE svg PUBLIC "-//W3C//DTD SVG 1.1//EN"
 "http://www.w3.org/Graphics/SVG/1.1/DTD/svg11.dtd">
<!-- Generated by graphviz version 2.38.0 (20140413.2041)
 -->
<!-- Title: S:/QT_CREATOR/Locker_Control/threadsavedelivery.h Pages: 1 -->
<svg width="538pt" height="245pt"
 viewBox="0.00 0.00 538.00 245.00" xmlns="http://www.w3.org/2000/svg" xmlns:xlink="http://www.w3.org/1999/xlink">
<g id="graph0" class="graph" transform="scale(1 1) rotate(0) translate(4 241)">
<title>S:/QT_CREATOR/Locker_Control/threadsavedelivery.h</title>
<!-- Node1 -->
<g id="node1" class="node"><title>Node1</title>
<polygon fill="#bfbfbf" stroke="black" points="72.5,-212.5 72.5,-236.5 184.5,-236.5 184.5,-212.5 72.5,-212.5"/>
<text text-anchor="start" x="80.5" y="-226.9" font-family="Helvetica,sans-Serif" font-size="7.00">S:/QT_CREATOR/Locker</text>
<text text-anchor="middle" x="128.5" y="-218.9" font-family="Helvetica,sans-Serif" font-size="7.00">_Control/threadsavedelivery.h</text>
</g>
<!-- Node2 -->
<g id="node2" class="node"><title>Node2</title>
<polygon fill="none" stroke="#bfbfbf" points="0,-159.5 0,-175.5 43,-175.5 43,-159.5 0,-159.5"/>
<text text-anchor="middle" x="21.5" y="-165.9" font-family="Helvetica,sans-Serif" font-size="7.00">QThread</text>
</g>
<!-- Node1&#45;&gt;Node2 -->
<g id="edge1" class="edge"><title>Node1&#45;&gt;Node2</title>
<path fill="none" stroke="midnightblue" d="M106.847,-212.37C88.6465,-203.015 62.7146,-189.685 44.22,-180.179"/>
<polygon fill="midnightblue" stroke="midnightblue" points="45.8008,-177.056 35.3069,-175.597 42.6007,-183.282 45.8008,-177.056"/>
</g>
<!-- Node3 -->
<g id="node3" class="node"><title>Node3</title>
<g id="a_node3"><a xlink:href="clms__db_8h.html" target="_top" xlink:title="clms_db.h">
<polygon fill="none" stroke="black" points="147,-106.5 147,-122.5 196,-122.5 196,-106.5 147,-106.5"/>
<text text-anchor="middle" x="171.5" y="-112.9" font-family="Helvetica,sans-Serif" font-size="7.00">clms_db.h</text>
</a>
</g>
</g>
<!-- Node1&#45;&gt;Node3 -->
<g id="edge2" class="edge"><title>Node1&#45;&gt;Node3</title>
<path fill="none" stroke="midnightblue" d="M140.341,-212.206C148.904,-203.259 159.912,-189.977 165.5,-176 171.023,-162.185 172.283,-145.242 172.3,-132.804"/>
<polygon fill="midnightblue" stroke="midnightblue" points="175.791,-132.414 172.034,-122.508 168.793,-132.595 175.791,-132.414"/>
</g>
<!-- Node4 -->
<g id="node4" class="node"><title>Node4</title>
<g id="a_node4"><a xlink:href="_data_structures_8h.html" target="_top" xlink:title="Definnitions des formats de communications des données entre les classes de l&#39;application LC...">
<polygon fill="none" stroke="red" points="136.5,-53.5 136.5,-69.5 206.5,-69.5 206.5,-53.5 136.5,-53.5"/>
<text text-anchor="middle" x="171.5" y="-59.9" font-family="Helvetica,sans-Serif" font-size="7.00">DataStructures.h</text>
</a>
</g>
</g>
<!-- Node1&#45;&gt;Node4 -->
<g id="edge12" class="edge"><title>Node1&#45;&gt;Node4</title>
<path fill="none" stroke="midnightblue" d="M114.777,-212.359C101.407,-200.056 83.9771,-179.292 90.5,-159 101.863,-123.652 133.771,-92.752 153.982,-75.9432"/>
<polygon fill="midnightblue" stroke="midnightblue" points="156.233,-78.6241 161.833,-69.6303 151.847,-73.1687 156.233,-78.6241"/>
</g>
<!-- Node6 -->
<g id="node6" class="node"><title>Node6</title>
<g id="a_node6"><a xlink:href="csqlite__local__db_8h.html" target="_top" xlink:title="csqlite_local_db.h">
<polygon fill="none" stroke="red" points="292.5,-159.5 292.5,-175.5 364.5,-175.5 364.5,-159.5 292.5,-159.5"/>
<text text-anchor="middle" x="328.5" y="-165.9" font-family="Helvetica,sans-Serif" font-size="7.00">csqlite_local_db.h</text>
</a>
</g>
</g>
<!-- Node1&#45;&gt;Node6 -->
<g id="edge5" class="edge"><title>Node1&#45;&gt;Node6</title>
<path fill="none" stroke="midnightblue" d="M168.973,-212.37C205.437,-202.342 258.504,-187.749 293.259,-178.191"/>
<polygon fill="midnightblue" stroke="midnightblue" points="294.269,-181.544 302.983,-175.517 292.412,-174.794 294.269,-181.544"/>
</g>
<!-- Node10 -->
<g id="node10" class="node"><title>Node10</title>
<g id="a_node10"><a xlink:href="customxml_8h.html" target="_top" xlink:title="customxml.h">
<polygon fill="none" stroke="red" points="100,-159.5 100,-175.5 157,-175.5 157,-159.5 100,-159.5"/>
<text text-anchor="middle" x="128.5" y="-165.9" font-family="Helvetica,sans-Serif" font-size="7.00">customxml.h</text>
</a>
</g>
</g>
<!-- Node1&#45;&gt;Node10 -->
<g id="edge13" class="edge"><title>Node1&#45;&gt;Node10</title>
<path fill="none" stroke="midnightblue" d="M128.5,-212.37C128.5,-204.775 128.5,-194.56 128.5,-185.899"/>
<polygon fill="midnightblue" stroke="midnightblue" points="132,-185.757 128.5,-175.757 125,-185.758 132,-185.757"/>
</g>
<!-- Node3&#45;&gt;Node4 -->
<g id="edge3" class="edge"><title>Node3&#45;&gt;Node4</title>
<path fill="none" stroke="midnightblue" d="M171.5,-106.409C171.5,-99.5576 171.5,-88.9106 171.5,-79.8167"/>
<polygon fill="midnightblue" stroke="midnightblue" points="175,-79.5311 171.5,-69.5311 168,-79.5311 175,-79.5311"/>
</g>
<!-- Node5 -->
<g id="node5" class="node"><title>Node5</title>
<polygon fill="none" stroke="#bfbfbf" points="275.5,-0.5 275.5,-16.5 315.5,-16.5 315.5,-0.5 275.5,-0.5"/>
<text text-anchor="middle" x="295.5" y="-6.9" font-family="Helvetica,sans-Serif" font-size="7.00">QString</text>
</g>
<!-- Node4&#45;&gt;Node5 -->
<g id="edge4" class="edge"><title>Node4&#45;&gt;Node5</title>
<path fill="none" stroke="midnightblue" d="M188.742,-53.4087C209.563,-44.8449 244.806,-30.3498 269.068,-20.3711"/>
<polygon fill="midnightblue" stroke="midnightblue" points="270.488,-23.5718 278.405,-16.5311 267.825,-17.098 270.488,-23.5718"/>
</g>
<!-- Node6&#45;&gt;Node3 -->
<g id="edge11" class="edge"><title>Node6&#45;&gt;Node3</title>
<path fill="none" stroke="midnightblue" d="M306.67,-159.409C279.721,-150.655 233.693,-135.703 202.939,-125.713"/>
<polygon fill="midnightblue" stroke="midnightblue" points="203.737,-122.292 193.145,-122.531 201.574,-128.949 203.737,-122.292"/>
</g>
<!-- Node6&#45;&gt;Node4 -->
<g id="edge10" class="edge"><title>Node6&#45;&gt;Node4</title>
<path fill="none" stroke="midnightblue" d="M338.079,-159.359C352.727,-147.582 377.586,-123.635 363.5,-106 345.49,-83.4526 267.697,-71.7236 216.828,-66.3515"/>
<polygon fill="midnightblue" stroke="midnightblue" points="217.027,-62.8539 206.726,-65.3302 216.323,-69.8184 217.027,-62.8539"/>
</g>
<!-- Node6&#45;&gt;Node5 -->
<g id="edge6" class="edge"><title>Node6&#45;&gt;Node5</title>
<path fill="none" stroke="midnightblue" d="M342.206,-159.451C360.067,-149.205 388.071,-128.901 379.5,-106 366.284,-70.6881 333.661,-39.7764 313.179,-22.9556"/>
<polygon fill="midnightblue" stroke="midnightblue" points="315.242,-20.1237 305.237,-16.6376 310.884,-25.602 315.242,-20.1237"/>
</g>
<!-- Node7 -->
<g id="node7" class="node"><title>Node7</title>
<polygon fill="none" stroke="#bfbfbf" points="449,-106.5 449,-122.5 530,-122.5 530,-106.5 449,-106.5"/>
<text text-anchor="middle" x="489.5" y="-112.9" font-family="Helvetica,sans-Serif" font-size="7.00">QtSql/QSqlDatabase</text>
</g>
<!-- Node6&#45;&gt;Node7 -->
<g id="edge7" class="edge"><title>Node6&#45;&gt;Node7</title>
<path fill="none" stroke="midnightblue" d="M350.886,-159.409C378.642,-150.617 426.134,-135.573 457.67,-125.583"/>
<polygon fill="midnightblue" stroke="midnightblue" points="458.828,-128.888 467.304,-122.531 456.714,-122.214 458.828,-128.888"/>
</g>
<!-- Node8 -->
<g id="node8" class="node"><title>Node8</title>
<polygon fill="none" stroke="#bfbfbf" points="214,-106.5 214,-122.5 285,-122.5 285,-106.5 214,-106.5"/>
<text text-anchor="middle" x="249.5" y="-112.9" font-family="Helvetica,sans-Serif" font-size="7.00">QtSql/QSqlDriver</text>
</g>
<!-- Node6&#45;&gt;Node8 -->
<g id="edge8" class="edge"><title>Node6&#45;&gt;Node8</title>
<path fill="none" stroke="midnightblue" d="M317.515,-159.409C305.016,-151.34 284.361,-138.005 269.086,-128.144"/>
<polygon fill="midnightblue" stroke="midnightblue" points="270.691,-125.014 260.391,-122.531 266.894,-130.895 270.691,-125.014"/>
</g>
<!-- Node9 -->
<g id="node9" class="node"><title>Node9</title>
<polygon fill="none" stroke="#bfbfbf" points="303,-106.5 303,-122.5 354,-122.5 354,-106.5 303,-106.5"/>
<text text-anchor="middle" x="328.5" y="-112.9" font-family="Helvetica,sans-Serif" font-size="7.00">QSqlQuery</text>
</g>
<!-- Node6&#45;&gt;Node9 -->
<g id="edge9" class="edge"><title>Node6&#45;&gt;Node9</title>
<path fill="none" stroke="midnightblue" d="M328.5,-159.409C328.5,-152.558 328.5,-141.911 328.5,-132.817"/>
<polygon fill="midnightblue" stroke="midnightblue" points="332,-132.531 328.5,-122.531 325,-132.531 332,-132.531"/>
</g>
<!-- Node10&#45;&gt;Node4 -->
<g id="edge14" class="edge"><title>Node10&#45;&gt;Node4</title>
<path fill="none" stroke="midnightblue" d="M128.403,-159.474C128.487,-147.863 129.708,-124.149 137.5,-106 142.054,-95.3922 149.849,-85.1375 156.827,-77.2516"/>
<polygon fill="midnightblue" stroke="midnightblue" points="159.601,-79.4094 163.886,-69.7196 154.494,-74.6226 159.601,-79.4094"/>
</g>
</g>
</svg>
