<?xml version="1.0" encoding="UTF-8" standalone="no"?>
<!DOCTYPE svg PUBLIC "-//W3C//DTD SVG 1.1//EN"
 "http://www.w3.org/Graphics/SVG/1.1/DTD/svg11.dtd">
<!-- Generated by graphviz version 2.38.0 (20140413.2041)
 -->
<!-- Title: S:/QT_CREATOR/Locker_Control/threadsavedelivery.h Pages: 1 -->
<svg width="556pt" height="245pt"
 viewBox="0.00 0.00 556.00 245.00" xmlns="http://www.w3.org/2000/svg" xmlns:xlink="http://www.w3.org/1999/xlink">
<g id="graph0" class="graph" transform="scale(1 1) rotate(0) translate(4 241)">
<title>S:/QT_CREATOR/Locker_Control/threadsavedelivery.h</title>
<!-- Node1 -->
<g id="node1" class="node"><title>Node1</title>
<polygon fill="#bfbfbf" stroke="black" points="38.5,-212.5 38.5,-236.5 150.5,-236.5 150.5,-212.5 38.5,-212.5"/>
<text text-anchor="start" x="46.5" y="-226.9" font-family="Helvetica,sans-Serif" font-size="7.00">S:/QT_CREATOR/Locker</text>
<text text-anchor="middle" x="94.5" y="-218.9" font-family="Helvetica,sans-Serif" font-size="7.00">_Control/threadsavedelivery.h</text>
</g>
<!-- Node2 -->
<g id="node2" class="node"><title>Node2</title>
<polygon fill="none" stroke="#bfbfbf" points="0,-159.5 0,-175.5 43,-175.5 43,-159.5 0,-159.5"/>
<text text-anchor="middle" x="21.5" y="-165.9" font-family="Helvetica,sans-Serif" font-size="7.00">QThread</text>
</g>
<!-- Node1&#45;&gt;Node2 -->
<g id="edge1" class="edge"><title>Node1&#45;&gt;Node2</title>
<path fill="none" stroke="midnightblue" d="M79.7274,-212.37C68.0608,-203.58 51.7379,-191.282 39.342,-181.943"/>
<polygon fill="midnightblue" stroke="midnightblue" points="41.2256,-178.98 31.1326,-175.757 37.0134,-184.57 41.2256,-178.98"/>
</g>
<!-- Node3 -->
<g id="node3" class="node"><title>Node3</title>
<g id="a_node3"><a xlink:href="clms__db_8h.html" target="_top" xlink:title="clms_db.h">
<polygon fill="none" stroke="black" points="100,-106.5 100,-122.5 149,-122.5 149,-106.5 100,-106.5"/>
<text text-anchor="middle" x="124.5" y="-112.9" font-family="Helvetica,sans-Serif" font-size="7.00">clms_db.h</text>
</a>
</g>
</g>
<!-- Node1&#45;&gt;Node3 -->
<g id="edge2" class="edge"><title>Node1&#45;&gt;Node3</title>
<path fill="none" stroke="midnightblue" d="M97.5975,-212.349C102.874,-193.354 113.634,-154.616 119.828,-132.319"/>
<polygon fill="midnightblue" stroke="midnightblue" points="123.224,-133.171 122.528,-122.599 116.479,-131.298 123.224,-133.171"/>
</g>
<!-- Node4 -->
<g id="node4" class="node"><title>Node4</title>
<g id="a_node4"><a xlink:href="_data_structures_8h.html" target="_top" xlink:title="Definnitions des formats de communications des données entre les classes de l&#39;application LC...">
<polygon fill="none" stroke="red" points="103.5,-53.5 103.5,-69.5 173.5,-69.5 173.5,-53.5 103.5,-53.5"/>
<text text-anchor="middle" x="138.5" y="-59.9" font-family="Helvetica,sans-Serif" font-size="7.00">DataStructures.h</text>
</a>
</g>
</g>
<!-- Node1&#45;&gt;Node4 -->
<g id="edge13" class="edge"><title>Node1&#45;&gt;Node4</title>
<path fill="none" stroke="midnightblue" d="M90.9919,-212.197C84.9158,-190.509 74.5352,-142.013 90.5,-106 96.0697,-93.4359 107.26,-82.9546 117.435,-75.4306"/>
<polygon fill="midnightblue" stroke="midnightblue" points="119.675,-78.139 125.949,-69.6019 115.72,-72.3629 119.675,-78.139"/>
</g>
<!-- Node6 -->
<g id="node6" class="node"><title>Node6</title>
<g id="a_node6"><a xlink:href="csqlite__local__db_8h.html" target="_top" xlink:title="csqlite_local_db.h">
<polygon fill="none" stroke="red" points="213.5,-159.5 213.5,-175.5 285.5,-175.5 285.5,-159.5 213.5,-159.5"/>
<text text-anchor="middle" x="249.5" y="-165.9" font-family="Helvetica,sans-Serif" font-size="7.00">csqlite_local_db.h</text>
</a>
</g>
</g>
<!-- Node1&#45;&gt;Node6 -->
<g id="edge5" class="edge"><title>Node1&#45;&gt;Node6</title>
<path fill="none" stroke="midnightblue" d="M125.867,-212.37C153.32,-202.628 192.917,-188.578 219.849,-179.021"/>
<polygon fill="midnightblue" stroke="midnightblue" points="221.246,-182.24 229.499,-175.597 218.905,-175.643 221.246,-182.24"/>
</g>
<!-- Node3&#45;&gt;Node4 -->
<g id="edge3" class="edge"><title>Node3&#45;&gt;Node4</title>
<path fill="none" stroke="midnightblue" d="M126.447,-106.409C128.369,-99.4054 131.38,-88.4355 133.912,-79.2128"/>
<polygon fill="midnightblue" stroke="midnightblue" points="137.298,-80.1009 136.57,-69.5311 130.548,-78.2478 137.298,-80.1009"/>
</g>
<!-- Node5 -->
<g id="node5" class="node"><title>Node5</title>
<polygon fill="none" stroke="#bfbfbf" points="156.5,-0.5 156.5,-16.5 196.5,-16.5 196.5,-0.5 156.5,-0.5"/>
<text text-anchor="middle" x="176.5" y="-6.9" font-family="Helvetica,sans-Serif" font-size="7.00">QString</text>
</g>
<!-- Node4&#45;&gt;Node5 -->
<g id="edge4" class="edge"><title>Node4&#45;&gt;Node5</title>
<path fill="none" stroke="midnightblue" d="M143.784,-53.4087C149.285,-46.0248 158.073,-34.2314 165.155,-24.7255"/>
<polygon fill="midnightblue" stroke="midnightblue" points="168.093,-26.6412 171.261,-16.5311 162.48,-22.4588 168.093,-26.6412"/>
</g>
<!-- Node6&#45;&gt;Node3 -->
<g id="edge12" class="edge"><title>Node6&#45;&gt;Node3</title>
<path fill="none" stroke="midnightblue" d="M232.119,-159.409C211.13,-150.845 175.603,-136.35 151.145,-126.371"/>
<polygon fill="midnightblue" stroke="midnightblue" points="152.314,-123.068 141.733,-122.531 149.67,-129.549 152.314,-123.068"/>
</g>
<!-- Node6&#45;&gt;Node4 -->
<g id="edge11" class="edge"><title>Node6&#45;&gt;Node4</title>
<path fill="none" stroke="midnightblue" d="M241.622,-159.486C232.06,-150.945 215.48,-136.042 201.5,-123 184.764,-107.387 165.862,-89.153 153.167,-76.8166"/>
<polygon fill="midnightblue" stroke="midnightblue" points="155.412,-74.1172 145.806,-69.6483 150.528,-79.1323 155.412,-74.1172"/>
</g>
<!-- Node6&#45;&gt;Node5 -->
<g id="edge6" class="edge"><title>Node6&#45;&gt;Node5</title>
<path fill="none" stroke="midnightblue" d="M246.174,-159.346C235.2,-135.746 199.953,-59.939 184.215,-26.0916"/>
<polygon fill="midnightblue" stroke="midnightblue" points="187.236,-24.288 179.846,-16.696 180.888,-27.2394 187.236,-24.288"/>
</g>
<!-- Node7 -->
<g id="node7" class="node"><title>Node7</title>
<polygon fill="none" stroke="#bfbfbf" points="244,-106.5 244,-122.5 325,-122.5 325,-106.5 244,-106.5"/>
<text text-anchor="middle" x="284.5" y="-112.9" font-family="Helvetica,sans-Serif" font-size="7.00">QtSql/QSqlDatabase</text>
</g>
<!-- Node6&#45;&gt;Node7 -->
<g id="edge7" class="edge"><title>Node6&#45;&gt;Node7</title>
<path fill="none" stroke="midnightblue" d="M254.367,-159.409C259.382,-152.101 267.361,-140.474 273.849,-131.02"/>
<polygon fill="midnightblue" stroke="midnightblue" points="276.902,-132.757 279.675,-122.531 271.13,-128.796 276.902,-132.757"/>
</g>
<!-- Node8 -->
<g id="node8" class="node"><title>Node8</title>
<polygon fill="none" stroke="#bfbfbf" points="343,-106.5 343,-122.5 414,-122.5 414,-106.5 343,-106.5"/>
<text text-anchor="middle" x="378.5" y="-112.9" font-family="Helvetica,sans-Serif" font-size="7.00">QtSql/QSqlDriver</text>
</g>
<!-- Node6&#45;&gt;Node8 -->
<g id="edge8" class="edge"><title>Node6&#45;&gt;Node8</title>
<path fill="none" stroke="midnightblue" d="M267.437,-159.409C289.195,-150.807 326.088,-136.221 351.338,-126.238"/>
<polygon fill="midnightblue" stroke="midnightblue" points="352.703,-129.463 360.715,-122.531 350.129,-122.953 352.703,-129.463"/>
</g>
<!-- Node9 -->
<g id="node9" class="node"><title>Node9</title>
<polygon fill="none" stroke="#bfbfbf" points="432,-106.5 432,-122.5 483,-122.5 483,-106.5 432,-106.5"/>
<text text-anchor="middle" x="457.5" y="-112.9" font-family="Helvetica,sans-Serif" font-size="7.00">QSqlQuery</text>
</g>
<!-- Node6&#45;&gt;Node9 -->
<g id="edge9" class="edge"><title>Node6&#45;&gt;Node9</title>
<path fill="none" stroke="midnightblue" d="M278.422,-159.409C315.982,-150.199 381.518,-134.13 422.037,-124.195"/>
<polygon fill="midnightblue" stroke="midnightblue" points="422.888,-127.59 431.767,-121.81 421.221,-120.792 422.888,-127.59"/>
</g>
<!-- Node10 -->
<g id="node10" class="node"><title>Node10</title>
<polygon fill="none" stroke="#bfbfbf" points="501,-106.5 501,-122.5 548,-122.5 548,-106.5 501,-106.5"/>
<text text-anchor="middle" x="524.5" y="-112.9" font-family="Helvetica,sans-Serif" font-size="7.00">QSqlError</text>
</g>
<!-- Node6&#45;&gt;Node10 -->
<g id="edge10" class="edge"><title>Node6&#45;&gt;Node10</title>
<path fill="none" stroke="midnightblue" d="M285.844,-160.613C331.501,-153.081 412.477,-139.276 490.741,-123.275"/>
<polygon fill="midnightblue" stroke="midnightblue" points="491.677,-126.656 500.765,-121.211 490.265,-119.8 491.677,-126.656"/>
</g>
</g>
</svg>
