<?xml version="1.0" encoding="UTF-8" standalone="no"?>
<!DOCTYPE svg PUBLIC "-//W3C//DTD SVG 1.1//EN"
 "http://www.w3.org/Graphics/SVG/1.1/DTD/svg11.dtd">
<!-- Generated by graphviz version 2.38.0 (20140413.2041)
 -->
<!-- Title: S:/QT_CREATOR/Locker_Control/thread_linphonec.h Pages: 1 -->
<svg width="232pt" height="192pt"
 viewBox="0.00 0.00 232.00 192.00" xmlns="http://www.w3.org/2000/svg" xmlns:xlink="http://www.w3.org/1999/xlink">
<g id="graph0" class="graph" transform="scale(1 1) rotate(0) translate(4 188)">
<title>S:/QT_CREATOR/Locker_Control/thread_linphonec.h</title>
<!-- Node1 -->
<g id="node1" class="node"><title>Node1</title>
<polygon fill="#bfbfbf" stroke="black" points="67.5,-159.5 67.5,-183.5 171.5,-183.5 171.5,-159.5 67.5,-159.5"/>
<text text-anchor="start" x="75.5" y="-173.9" font-family="Helvetica,sans-Serif" font-size="7.00">S:/QT_CREATOR/Locker</text>
<text text-anchor="middle" x="119.5" y="-165.9" font-family="Helvetica,sans-Serif" font-size="7.00">_Control/thread_linphonec.h</text>
</g>
<!-- Node2 -->
<g id="node2" class="node"><title>Node2</title>
<polygon fill="none" stroke="#bfbfbf" points="0,-106.5 0,-122.5 43,-122.5 43,-106.5 0,-106.5"/>
<text text-anchor="middle" x="21.5" y="-112.9" font-family="Helvetica,sans-Serif" font-size="7.00">QThread</text>
</g>
<!-- Node1&#45;&gt;Node2 -->
<g id="edge1" class="edge"><title>Node1&#45;&gt;Node2</title>
<path fill="none" stroke="midnightblue" d="M99.6682,-159.37C83.3045,-150.186 60.1171,-137.173 43.2482,-127.706"/>
<polygon fill="midnightblue" stroke="midnightblue" points="44.579,-124.439 34.1456,-122.597 41.1531,-130.543 44.579,-124.439"/>
</g>
<!-- Node3 -->
<g id="node3" class="node"><title>Node3</title>
<polygon fill="none" stroke="#bfbfbf" points="61,-106.5 61,-122.5 108,-122.5 108,-106.5 61,-106.5"/>
<text text-anchor="middle" x="84.5" y="-112.9" font-family="Helvetica,sans-Serif" font-size="7.00">QProcess</text>
</g>
<!-- Node1&#45;&gt;Node3 -->
<g id="edge2" class="edge"><title>Node1&#45;&gt;Node3</title>
<path fill="none" stroke="midnightblue" d="M112.417,-159.37C107.312,-151.348 100.348,-140.404 94.6527,-131.454"/>
<polygon fill="midnightblue" stroke="midnightblue" points="97.44,-129.315 89.1184,-122.757 91.5344,-133.073 97.44,-129.315"/>
</g>
<!-- Node4 -->
<g id="node4" class="node"><title>Node4</title>
<g id="a_node4"><a xlink:href="assistance_8h.html" target="_top" xlink:title="assistance.h">
<polygon fill="none" stroke="black" points="126.5,-106.5 126.5,-122.5 182.5,-122.5 182.5,-106.5 126.5,-106.5"/>
<text text-anchor="middle" x="154.5" y="-112.9" font-family="Helvetica,sans-Serif" font-size="7.00">assistance.h</text>
</a>
</g>
</g>
<!-- Node1&#45;&gt;Node4 -->
<g id="edge3" class="edge"><title>Node1&#45;&gt;Node4</title>
<path fill="none" stroke="midnightblue" d="M121.034,-159.37C124.911,-151.092 131.976,-139.703 138.789,-130.604"/>
<polygon fill="midnightblue" stroke="midnightblue" points="141.568,-132.734 145.133,-122.757 136.124,-128.333 141.568,-132.734"/>
</g>
<!-- Node4&#45;&gt;Node1 -->
<g id="edge7" class="edge"><title>Node4&#45;&gt;Node1</title>
<path fill="none" stroke="midnightblue" d="M154.63,-122.757C151.861,-129.987 145.172,-141.401 138.219,-151.255"/>
<polygon fill="midnightblue" stroke="midnightblue" points="135.333,-149.27 132.131,-159.37 140.932,-153.471 135.333,-149.27"/>
</g>
<!-- Node5 -->
<g id="node5" class="node"><title>Node5</title>
<polygon fill="none" stroke="#bfbfbf" points="96.5,-53.5 96.5,-69.5 140.5,-69.5 140.5,-53.5 96.5,-53.5"/>
<text text-anchor="middle" x="118.5" y="-59.9" font-family="Helvetica,sans-Serif" font-size="7.00">QWidget</text>
</g>
<!-- Node4&#45;&gt;Node5 -->
<g id="edge4" class="edge"><title>Node4&#45;&gt;Node5</title>
<path fill="none" stroke="midnightblue" d="M149.494,-106.409C144.282,-99.0248 135.957,-87.2314 129.247,-77.7255"/>
<polygon fill="midnightblue" stroke="midnightblue" points="132.089,-75.6824 123.463,-69.5311 126.371,-79.7192 132.089,-75.6824"/>
</g>
<!-- Node6 -->
<g id="node6" class="node"><title>Node6</title>
<g id="a_node6"><a xlink:href="showwidgets_8h.html" target="_top" xlink:title="showwidgets.h">
<polygon fill="none" stroke="black" points="158.5,-53.5 158.5,-69.5 220.5,-69.5 220.5,-53.5 158.5,-53.5"/>
<text text-anchor="middle" x="189.5" y="-59.9" font-family="Helvetica,sans-Serif" font-size="7.00">showwidgets.h</text>
</a>
</g>
</g>
<!-- Node4&#45;&gt;Node6 -->
<g id="edge5" class="edge"><title>Node4&#45;&gt;Node6</title>
<path fill="none" stroke="midnightblue" d="M159.367,-106.409C164.382,-99.1009 172.361,-87.4741 178.849,-78.0202"/>
<polygon fill="midnightblue" stroke="midnightblue" points="181.902,-79.7567 184.675,-69.5311 176.13,-75.7958 181.902,-79.7567"/>
</g>
<!-- Node7 -->
<g id="node7" class="node"><title>Node7</title>
<polygon fill="none" stroke="#bfbfbf" points="155,-0.5 155,-16.5 224,-16.5 224,-0.5 155,-0.5"/>
<text text-anchor="middle" x="189.5" y="-6.9" font-family="Helvetica,sans-Serif" font-size="7.00">QStackedWidget</text>
</g>
<!-- Node6&#45;&gt;Node7 -->
<g id="edge6" class="edge"><title>Node6&#45;&gt;Node7</title>
<path fill="none" stroke="midnightblue" d="M189.5,-53.4087C189.5,-46.5576 189.5,-35.9106 189.5,-26.8167"/>
<polygon fill="midnightblue" stroke="midnightblue" points="193,-26.5311 189.5,-16.5311 186,-26.5311 193,-26.5311"/>
</g>
</g>
</svg>
