<?xml version="1.0" encoding="UTF-8" standalone="no"?>
<!DOCTYPE svg PUBLIC "-//W3C//DTD SVG 1.1//EN"
 "http://www.w3.org/Graphics/SVG/1.1/DTD/svg11.dtd">
<!-- Generated by graphviz version 2.38.0 (20140413.2041)
 -->
<!-- Title: S:/QT_CREATOR/Locker_Control/thread_localdatabase_autosave.cpp Pages: 1 -->
<svg width="291pt" height="261pt"
 viewBox="0.00 0.00 291.26 261.00" xmlns="http://www.w3.org/2000/svg" xmlns:xlink="http://www.w3.org/1999/xlink">
<g id="graph0" class="graph" transform="scale(1 1) rotate(0) translate(4 257)">
<title>S:/QT_CREATOR/Locker_Control/thread_localdatabase_autosave.cpp</title>
<!-- Node1 -->
<g id="node1" class="node"><title>Node1</title>
<polygon fill="#bfbfbf" stroke="black" points="41.7622,-220.5 41.7622,-252.5 152.762,-252.5 152.762,-220.5 41.7622,-220.5"/>
<text text-anchor="start" x="49.7622" y="-242.9" font-family="Helvetica,sans-Serif" font-size="7.00">S:/QT_CREATOR/Locker</text>
<text text-anchor="start" x="49.7622" y="-234.9" font-family="Helvetica,sans-Serif" font-size="7.00">_Control/thread_localdatabase</text>
<text text-anchor="middle" x="97.2622" y="-226.9" font-family="Helvetica,sans-Serif" font-size="7.00">_autosave.cpp</text>
</g>
<!-- Node2 -->
<g id="node2" class="node"><title>Node2</title>
<polygon fill="none" stroke="#bfbfbf" points="36.2622,-163.5 36.2622,-179.5 78.2622,-179.5 78.2622,-163.5 36.2622,-163.5"/>
<text text-anchor="middle" x="57.2622" y="-169.9" font-family="Helvetica,sans-Serif" font-size="7.00">QDebug</text>
</g>
<!-- Node1&#45;&gt;Node2 -->
<g id="edge1" class="edge"><title>Node1&#45;&gt;Node2</title>
<path fill="none" stroke="midnightblue" d="M87.5793,-220.249C81.4753,-210.636 73.6057,-198.241 67.4141,-188.489"/>
<polygon fill="midnightblue" stroke="midnightblue" points="70.2243,-186.385 61.9094,-179.819 64.3148,-190.137 70.2243,-186.385"/>
</g>
<!-- Node3 -->
<g id="node3" class="node"><title>Node3</title>
<g id="a_node3"><a xlink:href="thread__localdatabase__autosave_8h.html" target="_top" xlink:title="thread_localdatabase\l_autosave.h">
<polygon fill="none" stroke="black" points="96.7622,-159.5 96.7622,-183.5 179.762,-183.5 179.762,-159.5 96.7622,-159.5"/>
<text text-anchor="start" x="104.762" y="-173.9" font-family="Helvetica,sans-Serif" font-size="7.00">thread_localdatabase</text>
<text text-anchor="middle" x="138.262" y="-165.9" font-family="Helvetica,sans-Serif" font-size="7.00">_autosave.h</text>
</a>
</g>
</g>
<!-- Node1&#45;&gt;Node3 -->
<g id="edge2" class="edge"><title>Node1&#45;&gt;Node3</title>
<path fill="none" stroke="midnightblue" d="M107.187,-220.249C112.662,-211.837 119.522,-201.296 125.403,-192.259"/>
<polygon fill="midnightblue" stroke="midnightblue" points="128.349,-194.149 130.87,-183.859 122.482,-190.331 128.349,-194.149"/>
</g>
<!-- Node4 -->
<g id="node4" class="node"><title>Node4</title>
<polygon fill="none" stroke="#bfbfbf" points="94.2622,-0.5 94.2622,-16.5 136.262,-16.5 136.262,-0.5 94.2622,-0.5"/>
<text text-anchor="middle" x="115.262" y="-6.9" font-family="Helvetica,sans-Serif" font-size="7.00">QObject</text>
</g>
<!-- Node3&#45;&gt;Node4 -->
<g id="edge3" class="edge"><title>Node3&#45;&gt;Node4</title>
<path fill="none" stroke="midnightblue" d="M96.6401,-160.184C63.3759,-151.069 20.5171,-137.071 9.26221,-123 -5.57894,-104.445 3.82112,-93.7089 2.26221,-70 1.76648,-62.4607 -2.01434,-59.2288 2.26221,-53 20.4343,-26.5325 57.1425,-16.163 83.8023,-12.104"/>
<polygon fill="midnightblue" stroke="midnightblue" points="84.3572,-15.5613 93.821,-10.7982 83.4525,-8.62003 84.3572,-15.5613"/>
</g>
<!-- Node5 -->
<g id="node5" class="node"><title>Node5</title>
<polygon fill="none" stroke="#bfbfbf" points="18.7622,-106.5 18.7622,-122.5 61.7622,-122.5 61.7622,-106.5 18.7622,-106.5"/>
<text text-anchor="middle" x="40.2622" y="-112.9" font-family="Helvetica,sans-Serif" font-size="7.00">QThread</text>
</g>
<!-- Node3&#45;&gt;Node5 -->
<g id="edge4" class="edge"><title>Node3&#45;&gt;Node5</title>
<path fill="none" stroke="midnightblue" d="M118.43,-159.37C102.067,-150.186 78.8793,-137.173 62.0104,-127.706"/>
<polygon fill="midnightblue" stroke="midnightblue" points="63.3413,-124.439 52.9078,-122.597 59.9153,-130.543 63.3413,-124.439"/>
</g>
<!-- Node6 -->
<g id="node6" class="node"><title>Node6</title>
<g id="a_node6"><a xlink:href="sqlite__local__databasemanager_8h.html" target="_top" xlink:title="sqlite_local_databasemanager.h">
<polygon fill="none" stroke="red" points="80.2622,-106.5 80.2622,-122.5 196.262,-122.5 196.262,-106.5 80.2622,-106.5"/>
<text text-anchor="middle" x="138.262" y="-112.9" font-family="Helvetica,sans-Serif" font-size="7.00">sqlite_local_databasemanager.h</text>
</a>
</g>
</g>
<!-- Node3&#45;&gt;Node6 -->
<g id="edge5" class="edge"><title>Node3&#45;&gt;Node6</title>
<path fill="none" stroke="midnightblue" d="M132.714,-159.37C131.438,-151.775 131.178,-141.56 131.934,-132.899"/>
<polygon fill="midnightblue" stroke="midnightblue" points="135.433,-133.177 133.514,-122.757 128.517,-132.1 135.433,-133.177"/>
</g>
<!-- Node10 -->
<g id="node10" class="node"><title>Node10</title>
<g id="a_node10"><a xlink:href="csqlite__local__db_8h.html" target="_top" xlink:title="csqlite_local_db.h">
<polygon fill="none" stroke="red" points="211.262,-53.5 211.262,-69.5 283.262,-69.5 283.262,-53.5 211.262,-53.5"/>
<text text-anchor="middle" x="247.262" y="-59.9" font-family="Helvetica,sans-Serif" font-size="7.00">csqlite_local_db.h</text>
</a>
</g>
</g>
<!-- Node3&#45;&gt;Node10 -->
<g id="edge12" class="edge"><title>Node3&#45;&gt;Node10</title>
<path fill="none" stroke="midnightblue" d="M157.515,-159.375C171.691,-150.612 190.916,-137.489 205.262,-123 218.597,-109.533 230.57,-91.3796 238.288,-78.4808"/>
<polygon fill="midnightblue" stroke="midnightblue" points="241.329,-80.2135 243.312,-69.806 235.271,-76.705 241.329,-80.2135"/>
</g>
<!-- Node6&#45;&gt;Node3 -->
<g id="edge11" class="edge"><title>Node6&#45;&gt;Node3</title>
<path fill="none" stroke="midnightblue" d="M143.011,-122.757C144.713,-129.476 145.329,-139.808 144.86,-149.144"/>
<polygon fill="midnightblue" stroke="midnightblue" points="141.35,-149.065 143.811,-159.37 148.313,-149.779 141.35,-149.065"/>
</g>
<!-- Node7 -->
<g id="node7" class="node"><title>Node7</title>
<polygon fill="none" stroke="#bfbfbf" points="11.2622,-53.5 11.2622,-69.5 55.2622,-69.5 55.2622,-53.5 11.2622,-53.5"/>
<text text-anchor="middle" x="33.2622" y="-59.9" font-family="Helvetica,sans-Serif" font-size="7.00">QWidget</text>
</g>
<!-- Node6&#45;&gt;Node7 -->
<g id="edge6" class="edge"><title>Node6&#45;&gt;Node7</title>
<path fill="none" stroke="midnightblue" d="M123.662,-106.409C106.345,-97.9971 77.2455,-83.8633 56.7483,-73.9075"/>
<polygon fill="midnightblue" stroke="midnightblue" points="58.2623,-70.7519 47.738,-69.5311 55.2039,-77.0485 58.2623,-70.7519"/>
</g>
<!-- Node8 -->
<g id="node8" class="node"><title>Node8</title>
<polygon fill="none" stroke="#bfbfbf" points="73.7622,-53.5 73.7622,-69.5 112.762,-69.5 112.762,-53.5 73.7622,-53.5"/>
<text text-anchor="middle" x="93.2622" y="-59.9" font-family="Helvetica,sans-Serif" font-size="7.00">QTimer</text>
</g>
<!-- Node6&#45;&gt;Node8 -->
<g id="edge7" class="edge"><title>Node6&#45;&gt;Node8</title>
<path fill="none" stroke="midnightblue" d="M132.005,-106.409C125.356,-98.8725 114.653,-86.7432 106.18,-77.1405"/>
<polygon fill="midnightblue" stroke="midnightblue" points="108.707,-74.7138 99.4661,-69.5311 103.458,-79.3452 108.707,-74.7138"/>
</g>
<!-- Node9 -->
<g id="node9" class="node"><title>Node9</title>
<g id="a_node9"><a xlink:href="showwidgets_8h.html" target="_top" xlink:title="showwidgets.h">
<polygon fill="none" stroke="red" points="131.262,-53.5 131.262,-69.5 193.262,-69.5 193.262,-53.5 131.262,-53.5"/>
<text text-anchor="middle" x="162.262" y="-59.9" font-family="Helvetica,sans-Serif" font-size="7.00">showwidgets.h</text>
</a>
</g>
</g>
<!-- Node6&#45;&gt;Node9 -->
<g id="edge8" class="edge"><title>Node6&#45;&gt;Node9</title>
<path fill="none" stroke="midnightblue" d="M141.599,-106.409C144.967,-99.2531 150.283,-87.9567 154.679,-78.6139"/>
<polygon fill="midnightblue" stroke="midnightblue" points="157.862,-80.0696 158.953,-69.5311 151.529,-77.089 157.862,-80.0696"/>
</g>
<!-- Node6&#45;&gt;Node10 -->
<g id="edge9" class="edge"><title>Node6&#45;&gt;Node10</title>
<path fill="none" stroke="midnightblue" d="M153.418,-106.409C171.477,-97.9591 201.877,-83.7353 223.17,-73.7726"/>
<polygon fill="midnightblue" stroke="midnightblue" points="224.661,-76.9393 232.235,-69.5311 221.694,-70.599 224.661,-76.9393"/>
</g>
<!-- Node10&#45;&gt;Node4 -->
<g id="edge10" class="edge"><title>Node10&#45;&gt;Node4</title>
<path fill="none" stroke="midnightblue" d="M228.908,-53.4087C206.645,-44.8068 168.893,-30.2209 143.056,-20.2383"/>
<polygon fill="midnightblue" stroke="midnightblue" points="144.05,-16.8704 133.46,-16.5311 141.527,-23.4 144.05,-16.8704"/>
</g>
</g>
</svg>
