<?xml version="1.0" encoding="UTF-8" standalone="no"?>
<!DOCTYPE svg PUBLIC "-//W3C//DTD SVG 1.1//EN"
 "http://www.w3.org/Graphics/SVG/1.1/DTD/svg11.dtd">
<!-- Generated by graphviz version 2.38.0 (20140413.2041)
 -->
<!-- Title: S:/QT_CREATOR/Locker_Control/threadsavedelivery.cpp Pages: 1 -->
<svg width="414pt" height="298pt"
 viewBox="0.00 0.00 414.29 298.00" xmlns="http://www.w3.org/2000/svg" xmlns:xlink="http://www.w3.org/1999/xlink">
<g id="graph0" class="graph" transform="scale(1 1) rotate(0) translate(4 294)">
<title>S:/QT_CREATOR/Locker_Control/threadsavedelivery.cpp</title>
<!-- Node1 -->
<g id="node1" class="node"><title>Node1</title>
<polygon fill="#bfbfbf" stroke="black" points="116,-265.5 116,-289.5 235,-289.5 235,-265.5 116,-265.5"/>
<text text-anchor="start" x="124" y="-279.9" font-family="Helvetica,sans-Serif" font-size="7.00">S:/QT_CREATOR/Locker</text>
<text text-anchor="middle" x="175.5" y="-271.9" font-family="Helvetica,sans-Serif" font-size="7.00">_Control/threadsavedelivery.cpp</text>
</g>
<!-- Node2 -->
<g id="node2" class="node"><title>Node2</title>
<g id="a_node2"><a xlink:href="threadsavedelivery_8h.html" target="_top" xlink:title="threadsavedelivery.h">
<polygon fill="none" stroke="black" points="36,-159.5 36,-175.5 119,-175.5 119,-159.5 36,-159.5"/>
<text text-anchor="middle" x="77.5" y="-165.9" font-family="Helvetica,sans-Serif" font-size="7.00">threadsavedelivery.h</text>
</a>
</g>
</g>
<!-- Node1&#45;&gt;Node2 -->
<g id="edge1" class="edge"><title>Node1&#45;&gt;Node2</title>
<path fill="none" stroke="midnightblue" d="M165.381,-265.349C147.594,-245.747 110.729,-205.12 90.8679,-183.232"/>
<polygon fill="midnightblue" stroke="midnightblue" points="93.2538,-180.653 83.9419,-175.599 88.0698,-185.357 93.2538,-180.653"/>
</g>
<!-- Node7 -->
<g id="node7" class="node"><title>Node7</title>
<g id="a_node7"><a xlink:href="deliveryconfirm_8h.html" target="_top" xlink:title="deliveryconfirm.h">
<polygon fill="none" stroke="black" points="183.5,-212.5 183.5,-228.5 255.5,-228.5 255.5,-212.5 183.5,-212.5"/>
<text text-anchor="middle" x="219.5" y="-218.9" font-family="Helvetica,sans-Serif" font-size="7.00">deliveryconfirm.h</text>
</a>
</g>
</g>
<!-- Node1&#45;&gt;Node7 -->
<g id="edge9" class="edge"><title>Node1&#45;&gt;Node7</title>
<path fill="none" stroke="midnightblue" d="M184.404,-265.37C191.026,-257.092 200.138,-245.703 207.417,-236.604"/>
<polygon fill="midnightblue" stroke="midnightblue" points="210.18,-238.753 213.694,-228.757 204.714,-234.38 210.18,-238.753"/>
</g>
<!-- Node3 -->
<g id="node3" class="node"><title>Node3</title>
<polygon fill="none" stroke="#bfbfbf" points="0,-106.5 0,-122.5 43,-122.5 43,-106.5 0,-106.5"/>
<text text-anchor="middle" x="21.5" y="-112.9" font-family="Helvetica,sans-Serif" font-size="7.00">QThread</text>
</g>
<!-- Node2&#45;&gt;Node3 -->
<g id="edge2" class="edge"><title>Node2&#45;&gt;Node3</title>
<path fill="none" stroke="midnightblue" d="M69.7134,-159.409C61.1877,-151.644 47.3082,-139.004 36.6251,-129.275"/>
<polygon fill="midnightblue" stroke="midnightblue" points="38.9705,-126.677 29.2204,-122.531 34.2572,-131.852 38.9705,-126.677"/>
</g>
<!-- Node4 -->
<g id="node4" class="node"><title>Node4</title>
<g id="a_node4"><a xlink:href="clms__db_8h.html" target="_top" xlink:title="clms_db.h">
<polygon fill="none" stroke="black" points="126,-53.5 126,-69.5 175,-69.5 175,-53.5 126,-53.5"/>
<text text-anchor="middle" x="150.5" y="-59.9" font-family="Helvetica,sans-Serif" font-size="7.00">clms_db.h</text>
</a>
</g>
</g>
<!-- Node2&#45;&gt;Node4 -->
<g id="edge3" class="edge"><title>Node2&#45;&gt;Node4</title>
<path fill="none" stroke="midnightblue" d="M82.5176,-159.352C94.2386,-142.653 123.635,-100.773 139.664,-77.937"/>
<polygon fill="midnightblue" stroke="midnightblue" points="142.567,-79.8941 145.447,-69.6984 136.837,-75.8725 142.567,-79.8941"/>
</g>
<!-- Node5 -->
<g id="node5" class="node"><title>Node5</title>
<g id="a_node5"><a xlink:href="_data_structures_8h.html" target="_top" xlink:title="Definnitions des formats de communications des données entre les classes de l&#39;application LC...">
<polygon fill="none" stroke="red" points="143.5,-0.5 143.5,-16.5 213.5,-16.5 213.5,-0.5 143.5,-0.5"/>
<text text-anchor="middle" x="178.5" y="-6.9" font-family="Helvetica,sans-Serif" font-size="7.00">DataStructures.h</text>
</a>
</g>
</g>
<!-- Node2&#45;&gt;Node5 -->
<g id="edge8" class="edge"><title>Node2&#45;&gt;Node5</title>
<path fill="none" stroke="midnightblue" d="M78.3897,-159.405C81.0749,-140.403 90.5711,-87.4656 116.5,-53 126.487,-39.7253 141.716,-28.9586 154.582,-21.4575"/>
<polygon fill="midnightblue" stroke="midnightblue" points="156.355,-24.4764 163.423,-16.5835 152.976,-18.3462 156.355,-24.4764"/>
</g>
<!-- Node6 -->
<g id="node6" class="node"><title>Node6</title>
<g id="a_node6"><a xlink:href="csqlite__local__db_8h.html" target="_top" xlink:title="csqlite_local_db.h">
<polygon fill="none" stroke="red" points="175.5,-106.5 175.5,-122.5 247.5,-122.5 247.5,-106.5 175.5,-106.5"/>
<text text-anchor="middle" x="211.5" y="-112.9" font-family="Helvetica,sans-Serif" font-size="7.00">csqlite_local_db.h</text>
</a>
</g>
</g>
<!-- Node2&#45;&gt;Node6 -->
<g id="edge5" class="edge"><title>Node2&#45;&gt;Node6</title>
<path fill="none" stroke="midnightblue" d="M96.1321,-159.409C118.833,-150.769 157.396,-136.092 183.633,-126.106"/>
<polygon fill="midnightblue" stroke="midnightblue" points="184.925,-129.359 193.026,-122.531 182.435,-122.817 184.925,-129.359"/>
</g>
<!-- Node4&#45;&gt;Node5 -->
<g id="edge4" class="edge"><title>Node4&#45;&gt;Node5</title>
<path fill="none" stroke="midnightblue" d="M154.393,-53.4087C158.364,-46.177 164.656,-34.7159 169.817,-25.3164"/>
<polygon fill="midnightblue" stroke="midnightblue" points="172.895,-26.9813 174.64,-16.5311 166.759,-23.6125 172.895,-26.9813"/>
</g>
<!-- Node6&#45;&gt;Node4 -->
<g id="edge7" class="edge"><title>Node6&#45;&gt;Node4</title>
<path fill="none" stroke="midnightblue" d="M203.018,-106.409C193.64,-98.568 178.316,-85.7556 166.634,-75.9894"/>
<polygon fill="midnightblue" stroke="midnightblue" points="168.827,-73.2602 158.91,-69.5311 164.337,-78.6305 168.827,-73.2602"/>
</g>
<!-- Node6&#45;&gt;Node5 -->
<g id="edge6" class="edge"><title>Node6&#45;&gt;Node5</title>
<path fill="none" stroke="midnightblue" d="M209.232,-106.352C204.051,-90.0242 191.231,-49.6219 183.89,-26.4871"/>
<polygon fill="midnightblue" stroke="midnightblue" points="187.145,-25.1714 180.784,-16.6984 180.473,-27.2886 187.145,-25.1714"/>
</g>
<!-- Node7&#45;&gt;Node2 -->
<g id="edge19" class="edge"><title>Node7&#45;&gt;Node2</title>
<path fill="none" stroke="midnightblue" d="M199.756,-212.409C175.593,-203.731 134.473,-188.962 106.664,-178.974"/>
<polygon fill="midnightblue" stroke="midnightblue" points="107.671,-175.617 97.0768,-175.531 105.305,-182.205 107.671,-175.617"/>
</g>
<!-- Node7&#45;&gt;Node4 -->
<g id="edge13" class="edge"><title>Node7&#45;&gt;Node4</title>
<path fill="none" stroke="midnightblue" d="M214.735,-212.296C204.572,-196.65 180.552,-158.14 166.5,-123 160.817,-108.789 156.544,-91.8973 153.849,-79.5791"/>
<polygon fill="midnightblue" stroke="midnightblue" points="157.272,-78.8468 151.824,-69.7602 150.416,-80.2612 157.272,-78.8468"/>
</g>
<!-- Node7&#45;&gt;Node5 -->
<g id="edge14" class="edge"><title>Node7&#45;&gt;Node5</title>
<path fill="none" stroke="midnightblue" d="M255.694,-212.644C318.379,-199.059 436.941,-164.838 398.5,-106 359.898,-46.9158 276.203,-23.7779 223.895,-14.8805"/>
<polygon fill="midnightblue" stroke="midnightblue" points="224.301,-11.4011 213.875,-13.2845 223.2,-18.314 224.301,-11.4011"/>
</g>
<!-- Node7&#45;&gt;Node6 -->
<g id="edge12" class="edge"><title>Node7&#45;&gt;Node6</title>
<path fill="none" stroke="midnightblue" d="M216.847,-212.237C213.882,-203.701 209.266,-189.042 207.5,-176 205.531,-161.455 206.893,-144.806 208.542,-132.66"/>
<polygon fill="midnightblue" stroke="midnightblue" points="212.027,-133.031 210.112,-122.61 205.111,-131.95 212.027,-133.031"/>
</g>
<!-- Node8 -->
<g id="node8" class="node"><title>Node8</title>
<polygon fill="none" stroke="#bfbfbf" points="265.5,-106.5 265.5,-122.5 309.5,-122.5 309.5,-106.5 265.5,-106.5"/>
<text text-anchor="middle" x="287.5" y="-112.9" font-family="Helvetica,sans-Serif" font-size="7.00">QWidget</text>
</g>
<!-- Node7&#45;&gt;Node8 -->
<g id="edge10" class="edge"><title>Node7&#45;&gt;Node8</title>
<path fill="none" stroke="midnightblue" d="M243.165,-212.413C260.219,-205.926 282.005,-194.471 292.5,-176 299.99,-162.818 297.483,-145.346 293.85,-132.568"/>
<polygon fill="midnightblue" stroke="midnightblue" points="297.068,-131.156 290.589,-122.774 290.427,-133.367 297.068,-131.156"/>
</g>
<!-- Node9 -->
<g id="node9" class="node"><title>Node9</title>
<g id="a_node9"><a xlink:href="showwidgets_8h.html" target="_top" xlink:title="showwidgets.h">
<polygon fill="none" stroke="red" points="327.5,-106.5 327.5,-122.5 389.5,-122.5 389.5,-106.5 327.5,-106.5"/>
<text text-anchor="middle" x="358.5" y="-112.9" font-family="Helvetica,sans-Serif" font-size="7.00">showwidgets.h</text>
</a>
</g>
</g>
<!-- Node7&#45;&gt;Node9 -->
<g id="edge11" class="edge"><title>Node7&#45;&gt;Node9</title>
<path fill="none" stroke="midnightblue" d="M240.257,-212.47C259.503,-205.29 288.282,-192.815 309.5,-176 325.526,-163.3 339.722,-144.483 348.655,-131.213"/>
<polygon fill="midnightblue" stroke="midnightblue" points="351.673,-132.992 354.18,-122.698 345.801,-129.181 351.673,-132.992"/>
</g>
<!-- Node10 -->
<g id="node10" class="node"><title>Node10</title>
<g id="a_node10"><a xlink:href="stowpackages_8h.html" target="_top" xlink:title="stowpackages.h">
<polygon fill="none" stroke="red" points="217,-159.5 217,-175.5 284,-175.5 284,-159.5 217,-159.5"/>
<text text-anchor="middle" x="250.5" y="-165.9" font-family="Helvetica,sans-Serif" font-size="7.00">stowpackages.h</text>
</a>
</g>
</g>
<!-- Node7&#45;&gt;Node10 -->
<g id="edge15" class="edge"><title>Node7&#45;&gt;Node10</title>
<path fill="none" stroke="midnightblue" d="M223.81,-212.409C228.206,-205.177 235.173,-193.716 240.886,-184.316"/>
<polygon fill="midnightblue" stroke="midnightblue" points="244.023,-185.894 246.226,-175.531 238.041,-182.258 244.023,-185.894"/>
</g>
<!-- Node10&#45;&gt;Node6 -->
<g id="edge18" class="edge"><title>Node10&#45;&gt;Node6</title>
<path fill="none" stroke="midnightblue" d="M245.077,-159.409C239.431,-152.025 230.412,-140.231 223.143,-130.726"/>
<polygon fill="midnightblue" stroke="midnightblue" points="225.732,-128.349 216.877,-122.531 220.171,-132.601 225.732,-128.349"/>
</g>
<!-- Node10&#45;&gt;Node8 -->
<g id="edge16" class="edge"><title>Node10&#45;&gt;Node8</title>
<path fill="none" stroke="midnightblue" d="M255.645,-159.409C261.002,-152.025 269.558,-140.231 276.454,-130.726"/>
<polygon fill="midnightblue" stroke="midnightblue" points="279.36,-132.681 282.399,-122.531 273.694,-128.57 279.36,-132.681"/>
</g>
<!-- Node10&#45;&gt;Node9 -->
<g id="edge17" class="edge"><title>Node10&#45;&gt;Node9</title>
<path fill="none" stroke="midnightblue" d="M265.517,-159.409C283.33,-150.997 313.26,-136.863 334.343,-126.908"/>
<polygon fill="midnightblue" stroke="midnightblue" points="336.063,-129.966 343.611,-122.531 333.074,-123.636 336.063,-129.966"/>
</g>
</g>
</svg>
