<?xml version="1.0" encoding="UTF-8" standalone="no"?>
<!DOCTYPE svg PUBLIC "-//W3C//DTD SVG 1.1//EN"
 "http://www.w3.org/Graphics/SVG/1.1/DTD/svg11.dtd">
<!-- Generated by graphviz version 2.38.0 (20140413.2041)
 -->
<!-- Title: S:/QT_CREATOR/Locker_Control/thread_databasemanager.h Pages: 1 -->
<svg width="472pt" height="240pt"
 viewBox="0.00 0.00 472.00 240.00" xmlns="http://www.w3.org/2000/svg" xmlns:xlink="http://www.w3.org/1999/xlink">
<g id="graph0" class="graph" transform="scale(1 1) rotate(0) translate(4 236)">
<title>S:/QT_CREATOR/Locker_Control/thread_databasemanager.h</title>
<!-- Node1 -->
<g id="node1" class="node"><title>Node1</title>
<polygon fill="#bfbfbf" stroke="black" points="152.5,-207.5 152.5,-231.5 282.5,-231.5 282.5,-207.5 152.5,-207.5"/>
<text text-anchor="start" x="160.5" y="-221.9" font-family="Helvetica,sans-Serif" font-size="7.00">S:/QT_CREATOR/Locker</text>
<text text-anchor="middle" x="217.5" y="-213.9" font-family="Helvetica,sans-Serif" font-size="7.00">_Control/thread_databasemanager.h</text>
</g>
<!-- Node2 -->
<g id="node2" class="node"><title>Node2</title>
<g id="a_node2"><a xlink:href="sqlite__local__databasemanager_8h.html" target="_top" xlink:title="S:/QT_CREATOR/Locker\l_Control/sqlite_local\l_databasemanager.h">
<polygon fill="none" stroke="black" points="103,-138.5 103,-170.5 198,-170.5 198,-138.5 103,-138.5"/>
<text text-anchor="start" x="111" y="-160.9" font-family="Helvetica,sans-Serif" font-size="7.00">S:/QT_CREATOR/Locker</text>
<text text-anchor="start" x="111" y="-152.9" font-family="Helvetica,sans-Serif" font-size="7.00">_Control/sqlite_local</text>
<text text-anchor="middle" x="150.5" y="-144.9" font-family="Helvetica,sans-Serif" font-size="7.00">_databasemanager.h</text>
</a>
</g>
</g>
<!-- Node1&#45;&gt;Node2 -->
<g id="edge1" class="edge"><title>Node1&#45;&gt;Node2</title>
<path fill="none" stroke="midnightblue" d="M192.502,-200.768C181.531,-191.293 169.344,-179.749 160.784,-170.69"/>
<polygon fill="midnightblue" stroke="midnightblue" points="190.297,-203.487 200.206,-207.237 194.798,-198.126 190.297,-203.487"/>
</g>
<!-- Node9 -->
<g id="node9" class="node"><title>Node9</title>
<g id="a_node9"><a xlink:href="thread__databasemanager_8cpp.html" target="_top" xlink:title="S:/QT_CREATOR/Locker\l_Control/thread_databasemanager.cpp">
<polygon fill="none" stroke="black" points="216,-142.5 216,-166.5 353,-166.5 353,-142.5 216,-142.5"/>
<text text-anchor="start" x="224" y="-156.9" font-family="Helvetica,sans-Serif" font-size="7.00">S:/QT_CREATOR/Locker</text>
<text text-anchor="middle" x="284.5" y="-148.9" font-family="Helvetica,sans-Serif" font-size="7.00">_Control/thread_databasemanager.cpp</text>
</a>
</g>
</g>
<!-- Node1&#45;&gt;Node9 -->
<g id="edge13" class="edge"><title>Node1&#45;&gt;Node9</title>
<path fill="none" stroke="midnightblue" d="M236.947,-200.214C248.488,-189.362 262.747,-175.954 272.625,-166.666"/>
<polygon fill="midnightblue" stroke="midnightblue" points="234.366,-197.837 229.478,-207.237 239.161,-202.936 234.366,-197.837"/>
</g>
<!-- Node2&#45;&gt;Node1 -->
<g id="edge7" class="edge"><title>Node2&#45;&gt;Node1</title>
<path fill="none" stroke="midnightblue" d="M180.22,-177.37C191.547,-187.437 203.415,-198.955 210.838,-207.237"/>
<polygon fill="midnightblue" stroke="midnightblue" points="182.372,-174.603 172.526,-170.69 177.783,-179.889 182.372,-174.603"/>
</g>
<!-- Node3 -->
<g id="node3" class="node"><title>Node3</title>
<g id="a_node3"><a xlink:href="consolewindows_8h.html" target="_top" xlink:title="S:/QT_CREATOR/Locker\l_Control/consolewindows.h">
<polygon fill="none" stroke="black" points="246,-73.5 246,-97.5 347,-97.5 347,-73.5 246,-73.5"/>
<text text-anchor="start" x="254" y="-87.9" font-family="Helvetica,sans-Serif" font-size="7.00">S:/QT_CREATOR/Locker</text>
<text text-anchor="middle" x="296.5" y="-79.9" font-family="Helvetica,sans-Serif" font-size="7.00">_Control/consolewindows.h</text>
</a>
</g>
</g>
<!-- Node2&#45;&gt;Node3 -->
<g id="edge2" class="edge"><title>Node2&#45;&gt;Node3</title>
<path fill="none" stroke="midnightblue" d="M186.653,-134.068C211.537,-122.189 244.052,-107.426 267.317,-97.5244"/>
<polygon fill="midnightblue" stroke="midnightblue" points="185.016,-130.972 177.525,-138.464 188.053,-137.279 185.016,-130.972"/>
</g>
<!-- Node6 -->
<g id="node6" class="node"><title>Node6</title>
<g id="a_node6"><a xlink:href="thread__localdatabase__autosave_8h.html" target="_top" xlink:title="S:/QT_CREATOR/Locker\l_Control/thread_localdatabase\l_autosave.h">
<polygon fill="none" stroke="black" points="95,-69.5 95,-101.5 206,-101.5 206,-69.5 95,-69.5"/>
<text text-anchor="start" x="103" y="-91.9" font-family="Helvetica,sans-Serif" font-size="7.00">S:/QT_CREATOR/Locker</text>
<text text-anchor="start" x="103" y="-83.9" font-family="Helvetica,sans-Serif" font-size="7.00">_Control/thread_localdatabase</text>
<text text-anchor="middle" x="150.5" y="-75.9" font-family="Helvetica,sans-Serif" font-size="7.00">_autosave.h</text>
</a>
</g>
</g>
<!-- Node2&#45;&gt;Node6 -->
<g id="edge8" class="edge"><title>Node2&#45;&gt;Node6</title>
<path fill="none" stroke="midnightblue" d="M143.938,-128.318C143.524,-119.341 143.793,-109.514 144.746,-101.643"/>
<polygon fill="midnightblue" stroke="midnightblue" points="140.45,-128.609 144.739,-138.297 147.428,-128.049 140.45,-128.609"/>
</g>
<!-- Node7 -->
<g id="node7" class="node"><title>Node7</title>
<g id="a_node7"><a xlink:href="sqlite__local__databasemanager_8cpp.html" target="_top" xlink:title="S:/QT_CREATOR/Locker\l_Control/sqlite_local\l_databasemanager.cpp">
<polygon fill="none" stroke="black" points="0,-0.5 0,-32.5 95,-32.5 95,-0.5 0,-0.5"/>
<text text-anchor="start" x="8" y="-22.9" font-family="Helvetica,sans-Serif" font-size="7.00">S:/QT_CREATOR/Locker</text>
<text text-anchor="start" x="8" y="-14.9" font-family="Helvetica,sans-Serif" font-size="7.00">_Control/sqlite_local</text>
<text text-anchor="middle" x="47.5" y="-6.9" font-family="Helvetica,sans-Serif" font-size="7.00">_databasemanager.cpp</text>
</a>
</g>
</g>
<!-- Node2&#45;&gt;Node7 -->
<g id="edge12" class="edge"><title>Node2&#45;&gt;Node7</title>
<path fill="none" stroke="midnightblue" d="M117.764,-132.391C106.486,-123.951 94.4529,-113.496 85.5,-102 68.7968,-80.5529 57.5864,-50.597 51.8959,-32.7134"/>
<polygon fill="midnightblue" stroke="midnightblue" points="116.014,-135.444 126.178,-138.437 120.099,-129.76 116.014,-135.444"/>
</g>
<!-- Node3&#45;&gt;Node1 -->
<g id="edge4" class="edge"><title>Node3&#45;&gt;Node1</title>
<path fill="none" stroke="midnightblue" d="M328.552,-102.954C341.608,-111.49 355.3,-123.249 362.5,-138 368.933,-151.18 371.107,-159.124 362.5,-171 344.235,-196.203 312.19,-208.277 282.863,-213.965"/>
<polygon fill="midnightblue" stroke="midnightblue" points="330.064,-99.777 319.704,-97.5624 326.422,-105.755 330.064,-99.777"/>
</g>
<!-- Node3&#45;&gt;Node2 -->
<g id="edge5" class="edge"><title>Node3&#45;&gt;Node2</title>
<path fill="none" stroke="midnightblue" d="M268.562,-101.98C245.947,-112.951 214.021,-127.593 189.006,-138.464"/>
<polygon fill="midnightblue" stroke="midnightblue" points="270.202,-105.073 277.636,-97.5244 267.117,-98.7899 270.202,-105.073"/>
</g>
<!-- Node4 -->
<g id="node4" class="node"><title>Node4</title>
<g id="a_node4"><a xlink:href="consolewindows_8cpp.html" target="_top" xlink:title="S:/QT_CREATOR/Locker\l_Control/consolewindows.cpp">
<polygon fill="none" stroke="black" points="242.5,-4.5 242.5,-28.5 350.5,-28.5 350.5,-4.5 242.5,-4.5"/>
<text text-anchor="start" x="250.5" y="-18.9" font-family="Helvetica,sans-Serif" font-size="7.00">S:/QT_CREATOR/Locker</text>
<text text-anchor="middle" x="296.5" y="-10.9" font-family="Helvetica,sans-Serif" font-size="7.00">_Control/consolewindows.cpp</text>
</a>
</g>
</g>
<!-- Node3&#45;&gt;Node4 -->
<g id="edge3" class="edge"><title>Node3&#45;&gt;Node4</title>
<path fill="none" stroke="midnightblue" d="M296.5,-63.3603C296.5,-51.914 296.5,-38.2284 296.5,-28.8041"/>
<polygon fill="midnightblue" stroke="midnightblue" points="293,-63.4363 296.5,-73.4363 300,-63.4363 293,-63.4363"/>
</g>
<!-- Node5 -->
<g id="node5" class="node"><title>Node5</title>
<g id="a_node5"><a xlink:href="main_8cpp.html" target="_top" xlink:title="S:/QT_CREATOR/Locker\l_Control/main.cpp">
<polygon fill="none" stroke="black" points="369,-4.5 369,-28.5 464,-28.5 464,-4.5 369,-4.5"/>
<text text-anchor="start" x="377" y="-18.9" font-family="Helvetica,sans-Serif" font-size="7.00">S:/QT_CREATOR/Locker</text>
<text text-anchor="middle" x="416.5" y="-10.9" font-family="Helvetica,sans-Serif" font-size="7.00">_Control/main.cpp</text>
</a>
</g>
</g>
<!-- Node3&#45;&gt;Node5 -->
<g id="edge6" class="edge"><title>Node3&#45;&gt;Node5</title>
<path fill="none" stroke="midnightblue" d="M325.239,-68.4542C347.302,-56.1357 377.19,-39.4483 396.655,-28.5801"/>
<polygon fill="midnightblue" stroke="midnightblue" points="323.341,-65.5054 316.316,-73.4363 326.753,-71.6173 323.341,-65.5054"/>
</g>
<!-- Node6&#45;&gt;Node2 -->
<g id="edge9" class="edge"><title>Node6&#45;&gt;Node2</title>
<path fill="none" stroke="midnightblue" d="M157.058,-111.614C157.476,-120.586 157.211,-130.416 156.261,-138.297"/>
<polygon fill="midnightblue" stroke="midnightblue" points="160.547,-111.329 156.254,-101.643 153.57,-111.892 160.547,-111.329"/>
</g>
<!-- Node6&#45;&gt;Node7 -->
<g id="edge10" class="edge"><title>Node6&#45;&gt;Node7</title>
<path fill="none" stroke="midnightblue" d="M118.67,-63.7951C103.237,-53.7558 85.0295,-41.9124 70.8944,-32.7177"/>
<polygon fill="midnightblue" stroke="midnightblue" points="117.094,-66.945 127.385,-69.4639 120.911,-61.0772 117.094,-66.945"/>
</g>
<!-- Node8 -->
<g id="node8" class="node"><title>Node8</title>
<g id="a_node8"><a xlink:href="thread__localdatabase__autosave_8cpp.html" target="_top" xlink:title="S:/QT_CREATOR/Locker\l_Control/thread_localdatabase\l_autosave.cpp">
<polygon fill="none" stroke="black" points="113,-0.5 113,-32.5 224,-32.5 224,-0.5 113,-0.5"/>
<text text-anchor="start" x="121" y="-22.9" font-family="Helvetica,sans-Serif" font-size="7.00">S:/QT_CREATOR/Locker</text>
<text text-anchor="start" x="121" y="-14.9" font-family="Helvetica,sans-Serif" font-size="7.00">_Control/thread_localdatabase</text>
<text text-anchor="middle" x="168.5" y="-6.9" font-family="Helvetica,sans-Serif" font-size="7.00">_autosave.cpp</text>
</a>
</g>
</g>
<!-- Node6&#45;&gt;Node8 -->
<g id="edge11" class="edge"><title>Node6&#45;&gt;Node8</title>
<path fill="none" stroke="midnightblue" d="M157.187,-59.6103C159.619,-50.5553 162.294,-40.5998 164.432,-32.6432"/>
<polygon fill="midnightblue" stroke="midnightblue" points="153.799,-58.731 154.584,-69.2967 160.559,-60.5472 153.799,-58.731"/>
</g>
</g>
</svg>
