<?xml version="1.0" encoding="UTF-8" standalone="no"?>
<!DOCTYPE svg PUBLIC "-//W3C//DTD SVG 1.1//EN"
 "http://www.w3.org/Graphics/SVG/1.1/DTD/svg11.dtd">
<!-- Generated by graphviz version 2.38.0 (20140413.2041)
 -->
<!-- Title: S:/QT_CREATOR/Locker_Control/threaddeleteextractcode.cpp Pages: 1 -->
<!--zoomable 245 -->
<svg id="main" version="1.1" xmlns="http://www.w3.org/2000/svg" xmlns:xlink="http://www.w3.org/1999/xlink" xml:space="preserve" onload="init(evt)">
<style type="text/css"><![CDATA[
.edge:hover path { stroke: red; }
.edge:hover polygon { stroke: red; fill: red; }
]]></style>
<script type="text/javascript"><![CDATA[
var edges = document.getElementsByTagName('g');
if (edges && edges.length) {
  for (var i=0;i<edges.length;i++) {
    if (edges[i].id.substr(0,4)=='edge') {
      edges[i].setAttribute('class','edge');
    }
  }
}
]]></script>
        <defs>
                <circle id="rim" cx="0" cy="0" r="7"/>
                <circle id="rim2" cx="0" cy="0" r="3.5"/>
                <g id="zoomPlus">
                        <use xlink:href="#rim" fill="#404040">
                                <set attributeName="fill" to="#808080" begin="zoomplus.mouseover" end="zoomplus.mouseout"/>
                        </use>
                        <path d="M-4,0h8M0,-4v8" fill="none" stroke="white" stroke-width="1.5" pointer-events="none"/>
                </g>
                <g id="zoomMin">
                        <use xlink:href="#rim" fill="#404040">
                                <set attributeName="fill" to="#808080" begin="zoomminus.mouseover" end="zoomminus.mouseout"/>
                        </use>
                        <path d="M-4,0h8" fill="none" stroke="white" stroke-width="1.5" pointer-events="none"/>
                </g>
                <g id="dirArrow">
                        <path fill="none" stroke="white" stroke-width="1.5" d="M0,-3.0v7 M-2.5,-0.5L0,-3.0L2.5,-0.5"/>
                </g>
               <g id="resetDef">
                       <use xlink:href="#rim2" fill="#404040">
                               <set attributeName="fill" to="#808080" begin="reset.mouseover" end="reset.mouseout"/>
                       </use>
               </g>
        </defs>

<script type="text/javascript">
var viewWidth = 502;
var viewHeight = 245;
var sectionId = 'dynsection-0';
</script>
<script xlink:href="svgpan.js"/>
<svg id="graph" class="graph">
<g id="viewport">
<title>S:/QT_CREATOR/Locker_Control/threaddeleteextractcode.cpp</title>
<!-- Node1 -->
<g id="node1" class="node"><title>Node1</title>
<polygon fill="#bfbfbf" stroke="black" points="130,-212.5 130,-236.5 264,-236.5 264,-212.5 130,-212.5"/>
<text text-anchor="start" x="138" y="-226.9" font-family="Helvetica,sans-Serif" font-size="7.00">S:/QT_CREATOR/Locker</text>
<text text-anchor="middle" x="197" y="-218.9" font-family="Helvetica,sans-Serif" font-size="7.00">_Control/threaddeleteextractcode.cpp</text>
</g>
<!-- Node2 -->
<g id="node2" class="node"><title>Node2</title>
<g id="a_node2"><a xlink:href="threaddeleteextractcode_8h.html" target="_top" xlink:title="threaddeleteextractcode.h">
<polygon fill="none" stroke="black" points="0,-106.5 0,-122.5 98,-122.5 98,-106.5 0,-106.5"/>
<text text-anchor="middle" x="49" y="-112.9" font-family="Helvetica,sans-Serif" font-size="7.00">threaddeleteextractcode.h</text>
</a>
</g>
</g>
<!-- Node1&#45;&gt;Node2 -->
<g id="edge1" class="edge"><title>Node1&#45;&gt;Node2</title>
<path fill="none" stroke="midnightblue" d="M181.719,-212.349C154.143,-192.226 96.2063,-149.948 66.8547,-128.529"/>
<polygon fill="midnightblue" stroke="midnightblue" points="68.8696,-125.667 58.7286,-122.599 64.7433,-131.321 68.8696,-125.667"/>
</g>
<!-- Node5 -->
<g id="node5" class="node"><title>Node5</title>
<g id="a_node5"><a xlink:href="showpackagebox_8h.html" target="_top" xlink:title="showpackagebox.h">
<polygon fill="none" stroke="black" points="216,-159.5 216,-175.5 292,-175.5 292,-159.5 216,-159.5"/>
<text text-anchor="middle" x="254" y="-165.9" font-family="Helvetica,sans-Serif" font-size="7.00">showpackagebox.h</text>
</a>
</g>
</g>
<!-- Node1&#45;&gt;Node5 -->
<g id="edge4" class="edge"><title>Node1&#45;&gt;Node5</title>
<path fill="none" stroke="midnightblue" d="M208.535,-212.37C217.379,-203.836 229.65,-191.995 239.215,-182.766"/>
<polygon fill="midnightblue" stroke="midnightblue" points="241.713,-185.22 246.479,-175.757 236.852,-180.183 241.713,-185.22"/>
</g>
<!-- Node3 -->
<g id="node3" class="node"><title>Node3</title>
<polygon fill="none" stroke="#bfbfbf" points="182.5,-53.5 182.5,-69.5 225.5,-69.5 225.5,-53.5 182.5,-53.5"/>
<text text-anchor="middle" x="204" y="-59.9" font-family="Helvetica,sans-Serif" font-size="7.00">QThread</text>
</g>
<!-- Node2&#45;&gt;Node3 -->
<g id="edge2" class="edge"><title>Node2&#45;&gt;Node3</title>
<path fill="none" stroke="midnightblue" d="M70.5521,-106.409C97.1577,-97.6546 142.6,-82.7027 172.961,-72.7127"/>
<polygon fill="midnightblue" stroke="midnightblue" points="174.226,-75.9813 182.631,-69.5311 172.038,-69.332 174.226,-75.9813"/>
</g>
<!-- Node4 -->
<g id="node4" class="node"><title>Node4</title>
<g id="a_node4"><a xlink:href="csqlite__local__db_8h.html" target="_top" xlink:title="csqlite_local_db.h">
<polygon fill="none" stroke="red" points="299,-0.5 299,-16.5 371,-16.5 371,-0.5 299,-0.5"/>
<text text-anchor="middle" x="335" y="-6.9" font-family="Helvetica,sans-Serif" font-size="7.00">csqlite_local_db.h</text>
</a>
</g>
</g>
<!-- Node2&#45;&gt;Node4 -->
<g id="edge3" class="edge"><title>Node2&#45;&gt;Node4</title>
<path fill="none" stroke="midnightblue" d="M61.3222,-106.498C83.219,-94.2824 130.6,-68.8688 173,-53 212.3,-38.2915 258.683,-26.3592 291.725,-18.7378"/>
<polygon fill="midnightblue" stroke="midnightblue" points="292.551,-22.1394 301.528,-16.5127 291.002,-15.313 292.551,-22.1394"/>
</g>
<!-- Node5&#45;&gt;Node2 -->
<g id="edge8" class="edge"><title>Node5&#45;&gt;Node2</title>
<path fill="none" stroke="midnightblue" d="M225.496,-159.409C189.466,-150.445 127.318,-134.984 87.205,-125.005"/>
<polygon fill="midnightblue" stroke="midnightblue" points="87.8115,-121.549 77.2623,-122.531 86.1215,-128.342 87.8115,-121.549"/>
</g>
<!-- Node5&#45;&gt;Node4 -->
<g id="edge7" class="edge"><title>Node5&#45;&gt;Node4</title>
<path fill="none" stroke="midnightblue" d="M292.369,-164.997C351.592,-161.782 460.969,-151.979 485,-123 523.954,-76.0254 426.113,-37.1526 370.43,-19.5835"/>
<polygon fill="midnightblue" stroke="midnightblue" points="371.152,-16.1442 360.565,-16.5538 369.097,-22.8357 371.152,-16.1442"/>
</g>
<!-- Node6 -->
<g id="node6" class="node"><title>Node6</title>
<polygon fill="none" stroke="#bfbfbf" points="116,-106.5 116,-122.5 160,-122.5 160,-106.5 116,-106.5"/>
<text text-anchor="middle" x="138" y="-112.9" font-family="Helvetica,sans-Serif" font-size="7.00">QWidget</text>
</g>
<!-- Node5&#45;&gt;Node6 -->
<g id="edge5" class="edge"><title>Node5&#45;&gt;Node6</title>
<path fill="none" stroke="midnightblue" d="M237.871,-159.409C218.565,-150.921 186.008,-136.607 163.334,-126.638"/>
<polygon fill="midnightblue" stroke="midnightblue" points="164.555,-123.352 153.992,-122.531 161.738,-129.76 164.555,-123.352"/>
</g>
<!-- Node7 -->
<g id="node7" class="node"><title>Node7</title>
<g id="a_node7"><a xlink:href="showwidgets_8h.html" target="_top" xlink:title="showwidgets.h">
<polygon fill="none" stroke="red" points="178,-106.5 178,-122.5 240,-122.5 240,-106.5 178,-106.5"/>
<text text-anchor="middle" x="209" y="-112.9" font-family="Helvetica,sans-Serif" font-size="7.00">showwidgets.h</text>
</a>
</g>
</g>
<!-- Node5&#45;&gt;Node7 -->
<g id="edge6" class="edge"><title>Node5&#45;&gt;Node7</title>
<path fill="none" stroke="midnightblue" d="M247.743,-159.409C241.093,-151.873 230.391,-139.743 221.918,-130.141"/>
<polygon fill="midnightblue" stroke="midnightblue" points="224.445,-127.714 215.204,-122.531 219.196,-132.345 224.445,-127.714"/>
</g>
<!-- Node8 -->
<g id="node8" class="node"><title>Node8</title>
<g id="a_node8"><a xlink:href="thread__statusdoors_8h.html" target="_top" xlink:title="thread_statusdoors.h">
<polygon fill="none" stroke="red" points="258.5,-106.5 258.5,-122.5 341.5,-122.5 341.5,-106.5 258.5,-106.5"/>
<text text-anchor="middle" x="300" y="-112.9" font-family="Helvetica,sans-Serif" font-size="7.00">thread_statusdoors.h</text>
</a>
</g>
</g>
<!-- Node5&#45;&gt;Node8 -->
<g id="edge9" class="edge"><title>Node5&#45;&gt;Node8</title>
<path fill="none" stroke="midnightblue" d="M260.396,-159.409C267.193,-151.873 278.134,-139.743 286.795,-130.141"/>
<polygon fill="midnightblue" stroke="midnightblue" points="289.56,-132.301 293.658,-122.531 284.361,-127.613 289.56,-132.301"/>
</g>
<!-- Node9 -->
<g id="node9" class="node"><title>Node9</title>
<g id="a_node9"><a xlink:href="cdoors_8h.html" target="_top" xlink:title="cdoors.h">
<polygon fill="none" stroke="red" points="313,-53.5 313,-69.5 357,-69.5 357,-53.5 313,-53.5"/>
<text text-anchor="middle" x="335" y="-59.9" font-family="Helvetica,sans-Serif" font-size="7.00">cdoors.h</text>
</a>
</g>
</g>
<!-- Node5&#45;&gt;Node9 -->
<g id="edge14" class="edge"><title>Node5&#45;&gt;Node9</title>
<path fill="none" stroke="midnightblue" d="M292.481,-159.513C313.308,-153.56 337.308,-142.685 350,-123 358.691,-109.52 352.29,-91.3683 345.36,-78.4737"/>
<polygon fill="midnightblue" stroke="midnightblue" points="348.32,-76.6047 340.198,-69.8022 342.305,-80.1852 348.32,-76.6047"/>
</g>
<!-- Node10 -->
<g id="node10" class="node"><title>Node10</title>
<g id="a_node10"><a xlink:href="customtreewidget_8h.html" target="_top" xlink:title="customtreewidget.h">
<polygon fill="none" stroke="red" points="398.5,-106.5 398.5,-122.5 475.5,-122.5 475.5,-106.5 398.5,-106.5"/>
<text text-anchor="middle" x="437" y="-112.9" font-family="Helvetica,sans-Serif" font-size="7.00">customtreewidget.h</text>
</a>
</g>
</g>
<!-- Node5&#45;&gt;Node10 -->
<g id="edge13" class="edge"><title>Node5&#45;&gt;Node10</title>
<path fill="none" stroke="midnightblue" d="M279.445,-159.409C311.267,-150.54 365.911,-135.312 401.748,-125.324"/>
<polygon fill="midnightblue" stroke="midnightblue" points="403.077,-128.587 411.771,-122.531 401.198,-121.844 403.077,-128.587"/>
</g>
<!-- Node8&#45;&gt;Node3 -->
<g id="edge10" class="edge"><title>Node8&#45;&gt;Node3</title>
<path fill="none" stroke="midnightblue" d="M286.652,-106.409C271.033,-98.1113 244.934,-84.246 226.24,-74.3153"/>
<polygon fill="midnightblue" stroke="midnightblue" points="227.708,-71.1318 217.235,-69.5311 224.424,-77.3136 227.708,-71.1318"/>
</g>
<!-- Node8&#45;&gt;Node9 -->
<g id="edge11" class="edge"><title>Node8&#45;&gt;Node9</title>
<path fill="none" stroke="midnightblue" d="M304.867,-106.409C309.882,-99.1009 317.861,-87.4741 324.349,-78.0202"/>
<polygon fill="midnightblue" stroke="midnightblue" points="327.402,-79.7567 330.175,-69.5311 321.63,-75.7958 327.402,-79.7567"/>
</g>
<!-- Node9&#45;&gt;Node4 -->
<g id="edge12" class="edge"><title>Node9&#45;&gt;Node4</title>
<path fill="none" stroke="midnightblue" d="M335,-53.4087C335,-46.5576 335,-35.9106 335,-26.8167"/>
<polygon fill="midnightblue" stroke="midnightblue" points="338.5,-26.5311 335,-16.5311 331.5,-26.5311 338.5,-26.5311"/>
</g>
</g>
</svg>
        <g id="navigator" transform="translate(0 0)" fill="#404254">
                <rect fill="#f2f5e9" fill-opacity="0.5" stroke="#606060" stroke-width=".5" x="0" y="0" width="60" height="60"/>
                <use id="zoomplus" xlink:href="#zoomPlus" x="17" y="9" onmousedown="handleZoom(evt,'in')"/>
                <use id="zoomminus" xlink:href="#zoomMin" x="42" y="9" onmousedown="handleZoom(evt,'out')"/>
                <use id="reset" xlink:href="#resetDef" x="30" y="36" onmousedown="handleReset()"/>
                <g id="arrowUp" xlink:href="#dirArrow" transform="translate(30 24)" onmousedown="handlePan(0,-1)">
                  <use xlink:href="#rim" fill="#404040">
                        <set attributeName="fill" to="#808080" begin="arrowUp.mouseover" end="arrowUp.mouseout"/>
                  </use>
                  <path fill="none" stroke="white" stroke-width="1.5" d="M0,-3.0v7 M-2.5,-0.5L0,-3.0L2.5,-0.5"/>
                </g>
                <g id="arrowRight" xlink:href="#dirArrow" transform="rotate(90) translate(36 -43)" onmousedown="handlePan(1,0)">
                  <use xlink:href="#rim" fill="#404040">
                        <set attributeName="fill" to="#808080" begin="arrowRight.mouseover" end="arrowRight.mouseout"/>
                  </use>
                  <path fill="none" stroke="white" stroke-width="1.5" d="M0,-3.0v7 M-2.5,-0.5L0,-3.0L2.5,-0.5"/>
                </g>
                <g id="arrowDown" xlink:href="#dirArrow" transform="rotate(180) translate(-30 -48)" onmousedown="handlePan(0,1)">
                  <use xlink:href="#rim" fill="#404040">
                        <set attributeName="fill" to="#808080" begin="arrowDown.mouseover" end="arrowDown.mouseout"/>
                  </use>
                  <path fill="none" stroke="white" stroke-width="1.5" d="M0,-3.0v7 M-2.5,-0.5L0,-3.0L2.5,-0.5"/>
                </g>
                <g id="arrowLeft" xlink:href="#dirArrow" transform="rotate(270) translate(-36 17)" onmousedown="handlePan(-1,0)">
                  <use xlink:href="#rim" fill="#404040">
                        <set attributeName="fill" to="#808080" begin="arrowLeft.mouseover" end="arrowLeft.mouseout"/>
                  </use>
                  <path fill="none" stroke="white" stroke-width="1.5" d="M0,-3.0v7 M-2.5,-0.5L0,-3.0L2.5,-0.5"/>
                </g>
        </g>
        <svg viewBox="0 0 15 15" width="100%" height="30px" preserveAspectRatio="xMaxYMin meet">
         <g id="arrow_out" transform="scale(0.3 0.3)">
          <a xlink:href="threaddeleteextractcode_8cpp__incl_org.svg" target="_base">
           <rect id="button" ry="5" rx="5" y="6" x="6" height="38" width="38"
                fill="#f2f5e9" fill-opacity="0.5" stroke="#606060" stroke-width="1.0"/>
           <path id="arrow"
             d="M 11.500037,31.436501 C 11.940474,20.09759 22.043105,11.32322 32.158766,21.979434 L 37.068811,17.246167 C 37.068811,17.246167 37.088388,32 37.088388,32 L 22.160133,31.978069 C 22.160133,31.978069 26.997745,27.140456 26.997745,27.140456 C 18.528582,18.264221 13.291696,25.230495 11.500037,31.436501 z"
             style="fill:#404040;"/>
          </a>
         </g>
        </svg>
</svg>
