<?xml version="1.0" encoding="UTF-8" standalone="no"?>
<!DOCTYPE svg PUBLIC "-//W3C//DTD SVG 1.1//EN"
 "http://www.w3.org/Graphics/SVG/1.1/DTD/svg11.dtd">
<!-- Generated by graphviz version 2.38.0 (20140413.2041)
 -->
<!-- Title: S:/QT_CREATOR/Locker_Control/thread_statusdoors.cpp Pages: 1 -->
<svg width="290pt" height="298pt"
 viewBox="0.00 0.00 290.00 298.00" xmlns="http://www.w3.org/2000/svg" xmlns:xlink="http://www.w3.org/1999/xlink">
<g id="graph0" class="graph" transform="scale(1 1) rotate(0) translate(4 294)">
<title>S:/QT_CREATOR/Locker_Control/thread_statusdoors.cpp</title>
<!-- Node1 -->
<g id="node1" class="node"><title>Node1</title>
<polygon fill="#bfbfbf" stroke="black" points="52,-265.5 52,-289.5 171,-289.5 171,-265.5 52,-265.5"/>
<text text-anchor="start" x="60" y="-279.9" font-family="Helvetica,sans-Serif" font-size="7.00">S:/QT_CREATOR/Locker</text>
<text text-anchor="middle" x="111.5" y="-271.9" font-family="Helvetica,sans-Serif" font-size="7.00">_Control/thread_statusdoors.cpp</text>
</g>
<!-- Node2 -->
<g id="node2" class="node"><title>Node2</title>
<g id="a_node2"><a xlink:href="thread__statusdoors_8h.html" target="_top" xlink:title="thread_statusdoors.h">
<polygon fill="none" stroke="black" points="30,-212.5 30,-228.5 113,-228.5 113,-212.5 30,-212.5"/>
<text text-anchor="middle" x="71.5" y="-218.9" font-family="Helvetica,sans-Serif" font-size="7.00">thread_statusdoors.h</text>
</a>
</g>
</g>
<!-- Node1&#45;&gt;Node2 -->
<g id="edge1" class="edge"><title>Node1&#45;&gt;Node2</title>
<path fill="none" stroke="midnightblue" d="M103.405,-265.37C97.4472,-257.177 89.2726,-245.937 82.6896,-236.886"/>
<polygon fill="midnightblue" stroke="midnightblue" points="85.4905,-234.786 76.7782,-228.757 79.8293,-238.903 85.4905,-234.786"/>
</g>
<!-- Node10 -->
<g id="node10" class="node"><title>Node10</title>
<polygon fill="none" stroke="#bfbfbf" points="131.5,-212.5 131.5,-228.5 173.5,-228.5 173.5,-212.5 131.5,-212.5"/>
<text text-anchor="middle" x="152.5" y="-218.9" font-family="Helvetica,sans-Serif" font-size="7.00">QDebug</text>
</g>
<!-- Node1&#45;&gt;Node10 -->
<g id="edge12" class="edge"><title>Node1&#45;&gt;Node10</title>
<path fill="none" stroke="midnightblue" d="M119.797,-265.37C125.904,-257.177 134.283,-245.937 141.031,-236.886"/>
<polygon fill="midnightblue" stroke="midnightblue" points="143.919,-238.867 147.09,-228.757 138.307,-234.683 143.919,-238.867"/>
</g>
<!-- Node3 -->
<g id="node3" class="node"><title>Node3</title>
<polygon fill="none" stroke="#bfbfbf" points="0,-159.5 0,-175.5 43,-175.5 43,-159.5 0,-159.5"/>
<text text-anchor="middle" x="21.5" y="-165.9" font-family="Helvetica,sans-Serif" font-size="7.00">QThread</text>
</g>
<!-- Node2&#45;&gt;Node3 -->
<g id="edge2" class="edge"><title>Node2&#45;&gt;Node3</title>
<path fill="none" stroke="midnightblue" d="M64.5477,-212.409C57.0847,-204.796 45.0272,-192.498 35.5689,-182.85"/>
<polygon fill="midnightblue" stroke="midnightblue" points="37.8932,-180.222 28.3932,-175.531 32.8947,-185.122 37.8932,-180.222"/>
</g>
<!-- Node4 -->
<g id="node4" class="node"><title>Node4</title>
<g id="a_node4"><a xlink:href="_data_structures_8h.html" target="_top" xlink:title="Definnitions des formats de communications des données entre les classes de l&#39;application LC...">
<polygon fill="none" stroke="black" points="74.5,-53.5 74.5,-69.5 144.5,-69.5 144.5,-53.5 74.5,-53.5"/>
<text text-anchor="middle" x="109.5" y="-59.9" font-family="Helvetica,sans-Serif" font-size="7.00">DataStructures.h</text>
</a>
</g>
</g>
<!-- Node2&#45;&gt;Node4 -->
<g id="edge3" class="edge"><title>Node2&#45;&gt;Node4</title>
<path fill="none" stroke="midnightblue" d="M73.2315,-212.346C78.919,-188.848 97.1332,-113.594 105.377,-79.5336"/>
<polygon fill="midnightblue" stroke="midnightblue" points="108.808,-80.2387 107.758,-69.696 102.004,-78.5919 108.808,-80.2387"/>
</g>
<!-- Node7 -->
<g id="node7" class="node"><title>Node7</title>
<g id="a_node7"><a xlink:href="cdoors_8h.html" target="_top" xlink:title="cdoors.h">
<polygon fill="none" stroke="black" points="99.5,-159.5 99.5,-175.5 143.5,-175.5 143.5,-159.5 99.5,-159.5"/>
<text text-anchor="middle" x="121.5" y="-165.9" font-family="Helvetica,sans-Serif" font-size="7.00">cdoors.h</text>
</a>
</g>
</g>
<!-- Node2&#45;&gt;Node7 -->
<g id="edge6" class="edge"><title>Node2&#45;&gt;Node7</title>
<path fill="none" stroke="midnightblue" d="M78.4523,-212.409C85.9153,-204.796 97.9728,-192.498 107.431,-182.85"/>
<polygon fill="midnightblue" stroke="midnightblue" points="110.105,-185.122 114.607,-175.531 105.107,-180.222 110.105,-185.122"/>
</g>
<!-- Node5 -->
<g id="node5" class="node"><title>Node5</title>
<polygon fill="none" stroke="#bfbfbf" points="148.5,-0.5 148.5,-16.5 188.5,-16.5 188.5,-0.5 148.5,-0.5"/>
<text text-anchor="middle" x="168.5" y="-6.9" font-family="Helvetica,sans-Serif" font-size="7.00">QString</text>
</g>
<!-- Node4&#45;&gt;Node5 -->
<g id="edge4" class="edge"><title>Node4&#45;&gt;Node5</title>
<path fill="none" stroke="midnightblue" d="M117.704,-53.4087C126.686,-45.6442 141.309,-33.0039 152.565,-23.2747"/>
<polygon fill="midnightblue" stroke="midnightblue" points="155.089,-25.7186 160.366,-16.5311 150.512,-20.4228 155.089,-25.7186"/>
</g>
<!-- Node6 -->
<g id="node6" class="node"><title>Node6</title>
<polygon fill="none" stroke="#bfbfbf" points="93,-0.5 93,-16.5 126,-16.5 126,-0.5 93,-0.5"/>
<text text-anchor="middle" x="109.5" y="-6.9" font-family="Helvetica,sans-Serif" font-size="7.00">QList</text>
</g>
<!-- Node4&#45;&gt;Node6 -->
<g id="edge5" class="edge"><title>Node4&#45;&gt;Node6</title>
<path fill="none" stroke="midnightblue" d="M109.5,-53.4087C109.5,-46.5576 109.5,-35.9106 109.5,-26.8167"/>
<polygon fill="midnightblue" stroke="midnightblue" points="113,-26.5311 109.5,-16.5311 106,-26.5311 113,-26.5311"/>
</g>
<!-- Node7&#45;&gt;Node4 -->
<g id="edge7" class="edge"><title>Node7&#45;&gt;Node4</title>
<path fill="none" stroke="midnightblue" d="M120.675,-159.352C118.8,-143.098 114.172,-102.989 111.497,-79.8037"/>
<polygon fill="midnightblue" stroke="midnightblue" points="114.954,-79.2312 110.331,-69.6984 108,-80.0337 114.954,-79.2312"/>
</g>
<!-- Node8 -->
<g id="node8" class="node"><title>Node8</title>
<g id="a_node8"><a xlink:href="csqlite__local__db_8h.html" target="_top" xlink:title="csqlite_local_db.h">
<polygon fill="none" stroke="red" points="137.5,-106.5 137.5,-122.5 209.5,-122.5 209.5,-106.5 137.5,-106.5"/>
<text text-anchor="middle" x="173.5" y="-112.9" font-family="Helvetica,sans-Serif" font-size="7.00">csqlite_local_db.h</text>
</a>
</g>
</g>
<!-- Node7&#45;&gt;Node8 -->
<g id="edge8" class="edge"><title>Node7&#45;&gt;Node8</title>
<path fill="none" stroke="midnightblue" d="M128.73,-159.409C136.57,-151.72 149.283,-139.251 159.163,-129.562"/>
<polygon fill="midnightblue" stroke="midnightblue" points="161.642,-132.032 166.331,-122.531 156.741,-127.034 161.642,-132.032"/>
</g>
<!-- Node8&#45;&gt;Node4 -->
<g id="edge11" class="edge"><title>Node8&#45;&gt;Node4</title>
<path fill="none" stroke="midnightblue" d="M164.601,-106.409C154.762,-98.568 138.683,-85.7556 126.428,-75.9894"/>
<polygon fill="midnightblue" stroke="midnightblue" points="128.325,-73.026 118.323,-69.5311 123.963,-78.5004 128.325,-73.026"/>
</g>
<!-- Node8&#45;&gt;Node5 -->
<g id="edge9" class="edge"><title>Node8&#45;&gt;Node5</title>
<path fill="none" stroke="midnightblue" d="M173.156,-106.352C172.375,-90.0985 170.447,-49.9887 169.332,-26.8037"/>
<polygon fill="midnightblue" stroke="midnightblue" points="172.822,-26.5187 168.846,-16.6984 165.83,-26.8549 172.822,-26.5187"/>
</g>
<!-- Node9 -->
<g id="node9" class="node"><title>Node9</title>
<polygon fill="none" stroke="#bfbfbf" points="201,-53.5 201,-69.5 282,-69.5 282,-53.5 201,-53.5"/>
<text text-anchor="middle" x="241.5" y="-59.9" font-family="Helvetica,sans-Serif" font-size="7.00">QtSql/QSqlDatabase</text>
</g>
<!-- Node8&#45;&gt;Node9 -->
<g id="edge10" class="edge"><title>Node8&#45;&gt;Node9</title>
<path fill="none" stroke="midnightblue" d="M182.955,-106.409C193.511,-98.4919 210.825,-85.5063 223.892,-75.7058"/>
<polygon fill="midnightblue" stroke="midnightblue" points="226.225,-78.3311 232.125,-69.5311 222.025,-72.7311 226.225,-78.3311"/>
</g>
</g>
</svg>
