<?xml version="1.0" encoding="UTF-8" standalone="no"?>
<!DOCTYPE svg PUBLIC "-//W3C//DTD SVG 1.1//EN"
 "http://www.w3.org/Graphics/SVG/1.1/DTD/svg11.dtd">
<!-- Generated by graphviz version 2.38.0 (20140413.2041)
 -->
<!-- Title: S:/QT_CREATOR/Locker_Control/thread_statusdoors.h Pages: 1 -->
<svg width="410pt" height="245pt"
 viewBox="0.00 0.00 410.00 245.00" xmlns="http://www.w3.org/2000/svg" xmlns:xlink="http://www.w3.org/1999/xlink">
<g id="graph0" class="graph" transform="scale(1 1) rotate(0) translate(4 241)">
<title>S:/QT_CREATOR/Locker_Control/thread_statusdoors.h</title>
<!-- Node1 -->
<g id="node1" class="node"><title>Node1</title>
<polygon fill="#bfbfbf" stroke="black" points="16,-212.5 16,-236.5 127,-236.5 127,-212.5 16,-212.5"/>
<text text-anchor="start" x="24" y="-226.9" font-family="Helvetica,sans-Serif" font-size="7.00">S:/QT_CREATOR/Locker</text>
<text text-anchor="middle" x="71.5" y="-218.9" font-family="Helvetica,sans-Serif" font-size="7.00">_Control/thread_statusdoors.h</text>
</g>
<!-- Node2 -->
<g id="node2" class="node"><title>Node2</title>
<polygon fill="none" stroke="#bfbfbf" points="0,-159.5 0,-175.5 43,-175.5 43,-159.5 0,-159.5"/>
<text text-anchor="middle" x="21.5" y="-165.9" font-family="Helvetica,sans-Serif" font-size="7.00">QThread</text>
</g>
<!-- Node1&#45;&gt;Node2 -->
<g id="edge1" class="edge"><title>Node1&#45;&gt;Node2</title>
<path fill="none" stroke="midnightblue" d="M61.3818,-212.37C53.7788,-204.007 43.2888,-192.468 34.9753,-183.323"/>
<polygon fill="midnightblue" stroke="midnightblue" points="37.4143,-180.803 28.0977,-175.757 32.2347,-185.511 37.4143,-180.803"/>
</g>
<!-- Node3 -->
<g id="node3" class="node"><title>Node3</title>
<g id="a_node3"><a xlink:href="_data_structures_8h.html" target="_top" xlink:title="Definnitions des formats de communications des données entre les classes de l&#39;application LC...">
<polygon fill="none" stroke="black" points="36.5,-53.5 36.5,-69.5 106.5,-69.5 106.5,-53.5 36.5,-53.5"/>
<text text-anchor="middle" x="71.5" y="-59.9" font-family="Helvetica,sans-Serif" font-size="7.00">DataStructures.h</text>
</a>
</g>
</g>
<!-- Node1&#45;&gt;Node3 -->
<g id="edge2" class="edge"><title>Node1&#45;&gt;Node3</title>
<path fill="none" stroke="midnightblue" d="M71.5,-212.434C71.5,-184.973 71.5,-113.522 71.5,-80.1515"/>
<polygon fill="midnightblue" stroke="midnightblue" points="75.0001,-79.7322 71.5,-69.7323 68.0001,-79.7323 75.0001,-79.7322"/>
</g>
<!-- Node6 -->
<g id="node6" class="node"><title>Node6</title>
<g id="a_node6"><a xlink:href="cdoors_8h.html" target="_top" xlink:title="cdoors.h">
<polygon fill="none" stroke="black" points="99.5,-159.5 99.5,-175.5 143.5,-175.5 143.5,-159.5 99.5,-159.5"/>
<text text-anchor="middle" x="121.5" y="-165.9" font-family="Helvetica,sans-Serif" font-size="7.00">cdoors.h</text>
</a>
</g>
</g>
<!-- Node1&#45;&gt;Node6 -->
<g id="edge5" class="edge"><title>Node1&#45;&gt;Node6</title>
<path fill="none" stroke="midnightblue" d="M81.6182,-212.37C89.2212,-204.007 99.7112,-192.468 108.025,-183.323"/>
<polygon fill="midnightblue" stroke="midnightblue" points="110.765,-185.511 114.902,-175.757 105.586,-180.803 110.765,-185.511"/>
</g>
<!-- Node4 -->
<g id="node4" class="node"><title>Node4</title>
<polygon fill="none" stroke="#bfbfbf" points="110.5,-0.5 110.5,-16.5 150.5,-16.5 150.5,-0.5 110.5,-0.5"/>
<text text-anchor="middle" x="130.5" y="-6.9" font-family="Helvetica,sans-Serif" font-size="7.00">QString</text>
</g>
<!-- Node3&#45;&gt;Node4 -->
<g id="edge3" class="edge"><title>Node3&#45;&gt;Node4</title>
<path fill="none" stroke="midnightblue" d="M79.7037,-53.4087C88.6862,-45.6442 103.309,-33.0039 114.565,-23.2747"/>
<polygon fill="midnightblue" stroke="midnightblue" points="117.089,-25.7186 122.366,-16.5311 112.512,-20.4228 117.089,-25.7186"/>
</g>
<!-- Node5 -->
<g id="node5" class="node"><title>Node5</title>
<polygon fill="none" stroke="#bfbfbf" points="55,-0.5 55,-16.5 88,-16.5 88,-0.5 55,-0.5"/>
<text text-anchor="middle" x="71.5" y="-6.9" font-family="Helvetica,sans-Serif" font-size="7.00">QList</text>
</g>
<!-- Node3&#45;&gt;Node5 -->
<g id="edge4" class="edge"><title>Node3&#45;&gt;Node5</title>
<path fill="none" stroke="midnightblue" d="M71.5,-53.4087C71.5,-46.5576 71.5,-35.9106 71.5,-26.8167"/>
<polygon fill="midnightblue" stroke="midnightblue" points="75.0001,-26.5311 71.5,-16.5311 68.0001,-26.5311 75.0001,-26.5311"/>
</g>
<!-- Node6&#45;&gt;Node3 -->
<g id="edge6" class="edge"><title>Node6&#45;&gt;Node3</title>
<path fill="none" stroke="midnightblue" d="M118.063,-159.352C110.142,-142.876 90.4352,-101.885 79.3656,-78.8605"/>
<polygon fill="midnightblue" stroke="midnightblue" points="82.4481,-77.1943 74.9608,-69.6984 76.1394,-80.2274 82.4481,-77.1943"/>
</g>
<!-- Node7 -->
<g id="node7" class="node"><title>Node7</title>
<g id="a_node7"><a xlink:href="csqlite__local__db_8h.html" target="_top" xlink:title="csqlite_local_db.h">
<polygon fill="none" stroke="red" points="155.5,-106.5 155.5,-122.5 227.5,-122.5 227.5,-106.5 155.5,-106.5"/>
<text text-anchor="middle" x="191.5" y="-112.9" font-family="Helvetica,sans-Serif" font-size="7.00">csqlite_local_db.h</text>
</a>
</g>
</g>
<!-- Node6&#45;&gt;Node7 -->
<g id="edge7" class="edge"><title>Node6&#45;&gt;Node7</title>
<path fill="none" stroke="midnightblue" d="M131.233,-159.409C142.204,-151.416 160.266,-138.256 173.761,-128.424"/>
<polygon fill="midnightblue" stroke="midnightblue" points="175.828,-131.249 181.849,-122.531 171.706,-125.591 175.828,-131.249"/>
</g>
<!-- Node7&#45;&gt;Node3 -->
<g id="edge12" class="edge"><title>Node7&#45;&gt;Node3</title>
<path fill="none" stroke="midnightblue" d="M174.815,-106.409C154.754,-97.8829 120.861,-83.4786 97.3928,-73.5044"/>
<polygon fill="midnightblue" stroke="midnightblue" points="98.6161,-70.2214 88.0438,-69.5311 95.8781,-76.6637 98.6161,-70.2214"/>
</g>
<!-- Node7&#45;&gt;Node4 -->
<g id="edge8" class="edge"><title>Node7&#45;&gt;Node4</title>
<path fill="none" stroke="midnightblue" d="M184.14,-106.381C176.019,-98.2086 162.979,-84.1057 154.5,-70 146.125,-56.0677 139.584,-38.6887 135.46,-26.1365"/>
<polygon fill="midnightblue" stroke="midnightblue" points="138.791,-25.0611 132.473,-16.5561 132.108,-27.1447 138.791,-25.0611"/>
</g>
<!-- Node8 -->
<g id="node8" class="node"><title>Node8</title>
<polygon fill="none" stroke="#bfbfbf" points="163,-53.5 163,-69.5 244,-69.5 244,-53.5 163,-53.5"/>
<text text-anchor="middle" x="203.5" y="-59.9" font-family="Helvetica,sans-Serif" font-size="7.00">QtSql/QSqlDatabase</text>
</g>
<!-- Node7&#45;&gt;Node8 -->
<g id="edge9" class="edge"><title>Node7&#45;&gt;Node8</title>
<path fill="none" stroke="midnightblue" d="M193.169,-106.409C194.798,-99.4815 197.342,-88.6735 199.497,-79.5142"/>
<polygon fill="midnightblue" stroke="midnightblue" points="202.962,-80.0669 201.846,-69.5311 196.148,-78.4636 202.962,-80.0669"/>
</g>
<!-- Node9 -->
<g id="node9" class="node"><title>Node9</title>
<polygon fill="none" stroke="#bfbfbf" points="262,-53.5 262,-69.5 333,-69.5 333,-53.5 262,-53.5"/>
<text text-anchor="middle" x="297.5" y="-59.9" font-family="Helvetica,sans-Serif" font-size="7.00">QtSql/QSqlDriver</text>
</g>
<!-- Node7&#45;&gt;Node9 -->
<g id="edge10" class="edge"><title>Node7&#45;&gt;Node9</title>
<path fill="none" stroke="midnightblue" d="M206.239,-106.409C223.722,-97.9971 253.098,-83.8633 273.79,-73.9075"/>
<polygon fill="midnightblue" stroke="midnightblue" points="275.393,-77.0207 282.886,-69.5311 272.358,-70.7128 275.393,-77.0207"/>
</g>
<!-- Node10 -->
<g id="node10" class="node"><title>Node10</title>
<polygon fill="none" stroke="#bfbfbf" points="351,-53.5 351,-69.5 402,-69.5 402,-53.5 351,-53.5"/>
<text text-anchor="middle" x="376.5" y="-59.9" font-family="Helvetica,sans-Serif" font-size="7.00">QSqlQuery</text>
</g>
<!-- Node7&#45;&gt;Node10 -->
<g id="edge11" class="edge"><title>Node7&#45;&gt;Node10</title>
<path fill="none" stroke="midnightblue" d="M217.223,-106.409C249.531,-97.5023 305.109,-82.1807 341.328,-72.196"/>
<polygon fill="midnightblue" stroke="midnightblue" points="342.285,-75.5629 350.995,-69.5311 340.424,-68.8147 342.285,-75.5629"/>
</g>
</g>
</svg>
