<?xml version="1.0" encoding="UTF-8" standalone="no"?>
<!DOCTYPE svg PUBLIC "-//W3C//DTD SVG 1.1//EN"
 "http://www.w3.org/Graphics/SVG/1.1/DTD/svg11.dtd">
<!-- Generated by graphviz version 2.38.0 (20140413.2041)
 -->
<!-- Title: S:/QT_CREATOR/Locker_Control/thread_databasemanager.cpp Pages: 1 -->
<svg width="321pt" height="351pt"
 viewBox="0.00 0.00 320.50 351.00" xmlns="http://www.w3.org/2000/svg" xmlns:xlink="http://www.w3.org/1999/xlink">
<g id="graph0" class="graph" transform="scale(1 1) rotate(0) translate(4 347)">
<title>S:/QT_CREATOR/Locker_Control/thread_databasemanager.cpp</title>
<!-- Node1 -->
<g id="node1" class="node"><title>Node1</title>
<polygon fill="#bfbfbf" stroke="black" points="134,-318.5 134,-342.5 271,-342.5 271,-318.5 134,-318.5"/>
<text text-anchor="start" x="142" y="-332.9" font-family="Helvetica,sans-Serif" font-size="7.00">S:/QT_CREATOR/Locker</text>
<text text-anchor="middle" x="202.5" y="-324.9" font-family="Helvetica,sans-Serif" font-size="7.00">_Control/thread_databasemanager.cpp</text>
</g>
<!-- Node2 -->
<g id="node2" class="node"><title>Node2</title>
<g id="a_node2"><a xlink:href="thread__databasemanager_8h.html" target="_top" xlink:title="thread_databasemanager.h">
<polygon fill="none" stroke="black" points="107,-265.5 107,-281.5 208,-281.5 208,-265.5 107,-265.5"/>
<text text-anchor="middle" x="157.5" y="-271.9" font-family="Helvetica,sans-Serif" font-size="7.00">thread_databasemanager.h</text>
</a>
</g>
</g>
<!-- Node1&#45;&gt;Node2 -->
<g id="edge1" class="edge"><title>Node1&#45;&gt;Node2</title>
<path fill="none" stroke="midnightblue" d="M193.394,-318.37C186.621,-310.092 177.302,-298.703 169.857,-289.604"/>
<polygon fill="midnightblue" stroke="midnightblue" points="172.479,-287.281 163.438,-281.757 167.061,-291.713 172.479,-287.281"/>
</g>
<!-- Node10 -->
<g id="node10" class="node"><title>Node10</title>
<polygon fill="none" stroke="#bfbfbf" points="226.5,-265.5 226.5,-281.5 268.5,-281.5 268.5,-265.5 226.5,-265.5"/>
<text text-anchor="middle" x="247.5" y="-271.9" font-family="Helvetica,sans-Serif" font-size="7.00">QDebug</text>
</g>
<!-- Node1&#45;&gt;Node10 -->
<g id="edge16" class="edge"><title>Node1&#45;&gt;Node10</title>
<path fill="none" stroke="midnightblue" d="M211.606,-318.37C218.379,-310.092 227.698,-298.703 235.143,-289.604"/>
<polygon fill="midnightblue" stroke="midnightblue" points="237.939,-291.713 241.562,-281.757 232.521,-287.281 237.939,-291.713"/>
</g>
<!-- Node3 -->
<g id="node3" class="node"><title>Node3</title>
<polygon fill="none" stroke="#bfbfbf" points="0,-212.5 0,-228.5 43,-228.5 43,-212.5 0,-212.5"/>
<text text-anchor="middle" x="21.5" y="-218.9" font-family="Helvetica,sans-Serif" font-size="7.00">QThread</text>
</g>
<!-- Node2&#45;&gt;Node3 -->
<g id="edge2" class="edge"><title>Node2&#45;&gt;Node3</title>
<path fill="none" stroke="midnightblue" d="M138.59,-265.409C115.55,-256.769 76.4111,-242.092 49.7829,-232.106"/>
<polygon fill="midnightblue" stroke="midnightblue" points="50.8419,-228.765 40.2496,-228.531 48.384,-235.32 50.8419,-228.765"/>
</g>
<!-- Node4 -->
<g id="node4" class="node"><title>Node4</title>
<g id="a_node4"><a xlink:href="csqlite__local__db_8h.html" target="_top" xlink:title="csqlite_local_db.h">
<polygon fill="none" stroke="red" points="97.5,-106.5 97.5,-122.5 169.5,-122.5 169.5,-106.5 97.5,-106.5"/>
<text text-anchor="middle" x="133.5" y="-112.9" font-family="Helvetica,sans-Serif" font-size="7.00">csqlite_local_db.h</text>
</a>
</g>
</g>
<!-- Node2&#45;&gt;Node4 -->
<g id="edge3" class="edge"><title>Node2&#45;&gt;Node4</title>
<path fill="none" stroke="midnightblue" d="M137.017,-265.437C121.158,-258.758 100.295,-247.038 90.5,-229 72.3019,-195.488 101.324,-152.635 119.897,-130.396"/>
<polygon fill="midnightblue" stroke="midnightblue" points="122.673,-132.537 126.606,-122.699 117.396,-127.937 122.673,-132.537"/>
</g>
<!-- Node7 -->
<g id="node7" class="node"><title>Node7</title>
<g id="a_node7"><a xlink:href="_data_structures_8h.html" target="_top" xlink:title="Definnitions des formats de communications des données entre les classes de l&#39;application LC...">
<polygon fill="none" stroke="red" points="242.5,-53.5 242.5,-69.5 312.5,-69.5 312.5,-53.5 242.5,-53.5"/>
<text text-anchor="middle" x="277.5" y="-59.9" font-family="Helvetica,sans-Serif" font-size="7.00">DataStructures.h</text>
</a>
</g>
</g>
<!-- Node2&#45;&gt;Node7 -->
<g id="edge8" class="edge"><title>Node2&#45;&gt;Node7</title>
<path fill="none" stroke="midnightblue" d="M182.749,-265.385C201.206,-258.882 225.387,-247.421 239.5,-229 274.188,-183.722 278.201,-112.471 278.053,-79.8513"/>
<polygon fill="midnightblue" stroke="midnightblue" points="281.549,-79.6324 277.859,-69.701 274.551,-79.7659 281.549,-79.6324"/>
</g>
<!-- Node8 -->
<g id="node8" class="node"><title>Node8</title>
<g id="a_node8"><a xlink:href="sqlite__local__databasemanager_8h.html" target="_top" xlink:title="sqlite_local_databasemanager.h">
<polygon fill="none" stroke="red" points="99.5,-212.5 99.5,-228.5 215.5,-228.5 215.5,-212.5 99.5,-212.5"/>
<text text-anchor="middle" x="157.5" y="-218.9" font-family="Helvetica,sans-Serif" font-size="7.00">sqlite_local_databasemanager.h</text>
</a>
</g>
</g>
<!-- Node2&#45;&gt;Node8 -->
<g id="edge9" class="edge"><title>Node2&#45;&gt;Node8</title>
<path fill="none" stroke="midnightblue" d="M152.655,-265.409C150.845,-258.482 150.325,-247.674 151.094,-238.514"/>
<polygon fill="midnightblue" stroke="midnightblue" points="154.568,-238.955 152.671,-228.531 147.653,-237.862 154.568,-238.955"/>
</g>
<!-- Node9 -->
<g id="node9" class="node"><title>Node9</title>
<g id="a_node9"><a xlink:href="consolewindows_8h.html" target="_top" xlink:title="consolewindows.h">
<polygon fill="none" stroke="red" points="149.5,-159.5 149.5,-175.5 221.5,-175.5 221.5,-159.5 149.5,-159.5"/>
<text text-anchor="middle" x="185.5" y="-165.9" font-family="Helvetica,sans-Serif" font-size="7.00">consolewindows.h</text>
</a>
</g>
</g>
<!-- Node2&#45;&gt;Node9 -->
<g id="edge15" class="edge"><title>Node2&#45;&gt;Node9</title>
<path fill="none" stroke="midnightblue" d="M177.983,-265.437C193.842,-258.758 214.705,-247.038 224.5,-229 233.573,-212.292 218.087,-194.075 204.029,-182.044"/>
<polygon fill="midnightblue" stroke="midnightblue" points="206.114,-179.23 196.113,-175.733 201.75,-184.703 206.114,-179.23"/>
</g>
<!-- Node5 -->
<g id="node5" class="node"><title>Node5</title>
<polygon fill="none" stroke="#bfbfbf" points="175.5,-0.5 175.5,-16.5 215.5,-16.5 215.5,-0.5 175.5,-0.5"/>
<text text-anchor="middle" x="195.5" y="-6.9" font-family="Helvetica,sans-Serif" font-size="7.00">QString</text>
</g>
<!-- Node4&#45;&gt;Node5 -->
<g id="edge4" class="edge"><title>Node4&#45;&gt;Node5</title>
<path fill="none" stroke="midnightblue" d="M131.644,-106.283C129.001,-94.396 125.409,-70.2956 134.5,-53 141.902,-38.9173 156.156,-28.3615 169.024,-21.1772"/>
<polygon fill="midnightblue" stroke="midnightblue" points="170.743,-24.2289 178.032,-16.5396 167.539,-18.0053 170.743,-24.2289"/>
</g>
<!-- Node6 -->
<g id="node6" class="node"><title>Node6</title>
<polygon fill="none" stroke="#bfbfbf" points="143,-53.5 143,-69.5 224,-69.5 224,-53.5 143,-53.5"/>
<text text-anchor="middle" x="183.5" y="-59.9" font-family="Helvetica,sans-Serif" font-size="7.00">QtSql/QSqlDatabase</text>
</g>
<!-- Node4&#45;&gt;Node6 -->
<g id="edge5" class="edge"><title>Node4&#45;&gt;Node6</title>
<path fill="none" stroke="midnightblue" d="M140.452,-106.409C147.915,-98.7964 159.973,-86.4977 169.431,-76.8503"/>
<polygon fill="midnightblue" stroke="midnightblue" points="172.105,-79.1221 176.607,-69.5311 167.107,-74.2216 172.105,-79.1221"/>
</g>
<!-- Node4&#45;&gt;Node7 -->
<g id="edge6" class="edge"><title>Node4&#45;&gt;Node7</title>
<path fill="none" stroke="midnightblue" d="M153.523,-106.409C178.025,-97.7307 219.724,-82.9622 247.925,-72.9744"/>
<polygon fill="midnightblue" stroke="midnightblue" points="249.39,-76.1688 257.647,-69.5311 247.053,-69.5704 249.39,-76.1688"/>
</g>
<!-- Node7&#45;&gt;Node5 -->
<g id="edge7" class="edge"><title>Node7&#45;&gt;Node5</title>
<path fill="none" stroke="midnightblue" d="M266.098,-53.4087C253.002,-45.2635 231.279,-31.7529 215.382,-21.8658"/>
<polygon fill="midnightblue" stroke="midnightblue" points="217.145,-18.8404 206.805,-16.5311 213.448,-24.7846 217.145,-18.8404"/>
</g>
<!-- Node8&#45;&gt;Node2 -->
<g id="edge11" class="edge"><title>Node8&#45;&gt;Node2</title>
<path fill="none" stroke="midnightblue" d="M162.329,-228.531C164.146,-235.436 164.674,-246.237 163.913,-255.406"/>
<polygon fill="midnightblue" stroke="midnightblue" points="160.436,-254.987 162.345,-265.409 167.351,-256.071 160.436,-254.987"/>
</g>
<!-- Node8&#45;&gt;Node4 -->
<g id="edge10" class="edge"><title>Node8&#45;&gt;Node4</title>
<path fill="none" stroke="midnightblue" d="M154.021,-212.299C150.083,-203.822 143.789,-189.219 140.5,-176 136.94,-161.693 135.181,-145.022 134.318,-132.808"/>
<polygon fill="midnightblue" stroke="midnightblue" points="137.804,-132.467 133.735,-122.685 130.816,-132.87 137.804,-132.467"/>
</g>
<!-- Node8&#45;&gt;Node9 -->
<g id="edge12" class="edge"><title>Node8&#45;&gt;Node9</title>
<path fill="none" stroke="midnightblue" d="M156.548,-212.409C158.673,-205.025 164.684,-193.231 170.904,-183.726"/>
<polygon fill="midnightblue" stroke="midnightblue" points="173.802,-185.69 176.811,-175.531 168.124,-181.596 173.802,-185.69"/>
</g>
<!-- Node9&#45;&gt;Node4 -->
<g id="edge13" class="edge"><title>Node9&#45;&gt;Node4</title>
<path fill="none" stroke="midnightblue" d="M178.27,-159.409C170.43,-151.72 157.717,-139.251 147.837,-129.562"/>
<polygon fill="midnightblue" stroke="midnightblue" points="150.259,-127.034 140.669,-122.531 145.358,-132.032 150.259,-127.034"/>
</g>
<!-- Node9&#45;&gt;Node8 -->
<g id="edge14" class="edge"><title>Node9&#45;&gt;Node8</title>
<path fill="none" stroke="midnightblue" d="M186.469,-175.531C184.365,-182.891 178.366,-194.678 172.147,-204.197"/>
<polygon fill="midnightblue" stroke="midnightblue" points="169.238,-202.247 166.238,-212.409 174.92,-206.336 169.238,-202.247"/>
</g>
</g>
</svg>
