<?xml version="1.0" encoding="UTF-8" standalone="no"?>
<!DOCTYPE svg PUBLIC "-//W3C//DTD SVG 1.1//EN"
 "http://www.w3.org/Graphics/SVG/1.1/DTD/svg11.dtd">
<!-- Generated by graphviz version 2.38.0 (20140413.2041)
 -->
<!-- Title: S:/QT_CREATOR/Locker_Control/thread_localdatabase_autosave.h Pages: 1 -->
<svg width="529pt" height="301pt"
 viewBox="0.00 0.00 528.50 301.00" xmlns="http://www.w3.org/2000/svg" xmlns:xlink="http://www.w3.org/1999/xlink">
<g id="graph0" class="graph" transform="scale(1 1) rotate(0) translate(4 297)">
<title>S:/QT_CREATOR/Locker_Control/thread_localdatabase_autosave.h</title>
<!-- Node1 -->
<g id="node1" class="node"><title>Node1</title>
<polygon fill="#bfbfbf" stroke="black" points="287.5,-260.5 287.5,-292.5 398.5,-292.5 398.5,-260.5 287.5,-260.5"/>
<text text-anchor="start" x="295.5" y="-282.9" font-family="Helvetica,sans-Serif" font-size="7.00">S:/QT_CREATOR/Locker</text>
<text text-anchor="start" x="295.5" y="-274.9" font-family="Helvetica,sans-Serif" font-size="7.00">_Control/thread_localdatabase</text>
<text text-anchor="middle" x="343" y="-266.9" font-family="Helvetica,sans-Serif" font-size="7.00">_autosave.h</text>
</g>
<!-- Node2 -->
<g id="node2" class="node"><title>Node2</title>
<g id="a_node2"><a xlink:href="sqlite__local__databasemanager_8h.html" target="_top" xlink:title="S:/QT_CREATOR/Locker\l_Control/sqlite_local\l_databasemanager.h">
<polygon fill="none" stroke="black" points="257.5,-191.5 257.5,-223.5 352.5,-223.5 352.5,-191.5 257.5,-191.5"/>
<text text-anchor="start" x="265.5" y="-213.9" font-family="Helvetica,sans-Serif" font-size="7.00">S:/QT_CREATOR/Locker</text>
<text text-anchor="start" x="265.5" y="-205.9" font-family="Helvetica,sans-Serif" font-size="7.00">_Control/sqlite_local</text>
<text text-anchor="middle" x="305" y="-197.9" font-family="Helvetica,sans-Serif" font-size="7.00">_databasemanager.h</text>
</a>
</g>
</g>
<!-- Node1&#45;&gt;Node2 -->
<g id="edge1" class="edge"><title>Node1&#45;&gt;Node2</title>
<path fill="none" stroke="midnightblue" d="M323.055,-251.773C317.232,-242.415 311.537,-231.942 307.835,-223.643"/>
<polygon fill="midnightblue" stroke="midnightblue" points="320.221,-253.834 328.616,-260.297 326.083,-250.009 320.221,-253.834"/>
</g>
<!-- Node8 -->
<g id="node8" class="node"><title>Node8</title>
<g id="a_node8"><a xlink:href="sqlite__local__databasemanager_8cpp.html" target="_top" xlink:title="S:/QT_CREATOR/Locker\l_Control/sqlite_local\l_databasemanager.cpp">
<polygon fill="none" stroke="black" points="342.5,-122.5 342.5,-154.5 437.5,-154.5 437.5,-122.5 342.5,-122.5"/>
<text text-anchor="start" x="350.5" y="-144.9" font-family="Helvetica,sans-Serif" font-size="7.00">S:/QT_CREATOR/Locker</text>
<text text-anchor="start" x="350.5" y="-136.9" font-family="Helvetica,sans-Serif" font-size="7.00">_Control/sqlite_local</text>
<text text-anchor="middle" x="390" y="-128.9" font-family="Helvetica,sans-Serif" font-size="7.00">_databasemanager.cpp</text>
</a>
</g>
</g>
<!-- Node1&#45;&gt;Node8 -->
<g id="edge12" class="edge"><title>Node1&#45;&gt;Node8</title>
<path fill="none" stroke="midnightblue" d="M351.755,-250.543C354.702,-242.116 358.003,-232.653 361,-224 369.376,-199.818 379.002,-171.705 384.787,-154.774"/>
<polygon fill="midnightblue" stroke="midnightblue" points="348.38,-249.589 348.378,-260.184 354.987,-251.903 348.38,-249.589"/>
</g>
<!-- Node9 -->
<g id="node9" class="node"><title>Node9</title>
<g id="a_node9"><a xlink:href="thread__localdatabase__autosave_8cpp.html" target="_top" xlink:title="S:/QT_CREATOR/Locker\l_Control/thread_localdatabase\l_autosave.cpp">
<polygon fill="none" stroke="black" points="409.5,-191.5 409.5,-223.5 520.5,-223.5 520.5,-191.5 409.5,-191.5"/>
<text text-anchor="start" x="417.5" y="-213.9" font-family="Helvetica,sans-Serif" font-size="7.00">S:/QT_CREATOR/Locker</text>
<text text-anchor="start" x="417.5" y="-205.9" font-family="Helvetica,sans-Serif" font-size="7.00">_Control/thread_localdatabase</text>
<text text-anchor="middle" x="465" y="-197.9" font-family="Helvetica,sans-Serif" font-size="7.00">_autosave.cpp</text>
</a>
</g>
</g>
<!-- Node1&#45;&gt;Node9 -->
<g id="edge13" class="edge"><title>Node1&#45;&gt;Node9</title>
<path fill="none" stroke="midnightblue" d="M379.172,-255.635C397.769,-245.422 420.078,-233.17 437.29,-223.718"/>
<polygon fill="midnightblue" stroke="midnightblue" points="377.46,-252.582 370.379,-260.464 380.829,-258.718 377.46,-252.582"/>
</g>
<!-- Node2&#45;&gt;Node1 -->
<g id="edge10" class="edge"><title>Node2&#45;&gt;Node1</title>
<path fill="none" stroke="midnightblue" d="M324.903,-232.159C330.726,-241.511 336.427,-251.987 340.138,-260.297"/>
<polygon fill="midnightblue" stroke="midnightblue" points="327.74,-230.103 319.342,-223.643 321.879,-233.93 327.74,-230.103"/>
</g>
<!-- Node3 -->
<g id="node3" class="node"><title>Node3</title>
<g id="a_node3"><a xlink:href="consolewindows_8h.html" target="_top" xlink:title="S:/QT_CREATOR/Locker\l_Control/consolewindows.h">
<polygon fill="none" stroke="black" points="166.5,-126.5 166.5,-150.5 267.5,-150.5 267.5,-126.5 166.5,-126.5"/>
<text text-anchor="start" x="174.5" y="-140.9" font-family="Helvetica,sans-Serif" font-size="7.00">S:/QT_CREATOR/Locker</text>
<text text-anchor="middle" x="217" y="-132.9" font-family="Helvetica,sans-Serif" font-size="7.00">_Control/consolewindows.h</text>
</a>
</g>
</g>
<!-- Node2&#45;&gt;Node3 -->
<g id="edge2" class="edge"><title>Node2&#45;&gt;Node3</title>
<path fill="none" stroke="midnightblue" d="M270.683,-185.196C254.812,-173.731 237.239,-160.06 226.494,-150.677"/>
<polygon fill="midnightblue" stroke="midnightblue" points="269.091,-188.359 279.271,-191.297 273.145,-182.652 269.091,-188.359"/>
</g>
<!-- Node5 -->
<g id="node5" class="node"><title>Node5</title>
<g id="a_node5"><a xlink:href="thread__databasemanager_8h.html" target="_top" xlink:title="S:/QT_CREATOR/Locker\l_Control/thread_databasemanager.h">
<polygon fill="none" stroke="black" points="240,-61.5 240,-85.5 370,-85.5 370,-61.5 240,-61.5"/>
<text text-anchor="start" x="248" y="-75.9" font-family="Helvetica,sans-Serif" font-size="7.00">S:/QT_CREATOR/Locker</text>
<text text-anchor="middle" x="305" y="-67.9" font-family="Helvetica,sans-Serif" font-size="7.00">_Control/thread_databasemanager.h</text>
</a>
</g>
</g>
<!-- Node2&#45;&gt;Node5 -->
<g id="edge9" class="edge"><title>Node2&#45;&gt;Node5</title>
<path fill="none" stroke="midnightblue" d="M299.556,-181.237C297.414,-152.431 297.907,-106.622 301.036,-85.6476"/>
<polygon fill="midnightblue" stroke="midnightblue" points="296.087,-181.729 300.506,-191.358 303.056,-181.075 296.087,-181.729"/>
</g>
<!-- Node2&#45;&gt;Node8 -->
<g id="edge11" class="edge"><title>Node2&#45;&gt;Node8</title>
<path fill="none" stroke="midnightblue" d="M332.195,-185.064C344.763,-175.158 359.392,-163.627 370.789,-154.643"/>
<polygon fill="midnightblue" stroke="midnightblue" points="329.975,-182.357 324.288,-191.297 334.308,-187.855 329.975,-182.357"/>
</g>
<!-- Node3&#45;&gt;Node2 -->
<g id="edge7" class="edge"><title>Node3&#45;&gt;Node2</title>
<path fill="none" stroke="midnightblue" d="M245.416,-156.589C260.581,-167.294 278.472,-180.969 290.792,-191.297"/>
<polygon fill="midnightblue" stroke="midnightblue" points="247.081,-153.485 236.865,-150.677 243.1,-159.243 247.081,-153.485"/>
</g>
<!-- Node4 -->
<g id="node4" class="node"><title>Node4</title>
<g id="a_node4"><a xlink:href="consolewindows_8cpp.html" target="_top" xlink:title="S:/QT_CREATOR/Locker\l_Control/consolewindows.cpp">
<polygon fill="none" stroke="black" points="0,-61.5 0,-85.5 108,-85.5 108,-61.5 0,-61.5"/>
<text text-anchor="start" x="8" y="-75.9" font-family="Helvetica,sans-Serif" font-size="7.00">S:/QT_CREATOR/Locker</text>
<text text-anchor="middle" x="54" y="-67.9" font-family="Helvetica,sans-Serif" font-size="7.00">_Control/consolewindows.cpp</text>
</a>
</g>
</g>
<!-- Node3&#45;&gt;Node4 -->
<g id="edge3" class="edge"><title>Node3&#45;&gt;Node4</title>
<path fill="none" stroke="midnightblue" d="M178.681,-122.689C149.211,-111.299 109.151,-95.8161 82.4784,-85.507"/>
<polygon fill="midnightblue" stroke="midnightblue" points="177.645,-126.041 188.234,-126.382 180.168,-119.512 177.645,-126.041"/>
</g>
<!-- Node3&#45;&gt;Node5 -->
<g id="edge4" class="edge"><title>Node3&#45;&gt;Node5</title>
<path fill="none" stroke="midnightblue" d="M241.239,-120.147C256.615,-109.139 276.055,-95.222 289.404,-85.6656"/>
<polygon fill="midnightblue" stroke="midnightblue" points="238.826,-117.57 232.733,-126.237 242.901,-123.262 238.826,-117.57"/>
</g>
<!-- Node7 -->
<g id="node7" class="node"><title>Node7</title>
<g id="a_node7"><a xlink:href="main_8cpp.html" target="_top" xlink:title="S:/QT_CREATOR/Locker\l_Control/main.cpp">
<polygon fill="none" stroke="black" points="126.5,-61.5 126.5,-85.5 221.5,-85.5 221.5,-61.5 126.5,-61.5"/>
<text text-anchor="start" x="134.5" y="-75.9" font-family="Helvetica,sans-Serif" font-size="7.00">S:/QT_CREATOR/Locker</text>
<text text-anchor="middle" x="174" y="-67.9" font-family="Helvetica,sans-Serif" font-size="7.00">_Control/main.cpp</text>
</a>
</g>
</g>
<!-- Node3&#45;&gt;Node7 -->
<g id="edge8" class="edge"><title>Node3&#45;&gt;Node7</title>
<path fill="none" stroke="midnightblue" d="M203.657,-117.951C196.412,-107.337 187.717,-94.5968 181.621,-85.6656"/>
<polygon fill="midnightblue" stroke="midnightblue" points="200.784,-119.95 209.312,-126.237 206.566,-116.004 200.784,-119.95"/>
</g>
<!-- Node5&#45;&gt;Node2 -->
<g id="edge5" class="edge"><title>Node5&#45;&gt;Node2</title>
<path fill="none" stroke="midnightblue" d="M310.13,-95.8812C312.484,-122.667 312.272,-167.893 309.494,-191.358"/>
<polygon fill="midnightblue" stroke="midnightblue" points="313.574,-95.187 308.964,-85.6476 306.619,-95.9796 313.574,-95.187"/>
</g>
<!-- Node6 -->
<g id="node6" class="node"><title>Node6</title>
<g id="a_node6"><a xlink:href="thread__databasemanager_8cpp.html" target="_top" xlink:title="S:/QT_CREATOR/Locker\l_Control/thread_databasemanager.cpp">
<polygon fill="none" stroke="black" points="236.5,-0.5 236.5,-24.5 373.5,-24.5 373.5,-0.5 236.5,-0.5"/>
<text text-anchor="start" x="244.5" y="-14.9" font-family="Helvetica,sans-Serif" font-size="7.00">S:/QT_CREATOR/Locker</text>
<text text-anchor="middle" x="305" y="-6.9" font-family="Helvetica,sans-Serif" font-size="7.00">_Control/thread_databasemanager.cpp</text>
</a>
</g>
</g>
<!-- Node5&#45;&gt;Node6 -->
<g id="edge6" class="edge"><title>Node5&#45;&gt;Node6</title>
<path fill="none" stroke="midnightblue" d="M305,-51.198C305,-42.1726 305,-32.0351 305,-24.5477"/>
<polygon fill="midnightblue" stroke="midnightblue" points="301.5,-51.4025 305,-61.4026 308.5,-51.4026 301.5,-51.4025"/>
</g>
</g>
</svg>
