<?xml version="1.0" encoding="UTF-8" standalone="yes"?><svg xmlns="http://www.w3.org/2000/svg" xmlns:xlink="http://www.w3.org/1999/xlink" height="281px" style="width:269px;height:281px;" version="1.1" viewBox="0 0 269 281" width="269px"><defs><filter height="300%" id="f1" width="300%" x="-1" y="-1"><feGaussianBlur result="blurOut" stdDeviation="2.0"/><feColorMatrix in="blurOut" result="blurOut2" type="matrix" values="0 0 0 0 0 0 0 0 0 0 0 0 0 0 0 0 0 0 .4 0"/><feOffset dx="4.0" dy="4.0" in="blurOut2" result="blurOut3"/><feBlend in="SourceGraphic" in2="blurOut3" mode="normal"/></filter></defs><g><rect fill="#FEFECE" filter="url(#f1)" height="48" style="stroke: #A80036; stroke-width: 1.5;" width="80" x="6" y="8"/><ellipse cx="21" cy="24" fill="#ADD1B2" rx="11" ry="11" style="stroke: #A80036; stroke-width: 1.0;"/><path d="M23.7656,19.875 Q23.9219,19.6563 24.1094,19.5469 Q24.2969,19.4375 24.5156,19.4375 Q24.8906,19.4375 25.125,19.6953 Q25.3594,19.9531 25.3594,20.5625 L25.3594,22.0156 Q25.3594,22.625 25.125,22.8906 Q24.8906,23.1563 24.5156,23.1563 Q24.1719,23.1563 23.9688,22.9531 Q23.7656,22.7656 23.6563,22.25 Q23.6094,21.8906 23.4219,21.7031 Q23.0938,21.3281 22.4844,21.1094 Q21.875,20.8906 21.25,20.8906 Q20.4844,20.8906 19.8516,21.2188 Q19.2188,21.5469 18.7266,22.2969 Q18.2344,23.0469 18.2344,24.0781 L18.2344,25.1719 Q18.2344,26.4063 19.125,27.2266 Q20.0156,28.0469 21.6094,28.0469 Q22.5469,28.0469 23.2031,27.7969 Q23.5938,27.6406 24.0156,27.2031 Q24.2813,26.9375 24.4297,26.8594 Q24.5781,26.7813 24.7813,26.7813 Q25.1094,26.7813 25.3672,27.0391 Q25.625,27.2969 25.625,27.6406 Q25.625,27.9844 25.2813,28.3906 Q24.7813,28.9688 23.9844,29.2969 Q22.9063,29.75 21.6094,29.75 Q20.0938,29.75 18.8906,29.125 Q17.9063,28.625 17.2188,27.5547 Q16.5313,26.4844 16.5313,25.2031 L16.5313,24.0469 Q16.5313,22.7188 17.1484,21.5703 Q17.7656,20.4219 18.8594,19.8047 Q19.9531,19.1875 21.1875,19.1875 Q21.9219,19.1875 22.5703,19.3516 Q23.2188,19.5156 23.7656,19.875 Z "/><text fill="#000000" font-family="sans-serif" font-size="12" lengthAdjust="spacingAndGlyphs" textLength="48" x="35" y="28.9102">QThread</text><line style="stroke: #A80036; stroke-width: 1.5;" x1="7" x2="85" y1="40" y2="40"/><line style="stroke: #A80036; stroke-width: 1.5;" x1="7" x2="85" y1="48" y2="48"/><rect fill="#FEFECE" filter="url(#f1)" height="48" style="stroke: #A80036; stroke-width: 1.5;" width="220" x="8" y="116"/><ellipse cx="23" cy="132" fill="#ADD1B2" rx="11" ry="11" style="stroke: #A80036; stroke-width: 1.0;"/><path d="M25.7656,127.875 Q25.9219,127.6563 26.1094,127.5469 Q26.2969,127.4375 26.5156,127.4375 Q26.8906,127.4375 27.125,127.6953 Q27.3594,127.9531 27.3594,128.5625 L27.3594,130.0156 Q27.3594,130.625 27.125,130.8906 Q26.8906,131.1563 26.5156,131.1563 Q26.1719,131.1563 25.9688,130.9531 Q25.7656,130.7656 25.6563,130.25 Q25.6094,129.8906 25.4219,129.7031 Q25.0938,129.3281 24.4844,129.1094 Q23.875,128.8906 23.25,128.8906 Q22.4844,128.8906 21.8516,129.2188 Q21.2188,129.5469 20.7266,130.2969 Q20.2344,131.0469 20.2344,132.0781 L20.2344,133.1719 Q20.2344,134.4063 21.125,135.2266 Q22.0156,136.0469 23.6094,136.0469 Q24.5469,136.0469 25.2031,135.7969 Q25.5938,135.6406 26.0156,135.2031 Q26.2813,134.9375 26.4297,134.8594 Q26.5781,134.7813 26.7813,134.7813 Q27.1094,134.7813 27.3672,135.0391 Q27.625,135.2969 27.625,135.6406 Q27.625,135.9844 27.2813,136.3906 Q26.7813,136.9688 25.9844,137.2969 Q24.9063,137.75 23.6094,137.75 Q22.0938,137.75 20.8906,137.125 Q19.9063,136.625 19.2188,135.5547 Q18.5313,134.4844 18.5313,133.2031 L18.5313,132.0469 Q18.5313,130.7188 19.1484,129.5703 Q19.7656,128.4219 20.8594,127.8047 Q21.9531,127.1875 23.1875,127.1875 Q23.9219,127.1875 24.5703,127.3516 Q25.2188,127.5156 25.7656,127.875 Z "/><text fill="#000000" font-family="sans-serif" font-size="12" lengthAdjust="spacingAndGlyphs" textLength="188" x="37" y="136.9102">Thread_LocalDatabase_AutoSave</text><line style="stroke: #A80036; stroke-width: 1.5;" x1="9" x2="227" y1="148" y2="148"/><line style="stroke: #A80036; stroke-width: 1.5;" x1="9" x2="227" y1="156" y2="156"/><rect fill="#FEFECE" filter="url(#f1)" height="48" style="stroke: #A80036; stroke-width: 1.5;" width="215" x="10.5" y="224"/><ellipse cx="25.5" cy="240" fill="#ADD1B2" rx="11" ry="11" style="stroke: #A80036; stroke-width: 1.0;"/><path d="M28.2656,235.875 Q28.4219,235.6563 28.6094,235.5469 Q28.7969,235.4375 29.0156,235.4375 Q29.3906,235.4375 29.625,235.6953 Q29.8594,235.9531 29.8594,236.5625 L29.8594,238.0156 Q29.8594,238.625 29.625,238.8906 Q29.3906,239.1563 29.0156,239.1563 Q28.6719,239.1563 28.4688,238.9531 Q28.2656,238.7656 28.1563,238.25 Q28.1094,237.8906 27.9219,237.7031 Q27.5938,237.3281 26.9844,237.1094 Q26.375,236.8906 25.75,236.8906 Q24.9844,236.8906 24.3516,237.2188 Q23.7188,237.5469 23.2266,238.2969 Q22.7344,239.0469 22.7344,240.0781 L22.7344,241.1719 Q22.7344,242.4063 23.625,243.2266 Q24.5156,244.0469 26.1094,244.0469 Q27.0469,244.0469 27.7031,243.7969 Q28.0938,243.6406 28.5156,243.2031 Q28.7813,242.9375 28.9297,242.8594 Q29.0781,242.7813 29.2813,242.7813 Q29.6094,242.7813 29.8672,243.0391 Q30.125,243.2969 30.125,243.6406 Q30.125,243.9844 29.7813,244.3906 Q29.2813,244.9688 28.4844,245.2969 Q27.4063,245.75 26.1094,245.75 Q24.5938,245.75 23.3906,245.125 Q22.4063,244.625 21.7188,243.5547 Q21.0313,242.4844 21.0313,241.2031 L21.0313,240.0469 Q21.0313,238.7188 21.6484,237.5703 Q22.2656,236.4219 23.3594,235.8047 Q24.4531,235.1875 25.6875,235.1875 Q26.4219,235.1875 27.0703,235.3516 Q27.7188,235.5156 28.2656,235.875 Z "/><text fill="#000000" font-family="sans-serif" font-size="12" lengthAdjust="spacingAndGlyphs" textLength="183" x="39.5" y="244.9102">SQLite_Local_DatabaseManager</text><line style="stroke: #A80036; stroke-width: 1.5;" x1="11.5" x2="224.5" y1="256" y2="256"/><line style="stroke: #A80036; stroke-width: 1.5;" x1="11.5" x2="224.5" y1="264" y2="264"/><rect fill="#FEFECE" filter="url(#f1)" height="48" style="stroke: #A80036; stroke-width: 1.5;" width="139" x="121.5" y="8"/><ellipse cx="136.5" cy="24" fill="#ADD1B2" rx="11" ry="11" style="stroke: #A80036; stroke-width: 1.0;"/><path d="M139.2656,19.875 Q139.4219,19.6563 139.6094,19.5469 Q139.7969,19.4375 140.0156,19.4375 Q140.3906,19.4375 140.625,19.6953 Q140.8594,19.9531 140.8594,20.5625 L140.8594,22.0156 Q140.8594,22.625 140.625,22.8906 Q140.3906,23.1563 140.0156,23.1563 Q139.6719,23.1563 139.4688,22.9531 Q139.2656,22.7656 139.1563,22.25 Q139.1094,21.8906 138.9219,21.7031 Q138.5938,21.3281 137.9844,21.1094 Q137.375,20.8906 136.75,20.8906 Q135.9844,20.8906 135.3516,21.2188 Q134.7188,21.5469 134.2266,22.2969 Q133.7344,23.0469 133.7344,24.0781 L133.7344,25.1719 Q133.7344,26.4063 134.625,27.2266 Q135.5156,28.0469 137.1094,28.0469 Q138.0469,28.0469 138.7031,27.7969 Q139.0938,27.6406 139.5156,27.2031 Q139.7813,26.9375 139.9297,26.8594 Q140.0781,26.7813 140.2813,26.7813 Q140.6094,26.7813 140.8672,27.0391 Q141.125,27.2969 141.125,27.6406 Q141.125,27.9844 140.7813,28.3906 Q140.2813,28.9688 139.4844,29.2969 Q138.4063,29.75 137.1094,29.75 Q135.5938,29.75 134.3906,29.125 Q133.4063,28.625 132.7188,27.5547 Q132.0313,26.4844 132.0313,25.2031 L132.0313,24.0469 Q132.0313,22.7188 132.6484,21.5703 Q133.2656,20.4219 134.3594,19.8047 Q135.4531,19.1875 136.6875,19.1875 Q137.4219,19.1875 138.0703,19.3516 Q138.7188,19.5156 139.2656,19.875 Z "/><text fill="#000000" font-family="sans-serif" font-size="12" lengthAdjust="spacingAndGlyphs" textLength="107" x="150.5" y="28.9102">CSQLite_Local_DB</text><line style="stroke: #A80036; stroke-width: 1.5;" x1="122.5" x2="259.5" y1="40" y2="40"/><line style="stroke: #A80036; stroke-width: 1.5;" x1="122.5" x2="259.5" y1="48" y2="48"/><path d="M72.9359,72.656 C82.781,87.15 93.5934,103.068 102.1589,115.678 " fill="none" style="stroke: #A80036; stroke-width: 1.0;"/><polygon fill="none" points="67.0701,76.478,61.6229,56,78.6512,68.612,67.0701,76.478" style="stroke: #A80036; stroke-width: 1.0;"/><path d="M93.0088,176.8693 C90.6611,192.3254 91.5974,209.9595 95.8176,223.6784 " fill="none" style="stroke: #A80036; stroke-width: 1.0;"/><polygon fill="#A80036" points="95.9173,164,90.6929,168.9705,93.2718,175.7047,98.4961,170.7342,95.9173,164" style="stroke: #A80036; stroke-width: 1.0;"/><path d="M118,210.2977 C118,194.9223 118,177.5198 118,164 " fill="none" style="stroke: #A80036; stroke-width: 1.0;"/><polygon fill="none" points="118,223.6784,122,217.6784,118,211.6784,114,217.6784,118,223.6784" style="stroke: #A80036; stroke-width: 1.0;"/><path d="M142.991,176.8693 C145.339,192.3254 144.403,209.9595 140.182,223.6784 " fill="none" style="stroke: #A80036; stroke-width: 1.0;"/><polygon fill="none" points="140.083,164,137.5042,170.7342,142.7286,175.7047,145.3074,168.9705,140.083,164" style="stroke: #A80036; stroke-width: 1.0;"/><path d="M167.58,67.007 C156.639,82.894 143.891,101.405 134.061,115.678 " fill="none" style="stroke: #A80036; stroke-width: 1.0;"/><polygon fill="none" points="175.16,56,168.4624,58.6726,168.3534,65.8828,175.051,63.2103,175.16,56" style="stroke: #A80036; stroke-width: 1.0;"/></g></svg>